# Modified by OBJRotate180 (Mesh rotated 180 degrees around Y-axis)
# Original file: med_console_w.obj
mtllib med_console_w.mtl
v 0.500000 -0.200000 0.500000
v 0.500000 -0.200000 -0.500000
v 0.500008 0.145000 0.500000
v 0.500008 0.145000 -0.500000
v 0.500008 0.145000 0.500000
v 0.500000 -0.200000 -0.500000
v -0.500000 0.145000 0.500000
v -0.500000 0.145000 -0.500000
v -0.500000 -0.200000 0.500000
v -0.500000 -0.200000 -0.500000
v -0.500000 -0.200000 0.500000
v -0.500000 0.145000 -0.500000
v -0.500000 -0.200000 0.500000
v 0.500000 -0.200000 0.500000
v -0.500000 0.145000 0.500000
v 0.500008 0.145000 0.500000
v -0.500000 0.145000 0.500000
v 0.500000 -0.200000 0.500000
v 0.500000 -0.200000 -0.500000
v -0.500000 -0.200000 -0.500000
v 0.500008 0.145000 -0.500000
v -0.500000 0.145000 -0.500000
v 0.500008 0.145000 -0.500000
v -0.500000 -0.200000 -0.500000
v 0.185923 0.702958 -0.223107
v 0.185907 0.702958 0.223112
v 0.378061 0.659978 -0.223107
v 0.185907 0.702958 0.223112
v 0.378074 0.659978 0.223113
v 0.378061 0.659978 -0.223107
v 0.185923 0.541888 -0.223108
v 0.185923 0.702958 -0.223107
v 0.378061 0.541888 -0.223107
v 0.378061 0.659978 -0.223107
v 0.378061 0.541888 -0.223107
v 0.185923 0.702958 -0.223107
v 0.185923 0.702958 -0.223107
v 0.185923 0.541888 -0.223108
v 0.185907 0.702958 0.223112
v 0.378074 0.541888 0.223113
v 0.378074 0.659978 0.223113
v 0.185907 0.541888 0.223111
v 0.185907 0.702958 0.223112
v 0.185907 0.541888 0.223111
v 0.378074 0.659978 0.223113
v 0.378061 0.541888 -0.223107
v 0.378061 0.659978 -0.223107
v 0.378074 0.541888 0.223113
v 0.378074 0.659978 0.223113
v 0.378074 0.541888 0.223113
v 0.378061 0.659978 -0.223107
v 0.185923 0.541888 -0.223108
v 0.185907 0.541888 0.223111
v 0.185907 0.702958 0.223112
v 0.378061 0.541888 -0.223107
v 0.378061 0.143689 -0.310834
v 0.185923 0.541888 -0.223108
v 0.185923 0.143689 -0.310835
v 0.185923 0.541888 -0.223108
v 0.378061 0.143689 -0.310834
v 0.185907 0.541888 0.223111
v 0.185907 0.143688 0.310838
v 0.378074 0.541888 0.223113
v 0.378074 0.143688 0.310840
v 0.378074 0.541888 0.223113
v 0.185907 0.143688 0.310838
v 0.378074 0.541888 0.223113
v 0.378074 0.143688 0.310840
v 0.378061 0.541888 -0.223107
v 0.378061 0.143689 -0.310834
v 0.378061 0.541888 -0.223107
v 0.378074 0.143688 0.310840
v 0.185923 0.541888 -0.223108
v 0.185923 0.143689 -0.310835
v 0.185907 0.541888 0.223111
v 0.185907 0.143688 0.310838
v 0.185907 0.541888 0.223111
v 0.185923 0.143689 -0.310835
v 0.378061 0.143689 -0.310834
v 0.378074 0.143688 0.310840
v 0.500008 0.145000 -0.500000
v 0.378074 0.143688 0.310840
v 0.500008 0.145000 0.500000
v 0.500008 0.145000 -0.500000
v 0.185907 0.143688 0.310838
v -0.500000 0.145000 0.500000
v 0.378074 0.143688 0.310840
v -0.500000 0.145000 0.500000
v 0.500008 0.145000 0.500000
v 0.378074 0.143688 0.310840
v 0.185923 0.143689 -0.310835
v 0.378061 0.143689 -0.310834
v -0.500000 0.145000 -0.500000
v 0.378061 0.143689 -0.310834
v 0.500008 0.145000 -0.500000
v -0.500000 0.145000 -0.500000
v 0.185907 0.143688 0.310838
v 0.185923 0.143689 -0.310835
v -0.500000 0.145000 0.500000
v 0.185923 0.143689 -0.310835
v -0.500000 0.145000 -0.500000
v -0.500000 0.145000 0.500000
vt 0.361061 0.774357
vt 0.203665 0.774357
vt 0.361061 0.808154
vt 0.203665 0.808154
vt 0.361061 0.808154
vt 0.203665 0.774357
vt 0.361061 0.808154
vt 0.203665 0.808154
vt 0.361061 0.774357
vt 0.203665 0.774357
vt 0.361061 0.774357
vt 0.203665 0.808154
vt 0.203458 0.774377
vt 0.363252 0.774377
vt 0.203433 0.807750
vt 0.363277 0.807750
vt 0.203433 0.807750
vt 0.363252 0.774377
vt 0.363252 0.774377
vt 0.203458 0.774377
vt 0.363277 0.807750
vt 0.203433 0.807750
vt 0.363277 0.807750
vt 0.203458 0.774377
vt 0.990705 0.352257
vt 0.990708 0.494903
vt 0.941615 0.352256
vt 0.990708 0.494903
vt 0.941607 0.494902
vt 0.941615 0.352256
vt 0.450493 0.654641
vt 0.482349 0.654641
vt 0.450493 0.700901
vt 0.474671 0.700901
vt 0.450493 0.700901
vt 0.484959 0.657434
vt 0.912881 0.619263
vt 0.912881 0.592986
vt 0.976470 0.619263
vt 0.450493 0.700903
vt 0.474671 0.700903
vt 0.450493 0.654639
vt 0.482349 0.654639
vt 0.450493 0.654639
vt 0.474671 0.700903
vt 0.912882 0.592986
vt 0.912882 0.611196
vt 0.976470 0.592986
vt 0.976470 0.611196
vt 0.976470 0.592986
vt 0.912882 0.611196
vt 0.912881 0.592986
vt 0.976470 0.592986
vt 0.976470 0.619263
vt 0.591021 0.703192
vt 0.479556 0.703192
vt 0.591021 0.650576
vt 0.479556 0.650576
vt 0.591021 0.650576
vt 0.479556 0.703192
vt 0.591021 0.650575
vt 0.479556 0.650575
vt 0.591021 0.703193
vt 0.479556 0.703193
vt 0.591021 0.703193
vt 0.479556 0.650575
vt 0.976470 0.592986
vt 0.988972 0.518246
vt 0.912882 0.592986
vt 0.900380 0.518246
vt 0.912882 0.592986
vt 0.988972 0.518246
vt 0.912881 0.592986
vt 0.900380 0.518246
vt 0.976470 0.592986
vt 0.988972 0.518246
vt 0.976470 0.592986
vt 0.900380 0.518246
vt 0.864866 0.612881
vt 0.864867 0.537774
vt 0.879598 0.635734
vt 0.864867 0.537774
vt 0.879598 0.514921
vt 0.879598 0.635734
vt 0.841651 0.537774
vt 0.758785 0.514921
vt 0.864867 0.537774
vt 0.758785 0.514921
vt 0.879598 0.514921
vt 0.864867 0.537774
vt 0.841653 0.612881
vt 0.864866 0.612881
vt 0.758785 0.635734
vt 0.864866 0.612881
vt 0.879598 0.635734
vt 0.758785 0.635734
vt 0.841651 0.537774
vt 0.841653 0.612881
vt 0.758785 0.514921
vt 0.841653 0.612881
vt 0.758785 0.635734
vt 0.758785 0.514921
vn 1.000000 -0.000022 0.000000
vn 1.000000 -0.000022 0.000000
vn 1.000000 -0.000022 0.000000
vn 1.000000 -0.000022 0.000000
vn 1.000000 -0.000022 0.000000
vn 1.000000 -0.000022 0.000000
vn -1.000000 0.000000 0.000000
vn -1.000000 0.000000 0.000000
vn -1.000000 0.000000 0.000000
vn -1.000000 0.000000 0.000000
vn -1.000000 0.000000 0.000000
vn -1.000000 0.000000 0.000000
vn 0.000000 0.000000 1.000000
vn 0.000000 0.000000 1.000000
vn 0.000000 0.000000 1.000000
vn 0.000000 0.000000 1.000000
vn 0.000000 0.000000 1.000000
vn 0.000000 0.000000 1.000000
vn 0.000000 0.000000 -1.000000
vn 0.000000 0.000000 -1.000000
vn 0.000000 0.000000 -1.000000
vn 0.000000 0.000000 -1.000000
vn 0.000000 0.000000 -1.000000
vn 0.000000 0.000000 -1.000000
vn 0.218299 0.975882 0.000008
vn 0.218299 0.975882 0.000008
vn 0.218299 0.975882 0.000008
vn 0.218269 0.975889 -0.000005
vn 0.218269 0.975889 -0.000005
vn 0.218269 0.975889 -0.000005
vn 0.000004 0.000000 -1.000000
vn 0.000004 0.000000 -1.000000
vn 0.000004 0.000000 -1.000000
vn 0.000005 0.000002 -1.000000
vn 0.000004 0.000000 -1.000000
vn 0.000005 0.000002 -1.000000
vn -1.000000 0.000000 -0.000035
vn -1.000000 0.000000 -0.000035
vn -1.000000 0.000000 -0.000035
vn -0.000008 -0.000001 1.000000
vn -0.000008 -0.000001 1.000000
vn -0.000008 -0.000001 1.000000
vn -0.000008 -0.000001 1.000000
vn -0.000008 -0.000001 1.000000
vn -0.000008 -0.000001 1.000000
vn 1.000000 0.000001 -0.000030
vn 1.000000 0.000001 -0.000030
vn 1.000000 0.000001 -0.000030
vn 1.000000 0.000001 -0.000030
vn 1.000000 0.000001 -0.000030
vn 1.000000 0.000001 -0.000030
vn -1.000000 0.000000 -0.000035
vn -1.000000 0.000000 -0.000035
vn -1.000000 0.000000 -0.000035
vn 0.000003 0.215150 -0.976581
vn 0.000003 0.215150 -0.976581
vn 0.000003 0.215150 -0.976581
vn 0.000005 0.215150 -0.976581
vn 0.000003 0.215150 -0.976581
vn 0.000003 0.215150 -0.976581
vn -0.000007 0.215149 0.976581
vn -0.000007 0.215149 0.976581
vn -0.000007 0.215149 0.976581
vn -0.000010 0.215150 0.976581
vn -0.000007 0.215149 0.976581
vn -0.000007 0.215149 0.976581
vn 1.000000 0.000001 -0.000030
vn 1.000000 -0.000007 -0.000030
vn 1.000000 0.000001 -0.000030
vn 1.000000 0.000005 -0.000021
vn 1.000000 0.000001 -0.000030
vn 1.000000 0.000005 -0.000021
vn -1.000000 0.000000 -0.000035
vn -1.000000 0.000008 -0.000035
vn -1.000000 0.000000 -0.000035
vn -1.000000 -0.000006 -0.000025
vn -1.000000 -0.000006 -0.000025
vn -1.000000 -0.000006 -0.000025
vn -0.010749 0.999942 0.000001
vn -0.010749 0.999942 0.000001
vn -0.010749 0.999942 0.000001
vn -0.010749 0.999942 0.000001
vn -0.010756 0.999942 0.000000
vn -0.010749 0.999942 0.000001
vn 0.000000 0.999976 -0.006933
vn 0.000000 0.999976 -0.006933
vn 0.000000 0.999976 -0.006933
vn 0.000000 0.999976 -0.006933
vn 0.000000 0.999976 -0.006933
vn 0.000000 0.999976 -0.006933
vn -0.000001 0.999976 0.006934
vn -0.000001 0.999976 0.006934
vn -0.000001 0.999976 0.006934
vn -0.000001 0.999976 0.006934
vn 0.000000 0.999976 0.006930
vn -0.000001 0.999976 0.006934
vn 0.001912 0.999998 0.000001
vn 0.001912 0.999998 0.000001
vn 0.001912 0.999998 0.000001
vn 0.001912 0.999998 0.000001
vn 0.001912 0.999998 0.000000
vn 0.001912 0.999998 0.000001
o tile_console
o tile_console
usemtl PDX08_-_Default
f 1/1/1 2/2/2 3/3/3
f 4/4/4 5/5/5 6/6/6
f 7/7/7 8/8/8 9/9/9
f 10/10/10 11/11/11 12/12/12
f 13/13/13 14/14/14 15/15/15
f 16/16/16 17/17/17 18/18/18
f 19/19/19 20/20/20 21/21/21
f 22/22/22 23/23/23 24/24/24
f 25/25/25 26/26/26 27/27/27
f 28/28/28 29/29/29 30/30/30
f 31/31/31 32/32/32 33/33/33
f 34/34/34 35/35/35 36/36/36
f 37/37/37 38/38/38 39/39/39
f 40/40/40 41/41/41 42/42/42
f 43/43/43 44/44/44 45/45/45
f 46/46/46 47/47/47 48/48/48
f 49/49/49 50/50/50 51/51/51
f 52/52/52 53/53/53 54/54/54
f 55/55/55 56/56/56 57/57/57
f 58/58/58 59/59/59 60/60/60
f 61/61/61 62/62/62 63/63/63
f 64/64/64 65/65/65 66/66/66
f 67/67/67 68/68/68 69/69/69
f 70/70/70 71/71/71 72/72/72
f 73/73/73 74/74/74 75/75/75
f 76/76/76 77/77/77 78/78/78
f 79/79/79 80/80/80 81/81/81
f 82/82/82 83/83/83 84/84/84
f 85/85/85 86/86/86 87/87/87
f 88/88/88 89/89/89 90/90/90
f 91/91/91 92/92/92 93/93/93
f 94/94/94 95/95/95 96/96/96
f 97/97/97 98/98/98 99/99/99
f 100/100/100 101/101/101 102/102/102
