# Modified by OBJRotateHelper (Mesh rotated 180 degrees around Y-axis)
# Original file: ArrowCCW.obj
mtllib Untitled.mtl
v 0.100178 0.000000 -0.020156
v -0.232152 0.000000 0.008919
v 0.254453 0.000000 -0.478250
v -0.034453 0.000000 -0.645050
v 0.100178 0.178988 -0.020156
v -0.232152 0.178988 0.008919
v 0.254453 0.178988 -0.478250
v -0.034453 0.178988 -0.645050
v 0.243758 0.000000 0.004888
v -0.369202 0.000000 0.058515
v -0.369202 0.178988 0.058515
v 0.243758 0.178988 0.004888
v 0.013253 0.000000 0.718671
v -0.018253 0.000000 0.721427
v -0.018253 0.178988 0.721427
v 0.013253 0.178988 0.718671
v 0.192424 0.000000 -0.385190
v -0.109920 0.000000 -0.526176
v -0.109920 0.178988 -0.526176
v 0.192424 0.178988 -0.385190
v 0.124491 0.000000 -0.230454
v -0.197742 0.178988 -0.316796
v -0.197742 0.000000 -0.316796
v 0.124491 0.178988 -0.230454
v 0.099884 0.000000 -0.100952
v -0.232446 0.178988 -0.130027
v -0.232446 0.000000 -0.130027
v 0.099884 0.178988 -0.100952
v -0.158046 0.000000 -0.423044
v 0.155435 0.178988 -0.308946
v 0.155435 0.000000 -0.308946
v -0.158046 0.178988 -0.423044
v -0.218990 0.000000 -0.220898
v 0.109542 0.178988 -0.162969
v 0.109542 0.000000 -0.162969
v -0.218990 0.178988 -0.220898
vt 1.000000 0.186531
vt 0.000000 0.186531
vt 0.000000 0.000000
vt 1.000000 0.000000
vt 1.000000 1.000000
vt 0.000000 1.000000
vt 0.186531 0.000000
vt 0.186531 1.000000
vt 0.226645 0.000000
vt 0.226645 1.000000
vt 0.000000 0.773355
vt 1.000000 0.773355
vt 0.773355 1.000000
vt 0.773355 0.000000
vt 0.365198 0.000000
vt 0.365198 1.000000
vt 1.000000 0.634802
vt 0.000000 0.634802
vt 0.000000 0.458305
vt 1.000000 0.458305
vt 1.000000 0.634802
vt 0.634802 0.000000
vt 0.634802 1.000000
vt 0.458305 1.000000
vt 0.458305 0.000000
vt 0.686766 0.000000
vt 0.686766 1.000000
vt 0.541695 1.000000
vt 0.541695 0.000000
vt 1.000000 0.313234
vt 0.000000 0.313234
vt 0.313234 0.000000
vt 0.313234 1.000000
vt 0.813469 1.000000
vt 0.813469 0.000000
vn 0.000000 -1.000000 0.000000
vn 0.000000 1.000000 0.000000
vn 0.087200 0.000000 0.996200
vn -0.997400 0.000000 -0.072400
vn -1.000000 0.000000 0.002100
vn 0.500000 0.000000 -0.866000
vn 0.867900 0.000000 0.496700
vn 0.832100 0.000000 0.554600
vn -0.340300 0.000000 -0.940300
vn 0.171800 0.000000 -0.985100
vn -0.883800 0.000000 0.467900
vn 0.951600 0.000000 0.307300
vn -0.844200 0.000000 -0.536000
vn -0.877000 0.000000 -0.480400
vn 0.915700 0.000000 0.401900
vn -0.922200 0.000000 -0.386700
vn -0.958900 0.000000 -0.283800
vn 0.982700 0.000000 0.185200
vn 0.956300 0.000000 0.292400
vn -0.983400 0.000000 -0.181500
vn 1.000000 0.000000 -0.003600
vn 0.997200 0.000000 0.075400
o arrow
o arrow
o arrow
usemtl arrow
f 1/4/1 2/3/1 27/2/1 25/1/1
f 5/3/2 28/2/2 26/1/2 6/4/2
f 16/6/3 15/5/3 14/4/3 13/3/3
f 2/3/5 6/6/5 26/8/4 27/7/4
f 8/6/6 7/5/6 3/4/6 4/3/6
f 3/3/8 7/6/8 20/10/7 17/9/7
f 9/3/1 10/4/1 2/4/1 1/3/1
f 10/4/9 11/5/9 6/5/9 2/4/9
f 11/5/2 12/6/2 5/6/2 6/5/2
f 12/6/10 9/3/10 1/3/10 5/6/10
f 13/3/1 14/4/1 10/4/1 9/3/1
f 14/4/11 15/5/11 11/5/11 10/4/11
f 15/5/2 16/6/2 12/6/2 11/5/2
f 16/6/12 13/3/12 9/3/12 12/6/12
f 17/12/1 18/11/1 4/6/1 3/5/1
f 19/12/2 20/11/2 7/6/2 8/5/2
f 18/14/14 19/13/14 8/5/13 4/4/13
f 17/9/7 20/10/7 30/16/15 31/15/15
f 21/20/1 23/19/1 29/18/1 31/17/1
f 22/20/2 24/19/2 30/18/2 32/21/2
f 23/25/17 22/24/17 32/23/16 29/22/16
f 21/29/19 24/28/19 34/27/18 35/26/18
f 25/1/1 27/2/1 33/31/1 35/30/1
f 26/1/2 28/2/2 34/31/2 36/30/2
f 27/7/4 26/8/4 36/33/20 33/32/20
f 25/35/22 28/34/22 5/5/21 1/4/21
f 31/15/15 30/16/15 24/28/19 21/29/19
f 31/17/1 29/18/1 18/11/1 17/12/1
f 32/21/2 30/18/2 20/11/2 19/12/2
f 29/22/16 32/23/16 19/13/14 18/14/14
f 35/26/18 34/27/18 28/34/22 25/35/22
f 35/30/1 33/31/1 23/19/1 21/20/1
f 36/30/2 34/31/2 24/19/2 22/20/2
f 33/32/20 36/33/20 22/24/17 23/25/17
