# File produced by Open Asset Import Library (http://www.assimp.sf.net)
# (assimp v4.1.0)

mtllib z1xx48xy2tqf.mtl

# 26 vertex positions
v  -0.4999935030937195 -0.2000000029802322 -0.5000070333480835
v  -0.5000065565109253 -0.2000000029802322 0.4999929964542389
v  -0.5000007152557373 0 -0.3339329957962036
v  -0.4999993443489075 0 0.3339329957962036
v  -0.4999949336051941 0.1450000107288361 -0.4631339907646179
v  -0.4999935030937195 0.1450000107288361 -0.5000070333480835
v  -0.5000065565109253 0.1450000107288361 0.4999929964542389
v  -0.5000050067901611 0.1450000107288361 0.4632219970226288
v  0.5000064969062805 -0.2000000029802322 -0.4999929964542389
v  0.3339325189590454 0 -0.5000003576278687
v  -0.3339335322380066 0 -0.4999996721744537
v  -0.3360726237297058 0 -0.3360547125339508
v  -0.4638449549674988 0.1450000107288361 -0.4631325006484985
v  -0.4638645052909851 0.1450000107288361 -0.5000054836273193
v  0.3297310471534729 0 -0.003140383632853627
v  0.463876485824585 0.1450000107288361 -0.4999944865703583
v  0.4638690054416656 0.1450000107288361 1.749416696839035e-05
v  -0.00315326452255249 0 0.3297369778156281
v  1.093745231628418e-05 0.1450000107288361 0.4658190011978149
v  0.2856388688087463 0 0.1633370071649551
v  0.3922011852264404 0.1450000107288361 0.2174234986305237
v  0.5000064969062805 0.1450000107288361 -0.4999929964542389
v  0.4999935030937195 0.1450000107288361 0.5000069737434387
v  0.4999935030937195 -0.2000000029802322 0.5000069737434387
v  0.1627072691917419 0 0.2861053049564362
v  0.2199349701404572 0.1450000107288361 0.3873090744018555

# 64 UV coordinates
vt 0.1189249977469444 0.8173419833183289 0
vt 0.02181600034236908 0.8173419833183289 0
vt 0.1045740023255348 0.8328449726104736 0
vt 0.03616699948906898 0.8328449726104736 0
vt 0.1078369989991188 0.8405960202217102 0
vt 0.1189249977469444 0.8405960202217102 0
vt 0.02181600034236908 0.8405960202217102 0
vt 0.0329039990901947 0.8405960202217102 0
vt 0.02064099907875061 0.8191109895706177 0
vt 0.122078001499176 0.8191109895706177 0
vt 0.03563199937343597 0.8310319781303406 0
vt 0.1070879995822906 0.8310319781303406 0
vt 0.06979899853467941 0.7268109917640686 0
vt 0.05086600035429001 0.7267979979515076 0
vt 0.06902699917554855 0.7619439959526062 0
vt 0.05086600035429001 0.7619850039482117 0
vt 0.09071400016546249 0.7620580196380615 0
vt 0.09194000065326691 0.7268030047416687 0
vt 0.4360960125923157 0.9723520278930664 0
vt 0.4507400095462799 0.9577080011367798 0
vt 0.4514890015125275 0.9877449870109558 0
vt 0.4661299884319305 0.9731029868125916 0
vt 0.1786320060491562 0.9030399918556213 0
vt 0.1000929996371269 0.9438509941101074 0
vt 0.178628996014595 0.8844109773635864 0
vt 0.1000929996371269 0.8844109773635864 0
vt 0.3147169947624207 0.7615200281143188 0
vt 0.3121350109577179 0.726963996887207 0
vt 0.2078810036182404 0.7613109946250916 0
vt 0.20796899497509 0.727092981338501 0
vt 0.08861999958753586 0.7269890308380127 0
vt 0.003899999894201756 0.7269270420074463 0
vt 0.09113699942827225 0.7612720131874084 0
vt 0.00393400015309453 0.7612249851226807 0
vt 0.196940004825592 0.9030399918556213 0
vt 0.196940004825592 0.9864330291748047 0
vt 0.1412989944219589 0.9864330291748047 0
vt 0.1038340032100677 0.9697530269622803 0
vt 0.1756560057401657 0.7612839937210083 0
vt 0.1730539947748184 0.7269999980926514 0
vt 0.4131160080432892 0.8352980017662048 0
vt 0.4221140146255493 0.9118019938468933 0
vt 0.4131160080432892 0.9865880012512207 0
vt 0.4221149981021881 0.8352980017662048 0
vt 0.4890770018100739 0.977653980255127 0
vt 0.5676040053367615 0.9865880012512207 0
vt 0.5676040053367615 0.977653980255127 0
vt 0.4364329874515533 0.9424239993095398 0
vt 0.02809100039303303 0.8159549832344055 0
vt 0.1196160018444061 0.8159549832344055 0
vt 0.02809100039303303 0.8378720283508301 0
vt 0.1196160018444061 0.8378720283508301 0
vt 0.1175720021128654 0.8169090151786804 0
vt 0.02418000064790249 0.8169090151786804 0
vt 0.1175720021128654 0.8368819952011108 0
vt 0.02418000064790249 0.8368819952011108 0
vt 0.110495999455452 0.8369929790496826 0
vt 0.122078001499176 0.8369929790496826 0
vt 0.02064099907875061 0.8369929790496826 0
vt 0.03222399950027466 0.8369929790496826 0
vt 0.1197500005364418 0.9837650060653687 0
vt 0.1284569948911667 0.7270010113716125 0
vt 0.1286250054836273 0.7611870169639587 0
vt 0.4585669934749603 0.9678090214729309 0

# 32 vertex normals
vn -1 -2.300000051036477e-05 -1.400000019202707e-05
vn -1 3.400000059627928e-05 0
vn -1 9.999999974752427e-07 -4.199999966658652e-05
vn -1 9.999999974752427e-07 -4.099999932805076e-05
vn -1 -1.999999994950485e-06 -3.80000019504223e-05
vn 1.299999985349132e-05 -2.300000051036477e-05 -1
vn -1.000000338535756e-06 3.400000059627928e-05 -1
vn 0.7459889054298401 0.6658869981765747 0.00973744411021471
vn 0.7447460293769836 0.6673480272293091 -0.0003885735641233623
vn -3.970594116253778e-05 0.6652609705924988 0.7466109991073608
vn 0.009678279049694538 0.6638780236244202 0.7477781176567078
vn -1.299999951437369e-11 1 9.999999974752427e-07
vn -1.000026031761081e-06 1 1.999985897782608e-06
vn 0 1 0
vn -0.7447140216827393 0.6673840284347534 -1.142599649028853e-05
vn -0.7421669960021973 0.670212984085083 -0.001493390300311148
vn -0.7294945120811462 0.6745629906654358 -0.1131532117724419
vn -0.7359774708747864 0.6666110157966614 -0.1181813031435013
vn -0.1239104568958282 0.6673939824104309 -0.7343237400054932
vn 0.001462649554014206 0.6700980067253113 -0.7422710061073303
vn -0.1199175715446472 0.6783999800682068 -0.7248396873474121
vn 0.003876703092828393 0.6655099987983704 -0.7463789582252502
vn -0.6588229537010193 0.6432459950447083 -0.3901112079620361
vn -0.6666569113731384 0.6353260278701782 -0.3897833228111267
vn 1 -9.999999974752427e-07 1.400000019202707e-05
vn 1 0 1.400000019202707e-05
vn -1.299999985349132e-05 0 1
vn 3.899999865097925e-05 -9.999999974752427e-07 -1
vn 3.999999898951501e-05 0 -1
vn 3.799999831244349e-05 3.000000106112566e-06 -1
vn -0.3869452178478241 0.6266180276870728 -0.6764793992042542
vn -0.3953544199466705 0.6383050084114075 -0.6605015397071838

# Mesh 'tile_corner_static' with 46 faces
g tile_corner_static
usemtl PDX01_-_Default
f  1/1/1 2/2/1 3/3/1
f  4/4/2 3/3/2 2/2/2
f  3/3/3 5/5/3 1/1/3
f  6/6/4 1/1/4 5/5/4
f  2/2/4 7/7/4 4/4/4
f  8/8/5 4/4/5 7/7/5
f  9/9/6 1/10/6 10/11/6
f  11/12/7 10/11/7 1/10/7
f  12/13/8 11/14/8 13/15/8
f  14/16/9 13/15/9 11/14/9
f  5/17/10 3/18/10 13/15/10
f  12/13/11 13/15/11 3/18/11
f  5/19/12 13/20/12 6/21/12
f  14/22/13 6/21/13 13/20/13
f  12/23/14 15/24/14 11/25/14
f  10/26/14 11/25/14 15/24/14
f  16/27/15 10/28/16 17/29/17
f  15/30/18 17/29/17 10/28/16
f  18/31/19 4/32/20 19/33/21
f  8/34/22 19/33/21 4/32/20
f  3/35/14 4/36/14 12/23/14
f  18/37/14 12/23/14 4/36/14
f  15/24/14 12/23/14 20/38/14
f  17/29/17 15/30/18 21/39/23
f  20/40/24 21/39/23 15/30/18
f  22/41/14 17/42/14 23/43/14
f  16/44/14 17/42/14 22/41/14
f  19/45/14 7/46/14 23/43/14
f  8/47/14 7/46/14 19/45/14
f  17/42/14 21/48/14 23/43/14
f  24/49/25 9/50/25 23/51/25
f  22/52/26 23/51/26 9/50/26
f  2/53/27 24/54/27 7/55/27
f  23/56/27 7/55/27 24/54/27
f  14/57/28 11/12/28 6/58/28
f  1/10/29 6/58/29 11/12/29
f  9/9/29 10/11/29 22/59/29
f  16/60/30 22/59/30 10/11/30
f  25/61/14 12/23/14 18/37/14
f  25/62/31 18/31/19 26/63/32
f  19/33/21 26/63/32 18/31/19
f  23/43/14 26/64/14 19/45/14
f  23/43/14 21/48/14 26/64/14
f  20/40/24 25/62/31 21/39/23
f  26/63/32 21/39/23 25/62/31
f  25/61/14 20/38/14 12/23/14

