# File produced by Open Asset Import Library (http://www.assimp.sf.net)
# (assimp v4.1.0)

mtllib v66kd3ku6wj9.mtl

# 87 vertex positions
v  0.3339329957962036 0 0.5
v  0.3339329957962036 0 -0.5
v  -0.3339329957962036 0 0.5
v  -0.3339329957962036 0 -0.5
v  -0.4999960064888 -0.2000000029802322 -0.5
v  -0.5000029802322388 0.1000000014901161 -0.5
v  0.5 -0.2000000029802322 -0.5
v  -0.5000029802322388 0.1000000014901161 0.5
v  -0.4999960064888 -0.2000000029802322 0.5
v  0.5 -0.2000000029802322 0.5
v  -0.3858250081539154 0.1000000014901161 0.5
v  -0.3858250081539154 0.1000000014901161 -0.5
v  -0.3858250081539154 0.1000000014901161 -0.4243499934673309
v  -0.3339329957962036 0 -0.4243929982185364
v  -0.4998170137405396 0.09991800040006638 -0.4243620038032532
v  -0.3858250081539154 0.1000000014901161 0.4241600036621094
v  -0.4998170137405396 0.09991700202226639 0.4242889881134033
v  -0.3339329957962036 0 0.4242780208587646
v  -0.4482220113277435 -0.0009920001029968262 -0.4243620038032532
v  0.5000069737434387 0.1000000014901161 -0.5
v  0.5000069737434387 0.1000000014901161 0.5
v  0.3858250081539154 0.1000000014901161 0.5
v  0.3858250081539154 0.1000000014901161 -0.5
v  0.3339329957962036 0 -0.4243929982185364
v  0.3858250081539154 0.1000000014901161 -0.4243490099906921
v  0.4998260140419006 0.09991800040006638 -0.4243620038032532
v  0.4998260140419006 0.09991700202226639 0.4242889881134033
v  0.3858250081539154 0.1000000014901161 0.4241600036621094
v  0.3339329957962036 0 0.4242780208587646
v  0.5015310049057007 1.409726977348328 -0.4243620038032532
v  0.5015310049057007 1.409726977348328 0.4242889881134033
v  0.3348000049591064 1.310722947120667 0.4242780208587646
v  0.3347800076007843 1.310722947120667 -0.4243929982185364
v  0.5386469960212708 1.754683971405029 -0.4793980121612549
v  3.999999989900971e-06 1.75443696975708 -0.479433000087738
v  0.5386469960212708 1.754683971405029 0.479328989982605
v  3.999999989900971e-06 1.75443696975708 0.4793159961700439
v  3.999999989900971e-06 1.310845971107483 0.4242780208587646
v  3.999999989900971e-06 1.310845971107483 -0.4243929982185364
v  3.999999989900971e-06 1.409509062767029 0.4242780208587646
v  3.999999989900971e-06 1.409509062767029 -0.4243929982185364
v  0.5336790084838867 1.423987984657288 -0.4435530006885529
v  0.5335879921913147 1.466726899147034 -0.4435989856719971
v  0.5336760282516479 1.423987984657288 0.443481981754303
v  0.5335850119590759 1.466726899147034 0.4435279965400696
v  3.999999989900971e-06 1.423688054084778 -0.4441069960594177
v  3.999999989900971e-06 1.466426968574524 -0.4441069960594177
v  3.999999989900971e-06 1.423688054084778 0.4417189955711365
v  3.999999989900971e-06 1.466426968574524 0.4417189955711365
v  0.5073109865188599 1.4757239818573 -0.4243620038032532
v  0.5072609782218933 1.552889943122864 -0.4243620038032532
v  0.5073109865188599 1.4757239818573 0.4242889881134033
v  0.5072609782218933 1.552889943122864 0.4242889881134033
v  3.999999989900971e-06 1.475505948066711 -0.4243929982185364
v  3.999999989900971e-06 1.552670955657959 -0.4243929982185364
v  3.999999989900971e-06 1.475505948066711 0.4242780208587646
v  3.999999989900971e-06 1.552670955657959 0.4242780208587646
v  0.5163549780845642 1.610675930976868 -0.4403200149536133
v  0.5163549780845642 1.610675930976868 0.4402480125427246
v  3.999999989900971e-06 1.610449910163879 -0.4403519928455353
v  3.999999989900971e-06 1.610449910163879 0.44023597240448
v  0.5386919975280762 1.654683947563171 -0.4793980121612549
v  0.5386919975280762 1.654683947563171 0.479328989982605
v  3.999999989900971e-06 1.654436945915222 -0.479433000087738
v  3.999999989900971e-06 1.654436945915222 0.4793159961700439
v  -0.5015220046043396 1.409726977348328 -0.4243620038032532
v  -0.5015220046043396 1.409726977348328 0.4242889881134033
v  -0.3347919881343842 1.310722947120667 0.4242780208587646
v  -0.3339239954948425 0 0.4242780208587646
v  -0.3339239954948425 0 -0.4243929982185364
v  -0.334771990776062 1.310722947120667 -0.4243929982185364
v  -0.5386379957199097 1.754683971405029 -0.4793980121612549
v  -0.5386379957199097 1.754683971405029 0.479328989982605
v  -0.5335800051689148 1.466726899147034 -0.4435989856719971
v  -0.5336710214614868 1.423987984657288 -0.4435530006885529
v  -0.5336670279502869 1.423987984657288 0.443481981754303
v  -0.5335760116577148 1.466726899147034 0.4435279965400696
v  -0.5072519779205322 1.552889943122864 -0.4243620038032532
v  -0.5073019862174988 1.4757239818573 -0.4243620038032532
v  -0.5073019862174988 1.4757239818573 0.4242889881134033
v  -0.5072519779205322 1.552889943122864 0.4242889881134033
v  -0.3858160078525543 0.1000000014901161 -0.4243490099906921
v  -0.3858160078525543 0.1000000014901161 0.4241600036621094
v  -0.5163459777832031 1.610675930976868 -0.4403200149536133
v  -0.5163459777832031 1.610675930976868 0.4402480125427246
v  -0.5386829972267151 1.654683947563171 -0.4793980121612549
v  -0.5386829972267151 1.654683947563171 0.479328989982605

# 96 UV coordinates
vt 0.6767699718475342 0.9894809722900391 0
vt 0.6767699718475342 0.8649830222129822 0
vt 0.5993649959564209 0.9894809722900391 0
vt 0.5993649959564209 0.8649830222129822 0
vt 0.1088510006666183 0.8311910033226013 0
vt 0.1236189976334572 0.81706702709198 0
vt 0.1236189976334572 0.8382530212402344 0
vt 0.02369100041687489 0.81706702709198 0
vt 0.03845800086855888 0.8311910033226013 0
vt 0.1122089996933937 0.8382530212402344 0
vt 0.06863299757242203 0.8045229911804199 0
vt 0.06785400211811066 0.7766569852828979 0
vt 0.05245200172066689 0.8045229911804199 0
vt 0.05245200172066689 0.7766569852828979 0
vt 0.3637120127677917 0.8745009899139404 0
vt 0.3781949877738953 0.8745949864387512 0
vt 0.3579500019550323 0.8634929656982422 0
vt 0.3781949877738953 0.8634929656982422 0
vt 0.3781949877738953 0.9694449901580811 0
vt 0.3637129962444305 0.9692710041999817 0
vt 0.3781949877738953 0.9814149737358093 0
vt 0.3579500019550323 0.9814149737358093 0
vt 0.263810008764267 0.8045229911804199 0
vt 0.263810008764267 0.7766569852828979 0
vt 0.2451190054416656 0.8045229911804199 0
vt 0.2458979934453964 0.7766569852828979 0
vt 0.09115900099277496 0.8045229911804199 0
vt 0.09115900099277496 0.7763810157775879 0
vt 0.06863299757242203 0.7764129638671875 0
vt 0.21493099629879 0.7766569852828979 0
vt 0.214151993393898 0.8045229911804199 0
vt 0.2269150018692017 0.8045229911804199 0
vt 0.2269150018692017 0.7766569852828979 0
vt 0.05314699932932854 0.7766569852828979 0
vt 0.05314699932932854 0.8045229911804199 0
vt 0.07610899955034256 0.8045229911804199 0
vt 0.07532999664545059 0.7766569852828979 0
vt 0.6550670266151428 0.1325600147247314 0
vt 0.6550670266151428 0.315276026725769 0
vt 0.746429979801178 0.1325590014457703 0
vt 0.746429979801178 0.315276026725769 0
vt 0.7414939999580383 0.1140890121459961 0
vt 0.520281970500946 0.1140890121459961 0
vt 0.7414939999580383 0.02334100008010864 0
vt 0.520281970500946 0.02334100008010864 0
vt 0.5668219923973083 0.1682940125465393 0
vt 0.6363850235939026 0.1682800054550171 0
vt 0.5668219923973083 0.2937470078468323 0
vt 0.6363850235939026 0.2937420010566711 0
vt 0.5665439963340759 0.1259819865226746 0
vt 0.5665439963340759 0.1555299758911133 0
vt 0.6310660243034363 0.1259940266609192 0
vt 0.6310660243034363 0.1555299758911133 0
vt 0.5161600112915039 0.3174930214881897 0
vt 0.6189500093460083 0.3174629807472229 0
vt 0.5502820014953613 0.3040339946746826 0
vt 0.6189510226249695 0.3040509819984436 0
vt 0.5502859950065613 0.3040339946746826 0
vt 0.6504459977149963 0.3172659873962402 0
vt 0.6504349708557129 0.3232269883155823 0
vt 0.7510510087013245 0.3172659873962402 0
vt 0.7510619759559631 0.3232269883155823 0
vt 0.6189500093460083 0.3193910121917725 0
vt 0.6189500093460083 0.3252009749412537 0
vt 0.5095810294151306 0.3194320201873779 0
vt 0.509598970413208 0.3252419829368591 0
vt 0.5095999836921692 0.3252419829368591 0
vt 0.6550670266151428 0.3244829773902893 0
vt 0.6550670266151428 0.3352469801902771 0
vt 0.746429979801178 0.3244829773902893 0
vt 0.746429979801178 0.3352469801902771 0
vt 0.6189500093460083 0.3264350295066833 0
vt 0.6189500093460083 0.3369250297546387 0
vt 0.514976978302002 0.3264650106430054 0
vt 0.5149869918823242 0.3369550108909607 0
vt 0.03193699941039085 0.8184419870376587 0
vt 0.0251729991286993 0.8411300182342529 0
vt 0.0251729991286993 0.8183929920196533 0
vt 0.1078329980373383 0.8184419870376587 0
vt 0.1146039962768555 0.8411300182342529 0
vt 0.1146039962768555 0.8183929920196533 0
vt 0.5165089964866638 0.1394370198249817 0
vt 0.5398399829864502 0.1394479870796204 0
vt 0.5504590272903442 0.1258540153503418 0
vt 0.6512240171432495 0.3433079719543457 0
vt 0.7502729892730713 0.3433079719543457 0
vt 0.618960976600647 0.3447790145874023 0
vt 0.513126015663147 0.3448100090026855 0
vt 0.6418150067329407 0.3494470119476318 0
vt 0.7596819996833801 0.3494470119476318 0
vt 0.6189870238304138 0.3507590293884277 0
vt 0.508554995059967 0.3507930040359497 0
vt 0.6418150067329407 0.3633970022201538 0
vt 0.7596819996833801 0.3633970022201538 0
vt 0.6189870238304138 0.3643530011177063 0
vt 0.5085639953613281 0.3643869757652283 0

# 132 vertex normals
vn 0 1 0
vn -0 0 -1
vn 0 0 1
vn 9.999999974752427e-07 9.999999974752427e-07 1
vn -9.999999974752427e-07 -9.999999974752427e-07 -1
vn 0.8876079916954041 0.4605990052223206 0
vn -0.0007229999755509198 0.9999989867210388 0.00109200004953891
vn -0.0007249999907799065 1 0
vn -9.999999974752427e-07 0.9999989867210388 -0.001091000041924417
vn 0.8876090049743652 0.4605990052223206 0
vn -0.0001120000015362166 -5.900000178371556e-05 1
vn 0.0002730000123847276 -0.0002969999914057553 1
vn 0 -9.999999974752427e-07 1
vn -0.8876079916954041 0.4605990052223206 9.999999974752427e-07
vn -0.8876090049743652 0.4605970084667206 -1.999999994950485e-06
vn 0.0007239999831654131 0.9999989867210388 0.001093000057153404
vn 0.0007239999831654131 1 0
vn 0 0.9999989867210388 -0.001091000041924417
vn -0.8876090049743652 0.4605970084667206 0
vn -0.8876090049743652 0.4605979919433594 1.999999994950485e-06
vn 0.9999989867210388 -0.001302000018768013 0
vn -1 0.0006619999767281115 0
vn -1 0.0006469999789260328 2.400000084890053e-05
vn -0.0004579999949783087 1 0
vn -0.000367000000551343 -1 0
vn -2.200000017182902e-05 -7.699999696342275e-05 1
vn 0 0.0003129999968223274 -1
vn 6.199999916134402e-05 0 -1
vn 0.9999979734420776 0.002130999928340316 3.999999989900971e-06
vn 0.9999979734420776 0.002129999920725822 3.999999989900971e-06
vn 0.001037999987602234 9.999999974752427e-07 -1
vn 0.0009529999806545675 -0.001074000028893352 -0.9999989867210388
vn -0.003303000004962087 -0.001080999965779483 0.9999939799308777
vn -0.003389999968931079 0 0.9999939799308777
vn 1 0.0006520000169984996 0
vn 6.099999882280827e-05 0 -1
vn -2.200000017182902e-05 0 1
vn 0.4054889976978302 -0.9140999913215637 -0
vn 0.4055219888687134 -0.9140859842300415 9.999999974752427e-07
vn 0.0003900000010617077 -0.8118199706077576 -0.5839070081710815
vn 0.001069999998435378 -0.8035039901733398 -0.5952979922294617
vn 0.0003359999973326921 -0.8029459714889526 0.5960519909858704
vn -0.001647999975830317 -0.7759270071983337 0.6308199763298035
vn 0.323978990316391 0.9460639953613281 0
vn 0.3239459991455078 0.9460750222206116 9.999999974752427e-07
vn -0.0003640000068116933 0.9056249856948853 -0.4240800142288208
vn -0.0001120000015362166 0.9083080291748047 -0.418300986289978
vn -0.000391999987186864 0.8870199918746948 0.4617309868335724
vn -0.001951999962329865 0.904803991317749 0.425823986530304
vn 0.9999970197677612 -2.499999936844688e-05 0.002398000098764896
vn 1 0.0005799999926239252 0
vn 0.9999970197677612 -2.499999936844688e-05 -0.002397000091150403
vn 0.0001860000047599897 -0 -1
vn -0.0001130000018747523 -4.099999932805076e-05 -1
vn 0.0008459999808110297 -9.999999974752427e-07 -1
vn -9.999999747378752e-06 -9.7999996796716e-05 1
vn -0.001130999997258186 1.999999994950485e-06 0.9999989867210388
vn 0.00227000005543232 -9.999999974752427e-07 0.9999970197677612
vn 0.987841010093689 -0.1554670035839081 0
vn 0.9377840161323547 -0.3472200036048889 -0
vn 0.987841010093689 -0.1554680019617081 -0
vn 0.9377830028533936 -0.3472230136394501 -0
vn -0 -0.2662389874458313 -0.96390700340271
vn -0 -0.4775759875774384 -0.8785899877548218
vn 0.0001769999944372103 -0.2662129998207092 -0.9639139771461487
vn 0.0002849999873433262 -0.5085359811782837 -0.8610410094261169
vn 9.300000237999484e-05 -0.2662160098552704 0.9639130234718323
vn 0.0002030000032391399 -0.5085380077362061 0.8610399961471558
vn 0 -0.2662299871444702 0.9639089703559875
vn 0 -0.4775550067424774 0.8786020278930664
vn 0.8917160034179688 -0.4525960087776184 -0
vn 0.8917149901390076 -0.4525969922542572 -0
vn -0 -0.6641790270805359 -0.7475739717483521
vn 0.0003530000103637576 -0.664089024066925 -0.7476540207862854
vn 0.0002760000061243773 -0.6640949845314026 0.7476490139961243
vn 0 -0.6641690135002136 0.7475829720497131
vn 1 0.0004490000137593597 0
vn 6.500000017695129e-05 0 -1
vn -2.400000084890053e-05 0 1
vn -2.400000084890053e-05 9.999999974752427e-07 1
vn -0.9999989867210388 -0.001302000018768013 0
vn 1 0.0006619999767281115 0
vn 1 0.0006469999789260328 2.400000084890053e-05
vn 0.0004579999949783087 1 0
vn 0.000367000000551343 -1 0
vn 2.300000051036477e-05 -7.599999662488699e-05 1
vn -6.199999916134402e-05 0 -1
vn -0.9999979734420776 0.002130999928340316 3.999999989900971e-06
vn -0.9999979734420776 0.002127999905496836 3.999999989900971e-06
vn -0.001037999987602234 9.999999974752427e-07 -1
vn -0.0009529999806545675 -0.001075000036507845 -0.9999989867210388
vn 0.003303000004962087 -0.001081999973393977 0.9999939799308777
vn 0.003389999968931079 0 0.9999939799308777
vn -1 0.0006520000169984996 0
vn -6.099999882280827e-05 0 -1
vn 2.300000051036477e-05 -9.999999974752427e-07 1
vn 2.300000051036477e-05 0 1
vn -0.4054880142211914 -0.9140999913215637 0
vn -0.4055230021476746 -0.9140849709510803 9.999999974752427e-07
vn -0.0003900000010617077 -0.8118199706077576 -0.5839070081710815
vn -0.001069999998435378 -0.8035039901733398 -0.5952979922294617
vn -0.0003359999973326921 -0.8029459714889526 0.5960519909858704
vn 0.001647999975830317 -0.7759270071983337 0.6308199763298035
vn -0.3239800035953522 0.9460639953613281 0
vn -0.3239449858665466 0.946075975894928 9.999999974752427e-07
vn 0.0003640000068116933 0.9056249856948853 -0.4240790009498596
vn 0.0001120000015362166 0.9083080291748047 -0.418300986289978
vn 0.000391999987186864 0.8870199918746948 0.4617309868335724
vn 0.001951999962329865 0.904803991317749 0.425823986530304
vn -0.9999970197677612 -2.499999936844688e-05 0.002457000082358718
vn -1 0.0005949999904260039 0
vn -0.9999970197677612 -2.499999936844688e-05 -0.002455000067129731
vn -0.0001860000047599897 0 -1
vn 0.0001130000018747523 -4.099999932805076e-05 -1
vn -0.0008459999808110297 0 -1
vn 9.999999747378752e-06 -9.7999996796716e-05 1
vn 0.001130999997258186 9.999999974752427e-07 0.9999989867210388
vn -0.002269000047817826 -1.999999994950485e-06 0.9999970197677612
vn -0.9377840161323547 -0.3472209870815277 0
vn -0.987841010093689 -0.1554670035839081 0
vn -0.9377830028533936 -0.3472220003604889 0
vn -0.0001769999944372103 -0.2662129998207092 -0.9639139771461487
vn -0.0002849999873433262 -0.5085359811782837 -0.8610410094261169
vn -0.0002030000032391399 -0.5085369944572449 0.8610399961471558
vn -9.300000237999484e-05 -0.2662160098552704 0.9639130234718323
vn -0.8917149901390076 -0.4525969922542572 0
vn -0.0003530000103637576 -0.664089024066925 -0.7476540207862854
vn -0.0002749999985098839 -0.6640939712524414 0.7476490139961243
vn -1 0.0004490000137593597 0
vn -1 0.0004480000061448663 0
vn -6.500000017695129e-05 0 -1
vn 2.400000084890053e-05 9.999999974752427e-07 1

# Mesh 'gate' with 160 faces
g gate
usemtl PDX01_-_Default
f  1/1/1 2/2/1 3/3/1
f  4/4/1 3/3/1 2/2/1
f  4/5/2 5/6/2 6/7/2
f  7/8/2 5/6/2 2/9/2
f  4/5/2 2/9/2 5/6/2
f  8/7/3 9/6/3 3/5/3
f  9/6/3 10/8/3 3/5/3
f  1/9/3 3/5/3 10/8/3
f  3/5/4 11/10/4 8/7/4
f  6/7/5 12/10/5 4/5/5
f  13/11/6 14/12/6 12/13/6
f  14/12/6 4/14/6 12/13/6
f  15/15/7 13/16/7 6/17/7
f  13/16/1 12/18/1 6/17/1
f  16/19/8 17/20/8 11/21/8
f  17/20/9 8/22/9 11/21/9
f  11/23/10 3/24/10 16/25/10
f  3/24/6 18/26/6 16/25/6
f  15/27/11 19/28/11 13/11/11
f  19/29/12 14/12/12 13/11/12
f  7/6/2 2/5/2 20/7/2
f  10/6/3 21/7/3 1/5/3
f  22/10/13 1/5/13 21/7/13
f  23/10/2 20/7/2 2/5/2
f  24/30/14 25/31/14 23/32/14
f  2/33/15 24/30/15 23/32/15
f  25/16/16 26/15/16 20/17/16
f  23/18/1 25/16/1 20/17/1
f  27/20/17 28/19/17 22/21/17
f  21/22/18 27/20/18 22/21/18
f  1/34/19 22/35/19 28/36/19
f  29/37/20 1/34/20 28/36/20
f  26/38/21 30/39/21 27/40/21
f  31/41/21 27/40/21 30/39/21
f  29/42/22 32/43/22 24/44/22
f  33/45/23 24/44/23 32/43/23
f  34/46/24 35/47/24 36/48/24
f  37/49/24 36/48/24 35/47/24
f  32/50/25 38/51/25 33/52/25
f  39/53/25 33/52/25 38/51/25
f  31/54/26 40/55/26 32/56/26
f  38/57/3 32/56/3 40/55/3
f  33/58/27 39/57/27 30/54/27
f  41/55/28 30/54/28 39/57/28
f  42/59/29 43/60/29 44/61/29
f  45/62/30 44/61/30 43/60/30
f  46/63/31 47/64/31 42/65/31
f  43/66/32 42/65/32 47/64/32
f  44/65/33 45/67/33 48/63/33
f  49/64/34 48/63/34 45/67/34
f  50/68/35 51/69/35 52/70/35
f  53/71/35 52/70/35 51/69/35
f  54/72/36 55/73/36 50/74/36
f  51/75/36 50/74/36 55/73/36
f  52/74/37 53/75/37 56/72/37
f  57/73/37 56/72/37 53/75/37
f  30/39/38 42/59/38 31/41/38
f  44/61/39 31/41/39 42/59/39
f  41/55/40 46/63/40 30/54/40
f  42/65/41 30/54/41 46/63/41
f  31/54/42 44/65/42 40/55/42
f  48/63/43 40/55/43 44/65/43
f  52/70/44 45/62/44 50/68/44
f  43/60/45 50/68/45 45/62/45
f  50/74/46 43/66/46 54/72/46
f  47/64/47 54/72/47 43/66/47
f  56/72/48 49/64/48 52/74/48
f  45/67/49 52/74/49 49/64/49
f  26/76/50 7/77/50 20/78/50
f  27/79/51 10/80/51 26/76/51
f  10/80/51 7/77/51 26/76/51
f  21/81/52 10/80/52 27/79/52
f  30/54/53 26/82/53 33/58/53
f  26/82/54 25/83/54 33/58/54
f  25/83/55 24/84/55 33/58/55
f  32/56/56 28/83/56 31/54/56
f  28/83/57 27/82/57 31/54/57
f  29/84/58 28/83/58 32/56/58
f  51/69/59 58/85/60 53/71/61
f  59/86/62 53/71/61 58/85/60
f  55/73/63 60/87/64 51/75/65
f  58/88/66 51/75/65 60/87/64
f  53/75/67 59/88/68 57/73/69
f  61/87/70 57/73/69 59/88/68
f  58/85/60 62/89/71 59/86/62
f  63/90/72 59/86/62 62/89/71
f  60/87/64 64/91/73 58/88/66
f  62/92/74 58/88/66 64/91/73
f  59/88/68 63/92/75 61/87/70
f  65/91/76 61/87/70 63/92/75
f  62/89/77 34/93/77 63/90/77
f  36/94/77 63/90/77 34/93/77
f  64/91/78 35/95/78 62/92/78
f  34/96/78 62/92/78 35/95/78
f  63/92/79 36/96/79 65/91/79
f  37/95/80 65/91/80 36/96/80
f  66/39/81 15/38/81 17/40/81
f  17/40/81 67/41/81 66/39/81
f  68/43/82 69/42/82 70/44/82
f  70/44/83 71/45/83 68/43/83
f  35/47/84 72/46/84 73/48/84
f  73/48/84 37/49/84 35/47/84
f  38/51/85 68/50/85 71/52/85
f  71/52/85 39/53/85 38/51/85
f  40/55/86 67/54/86 68/56/86
f  68/56/3 38/57/3 40/55/3
f  39/57/27 71/58/27 66/54/27
f  66/54/87 41/55/87 39/57/87
f  74/60/88 75/59/88 76/61/88
f  76/61/89 77/62/89 74/60/89
f  47/64/90 46/63/90 75/65/90
f  75/65/91 74/66/91 47/64/91
f  77/67/92 76/65/92 48/63/92
f  48/63/93 49/64/93 77/67/93
f  78/69/94 79/68/94 80/70/94
f  80/70/94 81/71/94 78/69/94
f  55/73/95 54/72/95 79/74/95
f  79/74/95 78/75/95 55/73/95
f  81/75/96 80/74/96 56/72/96
f  56/72/97 57/73/97 81/75/97
f  75/59/98 66/39/98 67/41/98
f  67/41/99 76/61/99 75/59/99
f  46/63/100 41/55/100 66/54/100
f  66/54/101 75/65/101 46/63/101
f  76/65/102 67/54/102 40/55/102
f  40/55/103 48/63/103 76/65/103
f  77/62/104 80/70/104 79/68/104
f  79/68/105 74/60/105 77/62/105
f  74/66/106 79/74/106 54/72/106
f  54/72/107 47/64/107 74/66/107
f  49/64/108 56/72/108 80/74/108
f  80/74/109 77/67/109 49/64/109
f  5/77/110 15/76/110 6/78/110
f  9/80/111 17/79/111 15/76/111
f  5/77/111 9/80/111 15/76/111
f  9/80/112 8/81/112 17/79/112
f  15/82/113 66/54/113 71/58/113
f  82/83/114 15/82/114 71/58/114
f  70/84/115 82/83/115 71/58/115
f  83/83/116 68/56/116 67/54/116
f  17/82/117 83/83/117 67/54/117
f  83/83/118 69/84/118 68/56/118
f  84/85/119 78/69/120 81/71/120
f  81/71/120 85/86/121 84/85/119
f  60/87/64 55/73/63 78/75/122
f  78/75/122 84/88/123 60/87/64
f  85/88/124 81/75/125 57/73/69
f  57/73/69 61/87/70 85/88/124
f  86/89/126 84/85/119 85/86/121
f  85/86/121 87/90/126 86/89/126
f  64/91/73 60/87/64 84/88/123
f  84/88/123 86/92/127 64/91/73
f  87/92/128 85/88/124 61/87/70
f  61/87/70 65/91/76 87/92/128
f  72/93/129 86/89/129 87/90/129
f  87/90/130 73/94/130 72/93/130
f  35/95/131 64/91/131 86/92/131
f  86/92/131 72/96/131 35/95/131
f  73/96/132 87/92/132 65/91/132
f  65/91/132 37/95/132 73/96/132

