# File produced by Open Asset Import Library (http://www.assimp.sf.net)
# (assimp v4.1.0)

mtllib prwqcrabcy6i.mtl

# 9 vertex positions
v  0.5 -0.2000000029802322 0.5
v  0.5 -0.2000000029802322 -0.5
v  0.5000079870223999 0.1450000107288361 0.5
v  0.5000079870223999 0.1450000107288361 -0.5
v  -0.5 0.1450000107288361 0.5
v  -0.5 0.1450000107288361 -0.5
v  -0.5 -0.2000000029802322 0.5
v  -0.5 -0.2000000029802322 -0.5
v  3.999999989900971e-06 0.7610039710998535 0

# 14 UV coordinates
vt 0.1243330016732216 0.8157860040664673 0
vt 0.01869899965822697 0.8157860040664673 0
vt 0.1243330016732216 0.839959979057312 0
vt 0.01869899965822697 0.839959979057312 0
vt 0.01855999976396561 0.8158000111579895 0
vt 0.1258040070533752 0.8158000111579895 0
vt 0.01854299940168858 0.8396880030632019 0
vt 0.1258209943771362 0.8396880030632019 0
vt 0.5503429770469666 0.1918830275535583 0
vt 0.6353240013122559 0.3618469834327698 0
vt 0.7203059792518616 0.1918830275535583 0
vt 0.5504109859466553 0.18995600938797 0
vt 0.6359649896621704 0.3610649704933167 0
vt 0.7215200066566467 0.18995600938797 0

# 8 vertex normals
vn 1 -2.200000017182902e-05 0
vn -1 0 -0
vn 0 0 1
vn 0 0 -1
vn 0.7764220237731934 0.6302130222320557 0
vn -0.7764220237731934 0.6302130222320557 0
vn 0 0.6302099823951721 -0.7764250040054321
vn 0 0.6302099823951721 0.7764250040054321

# Mesh 'tile_boundary_pyr' with 12 faces
g tile_boundary_pyr
usemtl PDX01_-_Default
f  1/1/1 2/2/1 3/3/1
f  4/4/1 3/3/1 2/2/1
f  5/3/2 6/4/2 7/1/2
f  8/2/2 7/1/2 6/4/2
f  7/5/3 1/6/3 5/7/3
f  3/8/3 5/7/3 1/6/3
f  2/6/4 8/5/4 4/8/4
f  6/7/4 4/8/4 8/5/4
f  4/9/5 9/10/5 3/11/5
f  5/11/6 9/10/6 6/9/6
f  6/12/7 9/13/7 4/14/7
f  3/14/8 9/13/8 5/12/8

