# File produced by Open Asset Import Library (http://www.assimp.sf.net)
# (assimp v4.1.0)

mtllib ry6sk20bpca6.mtl

# 56 vertex positions
v  -0.5 -0.2000000029802322 -0.5
v  -0.5 -0.2000000029802322 0.5
v  -0.5000079870223999 0.1450000107288361 -0.5
v  -0.5000079870223999 0.1450000107288361 0.5
v  0.5 -0.2000000029802322 -0.5
v  0.5 0.1450000107288361 -0.5
v  0.5 -0.2000000029802322 0.5
v  0.5 0.1450000107288361 0.5
v  0.5011789798736572 0.3939950168132782 0.1077370047569275
v  0.5011789798736572 0.3939950168132782 -0.1507570147514343
v  0.04344899952411652 0.3939950168132782 0.1251779794692993
v  0.0434500016272068 0.3939950168132782 -0.1681979894638062
v  0.5011799931526184 0.3360490202903748 -0.2812640070915222
v  0.5011799931526184 0.1481780111789703 -0.3445689976215363
v  0.0434500016272068 0.3361510038375854 -0.3156799972057343
v  0.0434500016272068 0.1481780111789703 -0.3875719904899597
v  -0.4365629851818085 0.3355419933795929 -0.1151689887046814
v  -0.4365629851818085 0.1481780111789703 -0.1371900141239166
v  -0.4365629851818085 0.3355430066585541 0.06234902143478394
v  -0.4365629851818085 0.1481780111789703 0.08422297239303589
v  0.04344899952411652 0.3361520171165466 0.2638130187988281
v  0.04344899952411652 0.1481780111789703 0.335794985294342
v  0.5011789798736572 0.3360500037670135 0.2293980121612549
v  0.5011789798736572 0.1481780111789703 0.292792022228241
v  -0.0565509982407093 0.3765330016613007 0.106328010559082
v  -0.05654999986290932 0.3765330016613007 -0.1493479907512665
v  -0.05654999986290932 0.3359780013561249 -0.2785030007362366
v  -0.05654999986290932 0.1481780111789703 -0.3410930037498474
v  -0.0565509982407093 0.1481780111789703 0.2893159985542297
v  -0.0565509982407093 0.3359639942646027 0.2266409993171692
v  -0.1565510034561157 0.1481780111789703 0.2162430286407471
v  -0.1565510034561157 0.3357430100440979 0.1744769811630249
v  -0.1565500050783157 0.3985660076141357 0.06493300199508667
v  -0.1565500050783157 0.3985660076141357 -0.1060709953308105
v  -0.1565500050783157 0.1481780111789703 -0.2779259979724884
v  -0.1565500050783157 0.335752010345459 -0.2360099852085114
v  -0.3365629911422729 0.1481780111789703 0.2162430286407471
v  -0.3365629911422729 0.3357030153274536 0.174485981464386
v  -0.2901270091533661 0.3985660076141357 0.06493300199508667
v  -0.2901270091533661 0.3985660076141357 -0.1060709953308105
v  -0.3365629911422729 0.3357000052928925 -0.2360219955444336
v  -0.3365629911422729 0.1481780111789703 -0.2779259979724884
v  -0.3667640089988708 0.389926016330719 0.0243300199508667
v  -0.3667640089988708 0.389926016330719 -0.06546899676322937
v  0.5011799931526184 0.3490970134735107 -0.2686969935894012
v  0.0434500016272068 0.348814994096756 -0.3023360073566437
v  0.04344899952411652 0.3490050137042999 0.2505360245704651
v  0.5011789798736572 0.3493260145187378 0.2169179916381836
v  -0.4295139908790588 0.3517680168151855 -0.1090950071811676
v  -0.4292770028114319 0.3519790172576904 0.05733597278594971
v  -0.05654999986290932 0.3480840027332306 -0.2649360001087189
v  -0.0565509982407093 0.3483090102672577 0.2129449844360352
v  -0.1565510034561157 0.3512279987335205 0.1636099815368652
v  -0.1565500050783157 0.3505000174045563 -0.2248069941997528
v  -0.3329350054264069 0.351032018661499 0.1639090180397034
v  -0.3332799971103668 0.3505080044269562 -0.2247929871082306

# 72 UV coordinates
vt 0.1243330016732216 0.8157860040664673 0
vt 0.01869899965822697 0.8157860040664673 0
vt 0.1243330016732216 0.839959979057312 0
vt 0.01869899965822697 0.839959979057312 0
vt 0.01855999976396561 0.8158000111579895 0
vt 0.1258040070533752 0.8158000111579895 0
vt 0.01854299940168858 0.8396880030632019 0
vt 0.1258209943771362 0.8396880030632019 0
vt 0.9165830016136169 0.196615993976593 0
vt 0.9581739902496338 0.196615993976593 0
vt 0.9137769937515259 0.2849599719047546 0
vt 0.960981011390686 0.2849590182304382 0
vt 0.9791719913482666 0.196615993976593 0
vt 0.9938709735870361 0.196615993976593 0
vt 0.9847099781036377 0.2849590182304382 0
vt 0.9962769746780396 0.2849590182304382 0
vt 0.9524279832839966 0.3778120279312134 0
vt 0.95558100938797 0.381712019443512 0
vt 0.9239069819450378 0.3777909874916077 0
vt 0.9207779765129089 0.3813009858131409 0
vt 0.8914710283279419 0.2849599719047546 0
vt 0.8798900246620178 0.2849599719047546 0
vt 0.897009015083313 0.196615993976593 0
vt 0.8813930153846741 0.196615993976593 0
vt 0.9168099761009216 0.3042600154876709 0
vt 0.9579480290412903 0.3042600154876709 0
vt 0.9787279963493347 0.3042600154876709 0
vt 0.988798975944519 0.3042600154876709 0
vt 0.8873680233955383 0.3042600154876709 0
vt 0.8974519968032837 0.3042600154876709 0
vt 0.8943189978599548 0.3235599994659424 0
vt 0.9058449864387512 0.3235599994659424 0
vt 0.9234709739685059 0.3235599994659424 0
vt 0.9509850144386292 0.3235599994659424 0
vt 0.9813060164451599 0.3235599994659424 0
vt 0.9718909859657288 0.3235599994659424 0
vt 0.8943189978599548 0.3583030104637146 0
vt 0.90584397315979 0.3583030104637146 0
vt 0.9234709739685059 0.3493409752845764 0
vt 0.9509850144386292 0.3493409752845764 0
vt 0.9718930125236511 0.3583030104637146 0
vt 0.9813060164451599 0.3583030104637146 0
vt 0.9300029873847961 0.3641319870948792 0
vt 0.9444519877433777 0.3641319870948792 0
vt 0.977150022983551 0.196615993976593 0
vt 0.9825630187988281 0.2849590182304382 0
vt 0.8936079740524292 0.2849599719047546 0
vt 0.8990169763565063 0.196615993976593 0
vt 0.9514709711074829 0.376242995262146 0
vt 0.9246929883956909 0.3761969804763794 0
vt 0.9765459895133972 0.3042600154876709 0
vt 0.8996559977531433 0.3042600154876709 0
vt 0.9075940251350403 0.3235599994659424 0
vt 0.9700890183448792 0.3235599994659424 0
vt 0.9075459837913513 0.3576030135154724 0
vt 0.9700869917869568 0.3576700091362 0
vt 0.1669380068778992 0.6319180130958557 0
vt 0.1488790065050125 0.6916149854660034 0
vt 0.1488790065050125 0.5817680358886719 0
vt 0.1716669946908951 0.581637978553772 0
vt 0.1720490008592606 0.6429029703140259 0
vt 0.1800860017538071 0.6538879871368408 0
vt 0.1800860017538071 0.673662006855011 0
vt 0.2464919984340668 0.6319180130958557 0
vt 0.2588559985160828 0.5817680358886719 0
vt 0.2588559985160828 0.6916149854660034 0
vt 0.2417619973421097 0.581637978553772 0
vt 0.2413800060749054 0.6429029703140259 0
vt 0.2344329953193665 0.6538879871368408 0
vt 0.2344329953193665 0.6736609935760498 0
vt 0.2189549952745438 0.6846460103988647 0
vt 0.1946049928665161 0.6846460103988647 0

# 65 vertex normals
vn -1 -2.200000017182902e-05 0
vn 0 0 -1
vn 0 0 1
vn 0.01221099961549044 0.9827399849891663 0.1845899969339371
vn 0.006730000022798777 0.9842560291290283 -0.1766220033168793
vn -0.08391399681568146 0.9820160269737244 0.1691219955682755
vn -0.09450499713420868 0.98055499792099 -0.1719910055398941
vn 0.06403400003910065 0.5227190256118774 -0.8500970005989075
vn 0.07540299743413925 0.3283169865608215 -0.941552996635437
vn -0.1227879971265793 0.5293449759483337 -0.8394740223884583
vn -0.1503469944000244 0.3531660139560699 -0.9234009981155396
vn -0.9092109799385071 0.2534089982509613 -0.3303309977054596
vn -0.9387339949607849 0.05923699960112572 -0.3395139873027802
vn -0.9069939851760864 0.2465749979019165 0.3414129912853241
vn -0.9327189922332764 0.06220600008964539 0.3551979959011078
vn -0.1193730011582375 0.5354859828948975 0.8360649943351746
vn -0.1471969932317734 0.3359659910202026 0.9303010106086731
vn 0.06952399760484695 0.5223960280418396 0.8498640060424805
vn 0.08866699784994125 0.3184620141983032 0.9437800049781799
vn -0.06922399997711182 0.9832479953765869 0.168613001704216
vn -0.01192799955606461 0.9898269772529602 -0.1417739987373352
vn -0.3343009948730469 0.5067179799079895 -0.7946569919586182
vn -0.4410539865493774 0.2982830107212067 -0.8464620113372803
vn -0.4800420105457306 0.2777250111103058 0.8321229815483093
vn -0.3644900023937225 0.5004820227622986 0.7852799892425537
vn -0.2888840138912201 0.23819699883461 0.9272580146789551
vn -0.224932998418808 0.4041100144386292 0.8866230249404907
vn 0.07317999750375748 0.978393018245697 0.1933709979057312
vn 0.06866200268268585 0.9858959913253784 -0.1526270061731339
vn -0.2536390125751495 0.2421050071716309 -0.9365109801292419
vn -0.1769109964370728 0.4300099909305573 -0.8853210210800171
vn -0.4138639867305756 0.1978629976511002 0.8885759711265564
vn -0.3973959982395172 0.3703339993953705 0.8396000266075134
vn -0.0921889990568161 0.9702280163764954 0.2239619940519333
vn -0.08937899768352509 0.9769200086593628 -0.1940079927444458
vn -0.4096589982509613 0.384990006685257 -0.827019989490509
vn -0.4259850084781647 0.1973060071468353 -0.8829540014266968
vn -0.3242770135402679 0.9388499855995178 0.115777999162674
vn -0.3206689953804016 0.9421839714050293 -0.09726600348949432
vn 0.03483400121331215 0.8408660292625427 -0.5401219725608826
vn -0.08863499760627747 0.8457379937171936 -0.5261859893798828
vn -0.08747100085020065 0.8321239948272705 0.547648012638092
vn 0.04049399867653847 0.8280109763145447 0.5592479705810547
vn -0.6933469772338867 0.6805999875068665 -0.2367569953203201
vn -0.6965720057487488 0.6707149744033813 0.2548100054264069
vn -0.1719360053539276 0.8626589775085449 -0.4756650030612946
vn -0.2155440002679825 0.849111020565033 0.4822359979152679
vn -0.09357400238513947 0.8014370203018188 0.5907130241394043
vn -0.103084996342659 0.8067989945411682 -0.5817639827728271
vn -0.2740649878978729 0.7422429919242859 0.6115260124206543
vn -0.283064991235733 0.7655320167541504 -0.57778400182724
vn 0 0.9998130202293396 0.01935099996626377
vn 0.001442000037059188 0.9998810291290283 0.01534400042146444
vn -0.00354399997740984 0.9999650120735168 0.007625000085681677
vn -0.004342999774962664 0.9999729990959167 0.005942999850958586
vn 0 0.9999369978904724 0.01119900029152632
vn 0 0.9996010065078735 -0.02825599908828735
vn 0.001921999966725707 0.9997889995574951 -0.02045699954032898
vn -0.004046000074595213 0.9999539852142334 -0.008705999702215195
vn -0.00457199988886714 0.9999629855155945 -0.00723899994045496
vn 0 0.9998980164527893 -0.01430900022387505
vn -0.009891999885439873 0.999925971031189 -0.007029000204056501
vn -0.008399000391364098 0.9999449849128723 0.00636200001463294
vn -0.05003000050783157 0.9987480044364929 0
vn -0.05002899840474129 0.9987480044364929 0

# Mesh 'tile_boundary_tut_head' with 96 faces
g tile_boundary_tut_head
usemtl PDX01_-_Default
f  1/1/1 2/2/1 3/3/1
f  4/4/1 3/3/1 2/2/1
f  5/5/2 1/6/2 6/7/2
f  3/8/2 6/7/2 1/6/2
f  2/6/3 7/5/3 4/8/3
f  8/7/3 4/8/3 7/5/3
f  9/9/4 10/10/5 11/11/6
f  12/12/7 11/11/6 10/10/5
f  13/13/8 14/14/9 15/15/10
f  16/16/11 15/15/10 14/14/9
f  17/17/12 18/18/13 19/19/14
f  20/20/15 19/19/14 18/18/13
f  21/21/16 22/22/17 23/23/18
f  24/24/19 23/23/18 22/22/17
f  25/25/20 11/11/6 26/26/21
f  12/12/7 26/26/21 11/11/6
f  27/27/22 15/15/10 28/28/23
f  16/16/11 28/28/23 15/15/10
f  29/29/24 22/22/17 30/30/25
f  21/21/16 30/30/25 22/22/17
f  31/31/26 29/29/24 30/30/25
f  30/30/25 32/32/27 31/31/26
f  33/33/28 25/25/20 34/34/29
f  26/26/21 34/34/29 25/25/20
f  35/35/30 27/27/22 28/28/23
f  27/27/22 35/35/30 36/36/31
f  37/37/32 31/31/26 38/38/33
f  32/32/27 38/38/33 31/31/26
f  39/39/34 33/33/28 40/40/35
f  34/34/29 40/40/35 33/33/28
f  41/41/36 36/36/31 42/42/37
f  35/35/30 42/42/37 36/36/31
f  20/20/15 37/37/32 38/38/33
f  38/38/33 19/19/14 20/20/15
f  43/43/38 39/39/34 44/44/39
f  40/40/35 44/44/39 39/39/34
f  17/17/12 41/41/36 18/18/13
f  42/42/37 18/18/13 41/41/36
f  10/10/5 45/45/40 12/12/7
f  46/46/41 12/12/7 45/45/40
f  11/11/6 47/47/42 9/9/4
f  48/48/43 9/9/4 47/47/42
f  44/44/39 49/49/44 43/43/38
f  50/50/45 43/43/38 49/49/44
f  12/12/7 46/46/41 26/26/21
f  51/51/46 26/26/21 46/46/41
f  25/25/20 52/52/47 11/11/6
f  47/47/42 11/11/6 52/52/47
f  33/33/28 53/53/48 25/25/20
f  52/52/47 25/25/20 53/53/48
f  26/26/21 51/51/46 34/34/29
f  54/54/49 34/34/29 51/51/46
f  39/39/34 55/55/50 33/33/28
f  53/53/48 33/33/28 55/55/50
f  34/34/29 54/54/49 40/40/35
f  56/56/51 40/40/35 54/54/49
f  43/43/38 50/50/45 55/55/50
f  55/55/50 39/39/34 43/43/38
f  40/40/35 56/56/51 44/44/39
f  49/49/44 44/44/39 56/56/51
f  46/46/41 45/45/40 15/15/10
f  13/13/8 15/15/10 45/45/40
f  50/50/45 49/49/44 19/19/14
f  17/17/12 19/19/14 49/49/44
f  48/48/43 47/47/42 23/23/18
f  21/21/16 23/23/18 47/47/42
f  51/51/46 46/46/41 27/27/22
f  15/15/10 27/27/22 46/46/41
f  47/47/42 52/52/47 21/21/16
f  30/30/25 21/21/16 52/52/47
f  52/52/47 53/53/48 30/30/25
f  32/32/27 30/30/25 53/53/48
f  54/54/49 51/51/46 36/36/31
f  27/27/22 36/36/31 51/51/46
f  53/53/48 55/55/50 32/32/27
f  38/38/33 32/32/27 55/55/50
f  56/56/51 54/54/49 41/41/36
f  36/36/31 41/41/36 54/54/49
f  55/55/50 50/50/45 38/38/33
f  19/19/14 38/38/33 50/50/45
f  49/49/44 56/56/51 17/17/12
f  41/41/36 17/17/12 56/56/51
f  22/57/52 4/58/52 8/59/52
f  22/57/53 8/59/53 24/60/53
f  4/58/54 22/57/54 29/61/54
f  4/58/55 29/61/55 31/62/55
f  37/63/56 4/58/56 31/62/56
f  16/64/57 6/65/57 3/66/57
f  14/67/58 6/65/58 16/64/58
f  28/68/59 16/64/59 3/66/59
f  35/69/60 28/68/60 3/66/60
f  42/70/61 35/69/61 3/66/61
f  42/70/62 3/66/62 18/71/62
f  37/63/63 20/72/63 4/58/63
f  20/72/64 18/71/64 4/58/64
f  18/71/65 3/66/65 4/58/65

