# File produced by Open Asset Import Library (http://www.assimp.sf.net)
# (assimp v4.1.0)

mtllib uwftbk4x54cs.mtl

# 53 vertex positions
v  0.5 -0.2000000029802322 -0.5
v  -0.5 -0.2000000029802322 -0.5
v  0.5 0.1450000107288361 -0.5000079870223999
v  -0.5 0.1450000107288361 -0.5000079870223999
v  0.5 0.1450000107288361 0.5
v  -0.5 0.1450000107288361 0.5
v  0.5 -0.2000000029802322 0.5
v  -0.5 -0.2000000029802322 0.5
v  0.2276690006256104 0.6923579573631287 0.2596679925918579
v  -0.2276729941368103 0.6923649907112122 0.259658008813858
v  0.2276709973812103 0.5894749760627747 0.4915339946746826
v  -0.2276700139045715 0.5894749760627747 0.4915469884872437
v  -0.1610199809074402 0.5015379786491394 0.2461140006780624
v  -0.2482789754867554 0.1433919966220856 0.1645170003175735
v  -0.1610220074653625 0.5015379786491394 0.3771820068359375
v  -0.2482820153236389 0.1433919966220856 0.4587799906730652
v  0.1610139906406403 0.5015379786491394 0.3771679997444153
v  0.2482729852199554 0.1433930099010468 0.458748996257782
v  0.1610150039196014 0.5015379786491394 0.2461259961128235
v  0.2482739984989166 0.1433919966220856 0.1645459979772568
v  0.2276690006256104 0.5015379786491394 0.2461269944906235
v  0.2276690006256104 0.6818859577178955 0.2461269944906235
v  0.2276709973812103 0.5107359886169434 0.4915350079536438
v  -0.2276719808578491 0.6818850040435791 0.2461130023002625
v  -0.2276700139045715 0.5107349753379822 0.4915469884872437
v  -0.2276719808578491 0.5015379786491394 0.2461130023002625
v  0.1258760094642639 0.6958769559860229 0.3388310074806213
v  0.1410019993782043 0.6907039880752563 0.3530449867248535
v  0.1410019993782043 0.6504429578781128 0.3383919894695282
v  0.1258760094642639 0.6556169986724854 0.324178010225296
v  0.1107499897480011 0.6907039880752563 0.3530449867248535
v  0.1107499897480011 0.6504429578781128 0.3383919894695282
v  0.1258760094642639 0.6855299472808838 0.3672589957714081
v  0.1258760094642639 0.6452699899673462 0.3526059985160828
v  0.1258760094642639 0.6907039880752563 0.3530449867248535
v  0.05752700567245483 0.6512579917907715 0.4330790042877197
v  0.07265299558639526 0.6460839509963989 0.4472930133342743
v  0.07265299558639526 0.6058239936828613 0.4326399862766266
v  0.05752700567245483 0.6109979748725891 0.4184260070323944
v  0.04240098595619202 0.6460839509963989 0.4472930133342743
v  0.04240098595619202 0.6058239936828613 0.4326399862766266
v  0.05752700567245483 0.6409109830856323 0.4615069925785065
v  0.05752700567245483 0.60065096616745 0.4468539953231812
v  0.05752700567245483 0.6460839509963989 0.4472930133342743
v  0.003666996955871582 0.6754169464111328 0.3858479857444763
v  0.01879298686981201 0.6702439785003662 0.4000619947910309
v  0.01879298686981201 0.6299839615821838 0.3854089975357056
v  0.003666996955871582 0.6351569890975952 0.371194988489151
v  -0.01145899295806885 0.6702439785003662 0.4000619947910309
v  -0.01145899295806885 0.6299839615821838 0.3854089975357056
v  0.003666996955871582 0.6650699973106384 0.4142760038375854
v  0.003666996955871582 0.6248099803924561 0.399621993303299
v  0.003666996955871582 0.6702439785003662 0.4000619947910309

# 68 UV coordinates
vt 0.1243330016732216 0.8157860040664673 0
vt 0.01869899965822697 0.8157860040664673 0
vt 0.1243330016732216 0.839959979057312 0
vt 0.01869899965822697 0.839959979057312 0
vt 0.01855999976396561 0.8158000111579895 0
vt 0.1258040070533752 0.8158000111579895 0
vt 0.01854299940168858 0.8396880030632019 0
vt 0.1258209943771362 0.8396880030632019 0
vt 0.821943998336792 0.9921669960021973 0
vt 0.6998699903488159 0.9921680092811584 0
vt 0.8219450116157532 0.9317269921302795 0
vt 0.6998699903488159 0.9317229986190796 0
vt 0.9251949787139893 0.8475390076637268 0
vt 0.9389939904212952 0.7523449659347534 0
vt 0.8873370289802551 0.8475390076637268 0
vt 0.8774790167808533 0.7523449659347534 0
vt 0.8873559832572937 0.8475390076637268 0
vt 0.877498984336853 0.7523449659347534 0
vt 0.925180971622467 0.8475390076637268 0
vt 0.9389820098876953 0.7523449659347534 0
vt 0.9677860140800476 0.8479509949684143 0
vt 0.9819589853286743 0.7528089880943298 0
vt 0.8876739740371704 0.8479509949684143 0
vt 0.8734999895095825 0.7528089880943298 0
vt 0.7498940229415894 0.8476899862289429 0
vt 0.725462019443512 0.7509710192680359 0
vt 0.8521249890327454 0.8476899862289429 0
vt 0.8758479952812195 0.7509710192680359 0
vt 0.9508200287818909 0.8285329937934875 0
vt 0.9508200287818909 0.8017240166664124 0
vt 0.9121170043945312 0.8285329937934875 0
vt 0.9121170043945312 0.8099550008773804 0
vt 0.9468209743499756 0.799718976020813 0
vt 0.9472460150718689 0.79442298412323 0
vt 0.967395007610321 0.8227909803390503 0
vt 0.8893300294876099 0.79442298412323 0
vt 0.8691809773445129 0.8227909803390503 0
vt 0.9121119976043701 0.8285329937934875 0
vt 0.9121119976043701 0.8099550008773804 0
vt 0.9508230090141296 0.8285329937934875 0
vt 0.9508230090141296 0.8017240166664124 0
vt 0.8676559925079346 0.8247489929199219 0
vt 0.8676559925079346 0.81113201379776 0
vt 0.986877977848053 0.8247489929199219 0
vt 0.986877977848053 0.81113201379776 0
vt 0.8691809773445129 0.79442298412323 0
vt 0.967395007610321 0.79442298412323 0
vt 0.9468230009078979 0.7997170090675354 0
vt 0.967395007610321 0.8247680068016052 0
vt 0.8691809773445129 0.824766993522644 0
vt 0.8775069713592529 0.7801640033721924 0
vt 0.8727139830589294 0.7801640033721924 0
vt 0.8727139830589294 0.7601370215415955 0
vt 0.8775069713592529 0.7601370215415955 0
vt 0.8823009729385376 0.7801640033721924 0
vt 0.8823009729385376 0.7601370215415955 0
vt 0.8870940208435059 0.7801640033721924 0
vt 0.8870940208435059 0.7601370215415955 0
vt 0.8918870091438293 0.7801640033721924 0
vt 0.8918870091438293 0.7601370215415955 0
vt 0.4356020092964172 0.617184042930603 0
vt 0.4057779908180237 0.6959149837493896 0
vt 0.4356009960174561 0.5823209881782532 0
vt 0.4057779908180237 0.5774370431900024 0
vt 0.4944320023059845 0.5823240280151367 0
vt 0.5242559909820557 0.5774370431900024 0
vt 0.4944320023059845 0.6171810030937195 0
vt 0.5242559909820557 0.6959149837493896 0

# 47 vertex normals
vn 0 -2.200000017182902e-05 -1
vn -0 0 1
vn 1 0 0
vn -1 0 0
vn 4.999999873689376e-06 0.9140580296516418 0.405582994222641
vn 9.999999747378752e-06 0.9140620231628418 0.4055750072002411
vn -0.9715780019760132 0.2367199957370758 -1.899999915622175e-05
vn -0.9715790152549744 0.2367150038480759 -9.000000318337698e-06
vn 0.9715780019760132 0.2367189973592758 9.999999747378752e-06
vn 0.9715790152549744 0.2367160022258759 3.999999989900971e-06
vn 4.199999966658652e-05 0.2221319973468781 0.9750170111656189
vn 5.999999848427251e-05 0.2221119999885559 0.9750210046768188
vn 3.799999831244349e-05 0.2221059948205948 -0.97502201795578
vn 5.700000110664405e-05 0.2221270054578781 -0.9750180244445801
vn 1 0 -1.100000008591451e-05
vn 1 9.999999974752427e-07 -1.100000008591451e-05
vn 3.899999865097925e-05 7.999999979801942e-06 -1
vn 3.099999958067201e-05 -7.999999979801942e-06 -1
vn -1 -3.999999989900971e-06 7.999999979801942e-06
vn -1 -9.999999974752427e-07 7.000000096013537e-06
vn 2.700000004551839e-05 9.999999974752427e-07 1
vn 2.700000004551839e-05 1.999999994950485e-06 1
vn 9.000000318337698e-06 0 -1
vn 1.700000029813964e-05 0 -1
vn -1 -4.400000034365803e-05 -9.999999747378752e-06
vn 2.599999970698263e-05 0.7910360097885132 -0.61176997423172
vn 1.80000006366754e-05 0.7909110188484192 -0.6119310259819031
vn 1 1.599999995960388e-05 9.999999974752427e-07
vn 0 0.3420200049877167 -0.9396929740905762
vn 1 0 -9.999999974752427e-07
vn -1 0 -9.999999974752427e-07
vn -0 -0.3420200049877167 0.9396929740905762
vn 0 0.9396929740905762 0.3420200049877167
vn 0 0.9396920204162598 0.3420220017433167
vn 0 0.9396929740905762 0.3420189917087555
vn 9.999999974752427e-07 0.3420200049877167 -0.9396929740905762
vn 1.999999994950485e-06 0.3420209884643555 -0.9396920204162598
vn -1 1.999999994950485e-06 0
vn -1 1.999999994950485e-06 -9.999999974752427e-07
vn 9.999999974752427e-07 -0.3420189917087555 0.9396929740905762
vn 3.000000106112566e-06 -0.3420200049877167 0.9396929740905762
vn 0.006386000197380781 0.9999799728393555 0
vn 0.006386999972164631 0.9999799728393555 0
vn -3.000000106112566e-06 0.9992420077323914 -0.03892200067639351
vn 0 0.999239981174469 -0.03897200152277946
vn 0 0.9999970197677612 0.002419000025838614
vn -0.006386000197380781 0.9999799728393555 0

# Mesh 'tile_console' with 76 faces
g tile_console
usemtl PDX01_-_Default
f  1/1/1 2/2/1 3/3/1
f  4/4/1 3/3/1 2/2/1
f  5/3/2 6/4/2 7/1/2
f  8/2/2 7/1/2 6/4/2
f  7/5/3 1/6/3 5/7/3
f  3/8/3 5/7/3 1/6/3
f  2/6/4 8/5/4 4/8/4
f  6/7/4 4/8/4 8/5/4
f  9/9/5 10/10/5 11/11/5
f  10/10/6 12/12/6 11/11/6
f  13/13/7 14/14/7 15/15/7
f  14/14/8 16/16/8 15/15/8
f  17/17/9 18/18/9 19/19/9
f  18/18/10 20/20/10 19/19/10
f  15/21/11 16/22/11 17/23/11
f  16/22/12 18/24/12 17/23/12
f  19/25/13 20/26/13 13/27/13
f  20/26/14 14/28/14 13/27/14
f  21/29/15 22/30/15 23/31/15
f  11/32/16 23/31/16 9/33/16
f  13/34/17 24/35/17 19/36/17
f  22/37/18 19/36/18 24/35/18
f  25/38/19 12/39/19 26/40/19
f  24/41/20 26/40/20 12/39/20
f  23/42/21 11/43/21 25/44/21
f  12/45/22 25/44/22 11/43/22
f  21/46/23 19/36/23 22/37/23
f  13/34/24 26/47/24 24/35/24
f  10/48/25 24/41/25 12/39/25
f  22/37/26 10/49/26 9/50/26
f  10/49/27 22/37/27 24/35/27
f  22/30/28 9/33/28 23/31/28
f  27/51/29 28/52/3 29/53/30
f  30/54/29 27/51/29 29/53/30
f  31/55/4 27/51/29 30/54/29
f  32/56/31 31/55/4 30/54/29
f  33/57/32 31/55/4 32/56/31
f  34/58/32 33/57/32 32/56/31
f  28/59/3 33/57/32 34/58/32
f  29/60/30 28/59/3 34/58/32
f  28/52/33 27/51/34 35/57/33
f  27/51/34 31/55/33 35/57/33
f  31/55/33 33/57/35 35/57/33
f  33/57/35 28/59/33 35/57/33
f  36/51/29 37/52/3 38/53/30
f  39/54/29 36/51/29 38/53/30
f  40/55/4 36/51/29 39/54/29
f  41/56/31 40/55/4 39/54/29
f  42/57/32 40/55/4 41/56/31
f  43/58/32 42/57/32 41/56/31
f  37/59/3 42/57/32 43/58/32
f  38/60/30 37/59/3 43/58/32
f  37/52/33 36/51/34 44/57/33
f  36/51/34 40/55/33 44/57/33
f  40/55/33 42/57/35 44/57/33
f  42/57/35 37/59/33 44/57/33
f  45/51/36 46/52/3 47/53/30
f  48/54/37 45/51/36 47/53/30
f  49/55/38 45/51/36 48/54/37
f  50/56/39 49/55/38 48/54/37
f  51/57/40 49/55/38 50/56/39
f  52/58/41 51/57/40 50/56/39
f  46/59/3 51/57/40 52/58/41
f  47/60/30 46/59/3 52/58/41
f  46/52/33 45/51/34 53/57/33
f  45/51/34 49/55/33 53/57/33
f  49/55/33 51/57/35 53/57/33
f  51/57/35 46/59/33 53/57/33
f  14/61/42 4/62/42 16/63/42
f  4/62/43 6/64/43 16/63/43
f  18/65/44 16/63/44 5/66/44
f  16/63/45 6/64/45 5/66/45
f  20/67/46 3/68/46 14/61/46
f  3/68/46 4/62/46 14/61/46
f  18/65/47 5/66/47 20/67/47
f  5/66/47 3/68/47 20/67/47

