# File produced by Open Asset Import Library (http://www.assimp.sf.net)
# (assimp v4.1.0)

mtllib c1woi4o9r2ko.mtl

# 40 vertex positions
v  0.5 0.1450000107288361 -0.5
v  0.5 0.1450000107288361 0.5
v  0.5 -0.2000000029802322 -0.5
v  0.5 -0.2000000029802322 0.5
v  -0.5 -0.2000000029802322 -0.5
v  -0.5000079870223999 0.1450000107288361 -0.5
v  -0.5 -0.2000000029802322 0.5
v  -0.5000079870223999 0.1450000107288361 0.5
v  0.3224909901618958 0.3939950168132782 0.07027602195739746
v  0.3224909901618958 0.3939950168132782 -0.1132960021495819
v  -0.4988209903240204 0.3939950168132782 0.1077370047569275
v  -0.4988209903240204 0.3939950168132782 -0.1507570147514343
v  0.3245570063591003 0.3358429968357086 -0.2073079943656921
v  0.3645870089530945 0.1481780111789703 -0.2522020041942596
v  -0.4988200068473816 0.3360490202903748 -0.2812640070915222
v  -0.4988200068473816 0.1481780111789703 -0.3445689976215363
v  -0.4988209903240204 0.3360500037670135 0.2293969988822937
v  -0.4988209903240204 0.1481780111789703 0.292792022228241
v  0.3245570063591003 0.3358449935913086 0.1554419994354248
v  0.3645870089530945 0.1481780111789703 0.2004250288009644
v  0.46458700299263 0.3455280065536499 0.1531209945678711
v  0.46458700299263 0.1481780111789703 0.2004250288009644
v  0.46458700299263 0.3455280065536499 -0.2049910128116608
v  0.46458700299263 0.1481780111789703 -0.2522020041942596
v  0.3224909901618958 0.3502160012722015 -0.1961219906806946
v  -0.4988200068473816 0.3490970134735107 -0.2686969935894012
v  -0.4988209903240204 0.3493260145187378 0.2169169783592224
v  0.3224909901618958 0.3505930006504059 0.1444640159606934
v  0.450641006231308 0.4765330255031586 -0.1132960021495819
v  0.3785319924354553 0.4765330255031586 -0.1132960021495819
v  0.450641006231308 0.4765330255031586 0.07027602195739746
v  0.3785319924354553 0.4765330255031586 0.07027602195739746
v  0.332491010427475 0.3455280065536499 -0.2049910128116608
v  0.332491010427475 0.3455280065536499 0.1531209945678711
v  0.450641006231308 0.4455280005931854 -0.2049910128116608
v  0.3785319924354553 0.4455280005931854 -0.2049910128116608
v  0.450641006231308 0.4455280005931854 0.1531209945678711
v  0.3785319924354553 0.4455280005931854 0.1531209945678711
v  0.3273800015449524 0.3542520105838776 -0.2049910128116608
v  0.3273800015449524 0.3542520105838776 0.1531209945678711

# 58 UV coordinates
vt 0.1243330016732216 0.839959979057312 0
vt 0.01869899965822697 0.839959979057312 0
vt 0.1243330016732216 0.8157860040664673 0
vt 0.01869899965822697 0.8157860040664673 0
vt 0.01855999976396561 0.8158000111579895 0
vt 0.1258040070533752 0.8158000111579895 0
vt 0.01854299940168858 0.8396880030632019 0
vt 0.1258209943771362 0.8396880030632019 0
vt 0.9201229810714722 0.05107200145721436 0
vt 0.9512479901313782 0.05107200145721436 0
vt 0.9137719869613647 0.2234839797019958 0
vt 0.9575999975204468 0.2234839797019958 0
vt 0.9671880006790161 0.05062699317932129 0
vt 0.9798650145530701 0.04199701547622681 0
vt 0.979727029800415 0.2234839797019958 0
vt 0.9955260157585144 0.2234839797019958 0
vt 0.8931440114974976 0.2234839797019958 0
vt 0.8795819878578186 0.2234839797019958 0
vt 0.9056829810142517 0.05062699317932129 0
vt 0.8952429890632629 0.04199701547622681 0
vt 0.7855510115623474 0.02122598886489868 0
vt 0.7743859887123108 0.005201995372772217 0
vt 0.8553770184516907 0.02122598886489868 0
vt 0.8645820021629333 0.005201995372772217 0
vt 0.9652910232543945 0.05107200145721436 0
vt 0.9775959849357605 0.2234839797019958 0
vt 0.8952599763870239 0.2234839797019958 0
vt 0.9075449705123901 0.05107200145721436 0
vt 0.9512479901313782 0.02485698461532593 0
vt 0.9512479901313782 0.03899097442626953 0
vt 0.9201229810714722 0.02485698461532593 0
vt 0.9201229810714722 0.03899097442626953 0
vt 0.966795027256012 0.04901599884033203 0
vt 0.966795027256012 0.02184998989105225 0
vt 0.9798650145530701 0.01087397336959839 0
vt 0.8935539722442627 0.01087397336959839 0
vt 0.9060770273208618 0.02184998989105225 0
vt 0.9060770273208618 0.04901599884033203 0
vt 0.966795027256012 0.02485698461532593 0
vt 0.966795027256012 0.03899097442626953 0
vt 0.9060770273208618 0.02485698461532593 0
vt 0.9060770273208618 0.03899097442626953 0
vt 0.966795027256012 0.05001801252365112 0
vt 0.9060770273208618 0.05001801252365112 0
vt 0.8374980092048645 0.03570401668548584 0
vt 0.8553770184516907 0.03570401668548584 0
vt 0.8017039895057678 0.03570401668548584 0
vt 0.7855510115623474 0.03570401668548584 0
vt 0.04905800148844719 0.5846250057220459 0
vt 0.04905800148844719 0.5956460237503052 0
vt 0.01604199968278408 0.5807219743728638 0
vt 0.03887899965047836 0.6908019781112671 0
vt 0.01604199968278408 0.690932035446167 0
vt 0.09894300252199173 0.5956460237503052 0
vt 0.09894300252199173 0.5846250057220459 0
vt 0.1262529939413071 0.5807219743728638 0
vt 0.1091229990124702 0.6908019781112671 0
vt 0.1262529939413071 0.690932035446167 0

# 41 vertex normals
vn 1 0 0
vn 0 0 -1
vn 0 0 1
vn -0.501164972782135 0.8379390239715576 0.2160850018262863
vn -0.4867849946022034 0.8454890251159668 -0.2195210009813309
vn 0.009046000428497791 0.9800940155982971 0.1983290016651154
vn 0.01545500010251999 0.9816139936447144 -0.1902520060539246
vn -0.0299260001629591 0.3331030011177063 -0.9424149990081787
vn 0.03917299956083298 0.2451390027999878 -0.9686959981918335
vn 0.0834449976682663 0.5070419907569885 -0.8578720092773438
vn 0.1008619964122772 0.3176909983158112 -0.9428150057792664
vn 0.07721699774265289 0.5073429942131042 0.8582779765129089
vn 0.08759000152349472 0.3088479936122894 0.9470700025558472
vn -0.02278099954128265 0.3319480121135712 0.9430220127105713
vn 0.04529799893498421 0.2419839948415756 0.9692220091819763
vn 0.7422230243682861 0.1214030012488365 0.6590650081634521
vn 0.6477490067481995 0.1775850057601929 0.740867018699646
vn 0.7421939969062805 0.1216029971837997 -0.6590610146522522
vn 0.6478750109672546 0.1772300004959106 -0.7408419847488403
vn -0.5000410079956055 0.6733270287513733 -0.5446010231971741
vn 0.04828299954533577 0.827642023563385 -0.5591760277748108
vn 0.04434600099921227 0.8145480155944824 0.5783979892730713
vn -0.4914000034332275 0.6492769718170166 0.5804870128631592
vn 0.633404016494751 0.7643640041351318 -0.1206109970808029
vn -0.4541809856891632 0.8782060146331787 -0.1499129980802536
vn 0.6302970051765442 0.7648590207099915 0.1331029981374741
vn -0.4448660016059875 0.8820719718933105 0.1550589948892593
vn 0.05157899856567383 0.1142159998416901 -0.9921159744262695
vn 0.05167200043797493 0.1144319996237755 0.9920859932899475
vn 0.543910026550293 0.5078709721565247 -0.6680030226707458
vn -0.3892059922218323 0.5864409804344177 -0.7103559970855713
vn 0.5450050234794617 0.4970349967479706 0.6752229928970337
vn -0.3674240112304688 0.577206015586853 0.7292680144309998
vn -0.5696039795875549 0.2676270008087158 -0.7771279811859131
vn -0.5611029863357544 0.2630510032176971 0.7848359942436218
vn 0 0.9999439716339111 0.01060799974948168
vn 0.001081999973393977 0.9999480247497559 0.01011900044977665
vn 0 0.9998819828033447 0.0153360003605485
vn 0 0.9999179840087891 -0.01282399985939264
vn 0.08938299864530563 0.9959970116615295 0
vn 0.002188999904319644 0.9997879862785339 -0.02045900002121925

# Mesh 'tile_boundary_tut_bot' with 64 faces
g tile_boundary_tut_bot
usemtl PDX01_-_Default
f  1/1/1 2/2/1 3/3/1
f  4/4/1 3/3/1 2/2/1
f  3/5/2 5/6/2 1/7/2
f  6/8/2 1/7/2 5/6/2
f  7/6/3 4/5/3 8/8/3
f  2/7/3 8/8/3 4/5/3
f  9/9/4 10/10/5 11/11/6
f  12/12/7 11/11/6 10/10/5
f  13/13/8 14/14/9 15/15/10
f  16/16/11 15/15/10 14/14/9
f  17/17/12 18/18/13 19/19/14
f  20/20/15 19/19/14 18/18/13
f  21/21/16 22/22/17 23/23/18
f  24/24/19 23/23/18 22/22/17
f  10/10/5 25/25/20 12/12/7
f  26/26/21 12/12/7 25/25/20
f  11/11/6 27/27/22 9/9/4
f  28/28/23 9/9/4 27/27/22
f  29/29/24 30/30/25 31/31/26
f  32/32/27 31/31/26 30/30/25
f  13/13/8 33/33/28 14/14/9
f  33/33/28 23/34/18 14/14/9
f  23/34/18 24/35/19 14/14/9
f  20/20/15 22/36/17 19/19/14
f  22/36/17 21/37/16 19/19/14
f  19/19/14 21/37/16 34/38/29
f  35/39/30 36/40/31 29/29/24
f  30/30/25 29/29/24 36/40/31
f  31/31/26 32/32/27 37/41/32
f  38/42/33 37/41/32 32/32/27
f  30/30/25 10/10/5 32/32/27
f  9/9/4 32/32/27 10/10/5
f  10/10/5 30/30/25 25/25/20
f  30/30/25 36/40/31 25/25/20
f  25/25/20 36/40/31 39/43/34
f  28/28/23 40/44/35 9/9/4
f  40/44/35 38/42/33 9/9/4
f  38/42/33 32/32/27 9/9/4
f  29/45/24 23/23/18 35/46/30
f  31/47/26 21/21/16 29/45/24
f  23/23/18 29/45/24 21/21/16
f  37/48/32 21/21/16 31/47/26
f  33/33/28 39/43/34 23/34/18
f  39/43/34 36/40/31 23/34/18
f  36/40/31 35/39/30 23/34/18
f  21/37/16 37/41/32 34/38/29
f  37/41/32 38/42/33 34/38/29
f  34/38/29 38/42/33 40/44/35
f  25/25/20 39/43/34 13/13/8
f  33/33/28 13/13/8 39/43/34
f  34/38/29 40/44/35 19/19/14
f  28/28/23 19/19/14 40/44/35
f  26/26/21 25/25/20 15/15/10
f  13/13/8 15/15/10 25/25/20
f  28/28/23 27/27/22 19/19/14
f  17/17/12 19/19/14 27/27/22
f  22/49/36 20/50/36 2/51/36
f  20/50/37 18/52/37 2/51/37
f  18/52/38 8/53/38 2/51/38
f  14/54/39 24/55/39 1/56/39
f  24/55/40 22/49/40 1/56/40
f  22/49/40 2/51/40 1/56/40
f  16/57/41 14/54/41 6/58/41
f  14/54/39 1/56/39 6/58/39

