# File produced by Open Asset Import Library (http://www.assimp.sf.net)
# (assimp v4.1.0)

mtllib 8hfuntc0j4t7.mtl

# 30 vertex positions
v  -0.4999980032444 0.1000000014901161 0.4999890029430389
v  0.4999960064888 0.1000000014901161 0.5000039935112
v  -0.4999960064888 0.1000000014901161 -0.4999789893627167
v  0.500001072883606 0.1000000014901161 -0.4999929964542389
v  0.4999960064888 -0.2000000029802322 0.5000039935112
v  0.500001072883606 -0.2000000029802322 -0.4999929964542389
v  -0.4999960064888 -0.2000000029802322 -0.4999789893627167
v  -0.4999980032444 -0.2000000029802322 0.4999890029430389
v  -0.2231079638004303 0.6923579573631287 -0.252348780632019
v  0.2231110334396362 0.6923660039901733 -0.2523392140865326
v  -0.2231079638004303 0.6389060020446777 -0.3810558021068573
v  0.2231120467185974 0.6389049887657166 -0.3810712099075317
v  0.07984292507171631 0.5418879985809326 -0.2375023663043976
v  0.1231108903884888 0.1004940047860146 -0.2375030070543289
v  0.07984405755996704 0.5418879985809326 -0.3810713589191437
v  0.1231120228767395 0.1004940047860146 -0.3810720145702362
v  -0.07983997464179993 0.5418879985809326 -0.381055623292923
v  -0.1231079697608948 0.1004940047860146 -0.3810559809207916
v  -0.07984009385108948 0.5418879985809326 -0.2375156283378601
v  -0.1231080889701843 0.1004940047860146 -0.2375159859657288
v  -0.2231080830097198 0.5418879985809326 -0.237516775727272
v  -0.2231080830097198 0.6818859577178955 -0.237516775727272
v  -0.2231079638004303 0.5418879985809326 -0.3810558021068573
v  0.2231109142303467 0.6818859577178955 -0.2375022172927856
v  0.2231120467185974 0.5418879985809326 -0.3810712099075317
v  0.2231109142303467 0.5418879985809326 -0.2375022172927856
v  -0.2231114506721497 0.5906929969787598 -0.4448148012161255
v  -0.2231114506721497 0.629082977771759 -0.4448148012161255
v  0.2231085896492004 0.5906929969787598 -0.4448292255401611
v  0.2231085896492004 0.6290819644927979 -0.4448292255401611

# 74 UV coordinates
vt 0.127918004989624 0.4434599876403809 0
vt 0.127919003367424 0.5576629638671875 0
vt 0.01319700013846159 0.4434589743614197 0
vt 0.01319400034844875 0.5576629638671875 0
vt 0.1267710030078888 0.8419280052185059 0
vt 0.1267710030078888 0.8178600072860718 0
vt 0.01508400030434132 0.8419269919395447 0
vt 0.01508400030434132 0.8178600072860718 0
vt 0.01510400045663118 0.8419269919395447 0
vt 0.01510400045663118 0.8178600072860718 0
vt 0.1267649978399277 0.8419280052185059 0
vt 0.1267649978399277 0.8178600072860718 0
vt 0.1261660009622574 0.8167250156402588 0
vt 0.1261660009622574 0.8398560285568237 0
vt 0.01601999998092651 0.8167250156402588 0
vt 0.01601999998092651 0.8398560285568237 0
vt 0.01602499932050705 0.8167240023612976 0
vt 0.01602499932050705 0.8398550152778625 0
vt 0.1261689960956573 0.8167240023612976 0
vt 0.1261689960956573 0.8398560285568237 0
vt 0.2446399927139282 0.858551025390625 0
vt 0.1764010041952133 0.8585529923439026 0
vt 0.2446399927139282 0.8347600102424622 0
vt 0.1764010041952133 0.8347560167312622 0
vt 0.7643359899520874 0.9799559712409973 0
vt 0.7643359899520874 0.872933030128479 0
vt 0.7435640096664429 0.9799559712409973 0
vt 0.7435640096664429 0.872933030128479 0
vt 0.7435830235481262 0.9799559712409973 0
vt 0.7435830235481262 0.872933030128479 0
vt 0.7643229961395264 0.9799559712409973 0
vt 0.7643229961395264 0.872933030128479 0
vt 0.7740160226821899 0.9801589846611023 0
vt 0.7881900072097778 0.87288498878479 0
vt 0.7217069864273071 0.9801589846611023 0
vt 0.7075330018997192 0.87288498878479 0
vt 0.07028800249099731 0.3360530138015747 0
vt 0.07028800249099731 0.3154230117797852 0
vt 0.04050499945878983 0.3360530138015747 0
vt 0.04050499945878983 0.3217560052871704 0
vt 0.06720999628305435 0.3138800263404846 0
vt 0.06701699644327164 0.3356840014457703 0
vt 0.09517999738454819 0.3153560161590576 0
vt 0.03562700003385544 0.3356840014457703 0
vt 0.007464999798685312 0.3153560161590576 0
vt 0.04050099849700928 0.3360530138015747 0
vt 0.04050099849700928 0.3217560052871704 0
vt 0.07028999924659729 0.3360530138015747 0
vt 0.07028999924659729 0.3154230117797852 0
vt 0.006291000172495842 0.333141028881073 0
vt 0.006291000172495842 0.3226619958877563 0
vt 0.09803500026464462 0.333141028881073 0
vt 0.09803500026464462 0.3226630091667175 0
vt 0.03985099866986275 0.3145880103111267 0
vt 0.02282200008630753 0.3145880103111267 0
vt 0.03985099866986275 0.3286030292510986 0
vt 0.02282200008630753 0.3286030292510986 0
vt 0.007464999798685312 0.3356840014457703 0
vt 0.05883099883794785 0.3286049962043762 0
vt 0.07586099952459335 0.3286049962043762 0
vt 0.05883099883794785 0.3145869970321655 0
vt 0.07586099952459335 0.3145869970321655 0
vt 0.09517999738454819 0.3356840014457703 0
vt 0.1764020025730133 0.8222669959068298 0
vt 0.2446399927139282 0.822272002696991 0
vt 0.02282099984586239 0.3348289728164673 0
vt 0.07586000114679337 0.3348299860954285 0
vt 0.02727600000798702 0.323203980922699 0
vt 0.02727600000798702 0.3288609981536865 0
vt 0.02727200090885162 0.3288609981536865 0
vt 0.02727200090885162 0.323203980922699 0
vt 0.06721200048923492 0.3138790130615234 0
vt 0.09517999738454819 0.3138350248336792 0
vt 0.007464999798685312 0.3138359785079956 0

# 39 vertex normals
vn 0 1 0
vn 1 0 4.999999873689376e-06
vn -1 0 -1.99999976757681e-06
vn -1.400000019202707e-05 -0 -1
vn -1.499999962106813e-05 0 1
vn -5.931648047408089e-06 0.9235230088233948 -0.383543998003006
vn -1.193177558889147e-05 0.9235290288925171 -0.3835279941558838
vn 0.9952300190925598 0.09755799919366837 5.961840543022845e-06
vn 0.9952300190925598 0.09755799919366837 6.96184042681125e-06
vn -0.9952300190925598 0.09755799919366837 -1.961840098374523e-06
vn -9.899999713525176e-05 -9.999999747378752e-06 -1
vn -6.299999949987978e-05 7.000000096013537e-06 -1
vn -8.300000627059489e-05 7.999999979801942e-06 1
vn -5.400000009103678e-05 -4.999999873689376e-06 1
vn -1 9.999999974752427e-07 -1.99999976757681e-06
vn -8.300000627059489e-05 7.899999764049426e-05 1
vn -3.199999991920777e-05 -3.099999958067201e-05 1
vn 1 -9.999999974752427e-07 7.000000096013537e-06
vn 1 0 7.999999979801942e-06
vn -3.300000025774352e-05 1.999999994950485e-06 -1
vn -3.300000025774352e-05 3.000000106112566e-06 -1
vn -9.999920393966022e-07 -1 -1.000007955553883e-06
vn -1.99999976757681e-06 0 1
vn -9.999999974752427e-07 -1 -7.999999968033578e-12
vn -6.000000212225132e-06 0 1
vn -3.781864052143646e-06 0.9883390069007874 -0.1522669941186905
vn -4.781840289069805e-06 0.9883390069007874 -0.1522700041532516
vn -6.113807467045262e-05 -0.7941349744796753 -0.6077409982681274
vn -2.013709490711335e-05 -0.7940419912338257 -0.6078630089759827
vn -1 9.999999974752427e-07 5.400000009103678e-05
vn -1 1.999999994950485e-06 5.400000009103678e-05
vn 1 -9.999999974752427e-07 -5.400000009103678e-05
vn 1 -3.000000106112566e-06 -5.199999941396527e-05
vn 8.626243470644113e-07 -0.7940689921379089 -0.6078280210494995
vn 2.862639803424827e-06 -0.7940670251846313 -0.6078299880027771
vn 1 -2.800000038405415e-05 1.599999995960388e-05
vn -2.661415965121705e-05 0.8169069886207581 0.576770007610321
vn -1.861547207226977e-05 0.8167909979820251 0.5769339799880981
vn -1 4.999999873689376e-06 -7.000000096013537e-06

# Mesh 'console' with 48 faces
g console
usemtl PDX01_-_Default
f  1/1/1 2/2/1 3/3/1
f  2/2/1 4/4/1 3/3/1
f  2/5/2 5/6/2 4/7/2
f  5/6/2 6/8/2 4/7/2
f  3/9/3 7/10/3 1/11/3
f  7/10/3 8/12/3 1/11/3
f  4/13/4 6/14/4 3/15/4
f  6/14/4 7/16/4 3/15/4
f  1/17/5 8/18/5 2/19/5
f  8/18/5 5/20/5 2/19/5
f  9/21/6 10/22/6 11/23/6
f  10/22/7 12/24/7 11/23/7
f  13/25/8 14/26/8 15/27/8
f  14/26/9 16/28/9 15/27/9
f  17/29/10 18/30/10 19/31/10
f  18/30/10 20/32/10 19/31/10
f  15/33/11 16/34/11 17/35/11
f  16/34/12 18/36/12 17/35/12
f  19/35/13 20/36/13 13/33/13
f  20/36/14 14/34/14 13/33/14
f  21/37/3 22/38/3 23/39/3
f  11/40/15 23/39/15 9/41/15
f  13/42/16 24/43/16 19/44/16
f  22/45/17 19/44/17 24/43/17
f  25/46/18 12/47/18 26/48/18
f  24/49/19 26/48/19 12/47/19
f  27/50/20 28/51/20 29/52/20
f  30/53/21 29/52/21 28/51/21
f  19/54/22 21/55/22 17/56/22
f  23/57/22 17/56/22 21/55/22
f  21/58/23 19/44/23 22/45/23
f  15/59/24 25/60/24 13/61/24
f  26/62/24 13/61/24 25/60/24
f  13/42/25 26/63/25 24/43/25
f  12/24/26 30/64/26 11/23/26
f  28/65/27 11/23/27 30/64/27
f  17/56/28 27/66/28 15/59/28
f  29/67/29 15/59/29 27/66/29
f  11/40/30 28/68/30 23/39/30
f  27/69/31 23/39/31 28/68/31
f  25/46/32 29/70/32 12/47/32
f  30/71/33 12/47/33 29/70/33
f  23/57/34 27/66/34 17/56/34
f  15/59/35 29/67/35 25/60/35
f  10/72/36 24/49/36 12/47/36
f  22/45/37 10/73/37 9/74/37
f  10/73/38 22/45/38 24/43/38
f  22/38/39 9/41/39 23/39/39

