# File produced by Open Asset Import Library (http://www.assimp.sf.net)
# (assimp v4.1.0)

mtllib 2rxxvmfyu06v.mtl

# 32 vertex positions
v  0.4999974966049194 0.1000000014901161 -0.4999895095825195
v  -0.4999964833259583 0.1000000014901161 -0.500003457069397
v  0.4999965131282806 0.1000000014901161 0.4999784827232361
v  -0.5000004768371582 0.1000000014901161 0.4999934732913971
v  -0.4999964833259583 -0.2000000029802322 -0.500003457069397
v  -0.5000004768371582 -0.2000000029802322 0.4999934732913971
v  0.4999965131282806 -0.2000000029802322 0.4999784827232361
v  0.4999974966049194 -0.2000000029802322 -0.4999895095825195
v  0.4999391138553619 0.4165590107440948 0.1280445009469986
v  -0.4998258948326111 0.4165590107440948 0.1280445009469986
v  0.49993896484375 0.342613011598587 0.1478585004806519
v  -0.4998260140419006 0.3426139950752258 0.1478575021028519
v  0.4999394714832306 0.4706909954547882 0.07391250133514404
v  -0.4998255372047424 0.4706909954547882 0.07391250878572464
v  0.4999389946460724 0.4905039966106415 -3.350042607053183e-05
v  -0.4998250007629395 0.4905039966106415 -3.349877442815341e-05
v  0.4999395310878754 0.4706909954547882 -0.07397849857807159
v  -0.4998254776000977 0.4706909954547882 -0.07397949695587158
v  0.499939888715744 0.4165590107440948 -0.1281104981899261
v  -0.499825119972229 0.4165590107440948 -0.1281104981899261
v  0.4999390244483948 0.342613011598587 -0.1479244977235794
v  -0.4998250007629395 0.342613011598587 -0.1479244977235794
v  0.499939888715744 0.268667995929718 -0.1281104981899261
v  -0.499825119972229 0.268667995929718 -0.1281104981899261
v  0.4999395310878754 0.2145360112190247 -0.07397849857807159
v  -0.4998254776000977 0.2145360112190247 -0.07397949695587158
v  0.4999389946460724 0.1947219967842102 -3.350042607053183e-05
v  -0.4998250007629395 0.1947219967842102 -3.349877442815341e-05
v  0.4999394714832306 0.2145360112190247 0.07391250133514404
v  -0.4998255372047424 0.2145360112190247 0.07391250878572464
v  0.4999391138553619 0.268667995929718 0.1280445009469986
v  -0.4998258948326111 0.268667995929718 0.1280445009469986

# 48 UV coordinates
vt 0.3916589915752411 0.4429529905319214 0
vt 0.2768230140209198 0.4429519772529602 0
vt 0.3916600048542023 0.5581560134887695 0
vt 0.2768230140209198 0.5581580400466919 0
vt 0.1293729990720749 0.84163498878479 0
vt 0.1293729990720749 0.8174589872360229 0
vt 0.01226400025188923 0.8416340351104736 0
vt 0.01226400025188923 0.8174580335617065 0
vt 0.01228499971330166 0.8416340351104736 0
vt 0.01228499971330166 0.8174589872360229 0
vt 0.1293659955263138 0.84163498878479 0
vt 0.1293669939041138 0.8174600005149841 0
vt 0.1287389993667603 0.8394619822502136 0
vt 0.1287389993667603 0.8162679672241211 0
vt 0.01324599981307983 0.8394619822502136 0
vt 0.01324599981307983 0.8162679672241211 0
vt 0.01325100008398294 0.8394629955291748 0
vt 0.01325100008398294 0.8162689805030823 0
vt 0.1287419945001602 0.8394629955291748 0
vt 0.1287419945001602 0.8162689805030823 0
vt 0.260233998298645 0.006385982036590576 0
vt 0.260233998298645 0.1214920282363892 0
vt 0.2877840101718903 0.006385982036590576 0
vt 0.2877840101718903 0.1214920282363892 0
vt 0.2400649935007095 0.006385982036590576 0
vt 0.2400649935007095 0.1214920282363892 0
vt 0.2254550009965897 0.006385982036590576 0
vt 0.2254550009965897 0.1214920282363892 0
vt 0.239655002951622 0.006386995315551758 0
vt 0.239655002951622 0.1214920282363892 0
vt 0.2250449955463409 0.006385982036590576 0
vt 0.2250449955463409 0.1214920282363892 0
vt 0.2598229944705963 0.006386995315551758 0
vt 0.2598229944705963 0.1214920282363892 0
vt 0.2873730063438416 0.006386995315551758 0
vt 0.2873730063438416 0.1214920282363892 0
vt 0.3149240016937256 0.006386995315551758 0
vt 0.3149240016937256 0.1214920282363892 0
vt 0.3350920081138611 0.006386995315551758 0
vt 0.3350920081138611 0.1214920282363892 0
vt 0.3424740135669708 0.006386995315551758 0
vt 0.3424740135669708 0.1214920282363892 0
vt 0.3355019986629486 0.006386995315551758 0
vt 0.3355019986629486 0.1214920282363892 0
vt 0.3428840041160583 0.006386995315551758 0
vt 0.3428840041160583 0.1214920282363892 0
vt 0.3153339922428131 0.006385982036590576 0
vt 0.3153339922428131 0.1214920282363892 0

# 22 vertex normals
vn 0 1 0
vn -1 0 -3.999999989900971e-06
vn 1 0 9.99999883788405e-07
vn 1.499999962106813e-05 -0 1
vn 1.400000019202707e-05 0 -1
vn -6.217487680260092e-08 0.5 0.8660249710083008
vn -6.217487680260092e-08 0.5000010132789612 0.8660249710083008
vn 0 -0 1
vn -4.999928933102638e-07 0.866025984287262 0.4999989867210388
vn 6.99999997202938e-12 1 -9.999999974752427e-07
vn 4.999928933102638e-07 0.866025984287262 -0.4999989867210388
vn 6.217487680260092e-08 0.5000010132789612 -0.8660249710083008
vn 6.217487680260092e-08 0.5 -0.8660249710083008
vn 0 0 -1
vn 6.217487680260092e-08 -0.5 -0.8660249710083008
vn 6.218169801286422e-08 -0.4999989867210388 -0.866025984287262
vn -4.999999418942025e-07 -0.866025984287262 -0.5
vn -4.999999418942025e-07 -0.8660249710083008 -0.5
vn 0 -1 -0
vn -4.999928933102638e-07 -0.866025984287262 0.4999989867210388
vn -4.999999418942025e-07 -0.866025984287262 0.5
vn -6.217487680260092e-08 -0.5 0.8660249710083008

# Mesh 'tile_boundary02' with 34 faces
g tile_boundary02
usemtl PDX01_-_Default
f  1/1/1 2/2/1 3/3/1
f  2/2/1 4/4/1 3/3/1
f  2/5/2 5/6/2 4/7/2
f  5/6/2 6/8/2 4/7/2
f  3/9/3 7/10/3 1/11/3
f  7/10/3 8/12/3 1/11/3
f  4/13/4 6/14/4 3/15/4
f  6/14/4 7/16/4 3/15/4
f  1/17/5 8/18/5 2/19/5
f  8/18/5 5/20/5 2/19/5
f  9/21/6 10/22/7 11/23/8
f  12/24/8 11/23/8 10/22/7
f  13/25/9 14/26/9 9/21/6
f  10/22/7 9/21/6 14/26/9
f  15/27/10 16/28/1 13/25/9
f  14/26/9 13/25/9 16/28/1
f  17/29/11 18/30/11 15/31/10
f  16/32/1 15/31/10 18/30/11
f  19/33/12 20/34/13 17/29/11
f  18/30/11 17/29/11 20/34/13
f  21/35/14 22/36/14 19/33/12
f  20/34/13 19/33/12 22/36/14
f  23/37/15 24/38/16 21/35/14
f  22/36/14 21/35/14 24/38/16
f  25/39/17 26/40/18 23/37/15
f  24/38/16 23/37/15 26/40/18
f  27/41/19 28/42/19 25/39/17
f  26/40/18 25/39/17 28/42/19
f  29/43/20 30/44/21 27/45/19
f  28/46/19 27/45/19 30/44/21
f  31/47/22 32/48/22 29/43/20
f  30/44/21 29/43/20 32/48/22
f  11/23/8 12/24/8 31/47/22
f  32/48/22 31/47/22 12/24/8

