# File produced by Open Asset Import Library (http://www.assimp.sf.net)
# (assimp v4.1.0)

mtllib pw2ese4hqwq1.mtl

# 6 vertex positions
v  0.5000029802322388 0.1000019982457161 4.499999704421498e-06
v  1.490116119384766e-06 0.1000019982457161 0.5000079870223999
v  0.5000025033950806 0.1000019982457161 0.5000085234642029
v  0.5000025033950806 -0.2000000029802322 0.500000536441803
v  9.506940841674805e-06 -0.2000000029802322 0.4999999701976776
v  0.5000029802322388 -0.2000000029802322 4.499999704421498e-06

# 15 UV coordinates
vt 0.7390739917755127 0.553846001625061 0
vt 0.7852810025215149 0.5096560120582581 0
vt 0.7852810025215149 0.553846001625061 0
vt 0.6949859857559204 0.3663480281829834 0
vt 0.7780449986457825 0.3663480281829834 0
vt 0.6949859857559204 0.3265039920806885 0
vt 0.7780439853668213 0.3265039920806885 0
vt 0.860846996307373 0.3660770058631897 0
vt 0.8608300089836121 0.3265169858932495 0
vt 0.777737021446228 0.3660770058631897 0
vt 0.7777339816093445 0.3265169858932495 0
vt 0.7773650288581848 0.3284689784049988 0
vt 0.6950200200080872 0.3284559845924377 0
vt 0.777184009552002 0.3666329979896545 0
vt 0.6950399875640869 0.3668010234832764 0

# 5 vertex normals
vn 0 1 0
vn -9.999999974752427e-07 -2.499999936844688e-05 1
vn 1 0 9.999999974752427e-07
vn -0.7071073055267334 0 -0.7071056962013245
vn -0.7071082592010498 9.999999974752427e-07 -0.7071056962013245

# Mesh 'boundary_small_corner' with 7 faces
g boundary_small_corner
usemtl PDX01_-_Default
f  1/1/1 2/2/1 3/3/1
f  3/4/2 2/5/2 4/6/2
f  5/7/2 4/6/2 2/5/2
f  3/8/3 4/9/3 1/10/3
f  6/11/3 1/10/3 4/9/3
f  6/12/4 5/13/4 1/14/4
f  2/15/5 1/14/5 5/13/5

