# File produced by Open Asset Import Library (http://www.assimp.sf.net)
# (assimp v4.1.0)

mtllib klrw5phr9t9o.mtl

# 8 vertex positions
v  4.76837158203125e-07 -0.2000000029802322 0.4999999701976776
v  0.500003457069397 -0.2000000029802322 0.4999994933605194
v  4.76837158203125e-07 0.099993996322155 0.4999999701976776
v  0.500003457069397 0.099993996322155 0.4999994933605194
v  0.5000025033950806 0.099993996322155 -0.5000084638595581
v  0.5000025033950806 -0.2000000029802322 -0.5000004768371582
v  1.248717308044434e-05 0.099993996322155 -0.5000079870223999
v  4.470348358154297e-06 -0.2000000029802322 -0.5

# 20 UV coordinates
vt 0.6967589855194092 0.3265789747238159 0
vt 0.7773929834365845 0.3265789747238159 0
vt 0.6967589855194092 0.3664230108261108 0
vt 0.7773929834365845 0.3664230108261108 0
vt 0.8603799939155579 0.3661519885063171 0
vt 0.6965370178222656 0.3661519885063171 0
vt 0.8603640198707581 0.3265920281410217 0
vt 0.6965540051460266 0.3265920281410217 0
vt 0.7777400016784668 0.3664230108261108 0
vt 0.7777400016784668 0.3265789747238159 0
vt 0.6951119899749756 0.3664230108261108 0
vt 0.6951109766960144 0.3265789747238159 0
vt 0.7868279814720154 0.4432740211486816 0
vt 0.7868279814720154 0.5096560120582581 0
vt 0.6718959808349609 0.4432740211486816 0
vt 0.6720700263977051 0.5097659826278687 0
vt 0.8595280051231384 0.3660140037536621 0
vt 0.8595259785652161 0.3277660012245178 0
vt 0.695838987827301 0.3660140037536621 0
vt 0.695838987827301 0.3277660012245178 0

# 6 vertex normals
vn 9.999999974752427e-07 -0 1
vn 1 -0 -9.999999974752427e-07
vn -9.999999974752427e-07 -2.499999936844688e-05 -1
vn 0 1 0
vn -1 2.499999936844688e-05 -1.199999951495556e-05
vn -1 0 -5.000000328436727e-06

# Mesh 'tile_boundary_edged_corner01' with 10 faces
g tile_boundary_edged_corner01
usemtl PDX01_-_Default
f  1/1/1 2/2/1 3/3/1
f  4/4/1 3/3/1 2/2/1
f  5/5/2 4/6/2 6/7/2
f  2/8/2 6/7/2 4/6/2
f  5/9/3 6/10/3 7/11/3
f  8/12/3 7/11/3 6/10/3
f  5/13/4 7/14/4 4/15/4
f  4/15/4 7/14/4 3/16/4
f  7/17/5 8/18/5 3/19/5
f  8/18/6 1/20/6 3/19/6

