mtllib egy_tile_ns.mtl
o tile_straight
usemtl PDX01_-_Default
v 0.5 -0.20000000298023224 0.5
v 0.5 -0.20000000298023202 -0.5
v 0.5000079870223999 0.14500000327825546 0.5
v 0.5000079870223999 0.14500000327825568 -0.5
v 0.5000079870223999 0.14500000327825546 0.5
v 0.5 -0.20000000298023202 -0.5
v -0.5 0.14500000327825546 0.5
v -0.5 0.14500000327825568 -0.5
v -0.5 -0.20000000298023224 0.5
v -0.5 -0.20000000298023202 -0.5
v -0.5 -0.20000000298023224 0.5
v -0.5 0.14500000327825568 -0.5
v -0.3339329957962036 2.220446049250313e-16 -0.5
v -0.3339329957962036 0 0.5
v 0.3339329957962036 2.220446049250313e-16 -0.5
v 0.3339329957962036 0 0.5
v 0.3339329957962036 2.220446049250313e-16 -0.5
v -0.3339329957962036 0 0.5
v 0.3339329957962036 0 0.5
v 0.5 -0.20000000298023224 0.5
v 0.5000079870223999 0.14500000327825546 0.5
v -0.5 -0.20000000298023224 0.5
v 0.5 -0.20000000298023224 0.5
v -0.3339329957962036 0 0.5
v 0.3339329957962036 0 0.5
v -0.3339329957962036 0 0.5
v 0.5 -0.20000000298023224 0.5
v -0.5 0.14500000327825546 0.5
v -0.5 -0.20000000298023224 0.5
v -0.3339329957962036 0 0.5
v 0.5000079870223999 0.14500000327825568 -0.5
v 0.5 -0.20000000298023202 -0.5
v 0.3339329957962036 2.220446049250313e-16 -0.5
v -0.3339329957962036 2.220446049250313e-16 -0.5
v -0.5 -0.20000000298023202 -0.5
v -0.5 0.14500000327825568 -0.5
v 0.5 -0.20000000298023202 -0.5
v -0.5 -0.20000000298023202 -0.5
v 0.3339329957962036 2.220446049250313e-16 -0.5
v -0.3339329957962036 2.220446049250313e-16 -0.5
v 0.3339329957962036 2.220446049250313e-16 -0.5
v -0.5 -0.20000000298023202 -0.5
v 0.3339329957962036 2.220446049250313e-16 -0.5
v 0.46322599053382874 0.14500000327825568 -0.5
v 0.5000079870223999 0.14500000327825568 -0.5
v 0.3339329957962036 0 0.5
v 0.46322599053382874 0.14500000327825546 0.5
v 0.3339329957962036 2.220446049250313e-16 -0.5
v 0.46322599053382874 0.14500000327825568 -0.5
v 0.3339329957962036 2.220446049250313e-16 -0.5
v 0.46322599053382874 0.14500000327825546 0.5
v 0.5000079870223999 0.14500000327825546 0.5
v 0.46322599053382874 0.14500000327825546 0.5
v 0.3339329957962036 0 0.5
v -0.3339329957962036 0 0.5
v -0.46321800351142883 0.14500000327825546 0.5
v -0.5 0.14500000327825546 0.5
v -0.3339329957962036 2.220446049250313e-16 -0.5
v -0.46321800351142883 0.14500000327825568 -0.5
v -0.3339329957962036 0 0.5
v -0.46321800351142883 0.14500000327825546 0.5
v -0.3339329957962036 0 0.5
v -0.46321800351142883 0.14500000327825568 -0.5
v -0.5 0.14500000327825568 -0.5
v -0.46321800351142883 0.14500000327825568 -0.5
v -0.3339329957962036 2.220446049250313e-16 -0.5
v -0.46321800351142883 0.14500000327825546 0.5
v -0.46321800351142883 0.14500000327825568 -0.5
v -0.5 0.14500000327825546 0.5
v -0.46321800351142883 0.14500000327825568 -0.5
v -0.5 0.14500000327825568 -0.5
v -0.5 0.14500000327825546 0.5
v 0.46322599053382874 0.14500000327825568 -0.5
v 0.46322599053382874 0.14500000327825546 0.5
v 0.5000079870223999 0.14500000327825546 0.5
v 0.5000079870223999 0.14500000327825568 -0.5
v 0.46322599053382874 0.14500000327825568 -0.5
v 0.5000079870223999 0.14500000327825546 0.5
vt 0.12433300167322159 0.8157860040664673
vt 0.018698999658226967 0.8157860040664673
vt 0.12433300167322159 0.839959979057312
vt 0.018698999658226967 0.839959979057312
vt 0.12433300167322159 0.839959979057312
vt 0.018698999658226967 0.8157860040664673
vt 0.12433300167322159 0.839959979057312
vt 0.018698999658226967 0.839959979057312
vt 0.12433300167322159 0.8157860040664673
vt 0.018698999658226967 0.8157860040664673
vt 0.12433300167322159 0.8157860040664673
vt 0.018698999658226967 0.839959979057312
vt 0.009719000197947025 0.9874039888381958
vt 0.009719000197947025 0.8647010326385498
vt 0.08844000101089478 0.9874039888381958
vt 0.08844000101089478 0.8647010326385498
vt 0.08844000101089478 0.9874039888381958
vt 0.009719000197947025 0.8647010326385498
vt 0.10928300023078918 0.83160001039505
vt 0.12580400705337524 0.8158000111579895
vt 0.12580400705337524 0.8395010232925415
vt 0.014010000042617321 0.8158000111579895
vt 0.12580400705337524 0.8158000111579895
vt 0.030532000586390495 0.83160001039505
vt 0.10928300023078918 0.83160001039505
vt 0.030532000586390495 0.83160001039505
vt 0.12580400705337524 0.8158000111579895
vt 0.014010000042617321 0.8395010232925415
vt 0.014010000042617321 0.8158000111579895
vt 0.030532000586390495 0.83160001039505
vt 0.12580400705337524 0.8395010232925415
vt 0.12580400705337524 0.8158000111579895
vt 0.10928300023078918 0.83160001039505
vt 0.030532000586390495 0.83160001039505
vt 0.014010000042617321 0.8158000111579895
vt 0.014010000042617321 0.8395010232925415
vt 0.12580400705337524 0.8158000111579895
vt 0.014010000042617321 0.8158000111579895
vt 0.10928300023078918 0.83160001039505
vt 0.030532000586390495 0.83160001039505
vt 0.10928300023078918 0.83160001039505
vt 0.014010000042617321 0.8158000111579895
vt 0.10928300023078918 0.83160001039505
vt 0.1130400002002716 0.8395010232925415
vt 0.12580400705337524 0.8395010232925415
vt 0.05108200013637543 0.773714005947113
vt 0.05108200013637543 0.8079699873924255
vt 0.2162889987230301 0.773714005947113
vt 0.2162889987230301 0.8079699873924255
vt 0.2162889987230301 0.773714005947113
vt 0.05108200013637543 0.8079699873924255
vt 0.12580400705337524 0.8395010232925415
vt 0.1130400002002716 0.8395010232925415
vt 0.10928300023078918 0.83160001039505
vt 0.030532000586390495 0.83160001039505
vt 0.026775000616908073 0.8395010232925415
vt 0.014010000042617321 0.8395010232925415
vt 0.05108100175857544 0.7737450003623962
vt 0.05108100175857544 0.8079439997673035
vt 0.21632599830627441 0.7737450003623962
vt 0.21632599830627441 0.8079439997673035
vt 0.21632599830627441 0.7737450003623962
vt 0.05108100175857544 0.8079439997673035
vt 0.014010000042617321 0.8395010232925415
vt 0.026775000616908073 0.8395010232925415
vt 0.030532000586390495 0.83160001039505
vt 0.36647599935531616 0.8674860000610352
vt 0.36640098690986633 0.9815359711647034
vt 0.35931798815727234 0.8674860000610352
vt 0.36640098690986633 0.9815359711647034
vt 0.35930299758911133 0.9815359711647034
vt 0.35931798815727234 0.8674860000610352
vt 0.36640098690986633 0.9815359711647034
vt 0.36647599935531616 0.8674860000610352
vt 0.35931798815727234 0.8674860000610352
vt 0.35930299758911133 0.9815359711647034
vt 0.36640098690986633 0.9815359711647034
vt 0.35931798815727234 0.8674860000610352
vn 0.999999999758 -0.000022000000166505017 -4.8849813453222294e-21
vn 0.999999999758 -0.000022000000166505017 -4.8849813453222294e-21
vn 0.999999999758 -0.000022000000166505017 -4.8849813453222294e-21
vn 0.999999999758 -0.000022000000166505017 -4.8849813453222294e-21
vn 0.999999999758 -0.000022000000166505017 -4.8849813453222294e-21
vn 0.999999999758 -0.000022000000166505017 -4.8849813453222294e-21
vn -1 0 0
vn -1 0 0
vn -1 0 0
vn -1 0 0
vn -1 0 0
vn -1 0 0
vn 0 1 2.220446049250313e-16
vn 0 1 2.220446049250313e-16
vn 0 1 2.220446049250313e-16
vn 0 1 2.220446049250313e-16
vn 0 1 2.220446049250313e-16
vn 0 1 2.220446049250313e-16
vn 0 -2.220446049250313e-16 1
vn 0 -2.220446049250313e-16 1
vn 0 -2.220446049250313e-16 1
vn 0 -2.220446049250313e-16 1
vn 0 -2.220446049250313e-16 1
vn 0 -2.220446049250313e-16 1
vn 0 -2.220446049250313e-16 1
vn 0 -2.220446049250313e-16 1
vn 0 -2.220446049250313e-16 1
vn 0 -2.220446049250313e-16 1
vn 0 -2.220446049250313e-16 1
vn 0 -2.220446049250313e-16 1
vn 0 2.220446049250313e-16 -1
vn 0 2.220446049250313e-16 -1
vn 0 2.220446049250313e-16 -1
vn 0 2.220446049250313e-16 -1
vn 0 2.220446049250313e-16 -1
vn 0 2.220446049250313e-16 -1
vn 0 2.220446049250313e-16 -1
vn 0 2.220446049250313e-16 -1
vn 0 2.220446049250313e-16 -1
vn 0 2.220446049250313e-16 -1
vn 0 2.220446049250313e-16 -1
vn 0 2.220446049250313e-16 -1
vn 0 2.220446049250313e-16 -1
vn 0.0000019999999949454854 -9.99999997250698e-7 -0.9999999999975
vn 0 2.220446049250313e-16 -1
vn -0.7463762252982282 0.6655242522324551 1.477760696549824e-16
vn -0.7463762252982282 0.6655242522324551 1.477760696549824e-16
vn -0.7463762252982282 0.6655242522324551 1.477760696549824e-16
vn -0.7463762252982282 0.6655242522324551 1.477760696549824e-16
vn -0.7463762252982282 0.6655242522324551 1.477760696549824e-16
vn -0.7463762252982282 0.6655242522324551 1.477760696549824e-16
vn 0 -2.220446049250313e-16 1
vn -9.999999974742428e-7 9.999999972521982e-7 0.9999999999990001
vn 0 -2.220446049250313e-16 1
vn 0 -2.220446049250313e-16 1
vn 9.999999974727427e-7 0.0000019999999947234408 0.9999999999975
vn 0 -2.220446049250313e-16 1
vn 0.7463960302380199 0.6655020406016234 1.4777113768218962e-16
vn 0.7463960302380199 0.6655020406016234 1.4777113768218962e-16
vn 0.7463960302380199 0.6655020406016234 1.4777113768218962e-16
vn 0.7463960302380199 0.6655020406016234 1.4777113768218962e-16
vn 0.7463960302380199 0.6655020406016234 1.4777113768218962e-16
vn 0.7463960302380199 0.6655020406016234 1.4777113768218962e-16
vn 0 2.220446049250313e-16 -1
vn 0 2.220446049250313e-16 -1
vn 0 2.220446049250313e-16 -1
vn 0 1 2.220446049250313e-16
vn 0 1 2.220446049250313e-16
vn 0 1 2.220446049250313e-16
vn 0 1 2.220446049250313e-16
vn 0 1 2.220446049250313e-16
vn 0 1 2.220446049250313e-16
vn 0 1 2.220446049250313e-16
vn 0 1 2.220446049250313e-16
vn 0 1 2.220446049250313e-16
vn 0 1 2.220446049250313e-16
vn 0 1 2.220446049250313e-16
vn 0 1 2.220446049250313e-16
f 1/1/1 2/2/2 3/3/3
f 4/4/4 5/5/5 6/6/6
f 7/7/7 8/8/8 9/9/9
f 10/10/10 11/11/11 12/12/12
f 13/13/13 14/14/14 15/15/15
f 16/16/16 17/17/17 18/18/18
f 19/19/19 20/20/20 21/21/21
f 22/22/22 23/23/23 24/24/24
f 25/25/25 26/26/26 27/27/27
f 28/28/28 29/29/29 30/30/30
f 31/31/31 32/32/32 33/33/33
f 34/34/34 35/35/35 36/36/36
f 37/37/37 38/38/38 39/39/39
f 40/40/40 41/41/41 42/42/42
f 43/43/43 44/44/44 45/45/45
f 46/46/46 47/47/47 48/48/48
f 49/49/49 50/50/50 51/51/51
f 52/52/52 53/53/53 54/54/54
f 55/55/55 56/56/56 57/57/57
f 58/58/58 59/59/59 60/60/60
f 61/61/61 62/62/62 63/63/63
f 64/64/64 65/65/65 66/66/66
f 67/67/67 68/68/68 69/69/69
f 70/70/70 71/71/71 72/72/72
f 73/73/73 74/74/74 75/75/75
f 76/76/76 77/77/77 78/78/78
