# Modified by OBJRotate180 (Mesh rotated 180 degrees around Y-axis)
# Original file: egy_tile_boundary.obj
mtllib ../Materials/egy_tile_boundary.mtl
v -0.500000 -0.200000 -0.500000
v -0.500000 -0.200000 0.500000
v -0.500008 0.145000 -0.500000
v -0.500008 0.145000 0.500000
v -0.500008 0.145000 -0.500000
v -0.500000 -0.200000 0.500000
v 0.500000 0.145000 -0.500000
v 0.500000 0.145000 0.500000
v 0.500000 -0.200000 -0.500000
v 0.500000 -0.200000 0.500000
v 0.500000 -0.200000 -0.500000
v 0.500000 0.145000 0.500000
v 0.500000 0.145000 0.500000
v 0.500000 0.145000 -0.500000
v -0.500008 0.145000 0.500000
v -0.500008 0.145000 -0.500000
v -0.500008 0.145000 0.500000
v 0.500000 0.145000 -0.500000
v 0.500000 -0.200000 -0.500000
v -0.500000 -0.200000 -0.500000
v 0.500000 0.145000 -0.500000
v -0.500008 0.145000 -0.500000
v 0.500000 0.145000 -0.500000
v -0.500000 -0.200000 -0.500000
v -0.500000 -0.200000 0.500000
v 0.500000 -0.200000 0.500000
v -0.500008 0.145000 0.500000
v 0.500000 0.145000 0.500000
v -0.500008 0.145000 0.500000
v 0.500000 -0.200000 0.500000
vt 0.124333 0.815786
vt 0.018699 0.815786
vt 0.124333 0.839960
vt 0.018699 0.839960
vt 0.124333 0.839960
vt 0.018699 0.815786
vt 0.124333 0.839960
vt 0.018699 0.839960
vt 0.124333 0.815786
vt 0.018699 0.815786
vt 0.124333 0.815786
vt 0.018699 0.839960
vt 0.012752 0.553846
vt 0.012752 0.443274
vt 0.128375 0.553846
vt 0.128375 0.443274
vt 0.128375 0.553846
vt 0.012752 0.443274
vt 0.018560 0.815800
vt 0.125804 0.815800
vt 0.018543 0.839688
vt 0.125821 0.839688
vt 0.018543 0.839688
vt 0.125804 0.815800
vt 0.125804 0.815800
vt 0.018560 0.815800
vt 0.125821 0.839688
vt 0.018543 0.839688
vt 0.125821 0.839688
vt 0.018560 0.815800
vn -1.000000 -0.000022 0.000000
vn -1.000000 -0.000022 0.000000
vn -1.000000 -0.000022 0.000000
vn -1.000000 -0.000022 0.000000
vn -1.000000 -0.000022 0.000000
vn -1.000000 -0.000022 0.000000
vn 1.000000 0.000000 0.000000
vn 1.000000 0.000000 0.000000
vn 1.000000 0.000000 0.000000
vn 1.000000 0.000000 0.000000
vn 1.000000 0.000000 0.000000
vn 1.000000 0.000000 0.000000
vn 0.000000 1.000000 0.000000
vn 0.000000 1.000000 0.000000
vn 0.000000 1.000000 0.000000
vn 0.000000 1.000000 0.000000
vn 0.000000 1.000000 0.000000
vn 0.000000 1.000000 0.000000
vn 0.000000 0.000000 -1.000000
vn 0.000000 0.000000 -1.000000
vn 0.000000 0.000000 -1.000000
vn 0.000000 0.000000 -1.000000
vn 0.000000 0.000000 -1.000000
vn 0.000000 0.000000 -1.000000
vn 0.000000 0.000000 1.000000
vn 0.000000 0.000000 1.000000
vn 0.000000 0.000000 1.000000
vn 0.000000 0.000000 1.000000
vn 0.000000 0.000000 1.000000
vn 0.000000 0.000000 1.000000
o tile_boundary
o tile_boundary
usemtl PDX01_-_Default
f 1/1/1 2/2/2 3/3/3
f 4/4/4 5/5/5 6/6/6
f 7/7/7 8/8/8 9/9/9
f 10/10/10 11/11/11 12/12/12
f 13/13/13 14/14/14 15/15/15
f 16/16/16 17/17/17 18/18/18
f 19/19/19 20/20/20 21/21/21
f 22/22/22 23/23/23 24/24/24
f 25/25/25 26/26/26 27/27/27
f 28/28/28 29/29/29 30/30/30
