# Modified by OBJRotate180 (Mesh rotated 180 degrees around Y-axis)
# Original file: egy_tile_s_boundary_edge.obj
mtllib ../Materials/egy_tile_s_boundary_edge.mtl
v -0.500000 0.145000 -0.500000
v 0.500000 0.145000 -0.500000
v -0.500000 -0.200000 -0.500000
v 0.500000 -0.200000 -0.500000
v -0.500000 -0.200000 -0.500000
v 0.500000 0.145000 -0.500000
v 0.499997 -0.200000 0.000003
v 0.500000 -0.200000 -0.500000
v 0.499982 0.145000 0.000018
v 0.500000 0.145000 -0.500000
v 0.499982 0.145000 0.000018
v 0.500000 -0.200000 -0.500000
v -0.500000 0.145000 0.000003
v -0.500000 -0.200000 0.000003
v 0.499982 0.145000 0.000018
v 0.499997 -0.200000 0.000003
v 0.499982 0.145000 0.000018
v -0.500000 -0.200000 0.000003
v 0.500000 0.145000 -0.500000
v -0.500000 0.145000 -0.500000
v 0.499982 0.145000 0.000018
v -0.500000 0.145000 0.000003
v 0.499982 0.145000 0.000018
v -0.500000 0.145000 -0.500000
v -0.500000 0.145000 0.000003
v -0.500000 0.145000 -0.500000
v -0.500000 -0.200000 0.000003
v -0.500000 -0.200000 -0.500000
v -0.500000 -0.200000 0.000003
v -0.500000 0.145000 -0.500000
vt 0.491547 0.807661
vt 0.341227 0.807661
vt 0.491547 0.771002
vt 0.341227 0.771002
vt 0.491547 0.771002
vt 0.341227 0.807661
vt 0.493018 0.771015
vt 0.341088 0.771015
vt 0.493035 0.807390
vt 0.341071 0.807390
vt 0.493035 0.807390
vt 0.341088 0.771015
vt 0.483312 0.806750
vt 0.483312 0.771192
vt 0.372882 0.806750
vt 0.372882 0.771455
vt 0.372882 0.806750
vt 0.483312 0.771192
vt 0.012752 0.553846
vt 0.012752 0.443274
vt 0.128375 0.553846
vt 0.082168 0.443274
vt 0.128375 0.553846
vt 0.012752 0.443274
vt 0.417306 0.807390
vt 0.341071 0.807390
vt 0.417303 0.771015
vt 0.341088 0.771015
vt 0.417303 0.771015
vt 0.341071 0.807390
vn 0.000000 0.000000 -1.000000
vn 0.000000 0.000000 -1.000000
vn 0.000000 0.000000 -1.000000
vn 0.000000 0.000000 -1.000000
vn 0.000000 0.000000 -1.000000
vn 0.000000 0.000000 -1.000000
vn 1.000000 0.000045 0.000005
vn 1.000000 0.000045 0.000005
vn 1.000000 0.000045 0.000005
vn 1.000000 0.000000 0.000036
vn 1.000000 0.000000 0.000036
vn 1.000000 0.000000 0.000036
vn -0.000014 0.000000 1.000000
vn -0.000011 -0.000009 1.000000
vn -0.000003 -0.000033 1.000000
vn 0.000000 -0.000041 1.000000
vn -0.000003 -0.000033 1.000000
vn -0.000011 -0.000009 1.000000
vn 0.000000 1.000000 0.000000
vn 0.000000 1.000000 0.000000
vn 0.000000 1.000000 0.000000
vn 0.000000 1.000000 0.000000
vn 0.000000 1.000000 0.000000
vn 0.000000 1.000000 0.000000
vn -1.000000 0.000000 0.000000
vn -1.000000 0.000000 0.000000
vn -1.000000 0.000000 0.000000
vn -1.000000 0.000000 0.000000
vn -1.000000 0.000000 0.000000
vn -1.000000 0.000000 0.000000
o tile_boundary_edge
o tile_boundary_edge
usemtl PDX01_-_Default
f 1/1/1 2/2/2 3/3/3
f 4/4/4 5/5/5 6/6/6
f 7/7/7 8/8/8 9/9/9
f 10/10/10 11/11/11 12/12/12
f 13/13/13 14/14/14 15/15/15
f 16/16/16 17/17/17 18/18/18
f 19/19/19 20/20/20 21/21/21
f 22/22/22 23/23/23 24/24/24
f 25/25/25 26/26/26 27/27/27
f 28/28/28 29/29/29 30/30/30
