# Modified by OBJRotate180 (Mesh rotated 180 degrees around Y-axis)
# Original file: egy_tile_sw_boundary_sml_corner.obj
mtllib ../Materials/egy_tile_sw_boundary_sml_corner.mtl
v 0.000001 0.145000 -0.500000
v 0.500005 0.145000 0.000001
v 0.500005 0.145000 -0.500000
v 0.500005 0.145000 -0.500000
v 0.500005 0.145000 0.000001
v 0.499997 -0.200000 -0.500000
v 0.499997 -0.200000 -0.000007
v 0.499997 -0.200000 -0.500000
v 0.500005 0.145000 0.000001
v 0.500005 0.145000 -0.500000
v 0.499997 -0.200000 -0.500000
v 0.000001 0.145000 -0.500000
v 0.000001 -0.200000 -0.500000
v 0.000001 0.145000 -0.500000
v 0.499997 -0.200000 -0.500000
v 0.000001 -0.200000 -0.500000
v 0.499997 -0.200000 -0.000007
v 0.000001 0.145000 -0.500000
v 0.500005 0.145000 0.000001
v 0.000001 0.145000 -0.500000
v 0.499997 -0.200000 -0.000007
vt 0.082167 0.553846
vt 0.128375 0.509656
vt 0.128375 0.553846
vt 0.373109 0.809366
vt 0.416739 0.809366
vt 0.373109 0.769522
vt 0.416738 0.769522
vt 0.373109 0.769522
vt 0.416739 0.809366
vt 0.524310 0.809094
vt 0.524293 0.769535
vt 0.480629 0.809094
vt 0.480626 0.769535
vt 0.480629 0.809094
vt 0.524293 0.769535
vt 0.480309 0.769535
vt 0.414644 0.769522
vt 0.480633 0.809216
vt 0.414665 0.809383
vt 0.480633 0.809216
vt 0.414644 0.769522
vn 0.000000 1.000000 0.000000
vn 0.000000 1.000000 0.000000
vn 0.000000 1.000000 0.000000
vn 1.000000 -0.000022 0.000000
vn 1.000000 -0.000022 0.000000
vn 1.000000 -0.000022 0.000000
vn 1.000000 -0.000022 0.000000
vn 1.000000 -0.000022 0.000000
vn 1.000000 -0.000022 0.000000
vn 0.000000 0.000000 -1.000000
vn 0.000000 0.000000 -1.000000
vn 0.000000 0.000000 -1.000000
vn 0.000000 0.000000 -1.000000
vn 0.000000 0.000000 -1.000000
vn 0.000000 0.000000 -1.000000
vn -0.707105 0.000000 0.707109
vn -0.707105 0.000000 0.707109
vn -0.707105 0.000000 0.707109
vn -0.707105 0.000000 0.707109
vn -0.707105 0.000000 0.707109
vn -0.707105 0.000000 0.707109
o boundary_small_corner
o boundary_small_corner
usemtl PDX01_-_Default
f 1/1/1 2/2/2 3/3/3
f 4/4/4 5/5/5 6/6/6
f 7/7/7 8/8/8 9/9/9
f 10/10/10 11/11/11 12/12/12
f 13/13/13 14/14/14 15/15/15
f 16/16/16 17/17/17 18/18/18
f 19/19/19 20/20/20 21/21/21
