# Modified by OBJRotate180 (Mesh rotated 180 degrees around Y-axis)
# Original file: egy_tile_boundary_tut_bot_we.obj
mtllib egy_tile_boundary_tut_bot_we.mtl
v -0.500000 0.145000 0.500000
v -0.500000 0.145000 -0.500000
v -0.500000 -0.200000 0.500000
v -0.500000 -0.200000 -0.500000
v -0.500000 -0.200000 0.500000
v -0.500000 0.145000 -0.500000
v -0.500000 -0.200000 0.500000
v 0.500000 -0.200000 0.500000
v -0.500000 0.145000 0.500000
v 0.500008 0.145000 0.500000
v -0.500000 0.145000 0.500000
v 0.500000 -0.200000 0.500000
v 0.500000 -0.200000 -0.500000
v -0.500000 -0.200000 -0.500000
v 0.500008 0.145000 -0.500000
v -0.500000 0.145000 -0.500000
v 0.500008 0.145000 -0.500000
v -0.500000 -0.200000 -0.500000
v -0.322491 0.393995 -0.070276
v -0.322491 0.393995 0.113296
v 0.498821 0.393995 -0.107737
v 0.498821 0.393995 0.150757
v 0.498821 0.393995 -0.107737
v -0.322491 0.393995 0.113296
v -0.324557 0.335843 0.207308
v -0.364587 0.148178 0.252202
v 0.498820 0.336049 0.281264
v 0.498820 0.148178 0.344569
v 0.498820 0.336049 0.281264
v -0.364587 0.148178 0.252202
v 0.498821 0.336050 -0.229397
v 0.498821 0.148178 -0.292792
v -0.324557 0.335845 -0.155442
v -0.364587 0.148178 -0.200425
v -0.324557 0.335845 -0.155442
v 0.498821 0.148178 -0.292792
v -0.464587 0.345528 -0.153121
v -0.464587 0.148178 -0.200425
v -0.464587 0.345528 0.204991
v -0.464587 0.148178 0.252202
v -0.464587 0.345528 0.204991
v -0.464587 0.148178 -0.200425
v -0.322491 0.393995 0.113296
v -0.322491 0.350216 0.196122
v 0.498821 0.393995 0.150757
v 0.498820 0.349097 0.268697
v 0.498821 0.393995 0.150757
v -0.322491 0.350216 0.196122
v 0.498821 0.393995 -0.107737
v 0.498821 0.349326 -0.216917
v -0.322491 0.393995 -0.070276
v -0.322491 0.350593 -0.144464
v -0.322491 0.393995 -0.070276
v 0.498821 0.349326 -0.216917
v -0.450641 0.476533 0.113296
v -0.378532 0.476533 0.113296
v -0.450641 0.476533 -0.070276
v -0.378532 0.476533 -0.070276
v -0.450641 0.476533 -0.070276
v -0.378532 0.476533 0.113296
v -0.324557 0.335843 0.207308
v -0.332491 0.345528 0.204991
v -0.364587 0.148178 0.252202
v -0.332491 0.345528 0.204991
v -0.464587 0.345528 0.204991
v -0.364587 0.148178 0.252202
v -0.464587 0.345528 0.204991
v -0.464587 0.148178 0.252202
v -0.364587 0.148178 0.252202
v -0.364587 0.148178 -0.200425
v -0.464587 0.148178 -0.200425
v -0.324557 0.335845 -0.155442
v -0.464587 0.148178 -0.200425
v -0.464587 0.345528 -0.153121
v -0.324557 0.335845 -0.155442
v -0.324557 0.335845 -0.155442
v -0.464587 0.345528 -0.153121
v -0.332491 0.345528 -0.153121
v -0.450641 0.445528 0.204991
v -0.378532 0.445528 0.204991
v -0.450641 0.476533 0.113296
v -0.378532 0.476533 0.113296
v -0.450641 0.476533 0.113296
v -0.378532 0.445528 0.204991
v -0.450641 0.476533 -0.070276
v -0.378532 0.476533 -0.070276
v -0.450641 0.445528 -0.153121
v -0.378532 0.445528 -0.153121
v -0.450641 0.445528 -0.153121
v -0.378532 0.476533 -0.070276
v -0.378532 0.476533 0.113296
v -0.322491 0.393995 0.113296
v -0.378532 0.476533 -0.070276
v -0.322491 0.393995 -0.070276
v -0.378532 0.476533 -0.070276
v -0.322491 0.393995 0.113296
v -0.322491 0.393995 0.113296
v -0.378532 0.476533 0.113296
v -0.322491 0.350216 0.196122
v -0.378532 0.476533 0.113296
v -0.378532 0.445528 0.204991
v -0.322491 0.350216 0.196122
v -0.322491 0.350216 0.196122
v -0.378532 0.445528 0.204991
v -0.327380 0.354252 0.204991
v -0.322491 0.350593 -0.144464
v -0.327380 0.354252 -0.153121
v -0.322491 0.393995 -0.070276
v -0.327380 0.354252 -0.153121
v -0.378532 0.445528 -0.153121
v -0.322491 0.393995 -0.070276
v -0.378532 0.445528 -0.153121
v -0.378532 0.476533 -0.070276
v -0.322491 0.393995 -0.070276
v -0.450641 0.476533 0.113296
v -0.464587 0.345528 0.204991
v -0.450641 0.445528 0.204991
v -0.450641 0.476533 -0.070276
v -0.464587 0.345528 -0.153121
v -0.450641 0.476533 0.113296
v -0.464587 0.345528 0.204991
v -0.450641 0.476533 0.113296
v -0.464587 0.345528 -0.153121
v -0.450641 0.445528 -0.153121
v -0.464587 0.345528 -0.153121
v -0.450641 0.476533 -0.070276
v -0.332491 0.345528 0.204991
v -0.327380 0.354252 0.204991
v -0.464587 0.345528 0.204991
v -0.327380 0.354252 0.204991
v -0.378532 0.445528 0.204991
v -0.464587 0.345528 0.204991
v -0.378532 0.445528 0.204991
v -0.450641 0.445528 0.204991
v -0.464587 0.345528 0.204991
v -0.464587 0.345528 -0.153121
v -0.450641 0.445528 -0.153121
v -0.332491 0.345528 -0.153121
v -0.450641 0.445528 -0.153121
v -0.378532 0.445528 -0.153121
v -0.332491 0.345528 -0.153121
v -0.332491 0.345528 -0.153121
v -0.378532 0.445528 -0.153121
v -0.327380 0.354252 -0.153121
v -0.322491 0.350216 0.196122
v -0.327380 0.354252 0.204991
v -0.324557 0.335843 0.207308
v -0.332491 0.345528 0.204991
v -0.324557 0.335843 0.207308
v -0.327380 0.354252 0.204991
v -0.332491 0.345528 -0.153121
v -0.327380 0.354252 -0.153121
v -0.324557 0.335845 -0.155442
v -0.322491 0.350593 -0.144464
v -0.324557 0.335845 -0.155442
v -0.327380 0.354252 -0.153121
v 0.498820 0.349097 0.268697
v -0.322491 0.350216 0.196122
v 0.498820 0.336049 0.281264
v -0.324557 0.335843 0.207308
v 0.498820 0.336049 0.281264
v -0.322491 0.350216 0.196122
v -0.322491 0.350593 -0.144464
v 0.498821 0.349326 -0.216917
v -0.324557 0.335845 -0.155442
v 0.498821 0.336050 -0.229397
v -0.324557 0.335845 -0.155442
v 0.498821 0.349326 -0.216917
v -0.464587 0.148178 -0.200425
v -0.364587 0.148178 -0.200425
v -0.500000 0.145000 -0.500000
v -0.364587 0.148178 -0.200425
v 0.498821 0.148178 -0.292792
v -0.500000 0.145000 -0.500000
v 0.498821 0.148178 -0.292792
v 0.500008 0.145000 -0.500000
v -0.500000 0.145000 -0.500000
v -0.364587 0.148178 0.252202
v -0.464587 0.148178 0.252202
v -0.500000 0.145000 0.500000
v -0.464587 0.148178 0.252202
v -0.464587 0.148178 -0.200425
v -0.500000 0.145000 0.500000
v -0.464587 0.148178 -0.200425
v -0.500000 0.145000 -0.500000
v -0.500000 0.145000 0.500000
v 0.498820 0.148178 0.344569
v -0.364587 0.148178 0.252202
v 0.500008 0.145000 0.500000
v -0.364587 0.148178 0.252202
v -0.500000 0.145000 0.500000
v 0.500008 0.145000 0.500000
vt 0.124333 0.839960
vt 0.018699 0.839960
vt 0.124333 0.815786
vt 0.018699 0.815786
vt 0.124333 0.815786
vt 0.018699 0.839960
vt 0.018560 0.815800
vt 0.125804 0.815800
vt 0.018543 0.839688
vt 0.125821 0.839688
vt 0.018543 0.839688
vt 0.125804 0.815800
vt 0.125804 0.815800
vt 0.018560 0.815800
vt 0.125821 0.839688
vt 0.018543 0.839688
vt 0.125821 0.839688
vt 0.018560 0.815800
vt 0.920123 0.051072
vt 0.951248 0.051072
vt 0.913772 0.223484
vt 0.957600 0.223484
vt 0.913772 0.223484
vt 0.951248 0.051072
vt 0.967188 0.050627
vt 0.979865 0.041997
vt 0.979727 0.223484
vt 0.995526 0.223484
vt 0.979727 0.223484
vt 0.979865 0.041997
vt 0.893144 0.223484
vt 0.879582 0.223484
vt 0.905683 0.050627
vt 0.895243 0.041997
vt 0.905683 0.050627
vt 0.879582 0.223484
vt 0.785551 0.021226
vt 0.774386 0.005202
vt 0.855377 0.021226
vt 0.864582 0.005202
vt 0.855377 0.021226
vt 0.774386 0.005202
vt 0.951248 0.051072
vt 0.965291 0.051072
vt 0.957600 0.223484
vt 0.977596 0.223484
vt 0.957600 0.223484
vt 0.965291 0.051072
vt 0.913772 0.223484
vt 0.895260 0.223484
vt 0.920123 0.051072
vt 0.907545 0.051072
vt 0.920123 0.051072
vt 0.895260 0.223484
vt 0.951248 0.024857
vt 0.951248 0.038991
vt 0.920123 0.024857
vt 0.920123 0.038991
vt 0.920123 0.024857
vt 0.951248 0.038991
vt 0.967188 0.050627
vt 0.966795 0.049016
vt 0.979865 0.041997
vt 0.966795 0.049016
vt 0.966795 0.021850
vt 0.979865 0.041997
vt 0.966795 0.021850
vt 0.979865 0.010874
vt 0.979865 0.041997
vt 0.895243 0.041997
vt 0.893554 0.010874
vt 0.905683 0.050627
vt 0.893554 0.010874
vt 0.906077 0.021850
vt 0.905683 0.050627
vt 0.905683 0.050627
vt 0.906077 0.021850
vt 0.906077 0.049016
vt 0.966795 0.024857
vt 0.966795 0.038991
vt 0.951248 0.024857
vt 0.951248 0.038991
vt 0.951248 0.024857
vt 0.966795 0.038991
vt 0.920123 0.024857
vt 0.920123 0.038991
vt 0.906077 0.024857
vt 0.906077 0.038991
vt 0.906077 0.024857
vt 0.920123 0.038991
vt 0.951248 0.038991
vt 0.951248 0.051072
vt 0.920123 0.038991
vt 0.920123 0.051072
vt 0.920123 0.038991
vt 0.951248 0.051072
vt 0.951248 0.051072
vt 0.951248 0.038991
vt 0.965291 0.051072
vt 0.951248 0.038991
vt 0.966795 0.038991
vt 0.965291 0.051072
vt 0.965291 0.051072
vt 0.966795 0.038991
vt 0.966795 0.050018
vt 0.907545 0.051072
vt 0.906077 0.050018
vt 0.920123 0.051072
vt 0.906077 0.050018
vt 0.906077 0.038991
vt 0.920123 0.051072
vt 0.906077 0.038991
vt 0.920123 0.038991
vt 0.920123 0.051072
vt 0.837498 0.035704
vt 0.855377 0.021226
vt 0.855377 0.035704
vt 0.801704 0.035704
vt 0.785551 0.021226
vt 0.837498 0.035704
vt 0.855377 0.021226
vt 0.837498 0.035704
vt 0.785551 0.021226
vt 0.785551 0.035704
vt 0.785551 0.021226
vt 0.801704 0.035704
vt 0.966795 0.049016
vt 0.966795 0.050018
vt 0.966795 0.021850
vt 0.966795 0.050018
vt 0.966795 0.038991
vt 0.966795 0.021850
vt 0.966795 0.038991
vt 0.966795 0.024857
vt 0.966795 0.021850
vt 0.906077 0.021850
vt 0.906077 0.024857
vt 0.906077 0.049016
vt 0.906077 0.024857
vt 0.906077 0.038991
vt 0.906077 0.049016
vt 0.906077 0.049016
vt 0.906077 0.038991
vt 0.906077 0.050018
vt 0.965291 0.051072
vt 0.966795 0.050018
vt 0.967188 0.050627
vt 0.966795 0.049016
vt 0.967188 0.050627
vt 0.966795 0.050018
vt 0.906077 0.049016
vt 0.906077 0.050018
vt 0.905683 0.050627
vt 0.907545 0.051072
vt 0.905683 0.050627
vt 0.906077 0.050018
vt 0.977596 0.223484
vt 0.965291 0.051072
vt 0.979727 0.223484
vt 0.967188 0.050627
vt 0.979727 0.223484
vt 0.965291 0.051072
vt 0.907545 0.051072
vt 0.895260 0.223484
vt 0.905683 0.050627
vt 0.893144 0.223484
vt 0.905683 0.050627
vt 0.895260 0.223484
vt 0.049058 0.584625
vt 0.049058 0.595646
vt 0.016042 0.580722
vt 0.049058 0.595646
vt 0.038879 0.690802
vt 0.016042 0.580722
vt 0.038879 0.690802
vt 0.016042 0.690932
vt 0.016042 0.580722
vt 0.098943 0.595646
vt 0.098943 0.584625
vt 0.126253 0.580722
vt 0.098943 0.584625
vt 0.049058 0.584625
vt 0.126253 0.580722
vt 0.049058 0.584625
vt 0.016042 0.580722
vt 0.126253 0.580722
vt 0.109123 0.690802
vt 0.098943 0.595646
vt 0.126253 0.690932
vt 0.098943 0.595646
vt 0.126253 0.580722
vt 0.126253 0.690932
vn -1.000000 0.000000 0.000000
vn -1.000000 0.000000 0.000000
vn -1.000000 0.000000 0.000000
vn -1.000000 0.000000 0.000000
vn -1.000000 0.000000 0.000000
vn -1.000000 0.000000 0.000000
vn 0.000000 0.000000 1.000000
vn 0.000000 0.000000 1.000000
vn 0.000000 0.000000 1.000000
vn 0.000000 0.000000 1.000000
vn 0.000000 0.000000 1.000000
vn 0.000000 0.000000 1.000000
vn 0.000000 0.000000 -1.000000
vn 0.000000 0.000000 -1.000000
vn 0.000000 0.000000 -1.000000
vn 0.000000 0.000000 -1.000000
vn 0.000000 0.000000 -1.000000
vn 0.000000 0.000000 -1.000000
vn 0.501165 0.837939 -0.216085
vn 0.486785 0.845489 0.219521
vn -0.009046 0.980094 -0.198329
vn -0.015455 0.981614 0.190252
vn -0.009046 0.980094 -0.198329
vn 0.486785 0.845489 0.219521
vn 0.029926 0.333103 0.942415
vn -0.039173 0.245139 0.968696
vn -0.083445 0.507042 0.857872
vn -0.100862 0.317691 0.942815
vn -0.083445 0.507042 0.857872
vn -0.039173 0.245139 0.968696
vn -0.077217 0.507343 -0.858278
vn -0.087590 0.308848 -0.947070
vn 0.022781 0.331948 -0.943023
vn -0.045298 0.241984 -0.969222
vn 0.022781 0.331948 -0.943023
vn -0.087590 0.308848 -0.947070
vn -0.742223 0.121403 -0.659065
vn -0.647749 0.177585 -0.740867
vn -0.742194 0.121603 0.659061
vn -0.647875 0.177230 0.740842
vn -0.742194 0.121603 0.659061
vn -0.647749 0.177585 -0.740867
vn 0.486785 0.845489 0.219521
vn 0.500041 0.673327 0.544601
vn -0.015455 0.981614 0.190252
vn -0.048283 0.827642 0.559176
vn -0.015455 0.981614 0.190252
vn 0.500041 0.673327 0.544601
vn -0.009046 0.980094 -0.198329
vn -0.044346 0.814548 -0.578398
vn 0.501165 0.837939 -0.216085
vn 0.491400 0.649277 -0.580487
vn 0.501165 0.837939 -0.216085
vn -0.044346 0.814548 -0.578398
vn -0.633404 0.764364 0.120611
vn 0.454181 0.878206 0.149913
vn -0.630297 0.764859 -0.133103
vn 0.444866 0.882072 -0.155059
vn -0.630297 0.764859 -0.133103
vn 0.454181 0.878206 0.149913
vn 0.029926 0.333103 0.942415
vn -0.051579 0.114216 0.992116
vn -0.039173 0.245139 0.968696
vn -0.051579 0.114216 0.992116
vn -0.742194 0.121603 0.659061
vn -0.039173 0.245139 0.968696
vn -0.742194 0.121603 0.659061
vn -0.647875 0.177230 0.740842
vn -0.039173 0.245139 0.968696
vn -0.045298 0.241984 -0.969222
vn -0.647749 0.177585 -0.740867
vn 0.022781 0.331948 -0.943023
vn -0.647749 0.177585 -0.740867
vn -0.742223 0.121403 -0.659065
vn 0.022781 0.331948 -0.943023
vn 0.022781 0.331948 -0.943023
vn -0.742223 0.121403 -0.659065
vn -0.051672 0.114432 -0.992086
vn -0.543910 0.507871 0.668003
vn 0.389206 0.586441 0.710356
vn -0.633404 0.764364 0.120611
vn 0.454181 0.878206 0.149913
vn -0.633404 0.764364 0.120611
vn 0.389206 0.586441 0.710356
vn -0.630297 0.764859 -0.133103
vn 0.444866 0.882072 -0.155059
vn -0.545005 0.497035 -0.675223
vn 0.367424 0.577206 -0.729268
vn -0.545005 0.497035 -0.675223
vn 0.444866 0.882072 -0.155059
vn 0.454181 0.878206 0.149913
vn 0.486785 0.845489 0.219521
vn 0.444866 0.882072 -0.155059
vn 0.501165 0.837939 -0.216085
vn 0.444866 0.882072 -0.155059
vn 0.486785 0.845489 0.219521
vn 0.486785 0.845489 0.219521
vn 0.454181 0.878206 0.149913
vn 0.500041 0.673327 0.544601
vn 0.454181 0.878206 0.149913
vn 0.389206 0.586441 0.710356
vn 0.500041 0.673327 0.544601
vn 0.500041 0.673327 0.544601
vn 0.389206 0.586441 0.710356
vn 0.569604 0.267627 0.777128
vn 0.491400 0.649277 -0.580487
vn 0.561103 0.263051 -0.784836
vn 0.501165 0.837939 -0.216085
vn 0.561103 0.263051 -0.784836
vn 0.367424 0.577206 -0.729268
vn 0.501165 0.837939 -0.216085
vn 0.367424 0.577206 -0.729268
vn 0.444866 0.882072 -0.155059
vn 0.501165 0.837939 -0.216085
vn -0.633404 0.764364 0.120611
vn -0.742194 0.121603 0.659061
vn -0.543910 0.507871 0.668003
vn -0.630297 0.764859 -0.133103
vn -0.742223 0.121403 -0.659065
vn -0.633404 0.764364 0.120611
vn -0.742194 0.121603 0.659061
vn -0.633404 0.764364 0.120611
vn -0.742223 0.121403 -0.659065
vn -0.545005 0.497035 -0.675223
vn -0.742223 0.121403 -0.659065
vn -0.630297 0.764859 -0.133103
vn -0.051579 0.114216 0.992116
vn 0.569604 0.267627 0.777128
vn -0.742194 0.121603 0.659061
vn 0.569604 0.267627 0.777128
vn 0.389206 0.586441 0.710356
vn -0.742194 0.121603 0.659061
vn 0.389206 0.586441 0.710356
vn -0.543910 0.507871 0.668003
vn -0.742194 0.121603 0.659061
vn -0.742223 0.121403 -0.659065
vn -0.545005 0.497035 -0.675223
vn -0.051672 0.114432 -0.992086
vn -0.545005 0.497035 -0.675223
vn 0.367424 0.577206 -0.729268
vn -0.051672 0.114432 -0.992086
vn -0.051672 0.114432 -0.992086
vn 0.367424 0.577206 -0.729268
vn 0.561103 0.263051 -0.784836
vn 0.500041 0.673327 0.544601
vn 0.569604 0.267627 0.777128
vn 0.029926 0.333103 0.942415
vn -0.051579 0.114216 0.992116
vn 0.029926 0.333103 0.942415
vn 0.569604 0.267627 0.777128
vn -0.051672 0.114432 -0.992086
vn 0.561103 0.263051 -0.784836
vn 0.022781 0.331948 -0.943023
vn 0.491400 0.649277 -0.580487
vn 0.022781 0.331948 -0.943023
vn 0.561103 0.263051 -0.784836
vn -0.048283 0.827642 0.559176
vn 0.500041 0.673327 0.544601
vn -0.083445 0.507042 0.857872
vn 0.029926 0.333103 0.942415
vn -0.083445 0.507042 0.857872
vn 0.500041 0.673327 0.544601
vn 0.491400 0.649277 -0.580487
vn -0.044346 0.814548 -0.578398
vn 0.022781 0.331948 -0.943023
vn -0.077217 0.507343 -0.858278
vn 0.022781 0.331948 -0.943023
vn -0.044346 0.814548 -0.578398
vn 0.000000 0.999944 -0.010608
vn 0.000000 0.999944 -0.010608
vn 0.000000 0.999944 -0.010608
vn -0.001082 0.999948 -0.010119
vn -0.001082 0.999948 -0.010119
vn -0.001082 0.999948 -0.010119
vn 0.000000 0.999882 -0.015336
vn 0.000000 0.999882 -0.015336
vn 0.000000 0.999882 -0.015336
vn 0.000000 0.999918 0.012824
vn 0.000000 0.999918 0.012824
vn 0.000000 0.999918 0.012824
vn -0.089383 0.995997 0.000000
vn -0.089383 0.995997 0.000000
vn -0.089383 0.995997 0.000000
vn -0.089383 0.995997 0.000000
vn -0.089383 0.995997 0.000000
vn -0.089383 0.995997 0.000000
vn -0.002189 0.999788 0.020459
vn -0.002189 0.999788 0.020459
vn -0.002189 0.999788 0.020459
vn 0.000000 0.999918 0.012824
vn 0.000000 0.999918 0.012824
vn 0.000000 0.999918 0.012824
o tile_boundary_tut_bot
o tile_boundary_tut_bot
usemtl PDX01_-_Default
f 1/1/1 2/2/2 3/3/3
f 4/4/4 5/5/5 6/6/6
f 7/7/7 8/8/8 9/9/9
f 10/10/10 11/11/11 12/12/12
f 13/13/13 14/14/14 15/15/15
f 16/16/16 17/17/17 18/18/18
f 19/19/19 20/20/20 21/21/21
f 22/22/22 23/23/23 24/24/24
f 25/25/25 26/26/26 27/27/27
f 28/28/28 29/29/29 30/30/30
f 31/31/31 32/32/32 33/33/33
f 34/34/34 35/35/35 36/36/36
f 37/37/37 38/38/38 39/39/39
f 40/40/40 41/41/41 42/42/42
f 43/43/43 44/44/44 45/45/45
f 46/46/46 47/47/47 48/48/48
f 49/49/49 50/50/50 51/51/51
f 52/52/52 53/53/53 54/54/54
f 55/55/55 56/56/56 57/57/57
f 58/58/58 59/59/59 60/60/60
f 61/61/61 62/62/62 63/63/63
f 64/64/64 65/65/65 66/66/66
f 67/67/67 68/68/68 69/69/69
f 70/70/70 71/71/71 72/72/72
f 73/73/73 74/74/74 75/75/75
f 76/76/76 77/77/77 78/78/78
f 79/79/79 80/80/80 81/81/81
f 82/82/82 83/83/83 84/84/84
f 85/85/85 86/86/86 87/87/87
f 88/88/88 89/89/89 90/90/90
f 91/91/91 92/92/92 93/93/93
f 94/94/94 95/95/95 96/96/96
f 97/97/97 98/98/98 99/99/99
f 100/100/100 101/101/101 102/102/102
f 103/103/103 104/104/104 105/105/105
f 106/106/106 107/107/107 108/108/108
f 109/109/109 110/110/110 111/111/111
f 112/112/112 113/113/113 114/114/114
f 115/115/115 116/116/116 117/117/117
f 118/118/118 119/119/119 120/120/120
f 121/121/121 122/122/122 123/123/123
f 124/124/124 125/125/125 126/126/126
f 127/127/127 128/128/128 129/129/129
f 130/130/130 131/131/131 132/132/132
f 133/133/133 134/134/134 135/135/135
f 136/136/136 137/137/137 138/138/138
f 139/139/139 140/140/140 141/141/141
f 142/142/142 143/143/143 144/144/144
f 145/145/145 146/146/146 147/147/147
f 148/148/148 149/149/149 150/150/150
f 151/151/151 152/152/152 153/153/153
f 154/154/154 155/155/155 156/156/156
f 157/157/157 158/158/158 159/159/159
f 160/160/160 161/161/161 162/162/162
f 163/163/163 164/164/164 165/165/165
f 166/166/166 167/167/167 168/168/168
f 169/169/169 170/170/170 171/171/171
f 172/172/172 173/173/173 174/174/174
f 175/175/175 176/176/176 177/177/177
f 178/178/178 179/179/179 180/180/180
f 181/181/181 182/182/182 183/183/183
f 184/184/184 185/185/185 186/186/186
f 187/187/187 188/188/188 189/189/189
f 190/190/190 191/191/191 192/192/192
