# Modified by OBJRotate180 (Mesh rotated 180 degrees around Y-axis)
# Original file: egy_tile_nw_corner_static.obj
mtllib ../Materials/egy_tile_nw_corner_static.mtl
v 0.499994 -0.200001 0.500007
v 0.500007 -0.200001 -0.499994
v 0.500001 -0.000001 0.333933
v 0.500000 -0.000001 -0.333934
v 0.500001 -0.000001 0.333933
v 0.500007 -0.200001 -0.499994
v 0.500001 -0.000001 0.333933
v 0.499996 0.144999 0.463134
v 0.499994 -0.200001 0.500007
v 0.499994 0.144999 0.500007
v 0.499994 -0.200001 0.500007
v 0.499996 0.144999 0.463134
v 0.500007 -0.200001 -0.499994
v 0.500007 0.144999 -0.499994
v 0.500000 -0.000001 -0.333934
v 0.500006 0.144999 -0.463223
v 0.500000 -0.000001 -0.333934
v 0.500007 0.144999 -0.499994
v -0.500007 -0.200000 0.499993
v 0.499994 -0.200001 0.500007
v -0.333932 0.000000 0.500001
v 0.333934 -0.000001 0.500000
v -0.333932 0.000000 0.500001
v 0.499994 -0.200001 0.500007
v 0.336073 -0.000001 0.336055
v 0.333934 -0.000001 0.500000
v 0.463846 0.144999 0.463133
v 0.463865 0.144999 0.500006
v 0.463846 0.144999 0.463133
v 0.333934 -0.000001 0.500000
v 0.499996 0.144999 0.463134
v 0.500001 -0.000001 0.333933
v 0.463846 0.144999 0.463133
v 0.336073 -0.000001 0.336055
v 0.463846 0.144999 0.463133
v 0.500001 -0.000001 0.333933
v 0.499996 0.144999 0.463134
v 0.463846 0.144999 0.463133
v 0.499994 0.144999 0.500007
v 0.463865 0.144999 0.500006
v 0.499994 0.144999 0.500007
v 0.463846 0.144999 0.463133
v 0.336073 -0.000001 0.336055
v -0.329731 0.000000 0.003140
v 0.333934 -0.000001 0.500000
v -0.333932 0.000000 0.500001
v 0.333934 -0.000001 0.500000
v -0.329731 0.000000 0.003140
v -0.463876 0.145000 0.499995
v -0.333932 0.000000 0.500001
v -0.463869 0.145000 -0.000017
v -0.329731 0.000000 0.003140
v -0.463869 0.145000 -0.000017
v -0.333932 0.000000 0.500001
v 0.003154 0.000000 -0.329737
v 0.500000 -0.000001 -0.333934
v -0.000011 0.145000 -0.465819
v 0.500006 0.144999 -0.463223
v -0.000011 0.145000 -0.465819
v 0.500000 -0.000001 -0.333934
v 0.500001 -0.000001 0.333933
v 0.500000 -0.000001 -0.333934
v 0.336073 -0.000001 0.336055
v 0.003154 0.000000 -0.329737
v 0.336073 -0.000001 0.336055
v 0.500000 -0.000001 -0.333934
v -0.329731 0.000000 0.003140
v 0.336073 -0.000001 0.336055
v -0.285639 0.000000 -0.163337
v -0.463869 0.145000 -0.000017
v -0.329731 0.000000 0.003140
v -0.392201 0.145000 -0.217423
v -0.285639 0.000000 -0.163337
v -0.392201 0.145000 -0.217423
v -0.329731 0.000000 0.003140
v -0.500006 0.145000 0.499994
v -0.463869 0.145000 -0.000017
v -0.499993 0.145000 -0.500007
v -0.463876 0.145000 0.499995
v -0.463869 0.145000 -0.000017
v -0.500006 0.145000 0.499994
v -0.000011 0.145000 -0.465819
v 0.500007 0.144999 -0.499994
v -0.499993 0.145000 -0.500007
v 0.500006 0.144999 -0.463223
v 0.500007 0.144999 -0.499994
v -0.000011 0.145000 -0.465819
v -0.463869 0.145000 -0.000017
v -0.392201 0.145000 -0.217423
v -0.499993 0.145000 -0.500007
v -0.499994 -0.200000 -0.500007
v -0.500007 -0.200000 0.499993
v -0.499993 0.145000 -0.500007
v -0.500006 0.145000 0.499994
v -0.499993 0.145000 -0.500007
v -0.500007 -0.200000 0.499993
v 0.500007 -0.200001 -0.499994
v -0.499994 -0.200000 -0.500007
v 0.500007 0.144999 -0.499994
v -0.499993 0.145000 -0.500007
v 0.500007 0.144999 -0.499994
v -0.499994 -0.200000 -0.500007
v 0.463865 0.144999 0.500006
v 0.333934 -0.000001 0.500000
v 0.499994 0.144999 0.500007
v 0.499994 -0.200001 0.500007
v 0.499994 0.144999 0.500007
v 0.333934 -0.000001 0.500000
v -0.500007 -0.200000 0.499993
v -0.333932 0.000000 0.500001
v -0.500006 0.145000 0.499994
v -0.463876 0.145000 0.499995
v -0.500006 0.145000 0.499994
v -0.333932 0.000000 0.500001
v -0.162707 0.000000 -0.286106
v 0.336073 -0.000001 0.336055
v 0.003154 0.000000 -0.329737
v -0.162707 0.000000 -0.286106
v 0.003154 0.000000 -0.329737
v -0.219935 0.145000 -0.387309
v -0.000011 0.145000 -0.465819
v -0.219935 0.145000 -0.387309
v 0.003154 0.000000 -0.329737
v -0.499993 0.145000 -0.500007
v -0.219935 0.145000 -0.387309
v -0.000011 0.145000 -0.465819
v -0.499993 0.145000 -0.500007
v -0.392201 0.145000 -0.217423
v -0.219935 0.145000 -0.387309
v -0.285639 0.000000 -0.163337
v -0.162707 0.000000 -0.286106
v -0.392201 0.145000 -0.217423
v -0.219935 0.145000 -0.387309
v -0.392201 0.145000 -0.217423
v -0.162707 0.000000 -0.286106
v -0.162707 0.000000 -0.286106
v -0.285639 0.000000 -0.163337
v 0.336073 -0.000001 0.336055
vt 0.118925 0.817342
vt 0.021816 0.817342
vt 0.104574 0.832845
vt 0.036167 0.832845
vt 0.104574 0.832845
vt 0.021816 0.817342
vt 0.104574 0.832845
vt 0.107837 0.840596
vt 0.118925 0.817342
vt 0.118925 0.840596
vt 0.118925 0.817342
vt 0.107837 0.840596
vt 0.021816 0.817342
vt 0.021816 0.840596
vt 0.036167 0.832845
vt 0.032904 0.840596
vt 0.036167 0.832845
vt 0.021816 0.840596
vt 0.020641 0.819111
vt 0.122078 0.819111
vt 0.035632 0.831032
vt 0.107088 0.831032
vt 0.035632 0.831032
vt 0.122078 0.819111
vt 0.069799 0.726811
vt 0.050866 0.726798
vt 0.069027 0.761944
vt 0.050866 0.761985
vt 0.069027 0.761944
vt 0.050866 0.726798
vt 0.090714 0.762058
vt 0.091940 0.726803
vt 0.069027 0.761944
vt 0.069799 0.726811
vt 0.069027 0.761944
vt 0.091940 0.726803
vt 0.436096 0.972352
vt 0.450740 0.957708
vt 0.451489 0.987745
vt 0.466130 0.973103
vt 0.451489 0.987745
vt 0.450740 0.957708
vt 0.178632 0.903040
vt 0.100093 0.943851
vt 0.178629 0.884411
vt 0.100093 0.884411
vt 0.178629 0.884411
vt 0.100093 0.943851
vt 0.314717 0.761520
vt 0.312135 0.726964
vt 0.207881 0.761311
vt 0.207969 0.727093
vt 0.207881 0.761311
vt 0.312135 0.726964
vt 0.088620 0.726989
vt 0.003900 0.726927
vt 0.091137 0.761272
vt 0.003934 0.761225
vt 0.091137 0.761272
vt 0.003900 0.726927
vt 0.196940 0.903040
vt 0.196940 0.986433
vt 0.178632 0.903040
vt 0.141299 0.986433
vt 0.178632 0.903040
vt 0.196940 0.986433
vt 0.100093 0.943851
vt 0.178632 0.903040
vt 0.103834 0.969753
vt 0.207881 0.761311
vt 0.207969 0.727093
vt 0.175656 0.761284
vt 0.173054 0.727000
vt 0.175656 0.761284
vt 0.207969 0.727093
vt 0.413116 0.835298
vt 0.422114 0.911802
vt 0.413116 0.986588
vt 0.422115 0.835298
vt 0.422114 0.911802
vt 0.413116 0.835298
vt 0.489077 0.977654
vt 0.567604 0.986588
vt 0.413116 0.986588
vt 0.567604 0.977654
vt 0.567604 0.986588
vt 0.489077 0.977654
vt 0.422114 0.911802
vt 0.436433 0.942424
vt 0.413116 0.986588
vt 0.028091 0.815955
vt 0.119616 0.815955
vt 0.028091 0.837872
vt 0.119616 0.837872
vt 0.028091 0.837872
vt 0.119616 0.815955
vt 0.117572 0.816909
vt 0.024180 0.816909
vt 0.117572 0.836882
vt 0.024180 0.836882
vt 0.117572 0.836882
vt 0.024180 0.816909
vt 0.110496 0.836993
vt 0.107088 0.831032
vt 0.122078 0.836993
vt 0.122078 0.819111
vt 0.122078 0.836993
vt 0.107088 0.831032
vt 0.020641 0.819111
vt 0.035632 0.831032
vt 0.020641 0.836993
vt 0.032224 0.836993
vt 0.020641 0.836993
vt 0.035632 0.831032
vt 0.119750 0.983765
vt 0.178632 0.903040
vt 0.141299 0.986433
vt 0.128457 0.727001
vt 0.088620 0.726989
vt 0.128625 0.761187
vt 0.091137 0.761272
vt 0.128625 0.761187
vt 0.088620 0.726989
vt 0.413116 0.986588
vt 0.458567 0.967809
vt 0.489077 0.977654
vt 0.413116 0.986588
vt 0.436433 0.942424
vt 0.458567 0.967809
vt 0.173054 0.727000
vt 0.128457 0.727001
vt 0.175656 0.761284
vt 0.128625 0.761187
vt 0.175656 0.761284
vt 0.128457 0.727001
vt 0.119750 0.983765
vt 0.103834 0.969753
vt 0.178632 0.903040
vn 1.000000 -0.000024 0.000013
vn 1.000000 -0.000024 0.000013
vn 1.000000 -0.000024 0.000013
vn 1.000000 0.000034 -0.000001
vn 1.000000 0.000034 -0.000001
vn 1.000000 0.000034 -0.000001
vn 1.000000 0.000000 0.000041
vn 1.000000 0.000000 0.000041
vn 1.000000 0.000000 0.000041
vn 1.000000 0.000000 0.000040
vn 1.000000 0.000000 0.000041
vn 1.000000 0.000000 0.000041
vn 1.000000 0.000000 0.000040
vn 1.000000 0.000000 0.000040
vn 1.000000 0.000000 0.000040
vn 1.000000 -0.000003 0.000037
vn 1.000000 0.000000 0.000040
vn 1.000000 0.000000 0.000040
vn -0.000014 -0.000024 1.000000
vn -0.000014 -0.000024 1.000000
vn -0.000014 -0.000024 1.000000
vn 0.000001 0.000033 1.000000
vn 0.000001 0.000033 1.000000
vn 0.000001 0.000033 1.000000
vn -0.745989 0.665888 -0.009736
vn -0.745989 0.665888 -0.009736
vn -0.745989 0.665888 -0.009736
vn -0.744746 0.667349 0.000390
vn -0.744746 0.667349 0.000390
vn -0.744746 0.667349 0.000390
vn 0.000041 0.665262 -0.746610
vn 0.000041 0.665262 -0.746610
vn 0.000041 0.665262 -0.746610
vn -0.009677 0.663879 -0.747778
vn -0.009677 0.663879 -0.747778
vn -0.009677 0.663879 -0.747778
vn 0.000001 1.000000 0.000000
vn 0.000001 1.000000 0.000000
vn 0.000001 1.000000 0.000000
vn 0.000002 1.000000 -0.000001
vn 0.000001 1.000000 0.000000
vn 0.000001 1.000000 0.000000
vn 0.000001 1.000000 0.000001
vn 0.000001 1.000000 0.000001
vn 0.000001 1.000000 0.000001
vn 0.000001 1.000000 0.000001
vn 0.000001 1.000000 0.000001
vn 0.000001 1.000000 0.000001
vn 0.744714 0.667383 0.000011
vn 0.742168 0.670213 0.001493
vn 0.729495 0.674562 0.113153
vn 0.735978 0.666611 0.118181
vn 0.729495 0.674562 0.113153
vn 0.742168 0.670213 0.001493
vn 0.123911 0.667393 0.734324
vn -0.001462 0.670098 0.742272
vn 0.119918 0.678400 0.724840
vn -0.003876 0.665509 0.746379
vn 0.119918 0.678400 0.724840
vn -0.001462 0.670098 0.742272
vn 0.000001 1.000000 0.000001
vn 0.000001 1.000000 0.000001
vn 0.000001 1.000000 0.000001
vn 0.000001 1.000000 0.000001
vn 0.000001 1.000000 0.000001
vn 0.000001 1.000000 0.000001
vn 0.000001 1.000000 0.000001
vn 0.000001 1.000000 0.000001
vn 0.000001 1.000000 0.000001
vn 0.729495 0.674562 0.113153
vn 0.735978 0.666611 0.118181
vn 0.658824 0.643246 0.390111
vn 0.666657 0.635325 0.389783
vn 0.658824 0.643246 0.390111
vn 0.735978 0.666611 0.118181
vn 0.000001 1.000000 0.000001
vn 0.000001 1.000000 0.000001
vn 0.000001 1.000000 0.000001
vn 0.000001 1.000000 0.000001
vn 0.000001 1.000000 0.000001
vn 0.000001 1.000000 0.000001
vn 0.000001 1.000000 0.000001
vn 0.000001 1.000000 0.000001
vn 0.000001 1.000000 0.000001
vn 0.000001 1.000000 0.000001
vn 0.000001 1.000000 0.000001
vn 0.000001 1.000000 0.000001
vn 0.000001 1.000000 0.000001
vn 0.000001 1.000000 0.000001
vn 0.000001 1.000000 0.000001
vn -1.000000 -0.000001 -0.000013
vn -1.000000 -0.000001 -0.000013
vn -1.000000 -0.000001 -0.000013
vn -1.000000 0.000000 -0.000013
vn -1.000000 -0.000001 -0.000013
vn -1.000000 -0.000001 -0.000013
vn 0.000014 0.000001 -1.000000
vn 0.000014 0.000001 -1.000000
vn 0.000014 0.000001 -1.000000
vn 0.000014 0.000001 -1.000000
vn 0.000014 0.000001 -1.000000
vn 0.000014 0.000001 -1.000000
vn -0.000040 -0.000002 1.000000
vn -0.000040 -0.000002 1.000000
vn -0.000040 -0.000002 1.000000
vn -0.000041 -0.000001 1.000000
vn -0.000040 -0.000002 1.000000
vn -0.000040 -0.000002 1.000000
vn -0.000041 -0.000001 1.000000
vn -0.000041 -0.000001 1.000000
vn -0.000041 -0.000001 1.000000
vn -0.000039 0.000002 1.000000
vn -0.000041 -0.000001 1.000000
vn -0.000041 -0.000001 1.000000
vn 0.000001 1.000000 0.000001
vn 0.000001 1.000000 0.000001
vn 0.000001 1.000000 0.000001
vn 0.386946 0.626617 0.676479
vn 0.123911 0.667393 0.734324
vn 0.395355 0.638304 0.660502
vn 0.119918 0.678400 0.724840
vn 0.395355 0.638304 0.660502
vn 0.123911 0.667393 0.734324
vn 0.000001 1.000000 0.000001
vn 0.000001 1.000000 0.000001
vn 0.000001 1.000000 0.000001
vn 0.000001 1.000000 0.000001
vn 0.000001 1.000000 0.000001
vn 0.000001 1.000000 0.000001
vn 0.666657 0.635325 0.389783
vn 0.386946 0.626617 0.676479
vn 0.658824 0.643246 0.390111
vn 0.395355 0.638304 0.660502
vn 0.658824 0.643246 0.390111
vn 0.386946 0.626617 0.676479
vn 0.000001 1.000000 0.000001
vn 0.000001 1.000000 0.000001
vn 0.000001 1.000000 0.000001
o tile_corner_static
o tile_corner_static
usemtl PDX01_-_Default
f 1/1/1 2/2/2 3/3/3
f 4/4/4 5/5/5 6/6/6
f 7/7/7 8/8/8 9/9/9
f 10/10/10 11/11/11 12/12/12
f 13/13/13 14/14/14 15/15/15
f 16/16/16 17/17/17 18/18/18
f 19/19/19 20/20/20 21/21/21
f 22/22/22 23/23/23 24/24/24
f 25/25/25 26/26/26 27/27/27
f 28/28/28 29/29/29 30/30/30
f 31/31/31 32/32/32 33/33/33
f 34/34/34 35/35/35 36/36/36
f 37/37/37 38/38/38 39/39/39
f 40/40/40 41/41/41 42/42/42
f 43/43/43 44/44/44 45/45/45
f 46/46/46 47/47/47 48/48/48
f 49/49/49 50/50/50 51/51/51
f 52/52/52 53/53/53 54/54/54
f 55/55/55 56/56/56 57/57/57
f 58/58/58 59/59/59 60/60/60
f 61/61/61 62/62/62 63/63/63
f 64/64/64 65/65/65 66/66/66
f 67/67/67 68/68/68 69/69/69
f 70/70/70 71/71/71 72/72/72
f 73/73/73 74/74/74 75/75/75
f 76/76/76 77/77/77 78/78/78
f 79/79/79 80/80/80 81/81/81
f 82/82/82 83/83/83 84/84/84
f 85/85/85 86/86/86 87/87/87
f 88/88/88 89/89/89 90/90/90
f 91/91/91 92/92/92 93/93/93
f 94/94/94 95/95/95 96/96/96
f 97/97/97 98/98/98 99/99/99
f 100/100/100 101/101/101 102/102/102
f 103/103/103 104/104/104 105/105/105
f 106/106/106 107/107/107 108/108/108
f 109/109/109 110/110/110 111/111/111
f 112/112/112 113/113/113 114/114/114
f 115/115/115 116/116/116 117/117/117
f 118/118/118 119/119/119 120/120/120
f 121/121/121 122/122/122 123/123/123
f 124/124/124 125/125/125 126/126/126
f 127/127/127 128/128/128 129/129/129
f 130/130/130 131/131/131 132/132/132
f 133/133/133 134/134/134 135/135/135
f 136/136/136 137/137/137 138/138/138
