# Modified by OBJRotate180 (Mesh rotated 180 degrees around Y-axis)
# Original file: jun_tile_slide.obj
mtllib ../Materials/jun_tile_slide.mtl
v 0.500000 -0.020176 0.500000
v 0.500000 -0.020176 -0.500000
v -0.500008 -0.020176 0.500000
v -0.500008 -0.020176 -0.500000
v -0.500008 -0.020176 0.500000
v 0.500000 -0.020176 -0.500000
vt 0.702951 0.986084
vt 0.702951 0.871270
vt 0.819822 0.986084
vt 0.819822 0.871270
vt 0.819822 0.986084
vt 0.702951 0.871270
vn 0.000000 1.000000 0.000000
vn 0.000000 1.000000 0.000000
vn 0.000000 1.000000 0.000000
vn 0.000000 1.000000 0.000000
vn 0.000000 1.000000 0.000000
vn 0.000000 1.000000 0.000000
o tile_slide
o tile_slide
usemtl PDX01_-_Default
f 1/1/1 2/2/2 3/3/3
f 4/4/4 5/5/5 6/6/6
