# Modified by OBJRotate180 (Mesh rotated 180 degrees around Y-axis)
# Original file: jun_tile_ns_static.obj
mtllib Materials/jun_tile_ns_static.mtl
v -0.500000 -0.200000 -0.500000
v -0.500000 -0.200000 0.500000
v -0.500008 0.195000 -0.500000
v -0.500008 0.195000 0.500000
v -0.500008 0.195000 -0.500000
v -0.500000 -0.200000 0.500000
v 0.500000 0.195000 -0.500000
v 0.500000 0.195000 0.500000
v 0.500000 -0.200000 -0.500000
v 0.500000 -0.200000 0.500000
v 0.500000 -0.200000 -0.500000
v 0.500000 0.195000 0.500000
v 0.333933 0.000000 0.500000
v 0.333933 0.000000 -0.500000
v -0.333933 0.000000 0.500000
v -0.333933 0.000000 -0.500000
v -0.333933 0.000000 0.500000
v 0.333933 0.000000 -0.500000
v -0.445247 0.145000 -0.500000
v -0.500000 -0.200000 -0.500000
v -0.500008 0.195000 -0.500000
v 0.500000 -0.200000 -0.500000
v -0.500000 -0.200000 -0.500000
v 0.333933 0.000000 -0.500000
v -0.333933 0.000000 -0.500000
v 0.333933 0.000000 -0.500000
v -0.500000 -0.200000 -0.500000
v 0.445239 0.145000 -0.500000
v 0.500000 -0.200000 -0.500000
v 0.333933 0.000000 -0.500000
v -0.445247 0.145000 0.500000
v -0.500000 -0.200000 0.500000
v -0.333933 0.000000 0.500000
v 0.445239 0.145000 0.500000
v 0.500000 -0.200000 0.500000
v 0.500000 0.195000 0.500000
v -0.500000 -0.200000 0.500000
v 0.500000 -0.200000 0.500000
v -0.333933 0.000000 0.500000
v 0.333933 0.000000 0.500000
v -0.333933 0.000000 0.500000
v 0.500000 -0.200000 0.500000
v -0.500000 -0.200000 0.500000
v -0.445247 0.145000 0.500000
v -0.500008 0.195000 0.500000
v -0.333933 0.000000 -0.500000
v -0.445247 0.145000 -0.500000
v -0.333933 0.000000 0.500000
v -0.445247 0.145000 0.500000
v -0.333933 0.000000 0.500000
v -0.445247 0.145000 -0.500000
v -0.500000 -0.200000 -0.500000
v -0.445247 0.145000 -0.500000
v -0.333933 0.000000 -0.500000
v 0.500000 -0.200000 -0.500000
v 0.445239 0.145000 -0.500000
v 0.500000 0.195000 -0.500000
v 0.333933 0.000000 0.500000
v 0.445239 0.145000 0.500000
v 0.333933 0.000000 -0.500000
v 0.445239 0.145000 -0.500000
v 0.333933 0.000000 -0.500000
v 0.445239 0.145000 0.500000
v 0.500000 -0.200000 0.500000
v 0.445239 0.145000 0.500000
v 0.333933 0.000000 0.500000
v 0.445239 0.195000 -0.500000
v 0.445239 0.195000 0.500000
v 0.500000 0.195000 -0.500000
v 0.445239 0.195000 0.500000
v 0.500000 0.195000 0.500000
v 0.500000 0.195000 -0.500000
v -0.445247 0.195000 0.500000
v -0.445247 0.195000 -0.500000
v -0.500008 0.195000 -0.500000
v -0.500008 0.195000 0.500000
v -0.445247 0.195000 0.500000
v -0.500008 0.195000 -0.500000
v -0.445247 0.145000 0.500000
v -0.445247 0.195000 0.500000
v -0.500008 0.195000 0.500000
v -0.445247 0.145000 -0.500000
v -0.445247 0.195000 -0.500000
v -0.445247 0.145000 0.500000
v -0.445247 0.195000 0.500000
v -0.445247 0.145000 0.500000
v -0.445247 0.195000 -0.500000
v -0.445247 0.195000 -0.500000
v -0.445247 0.145000 -0.500000
v -0.500008 0.195000 -0.500000
v 0.445239 0.145000 -0.500000
v 0.445239 0.195000 -0.500000
v 0.500000 0.195000 -0.500000
v 0.445239 0.145000 0.500000
v 0.445239 0.195000 0.500000
v 0.445239 0.145000 -0.500000
v 0.445239 0.195000 -0.500000
v 0.445239 0.145000 -0.500000
v 0.445239 0.195000 0.500000
v 0.445239 0.195000 0.500000
v 0.445239 0.145000 0.500000
v 0.500000 0.195000 0.500000
vt 0.143101 0.708540
vt 0.263895 0.708540
vt 0.143101 0.753816
vt 0.263895 0.753816
vt 0.143101 0.753816
vt 0.263895 0.708540
vt 0.143101 0.753816
vt 0.263895 0.753816
vt 0.143101 0.708540
vt 0.263895 0.708540
vt 0.143101 0.708540
vt 0.263895 0.753816
vt 0.876836 0.987404
vt 0.876836 0.864701
vt 0.955557 0.987404
vt 0.955557 0.864701
vt 0.955557 0.987404
vt 0.876836 0.864701
vt 0.251013 0.747446
vt 0.256685 0.710360
vt 0.256686 0.747446
vt 0.153082 0.710360
vt 0.256685 0.710360
vt 0.170287 0.731859
vt 0.239480 0.731859
vt 0.170287 0.731859
vt 0.256685 0.710360
vt 0.158756 0.747446
vt 0.153082 0.710360
vt 0.170287 0.731859
vt 0.251013 0.747446
vt 0.256685 0.710360
vt 0.239480 0.731859
vt 0.158756 0.747446
vt 0.153082 0.710360
vt 0.153082 0.747446
vt 0.256685 0.710360
vt 0.153082 0.710360
vt 0.239480 0.731859
vt 0.170287 0.731859
vt 0.239480 0.731859
vt 0.153082 0.710360
vt 0.256685 0.710360
vt 0.251013 0.747446
vt 0.256686 0.747446
vt 0.086482 0.774387
vt 0.086483 0.823853
vt 0.250192 0.774387
vt 0.250192 0.823853
vt 0.250192 0.774387
vt 0.086483 0.823853
vt 0.256685 0.710360
vt 0.251013 0.747446
vt 0.239480 0.731859
vt 0.153082 0.710360
vt 0.158756 0.747446
vt 0.153082 0.747446
vt 0.086482 0.774418
vt 0.086482 0.823826
vt 0.252339 0.774418
vt 0.252339 0.823826
vt 0.252339 0.774418
vt 0.086482 0.823826
vt 0.153082 0.710360
vt 0.158756 0.747446
vt 0.170287 0.731859
vt 0.366405 0.867486
vt 0.366330 0.981536
vt 0.355046 0.867486
vt 0.366330 0.981536
vt 0.355031 0.981536
vt 0.355046 0.867486
vt 0.366330 0.981536
vt 0.366405 0.867486
vt 0.355046 0.867486
vt 0.355031 0.981536
vt 0.366330 0.981536
vt 0.355046 0.867486
vt 0.251013 0.747446
vt 0.251013 0.752821
vt 0.256686 0.747446
vt 0.018530 0.825852
vt 0.018530 0.846144
vt 0.213528 0.825852
vt 0.213528 0.846144
vt 0.213528 0.825852
vt 0.018530 0.846144
vt 0.251013 0.752821
vt 0.251013 0.747446
vt 0.256686 0.752821
vt 0.158756 0.747446
vt 0.158756 0.752821
vt 0.153082 0.747446
vt 0.213528 0.825851
vt 0.213528 0.846143
vt 0.018530 0.825851
vt 0.018530 0.846143
vt 0.018530 0.825851
vt 0.213528 0.846143
vt 0.158756 0.752821
vt 0.158756 0.747446
vt 0.153082 0.752821
vn -1.000000 -0.000019 0.000000
vn -1.000000 -0.000019 0.000000
vn -1.000000 -0.000019 0.000000
vn -1.000000 -0.000019 0.000000
vn -1.000000 -0.000019 0.000000
vn -1.000000 -0.000019 0.000000
vn 1.000000 0.000000 0.000000
vn 1.000000 0.000000 0.000000
vn 1.000000 0.000000 0.000000
vn 1.000000 0.000000 0.000000
vn 1.000000 0.000000 0.000000
vn 1.000000 0.000000 0.000000
vn 0.000000 1.000000 0.000000
vn 0.000000 1.000000 0.000000
vn 0.000000 1.000000 0.000000
vn 0.000000 1.000000 0.000000
vn 0.000000 1.000000 0.000000
vn 0.000000 1.000000 0.000000
vn 0.000000 0.000000 -1.000000
vn 0.000000 0.000000 -1.000000
vn 0.000000 0.000000 -1.000000
vn 0.000000 0.000000 -1.000000
vn 0.000000 0.000000 -1.000000
vn 0.000000 0.000000 -1.000000
vn 0.000000 0.000000 -1.000000
vn 0.000000 0.000000 -1.000000
vn 0.000000 0.000000 -1.000000
vn 0.000000 0.000000 -1.000000
vn 0.000000 0.000000 -1.000000
vn 0.000000 0.000000 -1.000000
vn 0.000000 0.000000 1.000000
vn 0.000000 0.000000 1.000000
vn 0.000000 0.000000 1.000000
vn 0.000000 0.000000 1.000000
vn 0.000000 0.000000 1.000000
vn 0.000000 0.000000 1.000000
vn 0.000000 0.000000 1.000000
vn 0.000000 0.000000 1.000000
vn 0.000000 0.000000 1.000000
vn 0.000000 0.000000 1.000000
vn 0.000000 0.000000 1.000000
vn 0.000000 0.000000 1.000000
vn 0.000000 0.000000 1.000000
vn 0.000000 0.000000 1.000000
vn -0.000001 0.000000 1.000000
vn 0.793218 0.608938 0.000000
vn 0.793218 0.608938 0.000000
vn 0.793218 0.608938 0.000000
vn 0.793218 0.608938 0.000000
vn 0.793218 0.608938 0.000000
vn 0.793218 0.608938 0.000000
vn 0.000000 0.000000 -1.000000
vn 0.000000 0.000000 -1.000000
vn 0.000000 0.000000 -1.000000
vn 0.000000 0.000000 -1.000000
vn 0.000000 0.000000 -1.000000
vn -0.000001 0.000000 -1.000000
vn -0.793237 0.608913 0.000000
vn -0.793237 0.608913 0.000000
vn -0.793237 0.608913 0.000000
vn -0.793238 0.608912 0.000000
vn -0.793237 0.608913 0.000000
vn -0.793237 0.608913 0.000000
vn 0.000000 0.000000 1.000000
vn 0.000000 0.000000 1.000000
vn 0.000000 0.000000 1.000000
vn -0.707107 0.707107 0.000000
vn -0.707107 0.707107 0.000000
vn 0.000000 1.000000 0.000000
vn -0.707107 0.707107 0.000000
vn 0.000000 1.000000 0.000000
vn 0.000000 1.000000 0.000000
vn 0.707107 0.707107 0.000000
vn 0.707107 0.707107 0.000000
vn 0.000000 1.000000 0.000000
vn 0.000000 1.000000 0.000000
vn 0.707107 0.707107 0.000000
vn 0.000000 1.000000 0.000000
vn 0.000000 0.000000 1.000000
vn -0.000001 0.000000 1.000000
vn -0.000001 0.000000 1.000000
vn 1.000000 0.000000 0.000000
vn 0.707107 0.707107 0.000000
vn 1.000000 0.000000 0.000000
vn 0.707107 0.707107 0.000000
vn 1.000000 0.000000 0.000000
vn 0.707107 0.707107 0.000000
vn 0.000000 0.000000 -1.000000
vn 0.000000 0.000000 -1.000000
vn 0.000000 0.000000 -1.000000
vn 0.000000 0.000000 -1.000000
vn -0.000001 0.000000 -1.000000
vn -0.000001 0.000000 -1.000000
vn -1.000000 0.000000 0.000000
vn -0.707107 0.707107 0.000000
vn -1.000000 0.000000 0.000000
vn -0.707107 0.707107 0.000000
vn -1.000000 0.000000 0.000000
vn -0.707107 0.707107 0.000000
vn 0.000000 0.000000 1.000000
vn 0.000000 0.000000 1.000000
vn 0.000000 0.000000 1.000000
o tile_straight_static_new
o tile_straight_static_new
usemtl PDX01_-_Default
f 1/1/1 2/2/2 3/3/3
f 4/4/4 5/5/5 6/6/6
f 7/7/7 8/8/8 9/9/9
f 10/10/10 11/11/11 12/12/12
f 13/13/13 14/14/14 15/15/15
f 16/16/16 17/17/17 18/18/18
f 19/19/19 20/20/20 21/21/21
f 22/22/22 23/23/23 24/24/24
f 25/25/25 26/26/26 27/27/27
f 28/28/28 29/29/29 30/30/30
f 31/31/31 32/32/32 33/33/33
f 34/34/34 35/35/35 36/36/36
f 37/37/37 38/38/38 39/39/39
f 40/40/40 41/41/41 42/42/42
f 43/43/43 44/44/44 45/45/45
f 46/46/46 47/47/47 48/48/48
f 49/49/49 50/50/50 51/51/51
f 52/52/52 53/53/53 54/54/54
f 55/55/55 56/56/56 57/57/57
f 58/58/58 59/59/59 60/60/60
f 61/61/61 62/62/62 63/63/63
f 64/64/64 65/65/65 66/66/66
f 67/67/67 68/68/68 69/69/69
f 70/70/70 71/71/71 72/72/72
f 73/73/73 74/74/74 75/75/75
f 76/76/76 77/77/77 78/78/78
f 79/79/79 80/80/80 81/81/81
f 82/82/82 83/83/83 84/84/84
f 85/85/85 86/86/86 87/87/87
f 88/88/88 89/89/89 90/90/90
f 91/91/91 92/92/92 93/93/93
f 94/94/94 95/95/95 96/96/96
f 97/97/97 98/98/98 99/99/99
f 100/100/100 101/101/101 102/102/102
