mtllib jun_tile_slide.mtl
o tile_slide
usemtl PDX01_-_Default
v -0.5 -0.020176000893115775 -0.5
v -0.5 -0.020176000893115997 0.5
v 0.5000079870223999 -0.020176000893115775 -0.5
v 0.5000079870223999 -0.020176000893115997 0.5
v 0.5000079870223999 -0.020176000893115775 -0.5
v -0.5 -0.020176000893115997 0.5
vt 0.7029510140419006 0.986083984375
vt 0.7029510140419006 0.8712700009346008
vt 0.8198220133781433 0.986083984375
vt 0.8198220133781433 0.8712700009346008
vt 0.8198220133781433 0.986083984375
vt 0.7029510140419006 0.8712700009346008
vn 0 1 2.220446049250313e-16
vn 0 1 2.220446049250313e-16
vn 0 1 2.220446049250313e-16
vn 0 1 2.220446049250313e-16
vn 0 1 2.220446049250313e-16
vn 0 1 2.220446049250313e-16
f 1/1/1 2/2/2 3/3/3
f 4/4/4 5/5/5 6/6/6
