# OBJClean Brute-Force Test
# Tolerance: 0.001000
# Original verts: 288 → after: 42
v -0.000002 0.195000 1.000004
v -1.000002 0.195000 1.000004
v -0.000002 -0.200000 1.000004
v -1.000002 -0.200000 1.000004
v -0.888891 0.195000 0.555556
v -1.000002 0.195000 -0.000004
v -1.000002 -0.200000 0.000004
v -0.555558 0.195000 0.888892
v -0.742352 0.195000 0.723248
v -0.000002 0.072930 -0.000004
v -0.444446 0.072930 0.000004
v -0.333335 0.072930 0.333332
v -0.444446 0.072930 0.444444
v 0.000002 0.072930 0.444444
v -0.000002 -0.200000 0.000004
v 1.000004 0.195000 0.000002
v 1.000004 0.195000 1.000002
v 1.000004 -0.200000 0.000002
v 1.000004 -0.200000 1.000002
v 0.555556 0.195000 0.888891
v 0.888892 0.195000 0.555558
v 0.723248 0.195000 0.742352
v 0.333332 0.072930 0.333335
v 0.444444 0.072930 0.444446
v 0.444444 0.072930 -0.000002
v -1.000004 0.195000 -1.000002
v -1.000004 -0.200000 -1.000002
v -0.555556 0.195000 -0.888891
v 0.000004 0.195000 -1.000002
v -0.000004 -0.200000 -1.000002
v -0.888892 0.195000 -0.555558
v -0.723248 0.195000 -0.742352
v -0.000004 0.072930 -0.444446
v -0.333332 0.072930 -0.333335
v -0.444444 0.072930 -0.444446
v 1.000002 0.195000 -1.000004
v 1.000002 -0.200000 -1.000004
v 0.888891 0.195000 -0.555556
v 0.555558 0.195000 -0.888892
v 0.742352 0.195000 -0.723248
v 0.333335 0.072930 -0.333332
v 0.444446 0.072930 -0.444444
vt 0.308872 0.987717
vt 0.019450 0.987717
vt 0.308872 0.912915
vt 0.019450 0.912915
vt 0.308872 0.912915
vt 0.019450 0.987717
vt 0.992112 0.992349
vt 0.937424 0.773598
vt 0.992112 0.500159
vt 0.308846 0.912928
vt 0.019311 0.912928
vt 0.308862 0.987445
vt 0.019294 0.987445
vt 0.308862 0.987445
vt 0.019311 0.912928
vt 0.992112 0.992349
vt 0.773361 0.937662
vt 0.865300 0.856134
vt 0.499923 0.500159
vt 0.718674 0.500162
vt 0.663986 0.664222
vt 0.663986 0.664222
vt 0.718674 0.718910
vt 0.499923 0.992349
vt 0.992112 0.992349
vt 0.865300 0.856134
vt 0.937424 0.773598
vt 0.937424 0.773598
vt 0.865300 0.856134
vt 0.718674 0.718910
vt 0.499923 0.500159
vt 0.663986 0.664222
vt 0.499921 0.718910
vt 0.499921 0.718910
vt 0.663986 0.664222
vt 0.499923 0.992349
vt 0.992112 0.992349
vt 0.499923 0.992349
vt 0.773361 0.937662
vt 0.773361 0.937662
vt 0.499923 0.992349
vt 0.718674 0.718910
vt 0.865300 0.856134
vt 0.773361 0.937662
vt 0.718674 0.718910
vt 0.718674 0.500162
vt 0.992112 0.500159
vt 0.663986 0.664222
vt 0.663986 0.664222
vt 0.992112 0.500159
vt 0.718674 0.718910
vt 0.718674 0.718910
vt 0.992112 0.500159
vt 0.937424 0.773598
vt 0.121614 0.990198
vt 0.198666 1.045916
vt 0.198667 0.990198
vt 0.121614 0.990198
vt 0.025297 0.965279
vt 0.198666 1.045916
vt 0.025297 0.965279
vt 0.025297 1.045916
vt 0.198666 1.045916
vt 0.101173 0.962009
vt 0.020148 1.027347
vt 0.199391 0.936848
vt 0.020148 1.027347
vt 0.194629 1.019408
vt 0.199391 0.936848
vt 0.018844 0.958544
vt 0.020148 1.027347
vt 0.101173 0.962009
vt 0.308872 0.987717
vt 0.019450 0.987717
vt 0.308872 0.912915
vt 0.019450 0.912915
vt 0.308872 0.912915
vt 0.019450 0.987717
vt 0.007993 0.992155
vt 0.226744 0.937467
vt 0.500183 0.992155
vt 0.308846 0.912928
vt 0.019311 0.912928
vt 0.308862 0.987445
vt 0.019294 0.987445
vt 0.308862 0.987445
vt 0.019311 0.912928
vt 0.007993 0.992155
vt 0.062681 0.773405
vt 0.144208 0.865343
vt 0.500183 0.499966
vt 0.500180 0.718717
vt 0.336120 0.664029
vt 0.336120 0.664029
vt 0.281432 0.718717
vt 0.007993 0.499966
vt 0.007993 0.992155
vt 0.144208 0.865343
vt 0.226744 0.937467
vt 0.226744 0.937467
vt 0.144208 0.865343
vt 0.281432 0.718717
vt 0.500183 0.499966
vt 0.336120 0.664029
vt 0.281432 0.499964
vt 0.281432 0.499964
vt 0.336120 0.664029
vt 0.007993 0.499966
vt 0.007993 0.992155
vt 0.007993 0.499966
vt 0.062681 0.773405
vt 0.062681 0.773405
vt 0.007993 0.499966
vt 0.281432 0.718717
vt 0.144208 0.865343
vt 0.062681 0.773405
vt 0.281432 0.718717
vt 0.500180 0.718717
vt 0.500183 0.992155
vt 0.336120 0.664029
vt 0.336120 0.664029
vt 0.500183 0.992155
vt 0.281432 0.718717
vt 0.281432 0.718717
vt 0.500183 0.992155
vt 0.226744 0.937467
vt 0.121614 0.990198
vt 0.198666 1.045916
vt 0.198667 0.990198
vt 0.121614 0.990198
vt 0.025297 0.965279
vt 0.198666 1.045916
vt 0.025297 0.965279
vt 0.025297 1.045916
vt 0.198666 1.045916
vt 0.101173 0.962009
vt 0.020148 1.027347
vt 0.199391 0.936848
vt 0.020148 1.027347
vt 0.194629 1.019408
vt 0.199391 0.936848
vt 0.018844 0.958544
vt 0.020148 1.027347
vt 0.101173 0.962009
vt 0.308872 0.987717
vt 0.019450 0.987717
vt 0.308872 0.912915
vt 0.019450 0.912915
vt 0.308872 0.912915
vt 0.019450 0.987717
vt 0.992249 0.007921
vt 0.773498 0.062608
vt 0.500059 0.007921
vt 0.308846 0.912928
vt 0.019311 0.912928
vt 0.308862 0.987445
vt 0.019294 0.987445
vt 0.308862 0.987445
vt 0.019311 0.912928
vt 0.992249 0.007921
vt 0.937561 0.226671
vt 0.856033 0.134733
vt 0.500059 0.500110
vt 0.500062 0.281359
vt 0.664122 0.336047
vt 0.664122 0.336047
vt 0.718810 0.281359
vt 0.992249 0.500110
vt 0.992249 0.007921
vt 0.856033 0.134733
vt 0.773498 0.062608
vt 0.773498 0.062608
vt 0.856033 0.134733
vt 0.718810 0.281359
vt 0.500059 0.500110
vt 0.664122 0.336047
vt 0.718810 0.500111
vt 0.718810 0.500111
vt 0.664122 0.336047
vt 0.992249 0.500110
vt 0.992249 0.007921
vt 0.992249 0.500110
vt 0.937561 0.226671
vt 0.937561 0.226671
vt 0.992249 0.500110
vt 0.718810 0.281359
vt 0.856033 0.134733
vt 0.937561 0.226671
vt 0.718810 0.281359
vt 0.500062 0.281359
vt 0.500059 0.007921
vt 0.664122 0.336047
vt 0.664122 0.336047
vt 0.500059 0.007921
vt 0.718810 0.281359
vt 0.718810 0.281359
vt 0.500059 0.007921
vt 0.773498 0.062608
vt 0.121614 0.990198
vt 0.198666 1.045916
vt 0.198667 0.990198
vt 0.121614 0.990198
vt 0.025297 0.965279
vt 0.198666 1.045916
vt 0.025297 0.965279
vt 0.025297 1.045916
vt 0.198666 1.045916
vt 0.101173 0.962009
vt 0.020148 1.027347
vt 0.199391 0.936848
vt 0.020148 1.027347
vt 0.194629 1.019408
vt 0.199391 0.936848
vt 0.018844 0.958544
vt 0.020148 1.027347
vt 0.101173 0.962009
vt 0.308872 0.987717
vt 0.019450 0.987717
vt 0.308872 0.912915
vt 0.019450 0.912915
vt 0.308872 0.912915
vt 0.019450 0.987717
vt 0.007694 0.007542
vt 0.062381 0.226294
vt 0.007694 0.499733
vt 0.308846 0.912928
vt 0.019311 0.912928
vt 0.308862 0.987445
vt 0.019294 0.987445
vt 0.308862 0.987445
vt 0.019311 0.912928
vt 0.007694 0.007542
vt 0.226444 0.062230
vt 0.134506 0.143758
vt 0.499882 0.499733
vt 0.281132 0.499729
vt 0.335819 0.335669
vt 0.335819 0.335669
vt 0.281132 0.280982
vt 0.499882 0.007542
vt 0.007694 0.007542
vt 0.134506 0.143758
vt 0.062381 0.226294
vt 0.062381 0.226294
vt 0.134506 0.143758
vt 0.281132 0.280982
vt 0.499882 0.499733
vt 0.335819 0.335669
vt 0.499884 0.280982
vt 0.499884 0.280982
vt 0.335819 0.335669
vt 0.499882 0.007542
vt 0.007694 0.007542
vt 0.499882 0.007542
vt 0.226444 0.062230
vt 0.226444 0.062230
vt 0.499882 0.007542
vt 0.281132 0.280982
vt 0.134506 0.143758
vt 0.226444 0.062230
vt 0.281132 0.280982
vt 0.281132 0.499729
vt 0.007694 0.499733
vt 0.335819 0.335669
vt 0.335819 0.335669
vt 0.007694 0.499733
vt 0.281132 0.280982
vt 0.281132 0.280982
vt 0.007694 0.499733
vt 0.062381 0.226294
vt 0.121614 0.990198
vt 0.198666 1.045916
vt 0.198667 0.990198
vt 0.121614 0.990198
vt 0.025297 0.965279
vt 0.198666 1.045916
vt 0.025297 0.965279
vt 0.025297 1.045916
vt 0.198666 1.045916
vt 0.101173 0.962009
vt 0.020148 1.027347
vt 0.199391 0.936848
vt 0.020148 1.027347
vt 0.194629 1.019408
vt 0.199391 0.936848
vt 0.018844 0.958544
vt 0.020148 1.027347
vt 0.101173 0.962009
vn 0.000000 0.000000 1.000000
vn 0.000000 0.000000 1.000000
vn 0.000000 0.000000 1.000000
vn 0.000000 0.000000 1.000000
vn 0.000000 0.000000 1.000000
vn 0.000000 0.000000 1.000000
vn 0.000000 1.000000 0.000000
vn 0.100310 0.993890 -0.046051
vn 0.193537 0.980696 -0.027893
vn -1.000000 0.000000 0.000000
vn -1.000000 0.000000 0.000000
vn -1.000000 0.000000 0.000000
vn -1.000000 0.000000 0.000000
vn -1.000000 0.000000 0.000000
vn -1.000000 0.000000 0.000000
vn 0.000000 1.000000 0.000000
vn 0.046234 0.993917 -0.099954
vn 0.098853 0.990272 -0.097924
vn 0.000000 1.000000 0.000000
vn 0.129546 0.990633 -0.043183
vn 0.036470 0.998669 -0.036470
vn 0.036470 0.998669 -0.036470
vn 0.079546 0.993650 -0.079570
vn 0.027893 0.980697 -0.193535
vn 0.000000 1.000000 0.000000
vn 0.098853 0.990272 -0.097924
vn 0.100310 0.993890 -0.046051
vn 0.100310 0.993890 -0.046051
vn 0.098853 0.990272 -0.097924
vn 0.079546 0.993650 -0.079570
vn 0.000000 1.000000 0.000000
vn 0.036470 0.998669 -0.036470
vn 0.043181 0.990633 -0.129545
vn 0.043181 0.990633 -0.129545
vn 0.036470 0.998669 -0.036470
vn 0.027893 0.980697 -0.193535
vn 0.000000 1.000000 0.000000
vn 0.027893 0.980697 -0.193535
vn 0.046234 0.993917 -0.099954
vn 0.046234 0.993917 -0.099954
vn 0.027893 0.980697 -0.193535
vn 0.079546 0.993650 -0.079570
vn 0.098853 0.990272 -0.097924
vn 0.046234 0.993917 -0.099954
vn 0.079546 0.993650 -0.079570
vn 0.129546 0.990633 -0.043183
vn 0.193537 0.980696 -0.027893
vn 0.036470 0.998669 -0.036470
vn 0.036470 0.998669 -0.036470
vn 0.193537 0.980696 -0.027893
vn 0.079546 0.993650 -0.079570
vn 0.079546 0.993650 -0.079570
vn 0.193537 0.980696 -0.027893
vn 0.100310 0.993890 -0.046051
vn 1.000000 0.000000 -0.000008
vn 1.000000 0.000000 -0.000008
vn 1.000000 0.000000 -0.000008
vn 1.000000 -0.000039 0.000016
vn 1.000000 -0.000039 0.000016
vn 1.000000 -0.000039 0.000016
vn 1.000000 0.000000 0.000000
vn 1.000000 0.000000 0.000000
vn 1.000000 0.000000 -0.000008
vn 0.000020 0.000031 -1.000000
vn 0.000020 0.000031 -1.000000
vn 0.000020 0.000031 -1.000000
vn 0.000000 -0.000019 -1.000000
vn 0.000000 -0.000019 -1.000000
vn 0.000000 -0.000019 -1.000000
vn -0.000016 -0.000028 -1.000000
vn -0.000016 -0.000028 -1.000000
vn -0.000016 -0.000028 -1.000000
vn 1.000000 0.000000 0.000000
vn 1.000000 0.000000 0.000000
vn 1.000000 0.000000 0.000000
vn 1.000000 0.000000 0.000000
vn 1.000000 0.000000 0.000000
vn 1.000000 0.000000 0.000000
vn 0.000000 1.000000 0.000000
vn -0.046051 0.993890 -0.100310
vn -0.027893 0.980696 -0.193537
vn 0.000000 0.000000 1.000000
vn 0.000000 0.000000 1.000000
vn 0.000000 0.000000 1.000000
vn 0.000000 0.000000 1.000000
vn 0.000000 0.000000 1.000000
vn 0.000000 0.000000 1.000000
vn 0.000000 1.000000 0.000000
vn -0.099954 0.993917 -0.046234
vn -0.097924 0.990272 -0.098853
vn 0.000000 1.000000 0.000000
vn -0.043183 0.990633 -0.129546
vn -0.036470 0.998669 -0.036470
vn -0.036470 0.998669 -0.036470
vn -0.079570 0.993650 -0.079546
vn -0.193535 0.980697 -0.027893
vn 0.000000 1.000000 0.000000
vn -0.097924 0.990272 -0.098853
vn -0.046051 0.993890 -0.100310
vn -0.046051 0.993890 -0.100310
vn -0.097924 0.990272 -0.098853
vn -0.079570 0.993650 -0.079546
vn 0.000000 1.000000 0.000000
vn -0.036470 0.998669 -0.036470
vn -0.129545 0.990633 -0.043181
vn -0.129545 0.990633 -0.043181
vn -0.036470 0.998669 -0.036470
vn -0.193535 0.980697 -0.027893
vn 0.000000 1.000000 0.000000
vn -0.193535 0.980697 -0.027893
vn -0.099954 0.993917 -0.046234
vn -0.099954 0.993917 -0.046234
vn -0.193535 0.980697 -0.027893
vn -0.079570 0.993650 -0.079546
vn -0.097924 0.990272 -0.098853
vn -0.099954 0.993917 -0.046234
vn -0.079570 0.993650 -0.079546
vn -0.043183 0.990633 -0.129546
vn -0.027893 0.980696 -0.193537
vn -0.036470 0.998669 -0.036470
vn -0.036470 0.998669 -0.036470
vn -0.027893 0.980696 -0.193537
vn -0.079570 0.993650 -0.079546
vn -0.079570 0.993650 -0.079546
vn -0.027893 0.980696 -0.193537
vn -0.046051 0.993890 -0.100310
vn -0.000008 0.000000 -1.000000
vn -0.000008 0.000000 -1.000000
vn -0.000008 0.000000 -1.000000
vn 0.000016 -0.000039 -1.000000
vn 0.000016 -0.000039 -1.000000
vn 0.000016 -0.000039 -1.000000
vn 0.000000 0.000000 -1.000000
vn 0.000000 0.000000 -1.000000
vn -0.000008 0.000000 -1.000000
vn -1.000000 0.000031 -0.000020
vn -1.000000 0.000031 -0.000020
vn -1.000000 0.000031 -0.000020
vn -1.000000 -0.000019 0.000000
vn -1.000000 -0.000019 0.000000
vn -1.000000 -0.000019 0.000000
vn -1.000000 -0.000028 0.000016
vn -1.000000 -0.000028 0.000016
vn -1.000000 -0.000028 0.000016
vn -1.000000 0.000000 0.000000
vn -1.000000 0.000000 0.000000
vn -1.000000 0.000000 0.000000
vn -1.000000 0.000000 0.000000
vn -1.000000 0.000000 0.000000
vn -1.000000 0.000000 0.000000
vn 0.000000 1.000000 0.000000
vn 0.046051 0.993890 0.100310
vn 0.027893 0.980696 0.193537
vn 0.000000 0.000000 -1.000000
vn 0.000000 0.000000 -1.000000
vn 0.000000 0.000000 -1.000000
vn 0.000000 0.000000 -1.000000
vn 0.000000 0.000000 -1.000000
vn 0.000000 0.000000 -1.000000
vn 0.000000 1.000000 0.000000
vn 0.099954 0.993917 0.046234
vn 0.097924 0.990272 0.098853
vn 0.000000 1.000000 0.000000
vn 0.043183 0.990633 0.129546
vn 0.036470 0.998669 0.036470
vn 0.036470 0.998669 0.036470
vn 0.079570 0.993650 0.079546
vn 0.193535 0.980697 0.027893
vn 0.000000 1.000000 0.000000
vn 0.097924 0.990272 0.098853
vn 0.046051 0.993890 0.100310
vn 0.046051 0.993890 0.100310
vn 0.097924 0.990272 0.098853
vn 0.079570 0.993650 0.079546
vn 0.000000 1.000000 0.000000
vn 0.036470 0.998669 0.036470
vn 0.129545 0.990633 0.043181
vn 0.129545 0.990633 0.043181
vn 0.036470 0.998669 0.036470
vn 0.193535 0.980697 0.027893
vn 0.000000 1.000000 0.000000
vn 0.193535 0.980697 0.027893
vn 0.099954 0.993917 0.046234
vn 0.099954 0.993917 0.046234
vn 0.193535 0.980697 0.027893
vn 0.079570 0.993650 0.079546
vn 0.097924 0.990272 0.098853
vn 0.099954 0.993917 0.046234
vn 0.079570 0.993650 0.079546
vn 0.043183 0.990633 0.129546
vn 0.027893 0.980696 0.193537
vn 0.036470 0.998669 0.036470
vn 0.036470 0.998669 0.036470
vn 0.027893 0.980696 0.193537
vn 0.079570 0.993650 0.079546
vn 0.079570 0.993650 0.079546
vn 0.027893 0.980696 0.193537
vn 0.046051 0.993890 0.100310
vn 0.000008 0.000000 1.000000
vn 0.000008 0.000000 1.000000
vn 0.000008 0.000000 1.000000
vn -0.000016 -0.000039 1.000000
vn -0.000016 -0.000039 1.000000
vn -0.000016 -0.000039 1.000000
vn 0.000000 0.000000 1.000000
vn 0.000000 0.000000 1.000000
vn 0.000008 0.000000 1.000000
vn 1.000000 0.000031 0.000020
vn 1.000000 0.000031 0.000020
vn 1.000000 0.000031 0.000020
vn 1.000000 -0.000019 0.000000
vn 1.000000 -0.000019 0.000000
vn 1.000000 -0.000019 0.000000
vn 1.000000 -0.000028 -0.000016
vn 1.000000 -0.000028 -0.000016
vn 1.000000 -0.000028 -0.000016
vn 0.000000 0.000000 -1.000000
vn 0.000000 0.000000 -1.000000
vn 0.000000 0.000000 -1.000000
vn 0.000000 0.000000 -1.000000
vn 0.000000 0.000000 -1.000000
vn 0.000000 0.000000 -1.000000
vn 0.000000 1.000000 0.000000
vn -0.100310 0.993890 0.046051
vn -0.193537 0.980696 0.027893
vn 1.000000 0.000000 0.000000
vn 1.000000 0.000000 0.000000
vn 1.000000 0.000000 0.000000
vn 1.000000 0.000000 0.000000
vn 1.000000 0.000000 0.000000
vn 1.000000 0.000000 0.000000
vn 0.000000 1.000000 0.000000
vn -0.046234 0.993917 0.099954
vn -0.098853 0.990272 0.097924
vn 0.000000 1.000000 0.000000
vn -0.129546 0.990633 0.043183
vn -0.036470 0.998669 0.036470
vn -0.036470 0.998669 0.036470
vn -0.079546 0.993650 0.079570
vn -0.027893 0.980697 0.193535
vn 0.000000 1.000000 0.000000
vn -0.098853 0.990272 0.097924
vn -0.100310 0.993890 0.046051
vn -0.100310 0.993890 0.046051
vn -0.098853 0.990272 0.097924
vn -0.079546 0.993650 0.079570
vn 0.000000 1.000000 0.000000
vn -0.036470 0.998669 0.036470
vn -0.043181 0.990633 0.129545
vn -0.043181 0.990633 0.129545
vn -0.036470 0.998669 0.036470
vn -0.027893 0.980697 0.193535
vn 0.000000 1.000000 0.000000
vn -0.027893 0.980697 0.193535
vn -0.046234 0.993917 0.099954
vn -0.046234 0.993917 0.099954
vn -0.027893 0.980697 0.193535
vn -0.079546 0.993650 0.079570
vn -0.098853 0.990272 0.097924
vn -0.046234 0.993917 0.099954
vn -0.079546 0.993650 0.079570
vn -0.129546 0.990633 0.043183
vn -0.193537 0.980696 0.027893
vn -0.036470 0.998669 0.036470
vn -0.036470 0.998669 0.036470
vn -0.193537 0.980696 0.027893
vn -0.079546 0.993650 0.079570
vn -0.079546 0.993650 0.079570
vn -0.193537 0.980696 0.027893
vn -0.100310 0.993890 0.046051
vn -1.000000 0.000000 0.000008
vn -1.000000 0.000000 0.000008
vn -1.000000 0.000000 0.000008
vn -1.000000 -0.000039 -0.000016
vn -1.000000 -0.000039 -0.000016
vn -1.000000 -0.000039 -0.000016
vn -1.000000 0.000000 0.000000
vn -1.000000 0.000000 0.000000
vn -1.000000 0.000000 0.000008
vn -0.000020 0.000031 1.000000
vn -0.000020 0.000031 1.000000
vn -0.000020 0.000031 1.000000
vn 0.000000 -0.000019 1.000000
vn 0.000000 -0.000019 1.000000
vn 0.000000 -0.000019 1.000000
vn 0.000016 -0.000028 1.000000
vn 0.000016 -0.000028 1.000000
vn 0.000016 -0.000028 1.000000
usemtl PDX08_-_Default
f 1/1/1 2/2/2 3/3/3
f 4/4/4 3/5/5 2/6/6
f 2/7/7 5/8/8 6/9/9
f 7/10/10 4/11/11 6/12/12
f 2/13/13 6/14/14 4/15/15
f 2/16/16 8/17/17 9/18/18
f 10/19/19 11/20/20 12/21/21
f 12/22/22 13/23/23 1/24/24
f 2/25/25 9/26/26 5/27/27
f 5/28/28 9/29/29 13/30/30
f 10/31/31 12/32/32 14/33/33
f 14/34/34 12/35/35 1/36/36
f 2/37/37 1/38/38 8/39/39
f 8/40/40 1/41/41 13/42/42
f 9/43/43 8/44/44 13/45/45
f 11/46/46 6/47/47 12/48/48
f 12/49/49 6/50/50 13/51/51
f 13/52/52 6/53/53 5/54/54
f 14/55/55 15/56/56 10/57/57
f 14/58/58 1/59/59 15/60/60
f 1/61/61 3/62/62 15/63/63
f 11/64/64 15/65/65 6/66/66
f 15/67/67 7/68/68 6/69/69
f 10/70/70 15/71/71 11/72/72
usemtl PDX08_-_Default
f 16/73/73 17/74/74 18/75/75
f 19/76/76 18/77/77 17/78/78
f 17/79/79 20/80/80 1/81/81
f 3/82/82 19/83/83 1/84/84
f 17/85/85 1/86/86 19/87/87
f 17/88/88 21/89/89 22/90/90
f 10/91/91 14/92/92 23/93/93
f 23/94/94 24/95/95 16/96/96
f 17/97/97 22/98/98 20/99/99
f 20/100/100 22/101/101 24/102/102
f 10/103/103 23/104/104 25/105/105
f 25/106/106 23/107/107 16/108/108
f 17/109/109 16/110/110 21/111/111
f 21/112/112 16/113/113 24/114/114
f 22/115/115 21/116/116 24/117/117
f 14/118/118 1/119/119 23/120/120
f 23/121/121 1/122/122 24/123/123
f 24/124/124 1/125/125 20/126/126
f 25/127/127 15/128/128 10/129/129
f 25/130/130 16/131/131 15/132/132
f 16/133/133 18/134/134 15/135/135
f 14/136/136 15/137/137 1/138/138
f 15/139/139 3/140/140 1/141/141
f 10/142/142 15/143/143 14/144/144
usemtl PDX08_-_Default
f 6/145/145 26/146/146 7/147/147
f 27/148/148 7/149/149 26/150/150
f 26/151/151 28/152/152 29/153/153
f 30/154/154 27/155/155 29/156/156
f 26/157/157 29/158/158 27/159/159
f 26/160/160 31/161/161 32/162/162
f 10/163/163 33/164/164 34/165/165
f 34/166/166 35/167/167 6/168/168
f 26/169/169 32/170/170 28/171/171
f 28/172/172 32/173/173 35/174/174
f 10/175/175 34/176/176 11/177/177
f 11/178/178 34/179/179 6/180/180
f 26/181/181 6/182/182 31/183/183
f 31/184/184 6/185/185 35/186/186
f 32/187/187 31/188/188 35/189/189
f 33/190/190 29/191/191 34/192/192
f 34/193/193 29/194/194 35/195/195
f 35/196/196 29/197/197 28/198/198
f 11/199/199 15/200/200 10/201/201
f 11/202/202 6/203/203 15/204/204
f 6/205/205 7/206/206 15/207/207
f 33/208/208 15/209/209 29/210/210
f 15/211/211 30/212/212 29/213/213
f 10/214/214 15/215/215 33/216/216
usemtl PDX08_-_Default
f 29/217/217 36/218/218 30/219/219
f 37/220/220 30/221/221 36/222/222
f 36/223/223 38/224/224 16/225/225
f 18/226/226 37/227/227 16/228/228
f 36/229/229 16/230/230 37/231/231
f 36/232/232 39/233/233 40/234/234
f 10/235/235 25/236/236 41/237/237
f 41/238/238 42/239/239 29/240/240
f 36/241/241 40/242/242 38/243/243
f 38/244/244 40/245/245 42/246/246
f 10/247/247 41/248/248 33/249/249
f 33/250/250 41/251/251 29/252/252
f 36/253/253 29/254/254 39/255/255
f 39/256/256 29/257/257 42/258/258
f 40/259/259 39/260/260 42/261/261
f 25/262/262 16/263/263 41/264/264
f 41/265/265 16/266/266 42/267/267
f 42/268/268 16/269/269 38/270/270
f 33/271/271 15/272/272 10/273/273
f 33/274/274 29/275/275 15/276/276
f 29/277/277 30/278/278 15/279/279
f 25/280/280 15/281/281 16/282/282
f 15/283/283 18/284/284 16/285/285
f 10/286/286 15/287/287 25/288/288
