# Modified by OBJRotate180 (Mesh rotated 180 degrees around Y-axis)
# Original file: jun_boundary_grass_earth.obj
mtllib Materials/jun_boundary_grass_earth.mtl
v 0.500000 0.195000 -0.500000
v 0.500000 0.195000 0.500008
v 0.500000 -0.200000 -0.500000
v 0.500000 -0.200000 0.500000
v -0.500000 0.195000 -0.500000
v -0.500000 0.195000 0.500008
v -0.500000 -0.200000 -0.500000
v -0.500000 -0.200000 0.500000
v -0.500000 0.195000 0.500008
v 0.500000 0.195000 -0.500000
v -0.500000 0.195000 -0.500000
v 0.500000 0.195000 0.500008
v 0.500000 0.195000 -0.500000
v 0.500000 -0.200000 0.500000
v 0.500000 -0.200000 -0.500000
v 0.500000 0.195000 0.500008
v -0.500000 0.195000 0.500008
v -0.500000 -0.200000 -0.500000
v -0.500000 -0.200000 0.500000
v -0.500000 0.195000 -0.500000
vt 0.128073 0.737135
vt 0.128073 0.737135
vt 0.128073 0.706740
vt 0.128073 0.706740
vt 0.013106 0.737135
vt 0.013106 0.737135
vt 0.013106 0.706740
vt 0.013106 0.706740
vt 0.392476 0.693693
vt 0.276737 0.574866
vt 0.276737 0.693693
vt 0.392476 0.574866
vt 0.012950 0.736864
vt 0.128046 0.706753
vt 0.012967 0.706753
vt 0.128063 0.736864
vt 0.128063 0.736864
vt 0.012967 0.706753
vt 0.128046 0.706753
vt 0.012950 0.736864
vn 0.000000 0.000000 -1.000000
vn 0.000000 -0.000019 1.000000
vn 0.000000 0.000000 -1.000000
vn 0.000000 -0.000019 1.000000
vn 0.000000 0.000000 -1.000000
vn 0.000000 -0.000019 1.000000
vn 0.000000 0.000000 -1.000000
vn 0.000000 -0.000019 1.000000
vn 0.000000 1.000000 0.000000
vn 0.000000 1.000000 0.000000
vn 0.000000 1.000000 0.000000
vn 0.000000 1.000000 0.000000
vn 1.000000 0.000000 0.000000
vn 1.000000 0.000000 0.000000
vn 1.000000 0.000000 0.000000
vn 1.000000 0.000000 0.000000
vn -1.000000 0.000000 0.000000
vn -1.000000 0.000000 0.000000
vn -1.000000 0.000000 0.000000
vn -1.000000 0.000000 0.000000
o grass_earth_1
o grass_earth_1
usemtl jun_boundary_grass_earth
o grass_earth_1
usemtl jun_boundary_grass_earth
f 6/6/6 8/8/8 2/2/2
f 2/2/2 8/8/8 4/4/4
f 7/7/7 5/5/5 3/3/3
f 3/3/3 5/5/5 1/1/1
f 12/12/12 10/10/10 9/9/9
f 9/9/9 10/10/10 11/11/11
f 16/16/16 14/14/14 13/13/13
f 13/13/13 14/14/14 15/15/15
f 20/20/20 18/18/18 17/17/17
f 17/17/17 18/18/18 19/19/19
