# Modified by OBJRotate180 (Mesh rotated 180 degrees around Y-axis)
# Original file: jun_boundary_plant.obj
mtllib ../Materials/jun_boundary_grass_earth_n_01.mtl
v -0.500000 0.195000 0.500000
v -0.500000 0.195000 -0.500008
v -0.500000 -0.200000 0.500000
v -0.500000 -0.200000 -0.500000
v 0.500000 0.195000 0.500000
v 0.500000 0.195000 -0.500008
v 0.500000 -0.200000 0.500000
v 0.500000 -0.200000 -0.500000
v -0.050997 0.531266 -0.205609
v 0.072026 0.531516 -0.226726
v 0.046733 0.197648 -0.076896
v -0.006782 0.201496 -0.072026
v -0.070459 0.580991 -0.334081
v 0.040298 0.579180 -0.340587
v -0.046441 0.444360 -0.497967
v 0.071813 0.516641 -0.224645
v 0.043282 0.182488 -0.082025
v -0.010232 0.186336 -0.077155
v -0.051210 0.516391 -0.203529
v -0.070672 0.566115 -0.332000
v 0.040084 0.564304 -0.338507
v 0.091672 0.534484 0.090271
v -0.030905 0.524011 0.111388
v 0.017658 0.193367 -0.038442
v 0.070633 0.201864 -0.043312
v 0.106726 0.585715 0.218742
v -0.003451 0.574258 0.225249
v 0.094708 0.447512 0.382628
v -0.029396 0.509210 0.109307
v 0.022416 0.178566 -0.033313
v 0.075392 0.187063 -0.038183
v 0.093181 0.519684 0.088191
v 0.108235 0.570915 0.216662
v -0.001942 0.559458 0.223169
v 0.107460 0.534484 -0.151614
v 0.178402 0.524011 -0.049446
v 0.022086 0.193367 -0.030138
v -0.004715 0.201864 -0.076091
v 0.217533 0.585715 -0.219552
v 0.269993 0.574258 -0.122447
v 0.371143 0.447512 -0.277920
v 0.175879 0.509210 -0.049934
v 0.024724 0.178566 -0.036618
v -0.002078 0.187063 -0.082572
v 0.104937 0.519684 -0.152102
v 0.215010 0.570915 -0.220040
v 0.267470 0.559458 -0.122935
v -0.096346 0.532278 0.047405
v -0.138541 0.532649 -0.070069
v 0.011410 0.197658 -0.070786
v 0.025544 0.201486 -0.018941
v -0.201058 0.559181 0.088838
v -0.226747 0.557383 -0.019095
v -0.300330 0.428573 0.093922
v -0.136566 0.517758 -0.070197
v 0.006848 0.182539 -0.066471
v 0.020981 0.186367 -0.014626
v -0.094370 0.517388 0.047277
v -0.199082 0.544289 0.088710
v -0.224772 0.542491 -0.019222
v 0.500000 0.195000 -0.500008
v -0.500000 0.195000 0.500000
v 0.500000 0.195000 0.500000
v -0.500000 0.195000 -0.500008
v -0.500000 0.195000 0.500000
v -0.500000 -0.200000 -0.500000
v -0.500000 -0.200000 0.500000
v -0.500000 0.195000 -0.500008
v 0.500000 0.195000 -0.500008
v 0.500000 -0.200000 0.500000
v 0.500000 -0.200000 -0.500000
v 0.500000 0.195000 0.500000
v -0.096346 0.532278 0.047405
v -0.094370 0.517388 0.047277
v -0.136566 0.517758 -0.070197
v -0.300330 0.428573 0.093922
v 0.046733 0.197648 -0.076896
v 0.046733 0.197648 -0.076896
v 0.071813 0.516641 -0.224645
v 0.072026 0.531516 -0.226726
v -0.050997 0.531266 -0.205609
v -0.050997 0.531266 -0.205609
v -0.010232 0.186336 -0.077155
v -0.006782 0.201496 -0.072026
v -0.051210 0.516391 -0.203529
v -0.070459 0.580991 -0.334081
v -0.070459 0.580991 -0.334081
v -0.051210 0.516391 -0.203529
v -0.050997 0.531266 -0.205609
v 0.072026 0.531516 -0.226726
v 0.071813 0.516641 -0.224645
v 0.072026 0.531516 -0.226726
v 0.040084 0.564304 -0.338507
v 0.040298 0.579180 -0.340587
v -0.046441 0.444360 -0.497967
v -0.070672 0.566115 -0.332000
v -0.070459 0.580991 -0.334081
v -0.046441 0.444360 -0.497967
v 0.040298 0.579180 -0.340587
v 0.040084 0.564304 -0.338507
v -0.046441 0.444360 -0.497967
v 0.040084 0.564304 -0.338507
v -0.070672 0.566115 -0.332000
v 0.040084 0.564304 -0.338507
v -0.051210 0.516391 -0.203529
v -0.070672 0.566115 -0.332000
v 0.040084 0.564304 -0.338507
v 0.071813 0.516641 -0.224645
v -0.051210 0.516391 -0.203529
v 0.071813 0.516641 -0.224645
v -0.010232 0.186336 -0.077155
v -0.051210 0.516391 -0.203529
v 0.071813 0.516641 -0.224645
v 0.043282 0.182488 -0.082025
v -0.010232 0.186336 -0.077155
v 0.017658 0.193367 -0.038442
v 0.017658 0.193367 -0.038442
v -0.029396 0.509210 0.109307
v -0.030905 0.524011 0.111388
v 0.091672 0.534484 0.090271
v 0.091672 0.534484 0.090271
v 0.075392 0.187063 -0.038183
v 0.070633 0.201864 -0.043312
v 0.093181 0.519684 0.088191
v 0.106726 0.585715 0.218742
v 0.106726 0.585715 0.218742
v 0.093181 0.519684 0.088191
v 0.091672 0.534484 0.090271
v -0.030905 0.524011 0.111388
v -0.029396 0.509210 0.109307
v -0.030905 0.524011 0.111388
v -0.001942 0.559458 0.223169
v -0.003451 0.574258 0.225249
v 0.094708 0.447512 0.382628
v 0.108235 0.570915 0.216662
v 0.106726 0.585715 0.218742
v 0.094708 0.447512 0.382628
v -0.003451 0.574258 0.225249
v -0.001942 0.559458 0.223169
v 0.094708 0.447512 0.382628
v -0.001942 0.559458 0.223169
v 0.108235 0.570915 0.216662
v -0.001942 0.559458 0.223169
v 0.093181 0.519684 0.088191
v 0.108235 0.570915 0.216662
v -0.001942 0.559458 0.223169
v -0.029396 0.509210 0.109307
v 0.093181 0.519684 0.088191
v -0.029396 0.509210 0.109307
v 0.075392 0.187063 -0.038183
v 0.093181 0.519684 0.088191
v -0.029396 0.509210 0.109307
v 0.022416 0.178566 -0.033313
v 0.075392 0.187063 -0.038183
v 0.022086 0.193367 -0.030138
v 0.022086 0.193367 -0.030138
v 0.175879 0.509210 -0.049934
v 0.178402 0.524011 -0.049446
v 0.107460 0.534484 -0.151614
v 0.107460 0.534484 -0.151614
v -0.002078 0.187063 -0.082572
v -0.004715 0.201864 -0.076091
v 0.104937 0.519684 -0.152102
v 0.217533 0.585715 -0.219552
v 0.217533 0.585715 -0.219552
v 0.104937 0.519684 -0.152102
v 0.107460 0.534484 -0.151614
v 0.178402 0.524011 -0.049446
v 0.175879 0.509210 -0.049934
v 0.178402 0.524011 -0.049446
v 0.267470 0.559458 -0.122935
v 0.269993 0.574258 -0.122447
v 0.371143 0.447512 -0.277920
v 0.215010 0.570915 -0.220040
v 0.217533 0.585715 -0.219552
v 0.371143 0.447512 -0.277920
v 0.269993 0.574258 -0.122447
v 0.267470 0.559458 -0.122935
v 0.371143 0.447512 -0.277920
v 0.267470 0.559458 -0.122935
v 0.215010 0.570915 -0.220040
v 0.267470 0.559458 -0.122935
v 0.104937 0.519684 -0.152102
v 0.215010 0.570915 -0.220040
v 0.267470 0.559458 -0.122935
v 0.175879 0.509210 -0.049934
v 0.104937 0.519684 -0.152102
v 0.175879 0.509210 -0.049934
v -0.002078 0.187063 -0.082572
v 0.104937 0.519684 -0.152102
v 0.175879 0.509210 -0.049934
v 0.024724 0.178566 -0.036618
v -0.002078 0.187063 -0.082572
v 0.011410 0.197658 -0.070786
v 0.011410 0.197658 -0.070786
v -0.136566 0.517758 -0.070197
v -0.138541 0.532649 -0.070069
v -0.096346 0.532278 0.047405
v -0.096346 0.532278 0.047405
v 0.020981 0.186367 -0.014626
v 0.025544 0.201486 -0.018941
v -0.201058 0.559181 0.088838
v -0.201058 0.559181 0.088838
v -0.094370 0.517388 0.047277
v -0.096346 0.532278 0.047405
v -0.138541 0.532649 -0.070069
v -0.138541 0.532649 -0.070069
v -0.224772 0.542491 -0.019222
v -0.226747 0.557383 -0.019095
v -0.300330 0.428573 0.093922
v -0.199082 0.544289 0.088710
v -0.201058 0.559181 0.088838
v -0.226747 0.557383 -0.019095
v -0.224772 0.542491 -0.019222
v -0.300330 0.428573 0.093922
v -0.224772 0.542491 -0.019222
v -0.199082 0.544289 0.088710
v -0.224772 0.542491 -0.019222
v -0.094370 0.517388 0.047277
v -0.199082 0.544289 0.088710
v -0.224772 0.542491 -0.019222
v -0.136566 0.517758 -0.070197
v -0.094370 0.517388 0.047277
v -0.136566 0.517758 -0.070197
v 0.020981 0.186367 -0.014626
v -0.094370 0.517388 0.047277
v -0.136566 0.517758 -0.070197
v 0.006848 0.182539 -0.066471
v 0.020981 0.186367 -0.014626
vt 0.128073 0.737135
vt 0.128073 0.737135
vt 0.128073 0.706740
vt 0.128073 0.706740
vt 0.013106 0.737135
vt 0.013106 0.737135
vt 0.013106 0.706740
vt 0.013106 0.706740
vt 0.271369 0.086671
vt 0.210517 0.089906
vt 0.219614 0.006276
vt 0.257622 0.004828
vt 0.267539 0.164686
vt 0.217781 0.163594
vt 0.240961 0.244427
vt 0.211379 0.088721
vt 0.222646 0.009424
vt 0.260654 0.007976
vt 0.272231 0.085486
vt 0.268401 0.163502
vt 0.218643 0.162410
vt 0.271369 0.086671
vt 0.210517 0.089906
vt 0.219614 0.006276
vt 0.257622 0.004828
vt 0.267539 0.164686
vt 0.217781 0.163594
vt 0.240961 0.244427
vt 0.211379 0.088721
vt 0.222646 0.009424
vt 0.260654 0.007976
vt 0.272231 0.085486
vt 0.268401 0.163502
vt 0.218643 0.162410
vt 0.271369 0.086671
vt 0.210517 0.089906
vt 0.219614 0.006276
vt 0.257622 0.004828
vt 0.267539 0.164686
vt 0.217781 0.163594
vt 0.240961 0.244427
vt 0.211379 0.088721
vt 0.222646 0.009424
vt 0.260654 0.007976
vt 0.272231 0.085486
vt 0.268401 0.163502
vt 0.218643 0.162410
vt 0.271369 0.086671
vt 0.210517 0.089906
vt 0.219614 0.006276
vt 0.257622 0.004828
vt 0.267539 0.164686
vt 0.217781 0.163594
vt 0.240961 0.244427
vt 0.211379 0.088721
vt 0.222646 0.009424
vt 0.260654 0.007976
vt 0.272231 0.085486
vt 0.268401 0.163502
vt 0.218643 0.162410
vt 0.127764 0.694198
vt 0.012531 0.575371
vt 0.012531 0.694198
vt 0.127764 0.575371
vt 0.012950 0.736864
vt 0.128046 0.706753
vt 0.012967 0.706753
vt 0.128063 0.736864
vt 0.128063 0.736864
vt 0.012967 0.706753
vt 0.128046 0.706753
vt 0.012950 0.736864
vt 0.271369 0.086671
vt 0.272231 0.085486
vt 0.211379 0.088721
vt 0.240961 0.244427
vt 0.219614 0.006276
vt 0.219614 0.006276
vt 0.211379 0.088721
vt 0.210517 0.089906
vt 0.271369 0.086671
vt 0.271369 0.086671
vt 0.260654 0.007976
vt 0.257622 0.004828
vt 0.272231 0.085486
vt 0.267539 0.164686
vt 0.267539 0.164686
vt 0.272231 0.085486
vt 0.271369 0.086671
vt 0.210517 0.089906
vt 0.211379 0.088721
vt 0.210517 0.089906
vt 0.218643 0.162410
vt 0.217781 0.163594
vt 0.240961 0.244427
vt 0.268401 0.163502
vt 0.267539 0.164686
vt 0.240961 0.244427
vt 0.217781 0.163594
vt 0.218643 0.162410
vt 0.240961 0.244427
vt 0.218643 0.162410
vt 0.268401 0.163502
vt 0.218643 0.162410
vt 0.272231 0.085486
vt 0.268401 0.163502
vt 0.218643 0.162410
vt 0.211379 0.088721
vt 0.272231 0.085486
vt 0.211379 0.088721
vt 0.260654 0.007976
vt 0.272231 0.085486
vt 0.211379 0.088721
vt 0.222646 0.009424
vt 0.260654 0.007976
vt 0.219614 0.006276
vt 0.219614 0.006276
vt 0.211379 0.088721
vt 0.210517 0.089906
vt 0.271369 0.086671
vt 0.271369 0.086671
vt 0.260654 0.007976
vt 0.257622 0.004828
vt 0.272231 0.085486
vt 0.267539 0.164686
vt 0.267539 0.164686
vt 0.272231 0.085486
vt 0.271369 0.086671
vt 0.210517 0.089906
vt 0.211379 0.088721
vt 0.210517 0.089906
vt 0.218643 0.162410
vt 0.217781 0.163594
vt 0.240961 0.244427
vt 0.268401 0.163502
vt 0.267539 0.164686
vt 0.240961 0.244427
vt 0.217781 0.163594
vt 0.218643 0.162410
vt 0.240961 0.244427
vt 0.218643 0.162410
vt 0.268401 0.163502
vt 0.218643 0.162410
vt 0.272231 0.085486
vt 0.268401 0.163502
vt 0.218643 0.162410
vt 0.211379 0.088721
vt 0.272231 0.085486
vt 0.211379 0.088721
vt 0.260654 0.007976
vt 0.272231 0.085486
vt 0.211379 0.088721
vt 0.222646 0.009424
vt 0.260654 0.007976
vt 0.219614 0.006276
vt 0.219614 0.006276
vt 0.211379 0.088721
vt 0.210517 0.089906
vt 0.271369 0.086671
vt 0.271369 0.086671
vt 0.260654 0.007976
vt 0.257622 0.004828
vt 0.272231 0.085486
vt 0.267539 0.164686
vt 0.267539 0.164686
vt 0.272231 0.085486
vt 0.271369 0.086671
vt 0.210517 0.089906
vt 0.211379 0.088721
vt 0.210517 0.089906
vt 0.218643 0.162410
vt 0.217781 0.163594
vt 0.240961 0.244427
vt 0.268401 0.163502
vt 0.267539 0.164686
vt 0.240961 0.244427
vt 0.217781 0.163594
vt 0.218643 0.162410
vt 0.240961 0.244427
vt 0.218643 0.162410
vt 0.268401 0.163502
vt 0.218643 0.162410
vt 0.272231 0.085486
vt 0.268401 0.163502
vt 0.218643 0.162410
vt 0.211379 0.088721
vt 0.272231 0.085486
vt 0.211379 0.088721
vt 0.260654 0.007976
vt 0.272231 0.085486
vt 0.211379 0.088721
vt 0.222646 0.009424
vt 0.260654 0.007976
vt 0.219614 0.006276
vt 0.219614 0.006276
vt 0.211379 0.088721
vt 0.210517 0.089906
vt 0.271369 0.086671
vt 0.271369 0.086671
vt 0.260654 0.007976
vt 0.257622 0.004828
vt 0.267539 0.164686
vt 0.267539 0.164686
vt 0.272231 0.085486
vt 0.271369 0.086671
vt 0.210517 0.089906
vt 0.210517 0.089906
vt 0.218643 0.162410
vt 0.217781 0.163594
vt 0.240961 0.244427
vt 0.268401 0.163502
vt 0.267539 0.164686
vt 0.217781 0.163594
vt 0.218643 0.162410
vt 0.240961 0.244427
vt 0.218643 0.162410
vt 0.268401 0.163502
vt 0.218643 0.162410
vt 0.272231 0.085486
vt 0.268401 0.163502
vt 0.218643 0.162410
vt 0.211379 0.088721
vt 0.272231 0.085486
vt 0.211379 0.088721
vt 0.260654 0.007976
vt 0.272231 0.085486
vt 0.211379 0.088721
vt 0.222646 0.009424
vt 0.260654 0.007976
vn 0.000000 0.000000 1.000000
vn 0.000000 -0.000019 -1.000000
vn 0.000000 0.000000 1.000000
vn 0.000000 -0.000019 -1.000000
vn 0.000000 0.000000 1.000000
vn 0.000000 -0.000019 -1.000000
vn 0.000000 0.000000 1.000000
vn 0.000000 -0.000019 -1.000000
vn 0.107995 0.720743 0.684738
vn 0.116184 0.718819 0.685420
vn 0.120294 0.387814 0.913854
vn 0.111082 0.385880 0.915837
vn 0.007303 0.988535 -0.150813
vn 0.020858 0.998201 -0.056214
vn -0.025209 0.766022 -0.642320
vn 0.970518 -0.159857 -0.180389
vn 0.970518 -0.159857 -0.180389
vn -0.865969 0.081412 0.493426
vn -0.865969 0.081412 0.493426
vn -0.985823 0.037002 0.163660
vn 0.955803 -0.054100 -0.288988
vn -0.170174 0.711015 -0.682275
vn -0.178446 0.705359 -0.686021
vn -0.153906 0.377884 -0.912971
vn -0.144529 0.376624 -0.915022
vn -0.093432 0.984137 0.150813
vn -0.107778 0.992585 0.056214
vn -0.041650 0.765304 0.642320
vn -0.950692 -0.235845 0.201398
vn -0.950692 -0.235845 0.201398
vn 0.827921 0.159954 -0.537551
vn 0.827921 0.159954 -0.537551
vn 0.978847 0.122778 -0.163659
vn -0.947451 -0.137196 0.288988
vn -0.546433 0.711016 0.442569
vn -0.546333 0.705360 0.451650
vn -0.762391 0.377885 0.525321
vn -0.768214 0.376624 0.517689
vn 0.176167 0.984138 0.020942
vn 0.096497 0.992585 0.073921
vn 0.599741 0.765304 -0.233710
vn 0.584309 -0.235845 0.776505
vn 0.584309 -0.235845 0.776505
vn -0.837066 0.159945 -0.523201
vn -0.837066 0.159945 -0.523201
vn -0.562011 0.122797 -0.817964
vn 0.662324 -0.137208 0.736546
vn 0.602280 0.770399 -0.209150
vn 0.616263 0.756487 -0.218968
vn 0.881353 0.382010 -0.278003
vn 0.884884 0.380075 -0.269303
vn -0.337844 0.938971 0.064771
vn -0.166225 0.985887 0.019888
vn -0.780428 0.600034 0.175758
vn -0.347414 -0.158901 -0.924150
vn -0.347414 -0.158901 -0.924150
vn 0.635250 0.077674 0.768390
vn 0.635250 0.077674 0.768390
vn 0.376932 0.042062 0.925285
vn -0.512122 -0.060608 -0.856772
vn 0.000000 1.000000 0.000000
vn 0.000000 1.000000 0.000000
vn 0.000000 1.000000 0.000000
vn 0.000000 1.000000 0.000000
vn -1.000000 0.000000 0.000000
vn -1.000000 0.000000 0.000000
vn -1.000000 0.000000 0.000000
vn -1.000000 0.000000 0.000000
vn 1.000000 0.000000 0.000000
vn 1.000000 0.000000 0.000000
vn 1.000000 0.000000 0.000000
vn 1.000000 0.000000 0.000000
vn 0.602280 0.770399 -0.209150
vn 0.376932 0.042062 0.925285
vn -0.512122 -0.060608 -0.856772
vn -0.779184 -0.098063 -0.619076
vn 0.970518 -0.159857 -0.180389
vn 0.980702 0.013240 0.195058
vn 0.980702 0.013240 0.195058
vn 0.980702 0.013240 0.195058
vn -0.865969 0.081412 0.493426
vn -0.897780 0.056563 0.436797
vn -0.897780 0.056563 0.436797
vn -0.897780 0.056563 0.436797
vn -0.985823 0.037002 0.163660
vn -0.985823 0.037002 0.163660
vn -0.985822 0.037008 0.163663
vn -0.985822 0.037008 0.163663
vn -0.985822 0.037008 0.163663
vn 0.955803 -0.054100 -0.288988
vn 0.955803 -0.054100 -0.288988
vn 0.955802 -0.054107 -0.288990
vn 0.955802 -0.054107 -0.288990
vn 0.955802 -0.054107 -0.288990
vn -0.990061 -0.005479 -0.140529
vn -0.990061 -0.005479 -0.140529
vn -0.990061 -0.005479 -0.140529
vn 0.898666 -0.073353 -0.432456
vn 0.898666 -0.073353 -0.432456
vn 0.898666 -0.073353 -0.432456
vn 0.021706 -0.804596 0.593426
vn 0.021706 -0.804596 0.593426
vn 0.021706 -0.804596 0.593426
vn -0.036178 -0.933807 -0.355944
vn -0.036178 -0.933807 -0.355944
vn -0.036178 -0.933807 -0.355944
vn -0.061747 -0.926693 -0.370713
vn -0.061747 -0.926693 -0.370713
vn -0.061747 -0.926693 -0.370713
vn -0.156431 -0.370050 -0.915747
vn -0.156431 -0.370050 -0.915747
vn -0.156431 -0.370050 -0.915747
vn -0.110955 -0.382100 -0.917436
vn -0.110955 -0.382100 -0.917436
vn -0.110955 -0.382100 -0.917436
vn -0.950692 -0.235845 0.201398
vn -0.986600 -0.080627 -0.141846
vn -0.986600 -0.080627 -0.141846
vn -0.986600 -0.080627 -0.141846
vn 0.827921 0.159954 -0.537551
vn 0.882159 0.126399 -0.453672
vn 0.882159 0.126399 -0.453672
vn 0.882159 0.126399 -0.453672
vn 0.978847 0.122778 -0.163659
vn 0.978847 0.122778 -0.163659
vn 0.978847 0.122780 -0.163660
vn 0.978847 0.122780 -0.163660
vn 0.978847 0.122780 -0.163660
vn -0.947451 -0.137196 0.288988
vn -0.947451 -0.137196 0.288988
vn -0.947452 -0.137190 0.288986
vn -0.947452 -0.137190 0.288986
vn -0.947452 -0.137190 0.288986
vn 0.986772 0.080829 0.140528
vn 0.986772 0.080829 0.140528
vn 0.986772 0.080829 0.140528
vn -0.888851 -0.151380 0.432468
vn -0.888851 -0.151380 0.432468
vn -0.888851 -0.151380 0.432468
vn 0.048499 -0.803426 -0.593427
vn 0.048499 -0.803426 -0.593427
vn 0.048499 -0.803426 -0.593427
vn 0.117428 -0.927100 0.355944
vn 0.117428 -0.927100 0.355944
vn 0.117428 -0.927100 0.355944
vn 0.142280 -0.917785 0.370713
vn 0.142280 -0.917785 0.370713
vn 0.142280 -0.917785 0.370713
vn 0.188137 -0.357597 0.914729
vn 0.188137 -0.357597 0.914729
vn 0.188137 -0.357597 0.914729
vn 0.144059 -0.372816 0.916654
vn 0.144059 -0.372816 0.916654
vn 0.144059 -0.372816 0.916654
vn 0.584309 -0.235845 0.776505
vn 0.288438 -0.080647 0.954096
vn 0.288438 -0.080647 0.954096
vn 0.288438 -0.080647 0.954096
vn -0.837066 0.159945 -0.523201
vn -0.783997 0.126408 -0.607758
vn -0.783997 0.126408 -0.607758
vn -0.783997 0.126408 -0.607758
vn -0.562011 0.122797 -0.817964
vn -0.562011 0.122797 -0.817964
vn -0.562001 0.122768 -0.817975
vn -0.562001 0.122768 -0.817975
vn -0.562001 0.122768 -0.817975
vn 0.662324 -0.137208 0.736546
vn 0.662324 -0.137208 0.736546
vn 0.662324 -0.137203 0.736548
vn 0.662324 -0.137203 0.736548
vn 0.662324 -0.137203 0.736548
vn -0.289655 0.080844 -0.953711
vn -0.289655 0.080844 -0.953711
vn -0.289655 0.080844 -0.953711
vn 0.767585 -0.151395 0.622810
vn 0.767585 -0.151395 0.622810
vn 0.767585 -0.151395 0.622810
vn -0.558324 -0.803425 0.206838
vn -0.558324 -0.803425 0.206838
vn -0.558324 -0.803425 0.206838
vn 0.272967 -0.927100 -0.256856
vn 0.272967 -0.927100 -0.256856
vn 0.272967 -0.927100 -0.256856
vn 0.275849 -0.917785 -0.285618
vn 0.275849 -0.917785 -0.285618
vn 0.275849 -0.917785 -0.285618
vn 0.749517 -0.357598 -0.557089
vn 0.749517 -0.357598 -0.557089
vn 0.749517 -0.357598 -0.557089
vn 0.769888 -0.372816 -0.517958
vn 0.769888 -0.372816 -0.517958
vn 0.769888 -0.372816 -0.517958
vn -0.347414 -0.158901 -0.924150
vn 0.020346 0.011246 -0.999730
vn 0.020346 0.011246 -0.999730
vn 0.020346 0.011246 -0.999730
vn 0.635250 0.077674 0.768390
vn 0.586126 0.053832 0.808430
vn 0.586126 0.053832 0.808430
vn 0.586126 0.053832 0.808430
vn 0.376932 0.042062 0.925285
vn 0.376931 0.042061 0.925286
vn 0.376931 0.042061 0.925286
vn 0.376931 0.042061 0.925286
vn -0.512122 -0.060608 -0.856772
vn -0.512121 -0.060606 -0.856772
vn -0.512121 -0.060606 -0.856772
vn -0.512121 -0.060606 -0.856772
vn 0.053140 -0.001520 0.998586
vn 0.053140 -0.001520 0.998586
vn 0.053140 -0.001520 0.998586
vn -0.779184 -0.098063 -0.619076
vn -0.779184 -0.098063 -0.619076
vn 0.738591 -0.653673 -0.164908
vn 0.738591 -0.653673 -0.164908
vn 0.738591 -0.653673 -0.164908
vn -0.222478 -0.972482 0.069154
vn -0.222478 -0.972482 0.069154
vn -0.222478 -0.972482 0.069154
vn -0.226880 -0.970759 0.078435
vn -0.226880 -0.970759 0.078435
vn -0.226880 -0.970759 0.078435
vn -0.876844 -0.364241 0.313804
vn -0.876844 -0.364241 0.313804
vn -0.876844 -0.364241 0.313804
vn -0.886469 -0.376254 0.269454
vn -0.886469 -0.376254 0.269454
vn -0.886469 -0.376254 0.269454
o grass_earth_1
o grass_earth_1
usemtl PDX01_-_Default
o grass_earth_1
g Material_0
usemtl PDX01_-_Default
f 16/16/16 77/77/77 17/17/17
f 7/7/7 5/5/5 3/3/3
f 3/3/3 5/5/5 1/1/1
f 6/6/6 8/8/8 2/2/2
f 2/2/2 8/8/8 4/4/4
f 49/49/49 53/53/53 73/73/73
f 73/73/73 53/53/53 52/52/52
f 53/53/53 54/54/54 52/52/52
f 51/51/51 50/50/50 48/48/48
f 48/48/48 50/50/50 49/49/49
f 227/227/227 228/228/228 229/229/229
f 72/72/72 70/70/70 69/69/69
f 69/69/69 70/70/70 71/71/71
f 68/68/68 66/66/66 65/65/65
f 65/65/65 66/66/66 67/67/67
f 64/64/64 62/62/62 61/61/61
f 61/61/61 62/62/62 63/63/63
f 41/41/41 39/39/39 40/40/40
f 39/39/39 35/35/35 40/40/40
f 40/40/40 35/35/35 36/36/36
f 36/36/36 35/35/35 37/37/37
f 35/35/35 38/38/38 37/37/37
f 15/15/15 13/13/13 14/14/14
f 13/13/13 9/9/9 14/14/14
f 14/14/14 9/9/9 10/10/10
f 10/10/10 9/9/9 11/11/11
f 9/9/9 12/12/12 11/11/11
f 28/28/28 26/26/26 27/27/27
f 26/26/26 22/22/22 27/27/27
f 27/27/27 22/22/22 23/23/23
f 23/23/23 22/22/22 24/24/24
f 22/22/22 25/25/25 24/24/24
f 78/78/78 79/79/79 80/80/80
f 224/224/224 225/225/225 226/226/226
f 18/18/18 81/81/81 19/19/19
f 221/221/221 222/222/222 223/223/223
f 82/82/82 83/83/83 84/84/84
f 218/218/218 219/219/219 220/220/220
f 85/85/85 86/86/86 20/20/20
f 215/215/215 216/216/216 217/217/217
f 87/87/87 88/88/88 89/89/89
f 76/76/76 213/213/213 214/214/214
f 21/21/21 90/90/90 91/91/91
f 210/210/210 211/211/211 212/212/212
f 92/92/92 93/93/93 94/94/94
f 207/207/207 208/208/208 209/209/209
f 95/95/95 96/96/96 97/97/97
f 60/60/60 206/206/206 75/75/75
f 98/98/98 99/99/99 100/100/100
f 203/203/203 204/204/204 205/205/205
f 101/101/101 102/102/102 103/103/103
f 74/74/74 202/202/202 59/59/59
f 104/104/104 105/105/105 106/106/106
f 199/199/199 200/200/200 201/201/201
f 107/107/107 108/108/108 109/109/109
f 57/57/57 198/198/198 58/58/58
f 110/110/110 111/111/111 112/112/112
f 195/195/195 196/196/196 197/197/197
f 113/113/113 114/114/114 115/115/115
f 55/55/55 194/194/194 56/56/56
f 29/29/29 116/116/116 30/30/30
f 191/191/191 192/192/192 193/193/193
f 117/117/117 118/118/118 119/119/119
f 188/188/188 189/189/189 190/190/190
f 31/31/31 120/120/120 32/32/32
f 185/185/185 186/186/186 187/187/187
f 121/121/121 122/122/122 123/123/123
f 182/182/182 183/183/183 184/184/184
f 124/124/124 125/125/125 33/33/33
f 179/179/179 180/180/180 181/181/181
f 126/126/126 127/127/127 128/128/128
f 176/176/176 177/177/177 178/178/178
f 34/34/34 129/129/129 130/130/130
f 173/173/173 174/174/174 175/175/175
f 131/131/131 132/132/132 133/133/133
f 170/170/170 171/171/171 172/172/172
f 134/134/134 135/135/135 136/136/136
f 47/47/47 168/168/168 169/169/169
f 137/137/137 138/138/138 139/139/139
f 165/165/165 166/166/166 167/167/167
f 140/140/140 141/141/141 142/142/142
f 163/163/163 164/164/164 46/46/46
f 143/143/143 144/144/144 145/145/145
f 160/160/160 161/161/161 162/162/162
f 146/146/146 147/147/147 148/148/148
f 44/44/44 159/159/159 45/45/45
f 149/149/149 150/150/150 151/151/151
f 156/156/156 157/157/157 158/158/158
f 152/152/152 153/153/153 154/154/154
f 42/42/42 155/155/155 43/43/43
