# Blender 4.1.1
# www.blender.org
mtllib ../Materials/jun_mudpool.mtl
o jun_mudpool
v -0.000002 0.195000 1.000004
v -1.000002 0.195000 1.000004
v -0.000002 -0.200000 1.000004
v -1.000002 -0.200000 1.000004
v -0.888891 0.195000 0.555556
v -1.000002 0.195000 -0.000004
v -1.000002 -0.200000 0.000004
v -0.555558 0.195000 0.888892
v -0.742352 0.195000 0.723248
v -0.000002 0.072930 -0.000004
v -0.444446 0.072930 0.000004
v -0.333335 0.072930 0.333332
v -0.444446 0.072930 0.444444
v 0.000002 0.072930 0.444444
v 1.000004 0.195000 0.000002
v 1.000004 0.195000 1.000002
v 1.000004 -0.200000 0.000002
v 1.000004 -0.200000 1.000002
v 0.555556 0.195000 0.888891
v 0.888892 0.195000 0.555558
v 0.723248 0.195000 0.742352
v 0.333332 0.072930 0.333335
v 0.444444 0.072930 0.444446
v 0.444444 0.072930 -0.000002
v -1.000004 0.195000 -1.000002
v -1.000004 -0.200000 -1.000002
v -0.555556 0.195000 -0.888891
v 0.000004 0.195000 -1.000002
v -0.000004 -0.200000 -1.000002
v -0.888892 0.195000 -0.555558
v -0.723248 0.195000 -0.742352
v -0.000004 0.072930 -0.444446
v -0.333332 0.072930 -0.333335
v -0.444444 0.072930 -0.444446
v 1.000002 0.195000 -1.000004
v 1.000002 -0.200000 -1.000004
v 0.888891 0.195000 -0.555556
v 0.555558 0.195000 -0.888892
v 0.742352 0.195000 -0.723248
v 0.333335 0.072930 -0.333332
v 0.444446 0.072930 -0.444444
vn -0.0000 -0.0000 1.0000
vn -0.0000 1.0000 -0.0000
vn 0.0993 0.9940 -0.0456
vn 0.1924 0.9809 -0.0277
vn -1.0000 -0.0000 -0.0000
vn 0.0457 0.9940 -0.0989
vn 0.0980 0.9904 -0.0971
vn 0.1284 0.9908 -0.0428
vn 0.0365 0.9987 -0.0365
vn 0.0354 0.9987 -0.0370
vn 0.0784 0.9937 -0.0801
vn 0.0268 0.9808 -0.1930
vn 0.1011 0.9938 -0.0470
vn 0.0998 0.9901 -0.0987
vn 0.0804 0.9935 -0.0804
vn 0.0365 0.9987 -0.0364
vn 0.0428 0.9908 -0.1284
vn 0.0432 0.9906 -0.1296
vn 0.0367 0.9986 -0.0376
vn 0.0279 0.9807 -0.1935
vn 0.0277 0.9809 -0.1924
vn 0.0463 0.9938 -0.1011
vn 0.0279 0.9807 -0.1936
vn 0.0792 0.9936 -0.0807
vn 0.0996 0.9901 -0.0988
vn 0.0472 0.9938 -0.1007
vn 0.0802 0.9935 -0.0806
vn 0.1297 0.9906 -0.0434
vn 0.1936 0.9807 -0.0279
vn 0.0376 0.9986 -0.0367
vn 0.0370 0.9987 -0.0354
vn 0.1930 0.9808 -0.0268
vn 0.0798 0.9937 -0.0784
vn 0.0807 0.9936 -0.0794
vn 0.1015 0.9938 -0.0461
vn 1.0000 -0.0000 -0.0000
vn -0.0456 0.9940 -0.0993
vn -0.0277 0.9809 -0.1924
vn -0.0989 0.9940 -0.0457
vn -0.0971 0.9904 -0.0980
vn -0.0428 0.9908 -0.1284
vn -0.0365 0.9987 -0.0365
vn -0.0370 0.9987 -0.0354
vn -0.0801 0.9937 -0.0784
vn -0.1930 0.9808 -0.0268
vn -0.0470 0.9938 -0.1011
vn -0.0987 0.9901 -0.0998
vn -0.0804 0.9935 -0.0804
vn -0.0364 0.9987 -0.0365
vn -0.1284 0.9908 -0.0428
vn -0.1296 0.9906 -0.0432
vn -0.0376 0.9986 -0.0367
vn -0.1935 0.9807 -0.0279
vn -0.1924 0.9809 -0.0277
vn -0.1011 0.9938 -0.0463
vn -0.1936 0.9807 -0.0279
vn -0.0807 0.9936 -0.0792
vn -0.0988 0.9901 -0.0996
vn -0.1007 0.9938 -0.0472
vn -0.0806 0.9935 -0.0802
vn -0.0433 0.9906 -0.1296
vn -0.0279 0.9807 -0.1936
vn -0.0367 0.9986 -0.0376
vn -0.0354 0.9987 -0.0370
vn -0.0268 0.9808 -0.1930
vn -0.0784 0.9937 -0.0798
vn -0.0794 0.9936 -0.0807
vn -0.0461 0.9938 -0.1015
vn 0.0456 0.9940 0.0993
vn 0.0277 0.9809 0.1924
vn -0.0000 -0.0000 -1.0000
vn 0.0989 0.9940 0.0457
vn 0.0971 0.9904 0.0980
vn 0.0428 0.9908 0.1284
vn 0.0365 0.9987 0.0365
vn 0.0370 0.9987 0.0354
vn 0.0801 0.9937 0.0784
vn 0.1930 0.9808 0.0268
vn 0.0470 0.9938 0.1011
vn 0.0987 0.9901 0.0998
vn 0.0804 0.9935 0.0804
vn 0.0364 0.9987 0.0365
vn 0.1284 0.9908 0.0428
vn 0.1296 0.9906 0.0432
vn 0.0376 0.9986 0.0367
vn 0.1935 0.9807 0.0279
vn 0.1924 0.9809 0.0277
vn 0.1011 0.9938 0.0463
vn 0.1936 0.9807 0.0279
vn 0.0807 0.9936 0.0792
vn 0.0988 0.9901 0.0996
vn 0.1007 0.9938 0.0472
vn 0.0806 0.9935 0.0802
vn 0.0434 0.9906 0.1297
vn 0.0279 0.9807 0.1936
vn 0.0367 0.9986 0.0376
vn 0.0354 0.9987 0.0370
vn 0.0268 0.9808 0.1930
vn 0.0784 0.9937 0.0798
vn 0.0794 0.9936 0.0807
vn 0.0461 0.9938 0.1015
vn -0.0993 0.9940 0.0456
vn -0.1924 0.9809 0.0277
vn -0.0457 0.9940 0.0989
vn -0.0980 0.9904 0.0971
vn -0.1284 0.9908 0.0428
vn -0.0365 0.9987 0.0365
vn -0.0354 0.9987 0.0370
vn -0.0784 0.9937 0.0801
vn -0.0268 0.9808 0.1930
vn -0.1011 0.9938 0.0470
vn -0.0998 0.9901 0.0987
vn -0.0804 0.9935 0.0804
vn -0.0365 0.9987 0.0364
vn -0.0428 0.9908 0.1284
vn -0.0432 0.9906 0.1296
vn -0.0367 0.9986 0.0376
vn -0.0279 0.9807 0.1935
vn -0.0277 0.9809 0.1924
vn -0.0463 0.9938 0.1011
vn -0.0279 0.9807 0.1936
vn -0.0792 0.9936 0.0807
vn -0.0996 0.9901 0.0988
vn -0.0472 0.9938 0.1007
vn -0.0802 0.9935 0.0806
vn -0.1296 0.9906 0.0433
vn -0.1936 0.9807 0.0279
vn -0.0376 0.9986 0.0367
vn -0.0370 0.9987 0.0354
vn -0.1930 0.9808 0.0268
vn -0.0798 0.9937 0.0784
vn -0.0807 0.9936 0.0794
vn -0.1015 0.9938 0.0461
vt 0.308872 0.987717
vt 0.019450 0.987717
vt 0.308872 0.912915
vt 0.019450 0.912915
vt 0.992112 0.992349
vt 0.937424 0.773598
vt 0.992112 0.500159
vt 0.308846 0.912928
vt 0.019311 0.912928
vt 0.308862 0.987445
vt 0.019294 0.987445
vt 0.773361 0.937662
vt 0.865300 0.856134
vt 0.499923 0.500159
vt 0.718674 0.500162
vt 0.663986 0.664222
vt 0.718674 0.718910
vt 0.499923 0.992349
vt 0.499921 0.718910
vt 0.007993 0.992155
vt 0.226744 0.937467
vt 0.500183 0.992155
vt 0.062681 0.773405
vt 0.144208 0.865343
vt 0.500183 0.499966
vt 0.500180 0.718717
vt 0.336120 0.664029
vt 0.281432 0.718717
vt 0.007993 0.499966
vt 0.281432 0.499964
vt 0.992249 0.007921
vt 0.773498 0.062608
vt 0.500059 0.007921
vt 0.937561 0.226671
vt 0.856033 0.134733
vt 0.500059 0.500110
vt 0.500062 0.281359
vt 0.664122 0.336047
vt 0.718810 0.281359
vt 0.992249 0.500110
vt 0.718810 0.500111
vt 0.007694 0.007542
vt 0.062381 0.226294
vt 0.007694 0.499733
vt 0.226444 0.062230
vt 0.134506 0.143758
vt 0.499882 0.499733
vt 0.281132 0.499729
vt 0.335819 0.335669
vt 0.281132 0.280982
vt 0.499882 0.007542
vt 0.499884 0.280982
s 0
usemtl PDX08_-_Default
f 1/1/1 2/2/1 3/3/1
f 4/4/1 3/3/1 2/2/1
f 2/5/2 5/6/3 6/7/4
f 7/8/5 4/9/5 6/10/5
f 2/11/5 6/10/5 4/9/5
f 2/5/2 8/12/6 9/13/7
f 10/14/2 11/15/8 12/16/9
f 12/16/10 13/17/11 1/18/12
f 2/5/2 9/13/7 5/6/3
f 5/6/13 9/13/14 13/17/15
f 10/14/2 12/16/16 14/19/17
f 14/19/18 12/16/19 1/18/20
f 2/5/2 1/18/21 8/12/6
f 8/12/22 1/18/23 13/17/24
f 9/13/25 8/12/26 13/17/27
f 11/15/28 6/7/29 12/16/30
f 12/16/31 6/7/32 13/17/33
f 13/17/34 6/7/29 5/6/35
f 15/1/36 16/2/36 17/3/36
f 18/4/36 17/3/36 16/2/36
f 16/20/2 19/21/37 1/22/38
f 3/8/1 18/9/1 1/10/1
f 16/11/1 1/10/1 18/9/1
f 16/20/2 20/23/39 21/24/40
f 10/25/2 14/26/41 22/27/42
f 22/27/43 23/28/44 15/29/45
f 16/20/2 21/24/40 19/21/37
f 19/21/46 21/24/47 23/28/48
f 10/25/2 22/27/49 24/30/50
f 24/30/51 22/27/52 15/29/53
f 16/20/2 15/29/54 20/23/39
f 20/23/55 15/29/56 23/28/57
f 21/24/58 20/23/59 23/28/60
f 14/26/61 1/22/62 22/27/63
f 22/27/64 1/22/65 23/28/66
f 23/28/67 1/22/62 19/21/68
f 6/1/5 25/2/5 7/3/5
f 26/4/5 7/3/5 25/2/5
f 25/31/2 27/32/69 28/33/70
f 29/8/71 26/9/71 28/10/71
f 25/11/71 28/10/71 26/9/71
f 25/31/2 30/34/72 31/35/73
f 10/36/2 32/37/74 33/38/75
f 33/38/76 34/39/77 6/40/78
f 25/31/2 31/35/73 27/32/69
f 27/32/79 31/35/80 34/39/81
f 10/36/2 33/38/82 11/41/83
f 11/41/84 33/38/85 6/40/86
f 25/31/2 6/40/87 30/34/72
f 30/34/88 6/40/89 34/39/90
f 31/35/91 30/34/92 34/39/93
f 32/37/94 28/33/95 33/38/96
f 33/38/97 28/33/98 34/39/99
f 34/39/100 28/33/95 27/32/101
f 28/1/71 35/2/71 29/3/71
f 36/4/71 29/3/71 35/2/71
f 35/42/2 37/43/102 15/44/103
f 17/8/36 36/9/36 15/10/36
f 35/11/36 15/10/36 36/9/36
f 35/42/2 38/45/104 39/46/105
f 10/47/2 24/48/106 40/49/107
f 40/49/108 41/50/109 28/51/110
f 35/42/2 39/46/105 37/43/102
f 37/43/111 39/46/112 41/50/113
f 10/47/2 40/49/114 32/52/115
f 32/52/116 40/49/117 28/51/118
f 35/42/2 28/51/119 38/45/104
f 38/45/120 28/51/121 41/50/122
f 39/46/123 38/45/124 41/50/125
f 24/48/126 15/44/127 40/49/128
f 40/49/129 15/44/130 41/50/131
f 41/50/132 15/44/127 37/43/133
