# Modified by OBJRotate180 (Mesh rotated 180 degrees around Y-axis)
# Original file: jun_tile_ne_boundary_corner.obj
mtllib ../Materials/jun_tile_ne_boundary_corner.mtl
v 0.499998 -0.200000 0.500000
v 0.499997 -0.200000 -0.500001
v 0.499998 0.194997 0.500000
v 0.499997 0.194997 -0.500001
v 0.499998 0.194997 0.500000
v 0.499997 -0.200000 -0.500001
v -0.500012 0.194996 -0.500000
v 0.499997 0.194997 -0.500001
v -0.500004 -0.200000 -0.500000
v 0.499997 -0.200000 -0.500001
v -0.500004 -0.200000 -0.500000
v 0.499997 0.194997 -0.500001
v -0.500012 0.194996 -0.500000
v -0.500004 -0.200000 -0.500000
v -0.500011 0.194996 -0.000010
v -0.500003 -0.200000 -0.000001
v -0.500011 0.194996 -0.000010
v -0.500004 -0.200000 -0.500000
v 0.499998 0.194997 0.500000
v 0.499997 0.194997 -0.500001
v 0.000014 0.194997 0.500000
v -0.500012 0.194996 -0.500000
v -0.500011 0.194996 -0.000010
v 0.499997 0.194997 -0.500001
v 0.499997 0.194997 -0.500001
v -0.500011 0.194996 -0.000010
v 0.000014 0.194997 0.500000
v 0.499998 0.194997 0.500000
v 0.000014 0.194997 0.500000
v 0.499998 -0.200000 0.500000
v 0.000014 -0.200000 0.500000
v 0.499998 -0.200000 0.500000
v 0.000014 0.194997 0.500000
v -0.500011 0.194996 -0.000010
v -0.500003 -0.200000 -0.000001
v 0.000014 0.194997 0.500000
v -0.500003 -0.200000 -0.000001
v 0.000014 -0.200000 0.500000
v 0.000014 0.194997 0.500000
vt 0.036412 0.707388
vt 0.117280 0.707388
vt 0.036412 0.738557
vt 0.117280 0.738557
vt 0.036412 0.738557
vt 0.117280 0.707388
vt 0.116559 0.738286
vt 0.015066 0.738286
vt 0.116546 0.707401
vt 0.015078 0.707401
vt 0.116546 0.707401
vt 0.015066 0.738286
vt 0.117280 0.738557
vt 0.117280 0.707388
vt 0.068731 0.738557
vt 0.068730 0.707388
vt 0.068731 0.738557
vt 0.117280 0.707388
vt 0.128375 0.688697
vt 0.128375 0.576959
vt 0.058960 0.688697
vt 0.012752 0.576959
vt 0.012752 0.644119
vt 0.128375 0.576959
vt 0.128375 0.576959
vt 0.012752 0.644119
vt 0.058960 0.688697
vt 0.046306 0.738286
vt 0.098315 0.738286
vt 0.046319 0.707401
vt 0.098313 0.707401
vt 0.046319 0.707401
vt 0.098315 0.738286
vt 0.097473 0.738149
vt 0.097471 0.707425
vt 0.044119 0.738149
vt 0.097471 0.707425
vt 0.044119 0.707425
vt 0.044119 0.738149
vn 1.000000 0.000000 -0.000001
vn 1.000000 0.000000 -0.000001
vn 1.000000 0.000000 -0.000001
vn 1.000000 0.000000 -0.000001
vn 1.000000 0.000000 -0.000001
vn 1.000000 0.000000 -0.000001
vn -0.000001 0.000000 -1.000000
vn -0.000001 0.000000 -1.000000
vn -0.000001 0.000000 -1.000000
vn -0.000001 0.000000 -1.000000
vn -0.000001 0.000000 -1.000000
vn -0.000001 0.000000 -1.000000
vn -1.000000 -0.000019 0.000001
vn -1.000000 -0.000019 0.000001
vn -1.000000 -0.000019 0.000001
vn -1.000000 -0.000019 0.000001
vn -1.000000 -0.000019 0.000001
vn -1.000000 -0.000019 0.000001
vn 0.000000 1.000000 0.000000
vn 0.000000 1.000000 0.000000
vn 0.000000 1.000000 0.000000
vn 0.000000 1.000000 0.000000
vn 0.000000 1.000000 0.000000
vn 0.000000 1.000000 0.000000
vn 0.000000 1.000000 0.000000
vn 0.000000 1.000000 0.000000
vn 0.000000 1.000000 0.000000
vn 0.000001 0.000000 1.000000
vn 0.000001 0.000000 1.000000
vn 0.000001 0.000000 1.000000
vn 0.000001 0.000000 1.000000
vn 0.000001 0.000000 1.000000
vn 0.000001 0.000000 1.000000
vn -0.707097 0.000000 0.707117
vn -0.707097 0.000000 0.707117
vn -0.707097 0.000000 0.707117
vn -0.707097 0.000000 0.707117
vn -0.707097 0.000000 0.707117
vn -0.707097 0.000000 0.707117
o tile_boundary_edged_corner01
o tile_boundary_edged_corner01
usemtl PDX01_-_Default
f 1/1/1 2/2/2 3/3/3
f 4/4/4 5/5/5 6/6/6
f 7/7/7 8/8/8 9/9/9
f 10/10/10 11/11/11 12/12/12
f 13/13/13 14/14/14 15/15/15
f 16/16/16 17/17/17 18/18/18
f 19/19/19 20/20/20 21/21/21
f 22/22/22 23/23/23 24/24/24
f 25/25/25 26/26/26 27/27/27
f 28/28/28 29/29/29 30/30/30
f 31/31/31 32/32/32 33/33/33
f 34/34/34 35/35/35 36/36/36
f 37/37/37 38/38/38 39/39/39
