# Modified by OBJRotate180 (Mesh rotated 180 degrees around Y-axis)
# Original file: med_tile_nsew.obj
mtllib ../Materials/med_tile_nsew.mtl
v -0.499997 -0.200000 -0.500002
v -0.500000 -0.200000 0.499995
v -0.499998 0.000000 -0.334238
v -0.500000 0.000000 0.334231
v -0.499998 0.000000 -0.334238
v -0.500000 -0.200000 0.499995
v -0.499998 0.000000 -0.334238
v -0.499997 0.145000 -0.385820
v -0.499997 -0.200000 -0.500002
v -0.499997 0.145000 -0.500002
v -0.499997 -0.200000 -0.500002
v -0.499997 0.145000 -0.385820
v 0.499997 -0.200000 -0.499989
v -0.499997 -0.200000 -0.500002
v 0.334063 0.000000 -0.499990
v -0.334063 0.000000 -0.500002
v 0.334063 0.000000 -0.499990
v -0.499997 -0.200000 -0.500002
v -0.334084 0.000000 -0.334238
v -0.334063 0.000000 -0.500002
v -0.385798 0.145000 -0.385819
v -0.385815 0.145000 -0.500002
v -0.385798 0.145000 -0.385819
v -0.334063 0.000000 -0.500002
v -0.499997 0.145000 -0.385820
v -0.499998 0.000000 -0.334238
v -0.385798 0.145000 -0.385819
v -0.334084 0.000000 -0.334238
v -0.385798 0.145000 -0.385819
v -0.499998 0.000000 -0.334238
v -0.499997 0.145000 -0.385820
v -0.385798 0.145000 -0.385819
v -0.499997 0.145000 -0.500002
v -0.385815 0.145000 -0.500002
v -0.499997 0.145000 -0.500002
v -0.385798 0.145000 -0.385819
v -0.334084 0.000000 -0.334238
v 0.334077 0.000000 -0.334220
v -0.334063 0.000000 -0.500002
v 0.334063 0.000000 -0.499990
v -0.334063 0.000000 -0.500002
v 0.334077 0.000000 -0.334220
v 0.334077 0.000000 -0.334220
v -0.334084 0.000000 -0.334238
v 0.334076 0.000000 0.334209
v -0.385815 0.145000 -0.500002
v -0.334063 0.000000 -0.500002
v -0.499997 0.145000 -0.500002
v -0.499997 -0.200000 -0.500002
v -0.499997 0.145000 -0.500002
v -0.334063 0.000000 -0.500002
v 0.499990 0.145000 -0.385800
v 0.499990 0.000000 -0.334220
v 0.499997 -0.200000 -0.499989
v 0.499997 -0.200000 -0.499989
v 0.499997 0.145000 -0.499989
v 0.499990 0.145000 -0.385800
v 0.334063 0.000000 -0.499990
v 0.334077 0.000000 -0.334220
v 0.385791 0.145000 -0.385800
v 0.385791 0.145000 -0.385800
v 0.385815 0.145000 -0.499990
v 0.334063 0.000000 -0.499990
v 0.499990 0.000000 -0.334220
v 0.499990 0.145000 -0.385800
v 0.385791 0.145000 -0.385800
v 0.385791 0.145000 -0.385800
v 0.334077 0.000000 -0.334220
v 0.499990 0.000000 -0.334220
v 0.385791 0.145000 -0.385800
v 0.499990 0.145000 -0.385800
v 0.499997 0.145000 -0.499989
v 0.499997 0.145000 -0.499989
v 0.385815 0.145000 -0.499990
v 0.385791 0.145000 -0.385800
v -0.500000 0.145000 0.385812
v -0.500000 0.000000 0.334231
v -0.500000 -0.200000 0.499995
v -0.500000 -0.200000 0.499995
v -0.500000 0.145000 0.499995
v -0.500000 0.145000 0.385812
v -0.500000 -0.200000 0.499995
v 0.499997 -0.200000 0.499978
v 0.334063 0.000000 0.499979
v 0.334063 0.000000 0.499979
v -0.334063 0.000000 0.499990
v -0.500000 -0.200000 0.499995
v -0.334063 0.000000 0.499990
v -0.334085 0.000000 0.334226
v -0.385798 0.145000 0.385808
v -0.385798 0.145000 0.385808
v -0.385815 0.145000 0.499990
v -0.334063 0.000000 0.499990
v -0.385798 0.145000 0.385808
v -0.500000 0.145000 0.385812
v -0.500000 0.145000 0.499995
v -0.500000 0.145000 0.499995
v -0.385815 0.145000 0.499990
v -0.385798 0.145000 0.385808
v 0.334076 0.000000 0.334209
v -0.334085 0.000000 0.334226
v -0.334063 0.000000 0.499990
v -0.334063 0.000000 0.499990
v 0.334063 0.000000 0.499979
v 0.334076 0.000000 0.334209
v -0.334063 0.000000 0.499990
v -0.385815 0.145000 0.499990
v -0.500000 0.145000 0.499995
v -0.500000 0.145000 0.499995
v -0.500000 -0.200000 0.499995
v -0.334063 0.000000 0.499990
v 0.499990 0.000000 0.334208
v 0.499990 0.145000 0.385789
v 0.499997 -0.200000 0.499978
v 0.499997 0.145000 0.499978
v 0.499997 -0.200000 0.499978
v 0.499990 0.145000 0.385789
v 0.334076 0.000000 0.334209
v 0.334063 0.000000 0.499979
v 0.385790 0.145000 0.385790
v 0.385815 0.145000 0.499979
v 0.385790 0.145000 0.385790
v 0.334063 0.000000 0.499979
v 0.499990 0.145000 0.385789
v 0.499990 0.000000 0.334208
v 0.385790 0.145000 0.385790
v 0.334076 0.000000 0.334209
v 0.385790 0.145000 0.385790
v 0.499990 0.000000 0.334208
v 0.499990 0.145000 0.385789
v 0.385790 0.145000 0.385790
v 0.499997 0.145000 0.499978
v 0.385815 0.145000 0.499979
v 0.499997 0.145000 0.499978
v 0.385790 0.145000 0.385790
v 0.334076 0.000000 0.334209
v -0.334084 0.000000 -0.334238
v -0.334085 0.000000 0.334226
v -0.500000 0.000000 0.334231
v -0.334085 0.000000 0.334226
v -0.499998 0.000000 -0.334238
v -0.334085 0.000000 0.334226
v -0.334084 0.000000 -0.334238
v -0.499998 0.000000 -0.334238
v 0.334076 0.000000 0.334209
v 0.499990 0.000000 0.334208
v 0.334077 0.000000 -0.334220
v 0.499990 0.000000 0.334208
v 0.499990 0.000000 -0.334220
v 0.334077 0.000000 -0.334220
v -0.500000 0.145000 0.385812
v -0.385798 0.145000 0.385808
v -0.500000 0.000000 0.334231
v -0.385798 0.145000 0.385808
v -0.334085 0.000000 0.334226
v -0.500000 0.000000 0.334231
v 0.499990 0.000000 0.334208
v 0.499997 -0.200000 0.499978
v 0.499990 0.000000 -0.334220
v 0.499997 -0.200000 0.499978
v 0.499997 -0.200000 -0.499989
v 0.499990 0.000000 -0.334220
v 0.385815 0.145000 0.499979
v 0.334063 0.000000 0.499979
v 0.499997 0.145000 0.499978
v 0.334063 0.000000 0.499979
v 0.499997 -0.200000 0.499978
v 0.499997 0.145000 0.499978
v 0.499997 0.145000 -0.499989
v 0.499997 -0.200000 -0.499989
v 0.385815 0.145000 -0.499990
v 0.499997 -0.200000 -0.499989
v 0.334063 0.000000 -0.499990
v 0.385815 0.145000 -0.499990
vt 0.361358 0.775444
vt 0.238810 0.775443
vt 0.342826 0.797659
vt 0.257341 0.797659
vt 0.342826 0.797659
vt 0.238810 0.775443
vt 0.342826 0.797659
vt 0.348593 0.807262
vt 0.361358 0.775444
vt 0.361358 0.807262
vt 0.361358 0.775444
vt 0.348593 0.807262
vt 0.200508 0.775154
vt 0.321308 0.775154
vt 0.215765 0.797607
vt 0.306051 0.797607
vt 0.215765 0.797607
vt 0.321308 0.775154
vt 0.105398 0.773357
vt 0.083354 0.773358
vt 0.103975 0.803140
vt 0.083354 0.803178
vt 0.103975 0.803140
vt 0.083354 0.773358
vt 0.122142 0.803184
vt 0.122128 0.773357
vt 0.103975 0.803140
vt 0.105398 0.773357
vt 0.103975 0.803140
vt 0.122128 0.773357
vt 0.451303 0.771175
vt 0.465947 0.756531
vt 0.466696 0.786568
vt 0.481337 0.771926
vt 0.466696 0.786568
vt 0.465947 0.756531
vt 0.299030 0.971281
vt 0.299028 0.896457
vt 0.318696 0.971279
vt 0.318695 0.896459
vt 0.318696 0.971279
vt 0.299028 0.896457
vt 0.299028 0.896457
vt 0.299030 0.971281
vt 0.224212 0.896457
vt 0.309520 0.807328
vt 0.306051 0.797607
vt 0.321308 0.807328
vt 0.321308 0.775154
vt 0.321308 0.807328
vt 0.306051 0.797607
vt 0.354677 0.807499
vt 0.350843 0.797723
vt 0.367704 0.775159
vt 0.367704 0.775159
vt 0.367704 0.807499
vt 0.354677 0.807499
vt 0.124692 0.773208
vt 0.104932 0.773207
vt 0.110957 0.803140
vt 0.110957 0.803140
vt 0.124692 0.803178
vt 0.124692 0.773208
vt 0.083425 0.773207
vt 0.083412 0.803184
vt 0.110957 0.803140
vt 0.110957 0.803140
vt 0.104932 0.773207
vt 0.083425 0.773207
vt 0.413086 0.759719
vt 0.398442 0.774363
vt 0.413835 0.789756
vt 0.413835 0.789756
vt 0.428476 0.775114
vt 0.413086 0.759719
vt 0.251575 0.807262
vt 0.257341 0.797659
vt 0.238810 0.775443
vt 0.238810 0.775443
vt 0.238810 0.807262
vt 0.251575 0.807262
vt 0.328166 0.775580
vt 0.204432 0.775580
vt 0.221129 0.797897
vt 0.221129 0.797897
vt 0.311469 0.797897
vt 0.328166 0.775580
vt 0.077167 0.773315
vt 0.054953 0.773314
vt 0.057047 0.803337
vt 0.057047 0.803337
vt 0.077167 0.803375
vt 0.077167 0.773315
vt 0.500882 0.757468
vt 0.486238 0.772112
vt 0.501630 0.787504
vt 0.501630 0.787504
vt 0.516272 0.772863
vt 0.500882 0.757468
vt 0.224212 0.896457
vt 0.224209 0.971281
vt 0.205360 0.971279
vt 0.205360 0.971279
vt 0.205361 0.896458
vt 0.224212 0.896457
vt 0.311469 0.797897
vt 0.315265 0.807550
vt 0.328166 0.807550
vt 0.328166 0.807550
vt 0.328166 0.775580
vt 0.311469 0.797897
vt 0.259723 0.797723
vt 0.255889 0.807499
vt 0.242862 0.775159
vt 0.242862 0.807499
vt 0.242862 0.775159
vt 0.255889 0.807499
vt 0.103763 0.773357
vt 0.078941 0.773358
vt 0.102395 0.803140
vt 0.078941 0.803178
vt 0.102395 0.803140
vt 0.078941 0.773358
vt 0.122140 0.803184
vt 0.122127 0.773357
vt 0.102395 0.803140
vt 0.103763 0.773357
vt 0.102395 0.803140
vt 0.122127 0.773357
vt 0.426746 0.772226
vt 0.439820 0.761255
vt 0.438277 0.785969
vt 0.451350 0.775000
vt 0.438277 0.785969
vt 0.439820 0.761255
vt 0.224212 0.896457
vt 0.299030 0.971281
vt 0.224209 0.971281
vt 0.224209 0.989371
vt 0.224209 0.971281
vt 0.298913 0.989371
vt 0.224209 0.971281
vt 0.299030 0.971281
vt 0.298913 0.989371
vt 0.224212 0.896457
vt 0.224212 0.877201
vt 0.299028 0.896457
vt 0.224212 0.877201
vt 0.298951 0.877201
vt 0.299028 0.896457
vt 0.034333 0.803335
vt 0.057047 0.803337
vt 0.034170 0.773310
vt 0.057047 0.803337
vt 0.054953 0.773314
vt 0.034170 0.773310
vt 0.259723 0.797723
vt 0.242862 0.775159
vt 0.350843 0.797723
vt 0.242862 0.775159
vt 0.367704 0.775159
vt 0.350843 0.797723
vt 0.217333 0.807550
vt 0.221129 0.797897
vt 0.204432 0.807550
vt 0.221129 0.797897
vt 0.204432 0.775580
vt 0.204432 0.807550
vt 0.200508 0.807328
vt 0.200508 0.775154
vt 0.212296 0.807328
vt 0.200508 0.775154
vt 0.215765 0.797607
vt 0.212296 0.807328
vn -1.000000 -0.000003 -0.000003
vn -1.000000 -0.000003 -0.000003
vn -1.000000 -0.000003 -0.000003
vn -1.000000 -0.000002 -0.000003
vn -1.000000 -0.000003 -0.000003
vn -1.000000 -0.000003 -0.000003
vn -1.000000 -0.000003 -0.000003
vn -1.000000 0.000000 -0.000006
vn -1.000000 -0.000003 -0.000003
vn -1.000000 0.000000 -0.000006
vn -1.000000 -0.000003 -0.000003
vn -1.000000 0.000000 -0.000006
vn 0.000013 0.000007 -1.000000
vn 0.000013 0.000007 -1.000000
vn 0.000013 0.000007 -1.000000
vn 0.000017 -0.000009 -1.000000
vn 0.000017 -0.000009 -1.000000
vn 0.000017 -0.000009 -1.000000
vn 0.941877 0.335959 0.000120
vn 0.941877 0.335959 0.000120
vn 0.941877 0.335959 0.000120
vn 0.941813 0.336139 -0.000137
vn 0.941813 0.336139 -0.000137
vn 0.941813 0.336139 -0.000137
vn -0.000005 0.335159 0.942162
vn -0.000005 0.335159 0.942162
vn -0.000005 0.335159 0.942162
vn -0.000004 0.335159 0.942162
vn -0.000005 0.335159 0.942162
vn -0.000005 0.335159 0.942162
vn 0.000000 1.000000 0.000000
vn 0.000000 1.000000 0.000000
vn 0.000000 1.000000 0.000000
vn 0.000000 1.000000 0.000000
vn 0.000000 1.000000 0.000000
vn 0.000000 1.000000 0.000000
vn 0.000000 1.000000 0.000000
vn 0.000000 1.000000 0.000000
vn 0.000000 1.000000 0.000000
vn 0.000000 1.000000 0.000000
vn 0.000000 1.000000 0.000000
vn 0.000000 1.000000 0.000000
vn 0.000000 1.000000 0.000000
vn 0.000000 1.000000 0.000000
vn 0.000000 1.000000 0.000000
vn 0.000005 0.000000 -1.000000
vn 0.000005 0.000000 -1.000000
vn 0.000005 0.000000 -1.000000
vn 0.000005 0.000000 -1.000000
vn 0.000005 0.000000 -1.000000
vn 0.000005 0.000000 -1.000000
vn 1.000000 0.000010 0.000030
vn 1.000000 0.000010 0.000030
vn 1.000000 0.000010 0.000030
vn 1.000000 0.000000 0.000060
vn 1.000000 0.000000 0.000060
vn 1.000000 0.000000 0.000060
vn -0.941881 0.335947 0.000077
vn -0.941881 0.335947 0.000077
vn -0.941881 0.335947 0.000077
vn -0.941812 0.336141 -0.000201
vn -0.941812 0.336141 -0.000201
vn -0.941812 0.336141 -0.000201
vn -0.000006 0.335154 0.942163
vn -0.000006 0.335154 0.942163
vn -0.000006 0.335154 0.942163
vn -0.000006 0.335154 0.942163
vn -0.000005 0.335154 0.942163
vn -0.000006 0.335154 0.942163
vn 0.000000 1.000000 0.000000
vn 0.000000 1.000000 0.000000
vn 0.000000 1.000000 0.000000
vn 0.000000 1.000000 0.000000
vn 0.000000 1.000000 0.000000
vn 0.000000 1.000000 0.000000
vn -1.000000 0.000000 -0.000001
vn -1.000000 -0.000002 -0.000003
vn -1.000000 -0.000003 -0.000003
vn -1.000000 -0.000003 -0.000003
vn -1.000000 0.000000 0.000000
vn -1.000000 0.000000 -0.000001
vn 0.000016 0.000009 1.000000
vn 0.000016 0.000009 1.000000
vn 0.000016 0.000009 1.000000
vn 0.000016 0.000009 1.000000
vn 0.000017 0.000007 1.000000
vn 0.000016 0.000009 1.000000
vn 0.941876 0.335960 -0.000120
vn 0.941876 0.335960 -0.000120
vn 0.941876 0.335960 -0.000120
vn 0.941812 0.336140 0.000138
vn 0.941812 0.336140 0.000138
vn 0.941812 0.336140 0.000138
vn 0.000000 1.000000 0.000000
vn 0.000000 1.000000 0.000000
vn 0.000000 1.000000 0.000000
vn 0.000000 1.000000 0.000000
vn 0.000000 1.000000 0.000000
vn 0.000000 1.000000 0.000000
vn 0.000000 1.000000 0.000000
vn 0.000000 1.000000 0.000000
vn 0.000000 1.000000 0.000000
vn 0.000000 1.000000 0.000000
vn 0.000000 1.000000 0.000000
vn 0.000000 1.000000 0.000000
vn 0.000035 0.000011 1.000000
vn 0.000035 0.000011 1.000000
vn 0.000035 0.000011 1.000000
vn 0.000025 0.000000 1.000000
vn 0.000025 0.000000 1.000000
vn 0.000025 0.000000 1.000000
vn 1.000000 0.000011 -0.000030
vn 1.000000 0.000011 -0.000030
vn 1.000000 0.000011 -0.000030
vn 1.000000 0.000000 -0.000062
vn 1.000000 0.000000 -0.000062
vn 1.000000 0.000000 -0.000062
vn -0.941881 0.335946 -0.000077
vn -0.941881 0.335946 -0.000077
vn -0.941881 0.335946 -0.000077
vn -0.941812 0.336141 0.000202
vn -0.941812 0.336141 0.000202
vn -0.941812 0.336141 0.000202
vn -0.000007 0.335153 -0.942164
vn -0.000007 0.335153 -0.942164
vn -0.000007 0.335153 -0.942164
vn -0.000004 0.335155 -0.942163
vn -0.000007 0.335153 -0.942164
vn -0.000007 0.335153 -0.942164
vn 0.000000 1.000000 0.000000
vn 0.000000 1.000000 0.000000
vn 0.000000 1.000000 0.000000
vn 0.000000 1.000000 0.000000
vn 0.000000 1.000000 0.000000
vn 0.000000 1.000000 0.000000
vn 0.000000 1.000000 0.000000
vn 0.000000 1.000000 0.000000
vn 0.000000 1.000000 0.000000
vn 0.000000 1.000000 0.000000
vn 0.000000 1.000000 0.000000
vn 0.000000 1.000000 0.000000
vn 0.000000 1.000000 0.000000
vn 0.000000 1.000000 0.000000
vn 0.000000 1.000000 0.000000
vn 0.000000 1.000000 0.000000
vn 0.000000 1.000000 0.000000
vn 0.000000 1.000000 0.000000
vn 0.000000 1.000000 0.000000
vn 0.000000 1.000000 0.000000
vn 0.000000 1.000000 0.000000
vn -0.000031 0.335160 -0.942161
vn -0.000031 0.335160 -0.942161
vn -0.000031 0.335160 -0.942161
vn -0.000022 0.335154 -0.942163
vn -0.000022 0.335154 -0.942163
vn -0.000022 0.335154 -0.942163
vn 1.000000 0.000035 0.000000
vn 1.000000 0.000035 0.000000
vn 1.000000 0.000035 0.000000
vn 1.000000 0.000035 0.000000
vn 1.000000 0.000035 0.000000
vn 1.000000 0.000035 0.000000
vn 0.000006 -0.000001 1.000000
vn 0.000006 -0.000001 1.000000
vn 0.000006 -0.000001 1.000000
vn 0.000006 -0.000001 1.000000
vn 0.000005 0.000000 1.000000
vn 0.000006 -0.000001 1.000000
vn 0.000005 0.000000 -1.000000
vn 0.000005 0.000000 -1.000000
vn 0.000005 0.000000 -1.000000
vn 0.000005 0.000000 -1.000000
vn 0.000004 0.000000 -1.000000
vn 0.000005 0.000000 -1.000000
o mid
o mid
usemtl PDX08_-_Default
f 1/1/1 2/2/2 3/3/3
f 4/4/4 5/5/5 6/6/6
f 7/7/7 8/8/8 9/9/9
f 10/10/10 11/11/11 12/12/12
f 13/13/13 14/14/14 15/15/15
f 16/16/16 17/17/17 18/18/18
f 19/19/19 20/20/20 21/21/21
f 22/22/22 23/23/23 24/24/24
f 25/25/25 26/26/26 27/27/27
f 28/28/28 29/29/29 30/30/30
f 31/31/31 32/32/32 33/33/33
f 34/34/34 35/35/35 36/36/36
f 37/37/37 38/38/38 39/39/39
f 40/40/40 41/41/41 42/42/42
f 43/43/43 44/44/44 45/45/45
f 46/46/46 47/47/47 48/48/48
f 49/49/49 50/50/50 51/51/51
f 52/52/52 53/53/53 54/54/54
f 55/55/55 56/56/56 57/57/57
f 58/58/58 59/59/59 60/60/60
f 61/61/61 62/62/62 63/63/63
f 64/64/64 65/65/65 66/66/66
f 67/67/67 68/68/68 69/69/69
f 70/70/70 71/71/71 72/72/72
f 73/73/73 74/74/74 75/75/75
f 76/76/76 77/77/77 78/78/78
f 79/79/79 80/80/80 81/81/81
f 82/82/82 83/83/83 84/84/84
f 85/85/85 86/86/86 87/87/87
f 88/88/88 89/89/89 90/90/90
f 91/91/91 92/92/92 93/93/93
f 94/94/94 95/95/95 96/96/96
f 97/97/97 98/98/98 99/99/99
f 100/100/100 101/101/101 102/102/102
f 103/103/103 104/104/104 105/105/105
f 106/106/106 107/107/107 108/108/108
f 109/109/109 110/110/110 111/111/111
f 112/112/112 113/113/113 114/114/114
f 115/115/115 116/116/116 117/117/117
f 118/118/118 119/119/119 120/120/120
f 121/121/121 122/122/122 123/123/123
f 124/124/124 125/125/125 126/126/126
f 127/127/127 128/128/128 129/129/129
f 130/130/130 131/131/131 132/132/132
f 133/133/133 134/134/134 135/135/135
f 136/136/136 137/137/137 138/138/138
f 139/139/139 140/140/140 141/141/141
f 142/142/142 143/143/143 144/144/144
f 145/145/145 146/146/146 147/147/147
f 148/148/148 149/149/149 150/150/150
f 151/151/151 152/152/152 153/153/153
f 154/154/154 155/155/155 156/156/156
f 157/157/157 158/158/158 159/159/159
f 160/160/160 161/161/161 162/162/162
f 163/163/163 164/164/164 165/165/165
f 166/166/166 167/167/167 168/168/168
f 169/169/169 170/170/170 171/171/171
f 172/172/172 173/173/173 174/174/174
