mtllib med_console_s.mtl
o tile_console
usemtl PDX08_-_Default
v -0.49999950000000126 -0.20000000298023224 0.5000004999999987
v 0.5000004999999987 -0.20000000298023224 0.49999950000000126
v -0.49999949999201426 0.14500000327825546 0.5000084870223986
v 0.5000005000079857 0.14500000327825546 0.5000074870224012
v -0.49999949999201426 0.14500000327825546 0.5000084870223986
v 0.5000004999999987 -0.20000000298023224 0.49999950000000126
v -0.5000004999999987 0.14500000327825546 -0.49999950000000126
v 0.49999950000000126 0.14500000327825546 -0.5000004999999987
v -0.5000004999999987 -0.20000000298023224 -0.49999950000000126
v 0.49999950000000126 -0.20000000298023224 -0.5000004999999987
v -0.5000004999999987 -0.20000000298023224 -0.49999950000000126
v 0.49999950000000126 0.14500000327825546 -0.5000004999999987
v -0.5000004999999987 -0.20000000298023224 -0.49999950000000126
v -0.49999950000000126 -0.20000000298023224 0.5000004999999987
v -0.5000004999999987 0.14500000327825546 -0.49999950000000126
v -0.49999949999201426 0.14500000327825546 0.5000084870223986
v -0.5000004999999987 0.14500000327825546 -0.49999950000000126
v -0.49999950000000126 -0.20000000298023224 0.5000004999999987
v 0.5000004999999987 -0.20000000298023224 0.49999950000000126
v 0.49999950000000126 -0.20000000298023224 -0.5000004999999987
v 0.5000005000079857 0.14500000327825546 0.5000074870224012
v 0.49999950000000126 0.14500000327825546 -0.5000004999999987
v 0.5000005000079857 0.14500000327825546 0.5000074870224012
v 0.49999950000000126 -0.20000000298023224 -0.5000004999999987
v 0.22310716624678628 0.7029580101370811 0.18592277210271416
v -0.22311180120694685 0.7029580101370811 0.18590722937571946
v 0.22310735838478712 0.6599779948592186 0.3780607734254604
v -0.22311180120694685 0.7029580101370811 0.18590722937571946
v -0.22311262231892443 0.6599779948592186 0.3780742134580011
v 0.22310735838478712 0.6599779948592186 0.3780607734254604
v 0.22310817952574746 0.5418880209326744 0.18592277210170086
v 0.22310716624678628 0.7029580101370811 0.18592277210271416
v 0.22310735838478712 0.5418880209326744 0.3780607734254604
v 0.22310735838478712 0.6599779948592186 0.3780607734254604
v 0.22310735838478712 0.5418880209326744 0.3780607734254604
v 0.22310716624678628 0.7029580101370811 0.18592277210271416
v 0.22310716624678628 0.7029580101370811 0.18592277210271416
v 0.22310817952574746 0.5418880209326744 0.18592277210170086
v -0.22311180120694685 0.7029580101370811 0.18590722937571946
v -0.22311262231892443 0.5418880209326744 0.3780742134580011
v -0.22311262231892443 0.6599779948592186 0.3780742134580011
v -0.22311081773030805 0.5418880209326744 0.18590722937473597
v -0.22311180120694685 0.7029580101370811 0.18590722937571946
v -0.22311081773030805 0.5418880209326744 0.18590722937473597
v -0.22311262231892443 0.6599779948592186 0.3780742134580011
v 0.22310735838478712 0.5418880209326744 0.3780607734254604
v 0.22310735838478712 0.6599779948592186 0.3780607734254604
v -0.22311262231892443 0.5418880209326744 0.3780742134580011
v -0.22311262231892443 0.6599779948592186 0.3780742134580011
v -0.22311262231892443 0.5418880209326744 0.3780742134580011
v 0.22310735838478712 0.6599779948592186 0.3780607734254604
v 0.22310817952574746 0.5418880209326744 0.18592277210170086
v -0.22311081773030805 0.5418880209326744 0.18590722937473597
v -0.22311180120694685 0.7029580101370811 0.18590722937571946
v 0.22310735838478712 0.5418880209326744 0.3780607734254604
v 0.3108343686348787 0.14368899911642075 0.3780606856984504
v 0.22310817952574746 0.5418880209326744 0.18592277210170086
v 0.310835189775839 0.14368899911642075 0.18592268437469084
v 0.22310817952574746 0.5418880209326744 0.18592277210170086
v 0.3108343686348787 0.14368899911642075 0.3780606856984504
v -0.22311081773030805 0.5418880209326744 0.18590722937473597
v -0.3108378130792384 0.14368800073862076 0.1859073171017311
v -0.22311262231892443 0.5418880209326744 0.3780742134580011
v -0.3108396176678548 0.14368800073862076 0.3780743011849962
v -0.22311262231892443 0.5418880209326744 0.3780742134580011
v -0.3108378130792384 0.14368800073862076 0.1859073171017311
v -0.22311262231892443 0.5418880209326744 0.3780742134580011
v -0.3108396176678548 0.14368800073862076 0.3780743011849962
v 0.22310735838478712 0.5418880209326744 0.3780607734254604
v 0.3108343686348787 0.14368899911642075 0.3780606856984504
v 0.22310735838478712 0.5418880209326744 0.3780607734254604
v -0.3108396176678548 0.14368800073862076 0.3780743011849962
v 0.22310817952574746 0.5418880209326744 0.18592277210170086
v 0.310835189775839 0.14368899911642075 0.18592268437469084
v -0.22311081773030805 0.5418880209326744 0.18590722937473597
v -0.3108378130792384 0.14368800073862076 0.1859073171017311
v -0.22311081773030805 0.5418880209326744 0.18590722937473597
v 0.310835189775839 0.14368899911642075 0.18592268437469084
v 0.3108343686348787 0.14368899911642075 0.3780606856984504
v -0.3108396176678548 0.14368800073862076 0.3780743011849962
v 0.5000005000079857 0.14500000327825546 0.5000074870224012
v -0.3108396176678548 0.14368800073862076 0.3780743011849962
v -0.49999949999201426 0.14500000327825546 0.5000084870223986
v 0.5000005000079857 0.14500000327825546 0.5000074870224012
v -0.3108378130792384 0.14368800073862076 0.1859073171017311
v -0.5000004999999987 0.14500000327825546 -0.49999950000000126
v -0.3108396176678548 0.14368800073862076 0.3780743011849962
v -0.5000004999999987 0.14500000327825546 -0.49999950000000126
v -0.49999949999201426 0.14500000327825546 0.5000084870223986
v -0.3108396176678548 0.14368800073862076 0.3780743011849962
v 0.310835189775839 0.14368899911642075 0.18592268437469084
v 0.3108343686348787 0.14368899911642075 0.3780606856984504
v 0.49999950000000126 0.14500000327825546 -0.5000004999999987
v 0.3108343686348787 0.14368899911642075 0.3780606856984504
v 0.5000005000079857 0.14500000327825546 0.5000074870224012
v 0.49999950000000126 0.14500000327825546 -0.5000004999999987
v -0.3108378130792384 0.14368800073862076 0.1859073171017311
v 0.310835189775839 0.14368899911642075 0.18592268437469084
v -0.5000004999999987 0.14500000327825546 -0.49999950000000126
v 0.310835189775839 0.14368899911642075 0.18592268437469084
v 0.49999950000000126 0.14500000327825546 -0.5000004999999987
v -0.5000004999999987 0.14500000327825546 -0.49999950000000126
vt 0.3610610067844391 0.77435702085495
vt 0.20366500318050385 0.77435702085495
vt 0.3610610067844391 0.8081539869308472
vt 0.20366500318050385 0.8081539869308472
vt 0.3610610067844391 0.8081539869308472
vt 0.20366500318050385 0.77435702085495
vt 0.3610610067844391 0.8081539869308472
vt 0.20366500318050385 0.8081539869308472
vt 0.3610610067844391 0.77435702085495
vt 0.20366500318050385 0.77435702085495
vt 0.3610610067844391 0.77435702085495
vt 0.20366500318050385 0.8081539869308472
vt 0.2034579962491989 0.7743769884109497
vt 0.36325201392173767 0.7743769884109497
vt 0.20343300700187683 0.8077499866485596
vt 0.36327698826789856 0.8077499866485596
vt 0.20343300700187683 0.8077499866485596
vt 0.36325201392173767 0.7743769884109497
vt 0.36325201392173767 0.7743769884109497
vt 0.2034579962491989 0.7743769884109497
vt 0.36327698826789856 0.8077499866485596
vt 0.20343300700187683 0.8077499866485596
vt 0.36327698826789856 0.8077499866485596
vt 0.2034579962491989 0.7743769884109497
vt 0.9907050132751465 0.35225701332092285
vt 0.9907079935073853 0.494903028011322
vt 0.9416149854660034 0.35225600004196167
vt 0.9907079935073853 0.494903028011322
vt 0.9416069984436035 0.49490201473236084
vt 0.9416149854660034 0.35225600004196167
vt 0.4504930078983307 0.6546410322189331
vt 0.4823490083217621 0.6546410322189331
vt 0.4504930078983307 0.7009010314941406
vt 0.47467100620269775 0.7009010314941406
vt 0.4504930078983307 0.7009010314941406
vt 0.4849590063095093 0.6574339866638184
vt 0.9128810167312622 0.6192629933357239
vt 0.9128810167312622 0.592985987663269
vt 0.9764699935913086 0.6192629933357239
vt 0.4504930078983307 0.7009029984474182
vt 0.47467100620269775 0.7009029984474182
vt 0.4504930078983307 0.6546390056610107
vt 0.4823490083217621 0.6546390056610107
vt 0.4504930078983307 0.6546390056610107
vt 0.47467100620269775 0.7009029984474182
vt 0.9128819704055786 0.592985987663269
vt 0.9128819704055786 0.6111960411071777
vt 0.9764699935913086 0.592985987663269
vt 0.9764699935913086 0.6111960411071777
vt 0.9764699935913086 0.592985987663269
vt 0.9128819704055786 0.6111960411071777
vt 0.9128810167312622 0.592985987663269
vt 0.9764699935913086 0.592985987663269
vt 0.9764699935913086 0.6192629933357239
vt 0.5910210013389587 0.7031919956207275
vt 0.47955599427223206 0.7031919956207275
vt 0.5910210013389587 0.6505759954452515
vt 0.47955599427223206 0.6505759954452515
vt 0.5910210013389587 0.6505759954452515
vt 0.47955599427223206 0.7031919956207275
vt 0.5910210013389587 0.6505750417709351
vt 0.47955599427223206 0.6505750417709351
vt 0.5910210013389587 0.7031930088996887
vt 0.47955599427223206 0.7031930088996887
vt 0.5910210013389587 0.7031930088996887
vt 0.47955599427223206 0.6505750417709351
vt 0.9764699935913086 0.592985987663269
vt 0.988972008228302 0.5182459950447083
vt 0.9128819704055786 0.592985987663269
vt 0.90038001537323 0.5182459950447083
vt 0.9128819704055786 0.592985987663269
vt 0.988972008228302 0.5182459950447083
vt 0.9128810167312622 0.592985987663269
vt 0.90038001537323 0.5182459950447083
vt 0.9764699935913086 0.592985987663269
vt 0.988972008228302 0.5182459950447083
vt 0.9764699935913086 0.592985987663269
vt 0.90038001537323 0.5182459950447083
vt 0.8648660182952881 0.6128810048103333
vt 0.8648669719696045 0.5377739667892456
vt 0.8795980215072632 0.635733962059021
vt 0.8648669719696045 0.5377739667892456
vt 0.8795980215072632 0.5149210095405579
vt 0.8795980215072632 0.635733962059021
vt 0.8416510224342346 0.5377739667892456
vt 0.7587850093841553 0.5149210095405579
vt 0.8648669719696045 0.5377739667892456
vt 0.7587850093841553 0.5149210095405579
vt 0.8795980215072632 0.5149210095405579
vt 0.8648669719696045 0.5377739667892456
vt 0.8416529893875122 0.6128810048103333
vt 0.8648660182952881 0.6128810048103333
vt 0.7587850093841553 0.635733962059021
vt 0.8648660182952881 0.6128810048103333
vt 0.8795980215072632 0.635733962059021
vt 0.7587850093841553 0.635733962059021
vt 0.8416510224342346 0.5377739667892456
vt 0.8416529893875122 0.6128810048103333
vt 0.7587850093841553 0.5149210095405579
vt 0.8416529893875122 0.6128810048103333
vt 0.7587850093841553 0.635733962059021
vt 0.7587850093841553 0.5149210095405579
vn 9.999999972332426e-7 -0.000022000000166516018 0.9999999997575
vn 9.999999972332426e-7 -0.000022000000166516018 0.9999999997575
vn 9.999999972332426e-7 -0.000022000000166516018 0.9999999997575
vn 9.999999972332426e-7 -0.000022000000166516018 0.9999999997575
vn 9.999999972332426e-7 -0.000022000000166516018 0.9999999997575
vn 9.999999972332426e-7 -0.000022000000166516018 0.9999999997575
vn -9.999999974752427e-7 0 -0.9999999999995002
vn -9.999999974752427e-7 0 -0.9999999999995002
vn -9.999999974752427e-7 0 -0.9999999999995002
vn -9.999999974752427e-7 0 -0.9999999999995002
vn -9.999999974752427e-7 0 -0.9999999999995002
vn -9.999999974752427e-7 0 -0.9999999999995002
vn -0.9999999999995002 0 9.999999974752427e-7
vn -0.9999999999995002 0 9.999999974752427e-7
vn -0.9999999999995002 0 9.999999974752427e-7
vn -0.9999999999995002 0 9.999999974752427e-7
vn -0.9999999999995002 0 9.999999974752427e-7
vn -0.9999999999995002 0 9.999999974752427e-7
vn 0.9999999999995002 0 -9.999999974752427e-7
vn 0.9999999999995002 0 -9.999999974752427e-7
vn 0.9999999999995002 0 -9.999999974752427e-7
vn 0.9999999999995002 0 -9.999999974752427e-7
vn 0.9999999999995002 0 -9.999999974752427e-7
vn 0.9999999999995002 0 -9.999999974752427e-7
vn -0.000007781700512509186 0.9758819352830609 0.21829898837977396
vn -0.000007781700512509186 0.9758819352830609 0.21829898837977396
vn -0.000007781700512509186 0.9758819352830609 0.21829898837977396
vn 0.000005218266929045592 0.9758886590161236 0.21826892856401228
vn 0.000005218266929045592 0.9758886590161236 0.21826892856401228
vn 0.000005218266929045592 0.9758886590161236 0.21826892856401228
vn 0.9999999999955 0 0.0000029999999923997284
vn 0.9999999999955 0 0.0000029999999923997284
vn 0.9999999999955 0 0.0000029999999923997284
vn 0.99999999999 0.0000019999999949224855 0.000003999999876153634
vn 0.9999999999955 0 0.0000029999999923997284
vn 0.99999999999 0.0000019999999949224855 0.000003999999876153634
vn 0.00003400000091649729 0 -0.9999999994220001
vn 0.00003400000091649729 0 -0.9999999994220001
vn 0.00003400000091649729 0 -0.9999999994220001
vn -0.999999999975 -9.999999974432427e-7 -0.000006999999982095198
vn -0.999999999975 -9.999999974432427e-7 -0.000006999999982095198
vn -0.999999999975 -9.999999974432427e-7 -0.000006999999982095198
vn -0.999999999975 -9.999999974432427e-7 -0.000006999999982095198
vn -0.999999999975 -9.999999974432427e-7 -0.000006999999982095198
vn -0.999999999975 -9.999999974432427e-7 -0.000006999999982095198
vn 0.000030999999225631 9.99999997025243e-7 0.9999999995190001
vn 0.000030999999225631 9.99999997025243e-7 0.9999999995190001
vn 0.000030999999225631 9.99999997025243e-7 0.9999999995190001
vn 0.000030999999225631 9.99999997025243e-7 0.9999999995190001
vn 0.000030999999225631 9.99999997025243e-7 0.9999999995190001
vn 0.000030999999225631 9.99999997025243e-7 0.9999999995190001
vn 0.00003400000091649729 0 -0.9999999994220001
vn 0.00003400000091649729 0 -0.9999999994220001
vn 0.00003400000091649729 0 -0.9999999994220001
vn 0.9765810121330082 0.21515000984702481 0.0000020234192915570815
vn 0.9765810121330082 0.21515000984702481 0.0000020234192915570815
vn 0.9765810121330082 0.21515000984702481 0.0000020234192915570815
vn 0.9765810121271956 0.21515000984530366 0.000004023418886009778
vn 0.9765810121330082 0.21515000984702481 0.0000020234192915570815
vn 0.9765810121330082 0.21515000984702481 0.0000020234192915570815
vn -0.9765812235311236 0.2151490502190791 -0.000006023420803909053
vn -0.9765812235311236 0.2151490502190791 -0.000006023420803909053
vn -0.9765812235311236 0.2151490502190791 -0.000006023420803909053
vn -0.9765810120955737 0.2151500098372355 -0.000009023418781338229
vn -0.9765812235311236 0.2151490502190791 -0.000006023420803909053
vn -0.9765812235311236 0.2151490502190791 -0.000006023420803909053
vn 0.000030999999225631 9.99999997025243e-7 0.9999999995190001
vn 0.00003099999922488701 -0.000007000000092695538 0.9999999994950002
vn 0.000030999999225631 9.99999997025243e-7 0.9999999995190001
vn 0.000021999999825632003 0.0000049999998725268765 0.9999999997455001
vn 0.000030999999225631 9.99999997025243e-7 0.9999999995190001
vn 0.000021999999825632003 0.0000049999998725268765 0.9999999997455001
vn 0.00003400000091649729 0 -0.9999999994220001
vn 0.00003400000091540929 0.000007999999974649942 -0.99999999939
vn 0.00003400000091649729 0 -0.9999999994220001
vn 0.00002399999936302714 -0.000006000000210245133 -0.9999999996940001
vn 0.00002399999936302714 -0.000006000000210245133 -0.9999999996940001
vn 0.00002399999936302714 -0.000006000000210245133 -0.9999999996940001
vn -0.0000010107492122754031 0.9999422278005822 -0.010749002753135764
vn -0.0000010107492122754031 0.9999422278005822 -0.010749002753135764
vn -0.0000010107492122754031 0.9999422278005822 -0.010749002753135764
vn -0.0000010107492122754031 0.9999422278005822 -0.010749002753135764
vn -1.0756001737797177e-8 0.9999421525398517 -0.010756001764948094
vn -0.0000010107492122754031 0.9999422278005822 -0.010749002753135764
vn 0.0069329998495560735 0.9999759664677377 -6.932999832055398e-9
vn 0.0069329998495560735 0.9999759664677377 -6.932999832055398e-9
vn 0.0069329998495560735 0.9999759664677377 -6.932999832055398e-9
vn 0.0069329998495560735 0.9999759664677377 -6.932999832055398e-9
vn 0.0069329998495560735 0.9999759664677377 -6.932999832055398e-9
vn 0.0069329998495560735 0.9999759664677377 -6.932999832055398e-9
vn -0.00693400004289643 0.9999759595322374 -9.930659776534556e-7
vn -0.00693400004289643 0.9999759595322374 -9.930659776534556e-7
vn -0.00693400004289643 0.9999759595322374 -9.930659776534556e-7
vn -0.00693400004289643 0.9999759595322374 -9.930659776534556e-7
vn -0.006930000203677621 0.9999759872602827 6.930000186184517e-9
vn -0.00693400004289643 0.9999759595322374 -9.930659776534556e-7
vn -9.980881847203979e-7 0.999998172125071 0.0019120003976808761
vn -9.980881847203979e-7 0.999998172125071 0.0019120003976808761
vn -9.980881847203979e-7 0.999998172125071 0.0019120003976808761
vn -9.980881847203979e-7 0.999998172125071 0.0019120003976808761
vn 1.9120003918554508e-9 0.9999981721255711 0.001912000396681832
vn -9.980881847203979e-7 0.999998172125071 0.0019120003976808761
f 1/1/1 2/2/2 3/3/3
f 4/4/4 5/5/5 6/6/6
f 7/7/7 8/8/8 9/9/9
f 10/10/10 11/11/11 12/12/12
f 13/13/13 14/14/14 15/15/15
f 16/16/16 17/17/17 18/18/18
f 19/19/19 20/20/20 21/21/21
f 22/22/22 23/23/23 24/24/24
f 25/25/25 26/26/26 27/27/27
f 28/28/28 29/29/29 30/30/30
f 31/31/31 32/32/32 33/33/33
f 34/34/34 35/35/35 36/36/36
f 37/37/37 38/38/38 39/39/39
f 40/40/40 41/41/41 42/42/42
f 43/43/43 44/44/44 45/45/45
f 46/46/46 47/47/47 48/48/48
f 49/49/49 50/50/50 51/51/51
f 52/52/52 53/53/53 54/54/54
f 55/55/55 56/56/56 57/57/57
f 58/58/58 59/59/59 60/60/60
f 61/61/61 62/62/62 63/63/63
f 64/64/64 65/65/65 66/66/66
f 67/67/67 68/68/68 69/69/69
f 70/70/70 71/71/71 72/72/72
f 73/73/73 74/74/74 75/75/75
f 76/76/76 77/77/77 78/78/78
f 79/79/79 80/80/80 81/81/81
f 82/82/82 83/83/83 84/84/84
f 85/85/85 86/86/86 87/87/87
f 88/88/88 89/89/89 90/90/90
f 91/91/91 92/92/92 93/93/93
f 94/94/94 95/95/95 96/96/96
f 97/97/97 98/98/98 99/99/99
f 100/100/100 101/101/101 102/102/102
