# Modified by OBJRotate180 (Mesh rotated 180 degrees around Y-axis)
# Original file: med_tile_sml_red_hse.obj
mtllib Materials/med_tile_sml_red_hse.mtl
v -0.500000 -0.200000 0.499996
v 0.500000 -0.200000 0.499996
v -0.500000 0.145000 0.500004
v 0.500000 0.145000 0.500004
v -0.500000 0.145000 0.500004
v 0.500000 -0.200000 0.499996
v -0.500000 0.145000 -0.500004
v 0.500000 0.145000 -0.500004
v -0.500000 -0.200000 -0.500004
v 0.500000 -0.200000 -0.500004
v -0.500000 -0.200000 -0.500004
v 0.500000 0.145000 -0.500004
v -0.500000 -0.200000 -0.500004
v -0.500000 -0.200000 0.499996
v -0.500000 0.145000 -0.500004
v -0.500000 0.145000 0.500004
v -0.500000 0.145000 -0.500004
v -0.500000 -0.200000 0.499996
v 0.500000 -0.200000 0.499996
v 0.500000 -0.200000 -0.500004
v 0.500000 0.145000 0.500004
v 0.500000 0.145000 -0.500004
v 0.500000 0.145000 0.500004
v 0.500000 -0.200000 -0.500004
v 0.347667 1.594708 0.056854
v 0.347667 1.594708 -0.126348
v 0.248882 1.594708 0.056854
v 0.248882 1.594708 -0.126348
v 0.248882 1.594708 0.056854
v 0.347667 1.594708 -0.126348
v 0.347667 1.172435 0.056854
v 0.347667 1.594708 0.056854
v 0.248882 1.172435 0.056854
v 0.248882 1.594708 0.056854
v 0.248882 1.172435 0.056854
v 0.347667 1.594708 0.056854
v 0.347667 1.172435 -0.126348
v 0.347667 1.594708 -0.126348
v 0.347667 1.172435 0.056854
v 0.347667 1.594708 0.056854
v 0.347667 1.172435 0.056854
v 0.347667 1.594708 -0.126348
v 0.248882 1.172435 -0.126348
v 0.248882 1.594708 -0.126348
v 0.347667 1.172435 -0.126348
v 0.347667 1.594708 -0.126348
v 0.347667 1.172435 -0.126348
v 0.248882 1.594708 -0.126348
v 0.248882 1.172435 0.056854
v 0.248882 1.594708 0.056854
v 0.248882 1.172435 -0.126348
v 0.248882 1.594708 -0.126348
v 0.248882 1.172435 -0.126348
v 0.248882 1.594708 0.056854
v -0.299173 0.659323 -0.366592
v -0.299067 0.143773 -0.368944
v -0.299173 0.659323 0.364574
v -0.299067 0.143773 0.369046
v -0.299173 0.659323 0.364574
v -0.299067 0.143773 -0.368944
v -0.299173 0.659323 0.364574
v -0.299067 0.143773 0.369046
v 0.296591 0.659323 0.364574
v 0.298921 0.143773 0.369046
v 0.296591 0.659323 0.364574
v -0.299067 0.143773 0.369046
v 0.296591 0.659323 0.364574
v 0.298921 0.143773 0.369046
v 0.296591 0.659323 -0.366592
v 0.298921 0.143773 -0.368944
v 0.296591 0.659323 -0.366592
v 0.298921 0.143773 0.369046
v 0.296591 0.659323 -0.366592
v 0.298921 0.143773 -0.368944
v -0.299173 0.659323 -0.366592
v -0.299067 0.143773 -0.368944
v -0.299173 0.659323 -0.366592
v 0.298921 0.143773 -0.368944
v 0.075344 1.702418 -0.460031
v -0.078072 1.702418 -0.460031
v 0.075344 1.702418 0.458111
v -0.078073 1.702418 0.458111
v 0.075344 1.702418 0.458111
v -0.078072 1.702418 -0.460031
v -0.391863 1.022236 -0.403034
v -0.391863 0.640603 -0.403034
v -0.391863 1.022236 0.401115
v -0.391863 0.640603 0.401115
v -0.391863 1.022236 0.401115
v -0.391863 0.640603 -0.403034
v -0.391863 1.022236 0.401115
v -0.391863 0.640603 0.401115
v 0.389135 1.022237 0.401115
v 0.389135 0.640603 0.401115
v 0.389135 1.022237 0.401115
v -0.391863 0.640603 0.401115
v 0.389135 1.022237 0.401115
v 0.389135 0.640603 0.401115
v 0.389135 1.022237 -0.403034
v 0.389135 0.640603 -0.403034
v 0.389135 1.022237 -0.403034
v 0.389135 0.640603 0.401115
v 0.389135 1.022237 -0.403034
v 0.389135 0.640603 -0.403034
v -0.391863 1.022236 -0.403034
v -0.391863 0.640603 -0.403034
v -0.391863 1.022236 -0.403034
v 0.389135 0.640603 -0.403034
v -0.078072 1.702418 -0.460031
v -0.437986 1.047625 -0.460031
v -0.078073 1.702418 0.458111
v -0.437986 1.047625 0.458111
v -0.078073 1.702418 0.458111
v -0.437986 1.047625 -0.460031
v -0.072160 1.594760 0.401115
v -0.391863 1.022236 0.401115
v 0.069431 1.594760 0.401115
v 0.389135 1.022237 0.401115
v 0.069431 1.594760 0.401115
v -0.391863 1.022236 0.401115
v 0.075344 1.702418 0.458111
v 0.435258 1.047626 0.458111
v 0.075344 1.702418 -0.460031
v 0.435258 1.047626 -0.460031
v 0.075344 1.702418 -0.460031
v 0.435258 1.047626 0.458111
v 0.069431 1.594760 -0.403034
v 0.389135 1.022237 -0.403034
v -0.072160 1.594760 -0.403034
v -0.391863 1.022236 -0.403034
v -0.072160 1.594760 -0.403034
v 0.389135 1.022237 -0.403034
v -0.078073 1.702418 0.458111
v -0.072160 1.594760 0.401115
v 0.075344 1.702418 0.458111
v 0.069431 1.594760 0.401115
v 0.075344 1.702418 0.458111
v -0.072160 1.594760 0.401115
v 0.075344 1.702418 -0.460031
v 0.069431 1.594760 -0.403034
v -0.078072 1.702418 -0.460031
v -0.072160 1.594760 -0.403034
v -0.078072 1.702418 -0.460031
v 0.069431 1.594760 -0.403034
v -0.437986 1.047625 -0.460031
v -0.391863 1.022236 -0.403034
v -0.437986 1.047625 0.458111
v -0.391863 1.022236 0.401115
v -0.437986 1.047625 0.458111
v -0.391863 1.022236 -0.403034
v 0.435258 1.047626 0.458111
v 0.389135 1.022237 0.401115
v 0.435258 1.047626 -0.460031
v 0.389135 1.022237 -0.403034
v 0.435258 1.047626 -0.460031
v 0.389135 1.022237 0.401115
v -0.437986 1.047625 0.458111
v -0.391863 1.022236 0.401115
v -0.078073 1.702418 0.458111
v -0.072160 1.594760 0.401115
v -0.078073 1.702418 0.458111
v -0.391863 1.022236 0.401115
v -0.078072 1.702418 -0.460031
v -0.072160 1.594760 -0.403034
v -0.437986 1.047625 -0.460031
v -0.391863 1.022236 -0.403034
v -0.437986 1.047625 -0.460031
v -0.072160 1.594760 -0.403034
v 0.075344 1.702418 0.458111
v 0.069431 1.594760 0.401115
v 0.435258 1.047626 0.458111
v 0.389135 1.022237 0.401115
v 0.435258 1.047626 0.458111
v 0.069431 1.594760 0.401115
v 0.435258 1.047626 -0.460031
v 0.389135 1.022237 -0.403034
v 0.075344 1.702418 -0.460031
v 0.069431 1.594760 -0.403034
v 0.075344 1.702418 -0.460031
v 0.389135 1.022237 -0.403034
v 0.298921 0.143773 0.369046
v 0.500000 0.145000 0.500004
v 0.298921 0.143773 -0.368944
v 0.500000 0.145000 0.500004
v 0.500000 0.145000 -0.500004
v 0.298921 0.143773 -0.368944
v -0.299067 0.143773 -0.368944
v 0.298921 0.143773 -0.368944
v -0.500000 0.145000 -0.500004
v 0.298921 0.143773 -0.368944
v 0.500000 0.145000 -0.500004
v -0.500000 0.145000 -0.500004
v -0.299067 0.143773 0.369046
v -0.299067 0.143773 -0.368944
v -0.500000 0.145000 0.500004
v -0.299067 0.143773 -0.368944
v -0.500000 0.145000 -0.500004
v -0.500000 0.145000 0.500004
v 0.298921 0.143773 0.369046
v -0.299067 0.143773 0.369046
v 0.500000 0.145000 0.500004
v -0.299067 0.143773 0.369046
v -0.500000 0.145000 0.500004
v 0.500000 0.145000 0.500004
vt 0.361061 0.774357
vt 0.203665 0.774357
vt 0.361061 0.808154
vt 0.203665 0.808154
vt 0.361061 0.808154
vt 0.203665 0.774357
vt 0.361061 0.808154
vt 0.203665 0.808154
vt 0.361061 0.774357
vt 0.203665 0.774357
vt 0.361061 0.774357
vt 0.203665 0.808154
vt 0.203458 0.774377
vt 0.363252 0.774377
vt 0.203433 0.807750
vt 0.363277 0.807750
vt 0.203433 0.807750
vt 0.363252 0.774377
vt 0.363252 0.774377
vt 0.203458 0.774377
vt 0.363277 0.807750
vt 0.203433 0.807750
vt 0.363277 0.807750
vt 0.203458 0.774377
vt 0.984323 0.250672
vt 0.958867 0.250672
vt 0.984323 0.235449
vt 0.958867 0.235449
vt 0.984323 0.235449
vt 0.958867 0.250672
vt 0.890988 0.277896
vt 0.890988 0.324472
vt 0.917419 0.278009
vt 0.917419 0.324585
vt 0.917419 0.278009
vt 0.890988 0.324472
vt 0.862064 0.276561
vt 0.862064 0.322886
vt 0.887879 0.276561
vt 0.887879 0.322886
vt 0.887879 0.276561
vt 0.862064 0.322886
vt 0.944574 0.278009
vt 0.944575 0.324585
vt 0.918144 0.277896
vt 0.918144 0.324472
vt 0.918144 0.277896
vt 0.944575 0.324585
vt 0.962552 0.279336
vt 0.962552 0.322756
vt 0.946204 0.279336
vt 0.946204 0.322756
vt 0.946204 0.279336
vt 0.962552 0.322756
vt 0.421099 0.079144
vt 0.421099 0.011439
vt 0.585952 0.079144
vt 0.585952 0.011439
vt 0.585952 0.079144
vt 0.421099 0.011439
vt 0.608227 0.074844
vt 0.608227 0.006979
vt 0.531298 0.074844
vt 0.531298 0.006979
vt 0.531298 0.074844
vt 0.608227 0.006979
vt 0.585952 0.079144
vt 0.585952 0.011439
vt 0.421099 0.079144
vt 0.421099 0.011439
vt 0.421099 0.079144
vt 0.585952 0.011439
vt 0.531298 0.074844
vt 0.531298 0.006979
vt 0.608227 0.074844
vt 0.608227 0.006979
vt 0.608227 0.074844
vt 0.531298 0.006979
vt 0.404335 0.269353
vt 0.404335 0.252818
vt 0.586525 0.269353
vt 0.586525 0.252129
vt 0.586525 0.269353
vt 0.404335 0.252818
vt 0.398346 0.156868
vt 0.398346 0.076718
vt 0.612170 0.156868
vt 0.612170 0.076718
vt 0.612170 0.156868
vt 0.398346 0.076718
vt 0.983445 0.154530
vt 0.983445 0.075745
vt 0.858121 0.154530
vt 0.858121 0.075745
vt 0.858121 0.154530
vt 0.983445 0.075745
vt 0.612170 0.156868
vt 0.612170 0.076718
vt 0.398346 0.156868
vt 0.398346 0.076718
vt 0.398346 0.156868
vt 0.612170 0.076718
vt 0.858121 0.154530
vt 0.858121 0.075745
vt 0.983445 0.154530
vt 0.983445 0.075745
vt 0.983445 0.154530
vt 0.858121 0.075745
vt 0.404335 0.252818
vt 0.404335 0.160158
vt 0.586525 0.252129
vt 0.586525 0.160158
vt 0.586525 0.252129
vt 0.404335 0.160158
vt 0.932143 0.237841
vt 0.983445 0.154530
vt 0.909423 0.237841
vt 0.858121 0.154530
vt 0.909423 0.237841
vt 0.983445 0.154530
vt 0.586525 0.269353
vt 0.586132 0.355014
vt 0.404335 0.269353
vt 0.404231 0.355014
vt 0.404335 0.269353
vt 0.586132 0.355014
vt 0.909423 0.237841
vt 0.858121 0.154530
vt 0.932143 0.237841
vt 0.983445 0.154530
vt 0.932143 0.237841
vt 0.858121 0.154530
vt 0.933092 0.251554
vt 0.932143 0.237841
vt 0.908474 0.251554
vt 0.909423 0.237841
vt 0.908474 0.251554
vt 0.932143 0.237841
vt 0.908474 0.251554
vt 0.909423 0.237841
vt 0.933092 0.251554
vt 0.932143 0.237841
vt 0.933092 0.251554
vt 0.909423 0.237841
vt 0.604662 0.160158
vt 0.619817 0.156868
vt 0.848797 0.160158
vt 0.833641 0.156868
vt 0.848797 0.160158
vt 0.619817 0.156868
vt 0.848797 0.160158
vt 0.833641 0.156868
vt 0.604662 0.160158
vt 0.619817 0.156868
vt 0.604662 0.160158
vt 0.833641 0.156868
vt 0.986903 0.164993
vt 0.979502 0.161759
vt 0.933092 0.251554
vt 0.932143 0.237841
vt 0.933092 0.251554
vt 0.979502 0.161759
vt 0.933092 0.251554
vt 0.932143 0.237841
vt 0.986903 0.164993
vt 0.979502 0.161759
vt 0.986903 0.164993
vt 0.932143 0.237841
vt 0.908474 0.251554
vt 0.909423 0.237841
vt 0.854663 0.166964
vt 0.862064 0.163730
vt 0.854663 0.166964
vt 0.909423 0.237841
vt 0.854663 0.166964
vt 0.862064 0.163730
vt 0.908474 0.251554
vt 0.909423 0.237841
vt 0.908474 0.251554
vt 0.862064 0.163730
vt 0.560826 0.528103
vt 0.586039 0.511682
vt 0.560826 0.620638
vt 0.586039 0.511682
vt 0.586039 0.637071
vt 0.560826 0.620638
vt 0.485844 0.620638
vt 0.560826 0.620638
vt 0.460650 0.637071
vt 0.560826 0.620638
vt 0.586039 0.637071
vt 0.460650 0.637071
vt 0.485844 0.528103
vt 0.485844 0.620638
vt 0.460650 0.511682
vt 0.485844 0.620638
vt 0.460650 0.637071
vt 0.460650 0.511682
vt 0.560826 0.528103
vt 0.485844 0.528103
vt 0.586039 0.511682
vt 0.485844 0.528103
vt 0.460650 0.511682
vt 0.586039 0.511682
vn 0.000000 -0.000022 1.000000
vn 0.000000 -0.000022 1.000000
vn 0.000000 -0.000022 1.000000
vn 0.000000 -0.000022 1.000000
vn 0.000000 -0.000022 1.000000
vn 0.000000 -0.000022 1.000000
vn 0.000000 0.000000 -1.000000
vn 0.000000 0.000000 -1.000000
vn 0.000000 0.000000 -1.000000
vn 0.000000 0.000000 -1.000000
vn 0.000000 0.000000 -1.000000
vn 0.000000 0.000000 -1.000000
vn -1.000000 0.000000 0.000000
vn -1.000000 0.000000 0.000000
vn -1.000000 0.000000 0.000000
vn -1.000000 0.000000 0.000000
vn -1.000000 0.000000 0.000000
vn -1.000000 0.000000 0.000000
vn 1.000000 0.000000 0.000000
vn 1.000000 0.000000 0.000000
vn 1.000000 0.000000 0.000000
vn 1.000000 0.000000 0.000000
vn 1.000000 0.000000 0.000000
vn 1.000000 0.000000 0.000000
vn 0.000000 1.000000 0.000000
vn 0.000000 1.000000 0.000000
vn 0.000000 1.000000 0.000000
vn 0.000000 1.000000 0.000000
vn 0.000000 1.000000 0.000000
vn 0.000000 1.000000 0.000000
vn 0.000000 0.000000 1.000000
vn 0.000000 0.000000 1.000000
vn 0.000000 0.000000 1.000000
vn 0.000000 0.000000 1.000000
vn 0.000000 0.000000 1.000000
vn 0.000000 0.000000 1.000000
vn 1.000000 0.000000 0.000000
vn 1.000000 0.000000 0.000000
vn 1.000000 0.000000 0.000000
vn 1.000000 0.000000 0.000000
vn 1.000000 0.000000 0.000000
vn 1.000000 0.000000 0.000000
vn 0.000000 0.000000 -1.000000
vn 0.000000 0.000000 -1.000000
vn 0.000000 0.000000 -1.000000
vn 0.000000 0.000000 -1.000000
vn 0.000000 0.000000 -1.000000
vn 0.000000 0.000000 -1.000000
vn -1.000000 0.000000 0.000000
vn -1.000000 0.000000 0.000000
vn -1.000000 0.000000 0.000000
vn -1.000000 0.000000 0.000000
vn -1.000000 0.000000 0.000000
vn -1.000000 0.000000 0.000000
vn -1.000000 -0.000207 0.000000
vn -1.000000 -0.000207 0.000000
vn -1.000000 -0.000207 0.000000
vn -1.000000 -0.000207 0.000000
vn -1.000000 -0.000207 0.000000
vn -1.000000 -0.000207 0.000000
vn 0.000000 0.008675 0.999962
vn 0.000000 0.008675 0.999962
vn 0.000000 0.008675 0.999962
vn 0.000000 0.008675 0.999962
vn 0.000000 0.008675 0.999962
vn 0.000000 0.008675 0.999962
vn 0.999990 0.004520 0.000000
vn 0.999990 0.004520 0.000000
vn 0.999990 0.004520 0.000000
vn 0.999990 0.004520 0.000000
vn 0.999990 0.004520 0.000000
vn 0.999990 0.004520 0.000000
vn 0.000000 0.004562 -0.999990
vn 0.000000 0.004562 -0.999990
vn 0.000000 0.004562 -0.999990
vn 0.000000 0.004562 -0.999990
vn 0.000000 0.004562 -0.999990
vn 0.000000 0.004562 -0.999990
vn -0.000002 1.000000 0.000000
vn -0.000002 1.000000 0.000000
vn -0.000002 1.000000 0.000000
vn -0.000002 1.000000 0.000000
vn -0.000002 1.000000 0.000000
vn -0.000002 1.000000 0.000000
vn -1.000000 0.000000 0.000000
vn -1.000000 0.000000 0.000000
vn -1.000000 0.000000 0.000000
vn -1.000000 0.000000 0.000000
vn -1.000000 0.000000 0.000000
vn -1.000000 0.000000 0.000000
vn 0.000000 0.000000 1.000000
vn 0.000000 0.000000 1.000000
vn 0.000000 0.000000 1.000000
vn 0.000000 0.000000 1.000000
vn 0.000000 0.000000 1.000000
vn 0.000000 0.000000 1.000000
vn 1.000000 0.000000 0.000000
vn 1.000000 0.000000 0.000000
vn 1.000000 0.000000 0.000000
vn 1.000000 0.000000 0.000000
vn 1.000000 0.000000 0.000000
vn 1.000000 0.000000 0.000000
vn 0.000000 0.000000 -1.000000
vn 0.000000 0.000000 -1.000000
vn 0.000000 0.000000 -1.000000
vn 0.000000 0.000000 -1.000000
vn 0.000000 0.000000 -1.000000
vn 0.000000 0.000000 -1.000000
vn -0.876341 0.481691 0.000000
vn -0.876341 0.481691 0.000000
vn -0.876341 0.481691 0.000000
vn -0.876341 0.481691 0.000000
vn -0.876341 0.481691 0.000000
vn -0.876341 0.481691 0.000000
vn 0.000000 0.000000 1.000000
vn 0.000000 0.000000 1.000000
vn 0.000000 0.000000 1.000000
vn 0.000000 0.000000 1.000000
vn 0.000000 0.000000 1.000000
vn 0.000000 0.000000 1.000000
vn 0.876341 0.481691 0.000000
vn 0.876341 0.481691 0.000000
vn 0.876341 0.481691 0.000000
vn 0.876341 0.481691 0.000000
vn 0.876341 0.481691 0.000000
vn 0.876341 0.481691 0.000000
vn 0.000000 0.000000 -1.000000
vn 0.000000 0.000000 -1.000000
vn 0.000000 0.000000 -1.000000
vn 0.000000 0.000000 -1.000000
vn 0.000000 0.000000 -1.000000
vn 0.000000 0.000000 -1.000000
vn 0.000001 -0.467893 0.883785
vn 0.000001 -0.467893 0.883785
vn 0.000001 -0.467893 0.883785
vn 0.000000 -0.467892 0.883786
vn 0.000001 -0.467893 0.883785
vn 0.000001 -0.467893 0.883785
vn 0.000001 -0.467892 -0.883786
vn 0.000001 -0.467892 -0.883786
vn 0.000001 -0.467892 -0.883786
vn 0.000000 -0.467893 -0.883785
vn 0.000001 -0.467892 -0.883786
vn 0.000001 -0.467892 -0.883786
vn -0.482229 -0.876045 0.000000
vn -0.482229 -0.876045 0.000000
vn -0.482229 -0.876045 0.000000
vn -0.482229 -0.876045 0.000000
vn -0.482229 -0.876045 0.000000
vn -0.482229 -0.876045 0.000000
vn 0.482229 -0.876045 0.000000
vn 0.482229 -0.876045 0.000000
vn 0.482229 -0.876045 0.000000
vn 0.482229 -0.876045 0.000000
vn 0.482229 -0.876045 0.000000
vn 0.482229 -0.876045 0.000000
vn 0.643729 -0.353833 0.678539
vn 0.643729 -0.353833 0.678539
vn 0.643729 -0.353833 0.678539
vn 0.613840 -0.342775 0.711130
vn 0.613840 -0.342775 0.711130
vn 0.613840 -0.342775 0.711130
vn 0.619434 -0.340479 -0.707372
vn 0.619434 -0.340479 -0.707372
vn 0.619434 -0.340479 -0.707372
vn 0.641352 -0.358138 -0.678532
vn 0.641352 -0.358138 -0.678532
vn 0.641352 -0.358138 -0.678532
vn -0.619432 -0.340478 0.707374
vn -0.619432 -0.340478 0.707374
vn -0.619432 -0.340478 0.707374
vn -0.641351 -0.358138 0.678532
vn -0.641351 -0.358138 0.678532
vn -0.641351 -0.358138 0.678532
vn -0.643730 -0.353833 -0.678538
vn -0.643730 -0.353833 -0.678538
vn -0.643730 -0.353833 -0.678538
vn -0.613838 -0.342774 -0.711132
vn -0.613838 -0.342774 -0.711132
vn -0.613838 -0.342774 -0.711132
vn -0.006100 0.999981 0.000000
vn -0.006100 0.999981 0.000000
vn -0.006100 0.999981 0.000000
vn -0.006100 0.999981 0.000000
vn -0.006100 0.999981 0.000000
vn -0.006100 0.999981 0.000000
vn 0.000000 0.999956 0.009361
vn 0.000000 0.999956 0.009361
vn 0.000000 0.999956 0.009361
vn 0.000000 0.999956 0.009361
vn 0.000000 0.999956 0.009359
vn 0.000000 0.999956 0.009361
vn 0.006105 0.999981 0.000000
vn 0.006105 0.999981 0.000000
vn 0.006105 0.999981 0.000000
vn 0.006105 0.999981 0.000000
vn 0.006105 0.999981 0.000000
vn 0.006105 0.999981 0.000000
vn 0.000000 0.999956 -0.009366
vn 0.000000 0.999956 -0.009366
vn 0.000000 0.999956 -0.009366
vn 0.000000 0.999956 -0.009366
vn 0.000000 0.999956 -0.009367
vn 0.000000 0.999956 -0.009366
o boundary_sml_red_house01
o boundary_sml_red_house01
usemtl med_tile_sml_red_hse
f 1/1/1 2/2/2 3/3/3
f 4/4/4 5/5/5 6/6/6
f 7/7/7 8/8/8 9/9/9
f 10/10/10 11/11/11 12/12/12
f 13/13/13 14/14/14 15/15/15
f 16/16/16 17/17/17 18/18/18
f 19/19/19 20/20/20 21/21/21
f 22/22/22 23/23/23 24/24/24
f 25/25/25 26/26/26 27/27/27
f 28/28/28 29/29/29 30/30/30
f 31/31/31 32/32/32 33/33/33
f 34/34/34 35/35/35 36/36/36
f 37/37/37 38/38/38 39/39/39
f 40/40/40 41/41/41 42/42/42
f 43/43/43 44/44/44 45/45/45
f 46/46/46 47/47/47 48/48/48
f 49/49/49 50/50/50 51/51/51
f 52/52/52 53/53/53 54/54/54
f 55/55/55 56/56/56 57/57/57
f 58/58/58 59/59/59 60/60/60
f 61/61/61 62/62/62 63/63/63
f 64/64/64 65/65/65 66/66/66
f 67/67/67 68/68/68 69/69/69
f 70/70/70 71/71/71 72/72/72
f 73/73/73 74/74/74 75/75/75
f 76/76/76 77/77/77 78/78/78
f 79/79/79 80/80/80 81/81/81
f 82/82/82 83/83/83 84/84/84
f 85/85/85 86/86/86 87/87/87
f 88/88/88 89/89/89 90/90/90
f 91/91/91 92/92/92 93/93/93
f 94/94/94 95/95/95 96/96/96
f 97/97/97 98/98/98 99/99/99
f 100/100/100 101/101/101 102/102/102
f 103/103/103 104/104/104 105/105/105
f 106/106/106 107/107/107 108/108/108
f 109/109/109 110/110/110 111/111/111
f 112/112/112 113/113/113 114/114/114
f 115/115/115 116/116/116 117/117/117
f 118/118/118 119/119/119 120/120/120
f 121/121/121 122/122/122 123/123/123
f 124/124/124 125/125/125 126/126/126
f 127/127/127 128/128/128 129/129/129
f 130/130/130 131/131/131 132/132/132
f 133/133/133 134/134/134 135/135/135
f 136/136/136 137/137/137 138/138/138
f 139/139/139 140/140/140 141/141/141
f 142/142/142 143/143/143 144/144/144
f 145/145/145 146/146/146 147/147/147
f 148/148/148 149/149/149 150/150/150
f 151/151/151 152/152/152 153/153/153
f 154/154/154 155/155/155 156/156/156
f 157/157/157 158/158/158 159/159/159
f 160/160/160 161/161/161 162/162/162
f 163/163/163 164/164/164 165/165/165
f 166/166/166 167/167/167 168/168/168
f 169/169/169 170/170/170 171/171/171
f 172/172/172 173/173/173 174/174/174
f 175/175/175 176/176/176 177/177/177
f 178/178/178 179/179/179 180/180/180
f 181/181/181 182/182/182 183/183/183
f 184/184/184 185/185/185 186/186/186
f 187/187/187 188/188/188 189/189/189
f 190/190/190 191/191/191 192/192/192
f 193/193/193 194/194/194 195/195/195
f 196/196/196 197/197/197 198/198/198
f 199/199/199 200/200/200 201/201/201
f 202/202/202 203/203/203 204/204/204
