mtllib med_tile_ns.mtl
o straight
usemtl PDX08_-_Default
v 0.49999597374730975 -0.20000000298023224 0.49999503954946745
v 0.4999960067940271 -0.20000000298023224 -0.5000049604544663
v 0.5000040203743544 0.1450049951672554 0.4999950395655608
v 0.500003993816427 0.1450049951672554 -0.5000049604384924
v 0.5000040203743544 0.1450049951672554 0.4999950395655608
v 0.4999960067940271 -0.20000000298023224 -0.5000049604544663
v -0.5000030129794512 0.1450049951672554 0.4999959005744481
v -0.500003993211695 0.1450049951672554 -0.500004099431512
v -0.50000399645609 -0.20000000298023224 0.4999959005724812
v -0.500003993211695 -0.20000000298023224 -0.500004099431512
v -0.50000399645609 -0.20000000298023224 0.4999959005724812
v -0.500003993211695 0.1450049951672554 -0.500004099431512
v -0.3339369890059912 0 -0.500004720971821
v -0.3339369922503862 0 0.49999527903217267
v 0.33392900258832336 0 -0.5000043389141577
v 0.3339289993439284 0 0.49999566108983595
v 0.33392900258832336 0 -0.5000043389141577
v -0.3339369922503862 0 0.49999527903217267
v 0.3339289993439284 0 0.49999566108983595
v 0.49999597374730975 -0.20000000298023224 0.49999503954946745
v 0.5000040203743544 0.1450049951672554 0.4999950395655608
v -0.50000399645609 -0.20000000298023224 0.4999959005724812
v 0.49999597374730975 -0.20000000298023224 0.49999503954946745
v -0.3339369922503862 0 0.49999527903217267
v 0.3339289993439284 0 0.49999566108983595
v -0.3339369922503862 0 0.49999527903217267
v 0.49999597374730975 -0.20000000298023224 0.49999503954946745
v -0.5000030129794512 0.1450049951672554 0.4999959005744481
v -0.50000399645609 -0.20000000298023224 0.4999959005724812
v -0.3339369922503862 0 0.49999527903217267
v 0.500003993816427 0.1450049951672554 -0.5000049604384924
v 0.4999960067940271 -0.20000000298023224 -0.5000049604544663
v 0.33392900258832336 0 -0.5000043389141577
v -0.3339369890059912 0 -0.500004720971821
v -0.500003993211695 -0.20000000298023224 -0.500004099431512
v -0.500003993211695 0.1450049951672554 -0.500004099431512
v 0.4999960067940271 -0.20000000298023224 -0.5000049604544663
v -0.500003993211695 -0.20000000298023224 -0.500004099431512
v 0.33392900258832336 0 -0.5000043389141577
v -0.3339369890059912 0 -0.500004720971821
v 0.33392900258832336 0 -0.5000043389141577
v -0.500003993211695 -0.20000000298023224 -0.500004099431512
v 0.33392900258832336 0 -0.5000043389141577
v 0.38582098514371277 0.1450049951672554 -0.5000042351301928
v 0.500003993816427 0.1450049951672554 -0.5000049604384924
v 0.3339289993439284 0 0.49999566108983595
v 0.385821995178279 0.1450049951672554 0.4999957648758273
v 0.33392900258832336 0 -0.5000043389141577
v 0.38582098514371277 0.1450049951672554 -0.5000042351301928
v 0.33392900258832336 0 -0.5000043389141577
v 0.385821995178279 0.1450049951672554 0.4999957648758273
v 0.5000040203743544 0.1450049951672554 0.4999950395655608
v 0.385821995178279 0.1450049951672554 0.4999957648758273
v 0.3339289993439284 0 0.49999566108983595
v -0.3339369922503862 0 0.49999527903217267
v -0.38582098778528306 0.1450049951672554 0.499996128938498
v -0.5000030129794512 0.1450049951672554 0.4999959005744481
v -0.3339369890059912 0 -0.500004720971821
v -0.38582199781984927 0.1450049951672554 -0.5000038710675221
v -0.3339369922503862 0 0.49999527903217267
v -0.38582098778528306 0.1450049951672554 0.499996128938498
v -0.3339369922503862 0 0.49999527903217267
v -0.38582199781984927 0.1450049951672554 -0.5000038710675221
v -0.500003993211695 0.1450049951672554 -0.500004099431512
v -0.38582199781984927 0.1450049951672554 -0.5000038710675221
v -0.3339369890059912 0 -0.500004720971821
v -0.38582098778528306 0.1450049951672554 0.499996128938498
v -0.38582199781984927 0.1450049951672554 -0.5000038710675221
v -0.5000030129794512 0.1450049951672554 0.4999959005744481
v -0.38582199781984927 0.1450049951672554 -0.5000038710675221
v -0.500003993211695 0.1450049951672554 -0.500004099431512
v -0.5000030129794512 0.1450049951672554 0.4999959005744481
v 0.38582098514371277 0.1450049951672554 -0.5000042351301928
v 0.385821995178279 0.1450049951672554 0.4999957648758273
v 0.5000040203743544 0.1450049951672554 0.4999950395655608
v 0.500003993816427 0.1450049951672554 -0.5000049604384924
v 0.38582098514371277 0.1450049951672554 -0.5000042351301928
v 0.5000040203743544 0.1450049951672554 0.4999950395655608
vt 0.37300899624824524 0.7746840119361877
vt 0.19226600229740143 0.7746840119361877
vt 0.37300899624824524 0.8122060298919678
vt 0.19226600229740143 0.8122060298919678
vt 0.37300899624824524 0.8122060298919678
vt 0.19226600229740143 0.7746840119361877
vt 0.37300899624824524 0.8122060298919678
vt 0.19226600229740143 0.8122060298919678
vt 0.37300899624824524 0.7746840119361877
vt 0.19226600229740143 0.7746840119361877
vt 0.37300899624824524 0.7746840119361877
vt 0.19226600229740143 0.8122060298919678
vt 0.11450300365686417 0.9874039888381958
vt 0.11450300365686417 0.8647010326385498
vt 0.18933500349521637 0.9874039888381958
vt 0.18933500349521637 0.8647010326385498
vt 0.18933500349521637 0.9874039888381958
vt 0.11450300365686417 0.8647010326385498
vt 0.5263180136680603 0.7903090119361877
vt 0.5461429953575134 0.7713479995727539
vt 0.5461429953575134 0.7997900247573853
vt 0.4119899868965149 0.7713479995727539
vt 0.5461429953575134 0.7713479995727539
vt 0.4318160116672516 0.7903090119361877
vt 0.5263180136680603 0.7903090119361877
vt 0.4318160116672516 0.7903090119361877
vt 0.5461429953575134 0.7713479995727539
vt 0.4119899868965149 0.7997900247573853
vt 0.4119899868965149 0.7713479995727539
vt 0.4318160116672516 0.7903090119361877
vt 0.5461429953575134 0.7997900247573853
vt 0.5461429953575134 0.7713479995727539
vt 0.5263180136680603 0.7903090119361877
vt 0.4318160116672516 0.7903090119361877
vt 0.4119899868965149 0.7713479995727539
vt 0.4119899868965149 0.7997900247573853
vt 0.5461429953575134 0.7713479995727539
vt 0.4119899868965149 0.7713479995727539
vt 0.5263180136680603 0.7903090119361877
vt 0.4318160116672516 0.7903090119361877
vt 0.5263180136680603 0.7903090119361877
vt 0.4119899868965149 0.7713479995727539
vt 0.5263180136680603 0.7903090119361877
vt 0.5308250188827515 0.7997900247573853
vt 0.5461429953575134 0.7997900247573853
vt 0.011962000280618668 0.7731840014457703
vt 0.011962000280618668 0.8031690120697021
vt 0.173226997256279 0.7731840014457703
vt 0.173226997256279 0.8031690120697021
vt 0.173226997256279 0.7731840014457703
vt 0.011962000280618668 0.8031690120697021
vt 0.5461429953575134 0.7997900247573853
vt 0.5308250188827515 0.7997900247573853
vt 0.5263180136680603 0.7903090119361877
vt 0.4318160116672516 0.7903090119361877
vt 0.42730799317359924 0.7997900247573853
vt 0.4119899868965149 0.7997900247573853
vt 0.01196100004017353 0.7732149958610535
vt 0.01196100004017353 0.8031420111656189
vt 0.17326299846172333 0.7732149958610535
vt 0.17326299846172333 0.8031420111656189
vt 0.17326299846172333 0.7732149958610535
vt 0.01196100004017353 0.8031420111656189
vt 0.4119899868965149 0.7997900247573853
vt 0.42730799317359924 0.7997900247573853
vt 0.4318160116672516 0.7903090119361877
vt 0.3802100121974945 0.8674860000610352
vt 0.3801349997520447 0.9815359711647034
vt 0.35675498843193054 0.8674860000610352
vt 0.3801349997520447 0.9815359711647034
vt 0.35673999786376953 0.9815359711647034
vt 0.35675498843193054 0.8674860000610352
vt 0.3801349997520447 0.9815359711647034
vt 0.3802100121974945 0.8674860000610352
vt 0.35675498843193054 0.8674860000610352
vt 0.35673999786376953 0.9815359711647034
vt 0.3801349997520447 0.9815359711647034
vt 0.35675498843193054 0.8674860000610352
vn 0.999999999758 -0.000022000000166505017 0
vn 0.999999999758 -0.000022000000166505017 0
vn 0.999999999758 -0.000022000000166505017 0
vn 0.999999999758 -0.000022000000166505017 0
vn 0.999999999758 -0.000022000000166505017 0
vn 0.999999999758 -0.000022000000166505017 0
vn -1 0 0
vn -1 0 0
vn -1 0 0
vn -1 0 0
vn -1 0 0
vn -1 0 0
vn 0 1 0
vn 0 1 0
vn 0 1 0
vn 0 1 0
vn 0 1 0
vn 0 1 0
vn 0.00000100000011115558 0 0.9999999999995
vn 0.00000100000011115558 0 0.9999999999995
vn 0.00000100000011115558 0 0.9999999999995
vn 0 0 1
vn 0.00000100000011115558 0 0.9999999999995
vn 0 0 1
vn 0.00000100000011115558 0 0.9999999999995
vn 0 0 1
vn 0.00000100000011115558 0 0.9999999999995
vn 0.00000100000011115558 0 0.9999999999995
vn 0 0 1
vn 0 0 1
vn -0.00000100000011115558 0 -0.9999999999995
vn -0.00000100000011115558 0 -0.9999999999995
vn -0.00000100000011115558 0 -0.9999999999995
vn -0.00000100000011115558 0 -0.9999999999995
vn -0.00000100000011115558 0 -0.9999999999995
vn -0.00000100000011115558 0 -0.9999999999995
vn -0.00000100000011115558 0 -0.9999999999995
vn -0.00000100000011115558 0 -0.9999999999995
vn -0.00000100000011115558 0 -0.9999999999995
vn -0.00000100000011115558 0 -0.9999999999995
vn -0.00000100000011115558 0 -0.9999999999995
vn -0.00000100000011115558 0 -0.9999999999995
vn -0.00000100000011115558 0 -0.9999999999995
vn 0 -9.999999974747427e-7 -0.9999999999995
vn -0.00000100000011115558 0 -0.9999999999995
vn -0.9415268541277121 0.3369379511962999 1.1694598829757411e-7
vn -0.9415268541277121 0.3369379511962999 1.1694598829757411e-7
vn -0.9415268541277121 0.3369379511962999 1.1694598829757411e-7
vn -0.9415268541277121 0.3369379511962999 1.1694598829757411e-7
vn -0.9415268541277121 0.3369379511962999 1.1694598829757411e-7
vn -0.9415268541277121 0.3369379511962999 1.1694598829757411e-7
vn 0.00000100000011115558 0 0.9999999999995
vn 0 9.999999974747427e-7 0.9999999999995
vn 0.00000100000011115558 0 0.9999999999995
vn 0 0 1
vn 0 -9.999999974747427e-7 0.9999999999995
vn 0.00000100000011115558 0 0.9999999999995
vn 0.9415426225360515 0.3368938852931599 -1.1691406636979551e-7
vn 0.9415426225360515 0.3368938852931599 -1.1691406636979551e-7
vn 0.9415426225360515 0.3368938852931599 -1.1691406636979551e-7
vn 0.9415426225360515 0.3368938852931599 -1.1691406636979551e-7
vn 0.9415426225360515 0.3368938852931599 -1.1691406636979551e-7
vn 0.9415426225360515 0.3368938852931599 -1.1691406636979551e-7
vn -0.00000100000011115558 0 -0.9999999999995
vn 0 9.999999974747427e-7 -0.9999999999995
vn -0.00000100000011115558 0 -0.9999999999995
vn 0 1 0
vn 0 1 0
vn 0 1 0
vn 0 1 0
vn 0 1 0
vn 0 1 0
vn 0 1 0
vn 0 1 0
vn 0 1 0
vn 0 1 0
vn 0 1 0
vn 0 1 0
f 1/1/1 2/2/2 3/3/3
f 4/4/4 5/5/5 6/6/6
f 7/7/7 8/8/8 9/9/9
f 10/10/10 11/11/11 12/12/12
f 13/13/13 14/14/14 15/15/15
f 16/16/16 17/17/17 18/18/18
f 19/19/19 20/20/20 21/21/21
f 22/22/22 23/23/23 24/24/24
f 25/25/25 26/26/26 27/27/27
f 28/28/28 29/29/29 30/30/30
f 31/31/31 32/32/32 33/33/33
f 34/34/34 35/35/35 36/36/36
f 37/37/37 38/38/38 39/39/39
f 40/40/40 41/41/41 42/42/42
f 43/43/43 44/44/44 45/45/45
f 46/46/46 47/47/47 48/48/48
f 49/49/49 50/50/50 51/51/51
f 52/52/52 53/53/53 54/54/54
f 55/55/55 56/56/56 57/57/57
f 58/58/58 59/59/59 60/60/60
f 61/61/61 62/62/62 63/63/63
f 64/64/64 65/65/65 66/66/66
f 67/67/67 68/68/68 69/69/69
f 70/70/70 71/71/71 72/72/72
f 73/73/73 74/74/74 75/75/75
f 76/76/76 77/77/77 78/78/78
