# Modified by OBJRotate180 (Mesh rotated 180 degrees around Y-axis)
# Original file: med_tile_boundary.obj
mtllib ../Materials/med_tile_boundary.mtl
v -0.500000 -0.200000 -0.500000
v -0.500000 -0.200000 0.500000
v -0.500008 0.145000 -0.500000
v -0.500008 0.145000 0.500000
v -0.500008 0.145000 -0.500000
v -0.500000 -0.200000 0.500000
v 0.500000 0.145000 -0.500000
v 0.500000 0.145000 0.500000
v 0.500000 -0.200000 -0.500000
v 0.500000 -0.200000 0.500000
v 0.500000 -0.200000 -0.500000
v 0.500000 0.145000 0.500000
v 0.500000 0.145000 0.500000
v 0.500000 0.145000 -0.500000
v -0.500008 0.145000 0.500000
v -0.500008 0.145000 -0.500000
v -0.500008 0.145000 0.500000
v 0.500000 0.145000 -0.500000
v 0.500000 -0.200000 -0.500000
v -0.500000 -0.200000 -0.500000
v 0.500000 0.145000 -0.500000
v -0.500008 0.145000 -0.500000
v 0.500000 0.145000 -0.500000
v -0.500000 -0.200000 -0.500000
v -0.500000 -0.200000 0.500000
v 0.500000 -0.200000 0.500000
v -0.500008 0.145000 0.500000
v 0.500000 0.145000 0.500000
v -0.500008 0.145000 0.500000
v 0.500000 -0.200000 0.500000
vt 0.361061 0.774357
vt 0.203665 0.774357
vt 0.361061 0.808154
vt 0.203665 0.808154
vt 0.361061 0.808154
vt 0.203665 0.774357
vt 0.361061 0.808154
vt 0.203665 0.808154
vt 0.361061 0.774357
vt 0.203665 0.774357
vt 0.361061 0.774357
vt 0.203665 0.808154
vt 0.705132 0.985715
vt 0.705132 0.875144
vt 0.820754 0.985715
vt 0.820754 0.875144
vt 0.820754 0.985715
vt 0.705132 0.875144
vt 0.203458 0.774377
vt 0.363252 0.774377
vt 0.203433 0.807750
vt 0.363277 0.807750
vt 0.203433 0.807750
vt 0.363252 0.774377
vt 0.363252 0.774377
vt 0.203458 0.774377
vt 0.363277 0.807750
vt 0.203433 0.807750
vt 0.363277 0.807750
vt 0.203458 0.774377
vn -1.000000 -0.000022 0.000000
vn -1.000000 -0.000022 0.000000
vn -1.000000 -0.000022 0.000000
vn -1.000000 -0.000022 0.000000
vn -1.000000 -0.000022 0.000000
vn -1.000000 -0.000022 0.000000
vn 1.000000 0.000000 0.000000
vn 1.000000 0.000000 0.000000
vn 1.000000 0.000000 0.000000
vn 1.000000 0.000000 0.000000
vn 1.000000 0.000000 0.000000
vn 1.000000 0.000000 0.000000
vn 0.000000 1.000000 0.000000
vn 0.000000 1.000000 0.000000
vn 0.000000 1.000000 0.000000
vn 0.000000 1.000000 0.000000
vn 0.000000 1.000000 0.000000
vn 0.000000 1.000000 0.000000
vn 0.000000 0.000000 -1.000000
vn 0.000000 0.000000 -1.000000
vn 0.000000 0.000000 -1.000000
vn 0.000000 0.000000 -1.000000
vn 0.000000 0.000000 -1.000000
vn 0.000000 0.000000 -1.000000
vn 0.000000 0.000000 1.000000
vn 0.000000 0.000000 1.000000
vn 0.000000 0.000000 1.000000
vn 0.000000 0.000000 1.000000
vn 0.000000 0.000000 1.000000
vn 0.000000 0.000000 1.000000
o tile_boundary02
o tile_boundary02
usemtl PDX08_-_Default
f 1/1/1 2/2/2 3/3/3
f 4/4/4 5/5/5 6/6/6
f 7/7/7 8/8/8 9/9/9
f 10/10/10 11/11/11 12/12/12
f 13/13/13 14/14/14 15/15/15
f 16/16/16 17/17/17 18/18/18
f 19/19/19 20/20/20 21/21/21
f 22/22/22 23/23/23 24/24/24
f 25/25/25 26/26/26 27/27/27
f 28/28/28 29/29/29 30/30/30
