mtllib med_tile_ew.mtl
o straight
usemtl PDX08_-_Default
v 0.4999990926653122 -0.20000000298023224 -0.4999999737472998
v -0.5000009073386216 -0.20000000298023224 -0.5000000067940171
v 0.4999990926814055 0.1450049951672554 -0.5000080203743446
v -0.5000009073226477 0.1450049951672554 -0.500007993816417
v 0.4999990926814055 0.1450049951672554 -0.5000080203743446
v -0.5000009073386216 -0.20000000298023224 -0.5000000067940171
v 0.4999999536902928 0.1450049951672554 0.49999901297946103
v -0.5000000463156673 0.1450049951672554 0.49999999321170485
v 0.49999995368832595 -0.20000000298023224 0.4999999964560998
v -0.5000000463156673 -0.20000000298023224 0.49999999321170485
v 0.49999995368832595 -0.20000000298023224 0.4999999964560998
v -0.5000000463156673 0.1450049951672554 0.49999999321170485
v -0.5000006678559763 0 0.33393298900600116
v 0.4999993321480174 0 0.3339329922503961
v -0.500000285798313 0 -0.33393300258831343
v 0.4999997142056807 0 -0.3339329993439185
v -0.500000285798313 0 -0.33393300258831343
v 0.4999993321480174 0 0.3339329922503961
v 0.4999997142056807 0 -0.3339329993439185
v 0.4999990926653122 -0.20000000298023224 -0.4999999737472998
v 0.4999990926814055 0.1450049951672554 -0.5000080203743446
v 0.49999995368832595 -0.20000000298023224 0.4999999964560998
v 0.4999990926653122 -0.20000000298023224 -0.4999999737472998
v 0.4999993321480174 0 0.3339329922503961
v 0.4999997142056807 0 -0.3339329993439185
v 0.4999993321480174 0 0.3339329922503961
v 0.4999990926653122 -0.20000000298023224 -0.4999999737472998
v 0.4999999536902928 0.1450049951672554 0.49999901297946103
v 0.49999995368832595 -0.20000000298023224 0.4999999964560998
v 0.4999993321480174 0 0.3339329922503961
v -0.5000009073226477 0.1450049951672554 -0.500007993816417
v -0.5000009073386216 -0.20000000298023224 -0.5000000067940171
v -0.500000285798313 0 -0.33393300258831343
v -0.5000006678559763 0 0.33393298900600116
v -0.5000000463156673 -0.20000000298023224 0.49999999321170485
v -0.5000000463156673 0.1450049951672554 0.49999999321170485
v -0.5000009073386216 -0.20000000298023224 -0.5000000067940171
v -0.5000000463156673 -0.20000000298023224 0.49999999321170485
v -0.500000285798313 0 -0.33393300258831343
v -0.5000006678559763 0 0.33393298900600116
v -0.500000285798313 0 -0.33393300258831343
v -0.5000000463156673 -0.20000000298023224 0.49999999321170485
v -0.500000285798313 0 -0.33393300258831343
v -0.500000182014348 0.1450049951672554 -0.38582498514370284
v -0.5000009073226477 0.1450049951672554 -0.500007993816417
v 0.4999997142056807 0 -0.3339329993439185
v 0.49999981799167204 0.1450049951672554 -0.3858259951782691
v -0.500000285798313 0 -0.33393300258831343
v -0.500000182014348 0.1450049951672554 -0.38582498514370284
v -0.500000285798313 0 -0.33393300258831343
v 0.49999981799167204 0.1450049951672554 -0.3858259951782691
v 0.4999990926814055 0.1450049951672554 -0.5000080203743446
v 0.49999981799167204 0.1450049951672554 -0.3858259951782691
v 0.4999997142056807 0 -0.3339329993439185
v 0.4999993321480174 0 0.3339329922503961
v 0.5000001820543427 0.1450049951672554 0.38581698778529294
v 0.4999999536902928 0.1450049951672554 0.49999901297946103
v -0.5000006678559763 0 0.33393298900600116
v -0.49999981795167736 0.1450049951672554 0.3858179978198592
v 0.4999993321480174 0 0.3339329922503961
v 0.5000001820543427 0.1450049951672554 0.38581698778529294
v 0.4999993321480174 0 0.3339329922503961
v -0.49999981795167736 0.1450049951672554 0.3858179978198592
v -0.5000000463156673 0.1450049951672554 0.49999999321170485
v -0.49999981795167736 0.1450049951672554 0.3858179978198592
v -0.5000006678559763 0 0.33393298900600116
v 0.5000001820543427 0.1450049951672554 0.38581698778529294
v -0.49999981795167736 0.1450049951672554 0.3858179978198592
v 0.4999999536902928 0.1450049951672554 0.49999901297946103
v -0.49999981795167736 0.1450049951672554 0.3858179978198592
v -0.5000000463156673 0.1450049951672554 0.49999999321170485
v 0.4999999536902928 0.1450049951672554 0.49999901297946103
v -0.500000182014348 0.1450049951672554 -0.38582498514370284
v 0.49999981799167204 0.1450049951672554 -0.3858259951782691
v 0.4999990926814055 0.1450049951672554 -0.5000080203743446
v -0.5000009073226477 0.1450049951672554 -0.500007993816417
v -0.500000182014348 0.1450049951672554 -0.38582498514370284
v 0.4999990926814055 0.1450049951672554 -0.5000080203743446
vt 0.37300899624824524 0.7746840119361877
vt 0.19226600229740143 0.7746840119361877
vt 0.37300899624824524 0.8122060298919678
vt 0.19226600229740143 0.8122060298919678
vt 0.37300899624824524 0.8122060298919678
vt 0.19226600229740143 0.7746840119361877
vt 0.37300899624824524 0.8122060298919678
vt 0.19226600229740143 0.8122060298919678
vt 0.37300899624824524 0.7746840119361877
vt 0.19226600229740143 0.7746840119361877
vt 0.37300899624824524 0.7746840119361877
vt 0.19226600229740143 0.8122060298919678
vt 0.11450300365686417 0.9874039888381958
vt 0.11450300365686417 0.8647010326385498
vt 0.18933500349521637 0.9874039888381958
vt 0.18933500349521637 0.8647010326385498
vt 0.18933500349521637 0.9874039888381958
vt 0.11450300365686417 0.8647010326385498
vt 0.5263180136680603 0.7903090119361877
vt 0.5461429953575134 0.7713479995727539
vt 0.5461429953575134 0.7997900247573853
vt 0.4119899868965149 0.7713479995727539
vt 0.5461429953575134 0.7713479995727539
vt 0.4318160116672516 0.7903090119361877
vt 0.5263180136680603 0.7903090119361877
vt 0.4318160116672516 0.7903090119361877
vt 0.5461429953575134 0.7713479995727539
vt 0.4119899868965149 0.7997900247573853
vt 0.4119899868965149 0.7713479995727539
vt 0.4318160116672516 0.7903090119361877
vt 0.5461429953575134 0.7997900247573853
vt 0.5461429953575134 0.7713479995727539
vt 0.5263180136680603 0.7903090119361877
vt 0.4318160116672516 0.7903090119361877
vt 0.4119899868965149 0.7713479995727539
vt 0.4119899868965149 0.7997900247573853
vt 0.5461429953575134 0.7713479995727539
vt 0.4119899868965149 0.7713479995727539
vt 0.5263180136680603 0.7903090119361877
vt 0.4318160116672516 0.7903090119361877
vt 0.5263180136680603 0.7903090119361877
vt 0.4119899868965149 0.7713479995727539
vt 0.5263180136680603 0.7903090119361877
vt 0.5308250188827515 0.7997900247573853
vt 0.5461429953575134 0.7997900247573853
vt 0.011962000280618668 0.7731840014457703
vt 0.011962000280618668 0.8031690120697021
vt 0.173226997256279 0.7731840014457703
vt 0.173226997256279 0.8031690120697021
vt 0.173226997256279 0.7731840014457703
vt 0.011962000280618668 0.8031690120697021
vt 0.5461429953575134 0.7997900247573853
vt 0.5308250188827515 0.7997900247573853
vt 0.5263180136680603 0.7903090119361877
vt 0.4318160116672516 0.7903090119361877
vt 0.42730799317359924 0.7997900247573853
vt 0.4119899868965149 0.7997900247573853
vt 0.01196100004017353 0.7732149958610535
vt 0.01196100004017353 0.8031420111656189
vt 0.17326299846172333 0.7732149958610535
vt 0.17326299846172333 0.8031420111656189
vt 0.17326299846172333 0.7732149958610535
vt 0.01196100004017353 0.8031420111656189
vt 0.4119899868965149 0.7997900247573853
vt 0.42730799317359924 0.7997900247573853
vt 0.4318160116672516 0.7903090119361877
vt 0.3802100121974945 0.8674860000610352
vt 0.3801349997520447 0.9815359711647034
vt 0.35675498843193054 0.8674860000610352
vt 0.3801349997520447 0.9815359711647034
vt 0.35673999786376953 0.9815359711647034
vt 0.35675498843193054 0.8674860000610352
vt 0.3801349997520447 0.9815359711647034
vt 0.3802100121974945 0.8674860000610352
vt 0.35675498843193054 0.8674860000610352
vt 0.35673999786376953 0.9815359711647034
vt 0.3801349997520447 0.9815359711647034
vt 0.35675498843193054 0.8674860000610352
vn -5.151103812538372e-17 -0.000022000000166505017 -0.999999999758
vn -5.151103812538372e-17 -0.000022000000166505017 -0.999999999758
vn -5.151103812538372e-17 -0.000022000000166505017 -0.999999999758
vn -5.151103812538372e-17 -0.000022000000166505017 -0.999999999758
vn -5.151103812538372e-17 -0.000022000000166505017 -0.999999999758
vn -5.151103812538372e-17 -0.000022000000166505017 -0.999999999758
vn 5.1511038137849394e-17 0 1
vn 5.1511038137849394e-17 0 1
vn 5.1511038137849394e-17 0 1
vn 5.1511038137849394e-17 0 1
vn 5.1511038137849394e-17 0 1
vn 5.1511038137849394e-17 0 1
vn 0 1 0
vn 0 1 0
vn 0 1 0
vn 0 1 0
vn 0 1 0
vn 0 1 0
vn 0.9999999999995 0 -0.00000100000011115158
vn 0.9999999999995 0 -0.00000100000011115158
vn 0.9999999999995 0 -0.00000100000011115158
vn 1 0 4.000113093408433e-18
vn 0.9999999999995 0 -0.00000100000011115158
vn 1 0 4.000113093408433e-18
vn 0.9999999999995 0 -0.00000100000011115158
vn 1 0 4.000113093408433e-18
vn 0.9999999999995 0 -0.00000100000011115158
vn 0.9999999999995 0 -0.00000100000011115158
vn 1 0 4.000113093408433e-18
vn 1 0 4.000113093408433e-18
vn -0.9999999999995 0 0.00000100000011115158
vn -0.9999999999995 0 0.00000100000011115158
vn -0.9999999999995 0 0.00000100000011115158
vn -0.9999999999995 0 0.00000100000011115158
vn -0.9999999999995 0 0.00000100000011115158
vn -0.9999999999995 0 0.00000100000011115158
vn -0.9999999999995 0 0.00000100000011115158
vn -0.9999999999995 0 0.00000100000011115158
vn -0.9999999999995 0 0.00000100000011115158
vn -0.9999999999995 0 0.00000100000011115158
vn -0.9999999999995 0 0.00000100000011115158
vn -0.9999999999995 0 0.00000100000011115158
vn -0.9999999999995 0 0.00000100000011115158
vn -0.9999999999995 -9.999999974747427e-7 -4.0001130934064335e-18
vn -0.9999999999995 0 0.00000100000011115158
vn 1.169459883460731e-7 0.3369379511962999 0.9415268541277121
vn 1.169459883460731e-7 0.3369379511962999 0.9415268541277121
vn 1.169459883460731e-7 0.3369379511962999 0.9415268541277121
vn 1.169459883460731e-7 0.3369379511962999 0.9415268541277121
vn 1.169459883460731e-7 0.3369379511962999 0.9415268541277121
vn 1.169459883460731e-7 0.3369379511962999 0.9415268541277121
vn 0.9999999999995 0 -0.00000100000011115158
vn 0.9999999999995 9.999999974747427e-7 4.0001130934064335e-18
vn 0.9999999999995 0 -0.00000100000011115158
vn 1 0 4.000113093408433e-18
vn 0.9999999999995 -9.999999974747427e-7 4.0001130934064335e-18
vn 0.9999999999995 0 -0.00000100000011115158
vn -1.1691406641829535e-7 0.3368938852931599 -0.9415426225360515
vn -1.1691406641829535e-7 0.3368938852931599 -0.9415426225360515
vn -1.1691406641829535e-7 0.3368938852931599 -0.9415426225360515
vn -1.1691406641829535e-7 0.3368938852931599 -0.9415426225360515
vn -1.1691406641829535e-7 0.3368938852931599 -0.9415426225360515
vn -1.1691406641829535e-7 0.3368938852931599 -0.9415426225360515
vn -0.9999999999995 0 0.00000100000011115158
vn -0.9999999999995 9.999999974747427e-7 -4.0001130934064335e-18
vn -0.9999999999995 0 0.00000100000011115158
vn 0 1 0
vn 0 1 0
vn 0 1 0
vn 0 1 0
vn 0 1 0
vn 0 1 0
vn 0 1 0
vn 0 1 0
vn 0 1 0
vn 0 1 0
vn 0 1 0
vn 0 1 0
f 1/1/1 2/2/2 3/3/3
f 4/4/4 5/5/5 6/6/6
f 7/7/7 8/8/8 9/9/9
f 10/10/10 11/11/11 12/12/12
f 13/13/13 14/14/14 15/15/15
f 16/16/16 17/17/17 18/18/18
f 19/19/19 20/20/20 21/21/21
f 22/22/22 23/23/23 24/24/24
f 25/25/25 26/26/26 27/27/27
f 28/28/28 29/29/29 30/30/30
f 31/31/31 32/32/32 33/33/33
f 34/34/34 35/35/35 36/36/36
f 37/37/37 38/38/38 39/39/39
f 40/40/40 41/41/41 42/42/42
f 43/43/43 44/44/44 45/45/45
f 46/46/46 47/47/47 48/48/48
f 49/49/49 50/50/50 51/51/51
f 52/52/52 53/53/53 54/54/54
f 55/55/55 56/56/56 57/57/57
f 58/58/58 59/59/59 60/60/60
f 61/61/61 62/62/62 63/63/63
f 64/64/64 65/65/65 66/66/66
f 67/67/67 68/68/68 69/69/69
f 70/70/70 71/71/71 72/72/72
f 73/73/73 74/74/74 75/75/75
f 76/76/76 77/77/77 78/78/78
