mtllib med_tile_nw_boundary_corner.mtl
o tile_boundary_edged_corner
usemtl PDX08_-_Default
v 0.5000035100345599 -0.20000000298023224 -0.49999950000000126
v -0.4999964899654401 -0.20000000298023224 -0.5000004999999987
v 0.5000035100345599 0.14500000327825546 -0.49999950000000126
v -0.4999964899654401 0.14500000327825546 -0.5000004999999987
v 0.5000035100345599 0.14500000327825546 -0.49999950000000126
v -0.4999964899654401 -0.20000000298023224 -0.5000004999999987
v -0.4999974899734246 0.14500000327825546 0.5000074870224012
v -0.4999964899654401 0.14500000327825546 -0.5000004999999987
v -0.4999974899654376 -0.20000000298023224 0.49999950000000126
v -0.4999964899654401 -0.20000000298023224 -0.5000004999999987
v -0.4999974899654376 -0.20000000298023224 0.49999950000000126
v -0.4999964899654401 0.14500000327825546 -0.5000004999999987
v -0.4999974899734246 0.14500000327825546 0.5000074870224012
v -0.4999974899654376 -0.20000000298023224 0.49999950000000126
v -0.00000750355374684597 0.14500000327825546 0.5000079870123864
v 5.132789624440193e-7 -0.20000000298023224 0.49999999999800326
v -0.00000750355374684597 0.14500000327825546 0.5000079870123864
v -0.4999974899654376 -0.20000000298023224 0.49999950000000126
v 0.5000035100345599 0.14500000327825546 -0.49999950000000126
v -0.4999964899654401 0.14500000327825546 -0.5000004999999987
v 0.5000030100505612 0.14500000327825546 -0.00001549999996086576
v -0.4999974899734246 0.14500000327825546 0.5000074870224012
v -0.00000750355374684597 0.14500000327825546 0.5000079870123864
v -0.4999964899654401 0.14500000327825546 -0.5000004999999987
v -0.4999964899654401 0.14500000327825546 -0.5000004999999987
v -0.00000750355374684597 0.14500000327825546 0.5000079870123864
v 0.5000030100505612 0.14500000327825546 -0.00001549999996086576
v 0.5000035100345599 0.14500000327825546 -0.49999950000000126
v 0.5000030100505612 0.14500000327825546 -0.00001549999996086576
v 0.5000035100345599 -0.20000000298023224 -0.49999950000000126
v 0.5000030100505612 -0.20000000298023224 -0.00001549999996086576
v 0.5000035100345599 -0.20000000298023224 -0.49999950000000126
v 0.5000030100505612 0.14500000327825546 -0.00001549999996086576
v -0.00000750355374684597 0.14500000327825546 0.5000079870123864
v 5.132789624440193e-7 -0.20000000298023224 0.49999999999800326
v 0.5000030100505612 0.14500000327825546 -0.00001549999996086576
v 5.132789624440193e-7 -0.20000000298023224 0.49999999999800326
v 0.5000030100505612 -0.20000000298023224 -0.00001549999996086576
v 0.5000030100505612 0.14500000327825546 -0.00001549999996086576
vt 0.4487049877643585 0.6490130424499512
vt 0.6216149926185608 0.6490130424499512
vt 0.4487049877643585 0.7072669863700867
vt 0.6216149926185608 0.7072669863700867
vt 0.4487049877643585 0.7072669863700867
vt 0.6216149926185608 0.6490130424499512
vt 0.6213740110397339 0.7068589925765991
vt 0.4493370056152344 0.7068589925765991
vt 0.6213449835777283 0.6473250389099121
vt 0.4493649899959564 0.6473250389099121
vt 0.6213449835777283 0.6473250389099121
vt 0.4493370056152344 0.7068589925765991
vt 0.6207600235939026 0.7072679996490479
vt 0.6207600235939026 0.6473050117492676
vt 0.5350599884986877 0.7072679996490479
vt 0.5350589752197266 0.6473050117492676
vt 0.5350599884986877 0.7072679996490479
vt 0.6207600235939026 0.6473050117492676
vt 0.7016149759292603 0.986801028251648
vt 0.7016149759292603 0.8669860363006592
vt 0.7615200281143188 0.986801028251648
vt 0.8214300274848938 0.8669860363006592
vt 0.8214300274848938 0.9268919825553894
vt 0.7016149759292603 0.8669860363006592
vt 0.7016149759292603 0.8669860363006592
vt 0.8214300274848938 0.9268919825553894
vt 0.7615200281143188 0.986801028251648
vt 0.6729059815406799 0.7068589925765991
vt 0.5900670289993286 0.7068589925765991
vt 0.6728780269622803 0.6473250389099121
vt 0.590071976184845 0.6473250389099121
vt 0.6728780269622803 0.6473250389099121
vt 0.5900670289993286 0.7068589925765991
vt 0.5939599871635437 0.7066529989242554
vt 0.5939570069313049 0.6490919589996338
vt 0.47937101125717163 0.7066529989242554
vt 0.5939570069313049 0.6490919589996338
vt 0.47937101125717163 0.6490919589996338
vt 0.47937101125717163 0.7066529989242554
vn 9.999999974752427e-7 0 -0.9999999999995002
vn 9.999999974752427e-7 0 -0.9999999999995002
vn 9.999999974752427e-7 0 -0.9999999999995002
vn 9.999999974752427e-7 0 -0.9999999999995002
vn 9.999999974752427e-7 0 -0.9999999999995002
vn 9.999999974752427e-7 0 -0.9999999999995002
vn -0.9999999999995002 0 -9.999999974752427e-7
vn -0.9999999999995002 0 -9.999999974752427e-7
vn -0.9999999999995002 0 -9.999999974752427e-7
vn -0.9999999999995002 0 -9.999999974752427e-7
vn -0.9999999999995002 0 -9.999999974752427e-7
vn -0.9999999999995002 0 -9.999999974752427e-7
vn -9.999999972332426e-7 -0.000022000000166516018 0.9999999997575
vn -9.999999972332426e-7 -0.000022000000166516018 0.9999999997575
vn -9.999999972332426e-7 -0.000022000000166516018 0.9999999997575
vn -9.999999972332426e-7 -0.000022000000166516018 0.9999999997575
vn -9.999999972332426e-7 -0.000022000000166516018 0.9999999997575
vn -9.999999972332426e-7 -0.000022000000166516018 0.9999999997575
vn 0 1 0
vn 0 1 0
vn 0 1 0
vn 0 1 0
vn 0 1 0
vn 0 1 0
vn 0 1 0
vn 0 1 0
vn 0 1 0
vn 0.9999999999995002 0 9.999999974752427e-7
vn 0.9999999999995002 0 9.999999974752427e-7
vn 0.9999999999995002 0 9.999999974752427e-7
vn 0.9999999999995002 0 9.999999974752427e-7
vn 0.9999999999995002 0 9.999999974752427e-7
vn 0.9999999999995002 0 9.999999974752427e-7
vn 0.7071155809648133 0 0.7070979812987691
vn 0.7071155809648133 0 0.7070979812987691
vn 0.7071155809648133 0 0.7070979812987691
vn 0.7071155809648133 0 0.7070979812987691
vn 0.7071155809648133 0 0.7070979812987691
vn 0.7071155809648133 0 0.7070979812987691
f 1/1/1 2/2/2 3/3/3
f 4/4/4 5/5/5 6/6/6
f 7/7/7 8/8/8 9/9/9
f 10/10/10 11/11/11 12/12/12
f 13/13/13 14/14/14 15/15/15
f 16/16/16 17/17/17 18/18/18
f 19/19/19 20/20/20 21/21/21
f 22/22/22 23/23/23 24/24/24
f 25/25/25 26/26/26 27/27/27
f 28/28/28 29/29/29 30/30/30
f 31/31/31 32/32/32 33/33/33
f 34/34/34 35/35/35 36/36/36
f 37/37/37 38/38/38 39/39/39
