# Modified by OBJRotate180 (Mesh rotated 180 degrees around Y-axis)
# Original file: ss_tile_pipe_ns.obj
mtllib Materials/ss_tile_pipe_ns.mtl
v -0.499989 0.100000 -0.499998
v -0.500004 0.100000 0.499996
v 0.499979 0.100000 -0.499996
v -0.500004 0.100000 0.499996
v 0.499993 0.100000 0.500001
v 0.499979 0.100000 -0.499996
v -0.500004 0.100000 0.499996
v -0.500004 -0.200000 0.499996
v 0.499993 0.100000 0.500001
v -0.500004 -0.200000 0.499996
v 0.499993 -0.200000 0.500001
v 0.499993 0.100000 0.500001
v 0.499979 0.100000 -0.499996
v 0.499979 -0.200000 -0.499996
v -0.499989 0.100000 -0.499998
v 0.499979 -0.200000 -0.499996
v -0.499989 -0.200000 -0.499998
v -0.499989 0.100000 -0.499998
v 0.499993 0.100000 0.500001
v 0.499993 -0.200000 0.500001
v 0.499979 0.100000 -0.499996
v 0.499993 -0.200000 0.500001
v 0.499979 -0.200000 -0.499996
v 0.499979 0.100000 -0.499996
v -0.499989 0.100000 -0.499998
v -0.499989 -0.200000 -0.499998
v -0.500004 0.100000 0.499996
v -0.499989 -0.200000 -0.499998
v -0.500004 -0.200000 0.499996
v -0.500004 0.100000 0.499996
v 0.128045 0.416559 -0.499939
v 0.128044 0.416559 0.499826
v 0.147859 0.342613 -0.499939
v 0.147857 0.342614 0.499826
v 0.147859 0.342613 -0.499939
v 0.128044 0.416559 0.499826
v 0.073913 0.470691 -0.499939
v 0.073912 0.470691 0.499826
v 0.128045 0.416559 -0.499939
v 0.128044 0.416559 0.499826
v 0.128045 0.416559 -0.499939
v 0.073912 0.470691 0.499826
v -0.000033 0.490504 -0.499939
v -0.000034 0.490504 0.499825
v 0.073913 0.470691 -0.499939
v 0.073912 0.470691 0.499826
v 0.073913 0.470691 -0.499939
v -0.000034 0.490504 0.499825
v -0.073978 0.470691 -0.499940
v -0.073980 0.470691 0.499825
v -0.000033 0.490504 -0.499939
v -0.000034 0.490504 0.499825
v -0.000033 0.490504 -0.499939
v -0.073980 0.470691 0.499825
v -0.128110 0.416559 -0.499940
v -0.128111 0.416559 0.499825
v -0.073978 0.470691 -0.499940
v -0.073980 0.470691 0.499825
v -0.073978 0.470691 -0.499940
v -0.128111 0.416559 0.499825
v -0.147924 0.342613 -0.499939
v -0.147925 0.342613 0.499825
v -0.128110 0.416559 -0.499940
v -0.128111 0.416559 0.499825
v -0.128110 0.416559 -0.499940
v -0.147925 0.342613 0.499825
v -0.128110 0.268668 -0.499940
v -0.128111 0.268668 0.499825
v -0.147924 0.342613 -0.499939
v -0.147925 0.342613 0.499825
v -0.147924 0.342613 -0.499939
v -0.128111 0.268668 0.499825
v -0.073978 0.214536 -0.499940
v -0.073980 0.214536 0.499825
v -0.128110 0.268668 -0.499940
v -0.128111 0.268668 0.499825
v -0.128110 0.268668 -0.499940
v -0.073980 0.214536 0.499825
v -0.000033 0.194722 -0.499939
v -0.000034 0.194722 0.499825
v -0.073978 0.214536 -0.499940
v -0.073980 0.214536 0.499825
v -0.073978 0.214536 -0.499940
v -0.000034 0.194722 0.499825
v 0.073913 0.214536 -0.499939
v 0.073912 0.214536 0.499826
v -0.000033 0.194722 -0.499939
v -0.000034 0.194722 0.499825
v -0.000033 0.194722 -0.499939
v 0.073912 0.214536 0.499826
v 0.128045 0.268668 -0.499939
v 0.128044 0.268668 0.499826
v 0.073913 0.214536 -0.499939
v 0.073912 0.214536 0.499826
v 0.073913 0.214536 -0.499939
v 0.128044 0.268668 0.499826
v 0.147859 0.342613 -0.499939
v 0.147857 0.342614 0.499826
v 0.128045 0.268668 -0.499939
v 0.128044 0.268668 0.499826
v 0.128045 0.268668 -0.499939
v 0.147857 0.342614 0.499826
vt 0.391659 0.442953
vt 0.276823 0.442952
vt 0.391660 0.558156
vt 0.276823 0.442952
vt 0.276823 0.558158
vt 0.391660 0.558156
vt 0.129373 0.841635
vt 0.129373 0.817459
vt 0.012264 0.841634
vt 0.129373 0.817459
vt 0.012264 0.817458
vt 0.012264 0.841634
vt 0.012285 0.841634
vt 0.012285 0.817459
vt 0.129366 0.841635
vt 0.012285 0.817459
vt 0.129367 0.817460
vt 0.129366 0.841635
vt 0.128739 0.839462
vt 0.128739 0.816268
vt 0.013246 0.839462
vt 0.128739 0.816268
vt 0.013246 0.816268
vt 0.013246 0.839462
vt 0.013251 0.839463
vt 0.013251 0.816269
vt 0.128742 0.839463
vt 0.013251 0.816269
vt 0.128742 0.816269
vt 0.128742 0.839463
vt 0.260234 0.006386
vt 0.260234 0.121492
vt 0.287784 0.006386
vt 0.287784 0.121492
vt 0.287784 0.006386
vt 0.260234 0.121492
vt 0.240065 0.006386
vt 0.240065 0.121492
vt 0.260234 0.006386
vt 0.260234 0.121492
vt 0.260234 0.006386
vt 0.240065 0.121492
vt 0.225455 0.006386
vt 0.225455 0.121492
vt 0.240065 0.006386
vt 0.240065 0.121492
vt 0.240065 0.006386
vt 0.225455 0.121492
vt 0.239655 0.006387
vt 0.239655 0.121492
vt 0.225045 0.006386
vt 0.225045 0.121492
vt 0.225045 0.006386
vt 0.239655 0.121492
vt 0.259823 0.006387
vt 0.259823 0.121492
vt 0.239655 0.006387
vt 0.239655 0.121492
vt 0.239655 0.006387
vt 0.259823 0.121492
vt 0.287373 0.006387
vt 0.287373 0.121492
vt 0.259823 0.006387
vt 0.259823 0.121492
vt 0.259823 0.006387
vt 0.287373 0.121492
vt 0.314924 0.006387
vt 0.314924 0.121492
vt 0.287373 0.006387
vt 0.287373 0.121492
vt 0.287373 0.006387
vt 0.314924 0.121492
vt 0.335092 0.006387
vt 0.335092 0.121492
vt 0.314924 0.006387
vt 0.314924 0.121492
vt 0.314924 0.006387
vt 0.335092 0.121492
vt 0.342474 0.006387
vt 0.342474 0.121492
vt 0.335092 0.006387
vt 0.335092 0.121492
vt 0.335092 0.006387
vt 0.342474 0.121492
vt 0.335502 0.006387
vt 0.335502 0.121492
vt 0.342884 0.006387
vt 0.342884 0.121492
vt 0.342884 0.006387
vt 0.335502 0.121492
vt 0.315334 0.006386
vt 0.315334 0.121492
vt 0.335502 0.006387
vt 0.335502 0.121492
vt 0.335502 0.006387
vt 0.315334 0.121492
vt 0.287784 0.006386
vt 0.287784 0.121492
vt 0.315334 0.006386
vt 0.315334 0.121492
vt 0.315334 0.006386
vt 0.287784 0.121492
vn 0.000000 1.000000 0.000000
vn 0.000000 1.000000 0.000000
vn 0.000000 1.000000 0.000000
vn 0.000000 1.000000 0.000000
vn 0.000000 1.000000 0.000000
vn 0.000000 1.000000 0.000000
vn -0.000005 0.000000 1.000000
vn -0.000005 0.000000 1.000000
vn -0.000005 0.000000 1.000000
vn -0.000005 0.000000 1.000000
vn -0.000005 0.000000 1.000000
vn -0.000005 0.000000 1.000000
vn 0.000002 0.000000 -1.000000
vn 0.000002 0.000000 -1.000000
vn 0.000002 0.000000 -1.000000
vn 0.000002 0.000000 -1.000000
vn 0.000002 0.000000 -1.000000
vn 0.000002 0.000000 -1.000000
vn 1.000000 0.000000 -0.000014
vn 1.000000 0.000000 -0.000014
vn 1.000000 0.000000 -0.000014
vn 1.000000 0.000000 -0.000014
vn 1.000000 0.000000 -0.000014
vn 1.000000 0.000000 -0.000014
vn -1.000000 0.000000 -0.000015
vn -1.000000 0.000000 -0.000015
vn -1.000000 0.000000 -0.000015
vn -1.000000 0.000000 -0.000015
vn -1.000000 0.000000 -0.000015
vn -1.000000 0.000000 -0.000015
vn 0.866025 0.500000 0.000001
vn 0.866025 0.500001 0.000001
vn 1.000000 0.000000 0.000001
vn 1.000000 0.000000 0.000001
vn 1.000000 0.000000 0.000001
vn 0.866025 0.500001 0.000001
vn 0.499999 0.866026 0.000001
vn 0.499999 0.866026 0.000001
vn 0.866025 0.500000 0.000001
vn 0.866025 0.500001 0.000001
vn 0.866025 0.500000 0.000001
vn 0.499999 0.866026 0.000001
vn -0.000001 1.000000 0.000000
vn 0.000000 1.000000 0.000000
vn 0.499999 0.866026 0.000001
vn 0.499999 0.866026 0.000001
vn 0.499999 0.866026 0.000001
vn 0.000000 1.000000 0.000000
vn -0.499999 0.866026 -0.000001
vn -0.499999 0.866026 -0.000001
vn -0.000001 1.000000 0.000000
vn 0.000000 1.000000 0.000000
vn -0.000001 1.000000 0.000000
vn -0.499999 0.866026 -0.000001
vn -0.866025 0.500001 -0.000001
vn -0.866025 0.500000 -0.000001
vn -0.499999 0.866026 -0.000001
vn -0.499999 0.866026 -0.000001
vn -0.499999 0.866026 -0.000001
vn -0.866025 0.500000 -0.000001
vn -1.000000 0.000000 -0.000001
vn -1.000000 0.000000 -0.000001
vn -0.866025 0.500001 -0.000001
vn -0.866025 0.500000 -0.000001
vn -0.866025 0.500001 -0.000001
vn -1.000000 0.000000 -0.000001
vn -0.866025 -0.500000 -0.000001
vn -0.866026 -0.499999 -0.000001
vn -1.000000 0.000000 -0.000001
vn -1.000000 0.000000 -0.000001
vn -1.000000 0.000000 -0.000001
vn -0.866026 -0.499999 -0.000001
vn -0.500000 -0.866026 0.000000
vn -0.500000 -0.866025 0.000000
vn -0.866025 -0.500000 -0.000001
vn -0.866026 -0.499999 -0.000001
vn -0.866025 -0.500000 -0.000001
vn -0.500000 -0.866025 0.000000
vn 0.000000 -1.000000 0.000000
vn 0.000000 -1.000000 0.000000
vn -0.500000 -0.866026 0.000000
vn -0.500000 -0.866025 0.000000
vn -0.500000 -0.866026 0.000000
vn 0.000000 -1.000000 0.000000
vn 0.499999 -0.866026 0.000001
vn 0.500000 -0.866026 0.000001
vn 0.000000 -1.000000 0.000000
vn 0.000000 -1.000000 0.000000
vn 0.000000 -1.000000 0.000000
vn 0.500000 -0.866026 0.000001
vn 0.866025 -0.500000 0.000001
vn 0.866025 -0.500000 0.000001
vn 0.499999 -0.866026 0.000001
vn 0.500000 -0.866026 0.000001
vn 0.499999 -0.866026 0.000001
vn 0.866025 -0.500000 0.000001
vn 1.000000 0.000000 0.000001
vn 1.000000 0.000000 0.000001
vn 0.866025 -0.500000 0.000001
vn 0.866025 -0.500000 0.000001
vn 0.866025 -0.500000 0.000001
vn 1.000000 0.000000 0.000001
o tile_boundary02
o tile_boundary02
usemtl PDX01_-_Default
f 1/1/1 2/2/2 3/3/3
f 4/4/4 5/5/5 6/6/6
f 7/7/7 8/8/8 9/9/9
f 10/10/10 11/11/11 12/12/12
f 13/13/13 14/14/14 15/15/15
f 16/16/16 17/17/17 18/18/18
f 19/19/19 20/20/20 21/21/21
f 22/22/22 23/23/23 24/24/24
f 25/25/25 26/26/26 27/27/27
f 28/28/28 29/29/29 30/30/30
f 31/31/31 32/32/32 33/33/33
f 34/34/34 35/35/35 36/36/36
f 37/37/37 38/38/38 39/39/39
f 40/40/40 41/41/41 42/42/42
f 43/43/43 44/44/44 45/45/45
f 46/46/46 47/47/47 48/48/48
f 49/49/49 50/50/50 51/51/51
f 52/52/52 53/53/53 54/54/54
f 55/55/55 56/56/56 57/57/57
f 58/58/58 59/59/59 60/60/60
f 61/61/61 62/62/62 63/63/63
f 64/64/64 65/65/65 66/66/66
f 67/67/67 68/68/68 69/69/69
f 70/70/70 71/71/71 72/72/72
f 73/73/73 74/74/74 75/75/75
f 76/76/76 77/77/77 78/78/78
f 79/79/79 80/80/80 81/81/81
f 82/82/82 83/83/83 84/84/84
f 85/85/85 86/86/86 87/87/87
f 88/88/88 89/89/89 90/90/90
f 91/91/91 92/92/92 93/93/93
f 94/94/94 95/95/95 96/96/96
f 97/97/97 98/98/98 99/99/99
f 100/100/100 101/101/101 102/102/102
