# Modified by OBJRotate180 (Mesh rotated 180 degrees around Y-axis)
# Original file: ss_tile_n_boundary_edge.obj
mtllib Materials/ss_tile_n_boundary_edge.mtl
v -0.500003 -0.200000 -0.000002
v -0.500003 -0.200000 0.500001
v -0.500003 0.099994 -0.000002
v -0.500003 0.099994 0.500001
v -0.500003 0.099994 -0.000002
v -0.500003 -0.200000 0.500001
v 0.500006 0.099994 0.500000
v -0.500003 0.099994 0.500001
v 0.499998 -0.200000 0.500000
v -0.500003 -0.200000 0.500001
v 0.499998 -0.200000 0.500000
v -0.500003 0.099994 0.500001
v 0.500006 0.099994 0.500000
v 0.499998 -0.200000 0.500000
v 0.500005 0.099994 0.000010
v 0.499997 -0.200000 0.000001
v 0.500005 0.099994 0.000010
v 0.499998 -0.200000 0.500000
v 0.500006 0.099994 0.500000
v 0.500005 0.099994 0.000010
v -0.500003 0.099994 0.500001
v -0.500003 0.099994 0.500001
v 0.500005 0.099994 0.000010
v -0.500003 0.099994 -0.000002
v 0.500005 0.099994 0.000010
v 0.499997 -0.200000 0.000001
v -0.500003 0.099994 -0.000002
v 0.499997 -0.200000 0.000001
v -0.500003 -0.200000 -0.000002
v -0.500003 0.099994 -0.000002
vt 0.696759 0.326579
vt 0.777393 0.326579
vt 0.696759 0.366423
vt 0.777393 0.366423
vt 0.696759 0.366423
vt 0.777393 0.326579
vt 0.860380 0.366152
vt 0.696537 0.366152
vt 0.860364 0.326592
vt 0.696554 0.326592
vt 0.860364 0.326592
vt 0.696537 0.366152
vt 0.777740 0.366423
vt 0.777740 0.326579
vt 0.695112 0.366423
vt 0.695111 0.326579
vt 0.695112 0.366423
vt 0.777740 0.326579
vt 0.786828 0.443274
vt 0.786828 0.509656
vt 0.671896 0.443274
vt 0.671896 0.443274
vt 0.786828 0.509656
vt 0.672070 0.509766
vt 0.859528 0.366014
vt 0.859526 0.327766
vt 0.695839 0.366014
vt 0.859526 0.327766
vt 0.695839 0.327766
vt 0.695839 0.366014
vn -1.000000 0.000000 0.000001
vn -1.000000 0.000000 0.000001
vn -1.000000 0.000000 0.000001
vn -1.000000 0.000000 0.000001
vn -1.000000 0.000000 0.000001
vn -1.000000 0.000000 0.000001
vn 0.000001 0.000000 1.000000
vn 0.000001 0.000000 1.000000
vn 0.000001 0.000000 1.000000
vn 0.000001 0.000000 1.000000
vn 0.000001 0.000000 1.000000
vn 0.000001 0.000000 1.000000
vn 1.000000 -0.000025 -0.000001
vn 1.000000 -0.000025 -0.000001
vn 1.000000 -0.000025 -0.000001
vn 1.000000 -0.000025 -0.000001
vn 1.000000 -0.000025 -0.000001
vn 1.000000 -0.000025 -0.000001
vn 0.000000 1.000000 0.000000
vn 0.000000 1.000000 0.000000
vn 0.000000 1.000000 0.000000
vn 0.000000 1.000000 0.000000
vn 0.000000 1.000000 0.000000
vn 0.000000 1.000000 0.000000
vn 0.000012 0.000025 -1.000000
vn 0.000012 0.000025 -1.000000
vn 0.000012 0.000025 -1.000000
vn 0.000005 0.000000 -1.000000
vn 0.000005 0.000000 -1.000000
vn 0.000005 0.000000 -1.000000
o tile_boundary_edged_corner01
o tile_boundary_edged_corner01
usemtl PDX01_-_Default
f 1/1/1 2/2/2 3/3/3
f 4/4/4 5/5/5 6/6/6
f 7/7/7 8/8/8 9/9/9
f 10/10/10 11/11/11 12/12/12
f 13/13/13 14/14/14 15/15/15
f 16/16/16 17/17/17 18/18/18
f 19/19/19 20/20/20 21/21/21
f 22/22/22 23/23/23 24/24/24
f 25/25/25 26/26/26 27/27/27
f 28/28/28 29/29/29 30/30/30
