mtllib ss_tile_nw_boundary_corner.mtl
o tile_boundary_edged_corner
usemtl PDX01_-_Default
v -0.4999980197677587 -0.20000000298023224 0.4999990000000026
v 0.5000019802322413 -0.20000000298023224 0.5000009999999975
v -0.4999980197677587 0.10000399500131607 0.4999990000000026
v 0.5000019802322413 0.10000399500131607 0.5000009999999975
v -0.4999980197677587 0.10000399500131607 0.4999990000000026
v 0.5000019802322413 -0.20000000298023224 0.5000009999999975
v 0.5000039802482102 0.10000399500131607 -0.5000069870224024
v 0.5000019802322413 0.10000399500131607 0.5000009999999975
v 0.5000039802322362 -0.20000000298023224 -0.4999990000000025
v 0.5000019802322413 -0.20000000298023224 0.5000009999999975
v 0.5000039802322362 -0.20000000298023224 -0.4999990000000025
v 0.5000019802322413 0.10000399500131607 0.5000009999999975
v 0.5000039802482102 0.10000399500131607 -0.5000069870224024
v 0.5000039802322362 -0.20000000298023224 -0.4999990000000025
v 0.0000139938285325103 0.10000399500131607 -0.5000079870023727
v 0.000005976987836164849 -0.20000000298023224 -0.4999999999960064
v 0.0000139938285325103 0.10000399500131607 -0.5000079870023727
v 0.5000039802322362 -0.20000000298023224 -0.4999990000000025
v -0.4999980197677587 0.10000399500131607 0.4999990000000026
v 0.5000019802322413 0.10000399500131607 0.5000009999999975
v -0.4999970197997612 0.10000399500131607 0.000014999999962180152
v 0.5000039802482102 0.10000399500131607 -0.5000069870224024
v 0.0000139938285325103 0.10000399500131607 -0.5000079870023727
v 0.5000019802322413 0.10000399500131607 0.5000009999999975
v 0.5000019802322413 0.10000399500131607 0.5000009999999975
v 0.0000139938285325103 0.10000399500131607 -0.5000079870023727
v -0.4999970197997612 0.10000399500131607 0.000014999999962180152
v -0.4999980197677587 0.10000399500131607 0.4999990000000026
v -0.4999970197997612 0.10000399500131607 0.000014999999962180152
v -0.4999980197677587 -0.20000000298023224 0.4999990000000026
v -0.4999970197997612 -0.20000000298023224 0.000014999999962180152
v -0.4999980197677587 -0.20000000298023224 0.4999990000000026
v -0.4999970197997612 0.10000399500131607 0.000014999999962180152
v 0.0000139938285325103 0.10000399500131607 -0.5000079870023727
v 0.000005976987836164849 -0.20000000298023224 -0.4999999999960064
v -0.4999970197997612 0.10000399500131607 0.000014999999962180152
v 0.000005976987836164849 -0.20000000298023224 -0.4999999999960064
v -0.4999970197997612 -0.20000000298023224 0.000014999999962180152
v -0.4999970197997612 0.10000399500131607 0.000014999999962180152
vt 0.6967589855194092 0.3265789747238159
vt 0.8606060147285461 0.3265789747238159
vt 0.6967589855194092 0.36642301082611084
vt 0.8606060147285461 0.36642301082611084
vt 0.6967589855194092 0.36642301082611084
vt 0.8606060147285461 0.3265789747238159
vt 0.8603799939155579 0.36615198850631714
vt 0.6965370178222656 0.36615198850631714
vt 0.8603640198707581 0.32659202814102173
vt 0.6965540051460266 0.32659202814102173
vt 0.8603640198707581 0.32659202814102173
vt 0.6965370178222656 0.36615198850631714
vt 0.7777400016784668 0.36642301082611084
vt 0.7777400016784668 0.3265789747238159
vt 0.6951119899749756 0.36642301082611084
vt 0.6951109766960144 0.3265789747238159
vt 0.6951119899749756 0.36642301082611084
vt 0.7777400016784668 0.3265789747238159
vt 0.6718959808349609 0.553846001625061
vt 0.6718959808349609 0.44327402114868164
vt 0.7413110136985779 0.553846001625061
vt 0.7875189781188965 0.44327402114868164
vt 0.7875189781188965 0.5096560120582581
vt 0.6718959808349609 0.44327402114868164
vt 0.6718959808349609 0.44327402114868164
vt 0.7875189781188965 0.5096560120582581
vt 0.7413110136985779 0.553846001625061
vt 0.7779579758644104 0.36615198850631714
vt 0.8598080277442932 0.36615198850631714
vt 0.777974009513855 0.32659202814102173
vt 0.8598049879074097 0.32659202814102173
vt 0.777974009513855 0.32659202814102173
vt 0.8598080277442932 0.36615198850631714
vt 0.8595280051231384 0.3660140037536621
vt 0.8595259785652161 0.3277660012245178
vt 0.7777289748191833 0.3660140037536621
vt 0.8595259785652161 0.3277660012245178
vt 0.7777289748191833 0.3277660012245178
vt 0.7777289748191833 0.3660140037536621
vn -0.0000019999999948949747 0 0.999999999998
vn -0.0000019999999948949747 0 0.999999999998
vn -0.0000019999999948949747 0 0.999999999998
vn -0.0000019999999948949747 0 0.999999999998
vn -0.0000019999999948949747 0 0.999999999998
vn -0.0000019999999948949747 0 0.999999999998
vn 0.999999999998 0 0.0000019999999948394635
vn 0.999999999998 0 0.0000019999999948394635
vn 0.999999999998 0 0.0000019999999948394635
vn 0.999999999998 0 0.0000019999999948394635
vn 0.999999999998 0 0.0000019999999948394635
vn 0.999999999998 0 0.0000019999999948394635
vn 0.0000019999999942699745 -0.000024999999360684378 -0.9999999996855
vn 0.0000019999999942699745 -0.000024999999360684378 -0.9999999996855
vn 0.0000019999999942699745 -0.000024999999360684378 -0.9999999996855
vn 0.0000019999999942699745 -0.000024999999360684378 -0.9999999996855
vn 0.0000019999999942699745 -0.000024999999360684378 -0.9999999996855
vn 0.0000019999999942699745 -0.000024999999360684378 -0.9999999996855
vn 0 1 0
vn 0 1 0
vn 0 1 0
vn 0 1 0
vn 0 1 0
vn 0 1 0
vn 0 1 0
vn 0 1 0
vn 0 1 0
vn -0.999999999998 0 -0.0000019999999948394635
vn -0.999999999998 0 -0.0000019999999948394635
vn -0.999999999998 0 -0.0000019999999948394635
vn -0.999999999998 0 -0.0000019999999948394635
vn -0.999999999998 0 -0.0000019999999948394635
vn -0.999999999998 0 -0.0000019999999948394635
vn -0.7071148738664803 0 -0.7070986884139947
vn -0.7071148738664803 0 -0.7070986884139947
vn -0.7071148738664803 0 -0.7070986884139947
vn -0.7071148738664803 0 -0.7070986884139947
vn -0.7071148738664803 0 -0.7070986884139947
vn -0.7071148738664803 0 -0.7070986884139947
f 1/1/1 2/2/2 3/3/3
f 4/4/4 5/5/5 6/6/6
f 7/7/7 8/8/8 9/9/9
f 10/10/10 11/11/11 12/12/12
f 13/13/13 14/14/14 15/15/15
f 16/16/16 17/17/17 18/18/18
f 19/19/19 20/20/20 21/21/21
f 22/22/22 23/23/23 24/24/24
f 25/25/25 26/26/26 27/27/27
f 28/28/28 29/29/29 30/30/30
f 31/31/31 32/32/32 33/33/33
f 34/34/34 35/35/35 36/36/36
f 37/37/37 38/38/38 39/39/39
