# Modified by OBJRotate180 (Mesh rotated 180 degrees around Y-axis)
# Original file: ss_tile_ne_boundary_corner.obj
mtllib ../Materials/ss_tile_ne_boundary_corner.mtl
v 0.499996 -0.200000 0.500002
v 0.499999 -0.200000 -0.499999
v 0.499996 0.100004 0.500002
v 0.499999 0.100004 -0.499999
v 0.499996 0.100004 0.500002
v 0.499999 -0.200000 -0.499999
v -0.500010 0.100004 -0.500002
v 0.499999 0.100004 -0.499999
v -0.500002 -0.200000 -0.500002
v 0.499999 -0.200000 -0.499999
v -0.500002 -0.200000 -0.500002
v 0.499999 0.100004 -0.499999
v -0.500010 0.100004 -0.500002
v -0.500002 -0.200000 -0.500002
v -0.500011 0.100004 -0.000012
v -0.500003 -0.200000 -0.000003
v -0.500011 0.100004 -0.000012
v -0.500002 -0.200000 -0.500002
v 0.499996 0.100004 0.500002
v 0.499999 0.100004 -0.499999
v 0.000012 0.100004 0.500000
v -0.500010 0.100004 -0.500002
v -0.500011 0.100004 -0.000012
v 0.499999 0.100004 -0.499999
v 0.499999 0.100004 -0.499999
v -0.500011 0.100004 -0.000012
v 0.000012 0.100004 0.500000
v 0.499996 0.100004 0.500002
v 0.000012 0.100004 0.500000
v 0.499996 -0.200000 0.500002
v 0.000012 -0.200000 0.500000
v 0.499996 -0.200000 0.500002
v 0.000012 0.100004 0.500000
v -0.500011 0.100004 -0.000012
v -0.500003 -0.200000 -0.000003
v 0.000012 0.100004 0.500000
v -0.500003 -0.200000 -0.000003
v 0.000012 -0.200000 0.500000
v 0.000012 0.100004 0.500000
vt 0.696759 0.326579
vt 0.860606 0.326579
vt 0.696759 0.366423
vt 0.860606 0.366423
vt 0.696759 0.366423
vt 0.860606 0.326579
vt 0.860380 0.366152
vt 0.696537 0.366152
vt 0.860364 0.326592
vt 0.696554 0.326592
vt 0.860364 0.326592
vt 0.696537 0.366152
vt 0.777740 0.366423
vt 0.777740 0.326579
vt 0.695112 0.366423
vt 0.695111 0.326579
vt 0.695112 0.366423
vt 0.777740 0.326579
vt 0.671896 0.553846
vt 0.671896 0.443274
vt 0.741311 0.553846
vt 0.787519 0.443274
vt 0.787519 0.509656
vt 0.671896 0.443274
vt 0.671896 0.443274
vt 0.787519 0.509656
vt 0.741311 0.553846
vt 0.777958 0.366152
vt 0.859808 0.366152
vt 0.777974 0.326592
vt 0.859805 0.326592
vt 0.777974 0.326592
vt 0.859808 0.366152
vt 0.859528 0.366014
vt 0.859526 0.327766
vt 0.777729 0.366014
vt 0.859526 0.327766
vt 0.777729 0.327766
vt 0.777729 0.366014
vn 1.000000 0.000000 0.000003
vn 1.000000 0.000000 0.000003
vn 1.000000 0.000000 0.000003
vn 1.000000 0.000000 0.000003
vn 1.000000 0.000000 0.000003
vn 1.000000 0.000000 0.000003
vn 0.000003 0.000000 -1.000000
vn 0.000003 0.000000 -1.000000
vn 0.000003 0.000000 -1.000000
vn 0.000003 0.000000 -1.000000
vn 0.000003 0.000000 -1.000000
vn 0.000003 0.000000 -1.000000
vn -1.000000 -0.000025 -0.000003
vn -1.000000 -0.000025 -0.000003
vn -1.000000 -0.000025 -0.000003
vn -1.000000 -0.000025 -0.000003
vn -1.000000 -0.000025 -0.000003
vn -1.000000 -0.000025 -0.000003
vn 0.000000 1.000000 0.000000
vn 0.000000 1.000000 0.000000
vn 0.000000 1.000000 0.000000
vn 0.000000 1.000000 0.000000
vn 0.000000 1.000000 0.000000
vn 0.000000 1.000000 0.000000
vn 0.000000 1.000000 0.000000
vn 0.000000 1.000000 0.000000
vn 0.000000 1.000000 0.000000
vn -0.000003 0.000000 1.000000
vn -0.000003 0.000000 1.000000
vn -0.000003 0.000000 1.000000
vn -0.000003 0.000000 1.000000
vn -0.000003 0.000000 1.000000
vn -0.000003 0.000000 1.000000
vn -0.707099 0.000000 0.707114
vn -0.707099 0.000000 0.707114
vn -0.707099 0.000000 0.707114
vn -0.707099 0.000000 0.707114
vn -0.707099 0.000000 0.707114
vn -0.707099 0.000000 0.707114
o tile_boundary_edged_corner
o tile_boundary_edged_corner
usemtl PDX01_-_Default
f 1/1/1 2/2/2 3/3/3
f 4/4/4 5/5/5 6/6/6
f 7/7/7 8/8/8 9/9/9
f 10/10/10 11/11/11 12/12/12
f 13/13/13 14/14/14 15/15/15
f 16/16/16 17/17/17 18/18/18
f 19/19/19 20/20/20 21/21/21
f 22/22/22 23/23/23 24/24/24
f 25/25/25 26/26/26 27/27/27
f 28/28/28 29/29/29 30/30/30
f 31/31/31 32/32/32 33/33/33
f 34/34/34 35/35/35 36/36/36
f 37/37/37 38/38/38 39/39/39
