mtllib ss_tile_boundary_02.mtl
o corner
usemtl PDX01_-_Default
v -0.49999699995787267 0.10000000149011612 0.49998999649013276
v 0.4999969999998939 0.10000000149011612 0.5000030000001062
v -0.4999970001499187 0.10000000149011612 -0.49997799585162284
v 0.4999969999998939 0.10000000149011612 0.5000030000001062
v 0.5000000197498071 0.10000000149011612 -0.499993989983214
v -0.4999970001499187 0.10000000149011612 -0.49997799585162284
v 0.4999969999998939 0.10000000149011612 0.5000030000001062
v 0.4999969999998939 -0.20000000298023224 0.5000030000001062
v 0.5000000197498071 0.10000000149011612 -0.499993989983214
v 0.4999969999998939 -0.20000000298023224 0.5000030000001062
v 0.5000000197498071 -0.20000000298023224 -0.499993989983214
v 0.5000000197498071 0.10000000149011612 -0.499993989983214
v -0.4999970001499187 0.10000000149011612 -0.49997799585162284
v -0.4999970001499187 -0.20000000298023224 -0.49997799585162284
v -0.49999699995787267 0.10000000149011612 0.49998999649013276
v -0.4999970001499187 -0.20000000298023224 -0.49997799585162284
v -0.49999699995787267 -0.20000000298023224 0.49998999649013276
v -0.49999699995787267 0.10000000149011612 0.49998999649013276
v 0.5000000197498071 0.10000000149011612 -0.499993989983214
v 0.5000000197498071 -0.20000000298023224 -0.499993989983214
v -0.4999970001499187 0.10000000149011612 -0.49997799585162284
v 0.5000000197498071 -0.20000000298023224 -0.499993989983214
v -0.4999970001499187 -0.20000000298023224 -0.49997799585162284
v -0.4999970001499187 0.10000000149011612 -0.49997799585162284
v -0.49999699995787267 0.10000000149011612 0.49998999649013276
v -0.49999699995787267 -0.20000000298023224 0.49998999649013276
v 0.4999969999998939 0.10000000149011612 0.5000030000001062
v -0.49999699995787267 -0.20000000298023224 0.49998999649013276
v 0.4999969999998939 -0.20000000298023224 0.5000030000001062
v 0.4999969999998939 0.10000000149011612 0.5000030000001062
vt 0.25568100810050964 0.6335539817810059
vt 0.1348090022802353 0.633554995059967
vt 0.25568100810050964 0.5107550024986267
vt 0.1348090022802353 0.633554995059967
vt 0.1348090022802353 0.5107519626617432
vt 0.25568100810050964 0.5107550024986267
vt 0.123649001121521 0.8722330331802368
vt 0.12364999949932098 0.8473320007324219
vt 0.0030269999988377094 0.8722320199012756
vt 0.12364999949932098 0.8473320007324219
vt 0.0030269999988377094 0.8473309874534607
vt 0.0030269999988377094 0.8722320199012756
vt 0.00304899993352592 0.8722320199012756
vt 0.00304899993352592 0.8473320007324219
vt 0.12364199757575989 0.8722330331802368
vt 0.00304899993352592 0.8473320007324219
vt 0.12364300340414047 0.8473320007324219
vt 0.12364199757575989 0.8722330331802368
vt 0.1229960024356842 0.8699949979782104
vt 0.1229960024356842 0.8461049795150757
vt 0.004038000013679266 0.8699949979782104
vt 0.1229960024356842 0.8461049795150757
vt 0.004038000013679266 0.8461049795150757
vt 0.004038000013679266 0.8699949979782104
vt 0.004044000059366226 0.8699960112571716
vt 0.004044000059366226 0.8461059927940369
vt 0.12299899756908417 0.8699960112571716
vt 0.004044000059366226 0.8461059927940369
vt 0.12299899756908417 0.8461059927940369
vt 0.12299899756908417 0.8699960112571716
vn 0 1 0
vn 0 1 0
vn 0 1 0
vn 0 1 0
vn 0 1 0
vn 0 1 0
vn 0.9999999999955 0 0.0000030000001061530663
vn 0.9999999999955 0 0.0000030000001061530663
vn 0.9999999999955 0 0.0000030000001061530663
vn 0.9999999999955 0 0.0000030000001061530663
vn 0.9999999999955 0 0.0000030000001061530663
vn 0.9999999999955 0 0.0000030000001061530663
vn -1 0 -1.0800008890671234e-16
vn -1 0 -1.0800008890671234e-16
vn -1 0 -1.0800008890671234e-16
vn -1 0 -1.0800008890671234e-16
vn -1 0 -1.0800008890671234e-16
vn -1 0 -1.0800008890671234e-16
vn -0.000015999999955280373 0 -0.9999999998720002
vn -0.000015999999955280373 0 -0.9999999998720002
vn -0.000015999999955280373 0 -0.9999999998720002
vn -0.000015999999955280373 0 -0.9999999998720002
vn -0.000015999999955280373 0 -0.9999999998720002
vn -0.000015999999955280373 0 -0.9999999998720002
vn -0.00001300000030784968 0 0.9999999999155
vn -0.00001300000030784968 0 0.9999999999155
vn -0.00001300000030784968 0 0.9999999999155
vn -0.00001300000030784968 0 0.9999999999155
vn -0.00001300000030784968 0 0.9999999999155
vn -0.00001300000030784968 0 0.9999999999155
f 1/1/1 2/2/2 3/3/3
f 4/4/4 5/5/5 6/6/6
f 7/7/7 8/8/8 9/9/9
f 10/10/10 11/11/11 12/12/12
f 13/13/13 14/14/14 15/15/15
f 16/16/16 17/17/17 18/18/18
f 19/19/19 20/20/20 21/21/21
f 22/22/22 23/23/23 24/24/24
f 25/25/25 26/26/26 27/27/27
f 28/28/28 29/29/29 30/30/30
