# Modified by OBJRotate180 (Mesh rotated 180 degrees around Y-axis)
# Original file: ss_tile_boundary_03.obj
mtllib ../Materials/ss_tile_boundary_03.mtl
v 0.499997 0.100000 -0.499990
v -0.499997 0.100000 -0.500003
v 0.499997 0.100000 0.499978
v -0.499997 0.100000 -0.500003
v -0.500000 0.100000 0.499994
v 0.499997 0.100000 0.499978
v -0.499997 0.100000 -0.500003
v -0.499997 -0.200000 -0.500003
v -0.500000 0.100000 0.499994
v -0.499997 -0.200000 -0.500003
v -0.500000 -0.200000 0.499994
v -0.500000 0.100000 0.499994
v 0.499997 0.100000 0.499978
v 0.499997 -0.200000 0.499978
v 0.499997 0.100000 -0.499990
v 0.499997 -0.200000 0.499978
v 0.499997 -0.200000 -0.499990
v 0.499997 0.100000 -0.499990
v -0.500000 0.100000 0.499994
v -0.500000 -0.200000 0.499994
v 0.499997 0.100000 0.499978
v -0.500000 -0.200000 0.499994
v 0.499997 -0.200000 0.499978
v 0.499997 0.100000 0.499978
v 0.499997 0.100000 -0.499990
v 0.499997 -0.200000 -0.499990
v -0.499997 0.100000 -0.500003
v 0.499997 -0.200000 -0.499990
v -0.499997 -0.200000 -0.500003
v -0.499997 0.100000 -0.500003
vt 0.779762 0.633554
vt 0.657592 0.633555
vt 0.779763 0.511188
vt 0.657592 0.633555
vt 0.657593 0.511185
vt 0.779763 0.511188
vt 0.123649 0.872233
vt 0.123650 0.847332
vt 0.003027 0.872232
vt 0.123650 0.847332
vt 0.003027 0.847331
vt 0.003027 0.872232
vt 0.003049 0.872232
vt 0.003049 0.847332
vt 0.123642 0.872233
vt 0.003049 0.847332
vt 0.123643 0.847332
vt 0.123642 0.872233
vt 0.122996 0.869995
vt 0.122996 0.846105
vt 0.004038 0.869995
vt 0.122996 0.846105
vt 0.004038 0.846105
vt 0.004038 0.869995
vt 0.004044 0.869996
vt 0.004044 0.846106
vt 0.122999 0.869996
vt 0.004044 0.846106
vt 0.122999 0.846106
vt 0.122999 0.869996
vn 0.000000 1.000000 0.000000
vn 0.000000 1.000000 0.000000
vn 0.000000 1.000000 0.000000
vn 0.000000 1.000000 0.000000
vn 0.000000 1.000000 0.000000
vn 0.000000 1.000000 0.000000
vn -1.000000 0.000000 -0.000003
vn -1.000000 0.000000 -0.000003
vn -1.000000 0.000000 -0.000003
vn -1.000000 0.000000 -0.000003
vn -1.000000 0.000000 -0.000003
vn -1.000000 0.000000 -0.000003
vn 1.000000 0.000000 0.000000
vn 1.000000 0.000000 0.000000
vn 1.000000 0.000000 0.000000
vn 1.000000 0.000000 0.000000
vn 1.000000 0.000000 0.000000
vn 1.000000 0.000000 0.000000
vn 0.000016 0.000000 1.000000
vn 0.000016 0.000000 1.000000
vn 0.000016 0.000000 1.000000
vn 0.000016 0.000000 1.000000
vn 0.000016 0.000000 1.000000
vn 0.000016 0.000000 1.000000
vn 0.000013 0.000000 -1.000000
vn 0.000013 0.000000 -1.000000
vn 0.000013 0.000000 -1.000000
vn 0.000013 0.000000 -1.000000
vn 0.000013 0.000000 -1.000000
vn 0.000013 0.000000 -1.000000
o tile_hazzard
o tile_hazzard
usemtl PDX01_-_Default
f 1/1/1 2/2/2 3/3/3
f 4/4/4 5/5/5 6/6/6
f 7/7/7 8/8/8 9/9/9
f 10/10/10 11/11/11 12/12/12
f 13/13/13 14/14/14 15/15/15
f 16/16/16 17/17/17 18/18/18
f 19/19/19 20/20/20 21/21/21
f 22/22/22 23/23/23 24/24/24
f 25/25/25 26/26/26 27/27/27
f 28/28/28 29/29/29 30/30/30
