# Modified by OBJRotate180 (Mesh rotated 180 degrees around Y-axis)
# Original file: ss_wall_n.obj
mtllib ../Materials/ss_wall_n.mtl
v -0.499995 1.456923 -0.281229
v 0.499999 1.456923 -0.281210
v -0.499993 1.456923 -0.499981
v 0.499999 1.456923 -0.281210
v 0.500003 1.456923 -0.499991
v -0.499993 1.456923 -0.499981
v 0.499994 0.100000 0.500006
v 0.499994 -0.200000 0.500006
v 0.500003 0.100000 -0.499991
v 0.499994 -0.200000 0.500006
v 0.500003 -0.200000 -0.499991
v 0.500003 0.100000 -0.499991
v -0.499994 0.100000 -0.499981
v -0.499994 -0.200000 -0.499981
v -0.500000 0.100000 0.499987
v -0.499994 -0.200000 -0.499981
v -0.500000 -0.200000 0.499987
v -0.500000 0.100000 0.499987
v 0.500003 0.100000 -0.499991
v 0.500003 -0.200000 -0.499991
v -0.499994 0.100000 -0.499981
v 0.500003 -0.200000 -0.499991
v -0.499994 -0.200000 -0.499981
v -0.499994 0.100000 -0.499981
v -0.500000 0.100000 0.499987
v -0.500000 -0.200000 0.499987
v 0.499994 0.100000 0.500006
v -0.500000 -0.200000 0.499987
v 0.499994 -0.200000 0.500006
v 0.499994 0.100000 0.500006
v -0.500000 0.100000 0.499987
v -0.499996 0.200000 0.035587
v -0.499994 0.100000 -0.499981
v 0.499994 0.100000 0.500006
v 0.499998 0.200000 0.035606
v -0.500000 0.100000 0.499987
v -0.499996 0.200000 0.035587
v -0.500000 0.100000 0.499987
v 0.499998 0.200000 0.035606
v 0.499998 0.200000 0.035606
v 0.499994 0.100000 0.500006
v 0.500003 0.100000 -0.499991
v -0.499996 0.200000 0.035587
v -0.499996 0.571008 -0.189603
v -0.499994 0.100000 -0.499981
v 0.499998 0.200000 0.035606
v 0.499998 0.571008 -0.189584
v -0.499996 0.200000 0.035587
v -0.499996 0.571008 -0.189603
v -0.499996 0.200000 0.035587
v 0.499998 0.571008 -0.189584
v 0.499998 0.571008 -0.189584
v 0.499998 0.200000 0.035606
v 0.500003 0.100000 -0.499991
v -0.499996 0.571008 -0.189603
v -0.499996 1.271008 -0.189603
v -0.499994 0.100000 -0.499981
v -0.499993 1.456923 -0.499981
v -0.499994 0.100000 -0.499981
v -0.499996 1.271008 -0.189603
v 0.499992 0.772959 0.075938
v 0.499992 1.069057 0.075938
v -0.500002 0.772959 0.075919
v -0.500002 1.069057 0.075919
v -0.500002 0.772959 0.075919
v 0.499992 1.069057 0.075938
v 0.500003 0.100000 -0.499991
v 0.500003 1.456923 -0.499991
v 0.499998 0.571008 -0.189584
v 0.499998 1.271008 -0.189584
v 0.499998 0.571008 -0.189584
v 0.500003 1.456923 -0.499991
v -0.499994 0.100000 -0.499981
v -0.499993 1.456923 -0.499981
v 0.500003 0.100000 -0.499991
v 0.500003 1.456923 -0.499991
v 0.500003 0.100000 -0.499991
v -0.499993 1.456923 -0.499981
v -0.499996 1.271008 -0.189603
v -0.499995 1.456923 -0.281229
v -0.499993 1.456923 -0.499981
v 0.499998 1.271008 -0.189584
v 0.499999 1.456923 -0.281210
v -0.499996 1.271008 -0.189603
v -0.499995 1.456923 -0.281229
v -0.499996 1.271008 -0.189603
v 0.499999 1.456923 -0.281210
v 0.499999 1.456923 -0.281210
v 0.499998 1.271008 -0.189584
v 0.500003 1.456923 -0.499991
v 0.499998 0.571008 -0.189584
v 0.499992 0.772959 0.075938
v -0.499996 0.571008 -0.189603
v -0.500002 0.772959 0.075919
v -0.499996 0.571008 -0.189603
v 0.499992 0.772959 0.075938
v -0.499996 0.571008 -0.189603
v -0.500002 0.772959 0.075919
v -0.499996 1.271008 -0.189603
v -0.500002 1.069057 0.075919
v -0.499996 1.271008 -0.189603
v -0.500002 0.772959 0.075919
v 0.499998 1.271008 -0.189584
v 0.499992 1.069057 0.075938
v 0.499998 0.571008 -0.189584
v 0.499992 0.772959 0.075938
v 0.499998 0.571008 -0.189584
v 0.499992 1.069057 0.075938
v -0.499996 1.271008 -0.189603
v -0.500002 1.069057 0.075919
v 0.499998 1.271008 -0.189584
v 0.499992 1.069057 0.075938
v 0.499998 1.271008 -0.189584
v -0.500002 1.069057 0.075919
vt 0.988609 0.263043
vt 0.876587 0.263044
vt 0.988545 0.278458
vt 0.876587 0.263044
vt 0.876593 0.278460
vt 0.988545 0.278458
vt 0.129373 0.841635
vt 0.129373 0.817459
vt 0.012264 0.841634
vt 0.129373 0.817459
vt 0.012264 0.817458
vt 0.012264 0.841634
vt 0.012285 0.841634
vt 0.012285 0.817459
vt 0.129366 0.841635
vt 0.012285 0.817459
vt 0.129367 0.817460
vt 0.129366 0.841635
vt 0.128739 0.839462
vt 0.128739 0.816268
vt 0.013246 0.839462
vt 0.128739 0.816268
vt 0.013246 0.816268
vt 0.013246 0.839462
vt 0.013251 0.839463
vt 0.013251 0.816269
vt 0.128742 0.839463
vt 0.013251 0.816269
vt 0.128742 0.816269
vt 0.128742 0.839463
vt 0.746059 0.023910
vt 0.788492 0.041432
vt 0.866933 0.023910
vt 0.877243 0.008143
vt 0.876939 0.081077
vt 0.986473 0.008142
vt 0.986522 0.081076
vt 0.986473 0.008142
vt 0.876939 0.081077
vt 0.788490 0.041432
vt 0.746057 0.023910
vt 0.866937 0.023910
vt 0.788492 0.041432
vt 0.818385 0.106438
vt 0.866933 0.023910
vt 0.876939 0.081077
vt 0.877238 0.129207
vt 0.986522 0.081076
vt 0.985893 0.129197
vt 0.986522 0.081076
vt 0.877238 0.129207
vt 0.818384 0.106438
vt 0.788490 0.041432
vt 0.866937 0.023910
vt 0.818385 0.106438
vt 0.818385 0.229090
vt 0.866933 0.023910
vt 0.866933 0.261665
vt 0.866933 0.023910
vt 0.818385 0.229090
vt 0.876674 0.174558
vt 0.876674 0.208953
vt 0.988632 0.174557
vt 0.988560 0.208952
vt 0.988632 0.174557
vt 0.876674 0.208953
vt 0.866937 0.023910
vt 0.866937 0.261665
vt 0.818384 0.106438
vt 0.818384 0.229090
vt 0.818384 0.106438
vt 0.866937 0.261665
vt 0.863066 0.021178
vt 0.861189 0.268926
vt 0.748105 0.024935
vt 0.749982 0.268929
vt 0.748105 0.024935
vt 0.861189 0.268926
vt 0.818385 0.229090
vt 0.832717 0.261665
vt 0.866933 0.261665
vt 0.876560 0.246354
vt 0.876587 0.263044
vt 0.988555 0.246530
vt 0.988609 0.263043
vt 0.988555 0.246530
vt 0.876587 0.263044
vt 0.832716 0.261665
vt 0.818384 0.229090
vt 0.866937 0.261665
vt 0.876460 0.129207
vt 0.876674 0.156158
vt 0.988926 0.129197
vt 0.988632 0.156157
vt 0.988926 0.129197
vt 0.876674 0.156158
vt 0.818385 0.106438
vt 0.776852 0.141824
vt 0.818385 0.229090
vt 0.776852 0.193705
vt 0.818385 0.229090
vt 0.776852 0.141824
vt 0.818384 0.229090
vt 0.776851 0.193705
vt 0.818384 0.106438
vt 0.776851 0.141824
vt 0.818384 0.106438
vt 0.776851 0.193705
vt 0.988555 0.246530
vt 0.988560 0.210923
vt 0.876560 0.246354
vt 0.876674 0.210924
vt 0.876560 0.246354
vt 0.988560 0.210923
vn 0.000000 1.000000 0.000000
vn 0.000000 1.000000 0.000000
vn 0.000000 1.000000 0.000000
vn 0.000000 1.000000 0.000000
vn 0.000000 1.000000 0.000000
vn 0.000000 1.000000 0.000000
vn 1.000000 0.000000 0.000009
vn 1.000000 0.000000 0.000009
vn 1.000000 0.000000 0.000009
vn 1.000000 0.000000 0.000009
vn 1.000000 0.000000 0.000009
vn 1.000000 0.000000 0.000009
vn -1.000000 0.000000 -0.000006
vn -1.000000 0.000000 -0.000006
vn -1.000000 0.000000 -0.000006
vn -1.000000 0.000000 -0.000006
vn -1.000000 0.000000 -0.000006
vn -1.000000 0.000000 -0.000006
vn -0.000010 0.000000 -1.000000
vn -0.000010 0.000000 -1.000000
vn -0.000010 0.000000 -1.000000
vn -0.000010 0.000000 -1.000000
vn -0.000010 0.000000 -1.000000
vn -0.000010 0.000000 -1.000000
vn -0.000019 0.000000 1.000000
vn -0.000019 0.000000 1.000000
vn -0.000019 0.000000 1.000000
vn -0.000019 0.000000 1.000000
vn -0.000019 0.000000 1.000000
vn -0.000019 0.000000 1.000000
vn -1.000000 0.000006 -0.000006
vn -1.000000 0.000006 -0.000006
vn -1.000000 0.000006 -0.000006
vn -0.000004 0.977592 0.210507
vn -0.000004 0.977592 0.210507
vn -0.000004 0.977592 0.210507
vn -0.000004 0.977592 0.210507
vn -0.000004 0.977592 0.210507
vn -0.000004 0.977592 0.210507
vn 1.000000 0.000008 0.000009
vn 1.000000 0.000008 0.000009
vn 1.000000 0.000008 0.000009
vn -1.000000 0.000006 -0.000006
vn -1.000000 -0.000001 -0.000005
vn -1.000000 0.000006 -0.000006
vn -0.000016 0.518869 0.854854
vn -0.000016 0.518869 0.854854
vn -0.000016 0.518869 0.854854
vn -0.000016 0.518869 0.854854
vn -0.000016 0.518869 0.854854
vn -0.000016 0.518869 0.854854
vn 1.000000 0.000004 0.000010
vn 1.000000 0.000008 0.000009
vn 1.000000 0.000008 0.000009
vn -1.000000 -0.000001 -0.000005
vn -1.000000 0.000000 -0.000007
vn -1.000000 0.000006 -0.000006
vn -1.000000 0.000000 -0.000007
vn -1.000000 0.000006 -0.000006
vn -1.000000 0.000000 -0.000007
vn -0.000019 0.000000 1.000000
vn -0.000019 0.000000 1.000000
vn -0.000019 0.000000 1.000000
vn -0.000019 0.000000 1.000000
vn -0.000019 0.000000 1.000000
vn -0.000019 0.000000 1.000000
vn 1.000000 0.000000 0.000016
vn 1.000000 0.000000 0.000016
vn 1.000000 0.000004 0.000010
vn 1.000000 0.000000 0.000017
vn 1.000000 0.000004 0.000010
vn 1.000000 0.000000 0.000016
vn -0.000010 0.000000 -1.000000
vn -0.000010 0.000000 -1.000000
vn -0.000010 0.000000 -1.000000
vn -0.000010 0.000000 -1.000000
vn -0.000010 0.000000 -1.000000
vn -0.000010 0.000000 -1.000000
vn -1.000000 0.000000 -0.000007
vn -1.000000 0.000001 -0.000007
vn -1.000000 0.000000 -0.000007
vn -0.000017 0.442067 0.896982
vn -0.000017 0.442067 0.896982
vn -0.000017 0.442067 0.896982
vn -0.000017 0.442067 0.896982
vn -0.000017 0.442067 0.896982
vn -0.000017 0.442067 0.896982
vn 1.000000 0.000005 0.000020
vn 1.000000 0.000000 0.000017
vn 1.000000 0.000000 0.000016
vn -0.000011 -0.795940 0.605375
vn -0.000011 -0.795940 0.605375
vn -0.000011 -0.795940 0.605375
vn -0.000011 -0.795940 0.605375
vn -0.000011 -0.795940 0.605375
vn -0.000011 -0.795940 0.605375
vn -1.000000 0.000000 -0.000025
vn -1.000000 0.000000 -0.000025
vn -1.000000 0.000000 -0.000025
vn -1.000000 0.000000 -0.000024
vn -1.000000 0.000000 -0.000025
vn -1.000000 0.000000 -0.000025
vn 1.000000 0.000000 0.000017
vn 1.000000 0.000000 0.000024
vn 1.000000 0.000000 0.000024
vn 1.000000 0.000000 0.000025
vn 1.000000 0.000000 0.000024
vn 1.000000 0.000000 0.000024
vn -0.000011 0.795940 0.605375
vn -0.000011 0.795940 0.605375
vn -0.000011 0.795940 0.605375
vn -0.000011 0.795940 0.605375
vn -0.000011 0.795940 0.605375
vn -0.000011 0.795940 0.605375
o wall_fh
o wall_fh
usemtl PDX01_-_Default
f 1/1/1 2/2/2 3/3/3
f 4/4/4 5/5/5 6/6/6
f 7/7/7 8/8/8 9/9/9
f 10/10/10 11/11/11 12/12/12
f 13/13/13 14/14/14 15/15/15
f 16/16/16 17/17/17 18/18/18
f 19/19/19 20/20/20 21/21/21
f 22/22/22 23/23/23 24/24/24
f 25/25/25 26/26/26 27/27/27
f 28/28/28 29/29/29 30/30/30
f 31/31/31 32/32/32 33/33/33
f 34/34/34 35/35/35 36/36/36
f 37/37/37 38/38/38 39/39/39
f 40/40/40 41/41/41 42/42/42
f 43/43/43 44/44/44 45/45/45
f 46/46/46 47/47/47 48/48/48
f 49/49/49 50/50/50 51/51/51
f 52/52/52 53/53/53 54/54/54
f 55/55/55 56/56/56 57/57/57
f 58/58/58 59/59/59 60/60/60
f 61/61/61 62/62/62 63/63/63
f 64/64/64 65/65/65 66/66/66
f 67/67/67 68/68/68 69/69/69
f 70/70/70 71/71/71 72/72/72
f 73/73/73 74/74/74 75/75/75
f 76/76/76 77/77/77 78/78/78
f 79/79/79 80/80/80 81/81/81
f 82/82/82 83/83/83 84/84/84
f 85/85/85 86/86/86 87/87/87
f 88/88/88 89/89/89 90/90/90
f 91/91/91 92/92/92 93/93/93
f 94/94/94 95/95/95 96/96/96
f 97/97/97 98/98/98 99/99/99
f 100/100/100 101/101/101 102/102/102
f 103/103/103 104/104/104 105/105/105
f 106/106/106 107/107/107 108/108/108
f 109/109/109 110/110/110 111/111/111
f 112/112/112 113/113/113 114/114/114
