mtllib ss_wall_n.mtl
o wall_fh
usemtl PDX01_-_Default
v 0.49999462532389666 1.4569229111075401 0.2812289990721292
v -0.4999993810808657 1.4569229111075404 0.2812099955978658
v 0.49999300029984023 1.4569229111075401 0.4999809958397292
v -0.4999993810808657 1.4569229111075404 0.2812099955978658
v -0.5000030197318528 1.4569229111075404 0.4999909900009897
v 0.49999300029984023 1.4569229111075401 0.4999809958397292
v -0.49999399999978766 0.1000000014901164 -0.5000060000002122
v -0.49999399999978766 -0.20000000298023196 -0.5000060000002122
v -0.500003019731853 0.10000000149011629 0.4999909900009894
v -0.49999399999978766 -0.20000000298023196 -0.5000060000002122
v -0.500003019731853 -0.20000000298023207 0.49999099000098934
v -0.500003019731853 0.10000000149011629 0.4999909900009894
v 0.49999400029983754 0.10000000149011606 0.49998099585172895
v 0.49999400029983754 -0.2000000029802323 0.4999809958517289
v 0.4999999999159575 0.10000000149011617 -0.4999869965260266
v 0.49999400029983754 -0.2000000029802323 0.4999809958517289
v 0.4999999999159575 -0.20000000298023218 -0.49998699652602663
v 0.4999999999159575 0.10000000149011617 -0.4999869965260266
v -0.500003019731853 0.10000000149011629 0.4999909900009894
v -0.500003019731853 -0.20000000298023207 0.49999099000098934
v 0.49999400029983754 0.10000000149011606 0.49998099585172895
v -0.500003019731853 -0.20000000298023207 0.49999099000098934
v 0.49999400029983754 -0.2000000029802323 0.4999809958517289
v 0.49999400029983754 0.10000000149011606 0.49998099585172895
v 0.4999999999159575 0.10000000149011617 -0.4999869965260266
v 0.4999999999159575 -0.20000000298023218 -0.49998699652602663
v -0.49999399999978766 0.1000000014901164 -0.5000060000002122
v 0.4999999999159575 -0.20000000298023218 -0.49998699652602663
v -0.49999399999978766 -0.20000000298023196 -0.5000060000002122
v -0.49999399999978766 0.1000000014901164 -0.5000060000002122
v 0.4999999999159575 0.10000000149011617 -0.4999869965260266
v 0.49999642711601694 0.20000001043081284 -0.035586999357089075
v 0.49999400029983754 0.10000000149011606 0.49998099585172895
v -0.49999399999978766 0.1000000014901164 -0.5000060000002122
v -0.4999975462420728 0.20000001043081306 -0.03560599910566567
v 0.4999999999159575 0.10000000149011617 -0.4999869965260266
v 0.49999642711601694 0.20000001043081284 -0.035586999357089075
v 0.4999999999159575 0.10000000149011617 -0.4999869965260266
v -0.4999975462420728 0.20000001043081306 -0.03560599910566567
v -0.4999975462420728 0.20000001043081306 -0.03560599910566567
v -0.49999399999978766 0.1000000014901164 -0.5000060000002122
v -0.500003019731853 0.10000000149011629 0.4999909900009894
v 0.49999642711601694 0.20000001043081284 -0.035586999357089075
v 0.4999957248359761 0.571007989346981 0.18960299568753894
v 0.49999400029983754 0.10000000149011606 0.49998099585172895
v -0.4999975462420728 0.20000001043081306 -0.03560599910566567
v -0.4999982815689651 0.5710079893469813 0.18958400711443668
v 0.49999642711601694 0.20000001043081284 -0.035586999357089075
v 0.4999957248359761 0.571007989346981 0.18960299568753894
v 0.49999642711601694 0.20000001043081284 -0.035586999357089075
v -0.4999982815689651 0.5710079893469813 0.18958400711443668
v -0.4999982815689651 0.5710079893469813 0.18958400711443668
v -0.4999975462420728 0.20000001043081306 -0.03560599910566567
v -0.500003019731853 0.10000000149011629 0.4999909900009894
v 0.4999957248359761 0.571007989346981 0.18960299568753894
v 0.49999572483597615 1.2710080370306969 0.1896029956875391
v 0.49999400029983754 0.10000000149011606 0.49998099585172895
v 0.49999300029984023 1.4569229111075401 0.4999809958397292
v 0.49999400029983754 0.10000000149011606 0.49998099585172895
v 0.49999572483597615 1.2710080370306969 0.1896029956875391
v -0.4999921150724861 0.7729590162634852 -0.07593800347420916
v -0.4999921150724861 1.0690570101141932 -0.07593800347420909
v 0.5000019111000299 0.772959016263485 -0.0759189999997085
v 0.50000191110003 1.069057010114193 -0.07591899999970843
v 0.5000019111000299 0.772959016263485 -0.0759189999997085
v -0.4999921150724861 1.0690570101141932 -0.07593800347420909
v -0.500003019731853 0.10000000149011629 0.4999909900009894
v -0.5000030197318528 1.4569229111075404 0.4999909900009897
v -0.4999982815689651 0.5710079893469813 0.18958400711443668
v -0.4999982815689651 1.271008037030697 0.18958400711443685
v -0.4999982815689651 0.5710079893469813 0.18958400711443668
v -0.5000030197318528 1.4569229111075404 0.4999909900009897
v 0.49999400029983754 0.10000000149011606 0.49998099585172895
v 0.49999300029984023 1.4569229111075401 0.4999809958397292
v -0.500003019731853 0.10000000149011629 0.4999909900009894
v -0.5000030197318528 1.4569229111075404 0.4999909900009897
v -0.500003019731853 0.10000000149011629 0.4999909900009894
v 0.49999300029984023 1.4569229111075401 0.4999809958397292
v 0.49999572483597615 1.2710080370306969 0.1896029956875391
v 0.49999462532389666 1.4569229111075401 0.2812289990721292
v 0.49999300029984023 1.4569229111075401 0.4999809958397292
v -0.4999982815689651 1.271008037030697 0.18958400711443685
v -0.4999993810808657 1.4569229111075404 0.2812099955978658
v 0.49999572483597615 1.2710080370306969 0.1896029956875391
v 0.49999462532389666 1.4569229111075401 0.2812289990721292
v 0.49999572483597615 1.2710080370306969 0.1896029956875391
v -0.4999993810808657 1.4569229111075404 0.2812099955978658
v -0.4999993810808657 1.4569229111075404 0.2812099955978658
v -0.4999982815689651 1.271008037030697 0.18958400711443685
v -0.5000030197318528 1.4569229111075404 0.4999909900009897
v -0.4999982815689651 0.5710079893469813 0.18958400711443668
v -0.4999921150724861 0.7729590162634852 -0.07593800347420916
v 0.4999957248359761 0.571007989346981 0.18960299568753894
v 0.5000019111000299 0.772959016263485 -0.0759189999997085
v 0.4999957248359761 0.571007989346981 0.18960299568753894
v -0.4999921150724861 0.7729590162634852 -0.07593800347420916
v 0.4999957248359761 0.571007989346981 0.18960299568753894
v 0.5000019111000299 0.772959016263485 -0.0759189999997085
v 0.49999572483597615 1.2710080370306969 0.1896029956875391
v 0.50000191110003 1.069057010114193 -0.07591899999970843
v 0.49999572483597615 1.2710080370306969 0.1896029956875391
v 0.5000019111000299 0.772959016263485 -0.0759189999997085
v -0.4999982815689651 1.271008037030697 0.18958400711443685
v -0.4999921150724861 1.0690570101141932 -0.07593800347420909
v -0.4999982815689651 0.5710079893469813 0.18958400711443668
v -0.4999921150724861 0.7729590162634852 -0.07593800347420916
v -0.4999982815689651 0.5710079893469813 0.18958400711443668
v -0.4999921150724861 1.0690570101141932 -0.07593800347420909
v 0.49999572483597615 1.2710080370306969 0.1896029956875391
v 0.50000191110003 1.069057010114193 -0.07591899999970843
v -0.4999982815689651 1.271008037030697 0.18958400711443685
v -0.4999921150724861 1.0690570101141932 -0.07593800347420909
v -0.4999982815689651 1.271008037030697 0.18958400711443685
v 0.50000191110003 1.069057010114193 -0.07591899999970843
vt 0.9886090159416199 0.26304298639297485
vt 0.8765869736671448 0.26304399967193604
vt 0.9885450005531311 0.27845799922943115
vt 0.8765869736671448 0.26304399967193604
vt 0.8765929937362671 0.2784600257873535
vt 0.9885450005531311 0.27845799922943115
vt 0.1293729990720749 0.84163498878479
vt 0.1293729990720749 0.817458987236023
vt 0.012264000251889229 0.8416340351104736
vt 0.1293729990720749 0.817458987236023
vt 0.012264000251889229 0.8174580335617065
vt 0.012264000251889229 0.8416340351104736
vt 0.012284999713301659 0.8416340351104736
vt 0.012284999713301659 0.817458987236023
vt 0.12936599552631378 0.84163498878479
vt 0.012284999713301659 0.817458987236023
vt 0.12936699390411377 0.8174600005149841
vt 0.12936599552631378 0.84163498878479
vt 0.12873899936676025 0.8394619822502136
vt 0.12873899936676025 0.8162679672241211
vt 0.013245999813079834 0.8394619822502136
vt 0.12873899936676025 0.8162679672241211
vt 0.013245999813079834 0.8162679672241211
vt 0.013245999813079834 0.8394619822502136
vt 0.013251000083982944 0.8394629955291748
vt 0.013251000083982944 0.8162689805030823
vt 0.12874199450016022 0.8394629955291748
vt 0.013251000083982944 0.8162689805030823
vt 0.12874199450016022 0.8162689805030823
vt 0.12874199450016022 0.8394629955291748
vt 0.746059000492096 0.02390998601913452
vt 0.7884920239448547 0.04143202304840088
vt 0.8669329881668091 0.02390998601913452
vt 0.8772429823875427 0.008143007755279541
vt 0.8769389986991882 0.081076979637146
vt 0.986473023891449 0.00814199447631836
vt 0.9865220189094543 0.08107602596282959
vt 0.986473023891449 0.00814199447631836
vt 0.8769389986991882 0.081076979637146
vt 0.7884899973869324 0.04143202304840088
vt 0.7460569739341736 0.02390998601913452
vt 0.866936981678009 0.02390998601913452
vt 0.7884920239448547 0.04143202304840088
vt 0.8183850049972534 0.10643798112869263
vt 0.8669329881668091 0.02390998601913452
vt 0.8769389986991882 0.081076979637146
vt 0.8772379755973816 0.12920701503753662
vt 0.9865220189094543 0.08107602596282959
vt 0.9858930110931396 0.12919700145721436
vt 0.9865220189094543 0.08107602596282959
vt 0.8772379755973816 0.12920701503753662
vt 0.8183839917182922 0.10643798112869263
vt 0.7884899973869324 0.04143202304840088
vt 0.866936981678009 0.02390998601913452
vt 0.8183850049972534 0.10643798112869263
vt 0.8183850049972534 0.22908997535705566
vt 0.8669329881668091 0.02390998601913452
vt 0.8669329881668091 0.2616649866104126
vt 0.8669329881668091 0.02390998601913452
vt 0.8183850049972534 0.22908997535705566
vt 0.8766739964485168 0.17455798387527466
vt 0.8766739964485168 0.20895302295684814
vt 0.9886320233345032 0.17455697059631348
vt 0.9885600209236145 0.20895200967788696
vt 0.9886320233345032 0.17455697059631348
vt 0.8766739964485168 0.20895302295684814
vt 0.866936981678009 0.02390998601913452
vt 0.866936981678009 0.2616649866104126
vt 0.8183839917182922 0.10643798112869263
vt 0.8183839917182922 0.22908997535705566
vt 0.8183839917182922 0.10643798112869263
vt 0.866936981678009 0.2616649866104126
vt 0.8630660176277161 0.021178007125854492
vt 0.8611890077590942 0.2689260244369507
vt 0.748104989528656 0.024935007095336914
vt 0.7499819993972778 0.26892900466918945
vt 0.748104989528656 0.024935007095336914
vt 0.8611890077590942 0.2689260244369507
vt 0.8183850049972534 0.22908997535705566
vt 0.8327170014381409 0.2616649866104126
vt 0.8669329881668091 0.2616649866104126
vt 0.8765599727630615 0.24635398387908936
vt 0.8765869736671448 0.26304399967193604
vt 0.9885550141334534 0.24652999639511108
vt 0.9886090159416199 0.26304298639297485
vt 0.9885550141334534 0.24652999639511108
vt 0.8765869736671448 0.26304399967193604
vt 0.8327159881591797 0.2616649866104126
vt 0.8183839917182922 0.22908997535705566
vt 0.866936981678009 0.2616649866104126
vt 0.8764600157737732 0.12920701503753662
vt 0.8766739964485168 0.1561579704284668
vt 0.9889259934425354 0.12919700145721436
vt 0.9886320233345032 0.1561570167541504
vt 0.9889259934425354 0.12919700145721436
vt 0.8766739964485168 0.1561579704284668
vt 0.8183850049972534 0.10643798112869263
vt 0.776852011680603 0.14182400703430176
vt 0.8183850049972534 0.22908997535705566
vt 0.776852011680603 0.1937050223350525
vt 0.8183850049972534 0.22908997535705566
vt 0.776852011680603 0.14182400703430176
vt 0.8183839917182922 0.22908997535705566
vt 0.7768509984016418 0.1937050223350525
vt 0.8183839917182922 0.10643798112869263
vt 0.7768509984016418 0.14182400703430176
vt 0.8183839917182922 0.10643798112869263
vt 0.7768509984016418 0.1937050223350525
vt 0.9885550141334534 0.24652999639511108
vt 0.9885600209236145 0.21092301607131958
vt 0.8765599727630615 0.24635398387908936
vt 0.8766739964485168 0.21092402935028076
vt 0.8765599727630615 0.24635398387908936
vt 0.9885600209236145 0.21092301607131958
vn 2.2204327264136753e-16 1 1.1102496698987523e-16
vn 2.2204327264136753e-16 1 1.1102496698987523e-16
vn 2.2204327264136753e-16 1 1.1102496698987523e-16
vn 2.2204327264136753e-16 1 1.1102496698987523e-16
vn 2.2204327264136753e-16 1 1.1102496698987523e-16
vn 2.2204327264136753e-16 1 1.1102496698987523e-16
vn -0.9999999999595002 1.110243008595341e-16 -0.000009000000317736045
vn -0.9999999999595002 1.110243008595341e-16 -0.000009000000317736045
vn -0.9999999999595002 1.110243008595341e-16 -0.000009000000317736045
vn -0.9999999999595002 1.110243008595341e-16 -0.000009000000317736045
vn -0.9999999999595002 1.110243008595341e-16 -0.000009000000317736045
vn -0.9999999999595002 1.110243008595341e-16 -0.000009000000317736045
vn 0.9999999999820001 -1.1102363472819382e-16 0.000006000000211771977
vn 0.9999999999820001 -1.1102363472819382e-16 0.000006000000211771977
vn 0.9999999999820001 -1.1102363472819382e-16 0.000006000000211771977
vn 0.9999999999820001 -1.1102363472819382e-16 0.000006000000211771977
vn 0.9999999999820001 -1.1102363472819382e-16 0.000006000000211771977
vn 0.9999999999820001 -1.1102363472819382e-16 0.000006000000211771977
vn 0.00000999999974420742 -2.220457151369253e-16 0.99999999995
vn 0.00000999999974420742 -2.220457151369253e-16 0.99999999995
vn 0.00000999999974420742 -2.220457151369253e-16 0.99999999995
vn 0.00000999999974420742 -2.220457151369253e-16 0.99999999995
vn 0.00000999999974420742 -2.220457151369253e-16 0.99999999995
vn 0.00000999999974420742 -2.220457151369253e-16 0.99999999995
vn 0.000019000000518661636 2.2204249546114794e-16 -0.9999999998195002
vn 0.000019000000518661636 2.2204249546114794e-16 -0.9999999998195002
vn 0.000019000000518661636 2.2204249546114794e-16 -0.9999999998195002
vn 0.000019000000518661636 2.2204249546114794e-16 -0.9999999998195002
vn 0.000019000000518661636 2.2204249546114794e-16 -0.9999999998195002
vn 0.000019000000518661636 2.2204249546114794e-16 -0.9999999998195002
vn 0.999999999964 0.000006000000212330107 0.0000060000002116639774
vn 0.999999999964 0.000006000000212330107 0.0000060000002116639774
vn 0.999999999964 0.000006000000212330107 0.0000060000002116639774
vn 0.0000035260853313375907 0.9775923335901963 -0.21050707658708645
vn 0.0000035260853313375907 0.9775923335901963 -0.21050707658708645
vn 0.0000035260853313375907 0.9775923335901963 -0.21050707658708645
vn 0.0000035260853313375907 0.9775923335901963 -0.21050707658708645
vn 0.0000035260853313375907 0.9775923335901963 -0.21050707658708645
vn 0.0000035260853313375907 0.9775923335901963 -0.21050707658708645
vn -0.9999999999275 0.000007999999980196964 -0.000009000000317448042
vn -0.9999999999275 0.000007999999980196964 -0.000009000000317448042
vn -0.9999999999275 0.000007999999980196964 -0.000009000000317448042
vn 0.999999999964 0.000006000000212330107 0.0000060000002116639774
vn 0.9999999999870002 -9.99999997633266e-7 0.000005000000328038572
vn 0.999999999964 0.000006000000212330107 0.0000060000002116639774
vn 0.0000162582453060672 0.5188688983222338 -0.8548538273234442
vn 0.0000162582453060672 0.5188688983222338 -0.8548538273234442
vn 0.0000162582453060672 0.5188688983222338 -0.8548538273234442
vn 0.0000162582453060672 0.5188688983222338 -0.8548538273234442
vn 0.0000162582453060672 0.5188688983222338 -0.8548538273234442
vn 0.0000162582453060672 0.5188688983222338 -0.8548538273234442
vn -0.9999999999420002 0.000003999999990259996 -0.000010000000428766624
vn -0.9999999999275 0.000007999999980196964 -0.000009000000317448042
vn -0.9999999999275 0.000007999999980196964 -0.000009000000317448042
vn 0.9999999999870002 -9.99999997633266e-7 0.000005000000328038572
vn 0.9999999999755002 -1.1102385677215226e-16 0.000007000000550256233
vn 0.999999999964 0.000006000000212330107 0.0000060000002116639774
vn 0.9999999999755002 -1.1102385677215226e-16 0.000007000000550256233
vn 0.999999999964 0.000006000000212330107 0.0000060000002116639774
vn 0.9999999999755002 -1.1102385677215226e-16 0.000007000000550256233
vn 0.000019000000518661636 2.2204249546114794e-16 -0.9999999998195002
vn 0.000019000000518661636 2.2204249546114794e-16 -0.9999999998195002
vn 0.000019000000518661636 2.2204249546114794e-16 -0.9999999998195002
vn 0.000019000000518661636 2.2204249546114794e-16 -0.9999999998195002
vn 0.000019000000518661636 2.2204249546114794e-16 -0.9999999998195002
vn 0.000019000000518661636 2.2204249546114794e-16 -0.9999999998195002
vn -0.9999999998720001 1.1102585516207533e-16 -0.00001600000041315808
vn -0.9999999998720001 1.1102585516207533e-16 -0.00001600000041315808
vn -0.9999999999420002 0.000003999999990259996 -0.000010000000428766624
vn -0.9999999998555001 1.1102607720482256e-16 -0.000017000000296789987
vn -0.9999999999420002 0.000003999999990259996 -0.000010000000428766624
vn -0.9999999998720001 1.1102585516207533e-16 -0.00001600000041315808
vn 0.00000999999974420742 -2.220457151369253e-16 0.99999999995
vn 0.00000999999974420742 -2.220457151369253e-16 0.99999999995
vn 0.00000999999974420742 -2.220457151369253e-16 0.99999999995
vn 0.00000999999974420742 -2.220457151369253e-16 0.99999999995
vn 0.00000999999974420742 -2.220457151369253e-16 0.99999999995
vn 0.00000999999974420742 -2.220457151369253e-16 0.99999999995
vn 0.9999999999755002 -1.1102385677215226e-16 0.000007000000550256233
vn 0.9999999999750001 9.999999974232188e-7 0.000007000000550252733
vn 0.9999999999755002 -1.1102385677215226e-16 0.000007000000550256233
vn 0.000016763785064456008 0.44206700529684767 -0.8969820302251613
vn 0.000016763785064456008 0.44206700529684767 -0.8969820302251613
vn 0.000016763785064456008 0.44206700529684767 -0.8969820302251613
vn 0.000016763785064456008 0.44206700529684767 -0.8969820302251613
vn 0.000016763785064456008 0.44206700529684767 -0.8969820302251613
vn 0.000016763785064456008 0.44206700529684767 -0.8969820302251613
vn -0.9999999997875 0.000004999999873937901 -0.00002000000040200905
vn -0.9999999998555001 1.1102607720482256e-16 -0.000017000000296789987
vn -0.9999999998720001 1.1102585516207533e-16 -0.00001600000041315808
vn 0.000011264503817144197 -0.7959402406798821 -0.6053752003010714
vn 0.000011264503817144197 -0.7959402406798821 -0.6053752003010714
vn 0.000011264503817144197 -0.7959402406798821 -0.6053752003010714
vn 0.000011264503817144197 -0.7959402406798821 -0.6053752003010714
vn 0.000011264503817144197 -0.7959402406798821 -0.6053752003010714
vn 0.000011264503817144197 -0.7959402406798821 -0.6053752003010714
vn 0.9999999996875 -1.1102785354300516e-16 0.000025000000274115926
vn 0.9999999996875 -1.1102785354300516e-16 0.000025000000274115926
vn 0.9999999996875 -1.1102785354300516e-16 0.000025000000274115926
vn 0.9999999997119999 -1.1102763150124715e-16 0.00002400000084553137
vn 0.9999999996875 -1.1102785354300516e-16 0.000025000000274115926
vn 0.9999999996875 -1.1102785354300516e-16 0.000025000000274115926
vn -0.9999999998555001 1.1102607720482256e-16 -0.000017000000296789987
vn -0.9999999997119999 1.1102763150124715e-16 -0.00002400000084553137
vn -0.9999999997119999 1.1102763150124715e-16 -0.00002400000084553137
vn -0.9999999996875 1.1102785354300516e-16 -0.000025000000274115926
vn -0.9999999997119999 1.1102763150124715e-16 -0.00002400000084553137
vn -0.9999999997119999 1.1102763150124715e-16 -0.00002400000084553137
vn 0.000011264503817497662 0.7959402406798822 -0.6053752003010711
vn 0.000011264503817497662 0.7959402406798822 -0.6053752003010711
vn 0.000011264503817497662 0.7959402406798822 -0.6053752003010711
vn 0.000011264503817497662 0.7959402406798822 -0.6053752003010711
vn 0.000011264503817497662 0.7959402406798822 -0.6053752003010711
vn 0.000011264503817497662 0.7959402406798822 -0.6053752003010711
f 1/1/1 2/2/2 3/3/3
f 4/4/4 5/5/5 6/6/6
f 7/7/7 8/8/8 9/9/9
f 10/10/10 11/11/11 12/12/12
f 13/13/13 14/14/14 15/15/15
f 16/16/16 17/17/17 18/18/18
f 19/19/19 20/20/20 21/21/21
f 22/22/22 23/23/23 24/24/24
f 25/25/25 26/26/26 27/27/27
f 28/28/28 29/29/29 30/30/30
f 31/31/31 32/32/32 33/33/33
f 34/34/34 35/35/35 36/36/36
f 37/37/37 38/38/38 39/39/39
f 40/40/40 41/41/41 42/42/42
f 43/43/43 44/44/44 45/45/45
f 46/46/46 47/47/47 48/48/48
f 49/49/49 50/50/50 51/51/51
f 52/52/52 53/53/53 54/54/54
f 55/55/55 56/56/56 57/57/57
f 58/58/58 59/59/59 60/60/60
f 61/61/61 62/62/62 63/63/63
f 64/64/64 65/65/65 66/66/66
f 67/67/67 68/68/68 69/69/69
f 70/70/70 71/71/71 72/72/72
f 73/73/73 74/74/74 75/75/75
f 76/76/76 77/77/77 78/78/78
f 79/79/79 80/80/80 81/81/81
f 82/82/82 83/83/83 84/84/84
f 85/85/85 86/86/86 87/87/87
f 88/88/88 89/89/89 90/90/90
f 91/91/91 92/92/92 93/93/93
f 94/94/94 95/95/95 96/96/96
f 97/97/97 98/98/98 99/99/99
f 100/100/100 101/101/101 102/102/102
f 103/103/103 104/104/104 105/105/105
f 106/106/106 107/107/107 108/108/108
f 109/109/109 110/110/110 111/111/111
f 112/112/112 113/113/113 114/114/114
