# Modified by OBJRotate180 (Mesh rotated 180 degrees around Y-axis)
# Original file: ss_wall_corner_ne.obj
mtllib Materials/ss_wall_corner_ne.mtl
v -0.499994 1.456923 -0.281231
v 0.281219 1.456923 0.500001
v -0.499992 1.456923 -0.499983
v 0.281219 1.456923 0.500001
v 0.500000 1.456923 0.500006
v -0.499992 1.456923 -0.499983
v 0.499993 0.100000 0.500008
v 0.499993 -0.200000 0.500008
v 0.500005 0.100000 -0.499990
v 0.499993 -0.200000 0.500008
v 0.500005 -0.200000 -0.499990
v 0.500005 0.100000 -0.499990
v -0.499993 0.100000 -0.499983
v -0.499993 -0.200000 -0.499983
v -0.500002 0.100000 0.499986
v -0.499993 -0.200000 -0.499983
v -0.500002 -0.200000 0.499986
v -0.500002 0.100000 0.499986
v 0.500005 0.100000 -0.499990
v 0.500005 -0.200000 -0.499990
v -0.499993 0.100000 -0.499983
v 0.500005 -0.200000 -0.499990
v -0.499993 -0.200000 -0.499983
v -0.499993 0.100000 -0.499983
v -0.500002 0.100000 0.499986
v -0.500002 -0.200000 0.499986
v 0.499993 0.100000 0.500008
v -0.500002 -0.200000 0.499986
v 0.499993 -0.200000 0.500008
v 0.499993 0.100000 0.500008
v -0.500002 0.100000 0.499986
v -0.499997 0.200000 0.035586
v -0.499993 0.100000 -0.499983
v -0.499997 0.200000 0.035586
v -0.500002 0.100000 0.499986
v -0.035597 0.200001 0.499999
v -0.499997 0.200000 0.035586
v -0.499995 0.571008 -0.189605
v -0.499993 0.100000 -0.499983
v -0.035597 0.200001 0.499999
v 0.189593 0.571008 0.500000
v -0.499997 0.200000 0.035586
v -0.499995 0.571008 -0.189605
v -0.499997 0.200000 0.035586
v 0.189593 0.571008 0.500000
v -0.499995 0.571008 -0.189605
v -0.499995 1.271008 -0.189605
v -0.499993 0.100000 -0.499983
v -0.499992 1.456923 -0.499983
v -0.499993 0.100000 -0.499983
v -0.499995 1.271008 -0.189605
v -0.075930 0.772959 0.499992
v -0.075930 1.069057 0.499993
v -0.500002 0.772959 0.075918
v -0.500002 1.069057 0.075918
v -0.500002 0.772959 0.075918
v -0.075930 1.069057 0.499993
v -0.499993 0.100000 -0.499983
v -0.499992 1.456923 -0.499983
v 0.500005 0.100000 -0.499990
v -0.499995 1.271008 -0.189605
v -0.499994 1.456923 -0.281231
v -0.499992 1.456923 -0.499983
v 0.189593 1.271008 0.500000
v 0.281219 1.456923 0.500001
v -0.499995 1.271008 -0.189605
v -0.499994 1.456923 -0.281231
v -0.499995 1.271008 -0.189605
v 0.281219 1.456923 0.500001
v 0.189593 0.571008 0.500000
v -0.075930 0.772959 0.499992
v -0.499995 0.571008 -0.189605
v -0.500002 0.772959 0.075918
v -0.499995 0.571008 -0.189605
v -0.075930 0.772959 0.499992
v -0.499995 0.571008 -0.189605
v -0.500002 0.772959 0.075918
v -0.499995 1.271008 -0.189605
v -0.500002 1.069057 0.075918
v -0.499995 1.271008 -0.189605
v -0.500002 0.772959 0.075918
v -0.499995 1.271008 -0.189605
v -0.500002 1.069057 0.075918
v 0.189593 1.271008 0.500000
v -0.075930 1.069057 0.499993
v 0.189593 1.271008 0.500000
v -0.500002 1.069057 0.075918
v -0.035597 0.200001 0.499999
v -0.499998 0.100000 0.499994
v 0.500000 0.100001 0.500006
v 0.189593 0.571008 0.500000
v -0.035597 0.200001 0.499999
v 0.500000 0.100001 0.500006
v 0.500000 0.100001 0.500006
v 0.500000 1.456923 0.500006
v 0.189593 0.571008 0.500000
v 0.189593 1.271008 0.500000
v 0.189593 0.571008 0.500000
v 0.500000 1.456923 0.500006
v 0.281219 1.456923 0.500001
v 0.189593 1.271008 0.500000
v 0.500000 1.456923 0.500006
v 0.189593 1.271008 0.500000
v -0.075930 1.069057 0.499993
v 0.189593 0.571008 0.500000
v -0.075930 0.772959 0.499992
v 0.189593 0.571008 0.500000
v -0.075930 1.069057 0.499993
v 0.500005 1.456466 -0.499990
v 0.500005 0.100000 -0.499990
v -0.499992 1.456923 -0.499983
v 0.500000 1.456923 0.500006
v 0.500000 0.100001 0.500006
v 0.500005 1.456466 -0.499990
v 0.500000 0.100001 0.500006
v 0.500005 0.100000 -0.499990
v 0.500005 1.456466 -0.499990
v 0.500000 1.456923 0.500006
v 0.500005 1.456466 -0.499990
v -0.499992 1.456923 -0.499983
vt 0.977986 0.345186
vt 0.892800 0.345187
vt 0.989073 0.357973
vt 0.892800 0.345187
vt 0.881666 0.357975
vt 0.989073 0.357973
vt 0.129373 0.841635
vt 0.129373 0.817459
vt 0.012264 0.841634
vt 0.129373 0.817459
vt 0.012264 0.817458
vt 0.012264 0.841634
vt 0.012285 0.841634
vt 0.012285 0.817459
vt 0.129366 0.841635
vt 0.012285 0.817459
vt 0.129367 0.817460
vt 0.129366 0.841635
vt 0.128739 0.839462
vt 0.128739 0.816268
vt 0.013246 0.839462
vt 0.128739 0.816268
vt 0.013246 0.816268
vt 0.013246 0.839462
vt 0.013251 0.839463
vt 0.013251 0.816269
vt 0.128742 0.839463
vt 0.013251 0.816269
vt 0.128742 0.816269
vt 0.128742 0.839463
vt 0.746059 0.023910
vt 0.788492 0.041432
vt 0.866933 0.023910
vt 0.986522 0.081076
vt 0.986473 0.008142
vt 0.876939 0.081077
vt 0.788492 0.041432
vt 0.818385 0.106438
vt 0.866933 0.023910
vt 0.893543 0.081077
vt 0.876072 0.129207
vt 0.967585 0.081076
vt 0.984727 0.129197
vt 0.967585 0.081076
vt 0.876072 0.129207
vt 0.818385 0.106438
vt 0.818385 0.229090
vt 0.866933 0.023910
vt 0.866933 0.261665
vt 0.866933 0.023910
vt 0.818385 0.229090
vt 0.878416 0.174952
vt 0.878416 0.206850
vt 0.983794 0.174951
vt 0.983766 0.206849
vt 0.983794 0.174951
vt 0.878416 0.206850
vt 0.862923 0.261311
vt 0.862923 0.019005
vt 0.754707 0.261311
vt 0.818385 0.229090
vt 0.832717 0.261665
vt 0.866933 0.261665
vt 0.897196 0.325216
vt 0.892800 0.345187
vt 0.973529 0.325392
vt 0.977986 0.345186
vt 0.973529 0.325392
vt 0.892800 0.345187
vt 0.899028 0.129207
vt 0.910879 0.156158
vt 0.964091 0.129197
vt 0.952185 0.156157
vt 0.964091 0.129197
vt 0.910879 0.156158
vt 0.818385 0.106438
vt 0.776852 0.141824
vt 0.818385 0.229090
vt 0.776852 0.193705
vt 0.818385 0.229090
vt 0.776852 0.141824
vt 0.989705 0.320076
vt 0.971972 0.282642
vt 0.886124 0.320289
vt 0.903623 0.282642
vt 0.886124 0.320289
vt 0.971972 0.282642
vt 0.788490 0.041432
vt 0.746057 0.023910
vt 0.866937 0.023910
vt 0.818384 0.106438
vt 0.788490 0.041432
vt 0.866937 0.023910
vt 0.866937 0.023910
vt 0.866937 0.261665
vt 0.818384 0.106438
vt 0.818384 0.229090
vt 0.818384 0.106438
vt 0.866937 0.261665
vt 0.832716 0.261665
vt 0.818384 0.229090
vt 0.866937 0.261665
vt 0.818384 0.229090
vt 0.776851 0.193705
vt 0.818384 0.106438
vt 0.776851 0.141824
vt 0.818384 0.106438
vt 0.776851 0.193705
vt 0.754707 0.019045
vt 0.754707 0.261311
vt 0.862923 0.019005
vt 0.863460 0.019005
vt 0.863460 0.261311
vt 0.754707 0.019045
vt 0.863460 0.261311
vt 0.754707 0.261311
vt 0.754707 0.019045
vt 0.763270 0.148956
vt 0.819069 0.201577
vt 0.871022 0.148953
vn 0.000000 1.000000 0.000000
vn 0.000000 1.000000 0.000000
vn 0.000000 1.000000 0.000000
vn 0.000000 1.000000 0.000000
vn 0.000000 1.000000 0.000000
vn 0.000000 1.000000 0.000000
vn 1.000000 0.000000 0.000012
vn 1.000000 0.000000 0.000012
vn 1.000000 0.000000 0.000012
vn 1.000000 0.000000 0.000012
vn 1.000000 0.000000 0.000012
vn 1.000000 0.000000 0.000012
vn -1.000000 0.000000 -0.000009
vn -1.000000 0.000000 -0.000009
vn -1.000000 0.000000 -0.000009
vn -1.000000 0.000000 -0.000009
vn -1.000000 0.000000 -0.000009
vn -1.000000 0.000000 -0.000009
vn -0.000007 0.000000 -1.000000
vn -0.000007 0.000000 -1.000000
vn -0.000007 0.000000 -1.000000
vn -0.000007 0.000000 -1.000000
vn -0.000007 0.000000 -1.000000
vn -0.000007 0.000000 -1.000000
vn -0.000022 0.000000 1.000000
vn -0.000022 0.000000 1.000000
vn -0.000022 0.000000 1.000000
vn -0.000022 0.000000 1.000000
vn -0.000022 0.000000 1.000000
vn -0.000022 0.000000 1.000000
vn -1.000000 0.000006 -0.000009
vn -1.000000 0.000006 -0.000009
vn -1.000000 0.000006 -0.000009
vn -0.205998 0.956626 0.205990
vn -0.205998 0.956626 0.205990
vn -0.205998 0.956626 0.205990
vn -1.000000 0.000006 -0.000009
vn -1.000000 -0.000001 -0.000008
vn -1.000000 0.000006 -0.000009
vn -0.649797 0.394404 0.649777
vn -0.649797 0.394404 0.649777
vn -0.649797 0.394404 0.649777
vn -0.649796 0.394399 0.649781
vn -0.649797 0.394404 0.649777
vn -0.649797 0.394404 0.649777
vn -1.000000 -0.000001 -0.000008
vn -1.000000 0.000000 -0.000010
vn -1.000000 0.000006 -0.000009
vn -1.000000 0.000000 -0.000010
vn -1.000000 0.000006 -0.000009
vn -1.000000 0.000000 -0.000010
vn -0.707108 0.000000 0.707106
vn -0.707108 0.000000 0.707106
vn -0.707108 0.000000 0.707106
vn -0.707108 0.000000 0.707106
vn -0.707108 0.000000 0.707106
vn -0.707108 0.000000 0.707106
vn -0.000007 0.000000 -1.000000
vn -0.000007 0.000000 -1.000000
vn -0.000007 0.000000 -1.000000
vn -1.000000 0.000000 -0.000010
vn -1.000000 0.000001 -0.000010
vn -1.000000 0.000000 -0.000010
vn -0.667731 0.329079 0.667715
vn -0.667731 0.329079 0.667715
vn -0.667731 0.329079 0.667715
vn -0.667731 0.329079 0.667715
vn -0.667731 0.329079 0.667715
vn -0.667731 0.329079 0.667715
vn -0.517884 -0.680887 0.517871
vn -0.517884 -0.680887 0.517871
vn -0.517884 -0.680887 0.517871
vn -0.517867 -0.680903 0.517866
vn -0.517867 -0.680903 0.517866
vn -0.517867 -0.680903 0.517866
vn -1.000000 0.000000 -0.000028
vn -1.000000 0.000000 -0.000028
vn -1.000000 0.000000 -0.000028
vn -1.000000 0.000000 -0.000027
vn -1.000000 0.000000 -0.000028
vn -1.000000 0.000000 -0.000028
vn -0.517876 0.680899 0.517863
vn -0.517876 0.680899 0.517863
vn -0.517876 0.680899 0.517863
vn -0.517881 0.680883 0.517879
vn -0.517881 0.680883 0.517879
vn -0.517881 0.680883 0.517879
vn -0.000012 0.000009 1.000000
vn -0.000012 0.000009 1.000000
vn -0.000012 0.000009 1.000000
vn -0.000013 0.000004 1.000000
vn -0.000012 0.000009 1.000000
vn -0.000012 0.000009 1.000000
vn -0.000019 0.000000 1.000000
vn -0.000019 0.000000 1.000000
vn -0.000013 0.000004 1.000000
vn -0.000020 0.000000 1.000000
vn -0.000013 0.000004 1.000000
vn -0.000019 0.000000 1.000000
vn -0.000023 0.000006 1.000000
vn -0.000020 0.000000 1.000000
vn -0.000019 0.000000 1.000000
vn -0.000020 0.000000 1.000000
vn -0.000027 0.000000 1.000000
vn -0.000027 0.000000 1.000000
vn -0.000028 -0.000001 1.000000
vn -0.000027 0.000000 1.000000
vn -0.000027 0.000000 1.000000
vn -0.000007 0.000000 -1.000000
vn -0.000007 0.000000 -1.000000
vn -0.000007 0.000000 -1.000000
vn 1.000000 0.000000 0.000005
vn 1.000000 0.000000 0.000005
vn 1.000000 0.000000 0.000005
vn 1.000000 0.000000 0.000005
vn 1.000000 0.000000 0.000005
vn 1.000000 0.000000 0.000005
vn 0.000457 1.000000 -0.000457
vn 0.000457 1.000000 -0.000457
vn 0.000457 1.000000 -0.000457
o wall_
o wall_
usemtl PDX01_-_Default
f 1/1/1 2/2/2 3/3/3
f 4/4/4 5/5/5 6/6/6
f 7/7/7 8/8/8 9/9/9
f 10/10/10 11/11/11 12/12/12
f 13/13/13 14/14/14 15/15/15
f 16/16/16 17/17/17 18/18/18
f 19/19/19 20/20/20 21/21/21
f 22/22/22 23/23/23 24/24/24
f 25/25/25 26/26/26 27/27/27
f 28/28/28 29/29/29 30/30/30
f 31/31/31 32/32/32 33/33/33
f 34/34/34 35/35/35 36/36/36
f 37/37/37 38/38/38 39/39/39
f 40/40/40 41/41/41 42/42/42
f 43/43/43 44/44/44 45/45/45
f 46/46/46 47/47/47 48/48/48
f 49/49/49 50/50/50 51/51/51
f 52/52/52 53/53/53 54/54/54
f 55/55/55 56/56/56 57/57/57
f 58/58/58 59/59/59 60/60/60
f 61/61/61 62/62/62 63/63/63
f 64/64/64 65/65/65 66/66/66
f 67/67/67 68/68/68 69/69/69
f 70/70/70 71/71/71 72/72/72
f 73/73/73 74/74/74 75/75/75
f 76/76/76 77/77/77 78/78/78
f 79/79/79 80/80/80 81/81/81
f 82/82/82 83/83/83 84/84/84
f 85/85/85 86/86/86 87/87/87
f 88/88/88 89/89/89 90/90/90
f 91/91/91 92/92/92 93/93/93
f 94/94/94 95/95/95 96/96/96
f 97/97/97 98/98/98 99/99/99
f 100/100/100 101/101/101 102/102/102
f 103/103/103 104/104/104 105/105/105
f 106/106/106 107/107/107 108/108/108
f 109/109/109 110/110/110 111/111/111
f 112/112/112 113/113/113 114/114/114
f 115/115/115 116/116/116 117/117/117
f 118/118/118 119/119/119 120/120/120
