# Modified by OBJRotate180 (Mesh rotated 180 degrees around Y-axis)
# Original file: tile_ns.obj
mtllib Materials/tile_ns.mtl
v -0.350000 0.100350 -0.500000
v -0.500000 0.100350 -0.500000
v -0.350000 0.100350 0.500000
v -0.350000 0.100350 0.500000
v -0.500000 0.100350 -0.500000
v -0.500000 0.100350 0.500000
v 0.500000 -0.199948 0.500000
v 0.500000 -0.199948 -0.500000
v 0.500000 0.100350 0.500000
v 0.500000 0.100350 0.500000
v 0.500000 -0.199948 -0.500000
v 0.500000 0.100350 -0.500000
v -0.500000 0.100350 -0.500000
v -0.350000 0.100350 -0.500000
v -0.500000 -0.199948 -0.500000
v -0.500000 -0.199948 -0.500000
v -0.350000 0.100350 -0.500000
v -0.300000 0.000052 -0.500000
v -0.500000 0.100350 0.500000
v -0.500000 0.100350 -0.500000
v -0.500000 -0.199948 0.500000
v -0.500000 -0.199948 0.500000
v -0.500000 0.100350 -0.500000
v -0.500000 -0.199948 -0.500000
v -0.500000 -0.199948 0.500000
v -0.300000 0.000052 0.500000
v -0.500000 0.100350 0.500000
v -0.500000 0.100350 0.500000
v -0.300000 0.000052 0.500000
v -0.350000 0.100350 0.500000
v 0.350000 0.100350 -0.500000
v 0.300000 0.000052 -0.500000
v 0.350000 0.100350 0.500000
v 0.350000 0.100350 0.500000
v 0.300000 0.000052 -0.500000
v 0.300000 0.000052 0.500000
v 0.500000 0.100350 -0.500000
v 0.350000 0.100350 -0.500000
v 0.500000 0.100350 0.500000
v 0.500000 0.100350 0.500000
v 0.350000 0.100350 -0.500000
v 0.350000 0.100350 0.500000
v 0.300000 0.000052 -0.500000
v 0.350000 0.100350 -0.500000
v 0.500000 -0.199948 -0.500000
v 0.500000 -0.199948 -0.500000
v 0.350000 0.100350 -0.500000
v 0.500000 0.100350 -0.500000
v 0.350000 0.100350 0.500000
v 0.300000 0.000052 0.500000
v 0.500000 0.100350 0.500000
v 0.500000 0.100350 0.500000
v 0.300000 0.000052 0.500000
v 0.500000 -0.199948 0.500000
v 0.300000 0.000052 -0.500000
v -0.300000 0.000052 -0.500000
v 0.300000 0.000052 0.500000
v 0.300000 0.000052 0.500000
v -0.300000 0.000052 -0.500000
v -0.300000 0.000052 0.500000
v 0.500000 -0.199948 0.500000
v 0.300000 0.000052 0.500000
v -0.500000 -0.199948 0.500000
v -0.500000 -0.199948 0.500000
v 0.300000 0.000052 0.500000
v -0.300000 0.000052 0.500000
v 0.300000 0.000052 -0.500000
v 0.500000 -0.199948 -0.500000
v -0.300000 0.000052 -0.500000
v -0.300000 0.000052 -0.500000
v 0.500000 -0.199948 -0.500000
v -0.500000 -0.199948 -0.500000
v -0.300000 0.000052 -0.500000
v -0.350000 0.100350 -0.500000
v -0.300000 0.000052 0.500000
v -0.300000 0.000052 0.500000
v -0.350000 0.100350 -0.500000
v -0.350000 0.100350 0.500000
vt 0.023609 1.857387
vt 0.009542 1.857414
vt 0.023413 1.765047
vt 0.023413 1.765047
vt 0.009542 1.857414
vt 0.009353 1.765078
vt 0.123713 1.765051
vt 0.123578 1.857543
vt 0.115318 1.765078
vt 0.115318 1.765078
vt 0.123578 1.857543
vt 0.115130 1.857414
vt 0.018912 1.861747
vt 0.023609 1.857387
vt 0.033309 1.871846
vt 0.033309 1.871846
vt 0.023609 1.857387
vt 0.033070 1.859415
vt 0.009353 1.765078
vt 0.009542 1.857414
vt 0.000960 1.765051
vt 0.000960 1.765051
vt 0.009542 1.857414
vt 0.001095 1.857543
vt 0.032972 1.750841
vt 0.033070 1.763327
vt 0.019896 1.761786
vt 0.019896 1.761786
vt 0.033070 1.763327
vt 0.023413 1.765047
vt 0.101064 1.857387
vt 0.091603 1.859415
vt 0.101261 1.765047
vt 0.101261 1.765047
vt 0.091603 1.859415
vt 0.091603 1.763327
vt 0.115130 1.857414
vt 0.101064 1.857387
vt 0.115318 1.765078
vt 0.115318 1.765078
vt 0.101064 1.857387
vt 0.101261 1.765047
vt 0.091603 1.859415
vt 0.101064 1.857387
vt 0.091364 1.871846
vt 0.091364 1.871846
vt 0.101064 1.857387
vt 0.105761 1.861747
vt 0.101261 1.765047
vt 0.091603 1.763327
vt 0.104777 1.761787
vt 0.104777 1.761787
vt 0.091603 1.763327
vt 0.091700 1.750841
vt 0.091603 1.859415
vt 0.033070 1.859415
vt 0.091603 1.763327
vt 0.091603 1.763327
vt 0.033070 1.859415
vt 0.033070 1.763327
vt 0.091700 1.750841
vt 0.091603 1.763327
vt 0.032972 1.750841
vt 0.032972 1.750841
vt 0.091603 1.763327
vt 0.033070 1.763327
vt 0.091603 1.859415
vt 0.091364 1.871846
vt 0.033070 1.859415
vt 0.033070 1.859415
vt 0.091364 1.871846
vt 0.033309 1.871846
vt 0.033070 1.859415
vt 0.023609 1.857387
vt 0.033070 1.763327
vt 0.033070 1.763327
vt 0.023609 1.857387
vt 0.023413 1.765047
vn 0.000000 1.000000 0.000000
vn 0.000000 1.000000 0.000000
vn 0.000000 1.000000 0.000000
vn 0.000000 1.000000 0.000000
vn 0.000000 1.000000 0.000000
vn 0.000000 1.000000 0.000000
vn 1.000000 0.000000 0.000000
vn 1.000000 0.000000 0.000000
vn 1.000000 0.000000 0.000000
vn 1.000000 0.000000 0.000000
vn 1.000000 0.000000 0.000000
vn 1.000000 0.000000 0.000000
vn 0.000000 0.000000 -1.000000
vn 0.000000 0.000000 -1.000000
vn 0.000000 0.000000 -1.000000
vn 0.000000 0.000000 -1.000000
vn 0.000000 0.000000 -1.000000
vn 0.000000 0.000000 -1.000000
vn -1.000000 0.000000 0.000000
vn -1.000000 0.000000 0.000000
vn -1.000000 0.000000 0.000000
vn -1.000000 0.000000 0.000000
vn -1.000000 0.000000 0.000000
vn -1.000000 0.000000 0.000000
vn 0.000000 0.000000 1.000000
vn 0.000000 0.000000 1.000000
vn 0.000000 0.000000 1.000000
vn 0.000000 0.000000 1.000000
vn 0.000000 0.000000 1.000000
vn 0.000000 0.000000 1.000000
vn -0.894957 0.446153 0.000000
vn -0.894957 0.446153 0.000000
vn -0.894957 0.446153 0.000000
vn -0.894957 0.446153 0.000000
vn -0.894957 0.446153 0.000000
vn -0.894957 0.446153 0.000000
vn 0.000000 1.000000 0.000000
vn 0.000000 1.000000 0.000000
vn 0.000000 1.000000 0.000000
vn 0.000000 1.000000 0.000000
vn 0.000000 1.000000 0.000000
vn 0.000000 1.000000 0.000000
vn 0.000000 0.000000 -1.000000
vn 0.000000 0.000000 -1.000000
vn 0.000000 0.000000 -1.000000
vn 0.000000 0.000000 -1.000000
vn 0.000000 0.000000 -1.000000
vn 0.000000 0.000000 -1.000000
vn 0.000000 0.000000 1.000000
vn 0.000000 0.000000 1.000000
vn 0.000000 0.000000 1.000000
vn 0.000000 0.000000 1.000000
vn 0.000000 0.000000 1.000000
vn 0.000000 0.000000 1.000000
vn 0.000000 1.000000 0.000000
vn 0.000000 1.000000 0.000000
vn 0.000000 1.000000 0.000000
vn 0.000000 1.000000 0.000000
vn 0.000000 1.000000 0.000000
vn 0.000000 1.000000 0.000000
vn 0.000000 0.000000 1.000000
vn 0.000000 0.000000 1.000000
vn 0.000000 0.000000 1.000000
vn 0.000000 0.000000 1.000000
vn 0.000000 0.000000 1.000000
vn 0.000000 0.000000 1.000000
vn 0.000000 0.000000 -1.000000
vn 0.000000 0.000000 -1.000000
vn 0.000000 0.000000 -1.000000
vn 0.000000 0.000000 -1.000000
vn 0.000000 0.000000 -1.000000
vn 0.000000 0.000000 -1.000000
vn 0.894962 0.446142 0.000000
vn 0.894962 0.446142 0.000000
vn 0.894962 0.446142 0.000000
vn 0.894962 0.446142 0.000000
vn 0.894962 0.446142 0.000000
vn 0.894962 0.446142 0.000000
o Unmerged_tile_ns
o Unmerged_tile_ns
usemtl material
f 1/1/1 2/2/2 3/3/3
f 4/4/4 5/5/5 6/6/6
f 7/7/7 8/8/8 9/9/9
f 10/10/10 11/11/11 12/12/12
f 13/13/13 14/14/14 15/15/15
f 16/16/16 17/17/17 18/18/18
f 19/19/19 20/20/20 21/21/21
f 22/22/22 23/23/23 24/24/24
f 25/25/25 26/26/26 27/27/27
f 28/28/28 29/29/29 30/30/30
f 31/31/31 32/32/32 33/33/33
f 34/34/34 35/35/35 36/36/36
f 37/37/37 38/38/38 39/39/39
f 40/40/40 41/41/41 42/42/42
f 43/43/43 44/44/44 45/45/45
f 46/46/46 47/47/47 48/48/48
f 49/49/49 50/50/50 51/51/51
f 52/52/52 53/53/53 54/54/54
f 55/55/55 56/56/56 57/57/57
f 58/58/58 59/59/59 60/60/60
f 61/61/61 62/62/62 63/63/63
f 64/64/64 65/65/65 66/66/66
f 67/67/67 68/68/68 69/69/69
f 70/70/70 71/71/71 72/72/72
f 73/73/73 74/74/74 75/75/75
f 76/76/76 77/77/77 78/78/78
