# Modified by OBJRotate180 (Mesh rotated 180 degrees around Y-axis)
# Original file: tile_lightning.obj
mtllib Materials/tile_lightning.mtl
v 0.500000 -0.100000 -0.500000
v -0.500000 -0.100000 -0.500000
v 0.450000 -0.050000 -0.450000
v 0.450000 -0.050000 -0.450000
v -0.500000 -0.100000 -0.500000
v -0.450000 -0.050000 -0.450000
v 0.450000 -0.050000 -0.450000
v -0.450000 -0.050000 -0.450000
v 0.450000 -0.050000 0.450000
v 0.450000 -0.050000 0.450000
v -0.450000 -0.050000 -0.450000
v -0.450000 -0.050000 0.450000
v 0.450000 -0.050000 0.450000
v -0.450000 -0.050000 0.450000
v 0.500000 -0.100000 0.500000
v 0.500000 -0.100000 0.500000
v -0.450000 -0.050000 0.450000
v -0.500000 -0.100000 0.500000
v -0.500000 -0.100000 -0.500000
v -0.500000 -0.100000 0.500000
v -0.450000 -0.050000 -0.450000
v -0.450000 -0.050000 -0.450000
v -0.500000 -0.100000 0.500000
v -0.450000 -0.050000 0.450000
v 0.500000 -0.100000 0.500000
v 0.500000 -0.100000 -0.500000
v 0.450000 -0.050000 0.450000
v 0.450000 -0.050000 0.450000
v 0.500000 -0.100000 -0.500000
v 0.450000 -0.050000 -0.450000
vt 0.646793 1.892241
vt 0.727768 1.892241
vt 0.650842 1.901296
vt 0.650842 1.901296
vt 0.727768 1.892241
vt 0.723719 1.901296
vt 0.650842 1.901296
vt 0.723719 1.901296
vt 0.650842 1.974173
vt 0.650842 1.974173
vt 0.723719 1.901296
vt 0.723719 1.974173
vt 0.650842 1.974173
vt 0.723719 1.974173
vt 0.646793 1.983227
vt 0.646793 1.983227
vt 0.723719 1.974173
vt 0.727768 1.983227
vt 0.732773 1.897247
vt 0.732773 1.978222
vt 0.723719 1.901296
vt 0.723719 1.901296
vt 0.732773 1.978222
vt 0.723719 1.974173
vt 0.641787 1.978222
vt 0.641787 1.897247
vt 0.650842 1.974173
vt 0.650842 1.974173
vt 0.641787 1.897247
vt 0.650842 1.901296
vn 0.000000 0.707107 -0.707106
vn 0.000000 0.707107 -0.707106
vn 0.000000 0.707107 -0.707106
vn 0.000000 0.707107 -0.707106
vn 0.000000 0.707107 -0.707106
vn 0.000000 0.707107 -0.707106
vn 0.000000 1.000000 0.000000
vn 0.000000 1.000000 0.000000
vn 0.000000 1.000000 0.000000
vn 0.000000 1.000000 0.000000
vn 0.000000 1.000000 0.000000
vn 0.000000 1.000000 0.000000
vn 0.000000 0.707107 0.707106
vn 0.000000 0.707107 0.707106
vn 0.000000 0.707107 0.707106
vn 0.000000 0.707107 0.707106
vn 0.000000 0.707107 0.707106
vn 0.000000 0.707107 0.707106
vn -0.707107 0.707107 0.000000
vn -0.707107 0.707107 0.000000
vn -0.707107 0.707107 0.000000
vn -0.707107 0.707107 0.000000
vn -0.707107 0.707107 0.000000
vn -0.707107 0.707107 0.000000
vn 0.707107 0.707107 0.000000
vn 0.707107 0.707107 0.000000
vn 0.707107 0.707107 0.000000
vn 0.707107 0.707107 0.000000
vn 0.707107 0.707107 0.000000
vn 0.707107 0.707107 0.000000
o tile_lightning
o tile_lightning
usemtl material
f 1/1/1 2/2/2 3/3/3
f 4/4/4 5/5/5 6/6/6
f 7/7/7 8/8/8 9/9/9
f 10/10/10 11/11/11 12/12/12
f 13/13/13 14/14/14 15/15/15
f 16/16/16 17/17/17 18/18/18
f 19/19/19 20/20/20 21/21/21
f 22/22/22 23/23/23 24/24/24
f 25/25/25 26/26/26 27/27/27
f 28/28/28 29/29/29 30/30/30
