# Modified by OBJRotate180 (Mesh rotated 180 degrees around Y-axis)
# Original file: tile_radioactive.obj
mtllib tile_radioactive.mtl
v 0.500000 -0.100000 -0.500000
v -0.500000 -0.100000 -0.500000
v 0.500000 -0.050000 -0.500000
v 0.500000 -0.050000 -0.500000
v -0.500000 -0.100000 -0.500000
v -0.500000 -0.050000 -0.500000
v 0.500000 -0.050000 -0.500000
v -0.500000 -0.050000 -0.500000
v 0.500000 -0.050000 0.500000
v 0.500000 -0.050000 0.500000
v -0.500000 -0.050000 -0.500000
v -0.500000 -0.050000 0.500000
v 0.500000 -0.050000 0.500000
v -0.500000 -0.050000 0.500000
v 0.500000 -0.100000 0.500000
v 0.500000 -0.100000 0.500000
v -0.500000 -0.050000 0.500000
v -0.500000 -0.100000 0.500000
v -0.500000 -0.100000 -0.500000
v -0.500000 -0.100000 0.500000
v -0.500000 -0.050000 -0.500000
v -0.500000 -0.050000 -0.500000
v -0.500000 -0.100000 0.500000
v -0.500000 -0.050000 0.500000
v 0.500000 -0.100000 0.500000
v 0.500000 -0.100000 -0.500000
v 0.500000 -0.050000 0.500000
v 0.500000 -0.050000 0.500000
v 0.500000 -0.100000 -0.500000
v 0.500000 -0.050000 -0.500000
vt 0.387261 1.625938
vt 0.487365 1.625938
vt 0.387148 1.637707
vt 0.387148 1.637707
vt 0.487365 1.625938
vt 0.487479 1.637707
vt 0.387148 1.637707
vt 0.487479 1.637707
vt 0.387148 1.736529
vt 0.387148 1.736529
vt 0.487479 1.637707
vt 0.487479 1.736529
vt 0.387148 1.736529
vt 0.487479 1.736529
vt 0.387261 1.748299
vt 0.387261 1.748299
vt 0.487479 1.736529
vt 0.487365 1.748299
vt 0.499428 1.637961
vt 0.499428 1.736275
vt 0.487479 1.637707
vt 0.487479 1.637707
vt 0.499428 1.736275
vt 0.487479 1.736529
vt 0.375199 1.736275
vt 0.375199 1.637961
vt 0.387148 1.736529
vt 0.387148 1.736529
vt 0.375199 1.637961
vt 0.387148 1.637707
vn 0.000000 0.000001 -1.000000
vn 0.000000 0.000001 -1.000000
vn 0.000000 0.000001 -1.000000
vn 0.000000 0.000001 -1.000000
vn 0.000000 0.000001 -1.000000
vn 0.000000 0.000001 -1.000000
vn 0.000000 1.000000 0.000000
vn 0.000000 1.000000 0.000000
vn 0.000000 1.000000 0.000000
vn 0.000000 1.000000 0.000000
vn 0.000000 1.000000 0.000000
vn 0.000000 1.000000 0.000000
vn 0.000000 -0.000001 1.000000
vn 0.000000 -0.000001 1.000000
vn 0.000000 -0.000001 1.000000
vn 0.000000 -0.000001 1.000000
vn 0.000000 -0.000001 1.000000
vn 0.000000 -0.000001 1.000000
vn -1.000000 0.000009 0.000000
vn -1.000000 0.000009 0.000000
vn -1.000000 0.000009 0.000000
vn -1.000000 -0.000016 0.000000
vn -1.000000 -0.000016 0.000000
vn -1.000000 -0.000016 0.000000
vn 1.000000 -0.000005 0.000000
vn 1.000000 -0.000005 0.000000
vn 1.000000 -0.000005 0.000000
vn 1.000000 -0.000005 0.000000
vn 1.000000 -0.000005 0.000000
vn 1.000000 0.000000 0.000000
o tile_radioactive
o tile_radioactive
usemtl material
f 1/1/1 2/2/2 3/3/3
f 4/4/4 5/5/5 6/6/6
f 7/7/7 8/8/8 9/9/9
f 10/10/10 11/11/11 12/12/12
f 13/13/13 14/14/14 15/15/15
f 16/16/16 17/17/17 18/18/18
f 19/19/19 20/20/20 21/21/21
f 22/22/22 23/23/23 24/24/24
f 25/25/25 26/26/26 27/27/27
f 28/28/28 29/29/29 30/30/30
