# Modified by OBJRotate180 (Mesh rotated 180 degrees around Y-axis)
# Original file: tile_freeze.obj
mtllib ../Materials/tile_freeze.mtl
v 0.500000 -0.100000 -0.500000
v -0.500000 -0.100000 -0.500000
v 0.500000 -0.050000 -0.500000
v 0.500000 -0.050000 -0.500000
v -0.500000 -0.100000 -0.500000
v -0.500000 -0.050000 -0.500000
v 0.500000 -0.050000 -0.500000
v -0.500000 -0.050000 -0.500000
v 0.500000 -0.050000 0.500000
v 0.500000 -0.050000 0.500000
v -0.500000 -0.050000 -0.500000
v -0.500000 -0.050000 0.500000
v 0.500000 -0.050000 0.500000
v -0.500000 -0.050000 0.500000
v 0.500000 -0.100000 0.500000
v 0.500000 -0.100000 0.500000
v -0.500000 -0.050000 0.500000
v -0.500000 -0.100000 0.500000
v -0.500000 -0.100000 -0.500000
v -0.500000 -0.100000 0.500000
v -0.500000 -0.050000 -0.500000
v -0.500000 -0.050000 -0.500000
v -0.500000 -0.100000 0.500000
v -0.500000 -0.050000 0.500000
v 0.500000 -0.100000 0.500000
v 0.500000 -0.100000 -0.500000
v 0.500000 -0.050000 0.500000
v 0.500000 -0.050000 0.500000
v 0.500000 -0.100000 -0.500000
v 0.500000 -0.050000 -0.500000
vt 0.887261 1.875938
vt 0.987365 1.875938
vt 0.887148 1.887707
vt 0.887148 1.887707
vt 0.987365 1.875938
vt 0.987479 1.887707
vt 0.887148 1.887707
vt 0.987479 1.887707
vt 0.887148 1.986529
vt 0.887148 1.986529
vt 0.987479 1.887707
vt 0.987479 1.986529
vt 0.887148 1.986529
vt 0.987479 1.986529
vt 0.887261 1.998299
vt 0.887261 1.998299
vt 0.987479 1.986529
vt 0.987365 1.998299
vt 0.999428 1.887961
vt 0.999428 1.986275
vt 0.987479 1.887707
vt 0.987479 1.887707
vt 0.999428 1.986275
vt 0.987479 1.986529
vt 0.875199 1.986275
vt 0.875199 1.887961
vt 0.887148 1.986529
vt 0.887148 1.986529
vt 0.875199 1.887961
vt 0.887148 1.887707
vn 0.000000 0.000001 -1.000000
vn 0.000000 0.000001 -1.000000
vn 0.000000 0.000001 -1.000000
vn 0.000000 0.000001 -1.000000
vn 0.000000 0.000001 -1.000000
vn 0.000000 0.000001 -1.000000
vn 0.000000 1.000000 0.000000
vn 0.000000 1.000000 0.000000
vn 0.000000 1.000000 0.000000
vn 0.000000 1.000000 0.000000
vn 0.000000 1.000000 0.000000
vn 0.000000 1.000000 0.000000
vn 0.000000 -0.000001 1.000000
vn 0.000000 -0.000001 1.000000
vn 0.000000 -0.000001 1.000000
vn 0.000000 -0.000001 1.000000
vn 0.000000 -0.000001 1.000000
vn 0.000000 -0.000001 1.000000
vn -1.000000 0.000009 0.000000
vn -1.000000 0.000009 0.000000
vn -1.000000 0.000009 0.000000
vn -1.000000 -0.000016 0.000000
vn -1.000000 -0.000016 0.000000
vn -1.000000 -0.000016 0.000000
vn 1.000000 -0.000005 0.000000
vn 1.000000 -0.000005 0.000000
vn 1.000000 -0.000005 0.000000
vn 1.000000 -0.000005 0.000000
vn 1.000000 -0.000005 0.000000
vn 1.000000 0.000000 0.000000
o tile_freeze
o tile_freeze
usemtl material
f 1/1/1 2/2/2 3/3/3
f 4/4/4 5/5/5 6/6/6
f 7/7/7 8/8/8 9/9/9
f 10/10/10 11/11/11 12/12/12
f 13/13/13 14/14/14 15/15/15
f 16/16/16 17/17/17 18/18/18
f 19/19/19 20/20/20 21/21/21
f 22/22/22 23/23/23 24/24/24
f 25/25/25 26/26/26 27/27/27
f 28/28/28 29/29/29 30/30/30
