mtllib egy_tile_sw_corner.mtl
o tile_corner
usemtl PDX01_-_Default
v -0.5000060000002121 -0.20000000298023246 0.49999399999978766
v 0.49999399999978766 -0.20000000298023246 0.500006000000212
v -0.33393199231073617 -2.3592239273284576e-16 0.5000009996781121
v 0.33393399940183394 -2.3592239273284576e-16 0.4999990004899726
v -0.33393199231073617 -2.3592239273284576e-16 0.5000009996781121
v 0.49999399999978766 -0.20000000298023246 0.500006000000212
v -0.33393199231073617 -2.3592239273284576e-16 0.5000009996781121
v -0.463132987230513 0.1450000032782552 0.499995396150273
v -0.5000060000002121 -0.20000000298023246 0.49999399999978766
v -0.5000060000002121 0.1450000032782552 0.49999399999978766
v -0.5000060000002121 -0.20000000298023246 0.49999399999978766
v -0.463132987230513 0.1450000032782552 0.499995396150273
v 0.49999399999978766 -0.20000000298023246 0.500006000000212
v 0.49999399999978766 0.1450000032782552 0.500006000000212
v 0.33393399940183394 -2.3592239273284576e-16 0.4999990004899726
v 0.4632230005803369 0.1450000032782552 0.5000045454692421
v 0.33393399940183394 -2.3592239273284576e-16 0.4999990004899726
v 0.49999399999978766 0.1450000032782552 0.500006000000212
v -0.49999399999978766 -0.20000000298023224 -0.5000060000002122
v -0.5000060000002121 -0.20000000298023246 0.49999399999978766
v -0.5000009996779334 -5.551115123125783e-17 -0.3339320072118974
v -0.4999990004903302 -1.942890293094024e-16 0.33393402920415627
v -0.5000009996779334 -5.551115123125783e-17 -0.3339320072118974
v -0.5000060000002121 -0.20000000298023246 0.49999399999978766
v -0.33605403669085454 -1.942890293094024e-16 0.3360729422685864
v -0.4999990004903302 -1.942890293094024e-16 0.33393402920415627
v -0.46313156995411525 0.1450000032782552 0.46384541752437947
v -0.500004553173262 0.1450000032782552 0.4638650022092127
v -0.46313156995411525 0.1450000032782552 0.46384541752437947
v -0.4999990004903302 -1.942890293094024e-16 0.33393402920415627
v -0.463132987230513 0.1450000032782552 0.499995396150273
v -0.33393199231073617 -2.3592239273284576e-16 0.5000009996781121
v -0.46313156995411525 0.1450000032782552 0.46384541752437947
v -0.33605403669085454 -1.942890293094024e-16 0.3360729422685864
v -0.46313156995411525 0.1450000032782552 0.46384541752437947
v -0.33393199231073617 -2.3592239273284576e-16 0.5000009996781121
v -0.463132987230513 0.1450000032782552 0.499995396150273
v -0.46313156995411525 0.1450000032782552 0.46384541752437947
v -0.5000060000002121 0.1450000032782552 0.49999399999978766
v -0.500004553173262 0.1450000032782552 0.4638650022092127
v -0.5000060000002121 0.1450000032782552 0.49999399999978766
v -0.46313156995411525 0.1450000032782552 0.46384541752437947
v -0.33605403669085454 -1.942890293094024e-16 0.3360729422685864
v -0.0031410431938559973 -5.551115123125783e-17 -0.3297310401899902
v -0.4999990004903302 -1.942890293094024e-16 0.33393402920415627
v -0.5000009996779334 -5.551115123125783e-17 -0.3339320072118974
v -0.4999990004903302 -1.942890293094024e-16 0.33393402920415627
v -0.0031410431938559973 -5.551115123125783e-17 -0.3297310401899902
v -0.49999544683876307 0.14500000327825543 -0.46387600010654684
v -0.5000009996779334 -5.551115123125783e-17 -0.3339320072118974
v 0.00001656642830340033 0.14500000327825543 -0.4638690015843753
v -0.0031410431938559973 -5.551115123125783e-17 -0.3297310401899902
v 0.00001656642830340033 0.14500000327825543 -0.4638690015843753
v -0.5000009996779334 -5.551115123125783e-17 -0.3339320072118974
v 0.3297369698302732 -1.249000902703301e-16 0.0031529298323599297
v 0.33393399940183394 -2.3592239273284576e-16 0.4999990004899726
v 0.4658190014016627 0.14500000327825532 -0.000011397495548903791
v 0.4632230005803369 0.1450000032782552 0.5000045454692421
v 0.4658190014016627 0.14500000327825532 -0.000011397495548903791
v 0.33393399940183394 -2.3592239273284576e-16 0.4999990004899726
v -0.33393199231073617 -2.3592239273284576e-16 0.5000009996781121
v 0.33393399940183394 -2.3592239273284576e-16 0.4999990004899726
v -0.33605403669085454 -1.942890293094024e-16 0.3360729422685864
v 0.3297369698302732 -1.249000902703301e-16 0.0031529298323599297
v -0.33605403669085454 -1.942890293094024e-16 0.3360729422685864
v 0.33393399940183394 -2.3592239273284576e-16 0.4999990004899726
v -0.0031410431938559973 -5.551115123125783e-17 -0.3297310401899902
v -0.33605403669085454 -1.942890293094024e-16 0.3360729422685864
v 0.1633364264447113 -5.551115123125783e-17 -0.2856390396787427
v 0.00001656642830340033 0.14500000327825543 -0.4638690015843753
v -0.0031410431938559973 -5.551115123125783e-17 -0.3297310401899902
v 0.2174227065502281 0.1450000032782554 -0.3922013925298125
v 0.1633364264447113 -5.551115123125783e-17 -0.2856390396787427
v 0.2174227065502281 0.1450000032782554 -0.3922013925298125
v -0.0031410431938559973 -5.551115123125783e-17 -0.3297310401899902
v -0.49999399999978766 0.14500000327825543 -0.5000060000002122
v 0.00001656642830340033 0.14500000327825543 -0.4638690015843753
v 0.5000060000002121 0.14500000327825543 -0.4999939999997877
v -0.49999544683876307 0.14500000327825543 -0.46387600010654684
v 0.00001656642830340033 0.14500000327825543 -0.4638690015843753
v -0.49999399999978766 0.14500000327825543 -0.5000060000002122
v 0.4658190014016627 0.14500000327825532 -0.000011397495548903791
v 0.49999399999978766 0.1450000032782552 0.500006000000212
v 0.5000060000002121 0.14500000327825543 -0.4999939999997877
v 0.4632230005803369 0.1450000032782552 0.5000045454692421
v 0.49999399999978766 0.1450000032782552 0.500006000000212
v 0.4658190014016627 0.14500000327825532 -0.000011397495548903791
v 0.00001656642830340033 0.14500000327825543 -0.4638690015843753
v 0.2174227065502281 0.1450000032782554 -0.3922013925298125
v 0.5000060000002121 0.14500000327825543 -0.4999939999997877
v 0.5000060000002121 -0.20000000298023224 -0.4999939999997878
v -0.49999399999978766 -0.20000000298023224 -0.5000060000002122
v 0.5000060000002121 0.14500000327825543 -0.4999939999997877
v -0.49999399999978766 0.14500000327825543 -0.5000060000002122
v 0.5000060000002121 0.14500000327825543 -0.4999939999997877
v -0.49999399999978766 -0.20000000298023224 -0.5000060000002122
v 0.49999399999978766 -0.20000000298023246 0.500006000000212
v 0.5000060000002121 -0.20000000298023224 -0.4999939999997878
v 0.49999399999978766 0.1450000032782552 0.500006000000212
v 0.5000060000002121 0.14500000327825543 -0.4999939999997877
v 0.49999399999978766 0.1450000032782552 0.500006000000212
v 0.5000060000002121 -0.20000000298023224 -0.4999939999997878
v -0.500004553173262 0.1450000032782552 0.4638650022092127
v -0.4999990004903302 -1.942890293094024e-16 0.33393402920415627
v -0.5000060000002121 0.1450000032782552 0.49999399999978766
v -0.5000060000002121 -0.20000000298023246 0.49999399999978766
v -0.5000060000002121 0.1450000032782552 0.49999399999978766
v -0.4999990004903302 -1.942890293094024e-16 0.33393402920415627
v -0.49999399999978766 -0.20000000298023224 -0.5000060000002122
v -0.5000009996779334 -5.551115123125783e-17 -0.3339320072118974
v -0.49999399999978766 0.14500000327825543 -0.5000060000002122
v -0.49999544683876307 0.14500000327825543 -0.46387600010654684
v -0.49999399999978766 0.14500000327825543 -0.5000060000002122
v -0.5000009996779334 -5.551115123125783e-17 -0.3339320072118974
v 0.2861049627096151 -8.326672684688674e-17 -0.16270756124579688
v -0.33605403669085454 -1.942890293094024e-16 0.3360729422685864
v 0.3297369698302732 -1.249000902703301e-16 0.0031529298323599297
v 0.2861049627096151 -8.326672684688674e-17 -0.16270756124579688
v 0.3297369698302732 -1.249000902703301e-16 0.0031529298323599297
v 0.38730864404282356 0.14500000327825538 -0.21993535906071915
v 0.4658190014016627 0.14500000327825532 -0.000011397495548903791
v 0.38730864404282356 0.14500000327825538 -0.21993535906071915
v 0.3297369698302732 -1.249000902703301e-16 0.0031529298323599297
v 0.5000060000002121 0.14500000327825543 -0.4999939999997877
v 0.38730864404282356 0.14500000327825538 -0.21993535906071915
v 0.4658190014016627 0.14500000327825532 -0.000011397495548903791
v 0.5000060000002121 0.14500000327825543 -0.4999939999997877
v 0.2174227065502281 0.1450000032782554 -0.3922013925298125
v 0.38730864404282356 0.14500000327825538 -0.21993535906071915
v 0.1633364264447113 -5.551115123125783e-17 -0.2856390396787427
v 0.2861049627096151 -8.326672684688674e-17 -0.16270756124579688
v 0.2174227065502281 0.1450000032782554 -0.3922013925298125
v 0.38730864404282356 0.14500000327825538 -0.21993535906071915
v 0.2174227065502281 0.1450000032782554 -0.3922013925298125
v 0.2861049627096151 -8.326672684688674e-17 -0.16270756124579688
v 0.2861049627096151 -8.326672684688674e-17 -0.16270756124579688
v 0.1633364264447113 -5.551115123125783e-17 -0.2856390396787427
v -0.33605403669085454 -1.942890293094024e-16 0.3360729422685864
vt 0.11892499774694443 0.8173419833183289
vt 0.02181600034236908 0.8173419833183289
vt 0.10457400232553482 0.8328449726104736
vt 0.036166999489068985 0.8328449726104736
vt 0.10457400232553482 0.8328449726104736
vt 0.02181600034236908 0.8173419833183289
vt 0.10457400232553482 0.8328449726104736
vt 0.1078369989991188 0.8405960202217102
vt 0.11892499774694443 0.8173419833183289
vt 0.11892499774694443 0.8405960202217102
vt 0.11892499774694443 0.8173419833183289
vt 0.1078369989991188 0.8405960202217102
vt 0.02181600034236908 0.8173419833183289
vt 0.02181600034236908 0.8405960202217102
vt 0.036166999489068985 0.8328449726104736
vt 0.0329039990901947 0.8405960202217102
vt 0.036166999489068985 0.8328449726104736
vt 0.02181600034236908 0.8405960202217102
vt 0.02064099907875061 0.8191109895706177
vt 0.12207800149917603 0.8191109895706177
vt 0.035631999373435974 0.8310319781303406
vt 0.10708799958229065 0.8310319781303406
vt 0.035631999373435974 0.8310319781303406
vt 0.12207800149917603 0.8191109895706177
vt 0.06979899853467941 0.7746390104293823
vt 0.05086600035429001 0.7746260166168213
vt 0.06902699917554855 0.8097720146179199
vt 0.05086600035429001 0.8098120093345642
vt 0.06902699917554855 0.8097720146179199
vt 0.05086600035429001 0.7746260166168213
vt 0.0907140001654625 0.8098859786987305
vt 0.0919400006532669 0.7746310234069824
vt 0.06902699917554855 0.8097720146179199
vt 0.06979899853467941 0.7746390104293823
vt 0.06902699917554855 0.8097720146179199
vt 0.0919400006532669 0.7746310234069824
vt 0.4360960125923157 0.9723520278930664
vt 0.4507400095462799 0.9577080011367798
vt 0.45148900151252747 0.9877449870109558
vt 0.46612998843193054 0.9731029868125916
vt 0.45148900151252747 0.9877449870109558
vt 0.4507400095462799 0.9577080011367798
vt 0.1786320060491562 0.9030399918556213
vt 0.10009299963712692 0.9438509941101074
vt 0.17862899601459503 0.8844109773635864
vt 0.10009299963712692 0.8844109773635864
vt 0.17862899601459503 0.8844109773635864
vt 0.10009299963712692 0.9438509941101074
vt 0.31471699476242065 0.8081809878349304
vt 0.3121350109577179 0.7736250162124634
vt 0.20788100361824036 0.8079720139503479
vt 0.20796899497509003 0.7737540006637573
vt 0.20788100361824036 0.8079720139503479
vt 0.3121350109577179 0.7736250162124634
vt 0.08861999958753586 0.7736499905586243
vt 0.0038999998942017555 0.7735880017280579
vt 0.09113699942827225 0.8079339861869812
vt 0.00393400015309453 0.8078870177268982
vt 0.09113699942827225 0.8079339861869812
vt 0.0038999998942017555 0.7735880017280579
vt 0.19694000482559204 0.9030399918556213
vt 0.19694000482559204 0.9864330291748047
vt 0.1786320060491562 0.9030399918556213
vt 0.14129899442195892 0.9864330291748047
vt 0.1786320060491562 0.9030399918556213
vt 0.19694000482559204 0.9864330291748047
vt 0.10009299963712692 0.9438509941101074
vt 0.1786320060491562 0.9030399918556213
vt 0.10383400321006775 0.9697530269622803
vt 0.20788100361824036 0.8079720139503479
vt 0.20796899497509003 0.7737540006637573
vt 0.1756560057401657 0.807945966720581
vt 0.17305399477481842 0.7736610174179077
vt 0.1756560057401657 0.807945966720581
vt 0.20796899497509003 0.7737540006637573
vt 0.4131160080432892 0.8352980017662048
vt 0.4221140146255493 0.9118019938468933
vt 0.4131160080432892 0.9865880012512207
vt 0.4221149981021881 0.8352980017662048
vt 0.4221140146255493 0.9118019938468933
vt 0.4131160080432892 0.8352980017662048
vt 0.48907700181007385 0.977653980255127
vt 0.5676040053367615 0.9865880012512207
vt 0.4131160080432892 0.9865880012512207
vt 0.5676040053367615 0.977653980255127
vt 0.5676040053367615 0.9865880012512207
vt 0.48907700181007385 0.977653980255127
vt 0.4221140146255493 0.9118019938468933
vt 0.43643298745155334 0.9424239993095398
vt 0.4131160080432892 0.9865880012512207
vt 0.028091000393033028 0.8159549832344055
vt 0.11961600184440613 0.8159549832344055
vt 0.028091000393033028 0.8378720283508301
vt 0.11961600184440613 0.8378720283508301
vt 0.028091000393033028 0.8378720283508301
vt 0.11961600184440613 0.8159549832344055
vt 0.11757200211286545 0.8169090151786804
vt 0.02418000064790249 0.8169090151786804
vt 0.11757200211286545 0.8368819952011108
vt 0.02418000064790249 0.8368819952011108
vt 0.11757200211286545 0.8368819952011108
vt 0.02418000064790249 0.8169090151786804
vt 0.11049599945545197 0.8369929790496826
vt 0.10708799958229065 0.8310319781303406
vt 0.12207800149917603 0.8369929790496826
vt 0.12207800149917603 0.8191109895706177
vt 0.12207800149917603 0.8369929790496826
vt 0.10708799958229065 0.8310319781303406
vt 0.02064099907875061 0.8191109895706177
vt 0.035631999373435974 0.8310319781303406
vt 0.02064099907875061 0.8369929790496826
vt 0.03222399950027466 0.8369929790496826
vt 0.02064099907875061 0.8369929790496826
vt 0.035631999373435974 0.8310319781303406
vt 0.1197500005364418 0.9837650060653687
vt 0.1786320060491562 0.9030399918556213
vt 0.14129899442195892 0.9864330291748047
vt 0.1284569948911667 0.7736629843711853
vt 0.08861999958753586 0.7736499905586243
vt 0.12862500548362732 0.8078489899635315
vt 0.09113699942827225 0.8079339861869812
vt 0.12862500548362732 0.8078489899635315
vt 0.08861999958753586 0.7736499905586243
vt 0.4131160080432892 0.9865880012512207
vt 0.4585669934749603 0.9678090214729309
vt 0.48907700181007385 0.977653980255127
vt 0.4131160080432892 0.9865880012512207
vt 0.43643298745155334 0.9424239993095398
vt 0.4585669934749603 0.9678090214729309
vt 0.17305399477481842 0.7736610174179077
vt 0.1284569948911667 0.7736629843711853
vt 0.1756560057401657 0.807945966720581
vt 0.12862500548362732 0.8078489899635315
vt 0.1756560057401657 0.807945966720581
vt 0.1284569948911667 0.7736629843711853
vt 0.1197500005364418 0.9837650060653687
vt 0.10383400321006775 0.9697530269622803
vt 0.1786320060491562 0.9030399918556213
vn -0.000012000000420412263 -0.000023000000506159317 0.9999999996635
vn -0.000012000000420412263 -0.000023000000506159317 0.9999999996635
vn -0.000012000000420412263 -0.000023000000506159317 0.9999999996635
vn 0.0000019999997660808117 0.00003400000057552123 0.99999999942
vn 0.0000019999997660808117 0.00003400000057552123 0.99999999942
vn 0.0000019999997660808117 0.00003400000057552123 0.99999999942
vn -0.00004000000078992442 9.999999969326982e-7 0.9999999991995001
vn -0.00004000000078992442 9.999999969326982e-7 0.9999999991995001
vn -0.00004000000078992442 9.999999969326982e-7 0.9999999991995001
vn -0.00003900000045292566 9.999999969601982e-7 0.9999999992390001
vn -0.00004000000078992442 9.999999969326982e-7 0.9999999991995001
vn -0.00004000000078992442 9.999999969326982e-7 0.9999999991995001
vn -0.00003900000045292566 9.999999969601982e-7 0.9999999992390001
vn -0.00003900000045292566 9.999999969601982e-7 0.9999999992390001
vn -0.00003900000045292566 9.999999969601982e-7 0.9999999992390001
vn -0.000036000001260318795 -0.0000019999999947365304 0.9999999993500001
vn -0.00003900000045292566 9.999999969601982e-7 0.9999999992390001
vn -0.00003900000045292566 9.999999969601982e-7 0.9999999992390001
vn -0.9999999996635001 -0.00002300000050593727 -0.000012000000420412268
vn -0.9999999996635001 -0.00002300000050593727 -0.000012000000420412268
vn -0.9999999996635001 -0.00002300000050593727 -0.000012000000420412268
vn -0.9999999994200002 0.000034000000575743276 0.0000019999997660808177
vn -0.9999999994200002 0.000034000000575743276 0.0000019999997660808177
vn -0.9999999994200002 0.000034000000575743276 0.0000019999997660808177
vn 0.009735952829175026 0.6658870975371821 -0.7459889976105648
vn 0.009735952829175026 0.6658870975371821 -0.7459889976105648
vn 0.009735952829175026 0.6658870975371821 -0.7459889976105648
vn -0.0003900629956077127 0.6673479581129524 -0.7447459638382289
vn -0.0003900629956077127 0.6673479581129524 -0.7447459638382289
vn -0.0003900629956077127 0.6673479581129524 -0.7447459638382289
vn 0.7466109449579656 0.6652609227597427 0.00003895932874165663
vn 0.7466109449579656 0.6652609227597427 0.00003895932874165663
vn 0.7466109449579656 0.6652609227597427 0.00003895932874165663
vn 0.7477781776471736 0.6638780862891128 -0.009679027832257051
vn 0.7477781776471736 0.6638780862891128 -0.009679027832257051
vn 0.7477781776471736 0.6638780862891128 -0.009679027832257051
vn 9.99999997330741e-7 0.9999999999995 1.2000222437024092e-11
vn 9.99999997330741e-7 0.9999999999995 1.2000222437024092e-11
vn 9.99999997330741e-7 0.9999999999995 1.2000222437024092e-11
vn 0.0000019999879946570915 0.9999999999975 0.000001000023997551572
vn 9.99999997330741e-7 0.9999999999995 1.2000222437024092e-11
vn 9.99999997330741e-7 0.9999999999995 1.2000222437024092e-11
vn -1.8175024059621062e-21 1 2.2204460491920848e-16
vn -1.8175024059621062e-21 1 2.2204460491920848e-16
vn -1.8175024059621062e-21 1 2.2204460491920848e-16
vn -1.8175024059621062e-21 1 2.2204460491920848e-16
vn -1.8175024059621062e-21 1 2.2204460491920848e-16
vn -1.8175024059621062e-21 1 2.2204460491920848e-16
vn -0.000009936566644267738 0.66738387951419 0.7447138761066924
vn -0.0014919064646633478 0.6702131666487906 0.7421671546664546
vn -0.11315169610849728 0.6745626765719871 0.7294942693700938
vn -0.11817985030481008 0.666611101804375 0.735977691192532
vn -0.11315169610849728 0.6745626765719871 0.7294942693700938
vn -0.0014919064646633478 0.6702131666487906 0.7421671546664546
vn -0.7343235966063524 0.6673940879587392 0.12391120540465154
vn -0.7422710926472296 0.6700981180744083 -0.0014619074607892637
vn -0.7248397761353039 0.6784002416553713 0.11991835161498866
vn -0.7463789152030574 0.6655099487630237 -0.00387595636514939
vn -0.7248397761353039 0.6784002416553713 0.11991835161498866
vn -0.7422710926472296 0.6700981180744083 -0.0014619074607892637
vn -1.8175024059621062e-21 1 2.2204460491920848e-16
vn -1.8175024059621062e-21 1 2.2204460491920848e-16
vn -1.8175024059621062e-21 1 2.2204460491920848e-16
vn -1.8175024059621062e-21 1 2.2204460491920848e-16
vn -1.8175024059621062e-21 1 2.2204460491920848e-16
vn -1.8175024059621062e-21 1 2.2204460491920848e-16
vn -1.8175024059621062e-21 1 2.2204460491920848e-16
vn -1.8175024059621062e-21 1 2.2204460491920848e-16
vn -1.8175024059621062e-21 1 2.2204460491920848e-16
vn -0.11315169610849728 0.6745626765719871 0.7294942693700938
vn -0.11817985030481008 0.666611101804375 0.735977691192532
vn -0.3901100389365134 0.6432462087255373 0.6588235518567733
vn -0.3897817756659669 0.6353256645044042 0.6666569337978292
vn -0.3901100389365134 0.6432462087255373 0.6588235518567733
vn -0.11817985030481008 0.666611101804375 0.735977691192532
vn -1.8175024059621062e-21 1 2.2204460491920848e-16
vn -1.8175024059621062e-21 1 2.2204460491920848e-16
vn -1.8175024059621062e-21 1 2.2204460491920848e-16
vn -1.8175024059621062e-21 1 2.2204460491920848e-16
vn -1.8175024059621062e-21 1 2.2204460491920848e-16
vn -1.8175024059621062e-21 1 2.2204460491920848e-16
vn -1.8175024059621062e-21 1 2.2204460491920848e-16
vn -1.8175024059621062e-21 1 2.2204460491920848e-16
vn -1.8175024059621062e-21 1 2.2204460491920848e-16
vn -1.8175024059621062e-21 1 2.2204460491920848e-16
vn -1.8175024059621062e-21 1 2.2204460491920848e-16
vn -1.8175024059621062e-21 1 2.2204460491920848e-16
vn -1.8175024059621062e-21 1 2.2204460491920848e-16
vn -1.8175024059621062e-21 1 2.2204460491920848e-16
vn -1.8175024059621062e-21 1 2.2204460491920848e-16
vn 0.000012000000423580264 -9.999999973246983e-7 -0.9999999999275001
vn 0.000012000000423580264 -9.999999973246983e-7 -0.9999999999275001
vn 0.000012000000423580264 -9.999999973246983e-7 -0.9999999999275001
vn 0.000012000000423586264 2.2204460491920853e-16 -0.9999999999280001
vn 0.000012000000423580264 -9.999999973246983e-7 -0.9999999999275001
vn 0.000012000000423580264 -9.999999973246983e-7 -0.9999999999275001
vn 0.999999999928 -1.8175024059621062e-21 0.000012000000423586263
vn 0.999999999928 -1.8175024059621062e-21 0.000012000000423586263
vn 0.999999999928 -1.8175024059621062e-21 0.000012000000423586263
vn 0.999999999928 -1.8175024059621062e-21 0.000012000000423586263
vn 0.999999999928 -1.8175024059621062e-21 0.000012000000423586263
vn 0.999999999928 -1.8175024059621062e-21 0.000012000000423586263
vn -0.9999999992775002 -9.999999972087352e-7 -0.0000380000001158339
vn -0.9999999992775002 -9.999999972087352e-7 -0.0000380000001158339
vn -0.9999999992775002 -9.999999972087352e-7 -0.0000380000001158339
vn -0.9999999992395 7.812706746040117e-21 -0.000039000000452945155
vn -0.9999999992775002 -9.999999972087352e-7 -0.0000380000001158339
vn -0.9999999992775002 -9.999999972087352e-7 -0.0000380000001158339
vn -0.9999999992395 7.812706746040117e-21 -0.000039000000452945155
vn -0.9999999992395 7.812706746040117e-21 -0.000039000000452945155
vn -0.9999999992395 7.812706746040117e-21 -0.000039000000452945155
vn -0.999999999311 0.0000030000001053775733 -0.00003699999977850414
vn -0.9999999992395 7.812706746040117e-21 -0.000039000000452945155
vn -0.9999999992395 7.812706746040117e-21 -0.000039000000452945155
vn -1.8175024059621062e-21 1 2.2204460491920848e-16
vn -1.8175024059621062e-21 1 2.2204460491920848e-16
vn -1.8175024059621062e-21 1 2.2204460491920848e-16
vn -0.6764784187764252 0.626617829475606 0.3869457904061342
vn -0.7343235966063524 0.6673940879587392 0.12391120540465154
vn -0.6605006914659344 0.6383049607967316 0.39535504751464295
vn -0.7248397761353039 0.6784002416553713 0.11991835161498866
vn -0.6605006914659344 0.6383049607967316 0.39535504751464295
vn -0.7343235966063524 0.6673940879587392 0.12391120540465154
vn -1.8175024059621062e-21 1 2.2204460491920848e-16
vn -1.8175024059621062e-21 1 2.2204460491920848e-16
vn -1.8175024059621062e-21 1 2.2204460491920848e-16
vn -1.8175024059621062e-21 1 2.2204460491920848e-16
vn -1.8175024059621062e-21 1 2.2204460491920848e-16
vn -1.8175024059621062e-21 1 2.2204460491920848e-16
vn -0.3897817756659669 0.6353256645044042 0.6666569337978292
vn -0.6764784187764252 0.626617829475606 0.3869457904061342
vn -0.3901100389365134 0.6432462087255373 0.6588235518567733
vn -0.6605006914659344 0.6383049607967316 0.39535504751464295
vn -0.3901100389365134 0.6432462087255373 0.6588235518567733
vn -0.6764784187764252 0.626617829475606 0.3869457904061342
vn -1.8175024059621062e-21 1 2.2204460491920848e-16
vn -1.8175024059621062e-21 1 2.2204460491920848e-16
vn -1.8175024059621062e-21 1 2.2204460491920848e-16
f 1/1/1 2/2/2 3/3/3
f 4/4/4 5/5/5 6/6/6
f 7/7/7 8/8/8 9/9/9
f 10/10/10 11/11/11 12/12/12
f 13/13/13 14/14/14 15/15/15
f 16/16/16 17/17/17 18/18/18
f 19/19/19 20/20/20 21/21/21
f 22/22/22 23/23/23 24/24/24
f 25/25/25 26/26/26 27/27/27
f 28/28/28 29/29/29 30/30/30
f 31/31/31 32/32/32 33/33/33
f 34/34/34 35/35/35 36/36/36
f 37/37/37 38/38/38 39/39/39
f 40/40/40 41/41/41 42/42/42
f 43/43/43 44/44/44 45/45/45
f 46/46/46 47/47/47 48/48/48
f 49/49/49 50/50/50 51/51/51
f 52/52/52 53/53/53 54/54/54
f 55/55/55 56/56/56 57/57/57
f 58/58/58 59/59/59 60/60/60
f 61/61/61 62/62/62 63/63/63
f 64/64/64 65/65/65 66/66/66
f 67/67/67 68/68/68 69/69/69
f 70/70/70 71/71/71 72/72/72
f 73/73/73 74/74/74 75/75/75
f 76/76/76 77/77/77 78/78/78
f 79/79/79 80/80/80 81/81/81
f 82/82/82 83/83/83 84/84/84
f 85/85/85 86/86/86 87/87/87
f 88/88/88 89/89/89 90/90/90
f 91/91/91 92/92/92 93/93/93
f 94/94/94 95/95/95 96/96/96
f 97/97/97 98/98/98 99/99/99
f 100/100/100 101/101/101 102/102/102
f 103/103/103 104/104/104 105/105/105
f 106/106/106 107/107/107 108/108/108
f 109/109/109 110/110/110 111/111/111
f 112/112/112 113/113/113 114/114/114
f 115/115/115 116/116/116 117/117/117
f 118/118/118 119/119/119 120/120/120
f 121/121/121 122/122/122 123/123/123
f 124/124/124 125/125/125 126/126/126
f 127/127/127 128/128/128 129/129/129
f 130/130/130 131/131/131 132/132/132
f 133/133/133 134/134/134 135/135/135
f 136/136/136 137/137/137 138/138/138
