mtllib egy_tile_nw_boundary_sml_corner.mtl
o boundary_small_corner
usemtl PDX01_-_Default
v -0.49999701976776123 0.14500000327825546 -0.000003999999989900971
v 0.000003993511199951172 0.14500000327825546 -0.5000079870223999
v -0.49999701976776123 0.14500000327825546 -0.5000079870223999
v -0.49999701976776123 0.14500000327825546 -0.5000079870223999
v 0.000003993511199951172 0.14500000327825546 -0.5000079870223999
v -0.49999701976776123 -0.20000000298023224 -0.5
v -0.000003993511199951172 -0.20000000298023224 -0.5
v -0.49999701976776123 -0.20000000298023224 -0.5
v 0.000003993511199951172 0.14500000327825546 -0.5000079870223999
v -0.49999701976776123 0.14500000327825546 -0.5000079870223999
v -0.49999701976776123 -0.20000000298023224 -0.5
v -0.49999701976776123 0.14500000327825546 -0.000003999999989900971
v -0.49999701976776123 -0.20000000298023224 -0.000003999999989900971
v -0.49999701976776123 0.14500000327825546 -0.000003999999989900971
v -0.49999701976776123 -0.20000000298023224 -0.5
v -0.49999701976776123 -0.20000000298023224 -0.000003999999989900971
v -0.000003993511199951172 -0.20000000298023224 -0.5
v -0.49999701976776123 0.14500000327825546 -0.000003999999989900971
v 0.000003993511199951172 0.14500000327825546 -0.5000079870223999
v -0.49999701976776123 0.14500000327825546 -0.000003999999989900971
v -0.000003993511199951172 -0.20000000298023224 -0.5
vt 0.08216699957847595 0.553846001625061
vt 0.12837499380111694 0.5096560120582581
vt 0.12837499380111694 0.553846001625061
vt 0.37310901284217834 0.80936598777771
vt 0.41673898696899414 0.80936598777771
vt 0.37310901284217834 0.7695220112800598
vt 0.41673800349235535 0.7695220112800598
vt 0.37310901284217834 0.7695220112800598
vt 0.41673898696899414 0.80936598777771
vt 0.5243099927902222 0.8090940117835999
vt 0.5242930054664612 0.7695350050926208
vt 0.48062899708747864 0.8090940117835999
vt 0.4806259870529175 0.7695350050926208
vt 0.48062899708747864 0.8090940117835999
vt 0.5242930054664612 0.7695350050926208
vt 0.48030900955200195 0.7695350050926208
vt 0.4146440029144287 0.7695220112800598
vt 0.4806329905986786 0.8092160224914551
vt 0.41466501355171204 0.8093830347061157
vt 0.4806329905986786 0.8092160224914551
vt 0.4146440029144287 0.7695220112800598
vn 0 1 0
vn 0 1 0
vn 0 1 0
vn 0 -0.000022000000166505017 -0.999999999758
vn 0 -0.000022000000166505017 -0.999999999758
vn 0 -0.000022000000166505017 -0.999999999758
vn 0 -0.000022000000166505017 -0.999999999758
vn 0 -0.000022000000166505017 -0.999999999758
vn 0 -0.000022000000166505017 -0.999999999758
vn -1 0 0
vn -1 0 0
vn -1 0 0
vn -1 0 0
vn -1 0 0
vn -1 0 0
vn 0.7071087779392782 0 0.7071047844281783
vn 0.7071087779392782 0 0.7071047844281783
vn 0.7071087779392782 0 0.7071047844281783
vn 0.7071087779392782 0 0.7071047844281783
vn 0.7071087779392782 0 0.7071047844281783
vn 0.7071087779392782 0 0.7071047844281783
f 1/1/1 2/2/2 3/3/3
f 4/4/4 5/5/5 6/6/6
f 7/7/7 8/8/8 9/9/9
f 10/10/10 11/11/11 12/12/12
f 13/13/13 14/14/14 15/15/15
f 16/16/16 17/17/17 18/18/18
f 19/19/19 20/20/20 21/21/21
