mtllib egy_tile_ne_corner_static.mtl
o tile_corner_static
usemtl PDX01_-_Default
v 0.500007000000096 -0.20000000298023202 -0.4999929999999039
v -0.499992999999904 -0.20000000298023202 -0.5000070000000958
v 0.33393299232063356 2.0816681711721685e-16 -0.5000003318262052
v -0.33393299941196375 2.0816681711721685e-16 -0.4999996683698936
v 0.33393299232063356 2.0816681711721685e-16 -0.5000003318262052
v -0.499992999999904 -0.20000000298023202 -0.5000070000000958
v 0.33393299232063356 2.0816681711721685e-16 -0.5000003318262052
v 0.46313398723230426 0.14500000327825566 -0.49999446989640617
v 0.500007000000096 -0.20000000298023202 -0.4999929999999039
v 0.500007000000096 0.14500000327825566 -0.4999929999999039
v 0.500007000000096 -0.20000000298023202 -0.4999929999999039
v 0.46313398723230426 0.14500000327825566 -0.49999446989640617
v -0.499992999999904 -0.20000000298023202 -0.5000070000000958
v -0.499992999999904 0.14500000327825566 -0.5000070000000958
v -0.33393299941196375 2.0816681711721685e-16 -0.4999996683698936
v -0.4632220005824798 0.14500000327825566 -0.5000054719271356
v -0.33393299941196375 2.0816681711721685e-16 -0.4999996683698936
v -0.499992999999904 0.14500000327825566 -0.5000070000000958
v 0.499992999999904 -0.20000000298023224 0.500007000000096
v 0.500007000000096 -0.20000000298023202 -0.4999929999999039
v 0.5000003318259969 2.7755575615628914e-17 0.33393300722179486
v 0.49999966837031107 1.6653345369377348e-16 -0.333933029214286
v 0.5000003318259969 2.7755575615628914e-17 0.33393300722179486
v 0.500007000000096 -0.20000000298023202 -0.4999929999999039
v 0.33605470884472627 1.6653345369377348e-16 -0.33607227016865704
v 0.49999966837031107 1.6653345369377348e-16 -0.333933029214286
v 0.4631324976559576 0.14500000327825566 -0.4638444912724796
v 0.5000054809151586 0.14500000327825566 -0.4638640022113554
v 0.4631324976559576 0.14500000327825566 -0.4638444912724796
v 0.49999966837031107 1.6653345369377348e-16 -0.333933029214286
v 0.46313398723230426 0.14500000327825566 -0.49999446989640617
v 0.33393299232063356 2.0816681711721685e-16 -0.5000003318262052
v 0.4631324976559576 0.14500000327825566 -0.4638444912724796
v 0.33605470884472627 1.6653345369377348e-16 -0.33607227016865704
v 0.4631324976559576 0.14500000327825566 -0.4638444912724796
v 0.33393299232063356 2.0816681711721685e-16 -0.5000003318262052
v 0.46313398723230426 0.14500000327825566 -0.49999446989640617
v 0.4631324976559576 0.14500000327825566 -0.4638444912724796
v 0.500007000000096 0.14500000327825566 -0.4999929999999039
v 0.5000054809151586 0.14500000327825566 -0.4638640022113554
v 0.500007000000096 0.14500000327825566 -0.4999929999999039
v 0.4631324976559576 0.14500000327825566 -0.4638444912724796
v 0.33605470884472627 1.6653345369377348e-16 -0.33607227016865704
v 0.0031403837319277355 2.7755575615628914e-17 0.3297310464799895
v 0.49999966837031107 1.6653345369377348e-16 -0.333933029214286
v 0.5000003318259969 2.7755575615628914e-17 0.33393300722179486
v 0.49999966837031107 1.6653345369377348e-16 -0.333933029214286
v 0.0031403837319277355 2.7755575615628914e-17 0.3297310464799895
v 0.4999945190988708 0.14500000327825543 0.46387700010845734
v 0.5000003318259969 2.7755575615628914e-17 0.33393300722179486
v -0.00001749416619901917 0.14500000327825543 0.4638690015623754
v 0.0031403837319277355 2.7755575615628914e-17 0.3297310464799895
v -0.00001749416619901917 0.14500000327825543 0.4638690015623754
v 0.5000003318259969 2.7755575615628914e-17 0.33393300722179486
v -0.329736963532328 9.71445146547012e-17 -0.0031535893062984988
v -0.33393299941196375 2.0816681711721685e-16 -0.4999996683698936
v -0.4658190014356375 0.14500000327825555 0.000010465857654851085
v -0.4632220005824798 0.14500000327825566 -0.5000054719271356
v -0.4658190014356375 0.14500000327825555 0.000010465857654851085
v -0.33393299941196375 2.0816681711721685e-16 -0.4999996683698936
v 0.33393299232063356 2.0816681711721685e-16 -0.5000003318262052
v -0.33393299941196375 2.0816681711721685e-16 -0.4999996683698936
v 0.33605470884472627 1.6653345369377348e-16 -0.33607227016865704
v -0.329736963532328 9.71445146547012e-17 -0.0031535893062984988
v 0.33605470884472627 1.6653345369377348e-16 -0.33607227016865704
v -0.33393299941196375 2.0816681711721685e-16 -0.4999996683698936
v 0.0031403837319277355 2.7755575615628914e-17 0.3297310464799895
v 0.33605470884472627 1.6653345369377348e-16 -0.33607227016865704
v -0.16333699772664428 2.7755575615628914e-17 0.2856387130127832
v -0.00001749416619901917 0.14500000327825543 0.4638690015623754
v 0.0031403837319277355 2.7755575615628914e-17 0.3297310464799895
v -0.21742349095814012 0.14500000327825546 0.392200957693863
v -0.16333699772664428 2.7755575615628914e-17 0.2856387130127832
v -0.21742349095814012 0.14500000327825546 0.392200957693863
v 0.0031403837319277355 2.7755575615628914e-17 0.3297310464799895
v 0.499992999999904 0.14500000327825543 0.500007000000096
v -0.00001749416619901917 0.14500000327825543 0.4638690015623754
v -0.500007000000096 0.14500000327825543 0.49999299999990404
v 0.4999945190988708 0.14500000327825543 0.46387700010845734
v -0.00001749416619901917 0.14500000327825543 0.4638690015623754
v 0.499992999999904 0.14500000327825543 0.500007000000096
v -0.4658190014356375 0.14500000327825555 0.000010465857654851085
v -0.499992999999904 0.14500000327825566 -0.5000070000000958
v -0.500007000000096 0.14500000327825543 0.49999299999990404
v -0.4632220005824798 0.14500000327825566 -0.5000054719271356
v -0.499992999999904 0.14500000327825566 -0.5000070000000958
v -0.4658190014356375 0.14500000327825555 0.000010465857654851085
v -0.00001749416619901917 0.14500000327825543 0.4638690015623754
v -0.21742349095814012 0.14500000327825546 0.392200957693863
v -0.500007000000096 0.14500000327825543 0.49999299999990404
v -0.500007000000096 -0.20000000298023224 0.499992999999904
v 0.499992999999904 -0.20000000298023224 0.500007000000096
v -0.500007000000096 0.14500000327825543 0.49999299999990404
v 0.499992999999904 0.14500000327825543 0.500007000000096
v -0.500007000000096 0.14500000327825543 0.49999299999990404
v 0.499992999999904 -0.20000000298023224 0.500007000000096
v -0.499992999999904 -0.20000000298023202 -0.5000070000000958
v -0.500007000000096 -0.20000000298023224 0.499992999999904
v -0.499992999999904 0.14500000327825566 -0.5000070000000958
v -0.500007000000096 0.14500000327825543 0.49999299999990404
v -0.499992999999904 0.14500000327825566 -0.5000070000000958
v -0.500007000000096 -0.20000000298023224 0.499992999999904
v 0.5000054809151586 0.14500000327825566 -0.4638640022113554
v 0.49999966837031107 1.6653345369377348e-16 -0.333933029214286
v 0.500007000000096 0.14500000327825566 -0.4999929999999039
v 0.500007000000096 -0.20000000298023202 -0.4999929999999039
v 0.500007000000096 0.14500000327825566 -0.4999929999999039
v 0.49999966837031107 1.6653345369377348e-16 -0.333933029214286
v 0.499992999999904 -0.20000000298023224 0.500007000000096
v 0.5000003318259969 2.7755575615628914e-17 0.33393300722179486
v 0.499992999999904 0.14500000327825543 0.500007000000096
v 0.4999945190988708 0.14500000327825543 0.46387700010845734
v 0.499992999999904 0.14500000327825543 0.500007000000096
v 0.5000003318259969 2.7755575615628914e-17 0.33393300722179486
v -0.28610528813156627 5.551115123125783e-17 0.16270698903984304
v 0.33605470884472627 1.6653345369377348e-16 -0.33607227016865704
v -0.329736963532328 9.71445146547012e-17 -0.0031535893062984988
v -0.28610528813156627 5.551115123125783e-17 0.16270698903984304
v -0.329736963532328 9.71445146547012e-17 -0.0031535893062984988
v -0.387309083922786 0.1450000032782555 0.2199345844487997
v -0.4658190014356375 0.14500000327825555 0.000010465857654851085
v -0.387309083922786 0.1450000032782555 0.2199345844487997
v -0.329736963532328 9.71445146547012e-17 -0.0031535893062984988
v -0.500007000000096 0.14500000327825543 0.49999299999990404
v -0.387309083922786 0.1450000032782555 0.2199345844487997
v -0.4658190014356375 0.14500000327825555 0.000010465857654851085
v -0.500007000000096 0.14500000327825543 0.49999299999990404
v -0.21742349095814012 0.14500000327825546 0.392200957693863
v -0.387309083922786 0.1450000032782555 0.2199345844487997
v -0.16333699772664428 2.7755575615628914e-17 0.2856387130127832
v -0.28610528813156627 5.551115123125783e-17 0.16270698903984304
v -0.21742349095814012 0.14500000327825546 0.392200957693863
v -0.387309083922786 0.1450000032782555 0.2199345844487997
v -0.21742349095814012 0.14500000327825546 0.392200957693863
v -0.28610528813156627 5.551115123125783e-17 0.16270698903984304
v -0.28610528813156627 5.551115123125783e-17 0.16270698903984304
v -0.16333699772664428 2.7755575615628914e-17 0.2856387130127832
v 0.33605470884472627 1.6653345369377348e-16 -0.33607227016865704
vt 0.11892499774694443 0.8173419833183289
vt 0.02181600034236908 0.8173419833183289
vt 0.10457400232553482 0.8328449726104736
vt 0.036166999489068985 0.8328449726104736
vt 0.10457400232553482 0.8328449726104736
vt 0.02181600034236908 0.8173419833183289
vt 0.10457400232553482 0.8328449726104736
vt 0.1078369989991188 0.8405960202217102
vt 0.11892499774694443 0.8173419833183289
vt 0.11892499774694443 0.8405960202217102
vt 0.11892499774694443 0.8173419833183289
vt 0.1078369989991188 0.8405960202217102
vt 0.02181600034236908 0.8173419833183289
vt 0.02181600034236908 0.8405960202217102
vt 0.036166999489068985 0.8328449726104736
vt 0.0329039990901947 0.8405960202217102
vt 0.036166999489068985 0.8328449726104736
vt 0.02181600034236908 0.8405960202217102
vt 0.02064099907875061 0.8191109895706177
vt 0.12207800149917603 0.8191109895706177
vt 0.035631999373435974 0.8310319781303406
vt 0.10708799958229065 0.8310319781303406
vt 0.035631999373435974 0.8310319781303406
vt 0.12207800149917603 0.8191109895706177
vt 0.06979899853467941 0.7268109917640686
vt 0.05086600035429001 0.7267979979515076
vt 0.06902699917554855 0.7619439959526062
vt 0.05086600035429001 0.7619850039482117
vt 0.06902699917554855 0.7619439959526062
vt 0.05086600035429001 0.7267979979515076
vt 0.0907140001654625 0.7620580196380615
vt 0.0919400006532669 0.7268030047416687
vt 0.06902699917554855 0.7619439959526062
vt 0.06979899853467941 0.7268109917640686
vt 0.06902699917554855 0.7619439959526062
vt 0.0919400006532669 0.7268030047416687
vt 0.4360960125923157 0.9723520278930664
vt 0.4507400095462799 0.9577080011367798
vt 0.45148900151252747 0.9877449870109558
vt 0.46612998843193054 0.9731029868125916
vt 0.45148900151252747 0.9877449870109558
vt 0.4507400095462799 0.9577080011367798
vt 0.1786320060491562 0.9030399918556213
vt 0.10009299963712692 0.9438509941101074
vt 0.17862899601459503 0.8844109773635864
vt 0.10009299963712692 0.8844109773635864
vt 0.17862899601459503 0.8844109773635864
vt 0.10009299963712692 0.9438509941101074
vt 0.31471699476242065 0.7615200281143188
vt 0.3121350109577179 0.726963996887207
vt 0.20788100361824036 0.7613109946250916
vt 0.20796899497509003 0.727092981338501
vt 0.20788100361824036 0.7613109946250916
vt 0.3121350109577179 0.726963996887207
vt 0.08861999958753586 0.7269890308380127
vt 0.0038999998942017555 0.7269270420074463
vt 0.09113699942827225 0.7612720131874084
vt 0.00393400015309453 0.7612249851226807
vt 0.09113699942827225 0.7612720131874084
vt 0.0038999998942017555 0.7269270420074463
vt 0.19694000482559204 0.9030399918556213
vt 0.19694000482559204 0.9864330291748047
vt 0.1786320060491562 0.9030399918556213
vt 0.14129899442195892 0.9864330291748047
vt 0.1786320060491562 0.9030399918556213
vt 0.19694000482559204 0.9864330291748047
vt 0.10009299963712692 0.9438509941101074
vt 0.1786320060491562 0.9030399918556213
vt 0.10383400321006775 0.9697530269622803
vt 0.20788100361824036 0.7613109946250916
vt 0.20796899497509003 0.727092981338501
vt 0.1756560057401657 0.7612839937210083
vt 0.17305399477481842 0.7269999980926514
vt 0.1756560057401657 0.7612839937210083
vt 0.20796899497509003 0.727092981338501
vt 0.4131160080432892 0.8352980017662048
vt 0.4221140146255493 0.9118019938468933
vt 0.4131160080432892 0.9865880012512207
vt 0.4221149981021881 0.8352980017662048
vt 0.4221140146255493 0.9118019938468933
vt 0.4131160080432892 0.8352980017662048
vt 0.48907700181007385 0.977653980255127
vt 0.5676040053367615 0.9865880012512207
vt 0.4131160080432892 0.9865880012512207
vt 0.5676040053367615 0.977653980255127
vt 0.5676040053367615 0.9865880012512207
vt 0.48907700181007385 0.977653980255127
vt 0.4221140146255493 0.9118019938468933
vt 0.43643298745155334 0.9424239993095398
vt 0.4131160080432892 0.9865880012512207
vt 0.028091000393033028 0.8159549832344055
vt 0.11961600184440613 0.8159549832344055
vt 0.028091000393033028 0.8378720283508301
vt 0.11961600184440613 0.8378720283508301
vt 0.028091000393033028 0.8378720283508301
vt 0.11961600184440613 0.8159549832344055
vt 0.11757200211286545 0.8169090151786804
vt 0.02418000064790249 0.8169090151786804
vt 0.11757200211286545 0.8368819952011108
vt 0.02418000064790249 0.8368819952011108
vt 0.11757200211286545 0.8368819952011108
vt 0.02418000064790249 0.8169090151786804
vt 0.11049599945545197 0.8369929790496826
vt 0.10708799958229065 0.8310319781303406
vt 0.12207800149917603 0.8369929790496826
vt 0.12207800149917603 0.8191109895706177
vt 0.12207800149917603 0.8369929790496826
vt 0.10708799958229065 0.8310319781303406
vt 0.02064099907875061 0.8191109895706177
vt 0.035631999373435974 0.8310319781303406
vt 0.02064099907875061 0.8369929790496826
vt 0.03222399950027466 0.8369929790496826
vt 0.02064099907875061 0.8369929790496826
vt 0.035631999373435974 0.8310319781303406
vt 0.1197500005364418 0.9837650060653687
vt 0.1786320060491562 0.9030399918556213
vt 0.14129899442195892 0.9864330291748047
vt 0.1284569948911667 0.7270010113716125
vt 0.08861999958753586 0.7269890308380127
vt 0.12862500548362732 0.7611870169639587
vt 0.09113699942827225 0.7612720131874084
vt 0.12862500548362732 0.7611870169639587
vt 0.08861999958753586 0.7269890308380127
vt 0.4131160080432892 0.9865880012512207
vt 0.4585669934749603 0.9678090214729309
vt 0.48907700181007385 0.977653980255127
vt 0.4131160080432892 0.9865880012512207
vt 0.43643298745155334 0.9424239993095398
vt 0.4585669934749603 0.9678090214729309
vt 0.17305399477481842 0.7269999980926514
vt 0.1284569948911667 0.7270010113716125
vt 0.1756560057401657 0.7612839937210083
vt 0.12862500548362732 0.7611870169639587
vt 0.1756560057401657 0.7612839937210083
vt 0.1284569948911667 0.7270010113716125
vt 0.1197500005364418 0.9837650060653687
vt 0.10383400321006775 0.9697530269622803
vt 0.1786320060491562 0.9030399918556213
vn 0.00001400000018695207 -0.00002300000050631323 -0.9999999996375001
vn 0.00001400000018695207 -0.00002300000050631323 -0.9999999996375001
vn 0.00001400000018695207 -0.00002300000050631323 -0.9999999996375001
vn -1.6941427876439146e-21 0.000034000000576849325 -0.9999999994220001
vn -1.6941427876439146e-21 0.000034000000576849325 -0.9999999994220001
vn -1.6941427876439146e-21 0.000034000000576849325 -0.9999999994220001
vn 0.00004200000055548021 9.999999974027873e-7 -0.9999999991175
vn 0.00004200000055548021 9.999999974027873e-7 -0.9999999991175
vn 0.00004200000055548021 9.999999974027873e-7 -0.9999999991175
vn 0.00004100000021856245 9.999999974302873e-7 -0.9999999991590001
vn 0.00004200000055548021 9.999999974027873e-7 -0.9999999991175
vn 0.00004200000055548021 9.999999974027873e-7 -0.9999999991175
vn 0.00004100000021856245 9.999999974302873e-7 -0.9999999991590001
vn 0.00004100000021856245 9.999999974302873e-7 -0.9999999991590001
vn 0.00004100000021856245 9.999999974302873e-7 -0.9999999991590001
vn 0.000038000001026183596 -0.000001999999994344441 -0.999999999276
vn 0.00004100000021856245 9.999999974302873e-7 -0.9999999991590001
vn 0.00004100000021856245 9.999999974302873e-7 -0.9999999991590001
vn 0.9999999996375 -0.000023000000506535277 0.000014000000186952065
vn 0.9999999996375 -0.000023000000506535277 0.000014000000186952065
vn 0.9999999996375 -0.000023000000506535277 0.000014000000186952065
vn 0.999999999422 0.00003400000057662728 4.161384908092516e-21
vn 0.999999999422 0.00003400000057662728 4.161384908092516e-21
vn 0.999999999422 0.00003400000057662728 4.161384908092516e-21
vn -0.009737444806864877 0.6658870975468184 0.7459889781285696
vn -0.009737444806864877 0.6658870975468184 0.7459889781285696
vn -0.009737444806864877 0.6658870975468184 0.7459889781285696
vn 0.0003885735038481061 0.6673479581225759 0.7447459646082419
vn 0.0003885735038481061 0.6673479581225759 0.7447459646082419
vn 0.0003885735038481061 0.6673479581225759 0.7447459646082419
vn -0.7466109448699626 0.6652609227693845 -0.00004045255045695019
vn -0.7466109448699626 0.6652609227693845 -0.00004045255045695019
vn -0.7466109448699626 0.6652609227693845 -0.00004045255045695019
vn -0.7477781969951625 0.6638780862987662 0.009677532275945852
vn -0.7477781969951625 0.6638780862987662 0.009677532275945852
vn -0.7477781969951625 0.6638780862987662 0.009677532275945852
vn -9.99999997278745e-7 0.9999999999995 -1.3999778109324551e-11
vn -9.99999997278745e-7 0.9999999999995 -1.3999778109324551e-11
vn -9.99999997278745e-7 0.9999999999995 -1.3999778109324551e-11
vn -0.0000019999859945533333 0.9999999999975 -0.0000010000279970550059
vn -9.99999997278745e-7 0.9999999999995 -1.3999778109324551e-11
vn -9.99999997278745e-7 0.9999999999995 -1.3999778109324551e-11
vn -2.2615915641130774e-21 1 2.2204460491512943e-16
vn -2.2615915641130774e-21 1 2.2204460491512943e-16
vn -2.2615915641130774e-21 1 2.2204460491512943e-16
vn -2.2615915641130774e-21 1 2.2204460491512943e-16
vn -2.2615915641130774e-21 1 2.2204460491512943e-16
vn -2.2615915641130774e-21 1 2.2204460491512943e-16
vn 0.000011425994222986947 0.6673838795238136 -0.7447138760767055
vn 0.0014933907987795061 0.6702131666583891 -0.7421671516724898
vn 0.11315315509530119 0.6745626765815453 -0.7294940430566381
vn 0.11818132225841936 0.6666111018140054 -0.7359774548228836
vn 0.11315315509530119 0.6745626765815453 -0.7294940430566381
vn 0.0014933907987795061 0.6702131666583891 -0.7421671516724898
vn 0.7343238444187616 0.6673940879683627 -0.12390973675594619
vn 0.7422710897132646 0.6700981180840078 0.0014633920027820736
vn 0.7248400159618562 0.6784002416648922 -0.11991690193393009
vn 0.746378907441058 0.6655099487726635 0.0038774491227539605
vn 0.7248400159618562 0.6784002416648922 -0.11991690193393009
vn 0.7422710897132646 0.6700981180840078 0.0014633920027820736
vn -2.2615915641130774e-21 1 2.2204460491512943e-16
vn -2.2615915641130774e-21 1 2.2204460491512943e-16
vn -2.2615915641130774e-21 1 2.2204460491512943e-16
vn -2.2615915641130774e-21 1 2.2204460491512943e-16
vn -2.2615915641130774e-21 1 2.2204460491512943e-16
vn -2.2615915641130774e-21 1 2.2204460491512943e-16
vn -2.2615915641130774e-21 1 2.2204460491512943e-16
vn -2.2615915641130774e-21 1 2.2204460491512943e-16
vn -2.2615915641130774e-21 1 2.2204460491512943e-16
vn 0.11315315509530119 0.6745626765815453 -0.7294940430566381
vn 0.11818132225841936 0.6666111018140054 -0.7359774548228836
vn 0.39011135657848667 0.6432462087353419 -0.6588227716283808
vn 0.389783108974809 0.6353256645142554 -0.6666561542260389
vn 0.39011135657848667 0.6432462087353419 -0.6588227716283808
vn 0.11818132225841936 0.6666111018140054 -0.7359774548228836
vn -2.2615915641130774e-21 1 2.2204460491512943e-16
vn -2.2615915641130774e-21 1 2.2204460491512943e-16
vn -2.2615915641130774e-21 1 2.2204460491512943e-16
vn -2.2615915641130774e-21 1 2.2204460491512943e-16
vn -2.2615915641130774e-21 1 2.2204460491512943e-16
vn -2.2615915641130774e-21 1 2.2204460491512943e-16
vn -2.2615915641130774e-21 1 2.2204460491512943e-16
vn -2.2615915641130774e-21 1 2.2204460491512943e-16
vn -2.2615915641130774e-21 1 2.2204460491512943e-16
vn -2.2615915641130774e-21 1 2.2204460491512943e-16
vn -2.2615915641130774e-21 1 2.2204460491512943e-16
vn -2.2615915641130774e-21 1 2.2204460491512943e-16
vn -2.2615915641130774e-21 1 2.2204460491512943e-16
vn -2.2615915641130774e-21 1 2.2204460491512943e-16
vn -2.2615915641130774e-21 1 2.2204460491512943e-16
vn -0.00001400000019064807 -9.999999977947874e-7 0.9999999999015
vn -0.00001400000019064807 -9.999999977947874e-7 0.9999999999015
vn -0.00001400000019064807 -9.999999977947874e-7 0.9999999999015
vn -0.00001400000019065507 -2.2204460491512943e-16 0.9999999999020001
vn -0.00001400000019064807 -9.999999977947874e-7 0.9999999999015
vn -0.00001400000019064807 -9.999999977947874e-7 0.9999999999015
vn -0.9999999999020002 2.261591564113078e-21 -0.000014000000190655073
vn -0.9999999999020002 2.261591564113078e-21 -0.000014000000190655073
vn -0.9999999999020002 2.261591564113078e-21 -0.000014000000190655073
vn -0.9999999999020002 2.261591564113078e-21 -0.000014000000190655073
vn -0.9999999999020002 2.261591564113078e-21 -0.000014000000190655073
vn -0.9999999999020002 2.261591564113078e-21 -0.000014000000190655073
vn 0.9999999991995 -9.99999997234751e-7 0.000039999999881549717
vn 0.9999999991995 -9.99999997234751e-7 0.000039999999881549717
vn 0.9999999991995 -9.99999997234751e-7 0.000039999999881549717
vn 0.9999999991595 -8.256795903919083e-21 0.000041000000218582965
vn 0.9999999991995 -9.99999997234751e-7 0.000039999999881549717
vn 0.9999999991995 -9.99999997234751e-7 0.000039999999881549717
vn 0.9999999991595 -8.256795903919083e-21 0.000041000000218582965
vn 0.9999999991595 -8.256795903919083e-21 0.000041000000218582965
vn 0.9999999991595 -8.256795903919083e-21 0.000041000000218582965
vn 0.9999999992350002 0.0000030000001054555592 0.00003899999954428896
vn 0.9999999991595 -8.256795903919083e-21 0.000041000000218582965
vn 0.9999999991595 -8.256795903919083e-21 0.000041000000218582965
vn -2.2615915641130774e-21 1 2.2204460491512943e-16
vn -2.2615915641130774e-21 1 2.2204460491512943e-16
vn -2.2615915641130774e-21 1 2.2204460491512943e-16
vn 0.6764791926596568 0.6266178294855012 -0.38694443744472967
vn 0.7343238444187616 0.6673940879683627 -0.12390973675594619
vn 0.6605014821676194 0.6383049608065661 -0.3953537265084347
vn 0.7248400159618562 0.6784002416648922 -0.11991690193393009
vn 0.6605014821676194 0.6383049608065661 -0.3953537265084347
vn 0.7343238444187616 0.6673940879683627 -0.12390973675594619
vn -2.2615915641130774e-21 1 2.2204460491512943e-16
vn -2.2615915641130774e-21 1 2.2204460491512943e-16
vn -2.2615915641130774e-21 1 2.2204460491512943e-16
vn -2.2615915641130774e-21 1 2.2204460491512943e-16
vn -2.2615915641130774e-21 1 2.2204460491512943e-16
vn -2.2615915641130774e-21 1 2.2204460491512943e-16
vn 0.389783108974809 0.6353256645142554 -0.6666561542260389
vn 0.6764791926596568 0.6266178294855012 -0.38694443744472967
vn 0.39011135657848667 0.6432462087353419 -0.6588227716283808
vn 0.6605014821676194 0.6383049608065661 -0.3953537265084347
vn 0.39011135657848667 0.6432462087353419 -0.6588227716283808
vn 0.6764791926596568 0.6266178294855012 -0.38694443744472967
vn -2.2615915641130774e-21 1 2.2204460491512943e-16
vn -2.2615915641130774e-21 1 2.2204460491512943e-16
vn -2.2615915641130774e-21 1 2.2204460491512943e-16
f 1/1/1 2/2/2 3/3/3
f 4/4/4 5/5/5 6/6/6
f 7/7/7 8/8/8 9/9/9
f 10/10/10 11/11/11 12/12/12
f 13/13/13 14/14/14 15/15/15
f 16/16/16 17/17/17 18/18/18
f 19/19/19 20/20/20 21/21/21
f 22/22/22 23/23/23 24/24/24
f 25/25/25 26/26/26 27/27/27
f 28/28/28 29/29/29 30/30/30
f 31/31/31 32/32/32 33/33/33
f 34/34/34 35/35/35 36/36/36
f 37/37/37 38/38/38 39/39/39
f 40/40/40 41/41/41 42/42/42
f 43/43/43 44/44/44 45/45/45
f 46/46/46 47/47/47 48/48/48
f 49/49/49 50/50/50 51/51/51
f 52/52/52 53/53/53 54/54/54
f 55/55/55 56/56/56 57/57/57
f 58/58/58 59/59/59 60/60/60
f 61/61/61 62/62/62 63/63/63
f 64/64/64 65/65/65 66/66/66
f 67/67/67 68/68/68 69/69/69
f 70/70/70 71/71/71 72/72/72
f 73/73/73 74/74/74 75/75/75
f 76/76/76 77/77/77 78/78/78
f 79/79/79 80/80/80 81/81/81
f 82/82/82 83/83/83 84/84/84
f 85/85/85 86/86/86 87/87/87
f 88/88/88 89/89/89 90/90/90
f 91/91/91 92/92/92 93/93/93
f 94/94/94 95/95/95 96/96/96
f 97/97/97 98/98/98 99/99/99
f 100/100/100 101/101/101 102/102/102
f 103/103/103 104/104/104 105/105/105
f 106/106/106 107/107/107 108/108/108
f 109/109/109 110/110/110 111/111/111
f 112/112/112 113/113/113 114/114/114
f 115/115/115 116/116/116 117/117/117
f 118/118/118 119/119/119 120/120/120
f 121/121/121 122/122/122 123/123/123
f 124/124/124 125/125/125 126/126/126
f 127/127/127 128/128/128 129/129/129
f 130/130/130 131/131/131 132/132/132
f 133/133/133 134/134/134 135/135/135
f 136/136/136 137/137/137 138/138/138
