mtllib egy_tile_se_corner.mtl
o tile_corner
usemtl PDX01_-_Default
v 0.4999990000000025 -0.20000000298023224 0.5000009999999975
v 0.5000009999999975 -0.20000000298023224 -0.4999990000000026
v 0.5000043389381783 0 0.3339269922604535
v 0.49999566108983584 0 -0.3339389993519809
v 0.5000043389381783 0 0.3339269922604535
v 0.5000009999999975 -0.20000000298023224 -0.4999990000000026
v 0.5000043389381783 0 0.3339269922604535
v 0.5000000274203442 0.14500000327825546 0.4631279872207616
v 0.4999990000000025 -0.20000000298023224 0.5000009999999975
v 0.4999990000000025 0.14500000327825546 0.5000009999999975
v 0.4999990000000025 -0.20000000298023224 0.5000009999999975
v 0.5000000274203442 0.14500000327825546 0.4631279872207616
v 0.5000009999999975 -0.20000000298023224 -0.4999990000000026
v 0.5000009999999975 0.14500000327825546 -0.4999990000000026
v 0.49999566108983584 0 -0.3339389993519809
v 0.4999999131790376 0.14500000327825546 -0.463228000570419
v 0.49999566108983584 0 -0.3339389993519809
v 0.5000009999999975 0.14500000327825546 -0.4999990000000026
v -0.5000009999999975 -0.20000000298023224 0.4999990000000025
v 0.4999990000000025 -0.20000000298023224 0.5000009999999975
v -0.3339270071616147 0 0.5000043389381486
v 0.3339390291543032 0 0.4999956610898954
v -0.3339270071616147 0 0.5000043389381486
v 0.4999990000000025 -0.20000000298023224 0.5000009999999975
v 0.33607630276876854 0 0.33605067592096155
v 0.3339390291543032 0 0.4999956610898954
v 0.463850048784616 0.14500000327825546 0.4631269314441657
v 0.46387000219929475 0.14500000327825546 0.4999999144630408
v 0.463850048784616 0.14500000327825546 0.4631269314441657
v 0.3339390291543032 0 0.4999956610898954
v 0.5000000274203442 0.14500000327825546 0.4631279872207616
v 0.5000043389381783 0 0.3339269922604535
v 0.463850048784616 0.14500000327825546 0.4631269314441657
v 0.33607630276876854 0 0.33605067592096155
v 0.463850048784616 0.14500000327825546 0.4631269314441657
v 0.5000043389381783 0 0.3339269922604535
v 0.5000000274203442 0.14500000327825546 0.4631279872207616
v 0.463850048784616 0.14500000327825546 0.4631269314441657
v 0.4999990000000025 0.14500000327825546 0.5000009999999975
v 0.46387000219929475 0.14500000327825546 0.4999999144630408
v 0.4999990000000025 0.14500000327825546 0.5000009999999975
v 0.463850048784616 0.14500000327825546 0.4631269314441657
v 0.33607630276876854 0 0.33605067592096155
v -0.32973100873998923 0 0.0031443405040221086
v 0.3339390291543032 0 0.4999956610898954
v -0.3339270071616147 0 0.5000043389381486
v 0.3339390291543032 0 0.4999956610898954
v -0.32973100873998923 0 0.0031443405040221086
v -0.46387100009619936 0.14500000327825546 0.5000000855389634
v -0.3339270071616147 0 0.5000043389381486
v -0.46386900169437534 0.14500000327825546 -0.000011927738087006806
v -0.32973100873998923 0 0.0031443405040221086
v -0.46386900169437534 0.14500000327825546 -0.000011927738087006806
v -0.3339270071616147 0 0.5000043389381486
v 0.003149632462142282 0 -0.3297370013200045
v 0.49999566108983584 0 -0.3339389993519809
v -0.000016055685760962835 0.14500000327825546 -0.4658190012317896
v 0.4999999131790376 0.14500000327825546 -0.463228000570419
v -0.000016055685760962835 0.14500000327825546 -0.4658190012317896
v 0.49999566108983584 0 -0.3339389993519809
v 0.5000043389381783 0 0.3339269922604535
v 0.49999566108983584 0 -0.3339389993519809
v 0.33607630276876854 0 0.33605067592096155
v 0.003149632462142282 0 -0.3297370013200045
v 0.33607630276876854 0 0.33605067592096155
v 0.49999566108983584 0 -0.3339389993519809
v -0.32973100873998923 0 0.0031443405040221086
v 0.33607630276876854 0 0.33605067592096155
v -0.28564067300880036 0 -0.16333357003459192
v -0.46386900169437534 0.14500000327825546 -0.000011927738087006806
v -0.32973100873998923 0 0.0031443405040221086
v -0.39220356670990697 0.14500000327825546 -0.21741878451004426
v -0.28564067300880036 0 -0.16333357003459192
v -0.39220356670990697 0.14500000327825546 -0.21741878451004426
v -0.32973100873998923 0 0.0031443405040221086
v -0.5000009999999975 0.14500000327825546 0.4999990000000025
v -0.46386900169437534 0.14500000327825546 -0.000011927738087006806
v -0.4999990000000025 0.14500000327825546 -0.5000009999999975
v -0.46387100009619936 0.14500000327825546 0.5000000855389634
v -0.46386900169437534 0.14500000327825546 -0.000011927738087006806
v -0.5000009999999975 0.14500000327825546 0.4999990000000025
v -0.000016055685760962835 0.14500000327825546 -0.4658190012317896
v 0.5000009999999975 0.14500000327825546 -0.4999990000000026
v -0.4999990000000025 0.14500000327825546 -0.5000009999999975
v 0.4999999131790376 0.14500000327825546 -0.463228000570419
v 0.5000009999999975 0.14500000327825546 -0.4999990000000026
v -0.000016055685760962835 0.14500000327825546 -0.4658190012317896
v -0.46386900169437534 0.14500000327825546 -0.000011927738087006806
v -0.39220356670990697 0.14500000327825546 -0.21741878451004426
v -0.4999990000000025 0.14500000327825546 -0.5000009999999975
v -0.4999990000000025 -0.20000000298023224 -0.5000009999999975
v -0.5000009999999975 -0.20000000298023224 0.4999990000000025
v -0.4999990000000025 0.14500000327825546 -0.5000009999999975
v -0.5000009999999975 0.14500000327825546 0.4999990000000025
v -0.4999990000000025 0.14500000327825546 -0.5000009999999975
v -0.5000009999999975 -0.20000000298023224 0.4999990000000025
v 0.5000009999999975 -0.20000000298023224 -0.4999990000000026
v -0.4999990000000025 -0.20000000298023224 -0.5000009999999975
v 0.5000009999999975 0.14500000327825546 -0.4999990000000026
v -0.4999990000000025 0.14500000327825546 -0.5000009999999975
v 0.5000009999999975 0.14500000327825546 -0.4999990000000026
v -0.4999990000000025 -0.20000000298023224 -0.5000009999999975
v 0.46387000219929475 0.14500000327825546 0.4999999144630408
v 0.3339390291543032 0 0.4999956610898954
v 0.4999990000000025 0.14500000327825546 0.5000009999999975
v 0.4999990000000025 -0.20000000298023224 0.5000009999999975
v 0.4999990000000025 0.14500000327825546 0.5000009999999975
v 0.3339390291543032 0 0.4999956610898954
v -0.5000009999999975 -0.20000000298023224 0.4999990000000025
v -0.3339270071616147 0 0.5000043389381486
v -0.5000009999999975 0.14500000327825546 0.4999990000000025
v -0.46387100009619936 0.14500000327825546 0.5000000855389634
v -0.5000009999999975 0.14500000327825546 0.4999990000000025
v -0.3339270071616147 0 0.5000043389381486
v -0.1627104222760215 0 -0.28610333559960044
v 0.33607630276876854 0 0.33605067592096155
v 0.003149632462142282 0 -0.3297370013200045
v -0.1627104222760215 0 -0.28610333559960044
v 0.003149632462142282 0 -0.3297370013200045
v -0.21993923212093308 0.14500000327825546 -0.3873064446426619
v -0.000016055685760962835 0.14500000327825546 -0.4658190012317896
v -0.21993923212093308 0.14500000327825546 -0.3873064446426619
v 0.003149632462142282 0 -0.3297370013200045
v -0.4999990000000025 0.14500000327825546 -0.5000009999999975
v -0.21993923212093308 0.14500000327825546 -0.3873064446426619
v -0.000016055685760962835 0.14500000327825546 -0.4658190012317896
v -0.4999990000000025 0.14500000327825546 -0.5000009999999975
v -0.39220356670990697 0.14500000327825546 -0.21741878451004426
v -0.21993923212093308 0.14500000327825546 -0.3873064446426619
v -0.28564067300880036 0 -0.16333357003459192
v -0.1627104222760215 0 -0.28610333559960044
v -0.39220356670990697 0.14500000327825546 -0.21741878451004426
v -0.21993923212093308 0.14500000327825546 -0.3873064446426619
v -0.39220356670990697 0.14500000327825546 -0.21741878451004426
v -0.1627104222760215 0 -0.28610333559960044
v -0.1627104222760215 0 -0.28610333559960044
v -0.28564067300880036 0 -0.16333357003459192
v 0.33607630276876854 0 0.33605067592096155
vt 0.11892499774694443 0.8173419833183289
vt 0.02181600034236908 0.8173419833183289
vt 0.10457400232553482 0.8328449726104736
vt 0.036166999489068985 0.8328449726104736
vt 0.10457400232553482 0.8328449726104736
vt 0.02181600034236908 0.8173419833183289
vt 0.10457400232553482 0.8328449726104736
vt 0.1078369989991188 0.8405960202217102
vt 0.11892499774694443 0.8173419833183289
vt 0.11892499774694443 0.8405960202217102
vt 0.11892499774694443 0.8173419833183289
vt 0.1078369989991188 0.8405960202217102
vt 0.02181600034236908 0.8173419833183289
vt 0.02181600034236908 0.8405960202217102
vt 0.036166999489068985 0.8328449726104736
vt 0.0329039990901947 0.8405960202217102
vt 0.036166999489068985 0.8328449726104736
vt 0.02181600034236908 0.8405960202217102
vt 0.02064099907875061 0.8191109895706177
vt 0.12207800149917603 0.8191109895706177
vt 0.035631999373435974 0.8310319781303406
vt 0.10708799958229065 0.8310319781303406
vt 0.035631999373435974 0.8310319781303406
vt 0.12207800149917603 0.8191109895706177
vt 0.06979899853467941 0.7746390104293823
vt 0.05086600035429001 0.7746260166168213
vt 0.06902699917554855 0.8097720146179199
vt 0.05086600035429001 0.8098120093345642
vt 0.06902699917554855 0.8097720146179199
vt 0.05086600035429001 0.7746260166168213
vt 0.0907140001654625 0.8098859786987305
vt 0.0919400006532669 0.7746310234069824
vt 0.06902699917554855 0.8097720146179199
vt 0.06979899853467941 0.7746390104293823
vt 0.06902699917554855 0.8097720146179199
vt 0.0919400006532669 0.7746310234069824
vt 0.4360960125923157 0.9723520278930664
vt 0.4507400095462799 0.9577080011367798
vt 0.45148900151252747 0.9877449870109558
vt 0.46612998843193054 0.9731029868125916
vt 0.45148900151252747 0.9877449870109558
vt 0.4507400095462799 0.9577080011367798
vt 0.1786320060491562 0.9030399918556213
vt 0.10009299963712692 0.9438509941101074
vt 0.17862899601459503 0.8844109773635864
vt 0.10009299963712692 0.8844109773635864
vt 0.17862899601459503 0.8844109773635864
vt 0.10009299963712692 0.9438509941101074
vt 0.31471699476242065 0.8081809878349304
vt 0.3121350109577179 0.7736250162124634
vt 0.20788100361824036 0.8079720139503479
vt 0.20796899497509003 0.7737540006637573
vt 0.20788100361824036 0.8079720139503479
vt 0.3121350109577179 0.7736250162124634
vt 0.08861999958753586 0.7736499905586243
vt 0.0038999998942017555 0.7735880017280579
vt 0.09113699942827225 0.8079339861869812
vt 0.00393400015309453 0.8078870177268982
vt 0.09113699942827225 0.8079339861869812
vt 0.0038999998942017555 0.7735880017280579
vt 0.19694000482559204 0.9030399918556213
vt 0.19694000482559204 0.9864330291748047
vt 0.1786320060491562 0.9030399918556213
vt 0.14129899442195892 0.9864330291748047
vt 0.1786320060491562 0.9030399918556213
vt 0.19694000482559204 0.9864330291748047
vt 0.10009299963712692 0.9438509941101074
vt 0.1786320060491562 0.9030399918556213
vt 0.10383400321006775 0.9697530269622803
vt 0.20788100361824036 0.8079720139503479
vt 0.20796899497509003 0.7737540006637573
vt 0.1756560057401657 0.807945966720581
vt 0.17305399477481842 0.7736610174179077
vt 0.1756560057401657 0.807945966720581
vt 0.20796899497509003 0.7737540006637573
vt 0.4131160080432892 0.8352980017662048
vt 0.4221140146255493 0.9118019938468933
vt 0.4131160080432892 0.9865880012512207
vt 0.4221149981021881 0.8352980017662048
vt 0.4221140146255493 0.9118019938468933
vt 0.4131160080432892 0.8352980017662048
vt 0.48907700181007385 0.977653980255127
vt 0.5676040053367615 0.9865880012512207
vt 0.4131160080432892 0.9865880012512207
vt 0.5676040053367615 0.977653980255127
vt 0.5676040053367615 0.9865880012512207
vt 0.48907700181007385 0.977653980255127
vt 0.4221140146255493 0.9118019938468933
vt 0.43643298745155334 0.9424239993095398
vt 0.4131160080432892 0.9865880012512207
vt 0.028091000393033028 0.8159549832344055
vt 0.11961600184440613 0.8159549832344055
vt 0.028091000393033028 0.8378720283508301
vt 0.11961600184440613 0.8378720283508301
vt 0.028091000393033028 0.8378720283508301
vt 0.11961600184440613 0.8159549832344055
vt 0.11757200211286545 0.8169090151786804
vt 0.02418000064790249 0.8169090151786804
vt 0.11757200211286545 0.8368819952011108
vt 0.02418000064790249 0.8368819952011108
vt 0.11757200211286545 0.8368819952011108
vt 0.02418000064790249 0.8169090151786804
vt 0.11049599945545197 0.8369929790496826
vt 0.10708799958229065 0.8310319781303406
vt 0.12207800149917603 0.8369929790496826
vt 0.12207800149917603 0.8191109895706177
vt 0.12207800149917603 0.8369929790496826
vt 0.10708799958229065 0.8310319781303406
vt 0.02064099907875061 0.8191109895706177
vt 0.035631999373435974 0.8310319781303406
vt 0.02064099907875061 0.8369929790496826
vt 0.03222399950027466 0.8369929790496826
vt 0.02064099907875061 0.8369929790496826
vt 0.035631999373435974 0.8310319781303406
vt 0.1197500005364418 0.9837650060653687
vt 0.1786320060491562 0.9030399918556213
vt 0.14129899442195892 0.9864330291748047
vt 0.1284569948911667 0.7736629843711853
vt 0.08861999958753586 0.7736499905586243
vt 0.12862500548362732 0.8078489899635315
vt 0.09113699942827225 0.8079339861869812
vt 0.12862500548362732 0.8078489899635315
vt 0.08861999958753586 0.7736499905586243
vt 0.4131160080432892 0.9865880012512207
vt 0.4585669934749603 0.9678090214729309
vt 0.48907700181007385 0.977653980255127
vt 0.4131160080432892 0.9865880012512207
vt 0.43643298745155334 0.9424239993095398
vt 0.4585669934749603 0.9678090214729309
vt 0.17305399477481842 0.7736610174179077
vt 0.1284569948911667 0.7736629843711853
vt 0.1756560057401657 0.807945966720581
vt 0.12862500548362732 0.8078489899635315
vt 0.1756560057401657 0.807945966720581
vt 0.1284569948911667 0.7736629843711853
vt 0.1197500005364418 0.9837650060653687
vt 0.10383400321006775 0.9697530269622803
vt 0.1786320060491562 0.9030399918556213
vn 0.9999999997335001 -0.00002300000050432727 0.000001999999994421486
vn 0.9999999997335001 -0.00002300000050432727 0.000001999999994421486
vn 0.9999999997335001 -0.00002300000050432727 0.000001999999994421486
vn 0.9999999993500002 0.000034000000573363276 -0.00001200000018893659
vn 0.9999999993500002 0.000034000000573363276 -0.00001200000018893659
vn 0.9999999993500002 0.000034000000573363276 -0.00001200000018893659
vn 0.9999999995495 9.999999970847427e-7 0.000030000000367173635
vn 0.9999999995495 9.999999970847427e-7 0.000030000000367173635
vn 0.9999999995495 9.999999970847427e-7 0.000030000000367173635
vn 0.999999999579 9.999999971122427e-7 0.000029000000029829875
vn 0.9999999995495 9.999999970847427e-7 0.000030000000367173635
vn 0.9999999995495 9.999999970847427e-7 0.000030000000367173635
vn 0.999999999579 9.999999971122427e-7 0.000029000000029829875
vn 0.999999999579 9.999999971122427e-7 0.000029000000029829875
vn 0.999999999579 9.999999971122427e-7 0.000029000000029829875
vn 0.99999999966 -0.0000019999999943744852 0.000026000000836263013
vn 0.999999999579 9.999999971122427e-7 0.000029000000029829875
vn 0.999999999579 9.999999971122427e-7 0.000029000000029829875
vn -0.0000019999999943659747 -0.00002300000050432727 0.9999999997335001
vn -0.0000019999999943659747 -0.00002300000050432727 0.9999999997335001
vn -0.0000019999999943659747 -0.00002300000050432727 0.9999999997335001
vn 0.000012000000188992097 0.00003400000057336327 0.99999999935
vn 0.000012000000188992097 0.00003400000057336327 0.99999999935
vn 0.000012000000188992097 0.00003400000057336327 0.99999999935
vn -0.7459890949559523 0.665887097511238 -0.009728492938694232
vn -0.7459890949559523 0.665887097511238 -0.009728492938694232
vn -0.7459890949559523 0.665887097511238 -0.009728492938694232
vn -0.7447459599235788 0.6673479580870423 0.0003975104555582983
vn -0.7447459599235788 0.6673479580870423 0.0003975104555582983
vn -0.7447459599235788 0.6673479580870423 0.0003975104555582983
vn 0.000031493218970801755 0.6652609227337843 -0.7466109453333585
vn 0.000031493218970801755 0.6652609227337843 -0.7466109453333585
vn 0.000031493218970801755 0.6652609227337843 -0.7466109453333585
vn -0.009686505614169215 0.663878086263123 -0.7477780808425722
vn -0.009686505614169215 0.663878086263123 -0.7477780808425722
vn -0.009686505614169215 0.663878086263123 -0.7477780808425722
vn 1.99999998984046e-12 0.9999999999995 -9.999999974707428e-7
vn 1.99999998984046e-12 0.9999999999995 -9.999999974707428e-7
vn 1.99999998984046e-12 0.9999999999995 -9.999999974707428e-7
vn 0.0000010000039974687226 0.9999999999975 -0.0000019999979949374957
vn 1.99999998984046e-12 0.9999999999995 -9.999999974707428e-7
vn 1.99999998984046e-12 0.9999999999995 -9.999999974707428e-7
vn 0 1 0
vn 0 1 0
vn 0 1 0
vn 0 1 0
vn 0 1 0
vn 0 1 0
vn 0.744713876192041 0.6673838794882809 0.0000024894275634812227
vn 0.7421671695717474 0.6702131666229494 0.0014844847927705561
vn 0.7294954008738648 0.6745626765462542 0.11314440116343712
vn 0.73597887297718 0.6666111017784478 0.11817249052534945
vn 0.7294954008738648 0.6745626765462542 0.11314440116343712
vn 0.7421671695717474 0.6702131666229494 0.0014844847927705561
vn 0.12391854863860045 0.6673940879328304 0.7343223574804244
vn -0.0014544847495172682 0.6700981180485642 0.7422711072525224
vn 0.11992560001092831 0.6784002416297387 0.7248385769388458
vn -0.00386849257560359 0.665509948737071 0.746378953948444
vn 0.11992560001092831 0.6784002416297387 0.7248385769388458
vn -0.0014544847495172682 0.6700981180485642 0.7422711072525224
vn 0 1 0
vn 0 1 0
vn 0 1 0
vn 0 1 0
vn 0 1 0
vn 0 1 0
vn 0 1 0
vn 0 1 0
vn 0 1 0
vn 0.7294954008738648 0.6745626765462542 0.11314440116343712
vn 0.73597887297718 0.6666111017784478 0.11817249052534945
vn 0.6588274529434706 0.6432462086991408 0.3901034506925056
vn 0.6666608316012563 0.6353256644778823 0.38977510908786683
vn 0.6588274529434706 0.6432462086991408 0.3901034506925056
vn 0.73597887297718 0.6666111017784478 0.11817249052534945
vn 0 1 0
vn 0 1 0
vn 0 1 0
vn 0 1 0
vn 0 1 0
vn 0 1 0
vn 0 1 0
vn 0 1 0
vn 0 1 0
vn 0 1 0
vn 0 1 0
vn 0 1 0
vn 0 1 0
vn 0 1 0
vn 0 1 0
vn -0.9999999999975 -9.999999974767426e-7 -0.0000019999999949494855
vn -0.9999999999975 -9.999999974767426e-7 -0.0000019999999949494855
vn -0.9999999999975 -9.999999974767426e-7 -0.0000019999999949494855
vn -0.999999999998 0 -0.000001999999994950486
vn -0.9999999999975 -9.999999974767426e-7 -0.0000019999999949494855
vn -0.9999999999975 -9.999999974767426e-7 -0.0000019999999949494855
vn 0.0000019999999948949747 0 -0.999999999998
vn 0.0000019999999948949747 0 -0.999999999998
vn 0.0000019999999948949747 0 -0.999999999998
vn 0.0000019999999948949747 0 -0.999999999998
vn 0.0000019999999948949747 0 -0.999999999998
vn 0.0000019999999948949747 0 -0.999999999998
vn -0.000027999999692347604 -9.999999971387426e-7 0.9999999996075
vn -0.000027999999692347604 -9.999999971387426e-7 0.9999999996075
vn -0.000027999999692347604 -9.999999971387426e-7 0.9999999996075
vn -0.000029000000029788865 0 0.9999999995795
vn -0.000027999999692347604 -9.999999971387426e-7 0.9999999996075
vn -0.000027999999692347604 -9.999999971387426e-7 0.9999999996075
vn -0.000029000000029788865 0 0.9999999995795
vn -0.000029000000029788865 0 0.9999999995795
vn -0.000029000000029788865 0 0.9999999995795
vn -0.000026999999354732858 0.000003000000105167566 0.9999999996310001
vn -0.000029000000029788865 0 0.9999999995795
vn -0.000029000000029788865 0 0.9999999995795
vn 0 1 0
vn 0 1 0
vn 0 1 0
vn 0.38695255518190014 0.6266178294489656 0.6764745493031246
vn 0.12391854863860045 0.6673940879328304 0.7343223574804244
vn 0.3953616525133488 0.638304960770255 0.6604967379011023
vn 0.11992560001092831 0.6784002416297387 0.7248385769388458
vn 0.3953616525133488 0.638304960770255 0.6604967379011023
vn 0.12391854863860045 0.6673940879328304 0.7343223574804244
vn 0 1 0
vn 0 1 0
vn 0 1 0
vn 0 1 0
vn 0 1 0
vn 0 1 0
vn 0.6666608316012563 0.6353256644778823 0.38977510908786683
vn 0.38695255518190014 0.6266178294489656 0.6764745493031246
vn 0.6588274529434706 0.6432462086991408 0.3901034506925056
vn 0.3953616525133488 0.638304960770255 0.6604967379011023
vn 0.6588274529434706 0.6432462086991408 0.3901034506925056
vn 0.38695255518190014 0.6266178294489656 0.6764745493031246
vn 0 1 0
vn 0 1 0
vn 0 1 0
f 1/1/1 2/2/2 3/3/3
f 4/4/4 5/5/5 6/6/6
f 7/7/7 8/8/8 9/9/9
f 10/10/10 11/11/11 12/12/12
f 13/13/13 14/14/14 15/15/15
f 16/16/16 17/17/17 18/18/18
f 19/19/19 20/20/20 21/21/21
f 22/22/22 23/23/23 24/24/24
f 25/25/25 26/26/26 27/27/27
f 28/28/28 29/29/29 30/30/30
f 31/31/31 32/32/32 33/33/33
f 34/34/34 35/35/35 36/36/36
f 37/37/37 38/38/38 39/39/39
f 40/40/40 41/41/41 42/42/42
f 43/43/43 44/44/44 45/45/45
f 46/46/46 47/47/47 48/48/48
f 49/49/49 50/50/50 51/51/51
f 52/52/52 53/53/53 54/54/54
f 55/55/55 56/56/56 57/57/57
f 58/58/58 59/59/59 60/60/60
f 61/61/61 62/62/62 63/63/63
f 64/64/64 65/65/65 66/66/66
f 67/67/67 68/68/68 69/69/69
f 70/70/70 71/71/71 72/72/72
f 73/73/73 74/74/74 75/75/75
f 76/76/76 77/77/77 78/78/78
f 79/79/79 80/80/80 81/81/81
f 82/82/82 83/83/83 84/84/84
f 85/85/85 86/86/86 87/87/87
f 88/88/88 89/89/89 90/90/90
f 91/91/91 92/92/92 93/93/93
f 94/94/94 95/95/95 96/96/96
f 97/97/97 98/98/98 99/99/99
f 100/100/100 101/101/101 102/102/102
f 103/103/103 104/104/104 105/105/105
f 106/106/106 107/107/107 108/108/108
f 109/109/109 110/110/110 111/111/111
f 112/112/112 113/113/113 114/114/114
f 115/115/115 116/116/116 117/117/117
f 118/118/118 119/119/119 120/120/120
f 121/121/121 122/122/122 123/123/123
f 124/124/124 125/125/125 126/126/126
f 127/127/127 128/128/128 129/129/129
f 130/130/130 131/131/131 132/132/132
f 133/133/133 134/134/134 135/135/135
f 136/136/136 137/137/137 138/138/138
