mtllib jun_tile_ew_static.mtl
o tile_straight_static_new
usemtl PDX01_-_Default
v 0.5 -0.20000000298023224 -0.5
v -0.5 -0.20000000298023224 -0.5
v 0.5 0.19499998539686203 -0.5000079870223999
v -0.5 0.19499998539686203 -0.5000079870223999
v 0.5 0.19499998539686203 -0.5000079870223999
v -0.5 -0.20000000298023224 -0.5
v 0.5 0.19499998539686203 0.5
v -0.5 0.19499998539686203 0.5
v 0.5 -0.20000000298023224 0.5
v -0.5 -0.20000000298023224 0.5
v 0.5 -0.20000000298023224 0.5
v -0.5 0.19499998539686203 0.5
v -0.5 0 0.3339329957962036
v 0.5 0 0.3339329957962036
v -0.5 0 -0.3339329957962036
v 0.5 0 -0.3339329957962036
v -0.5 0 -0.3339329957962036
v 0.5 0 0.3339329957962036
v 0.5 0.14500000327825546 -0.44524699449539185
v 0.5 -0.20000000298023224 -0.5
v 0.5 0.19499998539686203 -0.5000079870223999
v 0.5 -0.20000000298023224 0.5
v 0.5 -0.20000000298023224 -0.5
v 0.5 0 0.3339329957962036
v 0.5 0 -0.3339329957962036
v 0.5 0 0.3339329957962036
v 0.5 -0.20000000298023224 -0.5
v 0.5 0.14500000327825546 0.44523900747299194
v 0.5 -0.20000000298023224 0.5
v 0.5 0 0.3339329957962036
v -0.5 0.14500000327825546 -0.44524699449539185
v -0.5 -0.20000000298023224 -0.5
v -0.5 0 -0.3339329957962036
v -0.5 0.14500000327825546 0.44523900747299194
v -0.5 -0.20000000298023224 0.5
v -0.5 0.19499998539686203 0.5
v -0.5 -0.20000000298023224 -0.5
v -0.5 -0.20000000298023224 0.5
v -0.5 0 -0.3339329957962036
v -0.5 0 0.3339329957962036
v -0.5 0 -0.3339329957962036
v -0.5 -0.20000000298023224 0.5
v -0.5 -0.20000000298023224 -0.5
v -0.5 0.14500000327825546 -0.44524699449539185
v -0.5 0.19499998539686203 -0.5000079870223999
v 0.5 0 -0.3339329957962036
v 0.5 0.14500000327825546 -0.44524699449539185
v -0.5 0 -0.3339329957962036
v -0.5 0.14500000327825546 -0.44524699449539185
v -0.5 0 -0.3339329957962036
v 0.5 0.14500000327825546 -0.44524699449539185
v 0.5 -0.20000000298023224 -0.5
v 0.5 0.14500000327825546 -0.44524699449539185
v 0.5 0 -0.3339329957962036
v 0.5 -0.20000000298023224 0.5
v 0.5 0.14500000327825546 0.44523900747299194
v 0.5 0.19499998539686203 0.5
v -0.5 0 0.3339329957962036
v -0.5 0.14500000327825546 0.44523900747299194
v 0.5 0 0.3339329957962036
v 0.5 0.14500000327825546 0.44523900747299194
v 0.5 0 0.3339329957962036
v -0.5 0.14500000327825546 0.44523900747299194
v -0.5 -0.20000000298023224 0.5
v -0.5 0.14500000327825546 0.44523900747299194
v -0.5 0 0.3339329957962036
v 0.5 0.19499998539686203 0.44523900747299194
v -0.5 0.19499998539686203 0.44523900747299194
v 0.5 0.19499998539686203 0.5
v -0.5 0.19499998539686203 0.44523900747299194
v -0.5 0.19499998539686203 0.5
v 0.5 0.19499998539686203 0.5
v -0.5 0.19499998539686203 -0.44524699449539185
v 0.5 0.19499998539686203 -0.44524699449539185
v 0.5 0.19499998539686203 -0.5000079870223999
v -0.5 0.19499998539686203 -0.5000079870223999
v -0.5 0.19499998539686203 -0.44524699449539185
v 0.5 0.19499998539686203 -0.5000079870223999
v -0.5 0.14500000327825546 -0.44524699449539185
v -0.5 0.19499998539686203 -0.44524699449539185
v -0.5 0.19499998539686203 -0.5000079870223999
v 0.5 0.14500000327825546 -0.44524699449539185
v 0.5 0.19499998539686203 -0.44524699449539185
v -0.5 0.14500000327825546 -0.44524699449539185
v -0.5 0.19499998539686203 -0.44524699449539185
v -0.5 0.14500000327825546 -0.44524699449539185
v 0.5 0.19499998539686203 -0.44524699449539185
v 0.5 0.19499998539686203 -0.44524699449539185
v 0.5 0.14500000327825546 -0.44524699449539185
v 0.5 0.19499998539686203 -0.5000079870223999
v 0.5 0.14500000327825546 0.44523900747299194
v 0.5 0.19499998539686203 0.44523900747299194
v 0.5 0.19499998539686203 0.5
v -0.5 0.14500000327825546 0.44523900747299194
v -0.5 0.19499998539686203 0.44523900747299194
v 0.5 0.14500000327825546 0.44523900747299194
v 0.5 0.19499998539686203 0.44523900747299194
v 0.5 0.14500000327825546 0.44523900747299194
v -0.5 0.19499998539686203 0.44523900747299194
v -0.5 0.19499998539686203 0.44523900747299194
v -0.5 0.14500000327825546 0.44523900747299194
v -0.5 0.19499998539686203 0.5
vt 0.14310100674629211 0.7085399627685547
vt 0.2638950049877167 0.7085399627685547
vt 0.14310100674629211 0.7538160085678101
vt 0.2638950049877167 0.7538160085678101
vt 0.14310100674629211 0.7538160085678101
vt 0.2638950049877167 0.7085399627685547
vt 0.14310100674629211 0.7538160085678101
vt 0.2638950049877167 0.7538160085678101
vt 0.14310100674629211 0.7085399627685547
vt 0.2638950049877167 0.7085399627685547
vt 0.14310100674629211 0.7085399627685547
vt 0.2638950049877167 0.7538160085678101
vt 0.8768360018730164 0.9874039888381958
vt 0.8768360018730164 0.8647010326385498
vt 0.9555569887161255 0.9874039888381958
vt 0.9555569887161255 0.8647010326385498
vt 0.9555569887161255 0.9874039888381958
vt 0.8768360018730164 0.8647010326385498
vt 0.25101301074028015 0.7474460005760193
vt 0.2566849887371063 0.7103599905967712
vt 0.2566860020160675 0.7474460005760193
vt 0.1530819982290268 0.7103599905967712
vt 0.2566849887371063 0.7103599905967712
vt 0.17028699815273285 0.7318589687347412
vt 0.23948000371456146 0.7318589687347412
vt 0.17028699815273285 0.7318589687347412
vt 0.2566849887371063 0.7103599905967712
vt 0.15875600278377533 0.7474460005760193
vt 0.1530819982290268 0.7103599905967712
vt 0.17028699815273285 0.7318589687347412
vt 0.25101301074028015 0.7474460005760193
vt 0.2566849887371063 0.7103599905967712
vt 0.23948000371456146 0.7318589687347412
vt 0.15875600278377533 0.7474460005760193
vt 0.1530819982290268 0.7103599905967712
vt 0.1530819982290268 0.7474460005760193
vt 0.2566849887371063 0.7103599905967712
vt 0.1530819982290268 0.7103599905967712
vt 0.23948000371456146 0.7318589687347412
vt 0.17028699815273285 0.7318589687347412
vt 0.23948000371456146 0.7318589687347412
vt 0.1530819982290268 0.7103599905967712
vt 0.2566849887371063 0.7103599905967712
vt 0.25101301074028015 0.7474460005760193
vt 0.2566860020160675 0.7474460005760193
vt 0.08648200333118439 0.774387001991272
vt 0.08648300170898438 0.8238530158996582
vt 0.25019198656082153 0.774387001991272
vt 0.25019198656082153 0.8238530158996582
vt 0.25019198656082153 0.774387001991272
vt 0.08648300170898438 0.8238530158996582
vt 0.2566849887371063 0.7103599905967712
vt 0.25101301074028015 0.7474460005760193
vt 0.23948000371456146 0.7318589687347412
vt 0.1530819982290268 0.7103599905967712
vt 0.15875600278377533 0.7474460005760193
vt 0.1530819982290268 0.7474460005760193
vt 0.08648200333118439 0.7744179964065552
vt 0.08648200333118439 0.823826014995575
vt 0.2523390054702759 0.7744179964065552
vt 0.2523390054702759 0.823826014995575
vt 0.2523390054702759 0.7744179964065552
vt 0.08648200333118439 0.823826014995575
vt 0.1530819982290268 0.7103599905967712
vt 0.15875600278377533 0.7474460005760193
vt 0.17028699815273285 0.7318589687347412
vt 0.36640501022338867 0.8674860000610352
vt 0.36632999777793884 0.9815359711647034
vt 0.35504600405693054 0.8674860000610352
vt 0.36632999777793884 0.9815359711647034
vt 0.35503101348876953 0.9815359711647034
vt 0.35504600405693054 0.8674860000610352
vt 0.36632999777793884 0.9815359711647034
vt 0.36640501022338867 0.8674860000610352
vt 0.35504600405693054 0.8674860000610352
vt 0.35503101348876953 0.9815359711647034
vt 0.36632999777793884 0.9815359711647034
vt 0.35504600405693054 0.8674860000610352
vt 0.25101301074028015 0.7474460005760193
vt 0.25101301074028015 0.7528209686279297
vt 0.2566860020160675 0.7474460005760193
vt 0.018530000001192093 0.8258520364761353
vt 0.018530000001192093 0.8461440205574036
vt 0.21352800726890564 0.8258520364761353
vt 0.21352800726890564 0.8461440205574036
vt 0.21352800726890564 0.8258520364761353
vt 0.018530000001192093 0.8461440205574036
vt 0.25101301074028015 0.7528209686279297
vt 0.25101301074028015 0.7474460005760193
vt 0.2566860020160675 0.7528209686279297
vt 0.15875600278377533 0.7474460005760193
vt 0.15875600278377533 0.7528209686279297
vt 0.1530819982290268 0.7474460005760193
vt 0.21352800726890564 0.8258509635925293
vt 0.21352800726890564 0.8461430072784424
vt 0.018530000001192093 0.8258509635925293
vt 0.018530000001192093 0.8461430072784424
vt 0.018530000001192093 0.8258509635925293
vt 0.21352800726890564 0.8461430072784424
vt 0.15875600278377533 0.7528209686279297
vt 0.15875600278377533 0.7474460005760193
vt 0.1530819982290268 0.7528209686279297
vn 0 -0.00001899999915279225 -0.9999999998195002
vn 0 -0.00001899999915279225 -0.9999999998195002
vn 0 -0.00001899999915279225 -0.9999999998195002
vn 0 -0.00001899999915279225 -0.9999999998195002
vn 0 -0.00001899999915279225 -0.9999999998195002
vn 0 -0.00001899999915279225 -0.9999999998195002
vn 0 0 1
vn 0 0 1
vn 0 0 1
vn 0 0 1
vn 0 0 1
vn 0 0 1
vn 0 1 0
vn 0 1 0
vn 0 1 0
vn 0 1 0
vn 0 1 0
vn 0 1 0
vn 1 0 0
vn 1 0 0
vn 1 0 0
vn 1 0 0
vn 1 0 0
vn 1 0 0
vn 1 0 0
vn 1 0 0
vn 1 0 0
vn 1 0 0
vn 1 0 0
vn 1 0 0
vn -1 0 0
vn -1 0 0
vn -1 0 0
vn -1 0 0
vn -1 0 0
vn -1 0 0
vn -1 0 0
vn -1 0 0
vn -1 0 0
vn -1 0 0
vn -1 0 0
vn -1 0 0
vn -1 0 0
vn -1 0 0
vn -0.9999999999995 0 -9.999999974747427e-7
vn 0 0.6089379123970577 0.7932178886318141
vn 0 0.6089379123970577 0.7932178886318141
vn 0 0.6089379123970577 0.7932178886318141
vn 0 0.6089379123970577 0.7932178886318141
vn 0 0.6089379123970577 0.7932178886318141
vn 0 0.6089379123970577 0.7932178886318141
vn 1 0 0
vn 1 0 0
vn 1 0 0
vn 1 0 0
vn 1 0 0
vn 0.9999999999995 0 -9.999999974747427e-7
vn 0 0.6089130029165595 -0.7932370105328787
vn 0 0.6089130029165595 -0.7932370105328787
vn 0 0.6089130029165595 -0.7932370105328787
vn 0 0.6089123600461545 -0.7932375040194597
vn 0 0.6089130029165595 -0.7932370105328787
vn 0 0.6089130029165595 -0.7932370105328787
vn -1 0 0
vn -1 0 0
vn -1 0 0
vn 0 0.7071067811865476 -0.7071067811865476
vn 0 0.7071067811865476 -0.7071067811865476
vn 0 1 0
vn 0 0.7071067811865476 -0.7071067811865476
vn 0 1 0
vn 0 1 0
vn 0 0.7071067811865476 0.7071067811865476
vn 0 0.7071067811865476 0.7071067811865476
vn 0 1 0
vn 0 1 0
vn 0 0.7071067811865476 0.7071067811865476
vn 0 1 0
vn -1 0 0
vn -0.9999999999995 0 -9.999999974747427e-7
vn -0.9999999999995 0 -9.999999974747427e-7
vn 0 0 1
vn 0 0.7071067811865476 0.7071067811865476
vn 0 0 1
vn 0 0.7071067811865476 0.7071067811865476
vn 0 0 1
vn 0 0.7071067811865476 0.7071067811865476
vn 1 0 0
vn 1 0 0
vn 1 0 0
vn 1 0 0
vn 0.9999999999995 0 -9.999999974747427e-7
vn 0.9999999999995 0 -9.999999974747427e-7
vn 0 0 -1
vn 0 0.7071067811865476 -0.7071067811865476
vn 0 0 -1
vn 0 0.7071067811865476 -0.7071067811865476
vn 0 0 -1
vn 0 0.7071067811865476 -0.7071067811865476
vn -1 0 0
vn -1 0 0
vn -1 0 0
f 1/1/1 2/2/2 3/3/3
f 4/4/4 5/5/5 6/6/6
f 7/7/7 8/8/8 9/9/9
f 10/10/10 11/11/11 12/12/12
f 13/13/13 14/14/14 15/15/15
f 16/16/16 17/17/17 18/18/18
f 19/19/19 20/20/20 21/21/21
f 22/22/22 23/23/23 24/24/24
f 25/25/25 26/26/26 27/27/27
f 28/28/28 29/29/29 30/30/30
f 31/31/31 32/32/32 33/33/33
f 34/34/34 35/35/35 36/36/36
f 37/37/37 38/38/38 39/39/39
f 40/40/40 41/41/41 42/42/42
f 43/43/43 44/44/44 45/45/45
f 46/46/46 47/47/47 48/48/48
f 49/49/49 50/50/50 51/51/51
f 52/52/52 53/53/53 54/54/54
f 55/55/55 56/56/56 57/57/57
f 58/58/58 59/59/59 60/60/60
f 61/61/61 62/62/62 63/63/63
f 64/64/64 65/65/65 66/66/66
f 67/67/67 68/68/68 69/69/69
f 70/70/70 71/71/71 72/72/72
f 73/73/73 74/74/74 75/75/75
f 76/76/76 77/77/77 78/78/78
f 79/79/79 80/80/80 81/81/81
f 82/82/82 83/83/83 84/84/84
f 85/85/85 86/86/86 87/87/87
f 88/88/88 89/89/89 90/90/90
f 91/91/91 92/92/92 93/93/93
f 94/94/94 95/95/95 96/96/96
f 97/97/97 98/98/98 99/99/99
f 100/100/100 101/101/101 102/102/102
