mtllib med_console_e.mtl
o tile_console
usemtl PDX08_-_Default
v 0.5000004999999987 -0.20000000298023224 0.49999950000000126
v 0.49999950000000126 -0.20000000298023246 -0.5000004999999987
v 0.5000084870223986 0.14500000327825546 0.4999994999920142
v 0.5000074870224012 0.14500000327825524 -0.5000005000079857
v 0.5000084870223986 0.14500000327825546 0.4999994999920142
v 0.49999950000000126 -0.20000000298023246 -0.5000004999999987
v -0.49999950000000126 0.14500000327825546 0.5000004999999987
v -0.5000004999999987 0.14500000327825524 -0.49999950000000126
v -0.49999950000000126 -0.20000000298023224 0.5000004999999987
v -0.5000004999999987 -0.20000000298023246 -0.49999950000000126
v -0.49999950000000126 -0.20000000298023224 0.5000004999999987
v -0.5000004999999987 0.14500000327825524 -0.49999950000000126
v -0.49999950000000126 -0.20000000298023224 0.5000004999999987
v 0.5000004999999987 -0.20000000298023224 0.49999950000000126
v -0.49999950000000126 0.14500000327825546 0.5000004999999987
v 0.5000084870223986 0.14500000327825546 0.4999994999920142
v -0.49999950000000126 0.14500000327825546 0.5000004999999987
v 0.5000004999999987 -0.20000000298023224 0.49999950000000126
v 0.49999950000000126 -0.20000000298023246 -0.5000004999999987
v -0.5000004999999987 -0.20000000298023246 -0.49999950000000126
v 0.5000074870224012 0.14500000327825524 -0.5000005000079857
v -0.5000004999999987 0.14500000327825524 -0.49999950000000126
v 0.5000074870224012 0.14500000327825524 -0.5000005000079857
v -0.5000004999999987 -0.20000000298023246 -0.49999950000000126
v 0.18592277210271416 0.702958010137081 -0.2231071662467865
v 0.18590722937571946 0.702958010137081 0.22311180120694668
v 0.3780607734254604 0.6599779948592185 -0.22310735838478735
v 0.18590722937571946 0.702958010137081 0.22311180120694668
v 0.3780742134580011 0.6599779948592185 0.22311262231892426
v 0.3780607734254604 0.6599779948592185 -0.22310735838478735
v 0.18592277210170086 0.5418880209326743 -0.22310817952574757
v 0.18592277210271416 0.702958010137081 -0.2231071662467865
v 0.3780607734254604 0.5418880209326743 -0.22310735838478724
v 0.3780607734254604 0.6599779948592185 -0.22310735838478735
v 0.3780607734254604 0.5418880209326743 -0.22310735838478724
v 0.18592277210271416 0.702958010137081 -0.2231071662467865
v 0.18592277210271416 0.702958010137081 -0.2231071662467865
v 0.18592277210170086 0.5418880209326743 -0.22310817952574757
v 0.18590722937571946 0.702958010137081 0.22311180120694668
v 0.3780742134580011 0.5418880209326743 0.22311262231892426
v 0.3780742134580011 0.6599779948592185 0.22311262231892426
v 0.18590722937473597 0.5418880209326743 0.2231108177303079
v 0.18590722937571946 0.702958010137081 0.22311180120694668
v 0.18590722937473597 0.5418880209326743 0.2231108177303079
v 0.3780742134580011 0.6599779948592185 0.22311262231892426
v 0.3780607734254604 0.5418880209326743 -0.22310735838478724
v 0.3780607734254604 0.6599779948592185 -0.22310735838478735
v 0.3780742134580011 0.5418880209326743 0.22311262231892426
v 0.3780742134580011 0.6599779948592185 0.22311262231892426
v 0.3780742134580011 0.5418880209326743 0.22311262231892426
v 0.3780607734254604 0.6599779948592185 -0.22310735838478735
v 0.18592277210170086 0.5418880209326743 -0.22310817952574757
v 0.18590722937473597 0.5418880209326743 0.2231108177303079
v 0.18590722937571946 0.702958010137081 0.22311180120694668
v 0.3780607734254604 0.5418880209326743 -0.22310735838478724
v 0.3780606856984504 0.14368899911642058 -0.3108343686348787
v 0.18592277210170086 0.5418880209326743 -0.22310817952574757
v 0.18592268437469084 0.14368899911642058 -0.310835189775839
v 0.18592277210170086 0.5418880209326743 -0.22310817952574757
v 0.3780606856984504 0.14368899911642058 -0.3108343686348787
v 0.18590722937473597 0.5418880209326743 0.2231108177303079
v 0.1859073171017311 0.1436880007386207 0.31083781307923836
v 0.3780742134580011 0.5418880209326743 0.22311262231892426
v 0.3780743011849962 0.1436880007386207 0.31083961766785473
v 0.3780742134580011 0.5418880209326743 0.22311262231892426
v 0.1859073171017311 0.1436880007386207 0.31083781307923836
v 0.3780742134580011 0.5418880209326743 0.22311262231892426
v 0.3780743011849962 0.1436880007386207 0.31083961766785473
v 0.3780607734254604 0.5418880209326743 -0.22310735838478724
v 0.3780606856984504 0.14368899911642058 -0.3108343686348787
v 0.3780607734254604 0.5418880209326743 -0.22310735838478724
v 0.3780743011849962 0.1436880007386207 0.31083961766785473
v 0.18592277210170086 0.5418880209326743 -0.22310817952574757
v 0.18592268437469084 0.14368899911642058 -0.310835189775839
v 0.18590722937473597 0.5418880209326743 0.2231108177303079
v 0.1859073171017311 0.1436880007386207 0.31083781307923836
v 0.18590722937473597 0.5418880209326743 0.2231108177303079
v 0.18592268437469084 0.14368899911642058 -0.310835189775839
v 0.3780606856984504 0.14368899911642058 -0.3108343686348787
v 0.3780743011849962 0.1436880007386207 0.31083961766785473
v 0.5000074870224012 0.14500000327825524 -0.5000005000079857
v 0.3780743011849962 0.1436880007386207 0.31083961766785473
v 0.5000084870223986 0.14500000327825546 0.4999994999920142
v 0.5000074870224012 0.14500000327825524 -0.5000005000079857
v 0.1859073171017311 0.1436880007386207 0.31083781307923836
v -0.49999950000000126 0.14500000327825546 0.5000004999999987
v 0.3780743011849962 0.1436880007386207 0.31083961766785473
v -0.49999950000000126 0.14500000327825546 0.5000004999999987
v 0.5000084870223986 0.14500000327825546 0.4999994999920142
v 0.3780743011849962 0.1436880007386207 0.31083961766785473
v 0.18592268437469084 0.14368899911642058 -0.310835189775839
v 0.3780606856984504 0.14368899911642058 -0.3108343686348787
v -0.5000004999999987 0.14500000327825524 -0.49999950000000126
v 0.3780606856984504 0.14368899911642058 -0.3108343686348787
v 0.5000074870224012 0.14500000327825524 -0.5000005000079857
v -0.5000004999999987 0.14500000327825524 -0.49999950000000126
v 0.1859073171017311 0.1436880007386207 0.31083781307923836
v 0.18592268437469084 0.14368899911642058 -0.310835189775839
v -0.49999950000000126 0.14500000327825546 0.5000004999999987
v 0.18592268437469084 0.14368899911642058 -0.310835189775839
v -0.5000004999999987 0.14500000327825524 -0.49999950000000126
v -0.49999950000000126 0.14500000327825546 0.5000004999999987
vt 0.3610610067844391 0.77435702085495
vt 0.20366500318050385 0.77435702085495
vt 0.3610610067844391 0.8081539869308472
vt 0.20366500318050385 0.8081539869308472
vt 0.3610610067844391 0.8081539869308472
vt 0.20366500318050385 0.77435702085495
vt 0.3610610067844391 0.8081539869308472
vt 0.20366500318050385 0.8081539869308472
vt 0.3610610067844391 0.77435702085495
vt 0.20366500318050385 0.77435702085495
vt 0.3610610067844391 0.77435702085495
vt 0.20366500318050385 0.8081539869308472
vt 0.2034579962491989 0.7743769884109497
vt 0.36325201392173767 0.7743769884109497
vt 0.20343300700187683 0.8077499866485596
vt 0.36327698826789856 0.8077499866485596
vt 0.20343300700187683 0.8077499866485596
vt 0.36325201392173767 0.7743769884109497
vt 0.36325201392173767 0.7743769884109497
vt 0.2034579962491989 0.7743769884109497
vt 0.36327698826789856 0.8077499866485596
vt 0.20343300700187683 0.8077499866485596
vt 0.36327698826789856 0.8077499866485596
vt 0.2034579962491989 0.7743769884109497
vt 0.9907050132751465 0.35225701332092285
vt 0.9907079935073853 0.494903028011322
vt 0.9416149854660034 0.35225600004196167
vt 0.9907079935073853 0.494903028011322
vt 0.9416069984436035 0.49490201473236084
vt 0.9416149854660034 0.35225600004196167
vt 0.4504930078983307 0.6546410322189331
vt 0.4823490083217621 0.6546410322189331
vt 0.4504930078983307 0.7009010314941406
vt 0.47467100620269775 0.7009010314941406
vt 0.4504930078983307 0.7009010314941406
vt 0.4849590063095093 0.6574339866638184
vt 0.9128810167312622 0.6192629933357239
vt 0.9128810167312622 0.592985987663269
vt 0.9764699935913086 0.6192629933357239
vt 0.4504930078983307 0.7009029984474182
vt 0.47467100620269775 0.7009029984474182
vt 0.4504930078983307 0.6546390056610107
vt 0.4823490083217621 0.6546390056610107
vt 0.4504930078983307 0.6546390056610107
vt 0.47467100620269775 0.7009029984474182
vt 0.9128819704055786 0.592985987663269
vt 0.9128819704055786 0.6111960411071777
vt 0.9764699935913086 0.592985987663269
vt 0.9764699935913086 0.6111960411071777
vt 0.9764699935913086 0.592985987663269
vt 0.9128819704055786 0.6111960411071777
vt 0.9128810167312622 0.592985987663269
vt 0.9764699935913086 0.592985987663269
vt 0.9764699935913086 0.6192629933357239
vt 0.5910210013389587 0.7031919956207275
vt 0.47955599427223206 0.7031919956207275
vt 0.5910210013389587 0.6505759954452515
vt 0.47955599427223206 0.6505759954452515
vt 0.5910210013389587 0.6505759954452515
vt 0.47955599427223206 0.7031919956207275
vt 0.5910210013389587 0.6505750417709351
vt 0.47955599427223206 0.6505750417709351
vt 0.5910210013389587 0.7031930088996887
vt 0.47955599427223206 0.7031930088996887
vt 0.5910210013389587 0.7031930088996887
vt 0.47955599427223206 0.6505750417709351
vt 0.9764699935913086 0.592985987663269
vt 0.988972008228302 0.5182459950447083
vt 0.9128819704055786 0.592985987663269
vt 0.90038001537323 0.5182459950447083
vt 0.9128819704055786 0.592985987663269
vt 0.988972008228302 0.5182459950447083
vt 0.9128810167312622 0.592985987663269
vt 0.90038001537323 0.5182459950447083
vt 0.9764699935913086 0.592985987663269
vt 0.988972008228302 0.5182459950447083
vt 0.9764699935913086 0.592985987663269
vt 0.90038001537323 0.5182459950447083
vt 0.8648660182952881 0.6128810048103333
vt 0.8648669719696045 0.5377739667892456
vt 0.8795980215072632 0.635733962059021
vt 0.8648669719696045 0.5377739667892456
vt 0.8795980215072632 0.5149210095405579
vt 0.8795980215072632 0.635733962059021
vt 0.8416510224342346 0.5377739667892456
vt 0.7587850093841553 0.5149210095405579
vt 0.8648669719696045 0.5377739667892456
vt 0.7587850093841553 0.5149210095405579
vt 0.8795980215072632 0.5149210095405579
vt 0.8648669719696045 0.5377739667892456
vt 0.8416529893875122 0.6128810048103333
vt 0.8648660182952881 0.6128810048103333
vt 0.7587850093841553 0.635733962059021
vt 0.8648660182952881 0.6128810048103333
vt 0.8795980215072632 0.635733962059021
vt 0.7587850093841553 0.635733962059021
vt 0.8416510224342346 0.5377739667892456
vt 0.8416529893875122 0.6128810048103333
vt 0.7587850093841553 0.5149210095405579
vt 0.8416529893875122 0.6128810048103333
vt 0.7587850093841553 0.635733962059021
vt 0.7587850093841553 0.5149210095405579
vn 0.9999999997575 -0.000022000000166516018 -9.99999997232738e-7
vn 0.9999999997575 -0.000022000000166516018 -9.99999997232738e-7
vn 0.9999999997575 -0.000022000000166516018 -9.99999997232738e-7
vn 0.9999999997575 -0.000022000000166516018 -9.99999997232738e-7
vn 0.9999999997575 -0.000022000000166516018 -9.99999997232738e-7
vn 0.9999999997575 -0.000022000000166516018 -9.99999997232738e-7
vn -0.9999999999995002 1.16165485957577e-22 9.99999997474743e-7
vn -0.9999999999995002 1.16165485957577e-22 9.99999997474743e-7
vn -0.9999999999995002 1.16165485957577e-22 9.99999997474743e-7
vn -0.9999999999995002 1.16165485957577e-22 9.99999997474743e-7
vn -0.9999999999995002 1.16165485957577e-22 9.99999997474743e-7
vn -0.9999999999995002 1.16165485957577e-22 9.99999997474743e-7
vn 9.99999997474743e-7 2.2204460492502618e-16 0.9999999999995002
vn 9.99999997474743e-7 2.2204460492502618e-16 0.9999999999995002
vn 9.99999997474743e-7 2.2204460492502618e-16 0.9999999999995002
vn 9.99999997474743e-7 2.2204460492502618e-16 0.9999999999995002
vn 9.99999997474743e-7 2.2204460492502618e-16 0.9999999999995002
vn 9.99999997474743e-7 2.2204460492502618e-16 0.9999999999995002
vn -9.99999997474743e-7 -2.2204460492502618e-16 -0.9999999999995002
vn -9.99999997474743e-7 -2.2204460492502618e-16 -0.9999999999995002
vn -9.99999997474743e-7 -2.2204460492502618e-16 -0.9999999999995002
vn -9.99999997474743e-7 -2.2204460492502618e-16 -0.9999999999995002
vn -9.99999997474743e-7 -2.2204460492502618e-16 -0.9999999999995002
vn -9.99999997474743e-7 -2.2204460492502618e-16 -0.9999999999995002
vn 0.21829898837977396 0.9758819352830609 0.000007781700512292606
vn 0.21829898837977396 0.9758819352830609 0.000007781700512292606
vn 0.21829898837977396 0.9758819352830609 0.000007781700512292606
vn 0.21826892856401228 0.9758886590161236 -0.000005218266929262173
vn 0.21826892856401228 0.9758886590161236 -0.000005218266929262173
vn 0.21826892856401228 0.9758886590161236 -0.000005218266929262173
vn 0.000002999999992400228 -2.2204460492371445e-16 -0.9999999999955
vn 0.000002999999992400228 -2.2204460492371445e-16 -0.9999999999955
vn 0.000002999999992400228 -2.2204460492371445e-16 -0.9999999999955
vn 0.0000039999998761541335 0.000001999999994700441 -0.99999999999
vn 0.000002999999992400228 -2.2204460492371445e-16 -0.9999999999955
vn 0.0000039999998761541335 0.000001999999994700441 -0.99999999999
vn -0.9999999994220001 -7.655395889300045e-21 -0.000034000000916497794
vn -0.9999999994220001 -7.655395889300045e-21 -0.000034000000916497794
vn -0.9999999994220001 -7.655395889300045e-21 -0.000034000000916497794
vn -0.000006999999982095698 -9.99999997221198e-7 0.999999999975
vn -0.000006999999982095698 -9.99999997221198e-7 0.999999999975
vn -0.000006999999982095698 -9.99999997221198e-7 0.999999999975
vn -0.000006999999982095698 -9.99999997221198e-7 0.999999999975
vn -0.000006999999982095698 -9.99999997221198e-7 0.999999999975
vn -0.000006999999982095698 -9.99999997221198e-7 0.999999999975
vn 0.9999999995190001 9.999999970252361e-7 -0.0000309999992256305
vn 0.9999999995190001 9.999999970252361e-7 -0.0000309999992256305
vn 0.9999999995190001 9.999999970252361e-7 -0.0000309999992256305
vn 0.9999999995190001 9.999999970252361e-7 -0.0000309999992256305
vn 0.9999999995190001 9.999999970252361e-7 -0.0000309999992256305
vn 0.9999999995190001 9.999999970252361e-7 -0.0000309999992256305
vn -0.9999999994220001 -7.655395889300045e-21 -0.000034000000916497794
vn -0.9999999994220001 -7.655395889300045e-21 -0.000034000000916497794
vn -0.9999999994220001 -7.655395889300045e-21 -0.000034000000916497794
vn 0.0000020234192915575698 0.21515000984702465 -0.9765810121330084
vn 0.0000020234192915575698 0.21515000984702465 -0.9765810121330084
vn 0.0000020234192915575698 0.21515000984702465 -0.9765810121330084
vn 0.000004023418886010266 0.21515000984530344 -0.9765810121271956
vn 0.0000020234192915575698 0.21515000984702465 -0.9765810121330084
vn 0.0000020234192915575698 0.21515000984702465 -0.9765810121330084
vn -0.0000060234208039095406 0.21514905021907932 0.9765812235311236
vn -0.0000060234208039095406 0.21514905021907932 0.9765812235311236
vn -0.0000060234208039095406 0.21514905021907932 0.9765812235311236
vn -0.00000902341878133872 0.21515000983723578 0.9765810120955739
vn -0.0000060234208039095406 0.21514905021907932 0.9765812235311236
vn -0.0000060234208039095406 0.21514905021907932 0.9765812235311236
vn 0.9999999995190001 9.999999970252361e-7 -0.0000309999992256305
vn 0.999999999495 -0.0000070000000926955435 -0.0000309999992248865
vn 0.9999999995190001 9.999999970252361e-7 -0.0000309999992256305
vn 0.9999999997455001 0.000004999999872526871 -0.000021999999825631505
vn 0.9999999995190001 9.999999970252361e-7 -0.0000309999992256305
vn 0.9999999997455001 0.000004999999872526871 -0.000021999999825631505
vn -0.9999999994220001 -7.655395889300045e-21 -0.000034000000916497794
vn -0.9999999993900002 0.000007999999974649935 -0.0000340000009154098
vn -0.9999999994220001 -7.655395889300045e-21 -0.000034000000916497794
vn -0.9999999996940001 -0.000006000000210245138 -0.00002399999936302764
vn -0.9999999996940001 -0.000006000000210245138 -0.00002399999936302764
vn -0.9999999996940001 -0.000006000000210245138 -0.00002399999936302764
vn -0.010749002753135764 0.9999422278005822 0.000001010749212053366
vn -0.010749002753135764 0.9999422278005822 0.000001010749212053366
vn -0.010749002753135764 0.9999422278005822 0.000001010749212053366
vn -0.010749002753135764 0.9999422278005822 0.000001010749212053366
vn -0.010756001764948094 0.9999421525398517 1.0756001515760042e-8
vn -0.010749002753135764 0.9999422278005822 0.000001010749212053366
vn -6.932999832052048e-9 0.9999759664677377 -0.0069329998495562956
vn -6.932999832052048e-9 0.9999759664677377 -0.0069329998495562956
vn -6.932999832052048e-9 0.9999759664677377 -0.0069329998495562956
vn -6.932999832052048e-9 0.9999759664677377 -0.0069329998495562956
vn -6.932999832052048e-9 0.9999759664677377 -0.0069329998495562956
vn -6.932999832052048e-9 0.9999759664677377 -0.0069329998495562956
vn -9.930659776534595e-7 0.9999759595322374 0.006934000042896208
vn -9.930659776534595e-7 0.9999759595322374 0.006934000042896208
vn -9.930659776534595e-7 0.9999759595322374 0.006934000042896208
vn -9.930659776534595e-7 0.9999759595322374 0.006934000042896208
vn 6.930000186180938e-9 0.9999759872602827 0.006930000203677399
vn -9.930659776534595e-7 0.9999759595322374 0.006934000042896208
vn 0.0019120003976808761 0.999998172125071 9.980881844983545e-7
vn 0.0019120003976808761 0.999998172125071 9.980881844983545e-7
vn 0.0019120003976808761 0.999998172125071 9.980881844983545e-7
vn 0.0019120003976808761 0.999998172125071 9.980881844983545e-7
vn 0.001912000396681832 0.9999981721255711 -1.912000613898694e-9
vn 0.0019120003976808761 0.999998172125071 9.980881844983545e-7
f 1/1/1 2/2/2 3/3/3
f 4/4/4 5/5/5 6/6/6
f 7/7/7 8/8/8 9/9/9
f 10/10/10 11/11/11 12/12/12
f 13/13/13 14/14/14 15/15/15
f 16/16/16 17/17/17 18/18/18
f 19/19/19 20/20/20 21/21/21
f 22/22/22 23/23/23 24/24/24
f 25/25/25 26/26/26 27/27/27
f 28/28/28 29/29/29 30/30/30
f 31/31/31 32/32/32 33/33/33
f 34/34/34 35/35/35 36/36/36
f 37/37/37 38/38/38 39/39/39
f 40/40/40 41/41/41 42/42/42
f 43/43/43 44/44/44 45/45/45
f 46/46/46 47/47/47 48/48/48
f 49/49/49 50/50/50 51/51/51
f 52/52/52 53/53/53 54/54/54
f 55/55/55 56/56/56 57/57/57
f 58/58/58 59/59/59 60/60/60
f 61/61/61 62/62/62 63/63/63
f 64/64/64 65/65/65 66/66/66
f 67/67/67 68/68/68 69/69/69
f 70/70/70 71/71/71 72/72/72
f 73/73/73 74/74/74 75/75/75
f 76/76/76 77/77/77 78/78/78
f 79/79/79 80/80/80 81/81/81
f 82/82/82 83/83/83 84/84/84
f 85/85/85 86/86/86 87/87/87
f 88/88/88 89/89/89 90/90/90
f 91/91/91 92/92/92 93/93/93
f 94/94/94 95/95/95 96/96/96
f 97/97/97 98/98/98 99/99/99
f 100/100/100 101/101/101 102/102/102
