mtllib med_tile_sw_corner.mtl
o tile_corner
usemtl PDX08_-_Default
v -0.49999950000000126 -0.20000000298023213 0.5000004999999987
v 0.5000004999999987 -0.20000000298023213 0.49999950000000126
v -0.333925492245437 1.1102230246251565e-16 0.5000053407161524
v 0.3339404993369567 1.1102230246251565e-16 0.4999946592698403
v -0.333925492245437 1.1102230246251565e-16 0.5000053407161524
v 0.5000004999999987 -0.20000000298023213 0.49999950000000126
v -0.333925492245437 1.1102230246251565e-16 0.5000053407161524
v -0.38581750460815556 0.14500000327825557 0.5000003858180035
v -0.49999950000000126 -0.20000000298023213 0.5000004999999987
v -0.49999950000000126 0.14500000327825557 0.5000004999999987
v -0.49999950000000126 -0.20000000298023213 0.5000004999999987
v -0.38581750460815556 0.14500000327825557 0.5000003858180035
v 0.5000004999999987 -0.20000000298023213 0.49999950000000126
v 0.5000004999999987 0.14500000327825557 0.49999950000000126
v 0.3339404993369567 1.1102230246251565e-16 0.4999946592698403
v 0.38581850460815303 0.14500000327825557 0.49999961418199634
v 0.3339404993369567 1.1102230246251565e-16 0.4999946592698403
v 0.5000004999999987 0.14500000327825557 0.49999950000000126
v -0.5000004999999987 -0.20000000298023224 -0.49999950000000126
v -0.49999950000000126 -0.20000000298023213 0.5000004999999987
v -0.5000053407161674 1.3877787807814457e-17 -0.3339255071465982
v -0.49999465926981057 9.71445146547012e-17 0.3339405291392791
v -0.5000053407161674 1.3877787807814457e-17 -0.3339255071465982
v -0.49999950000000126 -0.20000000298023213 0.5000004999999987
v -0.3360496676900395 9.71445146547012e-17 0.33607731091877735
v -0.49999465926981057 9.71445146547012e-17 0.3339405291392791
v -0.38581761880815124 0.14500000327825557 0.3858003898234358
v -0.49999961418199634 0.14500000327825557 0.38581850460815303
v -0.38581761880815124 0.14500000327825557 0.3858003898234358
v -0.49999465926981057 9.71445146547012e-17 0.3339405291392791
v -0.38581750460815556 0.14500000327825557 0.5000003858180035
v -0.333925492245437 1.1102230246251565e-16 0.5000053407161524
v -0.38581761880815124 0.14500000327825557 0.3858003898234358
v -0.3360496676900395 9.71445146547012e-17 0.33607731091877735
v -0.38581761880815124 0.14500000327825557 0.3858003898234358
v -0.333925492245437 1.1102230246251565e-16 0.5000053407161524
v -0.38581750460815556 0.14500000327825557 0.5000003858180035
v -0.38581761880815124 0.14500000327825557 0.3858003898234358
v -0.49999950000000126 0.14500000327825557 0.5000004999999987
v -0.49999961418199634 0.14500000327825557 0.38581850460815303
v -0.49999950000000126 0.14500000327825557 0.5000004999999987
v -0.38581761880815124 0.14500000327825557 0.3858003898234358
v -0.3360496676900395 9.71445146547012e-17 0.33607731091877735
v -0.00314532969702697 1.3877787807814457e-17 -0.3297309993049894
v -0.49999465926981057 9.71445146547012e-17 0.3339405291392791
v -0.5000053407161674 1.3877787807814457e-17 -0.3339255071465982
v -0.49999465926981057 9.71445146547012e-17 0.3339405291392791
v -0.00314532969702697 1.3877787807814457e-17 -0.3297309993049894
v -0.5000003858179962 0.14500000327825546 -0.385817497157575
v -0.5000053407161674 1.3877787807814457e-17 -0.3339255071465982
v 0.000011614182428266787 0.14500000327825546 -0.38581799716957377
v -0.00314532969702697 1.3877787807814457e-17 -0.3297309993049894
v 0.000011614182428266787 0.14500000327825546 -0.38581799716957377
v -0.5000053407161674 1.3877787807814457e-17 -0.3339255071465982
v 0.3297370107669234 5.551115123125783e-17 0.003148643251121852
v 0.3339404993369567 1.1102230246251565e-16 0.4999946592698403
v 0.38581699131420255 0.14500000327825552 -0.000015376385151422145
v 0.38581850460815303 0.14500000327825557 0.49999961418199634
v 0.38581699131420255 0.14500000327825552 -0.000015376385151422145
v 0.3339404993369567 1.1102230246251565e-16 0.4999946592698403
v -0.333925492245437 1.1102230246251565e-16 0.5000053407161524
v 0.3339404993369567 1.1102230246251565e-16 0.4999946592698403
v -0.3360496676900395 9.71445146547012e-17 0.33607731091877735
v 0.3297370107669234 5.551115123125783e-17 0.003148643251121852
v -0.3360496676900395 9.71445146547012e-17 0.33607731091877735
v 0.3339404993369567 1.1102230246251565e-16 0.4999946592698403
v -0.00314532969702697 1.3877787807814457e-17 -0.3297309993049894
v -0.3360496676900395 9.71445146547012e-17 0.33607731091877735
v 0.16333271311159503 2.7755575615628914e-17 -0.2856411630077954
v 0.000011614182428266787 0.14500000327825546 -0.38581799716957377
v -0.00314532969702697 1.3877787807814457e-17 -0.3297309993049894
v 0.19728365896275726 0.1450000032782555 -0.3391691929028179
v 0.16333271311159503 2.7755575615628914e-17 -0.2856411630077954
v 0.19728365896275726 0.1450000032782555 -0.3391691929028179
v -0.00314532969702697 1.3877787807814457e-17 -0.3297309993049894
v -0.5000004999999987 0.14500000327825546 -0.4999995000000013
v 0.000011614182428266787 0.14500000327825546 -0.38581799716957377
v 0.49999950000000126 0.14500000327825546 -0.5000004999999987
v -0.5000003858179962 0.14500000327825546 -0.385817497157575
v 0.000011614182428266787 0.14500000327825546 -0.38581799716957377
v -0.5000004999999987 0.14500000327825546 -0.4999995000000013
v 0.38581699131420255 0.14500000327825552 -0.000015376385151422145
v 0.5000004999999987 0.14500000327825557 0.49999950000000126
v 0.49999950000000126 0.14500000327825546 -0.5000004999999987
v 0.38581850460815303 0.14500000327825557 0.49999961418199634
v 0.5000004999999987 0.14500000327825557 0.49999950000000126
v 0.38581699131420255 0.14500000327825552 -0.000015376385151422145
v 0.000011614182428266787 0.14500000327825546 -0.38581799716957377
v 0.19728365896275726 0.1450000032782555 -0.3391691929028179
v 0.49999950000000126 0.14500000327825546 -0.5000004999999987
v 0.49999950000000126 -0.20000000298023224 -0.5000004999999987
v -0.5000004999999987 -0.20000000298023224 -0.49999950000000126
v 0.49999950000000126 0.14500000327825546 -0.5000004999999987
v -0.5000004999999987 0.14500000327825546 -0.4999995000000013
v 0.49999950000000126 0.14500000327825546 -0.5000004999999987
v -0.5000004999999987 -0.20000000298023224 -0.49999950000000126
v 0.5000004999999987 -0.20000000298023213 0.49999950000000126
v 0.49999950000000126 -0.20000000298023224 -0.5000004999999987
v 0.5000004999999987 0.14500000327825557 0.49999950000000126
v 0.49999950000000126 0.14500000327825546 -0.5000004999999987
v 0.5000004999999987 0.14500000327825557 0.49999950000000126
v 0.49999950000000126 -0.20000000298023224 -0.5000004999999987
v -0.49999961418199634 0.14500000327825557 0.38581850460815303
v -0.49999465926981057 9.71445146547012e-17 0.3339405291392791
v -0.49999950000000126 0.14500000327825557 0.5000004999999987
v -0.49999950000000126 -0.20000000298023213 0.5000004999999987
v -0.49999950000000126 0.14500000327825557 0.5000004999999987
v -0.49999465926981057 9.71445146547012e-17 0.3339405291392791
v -0.5000004999999987 -0.20000000298023224 -0.49999950000000126
v -0.5000053407161674 1.3877787807814457e-17 -0.3339255071465982
v -0.5000004999999987 0.14500000327825546 -0.4999995000000013
v -0.5000003858179962 0.14500000327825546 -0.385817497157575
v -0.5000004999999987 0.14500000327825546 -0.4999995000000013
v -0.5000053407161674 1.3877787807814457e-17 -0.3339255071465982
v 0.28610284746661824 4.163336342344337e-17 -0.16271128058504986
v -0.3360496676900395 9.71445146547012e-17 0.33607731091877735
v 0.3297370107669234 5.551115123125783e-17 0.003148643251121852
v 0.28610284746661824 4.163336342344337e-17 -0.16271128058504986
v 0.3297370107669234 5.551115123125783e-17 0.003148643251121852
v 0.3396498085291689 0.1450000032782555 -0.19657332887539186
v 0.38581699131420255 0.14500000327825552 -0.000015376385151422145
v 0.3396498085291689 0.1450000032782555 -0.19657332887539186
v 0.3297370107669234 5.551115123125783e-17 0.003148643251121852
v 0.49999950000000126 0.14500000327825546 -0.5000004999999987
v 0.3396498085291689 0.1450000032782555 -0.19657332887539186
v 0.38581699131420255 0.14500000327825552 -0.000015376385151422145
v 0.49999950000000126 0.14500000327825546 -0.5000004999999987
v 0.19728365896275726 0.1450000032782555 -0.3391691929028179
v 0.3396498085291689 0.1450000032782555 -0.19657332887539186
v 0.16333271311159503 2.7755575615628914e-17 -0.2856411630077954
v 0.28610284746661824 4.163336342344337e-17 -0.16271128058504986
v 0.19728365896275726 0.1450000032782555 -0.3391691929028179
v 0.3396498085291689 0.1450000032782555 -0.19657332887539186
v 0.19728365896275726 0.1450000032782555 -0.3391691929028179
v 0.28610284746661824 4.163336342344337e-17 -0.16271128058504986
v 0.28610284746661824 4.163336342344337e-17 -0.16271128058504986
v 0.16333271311159503 2.7755575615628914e-17 -0.2856411630077954
v -0.3360496676900395 9.71445146547012e-17 0.33607731091877735
vt 0.3522289991378784 0.7741349935531616
vt 0.2094780057668686 0.7741349935531616
vt 0.33113300800323486 0.7969239950180054
vt 0.23057399690151215 0.7969239950180054
vt 0.33113300800323486 0.7969239950180054
vt 0.2094780057668686 0.7741349935531616
vt 0.33113300800323486 0.7969239950180054
vt 0.3359290063381195 0.8083189725875854
vt 0.3522289991378784 0.7741349935531616
vt 0.3522289991378784 0.8083189725875854
vt 0.3522289991378784 0.7741349935531616
vt 0.3359290063381195 0.8083189725875854
vt 0.2094780057668686 0.7741349935531616
vt 0.2094780057668686 0.8083189725875854
vt 0.23057399690151215 0.7969239950180054
vt 0.22577700018882751 0.8083189725875854
vt 0.23057399690151215 0.7969239950180054
vt 0.2094780057668686 0.8083189725875854
vt 0.20775100588798523 0.7767350077629089
vt 0.35686400532722473 0.7767350077629089
vt 0.22978700697422028 0.7942600250244141
vt 0.3348279893398285 0.7942600250244141
vt 0.22978700697422028 0.7942600250244141
vt 0.35686400532722473 0.7767350077629089
vt 0.06979899853467941 0.7735179662704468
vt 0.05086600035429001 0.7735059857368469
vt 0.06902699917554855 0.8007659912109375
vt 0.05086600035429001 0.8008059859275818
vt 0.06902699917554855 0.8007659912109375
vt 0.05086600035429001 0.7735059857368469
vt 0.0907140001654625 0.8008800148963928
vt 0.0919400006532669 0.7735099792480469
vt 0.06902699917554855 0.8007659912109375
vt 0.06979899853467941 0.7735179662704468
vt 0.06902699917554855 0.8007659912109375
vt 0.0919400006532669 0.7735099792480469
vt 0.4360960125923157 0.9723520278930664
vt 0.4507400095462799 0.9577080011367798
vt 0.45148900151252747 0.9877449870109558
vt 0.46612998843193054 0.9731029868125916
vt 0.45148900151252747 0.9877449870109558
vt 0.4507400095462799 0.9577080011367798
vt 0.08592899888753891 0.8902339935302734
vt 0.015897000208497047 0.9256529808044434
vt 0.08592599630355835 0.8721320033073425
vt 0.015897000208497047 0.8721320033073425
vt 0.08592599630355835 0.8721320033073425
vt 0.015897000208497047 0.9256529808044434
vt 0.01672299951314926 0.799888014793396
vt 0.019214000552892685 0.7738749980926514
vt 0.10496100038290024 0.7996789813041687
vt 0.10487700253725052 0.7740039825439453
vt 0.10496100038290024 0.7996789813041687
vt 0.019214000552892685 0.7738749980926514
vt 0.13272200524806976 0.773900032043457
vt 0.050985001027584076 0.7738379836082458
vt 0.1351500004529953 0.7996410131454468
vt 0.051017001271247864 0.799593985080719
vt 0.1351500004529953 0.7996410131454468
vt 0.050985001027584076 0.7738379836082458
vt 0.10272499918937683 0.8902339935302734
vt 0.10272499918937683 0.9626979827880859
vt 0.08592899888753891 0.8902339935302734
vt 0.051677998155355453 0.9626979827880859
vt 0.08592899888753891 0.8902339935302734
vt 0.10272499918937683 0.9626979827880859
vt 0.015897000208497047 0.9256529808044434
vt 0.08592899888753891 0.8902339935302734
vt 0.0198340006172657 0.9484059810638428
vt 0.10496100038290024 0.7996789813041687
vt 0.10487700253725052 0.7740039825439453
vt 0.1360509991645813 0.7996519804000854
vt 0.13856099545955658 0.7739109992980957
vt 0.1360509991645813 0.7996519804000854
vt 0.10487700253725052 0.7740039825439453
vt 0.4106900095939636 0.8352980017662048
vt 0.43070799112319946 0.9118019938468933
vt 0.4106900095939636 0.9885590076446533
vt 0.43070799112319946 0.8352980017662048
vt 0.43070799112319946 0.9118019938468933
vt 0.4106900095939636 0.8352980017662048
vt 0.48907700181007385 0.9671400189399719
vt 0.5665929913520813 0.9885590076446533
vt 0.4106900095939636 0.9885590076446533
vt 0.5665929913520813 0.9671400189399719
vt 0.5665929913520813 0.9885590076446533
vt 0.48907700181007385 0.9671400189399719
vt 0.43070799112319946 0.9118019938468933
vt 0.43643298745155334 0.9424239993095398
vt 0.4106900095939636 0.9885590076446533
vt 0.2191700041294098 0.7760369777679443
vt 0.3473060131072998 0.7760369777679443
vt 0.2191700041294098 0.8067209720611572
vt 0.3473060131072998 0.8067209720611572
vt 0.2191700041294098 0.8067209720611572
vt 0.3473060131072998 0.7760369777679443
vt 0.34444400668144226 0.7773720026016235
vt 0.2136940062046051 0.7773720026016235
vt 0.34444400668144226 0.8053349852561951
vt 0.2136940062046051 0.8053349852561951
vt 0.34444400668144226 0.8053349852561951
vt 0.2136940062046051 0.7773720026016235
vt 0.3398379981517792 0.803022027015686
vt 0.3348279893398285 0.7942600250244141
vt 0.35686400532722473 0.803022027015686
vt 0.35686400532722473 0.7767350077629089
vt 0.35686400532722473 0.803022027015686
vt 0.3348279893398285 0.7942600250244141
vt 0.20775100588798523 0.7767350077629089
vt 0.22978700697422028 0.7942600250244141
vt 0.20775100588798523 0.803022027015686
vt 0.2247769981622696 0.803022027015686
vt 0.20775100588798523 0.803022027015686
vt 0.22978700697422028 0.7942600250244141
vt 0.03241400048136711 0.9602500200271606
vt 0.08592899888753891 0.8902339935302734
vt 0.051677998155355453 0.9626979827880859
vt 0.16984200477600098 0.7739120125770569
vt 0.13272200524806976 0.773900032043457
vt 0.1700029969215393 0.7995560169219971
vt 0.1351500004529953 0.7996410131454468
vt 0.1700029969215393 0.7995560169219971
vt 0.13272200524806976 0.773900032043457
vt 0.4106900095939636 0.9885590076446533
vt 0.4585669934749603 0.9645230174064636
vt 0.48907700181007385 0.9671400189399719
vt 0.4106900095939636 0.9885590076446533
vt 0.43643298745155334 0.9424239993095398
vt 0.4585669934749603 0.9645230174064636
vt 0.13856099545955658 0.7739109992980957
vt 0.16984200477600098 0.7739120125770569
vt 0.1360509991645813 0.7996519804000854
vt 0.1700029969215393 0.7995560169219971
vt 0.1360509991645813 0.7996519804000854
vt 0.16984200477600098 0.7739120125770569
vt 0.03241400048136711 0.9602500200271606
vt 0.0198340006172657 0.9484059810638428
vt 0.08592899888753891 0.8902339935302734
vn 9.99999997210243e-7 -0.000023000000504070727 0.999999999735
vn 9.99999997210243e-7 -0.000023000000504070727 0.999999999735
vn 9.99999997210243e-7 -0.000023000000504070727 0.999999999735
vn 0.000015000000179354817 0.00003400000057353433 0.9999999993095
vn 0.000015000000179354817 0.00003400000057353433 0.9999999993095
vn 0.000015000000179354817 0.00003400000057353433 0.9999999993095
vn -0.00004400000063519655 0.000014999999604422675 0.9999999989195001
vn -0.00004400000063519655 0.000014999999604422675 0.9999999989195001
vn -0.00004400000063519655 0.000014999999604422675 0.9999999989195001
vn 9.99999997474743e-7 2.2204460492502618e-16 0.9999999999995002
vn 9.99999997474743e-7 2.2204460492502618e-16 0.9999999999995002
vn 9.99999997474743e-7 2.2204460492502618e-16 0.9999999999995002
vn -0.00002600000003855315 2.2204460484722739e-16 0.9999999996620001
vn -0.00002600000003855315 2.2204460484722739e-16 0.9999999996620001
vn -0.00002600000003855315 2.2204460484722739e-16 0.9999999996620001
vn 9.99999996994243e-7 -0.00003099999956556997 0.9999999995190001
vn 9.99999996994243e-7 -0.00003099999956556997 0.9999999995190001
vn 9.99999996994243e-7 -0.00003099999956556997 0.9999999995190001
vn -0.999999999735 -0.00002300000050429277 9.999999972102455e-7
vn -0.999999999735 -0.00002300000050429277 9.999999972102455e-7
vn -0.999999999735 -0.00002300000050429277 9.999999972102455e-7
vn -0.9999999993095 0.000034000000573312285 0.000015000000179354814
vn -0.9999999993095 0.000034000000573312285 0.000015000000179354814
vn -0.9999999993095 0.000034000000573312285 0.000015000000179354814
vn 0.01231605850516999 0.32813008454281356 -0.9445522549445441
vn 0.01231605850516999 0.32813008454281356 -0.9445522549445441
vn 0.01231605850516999 0.32813008454281356 -0.9445522549445441
vn -0.00014394153805168494 0.3368679659438514 -0.941551885347635
vn -0.00014394153805168494 0.3368679659438514 -0.941551885347635
vn -0.00014394153805168494 0.3368679659438514 -0.941551885347635
vn 0.9415247196307447 0.33694391569423116 -9.415247172910316e-7
vn 0.9415247196307447 0.33694391569423116 -9.415247172910316e-7
vn 0.9415247196307447 0.33694391569423116 -9.415247172910316e-7
vn 0.944472715567189 0.3283618771194729 -0.012237941155102924
vn 0.944472715567189 0.3283618771194729 -0.012237941155102924
vn 0.944472715567189 0.3283618771194729 -0.012237941155102924
vn -5.1431837754211865e-24 1 -1.1102230246256602e-16
vn -5.1431837754211865e-24 1 -1.1102230246256602e-16
vn -5.1431837754211865e-24 1 -1.1102230246256602e-16
vn -5.1431837754211865e-24 1 -1.1102230246256602e-16
vn -5.1431837754211865e-24 1 -1.1102230246256602e-16
vn -5.1431837754211865e-24 1 -1.1102230246256602e-16
vn -5.1431837754211865e-24 1 -1.1102230246256602e-16
vn -5.1431837754211865e-24 1 -1.1102230246256602e-16
vn -5.1431837754211865e-24 1 -1.1102230246256602e-16
vn -5.1431837754211865e-24 1 -1.1102230246256602e-16
vn -5.1431837754211865e-24 1 -1.1102230246256602e-16
vn -5.1431837754211865e-24 1 -1.1102230246256602e-16
vn 0.0000019415244614355563 0.3369439156940629 0.9415247196292739
vn -0.001509060391651376 0.34155608616241684 0.9398601825495886
vn -0.10982503974230795 0.35832991030996136 0.9271127957389304
vn -0.1184830516217883 0.366857948915333 0.9227009330200245
vn -0.10982503974230795 0.35832991030996136 0.9271127957389304
vn -0.001509060391651376 0.34155608616241684 0.9398601825495886
vn -0.9228165517525284 0.36680190179292577 0.1177538816883162
vn -0.9398852504153611 0.341487077408013 0.0015139402192471548
vn -0.9271996473338412 0.3583069051224822 0.10916490152768503
vn -0.9415518951160596 0.336867969387989 0.0000019415518093832423
vn -0.9271996473338412 0.3583069051224822 0.10916490152768503
vn -0.9398852504153611 0.341487077408013 0.0015139402192471548
vn -5.1431837754211865e-24 1 -1.1102230246256602e-16
vn -5.1431837754211865e-24 1 -1.1102230246256602e-16
vn -5.1431837754211865e-24 1 -1.1102230246256602e-16
vn -5.1431837754211865e-24 1 -1.1102230246256602e-16
vn -5.1431837754211865e-24 1 -1.1102230246256602e-16
vn -5.1431837754211865e-24 1 -1.1102230246256602e-16
vn -5.1431837754211865e-24 1 -1.1102230246256602e-16
vn -5.1431837754211865e-24 1 -1.1102230246256602e-16
vn -5.1431837754211865e-24 1 -1.1102230246256602e-16
vn -0.10982503974230795 0.35832991030996136 0.9271127957389304
vn -0.1184830516217883 0.366857948915333 0.9227009330200245
vn -0.4558521011644221 0.3941969045359448 0.798002294682328
vn -0.45481732834887995 0.40019508704679624 0.7956036011338774
vn -0.4558521011644221 0.3941969045359448 0.798002294682328
vn -0.1184830516217883 0.366857948915333 0.9227009330200245
vn -5.1431837754211865e-24 1 -1.1102230246256602e-16
vn -5.1431837754211865e-24 1 -1.1102230246256602e-16
vn -5.1431837754211865e-24 1 -1.1102230246256602e-16
vn -5.1431837754211865e-24 1 -1.1102230246256602e-16
vn -5.1431837754211865e-24 1 -1.1102230246256602e-16
vn -5.1431837754211865e-24 1 -1.1102230246256602e-16
vn -5.1431837754211865e-24 1 -1.1102230246256602e-16
vn -5.1431837754211865e-24 1 -1.1102230246256602e-16
vn -5.1431837754211865e-24 1 -1.1102230246256602e-16
vn -5.1431837754211865e-24 1 -1.1102230246256602e-16
vn -5.1431837754211865e-24 1 -1.1102230246256602e-16
vn -5.1431837754211865e-24 1 -1.1102230246256602e-16
vn -5.1431837754211865e-24 1 -1.1102230246256602e-16
vn -5.1431837754211865e-24 1 -1.1102230246256602e-16
vn -5.1431837754211865e-24 1 -1.1102230246256602e-16
vn -9.99999997474743e-7 -2.2204460492502618e-16 -0.9999999999995002
vn -9.99999997474743e-7 -2.2204460492502618e-16 -0.9999999999995002
vn -9.99999997474743e-7 -2.2204460492502618e-16 -0.9999999999995002
vn -9.99999997474743e-7 -2.2204460492502618e-16 -0.9999999999995002
vn -9.99999997474743e-7 -2.2204460492502618e-16 -0.9999999999995002
vn -9.99999997474743e-7 -2.2204460492502618e-16 -0.9999999999995002
vn 0.9999999999995002 -1.16165485957577e-22 -9.99999997474743e-7
vn 0.9999999999995002 -1.16165485957577e-22 -9.99999997474743e-7
vn 0.9999999999995002 -1.16165485957577e-22 -9.99999997474743e-7
vn 0.9999999999995002 -1.16165485957577e-22 -9.99999997474743e-7
vn 0.9999999999995002 -1.16165485957577e-22 -9.99999997474743e-7
vn 0.9999999999995002 -1.16165485957577e-22 -9.99999997474743e-7
vn -0.9999999995190001 -0.000030999999565792014 9.999999969942464e-7
vn -0.9999999995190001 -0.000030999999565792014 9.999999969942464e-7
vn -0.9999999995190001 -0.000030999999565792014 9.999999969942464e-7
vn -0.9999999996620001 -5.879038854982333e-21 -0.00002600000003855315
vn -0.9999999996620001 -5.879038854982333e-21 -0.00002600000003855315
vn -0.9999999996620001 -5.879038854982333e-21 -0.00002600000003855315
vn -0.9999999996620001 -5.879038854982333e-21 -0.00002600000003855315
vn -0.9999999996620001 -5.879038854982333e-21 -0.00002600000003855315
vn -0.9999999996620001 -5.879038854982333e-21 -0.00002600000003855315
vn -0.9999999995190001 0.000030999999565792014 9.999999969942396e-7
vn -0.9999999995190001 0.000030999999565792014 9.999999969942396e-7
vn -0.9999999995190001 0.000030999999565792014 9.999999969942396e-7
vn -5.1431837754211865e-24 1 -1.1102230246256602e-16
vn -5.1431837754211865e-24 1 -1.1102230246256602e-16
vn -5.1431837754211865e-24 1 -1.1102230246256602e-16
vn -0.7963493973853197 0.4000619190771523 0.45362770879692127
vn -0.9228165517525284 0.36680190179292577 0.1177538816883162
vn -0.7987466402909214 0.39410205325191733 0.4546288334967202
vn -0.9271996473338412 0.3583069051224822 0.10916490152768503
vn -0.7987466402909214 0.39410205325191733 0.4546288334967202
vn -0.9228165517525284 0.36680190179292577 0.1177538816883162
vn -5.1431837754211865e-24 1 -1.1102230246256602e-16
vn -5.1431837754211865e-24 1 -1.1102230246256602e-16
vn -5.1431837754211865e-24 1 -1.1102230246256602e-16
vn -5.1431837754211865e-24 1 -1.1102230246256602e-16
vn -5.1431837754211865e-24 1 -1.1102230246256602e-16
vn -5.1431837754211865e-24 1 -1.1102230246256602e-16
vn -0.45481732834887995 0.40019508704679624 0.7956036011338774
vn -0.7963493973853197 0.4000619190771523 0.45362770879692127
vn -0.4558521011644221 0.3941969045359448 0.798002294682328
vn -0.7987466402909214 0.39410205325191733 0.4546288334967202
vn -0.4558521011644221 0.3941969045359448 0.798002294682328
vn -0.7963493973853197 0.4000619190771523 0.45362770879692127
vn -5.1431837754211865e-24 1 -1.1102230246256602e-16
vn -5.1431837754211865e-24 1 -1.1102230246256602e-16
vn -5.1431837754211865e-24 1 -1.1102230246256602e-16
f 1/1/1 2/2/2 3/3/3
f 4/4/4 5/5/5 6/6/6
f 7/7/7 8/8/8 9/9/9
f 10/10/10 11/11/11 12/12/12
f 13/13/13 14/14/14 15/15/15
f 16/16/16 17/17/17 18/18/18
f 19/19/19 20/20/20 21/21/21
f 22/22/22 23/23/23 24/24/24
f 25/25/25 26/26/26 27/27/27
f 28/28/28 29/29/29 30/30/30
f 31/31/31 32/32/32 33/33/33
f 34/34/34 35/35/35 36/36/36
f 37/37/37 38/38/38 39/39/39
f 40/40/40 41/41/41 42/42/42
f 43/43/43 44/44/44 45/45/45
f 46/46/46 47/47/47 48/48/48
f 49/49/49 50/50/50 51/51/51
f 52/52/52 53/53/53 54/54/54
f 55/55/55 56/56/56 57/57/57
f 58/58/58 59/59/59 60/60/60
f 61/61/61 62/62/62 63/63/63
f 64/64/64 65/65/65 66/66/66
f 67/67/67 68/68/68 69/69/69
f 70/70/70 71/71/71 72/72/72
f 73/73/73 74/74/74 75/75/75
f 76/76/76 77/77/77 78/78/78
f 79/79/79 80/80/80 81/81/81
f 82/82/82 83/83/83 84/84/84
f 85/85/85 86/86/86 87/87/87
f 88/88/88 89/89/89 90/90/90
f 91/91/91 92/92/92 93/93/93
f 94/94/94 95/95/95 96/96/96
f 97/97/97 98/98/98 99/99/99
f 100/100/100 101/101/101 102/102/102
f 103/103/103 104/104/104 105/105/105
f 106/106/106 107/107/107 108/108/108
f 109/109/109 110/110/110 111/111/111
f 112/112/112 113/113/113 114/114/114
f 115/115/115 116/116/116 117/117/117
f 118/118/118 119/119/119 120/120/120
f 121/121/121 122/122/122 123/123/123
f 124/124/124 125/125/125 126/126/126
f 127/127/127 128/128/128 129/129/129
f 130/130/130 131/131/131 132/132/132
f 133/133/133 134/134/134 135/135/135
f 136/136/136 137/137/137 138/138/138
