# Modified by OBJRotate180 (Mesh rotated 180 degrees around Y-axis)
# Original file: static_ne.obj
mtllib static_ne.mtl
v -0.500000 0.100475 -0.500000
v -0.500000 -0.200074 -0.500000
v -0.500000 -0.000074 -0.297959
v 0.500000 0.100475 -0.500000
v -0.001035 0.100475 -0.500000
v 0.233044 0.100475 -0.235570
v 0.233044 0.100475 -0.235570
v -0.001035 0.100475 -0.500000
v -0.001035 0.100475 -0.351153
v 0.500000 0.100475 0.499999
v 0.299709 -0.000074 0.499999
v 0.500000 -0.200845 0.499999
v -0.500000 -0.000074 -0.297959
v -0.500000 0.100475 -0.351153
v -0.500000 0.100475 -0.500000
v 0.500000 -0.200074 0.499999
v 0.500000 0.100475 0.499999
v 0.500000 -0.200845 0.499999
v 0.299709 -0.000074 0.499999
v 0.500000 0.100475 0.499999
v 0.350856 0.100475 0.499999
v -0.500000 -0.000074 -0.297959
v -0.500000 -0.200074 -0.500000
v -0.500001 -0.000074 0.299999
v -0.500000 -0.200074 -0.500000
v -0.500000 -0.200074 0.499999
v -0.500001 -0.000074 0.299999
v 0.350856 0.100475 0.000739
v 0.233044 0.100475 -0.235570
v 0.299709 -0.000074 0.000739
v 0.299709 -0.000074 0.000739
v 0.233044 0.100475 -0.235570
v 0.197415 -0.000074 -0.199757
v 0.197415 -0.000074 -0.199757
v 0.233044 0.100475 -0.235570
v -0.001035 -0.000074 -0.297959
v -0.001035 -0.000074 -0.297959
v 0.233044 0.100475 -0.235570
v -0.001035 0.100475 -0.351153
v 0.500000 0.100475 -0.500000
v 0.500000 -0.200074 -0.500000
v -0.001035 0.100475 -0.500000
v 0.299709 -0.000074 0.000739
v 0.197415 -0.000074 -0.199757
v -0.300001 -0.000074 0.299999
v -0.300001 -0.000074 0.299999
v 0.197415 -0.000074 -0.199757
v -0.001035 -0.000074 -0.297959
v -0.500001 -0.000074 0.299999
v -0.500000 -0.200074 0.499999
v -0.500000 0.099525 0.499999
v -0.001035 -0.000074 -0.297959
v -0.001035 0.100475 -0.351153
v -0.500000 -0.000074 -0.297959
v -0.500000 -0.000074 -0.297959
v -0.001035 0.100475 -0.351153
v -0.500000 0.100475 -0.351153
v -0.001035 0.100475 -0.500000
v -0.500000 0.100475 -0.500000
v -0.001035 0.100475 -0.351153
v -0.001035 0.100475 -0.351153
v -0.500000 0.100475 -0.500000
v -0.500000 0.100475 -0.351153
v 0.500000 -0.200845 0.499999
v 0.299709 -0.000074 0.499999
v -0.500000 -0.200074 0.499999
v 0.299709 -0.000074 0.499999
v -0.300000 -0.000074 0.499999
v -0.500000 -0.200074 0.499999
v -0.300000 -0.000074 0.499999
v -0.500000 0.099525 0.499999
v -0.500000 -0.200074 0.499999
v -0.350000 0.099525 0.499999
v -0.500000 0.099525 0.499999
v -0.300000 -0.000074 0.499999
v -0.500000 -0.000074 -0.297959
v -0.500001 -0.000074 0.299999
v -0.300001 -0.000074 0.299999
v 0.500000 0.100475 0.000739
v 0.500000 -0.200074 -0.500000
v 0.500000 0.100475 -0.500000
v 0.500000 -0.200074 0.499999
v 0.500000 0.100475 0.000739
v 0.500000 0.100475 0.499999
v 0.500000 0.100475 0.000739
v 0.350856 0.100475 0.000739
v 0.500000 0.100475 0.499999
v 0.500000 0.100475 0.499999
v 0.350856 0.100475 0.000739
v 0.350856 0.100475 0.499999
v 0.299709 -0.000074 0.499999
v 0.350856 0.100475 0.499999
v 0.299709 -0.000074 0.000739
v 0.299709 -0.000074 0.000739
v 0.350856 0.100475 0.499999
v 0.350856 0.100475 0.000739
v -0.300001 -0.000074 0.299999
v 0.299709 -0.000074 0.499999
v 0.299709 -0.000074 0.000739
v 0.500000 0.100475 -0.500000
v 0.233044 0.100475 -0.235570
v 0.500000 0.100475 0.000739
v 0.500000 0.100475 0.000739
v 0.233044 0.100475 -0.235570
v 0.350856 0.100475 0.000739
v -0.300001 -0.000074 0.299999
v -0.300000 -0.000074 0.499999
v 0.299709 -0.000074 0.499999
v -0.300001 -0.000074 0.299999
v -0.001035 -0.000074 -0.297959
v -0.500000 -0.000074 -0.297959
v -0.500001 -0.000074 0.299999
v -0.500000 0.099525 0.499999
v -0.500000 0.099525 0.349999
v -0.500000 0.099525 0.349999
v -0.350000 0.099525 0.349999
v -0.300001 -0.000074 0.299999
v -0.300000 -0.000074 0.499999
v -0.350000 0.099525 0.349999
v -0.350000 0.099525 0.499999
v -0.350000 0.099525 0.349999
v -0.500000 0.099525 0.349999
v -0.500000 0.099525 0.499999
v -0.350000 0.099525 0.499999
v -0.350000 0.099525 0.349999
v -0.500000 0.099525 0.499999
v -0.350000 0.099525 0.349999
v -0.300000 -0.000074 0.499999
v -0.300001 -0.000074 0.299999
v -0.500000 0.099525 0.349999
v -0.300001 -0.000074 0.299999
v -0.500001 -0.000074 0.299999
v -0.500000 0.100475 -0.500000
v -0.001035 0.100475 -0.500000
v -0.500000 -0.200074 -0.500000
v -0.500000 -0.200074 -0.500000
v -0.001035 0.100475 -0.500000
v 0.500000 -0.200074 -0.500000
v 0.500000 -0.200074 0.499999
v 0.500000 -0.200074 -0.500000
v 0.500000 0.100475 0.000739
vt 0.111471 1.138490
vt 0.124545 1.138721
vt 0.113846 1.161840
vt 0.012762 1.138490
vt 0.064671 1.138490
vt 0.038826 1.163239
vt 0.038826 1.163239
vt 0.064671 1.138490
vt 0.064479 1.151850
vt 0.012762 1.235610
vt 0.036857 1.237627
vt 0.014100 1.248321
vt 0.113846 1.161840
vt 0.110362 1.152950
vt 0.111471 1.138490
vt 0.000318 1.235451
vt 0.012762 1.235610
vt 0.000318 1.235459
vt 0.036857 1.237627
vt 0.012762 1.235610
vt 0.027032 1.234419
vt 0.113846 1.161840
vt 0.124545 1.138721
vt 0.113846 1.218632
vt 0.124545 1.138721
vt 0.124490 1.233876
vt 0.113846 1.218632
vt 0.026626 1.188737
vt 0.038826 1.163239
vt 0.036857 1.190209
vt 0.036857 1.190209
vt 0.038826 1.163239
vt 0.046705 1.171167
vt 0.046705 1.171167
vt 0.038826 1.163239
vt 0.065810 1.161840
vt 0.065810 1.161840
vt 0.038826 1.163239
vt 0.064479 1.151850
vt 0.012762 1.138490
vt 0.013022 1.126330
vt 0.064671 1.138490
vt 0.036857 1.190209
vt 0.046705 1.171167
vt 0.094592 1.218632
vt 0.094592 1.218632
vt 0.046705 1.171167
vt 0.065810 1.161840
vt 0.113846 1.218632
vt 0.124490 1.233876
vt 0.110117 1.233578
vt 0.065810 1.161840
vt 0.064479 1.151850
vt 0.113846 1.161840
vt 0.113846 1.161840
vt 0.064479 1.151850
vt 0.110362 1.152950
vt 0.064671 1.138490
vt 0.111471 1.138490
vt 0.064479 1.151850
vt 0.064479 1.151850
vt 0.111471 1.138490
vt 0.110362 1.152950
vt 0.014100 1.248321
vt 0.036857 1.237627
vt 0.110129 1.248824
vt 0.036857 1.237627
vt 0.094592 1.237627
vt 0.110129 1.248824
vt 0.094592 1.237627
vt 0.110117 1.233578
vt 0.110129 1.248824
vt 0.101769 1.233969
vt 0.110117 1.233578
vt 0.094592 1.237627
vt 0.113846 1.161840
vt 0.113846 1.218632
vt 0.094592 1.218632
vt 0.012762 1.188640
vt 0.000318 1.138375
vt 0.012762 1.138490
vt 0.000318 1.235451
vt 0.012762 1.188640
vt 0.012762 1.235610
vt 0.012762 1.188640
vt 0.026626 1.188737
vt 0.012762 1.235610
vt 0.012762 1.235610
vt 0.026626 1.188737
vt 0.027032 1.234419
vt 0.036857 1.237627
vt 0.027032 1.234419
vt 0.036857 1.190209
vt 0.036857 1.190209
vt 0.027032 1.234419
vt 0.026626 1.188737
vt 0.094592 1.218632
vt 0.036857 1.237627
vt 0.036857 1.190209
vt 0.012762 1.138490
vt 0.038826 1.163239
vt 0.012762 1.188640
vt 0.012762 1.188640
vt 0.038826 1.163239
vt 0.026626 1.188737
vt 0.094592 1.218632
vt 0.094592 1.237627
vt 0.036857 1.237627
vt 0.094592 1.218632
vt 0.065810 1.161840
vt 0.113846 1.161840
vt 0.113846 1.218632
vt 0.110117 1.233578
vt 0.110955 1.226018
vt 0.110955 1.226018
vt 0.101880 1.226087
vt 0.094592 1.218632
vt 0.094592 1.237627
vt 0.101880 1.226087
vt 0.101769 1.233969
vt 0.101880 1.226087
vt 0.110955 1.226018
vt 0.110117 1.233578
vt 0.101769 1.233969
vt 0.101880 1.226087
vt 0.110117 1.233578
vt 0.101880 1.226087
vt 0.094592 1.237627
vt 0.094592 1.218632
vt 0.110955 1.226018
vt 0.094592 1.218632
vt 0.113846 1.218632
vt 0.111471 1.138490
vt 0.064671 1.138490
vt 0.111731 1.127102
vt 0.111731 1.127102
vt 0.064671 1.138490
vt 0.013022 1.126330
vt 0.000318 1.235451
vt 0.000318 1.138375
vt 0.012762 1.188640
vn -1.000000 0.000000 0.000000
vn -1.000000 0.000000 0.000000
vn -1.000000 0.000000 0.000000
vn 0.000000 1.000000 0.000000
vn 0.000000 1.000000 0.000000
vn 0.000000 1.000000 0.000000
vn 0.000000 1.000000 0.000000
vn 0.000000 1.000000 0.000000
vn 0.000000 1.000000 0.000000
vn 0.000000 0.000000 1.000000
vn 0.000000 0.000000 1.000000
vn 0.000000 0.000000 1.000000
vn -1.000000 0.000000 0.000000
vn -1.000000 0.000000 0.000000
vn -1.000000 0.000000 0.000000
vn 1.000000 0.000000 0.000000
vn 1.000000 0.000000 0.000000
vn 1.000000 0.000000 0.000000
vn 0.000000 0.000000 1.000000
vn 0.000000 0.000000 1.000000
vn 0.000000 0.000000 1.000000
vn -1.000000 0.000000 0.000000
vn -1.000000 0.000000 0.000000
vn -1.000000 0.000000 -0.000001
vn -1.000000 0.000000 0.000000
vn -1.000000 -0.000008 0.000001
vn -1.000000 0.000000 -0.000001
vn -0.814513 0.414332 0.406075
vn -0.814513 0.414332 0.406075
vn -0.814513 0.414332 0.406075
vn -0.803825 0.430899 0.410111
vn -0.803825 0.430899 0.410111
vn -0.803825 0.430899 0.410111
vn -0.400399 0.430074 0.809146
vn -0.400399 0.430074 0.809146
vn -0.400399 0.430074 0.809146
vn -0.400019 0.428581 0.810126
vn -0.400019 0.428581 0.810126
vn -0.400019 0.428581 0.810126
vn 0.000000 0.000000 -1.000000
vn 0.000000 0.000000 -1.000000
vn 0.000000 0.000000 -1.000000
vn 0.000000 1.000000 0.000000
vn 0.000000 1.000000 0.000000
vn 0.000000 1.000000 0.000000
vn 0.000000 1.000000 0.000000
vn 0.000000 1.000000 0.000000
vn 0.000000 1.000000 0.000000
vn -1.000000 0.000000 -0.000001
vn -1.000000 -0.000008 0.000001
vn -1.000000 0.000000 0.000005
vn 0.000000 0.467623 0.883928
vn 0.000000 0.467623 0.883928
vn 0.000000 0.467623 0.883928
vn 0.000000 0.467623 0.883928
vn 0.000000 0.467623 0.883928
vn 0.000000 0.467624 0.883927
vn 0.000000 1.000000 0.000000
vn 0.000000 1.000000 0.000000
vn 0.000000 1.000000 0.000000
vn 0.000000 1.000000 0.000000
vn 0.000000 1.000000 0.000000
vn 0.000000 1.000000 0.000000
vn 0.000000 0.000000 1.000000
vn 0.000000 0.000000 1.000000
vn 0.000000 0.000000 1.000000
vn 0.000000 0.000000 1.000000
vn 0.000000 0.000000 1.000000
vn 0.000000 0.000000 1.000000
vn 0.000000 0.000000 1.000000
vn 0.000000 0.000000 1.000000
vn 0.000000 0.000000 1.000000
vn 0.000000 0.000000 1.000000
vn 0.000000 0.000000 1.000000
vn 0.000000 0.000000 1.000000
vn 0.000000 1.000000 0.000000
vn 0.000000 1.000000 0.000000
vn 0.000000 1.000000 0.000000
vn 1.000000 0.000000 -0.000001
vn 1.000000 0.000000 -0.000001
vn 1.000000 0.000000 -0.000001
vn 1.000000 0.000000 0.000000
vn 1.000000 0.000000 -0.000001
vn 1.000000 0.000000 0.000000
vn 0.000000 1.000000 0.000000
vn 0.000000 1.000000 0.000000
vn 0.000000 1.000000 0.000000
vn 0.000000 1.000000 0.000000
vn 0.000000 1.000000 0.000000
vn 0.000000 1.000000 0.000000
vn -0.891310 0.453394 0.000000
vn -0.891310 0.453394 0.000000
vn -0.891310 0.453394 0.000000
vn -0.891310 0.453394 0.000000
vn -0.891310 0.453394 0.000000
vn -0.891310 0.453394 0.000000
vn 0.000000 1.000000 0.000000
vn 0.000000 1.000000 0.000000
vn 0.000000 1.000000 0.000000
vn 0.000000 1.000000 0.000000
vn 0.000000 1.000000 0.000000
vn 0.000000 1.000000 0.000000
vn 0.000000 1.000000 0.000000
vn 0.000000 1.000000 0.000000
vn 0.000000 1.000000 0.000000
vn 0.000000 1.000000 0.000000
vn 0.000000 1.000000 0.000000
vn 0.000000 1.000000 0.000000
vn 0.000000 1.000000 0.000000
vn 0.000000 1.000000 0.000000
vn 0.000000 1.000000 0.000000
vn -1.000000 0.000000 -0.000001
vn -1.000000 0.000000 0.000005
vn -1.000000 0.000007 0.000000
vn 0.000000 0.448653 -0.893706
vn 0.000000 0.448653 -0.893706
vn 0.000000 0.448653 -0.893706
vn 0.893705 0.448655 0.000000
vn 0.893705 0.448655 0.000000
vn 0.893705 0.448655 0.000000
vn 0.000000 1.000000 0.000000
vn 0.000000 1.000000 0.000000
vn 0.000000 1.000000 0.000000
vn 0.000000 1.000000 0.000000
vn 0.000000 1.000000 0.000000
vn 0.000000 1.000000 0.000000
vn 0.893705 0.448655 0.000000
vn 0.893705 0.448655 0.000000
vn 0.893708 0.448648 -0.000004
vn 0.000000 0.448653 -0.893706
vn 0.000000 0.448653 -0.893706
vn 0.000000 0.448653 -0.893706
vn 0.000000 0.000000 -1.000000
vn 0.000000 0.000000 -1.000000
vn 0.000000 0.000000 -1.000000
vn 0.000000 0.000000 -1.000000
vn 0.000000 0.000000 -1.000000
vn 0.000000 0.000000 -1.000000
vn 1.000000 0.000000 0.000000
vn 1.000000 0.000000 -0.000001
vn 1.000000 0.000000 -0.000001
o static_ne
o static_ne
usemtl material
f 1/1/1 2/2/2 3/3/3
f 4/4/4 5/5/5 6/6/6
f 7/7/7 8/8/8 9/9/9
f 10/10/10 11/11/11 12/12/12
f 13/13/13 14/14/14 15/15/15
f 16/16/16 17/17/17 18/18/18
f 19/19/19 20/20/20 21/21/21
f 22/22/22 23/23/23 24/24/24
f 25/25/25 26/26/26 27/27/27
f 28/28/28 29/29/29 30/30/30
f 31/31/31 32/32/32 33/33/33
f 34/34/34 35/35/35 36/36/36
f 37/37/37 38/38/38 39/39/39
f 40/40/40 41/41/41 42/42/42
f 43/43/43 44/44/44 45/45/45
f 46/46/46 47/47/47 48/48/48
f 49/49/49 50/50/50 51/51/51
f 52/52/52 53/53/53 54/54/54
f 55/55/55 56/56/56 57/57/57
f 58/58/58 59/59/59 60/60/60
f 61/61/61 62/62/62 63/63/63
f 64/64/64 65/65/65 66/66/66
f 67/67/67 68/68/68 69/69/69
f 70/70/70 71/71/71 72/72/72
f 73/73/73 74/74/74 75/75/75
f 76/76/76 77/77/77 78/78/78
f 79/79/79 80/80/80 81/81/81
f 82/82/82 83/83/83 84/84/84
f 85/85/85 86/86/86 87/87/87
f 88/88/88 89/89/89 90/90/90
f 91/91/91 92/92/92 93/93/93
f 94/94/94 95/95/95 96/96/96
f 97/97/97 98/98/98 99/99/99
f 100/100/100 101/101/101 102/102/102
f 103/103/103 104/104/104 105/105/105
f 106/106/106 107/107/107 108/108/108
f 109/109/109 110/110/110 111/111/111
f 112/112/112 113/113/113 114/114/114
f 115/115/115 116/116/116 117/117/117
f 118/118/118 119/119/119 120/120/120
f 121/121/121 122/122/122 123/123/123
f 124/124/124 125/125/125 126/126/126
f 127/127/127 128/128/128 129/129/129
f 130/130/130 131/131/131 132/132/132
f 133/133/133 134/134/134 135/135/135
f 136/136/136 137/137/137 138/138/138
f 139/139/139 140/140/140 141/141/141
