mtllib tile_freeze.mtl
o tile_freeze
usemtl material
v -0.5 -0.10000000149011612 0.5
v 0.5 -0.10000000149011612 0.5
v -0.5 -0.05000000074505806 0.5
v -0.5 -0.05000000074505806 0.5
v 0.5 -0.10000000149011612 0.5
v 0.5 -0.05000000074505806 0.5
v -0.5 -0.05000000074505806 0.5
v 0.5 -0.05000000074505806 0.5
v -0.5 -0.05000000074505806 -0.5
v -0.5 -0.05000000074505806 -0.5
v 0.5 -0.05000000074505806 0.5
v 0.5 -0.05000000074505806 -0.5
v -0.5 -0.05000000074505806 -0.5
v 0.5 -0.05000000074505806 -0.5
v -0.5 -0.10000000149011612 -0.5
v -0.5 -0.10000000149011612 -0.5
v 0.5 -0.05000000074505806 -0.5
v 0.5 -0.10000000149011612 -0.5
v 0.5 -0.10000000149011612 0.5
v 0.5 -0.10000000149011612 -0.5
v 0.5 -0.05000000074505806 0.5
v 0.5 -0.05000000074505806 0.5
v 0.5 -0.10000000149011612 -0.5
v 0.5 -0.05000000074505806 -0.5
v -0.5 -0.10000000149011612 -0.5
v -0.5 -0.10000000149011612 0.5
v -0.5 -0.05000000074505806 -0.5
v -0.5 -0.05000000074505806 -0.5
v -0.5 -0.10000000149011612 0.5
v -0.5 -0.05000000074505806 0.5
vt 0.8872609734535217 1.8759379386901855
vt 0.9873650074005127 1.8759379386901855
vt 0.8871480226516724 1.887706995010376
vt 0.8871480226516724 1.887706995010376
vt 0.9873650074005127 1.8759379386901855
vt 0.9874789714813232 1.887706995010376
vt 0.8871480226516724 1.887706995010376
vt 0.9874789714813232 1.887706995010376
vt 0.8871480226516724 1.986528992652893
vt 0.8871480226516724 1.986528992652893
vt 0.9874789714813232 1.887706995010376
vt 0.9874789714813232 1.986528992652893
vt 0.8871480226516724 1.986528992652893
vt 0.9874789714813232 1.986528992652893
vt 0.8872609734535217 1.9982990026474
vt 0.8872609734535217 1.9982990026474
vt 0.9874789714813232 1.986528992652893
vt 0.9873650074005127 1.9982990026474
vt 0.9994279742240906 1.8879609107971191
vt 0.9994279742240906 1.9862749576568604
vt 0.9874789714813232 1.887706995010376
vt 0.9874789714813232 1.887706995010376
vt 0.9994279742240906 1.9862749576568604
vt 0.9874789714813232 1.986528992652893
vt 0.875199019908905 1.9862749576568604
vt 0.875199019908905 1.8879609107971191
vt 0.8871480226516724 1.986528992652893
vt 0.8871480226516724 1.986528992652893
vt 0.875199019908905 1.8879609107971191
vt 0.8871480226516724 1.887706995010376
vn 0 9.999999974747427e-7 0.9999999999995
vn 0 9.999999974747427e-7 0.9999999999995
vn 0 9.999999974747427e-7 0.9999999999995
vn 0 9.999999974747427e-7 0.9999999999995
vn 0 9.999999974747427e-7 0.9999999999995
vn 0 9.999999974747427e-7 0.9999999999995
vn 0 1 0
vn 0 1 0
vn 0 1 0
vn 0 1 0
vn 0 1 0
vn 0 1 0
vn 0 -9.999999974747427e-7 -0.9999999999995
vn 0 -9.999999974747427e-7 -0.9999999999995
vn 0 -9.999999974747427e-7 -0.9999999999995
vn 0 -9.999999974747427e-7 -0.9999999999995
vn 0 -9.999999974747427e-7 -0.9999999999995
vn 0 -9.999999974747427e-7 -0.9999999999995
vn 0.9999999999595 0.000009000000317973197 0
vn 0.9999999999595 0.000009000000317973197 0
vn 0.9999999999595 0.000009000000317973197 0
vn 0.9999999998720002 -0.000015999999957555886 0
vn 0.9999999998720002 -0.000015999999957555886 0
vn 0.9999999998720002 -0.000015999999957555886 0
vn -0.9999999999875 -0.000004999999873626876 0
vn -0.9999999999875 -0.000004999999873626876 0
vn -0.9999999999875 -0.000004999999873626876 0
vn -0.9999999999875 -0.000004999999873626876 0
vn -0.9999999999875 -0.000004999999873626876 0
vn -1 0 0
f 1/1/1 2/2/2 3/3/3
f 4/4/4 5/5/5 6/6/6
f 7/7/7 8/8/8 9/9/9
f 10/10/10 11/11/11 12/12/12
f 13/13/13 14/14/14 15/15/15
f 16/16/16 17/17/17 18/18/18
f 19/19/19 20/20/20 21/21/21
f 22/22/22 23/23/23 24/24/24
f 25/25/25 26/26/26 27/27/27
f 28/28/28 29/29/29 30/30/30
