# Modified by OBJRotate180 (Mesh rotated 180 degrees around Y-axis)
# Original file: jun_tile_boundary_pyramid.obj
mtllib Materials/jun_tile_boundary_pyramid.mtl
v -0.5 -0.200000 -0.5
v -0.5 -0.200000 0.5
v -0.5 0.145000 -0.5
v -0.5 0.145000 0.5
v -0.5 0.145000 -0.5
v -0.5 -0.200000 0.5
v 0.5 0.145000 -0.5
v 0.5 0.145000 0.5
v 0.5 -0.200000 -0.5
v 0.5 -0.200000 0.5
v 0.5 -0.200000 -0.5
v 0.5 0.145000 0.5
v 0.5 -0.200000 -0.5
v -0.5 -0.200000 -0.5
v 0.5 0.145000 -0.5
v -0.5 0.145000 -0.5
v 0.5 0.145000 -0.5
v -0.5 -0.200000 -0.5
v -0.5 -0.200000 0.5
v 0.5 -0.200000 0.5
v -0.5 0.145000 0.5
v 0.5 0.145000 0.5
v -0.5 0.145000 0.5
v 0.5 -0.200000 0.5
v 0.130107 0.587456 0.13011
v 0.130107 0.587456 -0.13011
v -0.130115 0.587456 0.13011
v 0.130107 0.587456 -0.13011
v -0.130115 0.587456 -0.13011
v -0.130115 0.587456 0.13011
v -0.5 0.145000 0.5
v -0.5 0.245000 0.5
v -0.5 0.145000 -0.5
v -0.5 0.245000 -0.5
v -0.5 0.145000 -0.5
v -0.5 0.245000 0.5
v 0.5 0.145000 -0.5
v 0.5 0.245000 -0.5
v 0.5 0.145000 0.5
v 0.5 0.245000 0.5
v 0.5 0.145000 0.5
v 0.5 0.245000 -0.5
v -0.5 0.145000 -0.5
v -0.5 0.245000 -0.5
v 0.5 0.145000 -0.5
v 0.5 0.245000 -0.5
v 0.5 0.145000 -0.5
v -0.5 0.245000 -0.5
v 0.5 0.145000 0.5
v 0.5 0.245000 0.5
v -0.5 0.145000 0.5
v -0.5 0.245000 0.5
v -0.5 0.145000 0.5
v 0.5 0.245000 0.5
v 0.5 0.245000 0.5
v 0.364802 0.212704 0.364803
v -0.5 0.245000 0.5
v -0.364809 0.212704 0.364803
v -0.5 0.245000 0.5
v 0.364802 0.212704 0.364803
v 0.5 0.245000 -0.5
v 0.364802 0.212704 -0.364803
v 0.5 0.245000 0.5
v 0.364802 0.212704 0.364803
v 0.5 0.245000 0.5
v 0.364802 0.212704 -0.364803
v -0.5 0.245000 -0.5
v -0.364809 0.212704 -0.364803
v 0.5 0.245000 -0.5
v 0.364802 0.212704 -0.364803
v 0.5 0.245000 -0.5
v -0.364809 0.212704 -0.364803
v -0.5 0.245000 0.5
v -0.364809 0.212704 0.364803
v -0.5 0.245000 -0.5
v -0.364809 0.212704 -0.364803
v -0.5 0.245000 -0.5
v -0.364809 0.212704 0.364803
v 0.364802 0.212704 0.364803
v 0.364802 0.361346 0.364803
v -0.364809 0.212704 0.364803
v -0.364809 0.361345 0.364803
v -0.364809 0.212704 0.364803
v 0.364802 0.361346 0.364803
v 0.364802 0.212704 -0.364803
v 0.364802 0.361346 -0.364803
v 0.364802 0.212704 0.364803
v 0.364802 0.361346 0.364803
v 0.364802 0.212704 0.364803
v 0.364802 0.361346 -0.364803
v -0.364809 0.212704 -0.364803
v -0.364809 0.361346 -0.364803
v 0.364802 0.212704 -0.364803
v 0.364802 0.361346 -0.364803
v 0.364802 0.212704 -0.364803
v -0.364809 0.361346 -0.364803
v -0.364809 0.212704 0.364803
v -0.364809 0.361345 0.364803
v -0.364809 0.212704 -0.364803
v -0.364809 0.361346 -0.364803
v -0.364809 0.212704 -0.364803
v -0.364809 0.361345 0.364803
v 0.364802 0.361346 0.364803
v 0.205636 0.360847 0.205639
v -0.364809 0.361345 0.364803
v -0.205644 0.360847 0.205639
v -0.364809 0.361345 0.364803
v 0.205636 0.360847 0.205639
v 0.364802 0.361346 -0.364803
v 0.205636 0.360847 -0.205639
v 0.364802 0.361346 0.364803
v 0.205636 0.360847 0.205639
v 0.364802 0.361346 0.364803
v 0.205636 0.360847 -0.205639
v -0.364809 0.361346 -0.364803
v -0.205644 0.360847 -0.205639
v 0.364802 0.361346 -0.364803
v 0.205636 0.360847 -0.205639
v 0.364802 0.361346 -0.364803
v -0.205644 0.360847 -0.205639
v -0.364809 0.361345 0.364803
v -0.205644 0.360847 0.205639
v -0.364809 0.361346 -0.364803
v -0.205644 0.360847 -0.205639
v -0.364809 0.361346 -0.364803
v -0.205644 0.360847 0.205639
v 0.205636 0.360847 0.205639
v 0.205636 0.486970 0.205639
v -0.205644 0.360847 0.205639
v -0.205644 0.486970 0.205639
v -0.205644 0.360847 0.205639
v 0.205636 0.486970 0.205639
v 0.205636 0.360847 -0.205639
v 0.205636 0.486970 -0.205639
v 0.205636 0.360847 0.205639
v 0.205636 0.486970 0.205639
v 0.205636 0.360847 0.205639
v 0.205636 0.486970 -0.205639
v -0.205644 0.360847 -0.205639
v -0.205644 0.486970 -0.205639
v 0.205636 0.360847 -0.205639
v 0.205636 0.486970 -0.205639
v 0.205636 0.360847 -0.205639
v -0.205644 0.486970 -0.205639
v -0.205644 0.360847 0.205639
v -0.205644 0.486970 0.205639
v -0.205644 0.360847 -0.205639
v -0.205644 0.486970 -0.205639
v -0.205644 0.360847 -0.205639
v -0.205644 0.486970 0.205639
v 0.205636 0.486970 0.205639
v 0.130107 0.487456 0.13011
v -0.205644 0.486970 0.205639
v -0.130115 0.487456 0.13011
v -0.205644 0.486970 0.205639
v 0.130107 0.487456 0.13011
v 0.205636 0.486970 -0.205639
v 0.130107 0.487456 -0.13011
v 0.205636 0.486970 0.205639
v 0.130107 0.487456 0.13011
v 0.205636 0.486970 0.205639
v 0.130107 0.487456 -0.13011
v -0.205644 0.486970 -0.205639
v -0.130115 0.487456 -0.13011
v 0.205636 0.486970 -0.205639
v 0.130107 0.487456 -0.13011
v 0.205636 0.486970 -0.205639
v -0.130115 0.487456 -0.13011
v -0.205644 0.486970 0.205639
v -0.130115 0.487456 0.13011
v -0.205644 0.486970 -0.205639
v -0.130115 0.487456 -0.13011
v -0.205644 0.486970 -0.205639
v -0.130115 0.487456 0.13011
v 0.130107 0.487456 0.13011
v 0.130107 0.587456 0.13011
v -0.130115 0.487456 0.13011
v -0.130115 0.587456 0.13011
v -0.130115 0.487456 0.13011
v 0.130107 0.587456 0.13011
v 0.130107 0.487456 -0.13011
v 0.130107 0.587456 -0.13011
v 0.130107 0.487456 0.13011
v 0.130107 0.587456 0.13011
v 0.130107 0.487456 0.13011
v 0.130107 0.587456 -0.13011
v -0.130115 0.487456 -0.13011
v -0.130115 0.587456 -0.13011
v 0.130107 0.487456 -0.13011
v 0.130107 0.587456 -0.13011
v 0.130107 0.487456 -0.13011
v -0.130115 0.587456 -0.13011
v -0.130115 0.487456 0.13011
v -0.130115 0.587456 0.13011
v -0.130115 0.487456 -0.13011
v -0.130115 0.587456 -0.13011
v -0.130115 0.487456 -0.13011
v -0.130115 0.587456 0.13011
vt 0.578538 0.902123
vt 0.472903 0.902123
vt 0.578538 0.926296
vt 0.472903 0.926296
vt 0.578538 0.926296
vt 0.472903 0.902123
vt 0.578538 0.926296
vt 0.472903 0.926296
vt 0.578538 0.902123
vt 0.472903 0.902123
vt 0.578538 0.902123
vt 0.472903 0.926296
vt 0.472764 0.902136
vt 0.580009 0.902136
vt 0.472747 0.926025
vt 0.580025 0.926025
vt 0.472747 0.926025
vt 0.580009 0.902136
vt 0.580009 0.902136
vt 0.472764 0.902136
vt 0.580025 0.926025
vt 0.472747 0.926025
vt 0.580025 0.926025
vt 0.472764 0.902136
vt 0.082116 0.218518
vt 0.082116 0.167079
vt 0.133555 0.218518
vt 0.082116 0.167079
vt 0.133555 0.167079
vt 0.133555 0.218518
vt 0.206673 0.291636
vt 0.161996 0.290756
vt 0.206673 0.093961
vt 0.161996 0.094841
vt 0.206673 0.093961
vt 0.161996 0.290756
vt 0.008998 0.093961
vt 0.053675 0.094841
vt 0.008998 0.291636
vt 0.053675 0.290756
vt 0.008998 0.291636
vt 0.053675 0.094841
vt 0.008998 0.291636
vt 0.009878 0.246959
vt 0.206673 0.291636
vt 0.205794 0.246959
vt 0.206673 0.291636
vt 0.009878 0.246959
vt 0.008998 0.291636
vt 0.009878 0.246959
vt 0.206673 0.291636
vt 0.205793 0.246959
vt 0.206673 0.291636
vt 0.009878 0.246959
vt 0.009878 0.290756
vt 0.035723 0.264911
vt 0.205793 0.290756
vt 0.179948 0.264911
vt 0.205793 0.290756
vt 0.035723 0.264911
vt 0.009878 0.094841
vt 0.035723 0.120686
vt 0.009878 0.290756
vt 0.035723 0.264911
vt 0.009878 0.290756
vt 0.035723 0.120686
vt 0.205793 0.094841
vt 0.179948 0.120686
vt 0.009878 0.094841
vt 0.035723 0.120686
vt 0.009878 0.094841
vt 0.179948 0.120686
vt 0.205793 0.290756
vt 0.179948 0.264911
vt 0.205793 0.094841
vt 0.179948 0.120686
vt 0.205793 0.094841
vt 0.179948 0.264911
vt 0.035723 0.261388
vt 0.035723 0.194980
vt 0.179948 0.261388
vt 0.179948 0.194980
vt 0.179948 0.261388
vt 0.035723 0.194980
vt 0.039246 0.120686
vt 0.105654 0.120686
vt 0.039246 0.264911
vt 0.105654 0.264911
vt 0.039246 0.264911
vt 0.105654 0.120686
vt 0.035723 0.261388
vt 0.035723 0.194980
vt 0.179948 0.261388
vt 0.179948 0.194980
vt 0.179948 0.261388
vt 0.035723 0.194980
vt 0.176425 0.264911
vt 0.110017 0.264911
vt 0.176425 0.120686
vt 0.110017 0.120686
vt 0.176425 0.120686
vt 0.110017 0.264911
vt 0.035723 0.264911
vt 0.067186 0.233448
vt 0.179948 0.264911
vt 0.148485 0.233448
vt 0.179948 0.264911
vt 0.067186 0.233448
vt 0.035723 0.120686
vt 0.067186 0.152149
vt 0.035723 0.264911
vt 0.067186 0.233448
vt 0.035723 0.264911
vt 0.067186 0.152149
vt 0.179948 0.120686
vt 0.148485 0.152149
vt 0.035723 0.120686
vt 0.067186 0.152149
vt 0.035723 0.120686
vt 0.148485 0.152149
vt 0.179948 0.264911
vt 0.148485 0.233448
vt 0.179948 0.120686
vt 0.148485 0.152149
vt 0.179948 0.120686
vt 0.148485 0.233448
vt 0.067186 0.195203
vt 0.067186 0.138855
vt 0.148485 0.195203
vt 0.148485 0.138855
vt 0.148485 0.195203
vt 0.067186 0.138855
vt 0.105432 0.152149
vt 0.161779 0.152149
vt 0.105432 0.233448
vt 0.161779 0.233448
vt 0.105432 0.233448
vt 0.161779 0.152149
vt 0.067186 0.195203
vt 0.067186 0.138855
vt 0.148485 0.195203
vt 0.148485 0.138855
vt 0.148485 0.195203
vt 0.067186 0.138855
vt 0.110240 0.233448
vt 0.053892 0.233448
vt 0.110240 0.152149
vt 0.053892 0.152149
vt 0.110240 0.152149
vt 0.053892 0.233448
vt 0.067186 0.233448
vt 0.082116 0.218518
vt 0.148485 0.233448
vt 0.133555 0.218518
vt 0.148485 0.233448
vt 0.082116 0.218518
vt 0.067186 0.152149
vt 0.082116 0.167079
vt 0.067186 0.233448
vt 0.082116 0.218518
vt 0.067186 0.233448
vt 0.082116 0.167079
vt 0.148485 0.152149
vt 0.133555 0.167079
vt 0.067186 0.152149
vt 0.082116 0.167079
vt 0.067186 0.152149
vt 0.133555 0.167079
vt 0.148485 0.233448
vt 0.133555 0.218518
vt 0.148485 0.152149
vt 0.133555 0.167079
vt 0.148485 0.152149
vt 0.133555 0.218518
vt 0.082116 0.138638
vt 0.082116 0.093961
vt 0.133555 0.138638
vt 0.133555 0.093961
vt 0.133555 0.138638
vt 0.082116 0.093961
vt 0.161996 0.167079
vt 0.206673 0.167079
vt 0.161996 0.218518
vt 0.206673 0.218518
vt 0.161996 0.218518
vt 0.206673 0.167079
vt 0.082116 0.138638
vt 0.082116 0.093961
vt 0.133555 0.138638
vt 0.133555 0.093961
vt 0.133555 0.138638
vt 0.082116 0.093961
vt 0.053675 0.218518
vt 0.008998 0.218518
vt 0.053675 0.167079
vt 0.008998 0.167079
vt 0.053675 0.167079
vt 0.008998 0.218518
vn -1.000000 -0.000022 0.000000
vn -1.000000 -0.000022 0.000000
vn -1.000000 -0.000022 0.000000
vn -1.000000 -0.000022 0.000000
vn -1.000000 -0.000022 0.000000
vn -1.000000 -0.000022 0.000000
vn 1.000000 0.000000 0.000000
vn 1.000000 0.000000 0.000000
vn 1.000000 0.000000 0.000000
vn 1.000000 0.000000 0.000000
vn 1.000000 0.000000 0.000000
vn 1.000000 0.000000 0.000000
vn 0.000000 0.000000 -1.000000
vn 0.000000 0.000000 -1.000000
vn 0.000000 0.000000 -1.000000
vn 0.000000 0.000000 -1.000000
vn 0.000000 0.000000 -1.000000
vn 0.000000 0.000000 -1.000000
vn 0.000000 0.000000 1.000000
vn 0.000000 0.000000 1.000000
vn 0.000000 0.000000 1.000000
vn 0.000000 0.000000 1.000000
vn 0.000000 0.000000 1.000000
vn 0.000000 0.000000 1.000000
vn 0.000000 1.000000 0.000000
vn 0.000000 1.000000 0.000000
vn 0.000000 1.000000 0.000000
vn 0.000000 1.000000 0.000000
vn 0.000000 1.000000 0.000000
vn 0.000000 1.000000 0.000000
vn -0.999011 0.044456 0.000000
vn -0.999011 0.044456 0.000000
vn -0.999011 0.044456 0.000000
vn -0.999011 0.044457 0.000000
vn -0.999011 0.044456 0.000000
vn -0.999011 0.044456 0.000000
vn 0.999011 0.044456 0.000000
vn 0.999011 0.044456 0.000000
vn 0.999011 0.044456 0.000000
vn 0.999011 0.044457 0.000000
vn 0.999011 0.044456 0.000000
vn 0.999011 0.044456 0.000000
vn 0.000000 0.044456 -0.999011
vn 0.000000 0.044456 -0.999011
vn 0.000000 0.044456 -0.999011
vn 0.000000 0.044456 -0.999011
vn 0.000000 0.044456 -0.999011
vn 0.000000 0.044456 -0.999011
vn 0.000000 0.044456 0.999011
vn 0.000000 0.044456 0.999011
vn 0.000000 0.044456 0.999011
vn 0.000000 0.044456 0.999011
vn 0.000000 0.044456 0.999011
vn 0.000000 0.044456 0.999011
vn 0.000000 0.970822 -0.239803
vn 0.000000 0.970822 -0.239803
vn 0.000000 0.970822 -0.239803
vn 0.000000 0.970822 -0.239803
vn 0.000000 0.970822 -0.239803
vn 0.000000 0.970822 -0.239803
vn -0.239801 0.970822 0.000000
vn -0.239801 0.970822 0.000000
vn -0.239801 0.970822 0.000000
vn -0.239801 0.970822 0.000000
vn -0.239801 0.970822 0.000000
vn -0.239801 0.970822 0.000000
vn 0.000000 0.970822 0.239803
vn 0.000000 0.970822 0.239803
vn 0.000000 0.970822 0.239803
vn 0.000000 0.970822 0.239803
vn 0.000000 0.970822 0.239803
vn 0.000000 0.970822 0.239803
vn 0.239801 0.970822 0.000000
vn 0.239801 0.970822 0.000000
vn 0.239801 0.970822 0.000000
vn 0.239801 0.970822 0.000000
vn 0.239801 0.970822 0.000000
vn 0.239801 0.970822 0.000000
vn 0.000000 0.000000 1.000000
vn 0.000000 0.000000 1.000000
vn 0.000000 0.000000 1.000000
vn 0.000000 0.000000 1.000000
vn 0.000000 0.000000 1.000000
vn 0.000000 0.000000 1.000000
vn 1.000000 0.000000 0.000000
vn 1.000000 0.000000 0.000000
vn 1.000000 0.000000 0.000000
vn 1.000000 0.000000 0.000000
vn 1.000000 0.000000 0.000000
vn 1.000000 0.000000 0.000000
vn 0.000000 0.000000 -1.000000
vn 0.000000 0.000000 -1.000000
vn 0.000000 0.000000 -1.000000
vn 0.000000 0.000000 -1.000000
vn 0.000000 0.000000 -1.000000
vn 0.000000 0.000000 -1.000000
vn -1.000000 0.000000 0.000000
vn -1.000000 0.000000 0.000000
vn -1.000000 0.000000 0.000000
vn -1.000000 0.000000 0.000000
vn -1.000000 0.000000 0.000000
vn -1.000000 0.000000 0.000000
vn 0.000000 0.999995 -0.003131
vn 0.000000 0.999995 -0.003131
vn 0.000000 0.999995 -0.003131
vn 0.000000 0.999995 -0.003131
vn 0.000000 0.999995 -0.003131
vn 0.000000 0.999995 -0.003131
vn -0.003131 0.999995 0.000000
vn -0.003131 0.999995 0.000000
vn -0.003131 0.999995 0.000000
vn -0.003131 0.999995 0.000000
vn -0.003131 0.999995 0.000000
vn -0.003131 0.999995 0.000000
vn 0.000000 0.999995 0.003131
vn 0.000000 0.999995 0.003131
vn 0.000000 0.999995 0.003131
vn 0.000000 0.999995 0.003131
vn 0.000000 0.999995 0.003131
vn 0.000000 0.999995 0.003131
vn 0.003131 0.999995 0.000000
vn 0.003131 0.999995 0.000000
vn 0.003131 0.999995 0.000000
vn 0.003131 0.999995 0.000000
vn 0.003131 0.999995 0.000000
vn 0.003131 0.999995 0.000000
vn 0.000000 0.000000 1.000000
vn 0.000000 0.000000 1.000000
vn 0.000000 0.000000 1.000000
vn 0.000000 0.000000 1.000000
vn 0.000000 0.000000 1.000000
vn 0.000000 0.000000 1.000000
vn 1.000000 0.000000 0.000000
vn 1.000000 0.000000 0.000000
vn 1.000000 0.000000 0.000000
vn 1.000000 0.000000 0.000000
vn 1.000000 0.000000 0.000000
vn 1.000000 0.000000 0.000000
vn 0.000000 0.000000 -1.000000
vn 0.000000 0.000000 -1.000000
vn 0.000000 0.000000 -1.000000
vn 0.000000 0.000000 -1.000000
vn 0.000000 0.000000 -1.000000
vn 0.000000 0.000000 -1.000000
vn -1.000000 0.000000 0.000000
vn -1.000000 0.000000 0.000000
vn -1.000000 0.000000 0.000000
vn -1.000000 0.000000 0.000000
vn -1.000000 0.000000 0.000000
vn -1.000000 0.000000 0.000000
vn 0.000000 0.999979 0.006439
vn 0.000000 0.999979 0.006439
vn 0.000000 0.999979 0.006439
vn 0.000000 0.999979 0.006439
vn 0.000000 0.999979 0.006439
vn 0.000000 0.999979 0.006439
vn 0.006439 0.999979 0.000000
vn 0.006439 0.999979 0.000000
vn 0.006439 0.999979 0.000000
vn 0.006439 0.999979 0.000000
vn 0.006439 0.999979 0.000000
vn 0.006439 0.999979 0.000000
vn 0.000000 0.999979 -0.006439
vn 0.000000 0.999979 -0.006439
vn 0.000000 0.999979 -0.006439
vn 0.000000 0.999979 -0.006439
vn 0.000000 0.999979 -0.006439
vn 0.000000 0.999979 -0.006439
vn -0.006439 0.999979 0.000000
vn -0.006439 0.999979 0.000000
vn -0.006439 0.999979 0.000000
vn -0.006439 0.999979 0.000000
vn -0.006439 0.999979 0.000000
vn -0.006439 0.999979 0.000000
vn 0.000000 0.000000 1.000000
vn 0.000000 0.000000 1.000000
vn 0.000000 0.000000 1.000000
vn 0.000000 0.000000 1.000000
vn 0.000000 0.000000 1.000000
vn 0.000000 0.000000 1.000000
vn 1.000000 0.000000 0.000000
vn 1.000000 0.000000 0.000000
vn 1.000000 0.000000 0.000000
vn 1.000000 0.000000 0.000000
vn 1.000000 0.000000 0.000000
vn 1.000000 0.000000 0.000000
vn 0.000000 0.000000 -1.000000
vn 0.000000 0.000000 -1.000000
vn 0.000000 0.000000 -1.000000
vn 0.000000 0.000000 -1.000000
vn 0.000000 0.000000 -1.000000
vn 0.000000 0.000000 -1.000000
vn -1.000000 0.000000 0.000000
vn -1.000000 0.000000 0.000000
vn -1.000000 0.000000 0.000000
vn -1.000000 0.000000 0.000000
vn -1.000000 0.000000 0.000000
vn -1.000000 0.000000 0.000000
o tile_boundary_pyr
o tile_boundary_pyr
usemtl PDX01_-_Default
f 1/1/1 2/2/2 3/3/3
f 4/4/4 5/5/5 6/6/6
f 7/7/7 8/8/8 9/9/9
f 10/10/10 11/11/11 12/12/12
f 13/13/13 14/14/14 15/15/15
f 16/16/16 17/17/17 18/18/18
f 19/19/19 20/20/20 21/21/21
f 22/22/22 23/23/23 24/24/24
f 25/25/25 26/26/26 27/27/27
f 28/28/28 29/29/29 30/30/30
f 31/31/31 32/32/32 33/33/33
f 34/34/34 35/35/35 36/36/36
f 37/37/37 38/38/38 39/39/39
f 40/40/40 41/41/41 42/42/42
f 43/43/43 44/44/44 45/45/45
f 46/46/46 47/47/47 48/48/48
f 49/49/49 50/50/50 51/51/51
f 52/52/52 53/53/53 54/54/54
f 55/55/55 56/56/56 57/57/57
f 58/58/58 59/59/59 60/60/60
f 61/61/61 62/62/62 63/63/63
f 64/64/64 65/65/65 66/66/66
f 67/67/67 68/68/68 69/69/69
f 70/70/70 71/71/71 72/72/72
f 73/73/73 74/74/74 75/75/75
f 76/76/76 77/77/77 78/78/78
f 79/79/79 80/80/80 81/81/81
f 82/82/82 83/83/83 84/84/84
f 85/85/85 86/86/86 87/87/87
f 88/88/88 89/89/89 90/90/90
f 91/91/91 92/92/92 93/93/93
f 94/94/94 95/95/95 96/96/96
f 97/97/97 98/98/98 99/99/99
f 100/100/100 101/101/101 102/102/102
f 103/103/103 104/104/104 105/105/105
f 106/106/106 107/107/107 108/108/108
f 109/109/109 110/110/110 111/111/111
f 112/112/112 113/113/113 114/114/114
f 115/115/115 116/116/116 117/117/117
f 118/118/118 119/119/119 120/120/120
f 121/121/121 122/122/122 123/123/123
f 124/124/124 125/125/125 126/126/126
f 127/127/127 128/128/128 129/129/129
f 130/130/130 131/131/131 132/132/132
f 133/133/133 134/134/134 135/135/135
f 136/136/136 137/137/137 138/138/138
f 139/139/139 140/140/140 141/141/141
f 142/142/142 143/143/143 144/144/144
f 145/145/145 146/146/146 147/147/147
f 148/148/148 149/149/149 150/150/150
f 151/151/151 152/152/152 153/153/153
f 154/154/154 155/155/155 156/156/156
f 157/157/157 158/158/158 159/159/159
f 160/160/160 161/161/161 162/162/162
f 163/163/163 164/164/164 165/165/165
f 166/166/166 167/167/167 168/168/168
f 169/169/169 170/170/170 171/171/171
f 172/172/172 173/173/173 174/174/174
f 175/175/175 176/176/176 177/177/177
f 178/178/178 179/179/179 180/180/180
f 181/181/181 182/182/182 183/183/183
f 184/184/184 185/185/185 186/186/186
f 187/187/187 188/188/188 189/189/189
f 190/190/190 191/191/191 192/192/192
f 193/193/193 194/194/194 195/195/195
f 196/196/196 197/197/197 198/198/198
