# Modified by OBJRotate180 (Mesh rotated 180 degrees around Y-axis)
# Original file: jun_tile_stone_corner.obj
mtllib Materials/jun_tile_stone_corner.mtl
v -0.5 -0.200000 0.5
v 0.5 -0.200000 0.5
v -0.333923 0.000000 0.5
v 0.333944 0.000000 0.5
v -0.333923 0.000000 0.5
v 0.5 -0.200000 0.5
v -0.333923 0.000000 0.5
v -0.444776 0.145000 0.5
v -0.5 -0.200000 0.5
v -0.5 0.195000 0.5
v -0.5 -0.200000 0.5
v -0.444776 0.145000 0.5
v 0.5 -0.200000 0.5
v 0.5 0.195000 0.5
v 0.333944 0.000000 0.5
v 0.444783 0.145000 0.5
v 0.333944 0.000000 0.5
v 0.5 0.195000 0.5
v -0.5 -0.200000 -0.5
v -0.5 -0.200000 0.5
v -0.5 0.000000 -0.333923
v -0.5 0.000000 0.333944
v -0.5 0.000000 -0.333923
v -0.5 -0.200000 0.5
v -0.336048 0.000000 0.336079
v -0.5 0.000000 0.333944
v -0.444776 0.145000 0.443707
v -0.5 0.145000 0.443728
v -0.444776 0.145000 0.443707
v -0.5 0.000000 0.333944
v -0.444776 0.145000 0.5
v -0.333923 0.000000 0.5
v -0.444776 0.145000 0.443707
v -0.336048 0.000000 0.336079
v -0.444776 0.145000 0.443707
v -0.333923 0.000000 0.5
v -0.444776 0.195000 0.5
v -0.444776 0.195000 0.443707
v -0.5 0.195000 0.5
v -0.5 0.195000 0.443728
v -0.5 0.195000 0.5
v -0.444776 0.195000 0.443707
v -0.336048 0.000000 0.336079
v 0 0.000000 -0.329731
v -0.5 0.000000 0.333944
v -0.5 0.000000 -0.333923
v -0.5 0.000000 0.333944
v 0 0.000000 -0.329731
v -0.5 0.145000 -0.44372
v -0.5 0.000000 -0.333923
v 0 0.145000 -0.443723
v 0 0.000000 -0.329731
v 0 0.145000 -0.443723
v -0.5 0.000000 -0.333923
v 0.329737 0.000000 0
v 0.333944 0.000000 0.5
v 0.444779 0.145000 0
v 0.444783 0.145000 0.5
v 0.444779 0.145000 0
v 0.333944 0.000000 0.5
v -0.333923 0.000000 0.5
v 0.333944 0.000000 0.5
v -0.336048 0.000000 0.336079
v 0.329737 0.000000 0
v -0.336048 0.000000 0.336079
v 0.333944 0.000000 0.5
v 0 0.000000 -0.329731
v -0.336048 0.000000 0.336079
v 0.163331 0.000000 -0.285642
v 0 0.145000 -0.443723
v 0 0.000000 -0.329731
v 0.229063 0.145000 -0.377952
v 0.163331 0.000000 -0.285642
v 0.229063 0.145000 -0.377952
v 0 0.000000 -0.329731
v -0.5 0.195000 -0.5
v 0 0.195000 -0.443723
v 0.5 0.195000 -0.5
v -0.5 0.195000 -0.44372
v 0 0.195000 -0.443723
v -0.5 0.195000 -0.5
v 0.444779 0.195000 0
v 0.5 0.195000 0.5
v 0.5 0.195000 -0.5
v 0.444783 0.195000 0.5
v 0.5 0.195000 0.5
v 0.444779 0.195000 0
v 0 0.195000 -0.443723
v 0.229063 0.195000 -0.377952
v 0.5 0.195000 -0.5
v 0.5 -0.200000 -0.5
v -0.5 -0.200000 -0.5
v 0.5 0.195000 -0.5
v -0.5 0.195000 -0.5
v 0.5 0.195000 -0.5
v -0.5 -0.200000 -0.5
v 0.5 -0.200000 0.5
v 0.5 -0.200000 -0.5
v 0.5 0.195000 0.5
v 0.5 0.195000 -0.5
v 0.5 0.195000 0.5
v 0.5 -0.200000 -0.5
v -0.5 0.145000 0.443728
v -0.5 0.000000 0.333944
v -0.5 0.195000 0.5
v -0.5 -0.200000 0.5
v -0.5 0.195000 0.5
v -0.5 0.000000 0.333944
v -0.5 -0.200000 -0.5
v -0.5 0.000000 -0.333923
v -0.5 0.195000 -0.5
v -0.5 0.145000 -0.44372
v -0.5 0.195000 -0.5
v -0.5 0.000000 -0.333923
v 0.286102 0.000000 -0.162713
v -0.336048 0.000000 0.336079
v 0.329737 0.000000 0
v 0.286102 0.000000 -0.162713
v 0.329737 0.000000 0
v 0.392338 0.145000 -0.216095
v 0.444779 0.145000 0
v 0.392338 0.145000 -0.216095
v 0.329737 0.000000 0
v 0.5 0.195000 -0.5
v 0.392338 0.195000 -0.216095
v 0.444779 0.195000 0
v 0.5 0.195000 -0.5
v 0.229063 0.195000 -0.377952
v 0.392338 0.195000 -0.216095
v 0.163331 0.000000 -0.285642
v 0.286102 0.000000 -0.162713
v 0.229063 0.145000 -0.377952
v 0.392338 0.145000 -0.216095
v 0.229063 0.145000 -0.377952
v 0.286102 0.000000 -0.162713
v 0.286102 0.000000 -0.162713
v 0.163331 0.000000 -0.285642
v -0.336048 0.000000 0.336079
v -0.444776 0.145000 0.5
v -0.444776 0.195000 0.5
v -0.5 0.195000 0.5
v 0.444783 0.195000 0.5
v 0.444783 0.145000 0.5
v 0.5 0.195000 0.5
v -0.5 0.145000 0.443728
v -0.5 0.195000 0.443728
v -0.444776 0.145000 0.443707
v -0.444776 0.195000 0.443707
v -0.444776 0.145000 0.443707
v -0.5 0.195000 0.443728
v -0.444776 0.145000 0.443707
v -0.444776 0.195000 0.443707
v -0.444776 0.145000 0.5
v -0.444776 0.195000 0.5
v -0.444776 0.145000 0.5
v -0.444776 0.195000 0.443707
v -0.5 0.195000 0.443728
v -0.5 0.145000 0.443728
v -0.5 0.195000 0.5
v 0 0.145000 -0.443723
v 0 0.195000 -0.443723
v -0.5 0.145000 -0.44372
v -0.5 0.195000 -0.44372
v -0.5 0.145000 -0.44372
v 0 0.195000 -0.443723
v 0.444783 0.145000 0.5
v 0.444783 0.195000 0.5
v 0.444779 0.145000 0
v 0.444779 0.195000 0
v 0.444779 0.145000 0
v 0.444783 0.195000 0.5
v 0.229063 0.145000 -0.377952
v 0.229063 0.195000 -0.377952
v 0 0.145000 -0.443723
v 0 0.195000 -0.443723
v 0 0.145000 -0.443723
v 0.229063 0.195000 -0.377952
v -0.5 0.145000 -0.44372
v -0.5 0.195000 -0.44372
v -0.5 0.195000 -0.5
v 0.444779 0.145000 0
v 0.444779 0.195000 0
v 0.392338 0.145000 -0.216095
v 0.392338 0.195000 -0.216095
v 0.392338 0.145000 -0.216095
v 0.444779 0.195000 0
v 0.392338 0.145000 -0.216095
v 0.392338 0.195000 -0.216095
v 0.229063 0.145000 -0.377952
v 0.229063 0.195000 -0.377952
v 0.229063 0.145000 -0.377952
v 0.392338 0.195000 -0.216095
vt 0.261658 0.708581
vt 0.147535 0.708581
vt 0.242705 0.731515
vt 0.166486 0.731515
vt 0.242705 0.731515
vt 0.147535 0.708581
vt 0.242705 0.731515
vt 0.255356 0.748142
vt 0.261658 0.708581
vt 0.261658 0.753876
vt 0.261658 0.708581
vt 0.255356 0.748142
vt 0.147535 0.708581
vt 0.147535 0.753876
vt 0.166486 0.731515
vt 0.153837 0.748142
vt 0.166486 0.731515
vt 0.147535 0.753876
vt 0.147056 0.709213
vt 0.262532 0.709213
vt 0.166234 0.732345
vt 0.243356 0.732345
vt 0.166234 0.732345
vt 0.262532 0.709213
vt 0.359507 0.708618
vt 0.393690 0.708605
vt 0.376051 0.756826
vt 0.393328 0.756613
vt 0.376051 0.756826
vt 0.393690 0.708605
vt 0.393576 0.756582
vt 0.393363 0.708610
vt 0.376192 0.756856
vt 0.359894 0.708618
vt 0.376192 0.756856
vt 0.393363 0.708610
vt 0.436096 0.972352
vt 0.450740 0.957708
vt 0.451489 0.987745
vt 0.466130 0.973103
vt 0.451489 0.987745
vt 0.450740 0.957708
vt 0.946275 0.903040
vt 0.867736 0.943851
vt 0.946272 0.884411
vt 0.867736 0.884411
vt 0.946272 0.884411
vt 0.867736 0.943851
vt 0.867100 0.759675
vt 0.867135 0.713180
vt 0.789751 0.759466
vt 0.789817 0.713309
vt 0.789751 0.759466
vt 0.867135 0.713180
vt 0.699543 0.713205
vt 0.623521 0.713143
vt 0.700941 0.759427
vt 0.623546 0.759380
vt 0.700941 0.759427
vt 0.623521 0.713143
vt 0.964583 0.903040
vt 0.964583 0.986433
vt 0.946275 0.903040
vt 0.908942 0.986433
vt 0.946275 0.903040
vt 0.964583 0.986433
vt 0.867736 0.943851
vt 0.946275 0.903040
vt 0.871477 0.969753
vt 0.789751 0.759466
vt 0.789817 0.713309
vt 0.765013 0.759439
vt 0.763057 0.713216
vt 0.765013 0.759439
vt 0.789817 0.713309
vt 0.410690 0.835298
vt 0.430708 0.911802
vt 0.410690 0.988559
vt 0.430708 0.835298
vt 0.430708 0.911802
vt 0.410690 0.835298
vt 0.489077 0.967140
vt 0.566593 0.988559
vt 0.410690 0.988559
vt 0.566593 0.967140
vt 0.566593 0.988559
vt 0.489077 0.967140
vt 0.430708 0.911802
vt 0.436433 0.942424
vt 0.410690 0.988559
vt 0.147535 0.708580
vt 0.261658 0.708581
vt 0.147535 0.753876
vt 0.261658 0.753876
vt 0.147535 0.753876
vt 0.261658 0.708581
vt 0.262532 0.709213
vt 0.147056 0.709213
vt 0.262532 0.754899
vt 0.147056 0.754899
vt 0.262532 0.754899
vt 0.147056 0.709213
vt 0.256033 0.749116
vt 0.243356 0.732345
vt 0.262532 0.754899
vt 0.262532 0.709213
vt 0.262532 0.754899
vt 0.243356 0.732345
vt 0.147056 0.709213
vt 0.166234 0.732345
vt 0.147056 0.754899
vt 0.153555 0.749116
vt 0.147056 0.754899
vt 0.166234 0.732345
vt 0.887392 0.983765
vt 0.946275 0.903040
vt 0.908942 0.986433
vt 0.724090 0.713218
vt 0.699543 0.713205
vt 0.724216 0.759342
vt 0.700941 0.759427
vt 0.724216 0.759342
vt 0.699543 0.713205
vt 0.410690 0.988559
vt 0.458567 0.964523
vt 0.489077 0.967140
vt 0.410690 0.988559
vt 0.436433 0.942424
vt 0.458567 0.964523
vt 0.763057 0.713216
vt 0.724090 0.713218
vt 0.765013 0.759439
vt 0.724216 0.759342
vt 0.765013 0.759439
vt 0.724090 0.713218
vt 0.887392 0.983765
vt 0.871477 0.969753
vt 0.946275 0.903040
vt 0.255356 0.748142
vt 0.255356 0.753876
vt 0.261658 0.753876
vt 0.153837 0.753876
vt 0.153837 0.748142
vt 0.147535 0.753876
vt 0.808078 0.762364
vt 0.808078 0.782507
vt 0.828048 0.762364
vt 0.828048 0.782507
vt 0.828048 0.762364
vt 0.808078 0.782507
vt 0.828048 0.762364
vt 0.828048 0.782507
vt 0.847953 0.762366
vt 0.847953 0.782509
vt 0.847953 0.762366
vt 0.828048 0.782507
vt 0.256033 0.754899
vt 0.256033 0.749116
vt 0.262532 0.754899
vt 0.643972 0.762255
vt 0.643972 0.782398
vt 0.554675 0.762255
vt 0.554675 0.782398
vt 0.554675 0.762255
vt 0.643972 0.782398
vt 0.867362 0.762366
vt 0.867362 0.782509
vt 0.782143 0.762366
vt 0.782143 0.782509
vt 0.782143 0.762366
vt 0.867362 0.782509
vt 0.696966 0.762255
vt 0.696966 0.782398
vt 0.643972 0.762255
vt 0.643972 0.782398
vt 0.643972 0.762255
vt 0.696966 0.782398
vt 0.153555 0.749116
vt 0.153555 0.754899
vt 0.147056 0.754899
vt 0.782143 0.762366
vt 0.782143 0.782509
vt 0.744213 0.762366
vt 0.744213 0.782509
vt 0.744213 0.762366
vt 0.782143 0.782509
vt 0.744213 0.762366
vt 0.744213 0.782509
vt 0.696966 0.762255
vt 0.696966 0.782398
vt 0.696966 0.762255
vt 0.744213 0.782509
vn 0.000007 -0.000023 1.000000
vn 0.000007 -0.000023 1.000000
vn 0.000007 -0.000023 1.000000
vn 0.000021 0.000034 1.000000
vn 0.000021 0.000034 1.000000
vn 0.000021 0.000034 1.000000
vn -0.000027 0.000006 1.000000
vn -0.000027 0.000006 1.000000
vn -0.000027 0.000006 1.000000
vn 0.000004 0.000001 1.000000
vn 0.000004 0.000001 1.000000
vn 0.000004 0.000001 1.000000
vn -0.000020 0.000000 1.000000
vn -0.000020 0.000000 1.000000
vn -0.000020 0.000000 1.000000
vn 0.000081 -0.000085 1.000000
vn 0.000081 -0.000085 1.000000
vn 0.000081 -0.000085 1.000000
vn -1.000000 -0.000023 0.000007
vn -1.000000 -0.000023 0.000007
vn -1.000000 -0.000023 0.000007
vn -1.000000 0.000034 0.000021
vn -1.000000 0.000034 0.000021
vn -1.000000 0.000034 0.000021
vn 0.486982 0.725799 -0.485865
vn 0.008395 0.601505 -0.798825
vn 0.481751 0.729868 -0.484983
vn -0.000293 0.603632 -0.797263
vn 0.481751 0.729868 -0.484983
vn 0.008395 0.601505 -0.798825
vn 0.794435 0.607349 -0.000004
vn 0.795968 0.605281 -0.008348
vn 0.481751 0.729868 -0.484983
vn 0.486982 0.725799 -0.485865
vn 0.481751 0.729868 -0.484983
vn 0.795968 0.605281 -0.008348
vn 0.000000 1.000000 0.000000
vn 0.000000 1.000000 0.000000
vn 0.000000 1.000000 0.000000
vn 0.000001 1.000000 0.000001
vn 0.000000 1.000000 0.000000
vn 0.000000 1.000000 0.000000
vn 0.000000 1.000000 0.000000
vn 0.000000 1.000000 0.000000
vn 0.000000 1.000000 0.000000
vn 0.000000 1.000000 0.000000
vn 0.000000 1.000000 0.000000
vn 0.000000 1.000000 0.000000
vn 0.000006 0.603675 0.797230
vn -0.001485 0.606938 0.794748
vn -0.108014 0.614188 0.781733
vn -0.115187 0.611825 0.782562
vn -0.108014 0.614188 0.781733
vn -0.001485 0.606938 0.794748
vn -0.775507 0.622835 0.103275
vn -0.791979 0.610547 0.001500
vn -0.780345 0.618442 0.092687
vn -0.794471 0.607302 0.000006
vn -0.780345 0.618442 0.092687
vn -0.791979 0.610547 0.001500
vn 0.000000 1.000000 0.000000
vn 0.000000 1.000000 0.000000
vn 0.000000 1.000000 0.000000
vn 0.000000 1.000000 0.000000
vn 0.000000 1.000000 0.000000
vn 0.000000 1.000000 0.000000
vn 0.000000 1.000000 0.000000
vn 0.000000 1.000000 0.000000
vn 0.000000 1.000000 0.000000
vn -0.108014 0.614188 0.781733
vn -0.115187 0.611825 0.782562
vn -0.400508 0.618369 0.676175
vn -0.386111 0.613549 0.688822
vn -0.400508 0.618369 0.676175
vn -0.115187 0.611825 0.782562
vn 0.000000 1.000000 0.000000
vn -0.093750 0.739861 0.666196
vn 0.000000 1.000000 0.000000
vn 0.000005 0.707106 0.707107
vn -0.093750 0.739861 0.666196
vn 0.000000 1.000000 0.000000
vn -0.673439 0.734841 0.080556
vn 0.000000 1.000000 0.000000
vn 0.000000 1.000000 0.000000
vn -0.707106 0.707108 0.000005
vn 0.000000 1.000000 0.000000
vn -0.673439 0.734841 0.080556
vn -0.093750 0.739861 0.666196
vn -0.324290 0.767440 0.553056
vn 0.000000 1.000000 0.000000
vn -0.000007 -0.000001 -1.000000
vn -0.000007 -0.000001 -1.000000
vn -0.000007 -0.000001 -1.000000
vn -0.000007 0.000000 -1.000000
vn -0.000007 -0.000001 -1.000000
vn -0.000007 -0.000001 -1.000000
vn 1.000000 0.000000 -0.000007
vn 1.000000 0.000000 -0.000007
vn 1.000000 0.000000 -0.000007
vn 1.000000 0.000000 -0.000007
vn 1.000000 0.000000 -0.000007
vn 1.000000 0.000000 -0.000007
vn -1.000000 -0.000090 0.000085
vn -1.000000 -0.000090 0.000085
vn -1.000000 -0.000090 0.000085
vn -1.000000 0.000000 -0.000020
vn -1.000000 0.000000 -0.000020
vn -1.000000 0.000000 -0.000020
vn -1.000000 0.000000 -0.000020
vn -1.000000 0.000000 -0.000020
vn -1.000000 0.000000 -0.000020
vn -1.000000 0.000088 0.000083
vn -1.000000 0.000088 0.000083
vn -1.000000 0.000088 0.000083
vn 0.000000 1.000000 0.000000
vn 0.000000 1.000000 0.000000
vn 0.000000 1.000000 0.000000
vn -0.668481 0.632438 0.391350
vn -0.775507 0.622835 0.103275
vn -0.676036 0.630693 0.381054
vn -0.780345 0.618442 0.092687
vn -0.676036 0.630693 0.381054
vn -0.775507 0.622835 0.103275
vn 0.000000 1.000000 0.000000
vn -0.551556 0.773845 0.311367
vn -0.673439 0.734841 0.080556
vn 0.000000 1.000000 0.000000
vn -0.324290 0.767440 0.553056
vn -0.551556 0.773845 0.311367
vn -0.386111 0.613549 0.688822
vn -0.668481 0.632438 0.391350
vn -0.400508 0.618369 0.676175
vn -0.676036 0.630693 0.381054
vn -0.400508 0.618369 0.676175
vn -0.668481 0.632438 0.391350
vn 0.000000 1.000000 0.000000
vn 0.000000 1.000000 0.000000
vn 0.000000 1.000000 0.000000
vn 0.000004 0.000001 1.000000
vn 0.000004 0.000000 1.000000
vn 0.000004 0.000001 1.000000
vn 0.000004 0.000000 1.000000
vn 0.000004 0.000000 1.000000
vn 0.000004 0.000000 1.000000
vn -0.000368 0.000000 -1.000000
vn -0.000368 0.000000 -1.000000
vn -0.000368 0.000000 -1.000000
vn -0.000368 0.000000 -1.000000
vn -0.000368 0.000000 -1.000000
vn -0.000368 0.000000 -1.000000
vn 1.000000 -0.000001 -0.000004
vn 1.000000 -0.000001 -0.000004
vn 1.000000 -0.000001 -0.000004
vn 1.000000 -0.000001 -0.000004
vn 1.000000 -0.000001 -0.000004
vn 1.000000 -0.000001 -0.000004
vn -1.000000 0.000001 0.000005
vn -1.000000 0.000001 0.000005
vn -1.000000 0.000001 0.000005
vn -0.139351 0.000000 0.990243
vn -0.093750 0.739861 0.666196
vn 0.000007 0.000000 1.000000
vn 0.000005 0.707106 0.707107
vn 0.000007 0.000000 1.000000
vn -0.093750 0.739861 0.666196
vn -1.000000 0.000000 0.000007
vn -0.707106 0.707108 0.000005
vn -0.992922 0.000000 0.118772
vn -0.673439 0.734841 0.080556
vn -0.992922 0.000000 0.118772
vn -0.707106 0.707108 0.000005
vn -0.505819 0.000000 0.862640
vn -0.324290 0.767440 0.553056
vn -0.139351 0.000000 0.990243
vn -0.093750 0.739861 0.666196
vn -0.139351 0.000000 0.990243
vn -0.324290 0.767440 0.553056
vn -1.000000 0.000000 0.000005
vn -1.000000 0.000000 0.000005
vn -1.000000 0.000000 0.000005
vn -0.992922 0.000000 0.118772
vn -0.673439 0.734841 0.080556
vn -0.870821 0.000000 0.491600
vn -0.551556 0.773845 0.311367
vn -0.870821 0.000000 0.491600
vn -0.673439 0.734841 0.080556
vn -0.870821 0.000000 0.491600
vn -0.551556 0.773845 0.311367
vn -0.505819 0.000000 0.862640
vn -0.324290 0.767440 0.553056
vn -0.505819 0.000000 0.862640
vn -0.551556 0.773845 0.311367
o tile_corner_new
o tile_corner_new
usemtl jun_tile_stone_corner
f 1/1/1 2/2/2 3/3/3
f 4/4/4 5/5/5 6/6/6
f 7/7/7 8/8/8 9/9/9
f 10/10/10 11/11/11 12/12/12
f 13/13/13 14/14/14 15/15/15
f 16/16/16 17/17/17 18/18/18
f 19/19/19 20/20/20 21/21/21
f 22/22/22 23/23/23 24/24/24
f 25/25/25 26/26/26 27/27/27
f 28/28/28 29/29/29 30/30/30
f 31/31/31 32/32/32 33/33/33
f 34/34/34 35/35/35 36/36/36
f 37/37/37 38/38/38 39/39/39
f 40/40/40 41/41/41 42/42/42
f 43/43/43 44/44/44 45/45/45
f 46/46/46 47/47/47 48/48/48
f 49/49/49 50/50/50 51/51/51
f 52/52/52 53/53/53 54/54/54
f 55/55/55 56/56/56 57/57/57
f 58/58/58 59/59/59 60/60/60
f 61/61/61 62/62/62 63/63/63
f 64/64/64 65/65/65 66/66/66
f 67/67/67 68/68/68 69/69/69
f 70/70/70 71/71/71 72/72/72
f 73/73/73 74/74/74 75/75/75
f 76/76/76 77/77/77 78/78/78
f 79/79/79 80/80/80 81/81/81
f 82/82/82 83/83/83 84/84/84
f 85/85/85 86/86/86 87/87/87
f 88/88/88 89/89/89 90/90/90
f 91/91/91 92/92/92 93/93/93
f 94/94/94 95/95/95 96/96/96
f 97/97/97 98/98/98 99/99/99
f 100/100/100 101/101/101 102/102/102
f 103/103/103 104/104/104 105/105/105
f 106/106/106 107/107/107 108/108/108
f 109/109/109 110/110/110 111/111/111
f 112/112/112 113/113/113 114/114/114
f 115/115/115 116/116/116 117/117/117
f 118/118/118 119/119/119 120/120/120
f 121/121/121 122/122/122 123/123/123
f 124/124/124 125/125/125 126/126/126
f 127/127/127 128/128/128 129/129/129
f 130/130/130 131/131/131 132/132/132
f 133/133/133 134/134/134 135/135/135
f 136/136/136 137/137/137 138/138/138
f 139/139/139 140/140/140 141/141/141
f 142/142/142 143/143/143 144/144/144
f 145/145/145 146/146/146 147/147/147
f 148/148/148 149/149/149 150/150/150
f 151/151/151 152/152/152 153/153/153
f 154/154/154 155/155/155 156/156/156
f 157/157/157 158/158/158 159/159/159
f 160/160/160 161/161/161 162/162/162
f 163/163/163 164/164/164 165/165/165
f 166/166/166 167/167/167 168/168/168
f 169/169/169 170/170/170 171/171/171
f 172/172/172 173/173/173 174/174/174
f 175/175/175 176/176/176 177/177/177
f 178/178/178 179/179/179 180/180/180
f 181/181/181 182/182/182 183/183/183
f 184/184/184 185/185/185 186/186/186
f 187/187/187 188/188/188 189/189/189
f 190/190/190 191/191/191 192/192/192
