# Modified by OBJRotate180 (Mesh rotated 180 degrees around Y-axis)
# Original file: jun_boundary_tree_single.obj
mtllib Materials/jun_boundary_tree_single.mtl
v 0.5 0.195000 -0.5
v 0.5 0.195000 0.5
v 0.5 -0.200000 -0.5
v 0.5 -0.200000 0.5
v -0.5 0.195000 -0.5
v -0.5 0.195000 0.5
v -0.5 -0.200000 -0.5
v -0.5 -0.200000 0.5
v 0 0.190739 0.059775
v -0.044586 0.190739 0.02972
v 0.006927 1.625497 0.086105
v 0.026393 1.624295 0.108445
v -0.040043 0.190739 -0.022208
v 0.016787 1.626948 0.059116
v 0.00899 0.190739 -0.04408
v 0.046114 1.627198 0.054468
v 0.053481 0.190739 -0.014025
v 0.065581 1.625997 0.076808
v 0.048938 0.190739 0.037902
v 0.05572 1.624545 0.103797
v 0.06268 1.636488 -0.008431
v -0.043625 1.637919 0.052785
v -0.259469 1.667720 -0.071009
v -0.012877 1.664400 -0.21301
v -0.291574 1.558666 -0.235307
v -0.185269 1.557235 -0.296523
v 0.018543 1.654567 0.089295
v 0.083947 1.603939 0.067436
v 0.252487 1.648308 0.232641
v 0.128388 1.702818 0.270373
v 0.192094 1.565387 0.486536
v 0.240022 1.561696 0.375692
v -0.021663 1.666442 0.306777
v 0.055885 1.569513 0.431656
v -0.034238 1.611756 0.099395
v 0.013149 1.657194 0.047661
v 0.042385 1.634254 0.124718
v -0.173007 1.690878 0.276714
v -0.214632 1.696907 0.14245
v -0.463009 1.518370 0.247656
v -0.309425 1.569485 0.293437
v -0.230871 1.611889 0.009514
v -0.353183 1.510820 0.11527
v 0.01744 1.600202 0.009529
v 0.027338 1.657610 0.071973
v -0.010716 1.620943 0
v 0.152734 1.669385 -0.191639
v 0.215959 1.698575 -0.069384
v 0.353258 1.565494 -0.195549
v 0.255206 1.600095 -0.231054
v 0.270298 1.634459 0.065153
v 0.341684 1.564262 -0.051631
v 0.039965 1.605887 0.115399
v -0.5 0.195000 0.5
v 0.5 0.195000 -0.5
v -0.5 0.195000 -0.5
v 0.5 0.195000 0.5
v 0.5 0.195000 -0.5
v 0.5 -0.200000 0.5
v 0.5 -0.200000 -0.5
v 0.5 0.195000 0.5
v -0.5 0.195000 0.5
v -0.5 -0.200000 -0.5
v -0.5 -0.200000 0.5
v -0.5 0.195000 -0.5
vt 0.128073 0.737135
vt 0.128073 0.737135
vt 0.128073 0.706740
vt 0.128073 0.706740
vt 0.013106 0.737135
vt 0.013106 0.737135
vt 0.013106 0.706740
vt 0.013106 0.706740
vt 0.055167 0.012961
vt 0.044243 0.012961
vt 0.042573 0.410405
vt 0.052100 0.410405
vt 0.022395 0.012961
vt 0.023519 0.410405
vt 0.011471 0.012961
vt 0.013992 0.410405
vt 0.022395 0.012961
vt 0.023519 0.410405
vt 0.044243 0.012961
vt 0.042573 0.410405
vt 0.111258 0.025119
vt 0.150003 0.025119
vt 0.175568 0.151430
vt 0.085693 0.151430
vt 0.150003 0.270426
vt 0.111258 0.270426
vt 0.128108 0.025119
vt 0.150003 0.025119
vt 0.176423 0.116404
vt 0.132723 0.116404
vt 0.129333 0.271280
vt 0.162817 0.222585
vt 0.086547 0.116404
vt 0.097590 0.225148
vt 0.107841 0.025974
vt 0.128108 0.025119
vt 0.150003 0.025119
vt 0.176423 0.116404
vt 0.132723 0.116404
vt 0.129333 0.271280
vt 0.162817 0.222585
vt 0.086547 0.116404
vt 0.097590 0.225148
vt 0.107841 0.025974
vt 0.128108 0.025119
vt 0.150003 0.025119
vt 0.176423 0.116404
vt 0.132723 0.116404
vt 0.129333 0.271280
vt 0.162817 0.222585
vt 0.086547 0.116404
vt 0.097590 0.225148
vt 0.107841 0.025974
vt 0.127764 0.694198
vt 0.012531 0.575371
vt 0.012531 0.694198
vt 0.127764 0.575371
vt 0.012950 0.736864
vt 0.128046 0.706753
vt 0.012967 0.706753
vt 0.128063 0.736864
vt 0.128063 0.736864
vt 0.012967 0.706753
vt 0.128046 0.706753
vt 0.012950 0.736864
vn 0.000000 0.000000 -1.000000
vn 0.000000 -0.000019 1.000000
vn 0.000000 0.000000 -1.000000
vn 0.000000 -0.000019 1.000000
vn 0.000000 0.000000 -1.000000
vn 0.000000 -0.000019 1.000000
vn 0.000000 0.000000 -1.000000
vn 0.000000 -0.000019 1.000000
vn -0.095488 -0.028973 0.995009
vn -0.910123 0.019454 0.413882
vn -0.982656 0.022599 0.184056
vn -0.335549 -0.031219 0.941505
vn -0.807257 0.068236 -0.586243
vn -0.630850 0.063526 -0.773300
vn 0.079157 0.069138 -0.994462
vn 0.347251 0.049956 -0.936441
vn 0.894711 0.023565 -0.446024
vn 0.983294 -0.002219 -0.182013
vn 0.819558 -0.027165 0.572352
vn 0.640345 -0.043636 0.766847
vn 0.075233 0.991358 0.107470
vn 0.075232 0.991358 0.107471
vn -0.125554 0.962487 -0.240532
vn -0.080292 0.983449 -0.162423
vn -0.273513 0.825165 -0.494261
vn -0.273513 0.825165 -0.494261
vn -0.164429 0.925043 -0.342431
vn 0.371865 0.728698 -0.575079
vn 0.476265 0.879256 0.008978
vn 0.132739 0.985596 0.104790
vn 0.238870 0.799197 0.551566
vn 0.826510 0.446737 0.342502
vn -0.249256 0.934841 0.252869
vn -0.256173 0.680071 0.686934
vn -0.640102 0.751577 -0.159375
vn 0.143344 0.893835 -0.424866
vn 0.345866 0.927049 0.144762
vn -0.191396 0.963644 0.186436
vn -0.289020 0.941125 -0.175358
vn -0.692544 0.718381 -0.065664
vn -0.401544 0.551924 0.730850
vn -0.384213 0.749620 -0.538934
vn -0.740568 0.239090 -0.628008
vn 0.026278 0.557259 -0.829923
vn -0.151898 0.930242 0.334030
vn -0.483608 0.853990 -0.191898
vn 0.101362 0.948984 -0.298589
vn 0.259222 0.965682 -0.016196
vn 0.591804 0.784820 -0.183918
vn 0.423653 0.831255 -0.359908
vn 0.420675 0.856403 0.299342
vn 0.752511 0.655252 0.066125
vn 0.083327 0.652617 0.753092
vn 0.000000 1.000000 0.000000
vn 0.000000 1.000000 0.000000
vn 0.000000 1.000000 0.000000
vn 0.000000 1.000000 0.000000
vn 1.000000 0.000000 0.000000
vn 1.000000 0.000000 0.000000
vn 1.000000 0.000000 0.000000
vn 1.000000 0.000000 0.000000
vn -1.000000 0.000000 0.000000
vn -1.000000 0.000000 0.000000
vn -1.000000 0.000000 0.000000
vn -1.000000 0.000000 0.000000
o grass_earth_1
o grass_earth_1
usemtl jun_boundary_tree_single
o grass_earth_1
usemtl jun_boundary_tree_single
f 7/7/7 5/5/5 3/3/3
f 3/3/3 5/5/5 1/1/1
f 45/45/45 53/53/53 51/51/51
f 46/46/46 45/45/45 47/47/47
f 47/47/47 45/45/45 48/48/48
f 45/45/45 51/51/51 48/48/48
f 48/48/48 51/51/51 49/49/49
f 51/51/51 52/52/52 49/49/49
f 50/50/50 47/47/47 49/49/49
f 49/49/49 47/47/47 48/48/48
f 43/43/43 40/40/40 42/42/42
f 41/41/41 38/38/38 40/40/40
f 38/38/38 39/39/39 40/40/40
f 40/40/40 39/39/39 42/42/42
f 39/39/39 36/36/36 42/42/42
f 42/42/42 36/36/36 44/44/44
f 39/39/39 38/38/38 36/36/36
f 36/36/36 38/38/38 37/37/37
f 27/27/27 35/35/35 33/33/33
f 34/34/34 31/31/31 33/33/33
f 31/31/31 30/30/30 33/33/33
f 33/33/33 30/30/30 27/27/27
f 30/30/30 29/29/29 27/27/27
f 27/27/27 29/29/29 28/28/28
f 32/32/32 29/29/29 31/31/31
f 31/31/31 29/29/29 30/30/30
f 26/26/26 25/25/25 24/24/24
f 25/25/25 23/23/23 24/24/24
f 24/24/24 23/23/23 21/21/21
f 21/21/21 23/23/23 22/22/22
f 6/6/6 8/8/8 2/2/2
f 2/2/2 8/8/8 4/4/4
f 65/65/65 63/63/63 62/62/62
f 62/62/62 63/63/63 64/64/64
f 61/61/61 59/59/59 58/58/58
f 58/58/58 59/59/59 60/60/60
f 57/57/57 55/55/55 54/54/54
f 54/54/54 55/55/55 56/56/56
f 13/13/13 16/16/16 15/15/15
f 16/16/16 18/18/18 15/15/15
f 15/15/15 18/18/18 17/17/17
f 18/18/18 20/20/20 17/17/17
f 17/17/17 20/20/20 19/19/19
f 20/20/20 12/12/12 19/19/19
f 19/19/19 12/12/12 9/9/9
f 12/12/12 11/11/11 9/9/9
f 9/9/9 11/11/11 10/10/10
f 11/11/11 14/14/14 10/10/10
f 10/10/10 14/14/14 13/13/13
f 14/14/14 16/16/16 13/13/13
