# Modified by OBJRotate180 (Mesh rotated 180 degrees around Y-axis)
# Original file: jun_tile_crossroads_static.obj
mtllib Materials/jun_tile_crossroads_static.mtl
v -0.5 -0.200000 -0.5
v -0.5 -0.200000 0.5
v -0.5 0.000000 -0.334239
v -0.5 0.000000 0.33423
v -0.5 0.000000 -0.334239
v -0.5 -0.200000 0.5
v -0.5 0.000000 -0.334239
v -0.5 0.145000 -0.441923
v -0.5 -0.200000 -0.5
v -0.5 0.145000 -0.5
v -0.5 -0.200000 -0.5
v -0.5 0.145000 -0.441923
v 0.5 -0.200000 -0.5
v -0.5 -0.200000 -0.5
v 0.334063 0.000000 -0.5
v -0.334063 0.000000 -0.5
v 0.334063 0.000000 -0.5
v -0.5 -0.200000 -0.5
v -0.334084 0.000000 -0.334238
v -0.334063 0.000000 -0.5
v -0.44406 0.145000 -0.441922
v -0.444079 0.145000 -0.5
v -0.44406 0.145000 -0.441922
v -0.334063 0.000000 -0.5
v -0.5 0.145000 -0.441923
v -0.5 0.000000 -0.334239
v -0.44406 0.145000 -0.441922
v -0.334084 0.000000 -0.334238
v -0.44406 0.145000 -0.441922
v -0.5 0.000000 -0.334239
v -0.5 0.195000 -0.441923
v -0.44406 0.195000 -0.441922
v -0.5 0.195000 -0.5
v -0.444079 0.195000 -0.5
v -0.5 0.195000 -0.5
v -0.44406 0.195000 -0.441922
v -0.334084 0.000000 -0.334238
v 0.334076 0.000000 -0.334221
v -0.334063 0.000000 -0.5
v 0.334063 0.000000 -0.5
v -0.334063 0.000000 -0.5
v 0.334076 0.000000 -0.334221
v 0.334076 0.000000 -0.334221
v -0.334084 0.000000 -0.334238
v 0.334076 0.000000 0.334209
v -0.444079 0.145000 -0.5
v -0.334063 0.000000 -0.5
v -0.5 0.145000 -0.5
v -0.5 -0.200000 -0.5
v -0.5 0.145000 -0.5
v -0.334063 0.000000 -0.5
v 0.5 0.145000 -0.4419
v 0.5 0.000000 -0.33422
v 0.5 -0.200000 -0.5
v 0.5 -0.200000 -0.5
v 0.5 0.145000 -0.5
v 0.5 0.145000 -0.4419
v 0.334063 0.000000 -0.5
v 0.334076 0.000000 -0.334221
v 0.444052 0.145000 -0.4419
v 0.444052 0.145000 -0.4419
v 0.44408 0.145000 -0.5
v 0.334063 0.000000 -0.5
v 0.5 0.000000 -0.33422
v 0.5 0.145000 -0.4419
v 0.444052 0.145000 -0.4419
v 0.444052 0.145000 -0.4419
v 0.334076 0.000000 -0.334221
v 0.5 0.000000 -0.33422
v 0.444052 0.195000 -0.4419
v 0.5 0.195000 -0.4419
v 0.5 0.195000 -0.5
v 0.5 0.195000 -0.5
v 0.44408 0.195000 -0.5
v 0.444052 0.195000 -0.4419
v -0.5 0.145000 0.441914
v -0.5 0.000000 0.33423
v -0.5 -0.200000 0.5
v -0.5 -0.200000 0.5
v -0.5 0.145000 0.5
v -0.5 0.145000 0.441914
v -0.5 -0.200000 0.5
v 0.5 -0.200000 0.5
v 0.334063 0.000000 0.5
v 0.334063 0.000000 0.5
v -0.334063 0.000000 0.5
v -0.5 -0.200000 0.5
v -0.334063 0.000000 0.5
v -0.334085 0.000000 0.334226
v -0.444061 0.145000 0.441909
v -0.444061 0.145000 0.441909
v -0.44408 0.145000 0.5
v -0.334063 0.000000 0.5
v -0.444061 0.195000 0.441909
v -0.5 0.195000 0.441914
v -0.5 0.195000 0.5
v -0.5 0.195000 0.5
v -0.44408 0.195000 0.5
v -0.444061 0.195000 0.441909
v 0.334076 0.000000 0.334209
v -0.334085 0.000000 0.334226
v -0.334063 0.000000 0.5
v -0.334063 0.000000 0.5
v 0.334063 0.000000 0.5
v 0.334076 0.000000 0.334209
v -0.334063 0.000000 0.5
v -0.44408 0.145000 0.5
v -0.5 0.145000 0.5
v -0.5 0.145000 0.5
v -0.5 -0.200000 0.5
v -0.334063 0.000000 0.5
v 0.5 0.000000 0.334208
v 0.5 0.145000 0.441887
v 0.5 -0.200000 0.5
v 0.5 0.145000 0.5
v 0.5 -0.200000 0.5
v 0.5 0.145000 0.441887
v 0.334076 0.000000 0.334209
v 0.334063 0.000000 0.5
v 0.444051 0.145000 0.441889
v 0.444079 0.145000 0.5
v 0.444051 0.145000 0.441889
v 0.334063 0.000000 0.5
v 0.5 0.145000 0.441887
v 0.5 0.000000 0.334208
v 0.444051 0.145000 0.441889
v 0.334076 0.000000 0.334209
v 0.444051 0.145000 0.441889
v 0.5 0.000000 0.334208
v 0.5 0.195000 0.441887
v 0.444051 0.195000 0.441889
v 0.5 0.195000 0.5
v 0.444079 0.195000 0.5
v 0.5 0.195000 0.5
v 0.444051 0.195000 0.441889
v 0.334076 0.000000 0.334209
v -0.334084 0.000000 -0.334238
v -0.334085 0.000000 0.334226
v -0.5 0.000000 0.33423
v -0.334085 0.000000 0.334226
v -0.5 0.000000 -0.334239
v -0.334085 0.000000 0.334226
v -0.334084 0.000000 -0.334238
v -0.5 0.000000 -0.334239
v 0.334076 0.000000 0.334209
v 0.5 0.000000 0.334208
v 0.334076 0.000000 -0.334221
v 0.5 0.000000 0.334208
v 0.5 0.000000 -0.33422
v 0.334076 0.000000 -0.334221
v -0.5 0.145000 0.441914
v -0.444061 0.145000 0.441909
v -0.5 0.000000 0.33423
v -0.444061 0.145000 0.441909
v -0.334085 0.000000 0.334226
v -0.5 0.000000 0.33423
v 0.5 0.000000 0.334208
v 0.5 -0.200000 0.5
v 0.5 0.000000 -0.33422
v 0.5 -0.200000 0.5
v 0.5 -0.200000 -0.5
v 0.5 0.000000 -0.33422
v 0.444079 0.145000 0.5
v 0.334063 0.000000 0.5
v 0.5 0.145000 0.5
v 0.334063 0.000000 0.5
v 0.5 -0.200000 0.5
v 0.5 0.145000 0.5
v 0.5 0.145000 -0.5
v 0.5 -0.200000 -0.5
v 0.44408 0.145000 -0.5
v 0.5 -0.200000 -0.5
v 0.334063 0.000000 -0.5
v 0.44408 0.145000 -0.5
v -0.5 0.145000 -0.441923
v -0.5 0.195000 -0.441923
v -0.5 0.145000 -0.5
v -0.5 0.195000 -0.5
v -0.5 0.145000 -0.5
v -0.5 0.195000 -0.441923
v -0.444079 0.145000 -0.5
v -0.444079 0.195000 -0.5
v -0.44406 0.145000 -0.441922
v -0.44406 0.195000 -0.441922
v -0.44406 0.145000 -0.441922
v -0.444079 0.195000 -0.5
v -0.44406 0.145000 -0.441922
v -0.44406 0.195000 -0.441922
v -0.5 0.145000 -0.441923
v -0.5 0.195000 -0.441923
v -0.5 0.145000 -0.441923
v -0.44406 0.195000 -0.441922
v -0.5 0.145000 -0.5
v -0.5 0.195000 -0.5
v -0.444079 0.145000 -0.5
v -0.444079 0.195000 -0.5
v -0.444079 0.145000 -0.5
v -0.5 0.195000 -0.5
v 0.5 0.145000 -0.5
v 0.5 0.195000 -0.5
v 0.5 0.145000 -0.4419
v 0.5 0.195000 -0.4419
v 0.5 0.145000 -0.4419
v 0.5 0.195000 -0.5
v 0.444052 0.145000 -0.4419
v 0.444052 0.195000 -0.4419
v 0.44408 0.145000 -0.5
v 0.44408 0.195000 -0.5
v 0.44408 0.145000 -0.5
v 0.444052 0.195000 -0.4419
v 0.5 0.145000 -0.4419
v 0.5 0.195000 -0.4419
v 0.444052 0.145000 -0.4419
v 0.444052 0.195000 -0.4419
v 0.444052 0.145000 -0.4419
v 0.5 0.195000 -0.4419
v 0.44408 0.145000 -0.5
v 0.44408 0.195000 -0.5
v 0.5 0.145000 -0.5
v 0.5 0.195000 -0.5
v 0.5 0.145000 -0.5
v 0.44408 0.195000 -0.5
v -0.5 0.145000 0.5
v -0.5 0.195000 0.5
v -0.5 0.145000 0.441914
v -0.5 0.195000 0.441914
v -0.5 0.145000 0.441914
v -0.5 0.195000 0.5
v -0.444061 0.145000 0.441909
v -0.444061 0.195000 0.441909
v -0.44408 0.145000 0.5
v -0.44408 0.195000 0.5
v -0.44408 0.145000 0.5
v -0.444061 0.195000 0.441909
v -0.5 0.145000 0.441914
v -0.5 0.195000 0.441914
v -0.444061 0.145000 0.441909
v -0.444061 0.195000 0.441909
v -0.444061 0.145000 0.441909
v -0.5 0.195000 0.441914
v -0.44408 0.145000 0.5
v -0.44408 0.195000 0.5
v -0.5 0.145000 0.5
v -0.5 0.195000 0.5
v -0.5 0.145000 0.5
v -0.44408 0.195000 0.5
v 0.5 0.145000 0.441887
v 0.5 0.195000 0.441887
v 0.5 0.145000 0.5
v 0.5 0.195000 0.5
v 0.5 0.145000 0.5
v 0.5 0.195000 0.441887
v 0.444079 0.145000 0.5
v 0.444079 0.195000 0.5
v 0.444051 0.145000 0.441889
v 0.444051 0.195000 0.441889
v 0.444051 0.145000 0.441889
v 0.444079 0.195000 0.5
v 0.444051 0.145000 0.441889
v 0.444051 0.195000 0.441889
v 0.5 0.145000 0.441887
v 0.5 0.195000 0.441887
v 0.5 0.145000 0.441887
v 0.444051 0.195000 0.441889
v 0.5 0.145000 0.5
v 0.5 0.195000 0.5
v 0.444079 0.145000 0.5
v 0.444079 0.195000 0.5
v 0.444079 0.145000 0.5
v 0.5 0.195000 0.5
vt 0.261676 0.707944
vt 0.145186 0.707944
vt 0.242366 0.731546
vt 0.164496 0.731546
vt 0.242366 0.731546
vt 0.145186 0.707944
vt 0.242366 0.731546
vt 0.254910 0.748658
vt 0.261676 0.707944
vt 0.261676 0.748658
vt 0.261676 0.707944
vt 0.254910 0.748658
vt 0.148335 0.708504
vt 0.260696 0.708504
vt 0.166979 0.731731
vt 0.242051 0.731731
vt 0.166979 0.731731
vt 0.260696 0.708504
vt 0.332107 0.709866
vt 0.301957 0.709854
vt 0.314831 0.755175
vt 0.301957 0.755272
vt 0.314831 0.755175
vt 0.301957 0.709854
vt 0.321899 0.754960
vt 0.322275 0.708914
vt 0.306454 0.754846
vt 0.295459 0.708876
vt 0.306454 0.754846
vt 0.322275 0.708914
vt 0.494018 0.972262
vt 0.508662 0.957618
vt 0.509410 0.987655
vt 0.524052 0.973013
vt 0.509410 0.987655
vt 0.508662 0.957618
vt 0.963256 0.971278
vt 0.963255 0.900781
vt 0.981134 0.971275
vt 0.981134 0.900782
vt 0.981134 0.971275
vt 0.963255 0.900781
vt 0.963255 0.900781
vt 0.963256 0.971278
vt 0.893119 0.900781
vt 0.254413 0.748570
vt 0.242051 0.731731
vt 0.260696 0.748570
vt 0.260696 0.708504
vt 0.260696 0.748570
vt 0.242051 0.731731
vt 0.254908 0.748658
vt 0.242364 0.731546
vt 0.261675 0.707944
vt 0.261675 0.707944
vt 0.261675 0.748658
vt 0.254908 0.748658
vt 0.322010 0.709696
vt 0.296807 0.709709
vt 0.307498 0.757769
vt 0.307498 0.757769
vt 0.322010 0.757866
vt 0.322010 0.709696
vt 0.301583 0.707906
vt 0.301593 0.756205
vt 0.315676 0.756276
vt 0.315676 0.756276
vt 0.334603 0.707914
vt 0.301583 0.707906
vt 0.480115 0.958177
vt 0.465471 0.972821
vt 0.480863 0.988214
vt 0.480863 0.988214
vt 0.495505 0.973573
vt 0.480115 0.958177
vt 0.151952 0.748658
vt 0.164496 0.731546
vt 0.145186 0.707944
vt 0.145186 0.707944
vt 0.145186 0.748658
vt 0.151952 0.748658
vt 0.260695 0.708504
vt 0.148334 0.708504
vt 0.166979 0.731731
vt 0.166979 0.731731
vt 0.242050 0.731731
vt 0.260695 0.708504
vt 0.324121 0.709354
vt 0.295336 0.709366
vt 0.308045 0.755638
vt 0.308045 0.755638
vt 0.324121 0.755735
vt 0.324121 0.709354
vt 0.543596 0.958555
vt 0.528952 0.973199
vt 0.544345 0.988591
vt 0.544345 0.988591
vt 0.558986 0.973950
vt 0.543596 0.958555
vt 0.893119 0.900781
vt 0.893116 0.971277
vt 0.875627 0.971275
vt 0.875627 0.971275
vt 0.875628 0.900782
vt 0.893119 0.900781
vt 0.242050 0.731731
vt 0.254412 0.748570
vt 0.260695 0.748570
vt 0.260695 0.748570
vt 0.260695 0.708504
vt 0.242050 0.731731
vt 0.164499 0.731546
vt 0.151956 0.748658
vt 0.145189 0.707944
vt 0.145189 0.748658
vt 0.145189 0.707944
vt 0.151956 0.748658
vt 0.331537 0.709799
vt 0.302049 0.709787
vt 0.316948 0.755137
vt 0.302049 0.755235
vt 0.316948 0.755137
vt 0.302049 0.709787
vt 0.325145 0.755738
vt 0.325132 0.708334
vt 0.306177 0.756013
vt 0.290436 0.708312
vt 0.306177 0.756013
vt 0.325132 0.708334
vt 0.476689 0.973313
vt 0.489763 0.962342
vt 0.488220 0.987056
vt 0.501293 0.976087
vt 0.488220 0.987056
vt 0.489763 0.962342
vt 0.893119 0.900781
vt 0.963256 0.971278
vt 0.893116 0.971277
vt 0.893116 0.988783
vt 0.893116 0.971277
vt 0.962089 0.988783
vt 0.893116 0.971277
vt 0.963256 0.971278
vt 0.962089 0.988783
vt 0.893119 0.900781
vt 0.893119 0.883275
vt 0.963255 0.900781
vt 0.893119 0.883275
vt 0.962477 0.883276
vt 0.963255 0.900781
vt 0.298814 0.754362
vt 0.321408 0.754368
vt 0.298651 0.710310
vt 0.321408 0.754368
vt 0.331429 0.710555
vt 0.298651 0.710310
vt 0.164499 0.731546
vt 0.145189 0.707944
vt 0.242364 0.731546
vt 0.145189 0.707944
vt 0.261675 0.707944
vt 0.242364 0.731546
vt 0.154617 0.748570
vt 0.166979 0.731731
vt 0.148334 0.748570
vt 0.166979 0.731731
vt 0.148334 0.708504
vt 0.148334 0.748570
vt 0.148335 0.748570
vt 0.148335 0.708504
vt 0.154618 0.748570
vt 0.148335 0.708504
vt 0.166979 0.731731
vt 0.154618 0.748570
vt 0.254910 0.748658
vt 0.254910 0.754558
vt 0.261676 0.748658
vt 0.261676 0.754558
vt 0.261676 0.748658
vt 0.254910 0.754558
vt 0.036773 0.824560
vt 0.036773 0.846727
vt 0.019375 0.824558
vt 0.019375 0.846726
vt 0.019375 0.824558
vt 0.036773 0.846727
vt 0.019957 0.823939
vt 0.019957 0.846618
vt 0.036678 0.823939
vt 0.036678 0.846618
vt 0.036678 0.823939
vt 0.019957 0.846618
vt 0.260696 0.748570
vt 0.260696 0.754377
vt 0.254413 0.748570
vt 0.254413 0.754377
vt 0.254413 0.748570
vt 0.260696 0.754377
vt 0.261675 0.748658
vt 0.261675 0.754558
vt 0.254908 0.748658
vt 0.254908 0.754558
vt 0.254908 0.748658
vt 0.261675 0.754558
vt 0.019359 0.824559
vt 0.019359 0.846727
vt 0.036766 0.824560
vt 0.036766 0.846728
vt 0.036766 0.824560
vt 0.019359 0.846727
vt 0.020258 0.823941
vt 0.020258 0.846619
vt 0.036979 0.823940
vt 0.036979 0.846619
vt 0.036979 0.823940
vt 0.020258 0.846619
vt 0.154618 0.748570
vt 0.154618 0.754377
vt 0.148335 0.748570
vt 0.148335 0.754377
vt 0.148335 0.748570
vt 0.154618 0.754377
vt 0.145186 0.748658
vt 0.145186 0.754558
vt 0.151952 0.748658
vt 0.151952 0.754558
vt 0.151952 0.748658
vt 0.145186 0.754558
vt 0.037611 0.824554
vt 0.037611 0.846721
vt 0.020214 0.824554
vt 0.020214 0.846722
vt 0.020214 0.824554
vt 0.037611 0.846721
vt 0.036675 0.823935
vt 0.036675 0.846614
vt 0.019952 0.823934
vt 0.019952 0.846613
vt 0.019952 0.823934
vt 0.036675 0.846614
vt 0.254412 0.748570
vt 0.254412 0.754377
vt 0.260695 0.748570
vt 0.260695 0.754377
vt 0.260695 0.748570
vt 0.254412 0.754377
vt 0.151956 0.748658
vt 0.151956 0.754558
vt 0.145189 0.748658
vt 0.145189 0.754558
vt 0.145189 0.748658
vt 0.151956 0.754558
vt 0.020231 0.824557
vt 0.020231 0.846725
vt 0.037638 0.824557
vt 0.037638 0.846725
vt 0.037638 0.824557
vt 0.020231 0.846725
vt 0.036973 0.823938
vt 0.036973 0.846617
vt 0.020252 0.823938
vt 0.020252 0.846617
vt 0.020252 0.823938
vt 0.036973 0.846617
vt 0.148334 0.748570
vt 0.148334 0.754377
vt 0.154617 0.748570
vt 0.154617 0.754377
vt 0.154617 0.748570
vt 0.148334 0.754377
vn -1.000000 -0.000002 -0.000003
vn -1.000000 -0.000002 -0.000003
vn -1.000000 -0.000002 -0.000003
vn -1.000000 -0.000002 -0.000003
vn -1.000000 -0.000002 -0.000003
vn -1.000000 -0.000002 -0.000003
vn -1.000000 -0.000002 -0.000003
vn -1.000000 -0.000001 -0.000005
vn -1.000000 -0.000002 -0.000003
vn -1.000000 0.000000 -0.000011
vn -1.000000 -0.000002 -0.000003
vn -1.000000 -0.000001 -0.000005
vn 0.000013 0.000007 -1.000000
vn 0.000013 0.000007 -1.000000
vn 0.000013 0.000007 -1.000000
vn 0.000017 -0.000009 -1.000000
vn 0.000017 -0.000009 -1.000000
vn 0.000017 -0.000009 -1.000000
vn 0.485986 0.727865 0.483766
vn 0.796705 0.604368 0.000031
vn 0.481581 0.727898 0.488103
vn 0.796649 0.604442 -0.000262
vn 0.481581 0.727898 0.488103
vn 0.796705 0.604368 0.000031
vn -0.000010 0.596215 0.802825
vn -0.000005 0.596213 0.802826
vn 0.481581 0.727898 0.488103
vn 0.485986 0.727865 0.483766
vn 0.481581 0.727898 0.488103
vn -0.000005 0.596213 0.802826
vn -0.000009 0.707107 0.707107
vn 0.577451 0.577332 0.577268
vn 0.000000 1.000000 0.000001
vn 0.707030 0.707184 -0.000233
vn 0.000000 1.000000 0.000001
vn 0.577451 0.577332 0.577268
vn 0.000000 1.000000 0.000000
vn 0.000000 1.000000 0.000000
vn 0.000000 1.000000 0.000000
vn 0.000000 1.000000 0.000000
vn 0.000000 1.000000 0.000000
vn 0.000000 1.000000 0.000000
vn 0.000000 1.000000 0.000000
vn 0.000000 1.000000 0.000000
vn 0.000000 1.000000 0.000000
vn 0.000012 0.000007 -1.000000
vn 0.000012 0.000007 -1.000000
vn 0.000012 0.000007 -1.000000
vn 0.000013 0.000007 -1.000000
vn 0.000012 0.000007 -1.000000
vn 0.000012 0.000007 -1.000000
vn 1.000000 0.000016 0.000023
vn 1.000000 0.000016 0.000023
vn 1.000000 0.000016 0.000023
vn 1.000000 0.000000 0.000120
vn 1.000000 0.000000 0.000120
vn 1.000000 0.000000 0.000120
vn -0.796716 0.604354 -0.000023
vn -0.486004 0.727858 0.483758
vn -0.481616 0.727906 0.488057
vn -0.481616 0.727906 0.488057
vn -0.796646 0.604446 -0.000385
vn -0.796716 0.604354 -0.000023
vn -0.000006 0.596202 0.802834
vn -0.000011 0.596201 0.802835
vn -0.481616 0.727906 0.488057
vn -0.481616 0.727906 0.488057
vn -0.486004 0.727858 0.483758
vn -0.000006 0.596202 0.802834
vn -0.577506 0.577326 0.577219
vn -0.000010 0.707130 0.707083
vn 0.000000 1.000000 0.000000
vn 0.000000 1.000000 0.000000
vn -0.707001 0.707213 -0.000341
vn -0.577506 0.577326 0.577219
vn -1.000000 0.000000 0.000000
vn -1.000000 -0.000002 -0.000003
vn -1.000000 -0.000002 -0.000003
vn -1.000000 -0.000002 -0.000003
vn -1.000000 0.000000 -0.000001
vn -1.000000 0.000000 0.000000
vn 0.000016 0.000009 1.000000
vn 0.000016 0.000009 1.000000
vn 0.000016 0.000009 1.000000
vn 0.000016 0.000009 1.000000
vn 0.000017 0.000007 1.000000
vn 0.000016 0.000009 1.000000
vn 0.796705 0.604369 -0.000029
vn 0.485983 0.727865 -0.483769
vn 0.481560 0.727906 -0.488112
vn 0.481560 0.727906 -0.488112
vn 0.796648 0.604444 0.000265
vn 0.796705 0.604369 -0.000029
vn 0.577435 0.577328 -0.577288
vn -0.000054 0.707124 -0.707090
vn 0.000000 1.000000 -0.000001
vn 0.000000 1.000000 -0.000001
vn 0.707016 0.707198 0.000235
vn 0.577435 0.577328 -0.577288
vn 0.000000 1.000000 0.000000
vn 0.000000 1.000000 0.000000
vn 0.000000 1.000000 0.000000
vn 0.000000 1.000000 0.000000
vn 0.000000 1.000000 0.000000
vn 0.000000 1.000000 0.000000
vn 0.000070 0.000052 1.000000
vn 0.000070 0.000052 1.000000
vn 0.000070 0.000052 1.000000
vn 0.000025 0.000000 1.000000
vn 0.000025 0.000000 1.000000
vn 0.000025 0.000000 1.000000
vn 1.000000 0.000016 -0.000022
vn 1.000000 0.000016 -0.000022
vn 1.000000 0.000016 -0.000022
vn 1.000000 0.000000 -0.000119
vn 1.000000 0.000000 -0.000119
vn 1.000000 0.000000 -0.000119
vn -0.486004 0.727858 -0.483759
vn -0.796716 0.604354 0.000023
vn -0.481616 0.727905 -0.488057
vn -0.796646 0.604446 0.000384
vn -0.481616 0.727905 -0.488057
vn -0.796716 0.604354 0.000023
vn -0.000013 0.596200 -0.802836
vn -0.000005 0.596202 -0.802834
vn -0.481616 0.727905 -0.488057
vn -0.486004 0.727858 -0.483759
vn -0.481616 0.727905 -0.488057
vn -0.000005 0.596202 -0.802834
vn -0.000012 0.707130 -0.707083
vn -0.577507 0.577326 -0.577218
vn 0.000000 1.000000 0.000000
vn -0.707001 0.707213 0.000341
vn 0.000000 1.000000 0.000000
vn -0.577507 0.577326 -0.577218
vn 0.000000 1.000000 0.000000
vn 0.000000 1.000000 0.000000
vn 0.000000 1.000000 0.000000
vn 0.000000 1.000000 0.000000
vn 0.000000 1.000000 0.000000
vn 0.000000 1.000000 0.000000
vn 0.000000 1.000000 0.000000
vn 0.000000 1.000000 0.000000
vn 0.000000 1.000000 0.000000
vn 0.000000 1.000000 0.000000
vn 0.000000 1.000000 0.000000
vn 0.000000 1.000000 0.000000
vn 0.000000 1.000000 0.000000
vn 0.000000 1.000000 0.000000
vn 0.000000 1.000000 0.000000
vn -0.000061 0.596216 -0.802824
vn 0.481560 0.727906 -0.488112
vn -0.000026 0.596208 -0.802830
vn 0.481560 0.727906 -0.488112
vn 0.485983 0.727865 -0.483769
vn -0.000026 0.596208 -0.802830
vn 1.000000 0.000035 0.000000
vn 1.000000 0.000035 0.000000
vn 1.000000 0.000035 0.000000
vn 1.000000 0.000035 0.000000
vn 1.000000 0.000035 0.000000
vn 1.000000 0.000035 0.000000
vn 0.000012 -0.000008 1.000000
vn 0.000012 -0.000008 1.000000
vn 0.000012 -0.000008 1.000000
vn 0.000005 0.000000 1.000000
vn 0.000005 0.000000 1.000000
vn 0.000005 0.000000 1.000000
vn 0.000011 0.000000 -1.000000
vn 0.000013 0.000007 -1.000000
vn 0.000011 0.000000 -1.000000
vn 0.000004 -0.000001 -1.000000
vn 0.000004 -0.000001 -1.000000
vn 0.000011 0.000000 -1.000000
vn -1.000000 -0.000001 -0.000005
vn -1.000000 0.000000 -0.000011
vn -1.000000 0.000000 -0.000011
vn -1.000000 0.000000 -0.000011
vn -1.000000 0.000000 -0.000011
vn -1.000000 0.000000 -0.000011
vn 1.000000 0.000000 -0.000330
vn 0.707030 0.707184 -0.000233
vn 0.707219 0.000000 0.706995
vn 0.577451 0.577332 0.577268
vn 0.707219 0.000000 0.706995
vn 0.707030 0.707184 -0.000233
vn 0.707219 0.000000 0.706995
vn 0.577451 0.577332 0.577268
vn -0.000013 -0.000001 1.000000
vn -0.000009 0.707107 0.707107
vn -0.000013 -0.000001 1.000000
vn 0.577451 0.577332 0.577268
vn 0.000012 0.000007 -1.000000
vn 0.000012 0.000001 -1.000000
vn 0.000012 0.000007 -1.000000
vn 0.000012 0.000001 -1.000000
vn 0.000012 0.000007 -1.000000
vn 0.000012 0.000001 -1.000000
vn 1.000000 0.000000 0.000120
vn 1.000000 0.000000 0.000120
vn 1.000000 0.000000 0.000120
vn 1.000000 0.000000 0.000120
vn 1.000000 0.000000 0.000120
vn 1.000000 0.000000 0.000120
vn -0.707283 0.000000 0.706931
vn -0.577506 0.577326 0.577219
vn -1.000000 0.000000 -0.000483
vn -0.707001 0.707213 -0.000341
vn -1.000000 0.000000 -0.000483
vn -0.577506 0.577326 0.577219
vn -0.000014 0.000000 1.000000
vn -0.000010 0.707130 0.707083
vn -0.707283 0.000000 0.706931
vn -0.577506 0.577326 0.577219
vn -0.707283 0.000000 0.706931
vn -0.000010 0.707130 0.707083
vn 0.000011 0.000000 -1.000000
vn 0.000011 0.000000 -1.000000
vn 0.000011 0.000000 -1.000000
vn 0.000011 0.000000 -1.000000
vn 0.000011 0.000000 -1.000000
vn 0.000011 0.000000 -1.000000
vn -1.000000 0.000000 -0.000001
vn -1.000000 0.000000 -0.000001
vn -1.000000 0.000000 0.000000
vn -1.000000 0.000000 -0.000001
vn -1.000000 0.000000 0.000000
vn -1.000000 0.000000 -0.000001
vn 0.707198 0.000000 -0.707016
vn 0.577435 0.577328 -0.577288
vn 1.000000 0.000000 0.000333
vn 0.707016 0.707198 0.000235
vn 1.000000 0.000000 0.000333
vn 0.577435 0.577328 -0.577288
vn -0.000077 -0.000001 -1.000000
vn -0.000054 0.707124 -0.707090
vn 0.707198 0.000000 -0.707016
vn 0.577435 0.577328 -0.577288
vn 0.707198 0.000000 -0.707016
vn -0.000054 0.707124 -0.707090
vn 0.000070 0.000001 1.000000
vn 0.000070 0.000001 1.000000
vn 0.000070 0.000001 1.000000
vn 0.000070 0.000001 1.000000
vn 0.000070 0.000001 1.000000
vn 0.000070 0.000001 1.000000
vn 1.000000 0.000000 -0.000119
vn 1.000000 0.000000 -0.000119
vn 1.000000 0.000000 -0.000119
vn 1.000000 0.000000 -0.000119
vn 1.000000 0.000000 -0.000119
vn 1.000000 0.000000 -0.000119
vn -1.000000 0.000000 0.000482
vn -0.707001 0.707213 0.000341
vn -0.707283 0.000000 -0.706931
vn -0.577507 0.577326 -0.577218
vn -0.707283 0.000000 -0.706931
vn -0.707001 0.707213 0.000341
vn -0.707283 0.000000 -0.706931
vn -0.577507 0.577326 -0.577218
vn -0.000016 0.000000 -1.000000
vn -0.000012 0.707130 -0.707083
vn -0.000016 0.000000 -1.000000
vn -0.577507 0.577326 -0.577218
vn 0.000005 0.000000 1.000000
vn 0.000012 0.000000 1.000000
vn 0.000012 -0.000008 1.000000
vn 0.000012 0.000000 1.000000
vn 0.000012 -0.000008 1.000000
vn 0.000012 0.000000 1.000000
o mid
o mid
usemtl jun_tile_crossroads_static
f 1/1/1 2/2/2 3/3/3
f 4/4/4 5/5/5 6/6/6
f 7/7/7 8/8/8 9/9/9
f 10/10/10 11/11/11 12/12/12
f 13/13/13 14/14/14 15/15/15
f 16/16/16 17/17/17 18/18/18
f 19/19/19 20/20/20 21/21/21
f 22/22/22 23/23/23 24/24/24
f 25/25/25 26/26/26 27/27/27
f 28/28/28 29/29/29 30/30/30
f 31/31/31 32/32/32 33/33/33
f 34/34/34 35/35/35 36/36/36
f 37/37/37 38/38/38 39/39/39
f 40/40/40 41/41/41 42/42/42
f 43/43/43 44/44/44 45/45/45
f 46/46/46 47/47/47 48/48/48
f 49/49/49 50/50/50 51/51/51
f 52/52/52 53/53/53 54/54/54
f 55/55/55 56/56/56 57/57/57
f 58/58/58 59/59/59 60/60/60
f 61/61/61 62/62/62 63/63/63
f 64/64/64 65/65/65 66/66/66
f 67/67/67 68/68/68 69/69/69
f 70/70/70 71/71/71 72/72/72
f 73/73/73 74/74/74 75/75/75
f 76/76/76 77/77/77 78/78/78
f 79/79/79 80/80/80 81/81/81
f 82/82/82 83/83/83 84/84/84
f 85/85/85 86/86/86 87/87/87
f 88/88/88 89/89/89 90/90/90
f 91/91/91 92/92/92 93/93/93
f 94/94/94 95/95/95 96/96/96
f 97/97/97 98/98/98 99/99/99
f 100/100/100 101/101/101 102/102/102
f 103/103/103 104/104/104 105/105/105
f 106/106/106 107/107/107 108/108/108
f 109/109/109 110/110/110 111/111/111
f 112/112/112 113/113/113 114/114/114
f 115/115/115 116/116/116 117/117/117
f 118/118/118 119/119/119 120/120/120
f 121/121/121 122/122/122 123/123/123
f 124/124/124 125/125/125 126/126/126
f 127/127/127 128/128/128 129/129/129
f 130/130/130 131/131/131 132/132/132
f 133/133/133 134/134/134 135/135/135
f 136/136/136 137/137/137 138/138/138
f 139/139/139 140/140/140 141/141/141
f 142/142/142 143/143/143 144/144/144
f 145/145/145 146/146/146 147/147/147
f 148/148/148 149/149/149 150/150/150
f 151/151/151 152/152/152 153/153/153
f 154/154/154 155/155/155 156/156/156
f 157/157/157 158/158/158 159/159/159
f 160/160/160 161/161/161 162/162/162
f 163/163/163 164/164/164 165/165/165
f 166/166/166 167/167/167 168/168/168
f 169/169/169 170/170/170 171/171/171
f 172/172/172 173/173/173 174/174/174
f 175/175/175 176/176/176 177/177/177
f 178/178/178 179/179/179 180/180/180
f 181/181/181 182/182/182 183/183/183
f 184/184/184 185/185/185 186/186/186
f 187/187/187 188/188/188 189/189/189
f 190/190/190 191/191/191 192/192/192
f 193/193/193 194/194/194 195/195/195
f 196/196/196 197/197/197 198/198/198
f 199/199/199 200/200/200 201/201/201
f 202/202/202 203/203/203 204/204/204
f 205/205/205 206/206/206 207/207/207
f 208/208/208 209/209/209 210/210/210
f 211/211/211 212/212/212 213/213/213
f 214/214/214 215/215/215 216/216/216
f 217/217/217 218/218/218 219/219/219
f 220/220/220 221/221/221 222/222/222
f 223/223/223 224/224/224 225/225/225
f 226/226/226 227/227/227 228/228/228
f 229/229/229 230/230/230 231/231/231
f 232/232/232 233/233/233 234/234/234
f 235/235/235 236/236/236 237/237/237
f 238/238/238 239/239/239 240/240/240
f 241/241/241 242/242/242 243/243/243
f 244/244/244 245/245/245 246/246/246
f 247/247/247 248/248/248 249/249/249
f 250/250/250 251/251/251 252/252/252
f 253/253/253 254/254/254 255/255/255
f 256/256/256 257/257/257 258/258/258
f 259/259/259 260/260/260 261/261/261
f 262/262/262 263/263/263 264/264/264
f 265/265/265 266/266/266 267/267/267
f 268/268/268 269/269/269 270/270/270
