# File produced by Open Asset Import Library (http://www.assimp.sf.net)
# (assimp v4.1.0)

mtllib 3ae77aeoni04.mtl

# 26 vertex positions
v  -0.4999960064888 -0.2000000029802322 -0.5000039935112
v  -0.5000040531158447 -0.2000000029802322 0.4999960064888
v  -0.500002384185791 0 -0.3339299857616425
v  -0.4999976754188538 0 0.3339360058307648
v  -0.4999972581863403 0.1450000107288361 -0.4631309807300568
v  -0.4999960064888 0.1450000107288361 -0.5000039935112
v  -0.5000040531158447 0.1450000107288361 0.4999960064888
v  -0.5000027418136597 0.1450000107288361 0.4632250070571899
v  0.5000039935112 -0.2000000029802322 -0.4999960064888
v  0.3339300155639648 0 -0.5000023245811462
v  -0.3339360356330872 0 -0.4999976754188538
v  -0.3360742926597595 0 -0.3360526859760284
v  -0.463847279548645 0.1450000107288361 -0.4631297290325165
v  -0.4638670086860657 0.1450000107288361 -0.5000026822090149
v  0.3297310471534729 0 -0.003142361994832754
v  0.4638740122318268 0.1450000107288361 -0.4999973177909851
v  0.4638690054416656 0.1450000107288361 1.471095129090827e-05
v  -0.003151595592498779 0 0.3297369778156281
v  1.326203346252441e-05 0.1450000107288361 0.4658190011978149
v  0.2856397032737732 0 0.1633352786302567
v  0.3922022581100464 0.1450000107288361 0.2174211293458939
v  0.5000039935112 0.1450000107288361 -0.4999960064888
v  0.4999960064888 0.1450000107288361 0.5000039935112
v  0.4999960064888 -0.2000000029802322 0.5000039935112
v  0.1627086997032166 0 0.286104291677475
v  0.2199369072914124 0.1450000107288361 0.3873077630996704

# 64 UV coordinates
vt 0.1189249977469444 0.8173419833183289 0
vt 0.02181600034236908 0.8173419833183289 0
vt 0.1045740023255348 0.8328449726104736 0
vt 0.03616699948906898 0.8328449726104736 0
vt 0.1078369989991188 0.8405960202217102 0
vt 0.1189249977469444 0.8405960202217102 0
vt 0.02181600034236908 0.8405960202217102 0
vt 0.0329039990901947 0.8405960202217102 0
vt 0.02064099907875061 0.8191109895706177 0
vt 0.122078001499176 0.8191109895706177 0
vt 0.03563199937343597 0.8310319781303406 0
vt 0.1070879995822906 0.8310319781303406 0
vt 0.06979899853467941 0.7746390104293823 0
vt 0.05086600035429001 0.7746260166168213 0
vt 0.06902699917554855 0.8097720146179199 0
vt 0.05086600035429001 0.8098120093345642 0
vt 0.09071400016546249 0.8098859786987305 0
vt 0.09194000065326691 0.7746310234069824 0
vt 0.4360960125923157 0.9723520278930664 0
vt 0.4507400095462799 0.9577080011367798 0
vt 0.4514890015125275 0.9877449870109558 0
vt 0.4661299884319305 0.9731029868125916 0
vt 0.1786320060491562 0.9030399918556213 0
vt 0.1000929996371269 0.9438509941101074 0
vt 0.178628996014595 0.8844109773635864 0
vt 0.1000929996371269 0.8844109773635864 0
vt 0.3147169947624207 0.8081809878349304 0
vt 0.3121350109577179 0.7736250162124634 0
vt 0.2078810036182404 0.8079720139503479 0
vt 0.20796899497509 0.7737540006637573 0
vt 0.08861999958753586 0.7736499905586243 0
vt 0.003899999894201756 0.7735880017280579 0
vt 0.09113699942827225 0.8079339861869812 0
vt 0.00393400015309453 0.8078870177268982 0
vt 0.196940004825592 0.9030399918556213 0
vt 0.196940004825592 0.9864330291748047 0
vt 0.1412989944219589 0.9864330291748047 0
vt 0.1038340032100677 0.9697530269622803 0
vt 0.1756560057401657 0.8079459667205811 0
vt 0.1730539947748184 0.7736610174179077 0
vt 0.4131160080432892 0.8352980017662048 0
vt 0.4221140146255493 0.9118019938468933 0
vt 0.4131160080432892 0.9865880012512207 0
vt 0.4221149981021881 0.8352980017662048 0
vt 0.4890770018100739 0.977653980255127 0
vt 0.5676040053367615 0.9865880012512207 0
vt 0.5676040053367615 0.977653980255127 0
vt 0.4364329874515533 0.9424239993095398 0
vt 0.02809100039303303 0.8159549832344055 0
vt 0.1196160018444061 0.8159549832344055 0
vt 0.02809100039303303 0.8378720283508301 0
vt 0.1196160018444061 0.8378720283508301 0
vt 0.1175720021128654 0.8169090151786804 0
vt 0.02418000064790249 0.8169090151786804 0
vt 0.1175720021128654 0.8368819952011108 0
vt 0.02418000064790249 0.8368819952011108 0
vt 0.110495999455452 0.8369929790496826 0
vt 0.122078001499176 0.8369929790496826 0
vt 0.02064099907875061 0.8369929790496826 0
vt 0.03222399950027466 0.8369929790496826 0
vt 0.1197500005364418 0.9837650060653687 0
vt 0.1284569948911667 0.7736629843711853 0
vt 0.1286250054836273 0.8078489899635315 0
vt 0.4585669934749603 0.9678090214729309 0

# 32 vertex normals
vn -1 -2.300000051036477e-05 -7.999999979801942e-06
vn -1 3.400000059627928e-05 6.000000212225132e-06
vn -1 9.999999974752427e-07 -3.600000127335079e-05
vn -1 9.999999974752427e-07 -3.500000093481503e-05
vn -1 -1.999999994950485e-06 -3.199999991920777e-05
vn 7.999999979801942e-06 -2.300000051036477e-05 -1
vn -6.000000212225132e-06 3.400000059627928e-05 -1
vn 0.7459889650344849 0.6658869981765747 0.009732968173921108
vn 0.7447460293769836 0.6673480272293091 -0.0003930420498363674
vn -3.597288741730154e-05 0.6652609705924988 0.7466109991073608
vn 0.009682018309831619 0.6638780236244202 0.747778058052063
vn -7.999999968033578e-12 1 9.999999974752427e-07
vn -1.000016027319361e-06 1 1.999992036871845e-06
vn 0 1 0
vn -0.7447140216827393 0.6673840284347534 -6.957712230359903e-06
vn -0.7421669960021973 0.670212984085083 -0.001488937297835946
vn -0.729495108127594 0.6745629906654358 -0.1131488308310509
vn -0.7359780669212341 0.6666110157966614 -0.1181768849492073
vn -0.1239141300320625 0.6673939824104309 -0.7343230247497559
vn 0.001458938117139041 0.6700980067253113 -0.7422710061073303
vn -0.1199211999773979 0.6783999800682068 -0.7248389720916748
vn 0.003872971050441265 0.6655099987983704 -0.7463789582252502
vn -0.6588249206542969 0.6432459950447083 -0.390107274055481
vn -0.666658878326416 0.6353260278701782 -0.3897793292999268
vn 1 -9.999999974752427e-07 7.999999979801942e-06
vn 1 0 7.999999979801942e-06
vn -7.999999979801942e-06 0 1
vn 3.400000059627928e-05 -9.999999974752427e-07 -1
vn 3.500000093481503e-05 0 -1
vn 3.300000025774352e-05 3.000000106112566e-06 -1
vn -0.3869485855102539 0.6266180276870728 -0.6764770746231079
vn -0.3953577280044556 0.6383050084114075 -0.6604991555213928

# Mesh 'tile_corner' with 46 faces
g tile_corner
usemtl PDX01_-_Default
f  1/1/1 2/2/1 3/3/1
f  4/4/2 3/3/2 2/2/2
f  3/3/3 5/5/3 1/1/3
f  6/6/4 1/1/4 5/5/4
f  2/2/4 7/7/4 4/4/4
f  8/8/5 4/4/5 7/7/5
f  9/9/6 1/10/6 10/11/6
f  11/12/7 10/11/7 1/10/7
f  12/13/8 11/14/8 13/15/8
f  14/16/9 13/15/9 11/14/9
f  5/17/10 3/18/10 13/15/10
f  12/13/11 13/15/11 3/18/11
f  5/19/12 13/20/12 6/21/12
f  14/22/13 6/21/13 13/20/13
f  12/23/14 15/24/14 11/25/14
f  10/26/14 11/25/14 15/24/14
f  16/27/15 10/28/16 17/29/17
f  15/30/18 17/29/17 10/28/16
f  18/31/19 4/32/20 19/33/21
f  8/34/22 19/33/21 4/32/20
f  3/35/14 4/36/14 12/23/14
f  18/37/14 12/23/14 4/36/14
f  15/24/14 12/23/14 20/38/14
f  17/29/17 15/30/18 21/39/23
f  20/40/24 21/39/23 15/30/18
f  22/41/14 17/42/14 23/43/14
f  16/44/14 17/42/14 22/41/14
f  19/45/14 7/46/14 23/43/14
f  8/47/14 7/46/14 19/45/14
f  17/42/14 21/48/14 23/43/14
f  24/49/25 9/50/25 23/51/25
f  22/52/26 23/51/26 9/50/26
f  2/53/27 24/54/27 7/55/27
f  23/56/27 7/55/27 24/54/27
f  14/57/28 11/12/28 6/58/28
f  1/10/29 6/58/29 11/12/29
f  9/9/29 10/11/29 22/59/29
f  16/60/30 22/59/30 10/11/30
f  25/61/14 12/23/14 18/37/14
f  25/62/31 18/31/19 26/63/32
f  19/33/21 26/63/32 18/31/19
f  23/43/14 26/64/14 19/45/14
f  23/43/14 21/48/14 26/64/14
f  20/40/24 25/62/31 21/39/23
f  26/63/32 21/39/23 25/62/31
f  25/61/14 20/38/14 12/23/14

