# File produced by Open Asset Import Library (http://www.assimp.sf.net)
# (assimp v4.1.0)

mtllib z7n98wdecdx8.mtl

# 40 vertex positions
v  -0.4999994933605194 0.1450000107288361 0.5000004768371582
v  -0.500000536441803 0.1450000107288361 -0.4999995231628418
v  -0.4999994933605194 -0.2000000029802322 0.5000004768371582
v  -0.500000536441803 -0.2000000029802322 -0.4999995231628418
v  0.5000004768371582 -0.2000000029802322 0.4999994933605194
v  0.5000084638595581 0.1450000107288361 0.4999994933605194
v  0.4999994933605194 -0.2000000029802322 -0.5000004768371582
v  0.5000074505805969 0.1450000107288361 -0.5000004768371582
v  -0.3224910497665405 0.3939950168132782 -0.07027572393417358
v  -0.3224908709526062 0.3939950168132782 0.1132963299751282
v  0.4988209009170532 0.3939950168132782 -0.1077374815940857
v  0.4988211393356323 0.3939950168132782 0.1507565081119537
v  -0.3245567977428436 0.3358429968357086 0.2073083221912384
v  -0.364586740732193 0.1481780111789703 0.2522023618221283
v  0.4988203048706055 0.3360490202903748 0.281263530254364
v  0.4988203644752502 0.1481780111789703 0.3445684909820557
v  0.4988207817077637 0.3360500037670135 -0.2293974757194519
v  0.4988206923007965 0.1481780111789703 -0.2927924990653992
v  -0.3245571553707123 0.3358449935913086 -0.1554417014122009
v  -0.3645872175693512 0.1481780111789703 -0.2004246711730957
v  -0.4645871520042419 0.3455280065536499 -0.1531205177307129
v  -0.4645872116088867 0.1481780111789703 -0.2004245519638062
v  -0.4645867943763733 0.3455280065536499 0.204991489648819
v  -0.4645867347717285 0.1481780111789703 0.2522024512290955
v  -0.322490781545639 0.3502160012722015 0.1961223185062408
v  0.4988202750682831 0.3490970134735107 0.2686964869499207
v  0.4988207817077637 0.3493260145187378 -0.2169174551963806
v  -0.3224911391735077 0.3505930006504059 -0.1444637179374695
v  -0.4506408870220184 0.4765330255031586 0.1132964491844177
v  -0.3785318732261658 0.4765330255031586 0.1132963895797729
v  -0.4506410658359528 0.4765330255031586 -0.07027554512023926
v  -0.3785320520401001 0.4765330255031586 -0.07027566432952881
v  -0.3324908018112183 0.3455280065536499 0.204991340637207
v  -0.3324911594390869 0.3455280065536499 -0.1531206369400024
v  -0.4506407976150513 0.4455280005931854 0.2049914598464966
v  -0.3785317838191986 0.4455280005931854 0.2049914002418518
v  -0.4506411552429199 0.4455280005931854 -0.1531205177307129
v  -0.3785321414470673 0.4455280005931854 -0.1531206369400024
v  -0.3273797929286957 0.3542520105838776 0.204991340637207
v  -0.3273801505565643 0.3542520105838776 -0.1531206965446472

# 58 UV coordinates
vt 0.1243330016732216 0.839959979057312 0
vt 0.01869899965822697 0.839959979057312 0
vt 0.1243330016732216 0.8157860040664673 0
vt 0.01869899965822697 0.8157860040664673 0
vt 0.01855999976396561 0.8158000111579895 0
vt 0.1258040070533752 0.8158000111579895 0
vt 0.01854299940168858 0.8396880030632019 0
vt 0.1258209943771362 0.8396880030632019 0
vt 0.9201229810714722 0.05107200145721436 0
vt 0.9512479901313782 0.05107200145721436 0
vt 0.9137719869613647 0.2234839797019958 0
vt 0.9575999975204468 0.2234839797019958 0
vt 0.9671880006790161 0.05062699317932129 0
vt 0.9798650145530701 0.04199701547622681 0
vt 0.979727029800415 0.2234839797019958 0
vt 0.9955260157585144 0.2234839797019958 0
vt 0.8931440114974976 0.2234839797019958 0
vt 0.8795819878578186 0.2234839797019958 0
vt 0.9056829810142517 0.05062699317932129 0
vt 0.8952429890632629 0.04199701547622681 0
vt 0.7855510115623474 0.02122598886489868 0
vt 0.7743859887123108 0.005201995372772217 0
vt 0.8553770184516907 0.02122598886489868 0
vt 0.8645820021629333 0.005201995372772217 0
vt 0.9652910232543945 0.05107200145721436 0
vt 0.9775959849357605 0.2234839797019958 0
vt 0.8952599763870239 0.2234839797019958 0
vt 0.9075449705123901 0.05107200145721436 0
vt 0.9512479901313782 0.02485698461532593 0
vt 0.9512479901313782 0.03899097442626953 0
vt 0.9201229810714722 0.02485698461532593 0
vt 0.9201229810714722 0.03899097442626953 0
vt 0.966795027256012 0.04901599884033203 0
vt 0.966795027256012 0.02184998989105225 0
vt 0.9798650145530701 0.01087397336959839 0
vt 0.8935539722442627 0.01087397336959839 0
vt 0.9060770273208618 0.02184998989105225 0
vt 0.9060770273208618 0.04901599884033203 0
vt 0.966795027256012 0.02485698461532593 0
vt 0.966795027256012 0.03899097442626953 0
vt 0.9060770273208618 0.02485698461532593 0
vt 0.9060770273208618 0.03899097442626953 0
vt 0.966795027256012 0.05001801252365112 0
vt 0.9060770273208618 0.05001801252365112 0
vt 0.8374980092048645 0.03570401668548584 0
vt 0.8553770184516907 0.03570401668548584 0
vt 0.8017039895057678 0.03570401668548584 0
vt 0.7855510115623474 0.03570401668548584 0
vt 0.04905800148844719 0.5846250057220459 0
vt 0.04905800148844719 0.5956460237503052 0
vt 0.01604199968278408 0.5807219743728638 0
vt 0.03887899965047836 0.6908019781112671 0
vt 0.01604199968278408 0.690932035446167 0
vt 0.09894300252199173 0.5956460237503052 0
vt 0.09894300252199173 0.5846250057220459 0
vt 0.1262529939413071 0.5807219743728638 0
vt 0.1091229990124702 0.6908019781112671 0
vt 0.1262529939413071 0.690932035446167 0

# 41 vertex normals
vn -1 0 9.999999974752427e-07
vn 9.999999974752427e-07 0 1
vn -9.999999974752427e-07 0 -1
vn 0.5011647343635559 0.8379390239715576 -0.2160855084657669
vn 0.4867852032184601 0.8454890251159668 0.2195205092430115
vn -0.009046198800206184 0.9800940155982971 -0.1983289867639542
vn -0.01545481011271477 0.9816139936447144 0.1902520209550858
vn 0.02992694266140461 0.3331030011177063 0.9424149394035339
vn -0.03917203098535538 0.2451390027999878 0.9686960577964783
vn -0.08344414085149765 0.5070419907569885 0.8578720688819885
vn -0.1008610501885414 0.3176909983158112 0.9428151249885559
vn -0.07721785455942154 0.5073429942131042 -0.8582779169082642
vn -0.08759094774723053 0.3088479936122894 -0.9470699429512024
vn 0.02278005704283714 0.3319480121135712 -0.9430220127105713
vn -0.04529896751046181 0.2419839948415756 -0.9692219495773315
vn -0.7422236800193787 0.1214030012488365 -0.6590642929077148
vn -0.6477497220039368 0.1775850057601929 -0.7408663630485535
vn -0.742193341255188 0.1216029971837997 0.6590617299079895
vn -0.6478742957115173 0.1772300004959106 0.7408426403999329
vn 0.5000415444374084 0.6733270287513733 0.5446005463600159
vn -0.048282440751791 0.827642023563385 0.5591760873794556
vn -0.04434657841920853 0.8145480155944824 -0.5783979296684265
vn 0.4913994371891022 0.6492769718170166 -0.5804874897003174
vn -0.6334038972854614 0.7643640041351318 0.1206116303801537
vn 0.4541811347007751 0.8782060146331787 0.1499125510454178
vn -0.6302971243858337 0.7648590207099915 -0.1331023722887039
vn 0.4448658525943756 0.8820719718933105 -0.1550594419240952
vn -0.05157800763845444 0.1142159998416901 0.9921160340309143
vn -0.05167299136519432 0.1144319996237755 -0.9920859336853027
vn -0.5439093708992004 0.5078709721565247 0.6680035591125488
vn 0.3892067074775696 0.5864409804344177 0.7103555798530579
vn -0.5450056791305542 0.4970349967479706 -0.6752224564552307
vn 0.3674232959747314 0.577206015586853 -0.7292683720588684
vn 0.569604754447937 0.2676270008087158 0.7771273851394653
vn 0.5611022114753723 0.2630510032176971 -0.7848365306854248
vn -1.060799981189575e-08 0.9999439716339111 -0.01060799974948168
vn -0.001082010101526976 0.9999480247497559 -0.01011899951845407
vn -1.533600091363496e-08 0.9998819828033447 -0.0153360003605485
vn 1.282399963997705e-08 0.9999179840087891 0.01282399985939264
vn -0.08938299864530563 0.9959970116615295 8.938300055660875e-08
vn -0.002188979415223002 0.9997879862785339 0.0204590018838644

# Mesh 'tile_boundary_tut_bot' with 64 faces
g tile_boundary_tut_bot
usemtl PDX01_-_Default
f  1/1/1 2/2/1 3/3/1
f  4/4/1 3/3/1 2/2/1
f  3/5/2 5/6/2 1/7/2
f  6/8/2 1/7/2 5/6/2
f  7/6/3 4/5/3 8/8/3
f  2/7/3 8/8/3 4/5/3
f  9/9/4 10/10/5 11/11/6
f  12/12/7 11/11/6 10/10/5
f  13/13/8 14/14/9 15/15/10
f  16/16/11 15/15/10 14/14/9
f  17/17/12 18/18/13 19/19/14
f  20/20/15 19/19/14 18/18/13
f  21/21/16 22/22/17 23/23/18
f  24/24/19 23/23/18 22/22/17
f  10/10/5 25/25/20 12/12/7
f  26/26/21 12/12/7 25/25/20
f  11/11/6 27/27/22 9/9/4
f  28/28/23 9/9/4 27/27/22
f  29/29/24 30/30/25 31/31/26
f  32/32/27 31/31/26 30/30/25
f  13/13/8 33/33/28 14/14/9
f  33/33/28 23/34/18 14/14/9
f  23/34/18 24/35/19 14/14/9
f  20/20/15 22/36/17 19/19/14
f  22/36/17 21/37/16 19/19/14
f  19/19/14 21/37/16 34/38/29
f  35/39/30 36/40/31 29/29/24
f  30/30/25 29/29/24 36/40/31
f  31/31/26 32/32/27 37/41/32
f  38/42/33 37/41/32 32/32/27
f  30/30/25 10/10/5 32/32/27
f  9/9/4 32/32/27 10/10/5
f  10/10/5 30/30/25 25/25/20
f  30/30/25 36/40/31 25/25/20
f  25/25/20 36/40/31 39/43/34
f  28/28/23 40/44/35 9/9/4
f  40/44/35 38/42/33 9/9/4
f  38/42/33 32/32/27 9/9/4
f  29/45/24 23/23/18 35/46/30
f  31/47/26 21/21/16 29/45/24
f  23/23/18 29/45/24 21/21/16
f  37/48/32 21/21/16 31/47/26
f  33/33/28 39/43/34 23/34/18
f  39/43/34 36/40/31 23/34/18
f  36/40/31 35/39/30 23/34/18
f  21/37/16 37/41/32 34/38/29
f  37/41/32 38/42/33 34/38/29
f  34/38/29 38/42/33 40/44/35
f  25/25/20 39/43/34 13/13/8
f  33/33/28 13/13/8 39/43/34
f  34/38/29 40/44/35 19/19/14
f  28/28/23 19/19/14 40/44/35
f  26/26/21 25/25/20 15/15/10
f  13/13/8 15/15/10 25/25/20
f  28/28/23 27/27/22 19/19/14
f  17/17/12 19/19/14 27/27/22
f  22/49/36 20/50/36 2/51/36
f  20/50/37 18/52/37 2/51/37
f  18/52/38 8/53/38 2/51/38
f  14/54/39 24/55/39 1/56/39
f  24/55/40 22/49/40 1/56/40
f  22/49/40 2/51/40 1/56/40
f  16/57/41 14/54/41 6/58/41
f  14/54/39 1/56/39 6/58/39

