mtllib jun_boundary_grass_earth_corner_ne.mtl
o blend_corner_grass_earth
usemtl PDX01_-_Default
v 0.49999950000000126 -0.20000000298023224 -0.5000004999999987
v -0.5000004999999987 -0.20000000298023224 -0.49999950000000126
v 0.49999949999201426 0.19499998539686203 -0.5000084870223986
v -0.5000005000079857 0.19499998539686203 -0.5000074870224012
v 0.49999949999201426 0.19499998539686203 -0.5000084870223986
v -0.5000004999999987 -0.20000000298023224 -0.49999950000000126
v 0.5000004999999987 0.19499998539686203 0.49999950000000126
v -0.49999950000000126 0.19499998539686203 0.5000004999999987
v 0.5000004999999987 -0.20000000298023224 0.49999950000000126
v -0.49999950000000126 -0.20000000298023224 0.5000004999999987
v 0.5000004999999987 -0.20000000298023224 0.49999950000000126
v -0.49999950000000126 0.19499998539686203 0.5000004999999987
v -0.49999950000000126 0.19499998539686203 0.5000004999999987
v 0.5000004999999987 0.19499998539686203 0.49999950000000126
v -0.5000005000079857 0.19499998539686203 -0.5000074870224012
v 0.49999949999201426 0.19499998539686203 -0.5000084870223986
v -0.5000005000079857 0.19499998539686203 -0.5000074870224012
v 0.5000004999999987 0.19499998539686203 0.49999950000000126
v 0.5000004999999987 -0.20000000298023224 0.49999950000000126
v 0.49999950000000126 -0.20000000298023224 -0.5000004999999987
v 0.5000004999999987 0.19499998539686203 0.49999950000000126
v 0.49999949999201426 0.19499998539686203 -0.5000084870223986
v 0.5000004999999987 0.19499998539686203 0.49999950000000126
v 0.49999950000000126 -0.20000000298023224 -0.5000004999999987
v -0.5000004999999987 -0.20000000298023224 -0.49999950000000126
v -0.49999950000000126 -0.20000000298023224 0.5000004999999987
v -0.5000005000079857 0.19499998539686203 -0.5000074870224012
v -0.49999950000000126 0.19499998539686203 0.5000004999999987
v -0.5000005000079857 0.19499998539686203 -0.5000074870224012
v -0.49999950000000126 -0.20000000298023224 0.5000004999999987
vt 0.12807300686836243 0.7067400217056274
vt 0.013105999678373337 0.7067400217056274
vt 0.12807300686836243 0.7371349930763245
vt 0.013105999678373337 0.7371349930763245
vt 0.12807300686836243 0.7371349930763245
vt 0.013105999678373337 0.7067400217056274
vt 0.12807300686836243 0.7371349930763245
vt 0.013105999678373337 0.7371349930763245
vt 0.12807300686836243 0.7067400217056274
vt 0.013105999678373337 0.7067400217056274
vt 0.12807300686836243 0.7067400217056274
vt 0.013105999678373337 0.7371349930763245
vt 0.6765000224113464 0.694703996181488
vt 0.6765000224113464 0.5758770108222961
vt 0.7922390103340149 0.694703996181488
vt 0.7922390103340149 0.5758770108222961
vt 0.7922390103340149 0.694703996181488
vt 0.6765000224113464 0.5758770108222961
vt 0.012966999784111977 0.7067530155181885
vt 0.12804600596427917 0.7067530155181885
vt 0.01295000035315752 0.7368639707565308
vt 0.12806299328804016 0.7368639707565308
vt 0.01295000035315752 0.7368639707565308
vt 0.12804600596427917 0.7067530155181885
vt 0.12804600596427917 0.7067530155181885
vt 0.012966999784111977 0.7067530155181885
vt 0.12806299328804016 0.7368639707565308
vt 0.01295000035315752 0.7368639707565308
vt 0.12806299328804016 0.7368639707565308
vt 0.012966999784111977 0.7067530155181885
vn -9.999999972947427e-7 -0.00001899999915280175 -0.9999999998190001
vn -9.999999972947427e-7 -0.00001899999915280175 -0.9999999998190001
vn -9.999999972947427e-7 -0.00001899999915280175 -0.9999999998190001
vn -9.999999972947427e-7 -0.00001899999915280175 -0.9999999998190001
vn -9.999999972947427e-7 -0.00001899999915280175 -0.9999999998190001
vn -9.999999972947427e-7 -0.00001899999915280175 -0.9999999998190001
vn 9.999999974752427e-7 0 0.9999999999995002
vn 9.999999974752427e-7 0 0.9999999999995002
vn 9.999999974752427e-7 0 0.9999999999995002
vn 9.999999974752427e-7 0 0.9999999999995002
vn 9.999999974752427e-7 0 0.9999999999995002
vn 9.999999974752427e-7 0 0.9999999999995002
vn 0 1 0
vn 0 1 0
vn 0 1 0
vn 0 1 0
vn 0 1 0
vn 0 1 0
vn 0.9999999999995002 0 -9.999999974752427e-7
vn 0.9999999999995002 0 -9.999999974752427e-7
vn 0.9999999999995002 0 -9.999999974752427e-7
vn 0.9999999999995002 0 -9.999999974752427e-7
vn 0.9999999999995002 0 -9.999999974752427e-7
vn 0.9999999999995002 0 -9.999999974752427e-7
vn -0.9999999999995002 0 9.999999974752427e-7
vn -0.9999999999995002 0 9.999999974752427e-7
vn -0.9999999999995002 0 9.999999974752427e-7
vn -0.9999999999995002 0 9.999999974752427e-7
vn -0.9999999999995002 0 9.999999974752427e-7
vn -0.9999999999995002 0 9.999999974752427e-7
f 1/1/1 2/2/2 3/3/3
f 4/4/4 5/5/5 6/6/6
f 7/7/7 8/8/8 9/9/9
f 10/10/10 11/11/11 12/12/12
f 13/13/13 14/14/14 15/15/15
f 16/16/16 17/17/17 18/18/18
f 19/19/19 20/20/20 21/21/21
f 22/22/22 23/23/23 24/24/24
f 25/25/25 26/26/26 27/27/27
f 28/28/28 29/29/29 30/30/30
