mtllib jun_tile_se_boundary_corner.mtl
o tile_boundary_edged_corner01
usemtl PDX01_-_Default
v 0.5000025100345624 -0.20000000298023224 -0.5000004999999987
v -0.4999974899654376 -0.20000000298023224 -0.49999950000000126
v 0.5000025100345624 0.19499700516462326 -0.5000004999999987
v -0.4999974899654376 0.19499700516462326 -0.49999950000000126
v 0.5000025100345624 0.19499700516462326 -0.5000004999999987
v -0.4999974899654376 -0.20000000298023224 -0.49999950000000126
v -0.4999964899574531 0.19499599188566208 0.5000084870223986
v -0.4999974899654376 0.19499700516462326 -0.49999950000000126
v -0.4999964899654401 -0.20000000298023224 0.5000004999999987
v -0.4999974899654376 -0.20000000298023224 -0.49999950000000126
v -0.4999964899654401 -0.20000000298023224 0.5000004999999987
v -0.4999974899654376 0.19499700516462326 -0.49999950000000126
v -0.4999964899574531 0.19499599188566208 0.5000084870223986
v -0.4999964899654401 -0.20000000298023224 0.5000004999999987
v -0.000006503537775370827 0.19499599188566208 0.5000079870324134
v 0.000001513278959919262 -0.20000000298023224 0.5000000000019967
v -0.000006503537775370827 0.19499599188566208 0.5000079870324134
v -0.4999964899654401 -0.20000000298023224 0.5000004999999987
v 0.5000025100345624 0.19499700516462326 -0.5000004999999987
v -0.4999974899654376 0.19499700516462326 -0.49999950000000126
v 0.5000030100185612 0.19499700516462326 -0.000016499999958342006
v -0.4999964899574531 0.19499599188566208 0.5000084870223986
v -0.000006503537775370827 0.19499599188566208 0.5000079870324134
v -0.4999974899654376 0.19499700516462326 -0.49999950000000126
v -0.4999974899654376 0.19499700516462326 -0.49999950000000126
v -0.000006503537775370827 0.19499599188566208 0.5000079870324134
v 0.5000030100185612 0.19499700516462326 -0.000016499999958342006
v 0.5000025100345624 0.19499700516462326 -0.5000004999999987
v 0.5000030100185612 0.19499700516462326 -0.000016499999958342006
v 0.5000025100345624 -0.20000000298023224 -0.5000004999999987
v 0.5000030100185612 -0.20000000298023224 -0.000016499999958342006
v 0.5000025100345624 -0.20000000298023224 -0.5000004999999987
v 0.5000030100185612 0.19499700516462326 -0.000016499999958342006
v -0.000006503537775370827 0.19499599188566208 0.5000079870324134
v 0.000001513278959919262 -0.20000000298023224 0.5000000000019967
v 0.5000030100185612 0.19499700516462326 -0.000016499999958342006
v 0.000001513278959919262 -0.20000000298023224 0.5000000000019967
v 0.5000030100185612 -0.20000000298023224 -0.000016499999958342006
v 0.5000030100185612 0.19499700516462326 -0.000016499999958342006
vt 0.03641200065612793 0.7073880434036255
vt 0.11727999895811081 0.7073880434036255
vt 0.03641200065612793 0.738556981086731
vt 0.11727999895811081 0.738556981086731
vt 0.03641200065612793 0.738556981086731
vt 0.11727999895811081 0.7073880434036255
vt 0.1165589988231659 0.738286018371582
vt 0.015065999701619148 0.738286018371582
vt 0.11654599756002426 0.7074010372161865
vt 0.015077999792993069 0.7074010372161865
vt 0.11654599756002426 0.7074010372161865
vt 0.015065999701619148 0.738286018371582
vt 0.11727999895811081 0.738556981086731
vt 0.11727999895811081 0.7073880434036255
vt 0.06873100250959396 0.738556981086731
vt 0.06872999668121338 0.7073880434036255
vt 0.06873100250959396 0.738556981086731
vt 0.11727999895811081 0.7073880434036255
vt 0.12837499380111694 0.6886969804763794
vt 0.12837499380111694 0.5769590139389038
vt 0.058959998190402985 0.6886969804763794
vt 0.012752000242471695 0.5769590139389038
vt 0.012752000242471695 0.6441190242767334
vt 0.12837499380111694 0.5769590139389038
vt 0.12837499380111694 0.5769590139389038
vt 0.012752000242471695 0.6441190242767334
vt 0.058959998190402985 0.6886969804763794
vt 0.04630599915981293 0.738286018371582
vt 0.09831500053405762 0.738286018371582
vt 0.04631900042295456 0.7074010372161865
vt 0.09831299632787704 0.7074010372161865
vt 0.04631900042295456 0.7074010372161865
vt 0.09831500053405762 0.738286018371582
vt 0.09747300297021866 0.7381489872932434
vt 0.09747099876403809 0.7074249982833862
vt 0.04411900043487549 0.7381489872932434
vt 0.09747099876403809 0.7074249982833862
vt 0.04411900043487549 0.7074249982833862
vt 0.04411900043487549 0.7381489872932434
vn -9.999999974752427e-7 0 -0.9999999999995002
vn -9.999999974752427e-7 0 -0.9999999999995002
vn -9.999999974752427e-7 0 -0.9999999999995002
vn -9.999999974752427e-7 0 -0.9999999999995002
vn -9.999999974752427e-7 0 -0.9999999999995002
vn -9.999999974752427e-7 0 -0.9999999999995002
vn -0.9999999999995002 0 9.999999974752427e-7
vn -0.9999999999995002 0 9.999999974752427e-7
vn -0.9999999999995002 0 9.999999974752427e-7
vn -0.9999999999995002 0 9.999999974752427e-7
vn -0.9999999999995002 0 9.999999974752427e-7
vn -0.9999999999995002 0 9.999999974752427e-7
vn 9.999999972947427e-7 -0.00001899999915280175 0.9999999998190001
vn 9.999999972947427e-7 -0.00001899999915280175 0.9999999998190001
vn 9.999999972947427e-7 -0.00001899999915280175 0.9999999998190001
vn 9.999999972947427e-7 -0.00001899999915280175 0.9999999998190001
vn 9.999999972947427e-7 -0.00001899999915280175 0.9999999998190001
vn 9.999999972947427e-7 -0.00001899999915280175 0.9999999998190001
vn 0 1 0
vn 0 1 0
vn 0 1 0
vn 0 1 0
vn 0 1 0
vn 0 1 0
vn 0 1 0
vn 0 1 0
vn 0 1 0
vn 0.9999999999995002 0 -9.999999974752427e-7
vn 0.9999999999995002 0 -9.999999974752427e-7
vn 0.9999999999995002 0 -9.999999974752427e-7
vn 0.9999999999995002 0 -9.999999974752427e-7
vn 0.9999999999995002 0 -9.999999974752427e-7
vn 0.9999999999995002 0 -9.999999974752427e-7
vn 0.7071169951593581 0 0.7070965670661965
vn 0.7071169951593581 0 0.7070965670661965
vn 0.7071169951593581 0 0.7070965670661965
vn 0.7071169951593581 0 0.7070965670661965
vn 0.7071169951593581 0 0.7070965670661965
vn 0.7071169951593581 0 0.7070965670661965
f 1/1/1 2/2/2 3/3/3
f 4/4/4 5/5/5 6/6/6
f 7/7/7 8/8/8 9/9/9
f 10/10/10 11/11/11 12/12/12
f 13/13/13 14/14/14 15/15/15
f 16/16/16 17/17/17 18/18/18
f 19/19/19 20/20/20 21/21/21
f 22/22/22 23/23/23 24/24/24
f 25/25/25 26/26/26 27/27/27
f 28/28/28 29/29/29 30/30/30
f 31/31/31 32/32/32 33/33/33
f 34/34/34 35/35/35 36/36/36
f 37/37/37 38/38/38 39/39/39
