mtllib jun_tile_se_boundary_sml_corner.mtl
o boundary_small_corner
usemtl PDX01_-_Default
v 0.5000030100385611 0.194986991584301 0.0000034999999911628497
v 0.0000024967635857131576 0.194986991584301 0.5000079870234132
v 0.5000035100425468 0.194986991584301 0.5000074870224012
v 0.5000035100425468 0.194986991584301 0.5000074870224012
v 0.0000024967635857131576 0.194986991584301 0.5000079870234132
v 0.5000035100345599 -0.20000000298023224 0.49999950000000126
v 0.000010483777998615551 -0.20000000298023224 0.49999999999302625
v 0.5000035100345599 -0.20000000298023224 0.49999950000000126
v 0.0000024967635857131576 0.194986991584301 0.5000079870234132
v 0.5000035100425468 0.194986991584301 0.5000074870224012
v 0.5000035100345599 -0.20000000298023224 0.49999950000000126
v 0.5000030100385611 0.194986991584301 0.0000034999999911628497
v 0.5000030100385611 -0.20000000298023224 0.0000034999999911628497
v 0.5000030100385611 0.194986991584301 0.0000034999999911628497
v 0.5000035100345599 -0.20000000298023224 0.49999950000000126
v 0.5000030100385611 -0.20000000298023224 0.0000034999999911628497
v 0.000010483777998615551 -0.20000000298023224 0.49999999999302625
v 0.5000030100385611 0.194986991584301 0.0000034999999911628497
v 0.0000024967635857131576 0.194986991584301 0.5000079870234132
v 0.5000030100385611 0.194986991584301 0.0000034999999911628497
v 0.000010483777998615551 -0.20000000298023224 0.49999999999302625
vt 0.08216699957847595 0.693310022354126
vt 0.12897300720214844 0.6491209864616394
vt 0.12897300720214844 0.693310022354126
vt 0.026308000087738037 0.736441969871521
vt 0.0930040031671524 0.736441969871521
vt 0.026308000087738037 0.7094119787216187
vt 0.09300299733877182 0.7094119787216187
vt 0.026308000087738037 0.7094119787216187
vt 0.0930040031671524 0.736441969871521
vt 0.0920799970626831 0.7361699938774109
vt 0.09206400066614151 0.7094259858131409
vt 0.027041999623179436 0.7361699938774109
vt 0.027039000764489174 0.7094259858131409
vt 0.027041999623179436 0.7361699938774109
vt 0.09206400066614151 0.7094259858131409
vt 0.09250199794769287 0.7094259858131409
vt 0.02598400041460991 0.7094119787216187
vt 0.0928260013461113 0.7362920045852661
vt 0.026003999635577202 0.7364590167999268
vt 0.0928260013461113 0.7362920045852661
vt 0.02598400041460991 0.7094119787216187
vn 0 1 0
vn 0 1 0
vn 0 1 0
vn 9.999999972947427e-7 -0.00001899999915280175 0.9999999998190001
vn 9.999999972947427e-7 -0.00001899999915280175 0.9999999998190001
vn 9.999999972947427e-7 -0.00001899999915280175 0.9999999998190001
vn 9.999999972947427e-7 -0.00001899999915280175 0.9999999998190001
vn 9.999999972947427e-7 -0.00001899999915280175 0.9999999998190001
vn 9.999999972947427e-7 -0.00001899999915280175 0.9999999998190001
vn 0.9999999999995002 0 -9.999999974752427e-7
vn 0.9999999999995002 0 -9.999999974752427e-7
vn 0.9999999999995002 0 -9.999999974752427e-7
vn 0.9999999999995002 0 -9.999999974752427e-7
vn 0.9999999999995002 0 -9.999999974752427e-7
vn 0.9999999999995002 0 -9.999999974752427e-7
vn -0.7071090082080955 0 -0.7071045541579855
vn -0.7071090082080955 0 -0.7071045541579855
vn -0.7071090082080955 0 -0.7071045541579855
vn -0.7071094850437074 0 -0.7071040773190487
vn -0.7071090082080955 0 -0.7071045541579855
vn -0.7071090082080955 0 -0.7071045541579855
f 1/1/1 2/2/2 3/3/3
f 4/4/4 5/5/5 6/6/6
f 7/7/7 8/8/8 9/9/9
f 10/10/10 11/11/11 12/12/12
f 13/13/13 14/14/14 15/15/15
f 16/16/16 17/17/17 18/18/18
f 19/19/19 20/20/20 21/21/21
