mtllib med_tile_nw_corner.mtl
o tile_corner
usemtl PDX08_-_Default
v -0.500001999999995 -0.20000000298023224 -0.49999800000000494
v -0.49999800000000505 -0.20000000298023224 0.5000019999999951
v -0.5000063424941268 0 -0.3339239922304203
v -0.4999936574498448 0 0.3339419993219326
v -0.5000063424941268 0 -0.3339239922304203
v -0.49999800000000505 -0.20000000298023224 0.5000019999999951
v -0.5000063424941268 0 -0.3339239922304203
v -0.5000015432720146 0.14500000327825546 -0.38581600460815924
v -0.500001999999995 -0.20000000298023224 -0.49999800000000494
v -0.500001999999995 0.14500000327825546 -0.49999800000000494
v -0.500001999999995 -0.20000000298023224 -0.49999800000000494
v -0.5000015432720146 0.14500000327825546 -0.38581600460815924
v -0.49999800000000505 -0.20000000298023224 0.5000019999999951
v -0.49999800000000505 0.14500000327825546 0.5000019999999951
v -0.4999936574498448 0 0.3339419993219326
v -0.4999984567279855 0.14500000327825546 0.38582000460814936
v -0.4999936574498448 0 0.3339419993219326
v -0.49999800000000505 0.14500000327825546 0.5000019999999951
v 0.49999800000000505 -0.20000000298023224 -0.500001999999995
v -0.500001999999995 -0.20000000298023224 -0.49999800000000494
v 0.33392400713158155 0 -0.5000063424941864
v -0.33394202912425497 0 -0.49999365744972557
v 0.33392400713158155 0 -0.5000063424941864
v -0.500001999999995 -0.20000000298023224 -0.49999800000000494
v -0.33607831906878605 0 -0.3360486594591174
v -0.33394202912425497 0 -0.49999365744972557
v -0.38580154727744664 0.14500000327825546 -0.3858164614081421
v -0.38582000460814925 0.14500000327825546 -0.4999984567279854
v -0.38580154727744664 0.14500000327825546 -0.3858164614081421
v -0.33394202912425497 0 -0.49999365744972557
v -0.5000015432720146 0.14500000327825546 -0.38581600460815924
v -0.5000063424941268 0 -0.3339239922304203
v -0.38580154727744664 0.14500000327825546 -0.3858164614081421
v -0.33607831906878605 0 -0.3360486594591174
v -0.38580154727744664 0.14500000327825546 -0.3858164614081421
v -0.5000063424941268 0 -0.3339239922304203
v -0.5000015432720146 0.14500000327825546 -0.38581600460815924
v -0.38580154727744664 0.14500000327825546 -0.3858164614081421
v -0.500001999999995 0.14500000327825546 -0.49999800000000494
v -0.38582000460814925 0.14500000327825546 -0.4999984567279854
v -0.500001999999995 0.14500000327825546 -0.49999800000000494
v -0.38580154727744664 0.14500000327825546 -0.3858164614081421
v -0.33607831906878605 0 -0.3360486594591174
v 0.3297309898699895 0 -0.0031463188900318077
v -0.33394202912425497 0 -0.49999365744972557
v 0.33392400713158155 0 -0.5000063424941864
v -0.33394202912425497 0 -0.49999365744972557
v 0.3297309898699895 0 -0.0031463188900318077
v 0.38581599715757875 0.14500000327825546 -0.5000015432719846
v 0.33392400713158155 0 -0.5000063424941864
v 0.3858179972055737 0.14500000327825546 0.000010456728439726347
v 0.3297309898699895 0 -0.0031463188900318077
v 0.3858179972055737 0.14500000327825546 0.000010456728439726347
v 0.33392400713158155 0 -0.5000063424941864
v -0.003147654040101533 0 0.3297370202138424
v -0.4999936574498448 0 0.3339419993219326
v 0.00001653383612243431 0.14500000327825546 0.3858169912692309
v -0.4999984567279855 0.14500000327825546 0.38582000460814936
v 0.00001653383612243431 0.14500000327825546 0.3858169912692309
v -0.4999936574498448 0 0.3339419993219326
v -0.5000063424941268 0 -0.3339239922304203
v -0.4999936574498448 0 0.3339419993219326
v -0.33607831906878605 0 -0.3360486594591174
v -0.003147654040101533 0 0.3297370202138424
v -0.33607831906878605 0 -0.3360486594591174
v -0.4999936574498448 0 0.3339419993219326
v 0.3297309898699895 0 -0.0031463188900318077
v -0.33607831906878605 0 -0.3360486594591174
v 0.28564165300679045 0 0.1633318561885982
v 0.3858179972055737 0.14500000327825546 0.000010456728439726347
v 0.3297309898699895 0 -0.0031463188900318077
v 0.33916978475481074 0.14500000327825546 0.19728264145577298
v 0.28564165300679045 0 0.1633318561885982
v 0.33916978475481074 0.14500000327825546 0.19728264145577298
v 0.3297309898699895 0 -0.0031463188900318077
v 0.49999800000000505 0.14500000327825546 -0.500001999999995
v 0.3858179972055737 0.14500000327825546 0.000010456728439726347
v 0.500001999999995 0.14500000327825546 0.49999800000000505
v 0.38581599715757875 0.14500000327825546 -0.5000015432719846
v 0.3858179972055737 0.14500000327825546 0.000010456728439726347
v 0.49999800000000505 0.14500000327825546 -0.500001999999995
v 0.00001653383612243431 0.14500000327825546 0.3858169912692309
v -0.49999800000000505 0.14500000327825546 0.5000019999999951
v 0.500001999999995 0.14500000327825546 0.49999800000000505
v -0.4999984567279855 0.14500000327825546 0.38582000460814936
v -0.49999800000000505 0.14500000327825546 0.5000019999999951
v 0.00001653383612243431 0.14500000327825546 0.3858169912692309
v 0.3858179972055737 0.14500000327825546 0.000010456728439726347
v 0.33916978475481074 0.14500000327825546 0.19728264145577298
v 0.500001999999995 0.14500000327825546 0.49999800000000505
v 0.500001999999995 -0.20000000298023224 0.49999800000000505
v 0.49999800000000505 -0.20000000298023224 -0.500001999999995
v 0.500001999999995 0.14500000327825546 0.49999800000000505
v 0.49999800000000505 0.14500000327825546 -0.500001999999995
v 0.500001999999995 0.14500000327825546 0.49999800000000505
v 0.49999800000000505 -0.20000000298023224 -0.500001999999995
v -0.49999800000000505 -0.20000000298023224 0.5000019999999951
v 0.500001999999995 -0.20000000298023224 0.49999800000000505
v -0.49999800000000505 0.14500000327825546 0.5000019999999951
v 0.500001999999995 0.14500000327825546 0.49999800000000505
v -0.49999800000000505 0.14500000327825546 0.5000019999999951
v 0.500001999999995 -0.20000000298023224 0.49999800000000505
v -0.38582000460814925 0.14500000327825546 -0.4999984567279854
v -0.33394202912425497 0 -0.49999365744972557
v -0.500001999999995 0.14500000327825546 -0.49999800000000494
v -0.500001999999995 -0.20000000298023224 -0.49999800000000494
v -0.500001999999995 0.14500000327825546 -0.49999800000000494
v -0.33394202912425497 0 -0.49999365744972557
v 0.49999800000000505 -0.20000000298023224 -0.500001999999995
v 0.33392400713158155 0 -0.5000063424941864
v 0.49999800000000505 0.14500000327825546 -0.500001999999995
v 0.38581599715757875 0.14500000327825546 -0.5000015432719846
v 0.49999800000000505 0.14500000327825546 -0.500001999999995
v 0.33392400713158155 0 -0.5000063424941864
v 0.16271213889407826 0 0.28610235933363604
v -0.33607831906878605 0 -0.3360486594591174
v -0.003147654040101533 0 0.3297370202138424
v 0.16271213889407826 0 0.28610235933363604
v -0.003147654040101533 0 0.3297370202138424
v 0.19657434782540456 0.14500000327825546 0.3396492188102027
v 0.00001653383612243431 0.14500000327825546 0.3858169912692309
v 0.19657434782540456 0.14500000327825546 0.3396492188102027
v -0.003147654040101533 0 0.3297370202138424
v 0.500001999999995 0.14500000327825546 0.49999800000000505
v 0.19657434782540456 0.14500000327825546 0.3396492188102027
v 0.00001653383612243431 0.14500000327825546 0.3858169912692309
v 0.500001999999995 0.14500000327825546 0.49999800000000505
v 0.33916978475481074 0.14500000327825546 0.19728264145577298
v 0.19657434782540456 0.14500000327825546 0.3396492188102027
v 0.28564165300679045 0 0.1633318561885982
v 0.16271213889407826 0 0.28610235933363604
v 0.33916978475481074 0.14500000327825546 0.19728264145577298
v 0.19657434782540456 0.14500000327825546 0.3396492188102027
v 0.33916978475481074 0.14500000327825546 0.19728264145577298
v 0.16271213889407826 0 0.28610235933363604
v 0.16271213889407826 0 0.28610235933363604
v 0.28564165300679045 0 0.1633318561885982
v -0.33607831906878605 0 -0.3360486594591174
vt 0.3522289991378784 0.7741349935531616
vt 0.2094780057668686 0.7741349935531616
vt 0.33113300800323486 0.7969239950180054
vt 0.23057399690151215 0.7969239950180054
vt 0.33113300800323486 0.7969239950180054
vt 0.2094780057668686 0.7741349935531616
vt 0.33113300800323486 0.7969239950180054
vt 0.3359290063381195 0.8083189725875854
vt 0.3522289991378784 0.7741349935531616
vt 0.3522289991378784 0.8083189725875854
vt 0.3522289991378784 0.7741349935531616
vt 0.3359290063381195 0.8083189725875854
vt 0.2094780057668686 0.7741349935531616
vt 0.2094780057668686 0.8083189725875854
vt 0.23057399690151215 0.7969239950180054
vt 0.22577700018882751 0.8083189725875854
vt 0.23057399690151215 0.7969239950180054
vt 0.2094780057668686 0.8083189725875854
vt 0.20775100588798523 0.7767350077629089
vt 0.35686400532722473 0.7767350077629089
vt 0.22978700697422028 0.7942600250244141
vt 0.3348279893398285 0.7942600250244141
vt 0.22978700697422028 0.7942600250244141
vt 0.35686400532722473 0.7767350077629089
vt 0.06979899853467941 0.7735179662704468
vt 0.05086600035429001 0.7735059857368469
vt 0.06902699917554855 0.8007659912109375
vt 0.05086600035429001 0.8008059859275818
vt 0.06902699917554855 0.8007659912109375
vt 0.05086600035429001 0.7735059857368469
vt 0.0907140001654625 0.8008800148963928
vt 0.0919400006532669 0.7735099792480469
vt 0.06902699917554855 0.8007659912109375
vt 0.06979899853467941 0.7735179662704468
vt 0.06902699917554855 0.8007659912109375
vt 0.0919400006532669 0.7735099792480469
vt 0.4360960125923157 0.9723520278930664
vt 0.4507400095462799 0.9577080011367798
vt 0.45148900151252747 0.9877449870109558
vt 0.46612998843193054 0.9731029868125916
vt 0.45148900151252747 0.9877449870109558
vt 0.4507400095462799 0.9577080011367798
vt 0.08592899888753891 0.8902339935302734
vt 0.015897000208497047 0.9256529808044434
vt 0.08592599630355835 0.8721320033073425
vt 0.015897000208497047 0.8721320033073425
vt 0.08592599630355835 0.8721320033073425
vt 0.015897000208497047 0.9256529808044434
vt 0.01672299951314926 0.799888014793396
vt 0.019214000552892685 0.7738749980926514
vt 0.10496100038290024 0.7996789813041687
vt 0.10487700253725052 0.7740039825439453
vt 0.10496100038290024 0.7996789813041687
vt 0.019214000552892685 0.7738749980926514
vt 0.13272200524806976 0.773900032043457
vt 0.050985001027584076 0.7738379836082458
vt 0.1351500004529953 0.7996410131454468
vt 0.051017001271247864 0.799593985080719
vt 0.1351500004529953 0.7996410131454468
vt 0.050985001027584076 0.7738379836082458
vt 0.10272499918937683 0.8902339935302734
vt 0.10272499918937683 0.9626979827880859
vt 0.08592899888753891 0.8902339935302734
vt 0.051677998155355453 0.9626979827880859
vt 0.08592899888753891 0.8902339935302734
vt 0.10272499918937683 0.9626979827880859
vt 0.015897000208497047 0.9256529808044434
vt 0.08592899888753891 0.8902339935302734
vt 0.0198340006172657 0.9484059810638428
vt 0.10496100038290024 0.7996789813041687
vt 0.10487700253725052 0.7740039825439453
vt 0.1360509991645813 0.7996519804000854
vt 0.13856099545955658 0.7739109992980957
vt 0.1360509991645813 0.7996519804000854
vt 0.10487700253725052 0.7740039825439453
vt 0.4106900095939636 0.8352980017662048
vt 0.43070799112319946 0.9118019938468933
vt 0.4106900095939636 0.9885590076446533
vt 0.43070799112319946 0.8352980017662048
vt 0.43070799112319946 0.9118019938468933
vt 0.4106900095939636 0.8352980017662048
vt 0.48907700181007385 0.9671400189399719
vt 0.5665929913520813 0.9885590076446533
vt 0.4106900095939636 0.9885590076446533
vt 0.5665929913520813 0.9671400189399719
vt 0.5665929913520813 0.9885590076446533
vt 0.48907700181007385 0.9671400189399719
vt 0.43070799112319946 0.9118019938468933
vt 0.43643298745155334 0.9424239993095398
vt 0.4106900095939636 0.9885590076446533
vt 0.2191700041294098 0.7760369777679443
vt 0.3473060131072998 0.7760369777679443
vt 0.2191700041294098 0.8067209720611572
vt 0.3473060131072998 0.8067209720611572
vt 0.2191700041294098 0.8067209720611572
vt 0.3473060131072998 0.7760369777679443
vt 0.34444400668144226 0.7773720026016235
vt 0.2136940062046051 0.7773720026016235
vt 0.34444400668144226 0.8053349852561951
vt 0.2136940062046051 0.8053349852561951
vt 0.34444400668144226 0.8053349852561951
vt 0.2136940062046051 0.7773720026016235
vt 0.3398379981517792 0.803022027015686
vt 0.3348279893398285 0.7942600250244141
vt 0.35686400532722473 0.803022027015686
vt 0.35686400532722473 0.7767350077629089
vt 0.35686400532722473 0.803022027015686
vt 0.3348279893398285 0.7942600250244141
vt 0.20775100588798523 0.7767350077629089
vt 0.22978700697422028 0.7942600250244141
vt 0.20775100588798523 0.803022027015686
vt 0.2247769981622696 0.803022027015686
vt 0.20775100588798523 0.803022027015686
vt 0.22978700697422028 0.7942600250244141
vt 0.03241400048136711 0.9602500200271606
vt 0.08592899888753891 0.8902339935302734
vt 0.051677998155355453 0.9626979827880859
vt 0.16984200477600098 0.7739120125770569
vt 0.13272200524806976 0.773900032043457
vt 0.1700029969215393 0.7995560169219971
vt 0.1351500004529953 0.7996410131454468
vt 0.1700029969215393 0.7995560169219971
vt 0.13272200524806976 0.773900032043457
vt 0.4106900095939636 0.9885590076446533
vt 0.4585669934749603 0.9645230174064636
vt 0.48907700181007385 0.9671400189399719
vt 0.4106900095939636 0.9885590076446533
vt 0.43643298745155334 0.9424239993095398
vt 0.4585669934749603 0.9645230174064636
vt 0.13856099545955658 0.7739109992980957
vt 0.16984200477600098 0.7739120125770569
vt 0.1360509991645813 0.7996519804000854
vt 0.1700029969215393 0.7995560169219971
vt 0.1360509991645813 0.7996519804000854
vt 0.16984200477600098 0.7739120125770569
vt 0.03241400048136711 0.9602500200271606
vt 0.0198340006172657 0.9484059810638428
vt 0.08592899888753891 0.8902339935302734
vn -0.9999999997275 -0.00002300000050446527 0.000003999999988842971
vn -0.9999999997275 -0.00002300000050446527 0.000003999999988842971
vn -0.9999999997275 -0.00002300000050446527 0.000003999999988842971
vn -0.99999999926 0.00003400000057356728 0.000018000000169648045
vn -0.99999999926 0.00003400000057356728 0.000018000000169648045
vn -0.99999999926 0.00003400000057356728 0.000018000000169648045
vn -0.9999999990470001 0.00001499999960431313 -0.000041000000645807816
vn -0.9999999990470001 0.00001499999960431313 -0.000041000000645807816
vn -0.9999999990470001 0.00001499999960431313 -0.000041000000645807816
vn -0.9999999999920002 0 0.000003999999989900972
vn -0.9999999999920002 0 0.000003999999989900972
vn -0.9999999999920002 0 0.000003999999989900972
vn -0.9999999997355 0 -0.000023000000047017918
vn -0.9999999997355 0 -0.000023000000047017918
vn -0.9999999997355 0 -0.000023000000047017918
vn -0.9999999995115001 -0.000030999999566024514 0.000003999999987978972
vn -0.9999999995115001 -0.000030999999566024514 0.000003999999987978972
vn -0.9999999995115001 -0.000030999999566024514 0.000003999999987978972
vn -0.000003999999988898482 -0.00002300000050446527 -0.9999999997275
vn -0.000003999999988898482 -0.00002300000050446527 -0.9999999997275
vn -0.000003999999988898482 -0.00002300000050446527 -0.9999999997275
vn -0.000018000000169703556 0.00003400000057356728 -0.99999999926
vn -0.000018000000169703556 0.00003400000057356728 -0.99999999926
vn -0.000018000000169703556 0.00003400000057356728 -0.99999999926
vn 0.9445522918877064 0.32813008454500975 0.01231322484834694
vn 0.9445522918877064 0.32813008454500975 0.01231322484834694
vn 0.9445522918877064 0.32813008454500975 0.01231322484834694
vn 0.9415518849107719 0.33686796594609136 -0.00014676619369982972
vn 0.9415518849107719 0.33686796594609136 -0.00014676619369982972
vn 0.9415518849107719 0.33686796594609136 -0.00014676619369982972
vn 0.0000037660988690654353 0.3369439156964714 0.9415247196228816
vn 0.0000037660988690654353 0.3369439156964714 0.9415247196228816
vn 0.0000037660988690654353 0.3369439156964714 0.9415247196228816
vn 0.012240774573177526 0.32836187712167014 0.944472678848352
vn 0.012240774573177526 0.32836187712167014 0.944472678848352
vn 0.012240774573177526 0.32836187712167014 0.944472678848352
vn 0 1 0
vn 0 1 0
vn 0 1 0
vn 0 1 0
vn 0 1 0
vn 0 1 0
vn 0 1 0
vn 0 1 0
vn 0 1 0
vn 0 1 0
vn 0 1 0
vn 0 1 0
vn -0.9415247196184109 0.33694391569630294 0.000004766098613185338
vn -0.9398601870717181 0.3415560861646795 -0.0015062408111027313
vn -0.9271131252089841 0.3583299103123036 -0.10982225840332781
vn -0.9227012884640949 0.3668579489177139 -0.11848028351834343
vn -0.9271131252089841 0.3583299103123036 -0.10982225840332781
vn -0.9398601870717181 0.3415560861646795 -0.0015062408111027313
vn -0.11775665013731583 0.36680190179530664 -0.9228161984858003
vn -0.0015167598749832392 0.34148707741027556 -0.9398852458684891
vn -0.10916768312602375 0.35830690512482444 -0.9271993198340721
vn -0.000004766207487682844 0.33686796939022884 -0.9415518951051965
vn -0.10916768312602375 0.35830690512482444 -0.9271993198340721
vn -0.0015167598749832392 0.34148707741027556 -0.9398852458684891
vn 0 1 0
vn 0 1 0
vn 0 1 0
vn 0 1 0
vn 0 1 0
vn 0 1 0
vn 0 1 0
vn 0 1 0
vn 0 1 0
vn -0.9271131252089841 0.3583299103123036 -0.10982225840332781
vn -0.9227012884640949 0.3668579489177139 -0.11848028351834343
vn -0.7980036622341069 0.3941969045384417 -0.45584970715496154
vn -0.7956049655813233 0.4001950870493169 -0.4548149415354896
vn -0.7980036622341069 0.3941969045384417 -0.45584970715496154
vn -0.9227012884640949 0.3668579489177139 -0.11848028351834343
vn 0 1 0
vn 0 1 0
vn 0 1 0
vn 0 1 0
vn 0 1 0
vn 0 1 0
vn 0 1 0
vn 0 1 0
vn 0 1 0
vn 0 1 0
vn 0 1 0
vn 0 1 0
vn 0 1 0
vn 0 1 0
vn 0 1 0
vn 0.9999999999920002 0 -0.000003999999989900972
vn 0.9999999999920002 0 -0.000003999999989900972
vn 0.9999999999920002 0 -0.000003999999989900972
vn 0.9999999999920002 0 -0.000003999999989900972
vn 0.9999999999920002 0 -0.000003999999989900972
vn 0.9999999999920002 0 -0.000003999999989900972
vn 0.000003999999989956483 0 0.9999999999920002
vn 0.000003999999989956483 0 0.9999999999920002
vn 0.000003999999989956483 0 0.9999999999920002
vn 0.000003999999989956483 0 0.9999999999920002
vn 0.000003999999989956483 0 0.9999999999920002
vn 0.000003999999989956483 0 0.9999999999920002
vn -0.000003999999988034483 -0.000030999999566024514 -0.9999999995115001
vn -0.000003999999988034483 -0.000030999999566024514 -0.9999999995115001
vn -0.000003999999988034483 -0.000030999999566024514 -0.9999999995115001
vn 0.000023000000046962407 0 -0.9999999997355
vn 0.000023000000046962407 0 -0.9999999997355
vn 0.000023000000046962407 0 -0.9999999997355
vn 0.000023000000046962407 0 -0.9999999997355
vn 0.000023000000046962407 0 -0.9999999997355
vn 0.000023000000046962407 0 -0.9999999997355
vn -0.000003999999988034483 0.000030999999566024514 -0.9999999995115001
vn -0.000003999999988034483 0.000030999999566024514 -0.9999999995115001
vn -0.000003999999988034483 0.000030999999566024514 -0.9999999995115001
vn 0 1 0
vn 0 1 0
vn 0 1 0
vn -0.4536300978425217 0.4000619190796724 -0.7963480364976573
vn -0.11775665013731583 0.36680190179530664 -0.9228161984858003
vn -0.4546312297340597 0.39410205325441394 -0.7987452763998996
vn -0.10916768312602375 0.35830690512482444 -0.9271993198340721
vn -0.4546312297340597 0.39410205325441394 -0.7987452763998996
vn -0.11775665013731583 0.36680190179530664 -0.9228161984858003
vn 0 1 0
vn 0 1 0
vn 0 1 0
vn 0 1 0
vn 0 1 0
vn 0 1 0
vn -0.7956049655813233 0.4001950870493169 -0.4548149415354896
vn -0.4536300978425217 0.4000619190796724 -0.7963480364976573
vn -0.7980036622341069 0.3941969045384417 -0.45584970715496154
vn -0.4546312297340597 0.39410205325441394 -0.7987452763998996
vn -0.7980036622341069 0.3941969045384417 -0.45584970715496154
vn -0.4536300978425217 0.4000619190796724 -0.7963480364976573
vn 0 1 0
vn 0 1 0
vn 0 1 0
f 1/1/1 2/2/2 3/3/3
f 4/4/4 5/5/5 6/6/6
f 7/7/7 8/8/8 9/9/9
f 10/10/10 11/11/11 12/12/12
f 13/13/13 14/14/14 15/15/15
f 16/16/16 17/17/17 18/18/18
f 19/19/19 20/20/20 21/21/21
f 22/22/22 23/23/23 24/24/24
f 25/25/25 26/26/26 27/27/27
f 28/28/28 29/29/29 30/30/30
f 31/31/31 32/32/32 33/33/33
f 34/34/34 35/35/35 36/36/36
f 37/37/37 38/38/38 39/39/39
f 40/40/40 41/41/41 42/42/42
f 43/43/43 44/44/44 45/45/45
f 46/46/46 47/47/47 48/48/48
f 49/49/49 50/50/50 51/51/51
f 52/52/52 53/53/53 54/54/54
f 55/55/55 56/56/56 57/57/57
f 58/58/58 59/59/59 60/60/60
f 61/61/61 62/62/62 63/63/63
f 64/64/64 65/65/65 66/66/66
f 67/67/67 68/68/68 69/69/69
f 70/70/70 71/71/71 72/72/72
f 73/73/73 74/74/74 75/75/75
f 76/76/76 77/77/77 78/78/78
f 79/79/79 80/80/80 81/81/81
f 82/82/82 83/83/83 84/84/84
f 85/85/85 86/86/86 87/87/87
f 88/88/88 89/89/89 90/90/90
f 91/91/91 92/92/92 93/93/93
f 94/94/94 95/95/95 96/96/96
f 97/97/97 98/98/98 99/99/99
f 100/100/100 101/101/101 102/102/102
f 103/103/103 104/104/104 105/105/105
f 106/106/106 107/107/107 108/108/108
f 109/109/109 110/110/110 111/111/111
f 112/112/112 113/113/113 114/114/114
f 115/115/115 116/116/116 117/117/117
f 118/118/118 119/119/119 120/120/120
f 121/121/121 122/122/122 123/123/123
f 124/124/124 125/125/125 126/126/126
f 127/127/127 128/128/128 129/129/129
f 130/130/130 131/131/131 132/132/132
f 133/133/133 134/134/134 135/135/135
f 136/136/136 137/137/137 138/138/138
