mtllib ss_tile_se_corner.mtl
o tile_corner
usemtl PDX01_-_Default
v 0.49999350000007314 -0.2000000029802323 0.5000064999999267
v 0.5000064999999265 -0.20000000298023218 -0.49999350000007314
v 0.5000006657523106 -4.163336342344337e-17 0.3339324923154575
v 0.4999993344297813 4.163336342344337e-17 -0.33393349940712613
v 0.5000006657523106 -4.163336342344337e-17 0.3339324923154575
v 0.5000064999999265 -0.20000000298023218 -0.49999350000007314
v 0.5000006657523106 -4.163336342344337e-17 0.3339324923154575
v 0.49999498436599654 0.10000000149011606 0.3858245046080811
v 0.49999350000007314 -0.2000000029802323 0.5000064999999267
v 0.49999350000007314 0.10000000149011606 0.5000064999999267
v 0.49999350000007314 -0.2000000029802323 0.5000064999999267
v 0.49999498436599654 0.10000000149011606 0.3858245046080811
v 0.5000064999999265 -0.20000000298023218 -0.49999350000007314
v 0.5000064999999265 0.10000000149011617 -0.4999935000000731
v 0.4999993344297813 4.163336342344337e-17 -0.33393349940712613
v 0.5000050156340032 0.10000000149011617 -0.3858115046082274
v 0.4999993344297813 4.163336342344337e-17 -0.33393349940712613
v 0.5000064999999265 0.10000000149011617 -0.4999935000000731
v -0.5000064999999267 -0.2000000029802323 0.4999935000000732
v 0.49999350000007314 -0.2000000029802323 0.5000064999999267
v -0.3339325072166187 -5.551115123125783e-17 0.500000665752117
v 0.3339335292094485 -5.551115123125783e-17 0.49999933443016875
v -0.3339325072166187 -5.551115123125783e-17 0.500000665752117
v 0.49999350000007314 -0.2000000029802323 0.5000064999999267
v 0.33607260621877455 -4.163336342344337e-17 0.3360543727676376
v 0.3339335292094485 -5.551115123125783e-17 0.49999933443016875
v 0.38579498837142867 0.10000000149011606 0.3858230200081499
v 0.38581150460822744 0.10000000149011606 0.5000050156340033
v 0.38579498837142867 0.10000000149011606 0.3858230200081499
v 0.3339335292094485 -5.551115123125783e-17 0.49999933443016875
v 0.49999498436599654 0.10000000149011606 0.3858245046080811
v 0.5000006657523106 -4.163336342344337e-17 0.3339324923154575
v 0.38579498837142867 0.10000000149011606 0.3858230200081499
v 0.33607260621877455 -4.163336342344337e-17 0.3360543727676376
v 0.38579498837142867 0.10000000149011606 0.3858230200081499
v 0.5000006657523106 -4.163336342344337e-17 0.3339324923154575
v 0.49999498436599654 0.10000000149011606 0.3858245046080811
v 0.38579498837142867 0.10000000149011606 0.3858230200081499
v 0.49999350000007314 0.10000000149011606 0.5000064999999267
v 0.38581150460822744 0.10000000149011606 0.5000050156340033
v 0.49999350000007314 0.10000000149011606 0.5000064999999267
v 0.38579498837142867 0.10000000149011606 0.3858230200081499
v 0.33607260621877455 -4.163336342344337e-17 0.3360543727676376
v -0.3297310433349885 0 0.0031407134630418404
v 0.3339335292094485 -5.551115123125783e-17 0.49999933443016875
v -0.3339325072166187 -5.551115123125783e-17 0.500000665752117
v 0.3339335292094485 -5.551115123125783e-17 0.49999933443016875
v -0.3297310433349885 0 0.0031407134630418404
v -0.38582449715750045 0.10000000149011606 0.49999498436609346
v -0.3339325072166187 -5.551115123125783e-17 0.500000665752117
v -0.3858179970015737 0.10000000149011612 -0.000017015634330923626
v -0.3297310433349885 0 0.0031407134630418404
v -0.3858179970015737 0.10000000149011612 -0.000017015634330923626
v -0.3339325072166187 -5.551115123125783e-17 0.500000665752117
v 0.003153259569179223 4.163336342344337e-17 -0.329736966681302
v 0.4999993344297813 4.163336342344337e-17 -0.33393349940712613
v -0.000009974947330293471 0.10000000149011617 -0.38581699152407034
v 0.5000050156340032 0.10000000149011617 -0.3858115046082274
v -0.000009974947330293471 0.10000000149011617 -0.38581699152407034
v 0.4999993344297813 4.163336342344337e-17 -0.33393349940712613
v 0.5000006657523106 -4.163336342344337e-17 0.3339324923154575
v 0.4999993344297813 4.163336342344337e-17 -0.33393349940712613
v 0.33607260621877455 -4.163336342344337e-17 0.3360543727676376
v 0.003153259569179223 4.163336342344337e-17 -0.329736966681302
v 0.33607260621877455 -4.163336342344337e-17 0.3360543727676376
v 0.4999993344297813 4.163336342344337e-17 -0.33393349940712613
v -0.3297310433349885 0 0.0031407134630418404
v 0.33607260621877455 -4.163336342344337e-17 0.3360543727676376
v -0.28563887634583723 1.3877787807814457e-17 -0.16333671208554784
v -0.3858179970015737 0.10000000149011612 -0.000017015634330923626
v -0.3297310433349885 0 0.0031407134630418404
v -0.3391664309268734 0.10000000149011615 -0.19728840732864528
v -0.28563887634583723 1.3877787807814457e-17 -0.16333671208554784
v -0.3391664309268734 0.10000000149011615 -0.19728840732864528
v -0.3297310433349885 0 0.0031407134630418404
v -0.5000064999999267 0.10000000149011606 0.49999350000007325
v -0.3858179970015737 0.10000000149011612 -0.000017015634330923626
v -0.49999350000007325 0.10000000149011617 -0.5000064999999266
v -0.38582449715750045 0.10000000149011606 0.49999498436609346
v -0.3858179970015737 0.10000000149011612 -0.000017015634330923626
v -0.5000064999999267 0.10000000149011606 0.49999350000007325
v -0.000009974947330293471 0.10000000149011617 -0.38581699152407034
v 0.5000064999999265 0.10000000149011617 -0.4999935000000731
v -0.49999350000007325 0.10000000149011617 -0.5000064999999266
v 0.5000050156340032 0.10000000149011617 -0.3858115046082274
v 0.5000064999999265 0.10000000149011617 -0.4999935000000731
v -0.000009974947330293471 0.10000000149011617 -0.38581699152407034
v -0.3858179970015737 0.10000000149011612 -0.000017015634330923626
v -0.3391664309268734 0.10000000149011615 -0.19728840732864528
v -0.49999350000007325 0.10000000149011617 -0.5000064999999266
v -0.49999350000007325 -0.20000000298023218 -0.5000064999999267
v -0.5000064999999267 -0.2000000029802323 0.4999935000000732
v -0.49999350000007325 0.10000000149011617 -0.5000064999999266
v -0.5000064999999267 0.10000000149011606 0.49999350000007325
v -0.49999350000007325 0.10000000149011617 -0.5000064999999266
v -0.5000064999999267 -0.2000000029802323 0.4999935000000732
v 0.5000064999999265 -0.20000000298023218 -0.49999350000007314
v -0.49999350000007325 -0.20000000298023218 -0.5000064999999267
v 0.5000064999999265 0.10000000149011617 -0.4999935000000731
v -0.49999350000007325 0.10000000149011617 -0.5000064999999266
v 0.5000064999999265 0.10000000149011617 -0.4999935000000731
v -0.49999350000007325 -0.20000000298023218 -0.5000064999999267
v 0.38581150460822744 0.10000000149011606 0.5000050156340033
v 0.3339335292094485 -5.551115123125783e-17 0.49999933443016875
v 0.49999350000007314 0.10000000149011606 0.5000064999999267
v 0.49999350000007314 -0.2000000029802323 0.5000064999999267
v 0.49999350000007314 0.10000000149011606 0.5000064999999267
v 0.3339335292094485 -5.551115123125783e-17 0.49999933443016875
v -0.5000064999999267 -0.2000000029802323 0.4999935000000732
v -0.3339325072166187 -5.551115123125783e-17 0.500000665752117
v -0.5000064999999267 0.10000000149011606 0.49999350000007325
v -0.38582449715750045 0.10000000149011606 0.49999498436609346
v -0.5000064999999267 0.10000000149011606 0.49999350000007325
v -0.3339325072166187 -5.551115123125783e-17 0.500000665752117
v -0.16270727514295008 2.7755575615628914e-17 -0.28610512542051664
v 0.33607260621877455 -4.163336342344337e-17 0.3360543727676376
v 0.003153259569179223 4.163336342344337e-17 -0.329736966681302
v -0.16270727514295008 2.7755575615628914e-17 -0.28610512542051664
v 0.003153259569179223 4.163336342344337e-17 -0.329736966681302
v -0.19656857377537107 0.10000000149011615 -0.3396525605509886
v -0.000009974947330293471 0.10000000149011617 -0.38581699152407034
v -0.19656857377537107 0.10000000149011615 -0.3396525605509886
v 0.003153259569179223 4.163336342344337e-17 -0.329736966681302
v -0.49999350000007325 0.10000000149011617 -0.5000064999999266
v -0.19656857377537107 0.10000000149011615 -0.3396525605509886
v -0.000009974947330293471 0.10000000149011617 -0.38581699152407034
v -0.49999350000007325 0.10000000149011617 -0.5000064999999266
v -0.3391664309268734 0.10000000149011615 -0.19728840732864528
v -0.19656857377537107 0.10000000149011615 -0.3396525605509886
v -0.28563887634583723 1.3877787807814457e-17 -0.16333671208554784
v -0.16270727514295008 2.7755575615628914e-17 -0.28610512542051664
v -0.3391664309268734 0.10000000149011615 -0.19728840732864528
v -0.19656857377537107 0.10000000149011615 -0.3396525605509886
v -0.3391664309268734 0.10000000149011615 -0.19728840732864528
v -0.16270727514295008 2.7755575615628914e-17 -0.28610512542051664
v -0.16270727514295008 2.7755575615628914e-17 -0.28610512542051664
v -0.28563887634583723 1.3877787807814457e-17 -0.16333671208554784
v 0.33607260621877455 -4.163336342344337e-17 0.3360543727676376
vt 0.11892499774694443 0.8173419833183289
vt 0.02181600034236908 0.8173419833183289
vt 0.10457400232553482 0.8328449726104736
vt 0.036166999489068985 0.8328449726104736
vt 0.10457400232553482 0.8328449726104736
vt 0.02181600034236908 0.8173419833183289
vt 0.10457400232553482 0.8328449726104736
vt 0.1078369989991188 0.8405960202217102
vt 0.11892499774694443 0.8173419833183289
vt 0.11892499774694443 0.8405960202217102
vt 0.11892499774694443 0.8173419833183289
vt 0.1078369989991188 0.8405960202217102
vt 0.02181600034236908 0.8173419833183289
vt 0.02181600034236908 0.8405960202217102
vt 0.036166999489068985 0.8328449726104736
vt 0.0329039990901947 0.8405960202217102
vt 0.036166999489068985 0.8328449726104736
vt 0.02181600034236908 0.8405960202217102
vt 0.02064099907875061 0.8191109895706177
vt 0.12207800149917603 0.8191109895706177
vt 0.035631999373435974 0.8310319781303406
vt 0.10708799958229065 0.8310319781303406
vt 0.035631999373435974 0.8310319781303406
vt 0.12207800149917603 0.8191109895706177
vt 0.06979899853467941 0.7735179662704468
vt 0.05086600035429001 0.7735059857368469
vt 0.06902699917554855 0.8007659912109375
vt 0.05086600035429001 0.8008059859275818
vt 0.06902699917554855 0.8007659912109375
vt 0.05086600035429001 0.7735059857368469
vt 0.0907140001654625 0.8008800148963928
vt 0.0919400006532669 0.7735099792480469
vt 0.06902699917554855 0.8007659912109375
vt 0.06979899853467941 0.7735179662704468
vt 0.06902699917554855 0.8007659912109375
vt 0.0919400006532669 0.7735099792480469
vt 0.4360960125923157 0.9723520278930664
vt 0.4507400095462799 0.9577080011367798
vt 0.45148900151252747 0.9877449870109558
vt 0.46612998843193054 0.9731029868125916
vt 0.45148900151252747 0.9877449870109558
vt 0.4507400095462799 0.9577080011367798
vt 0.1786320060491562 0.9030399918556213
vt 0.10009299963712692 0.9438509941101074
vt 0.17862899601459503 0.8844109773635864
vt 0.10009299963712692 0.8844109773635864
vt 0.17862899601459503 0.8844109773635864
vt 0.10009299963712692 0.9438509941101074
vt 0.26094499230384827 0.8009979724884033
vt 0.2591269910335541 0.77367103099823
vt 0.19126200675964355 0.800790011882782
vt 0.19132399559020996 0.7738000154495239
vt 0.19126200675964355 0.800790011882782
vt 0.2591269910335541 0.77367103099823
vt 0.10727600008249283 0.7736960053443909
vt 0.047614000737667084 0.7736340165138245
vt 0.10904800146818161 0.8007509708404541
vt 0.04763700067996979 0.8007040023803711
vt 0.10904800146818161 0.8007509708404541
vt 0.047614000737667084 0.7736340165138245
vt 0.19694000482559204 0.9030399918556213
vt 0.19694000482559204 0.9864330291748047
vt 0.1786320060491562 0.9030399918556213
vt 0.14129899442195892 0.9864330291748047
vt 0.1786320060491562 0.9030399918556213
vt 0.19694000482559204 0.9864330291748047
vt 0.10009299963712692 0.9438509941101074
vt 0.1786320060491562 0.9030399918556213
vt 0.10383400321006775 0.9697530269622803
vt 0.19126200675964355 0.800790011882782
vt 0.19132399559020996 0.7738000154495239
vt 0.16856899857521057 0.8007630109786987
vt 0.16673600673675537 0.7737070322036743
vt 0.16856899857521057 0.8007630109786987
vt 0.19132399559020996 0.7738000154495239
vt 0.4106900095939636 0.8352980017662048
vt 0.43070799112319946 0.9118019938468933
vt 0.4106900095939636 0.9885590076446533
vt 0.43070799112319946 0.8352980017662048
vt 0.43070799112319946 0.9118019938468933
vt 0.4106900095939636 0.8352980017662048
vt 0.48907700181007385 0.9671400189399719
vt 0.5665929913520813 0.9885590076446533
vt 0.4106900095939636 0.9885590076446533
vt 0.5665929913520813 0.9671400189399719
vt 0.5665929913520813 0.9885590076446533
vt 0.48907700181007385 0.9671400189399719
vt 0.43070799112319946 0.9118019938468933
vt 0.43643298745155334 0.9424239993095398
vt 0.4106900095939636 0.9885590076446533
vt 0.028091000393033028 0.8159549832344055
vt 0.11961600184440613 0.8159549832344055
vt 0.028091000393033028 0.8378720283508301
vt 0.11961600184440613 0.8378720283508301
vt 0.028091000393033028 0.8378720283508301
vt 0.11961600184440613 0.8159549832344055
vt 0.11757200211286545 0.8169090151786804
vt 0.02418000064790249 0.8169090151786804
vt 0.11757200211286545 0.8368819952011108
vt 0.02418000064790249 0.8368819952011108
vt 0.11757200211286545 0.8368819952011108
vt 0.02418000064790249 0.8169090151786804
vt 0.11049599945545197 0.8369929790496826
vt 0.10708799958229065 0.8310319781303406
vt 0.12207800149917603 0.8369929790496826
vt 0.12207800149917603 0.8191109895706177
vt 0.12207800149917603 0.8369929790496826
vt 0.10708799958229065 0.8310319781303406
vt 0.02064099907875061 0.8191109895706177
vt 0.035631999373435974 0.8310319781303406
vt 0.02064099907875061 0.8369929790496826
vt 0.03222399950027466 0.8369929790496826
vt 0.02064099907875061 0.8369929790496826
vt 0.035631999373435974 0.8310319781303406
vt 0.1197500005364418 0.9837650060653687
vt 0.1786320060491562 0.9030399918556213
vt 0.14129899442195892 0.9864330291748047
vt 0.13533000648021698 0.7737089991569519
vt 0.10727600008249283 0.7736960053443909
vt 0.13544799387454987 0.8006659746170044
vt 0.10904800146818161 0.8007509708404541
vt 0.13544799387454987 0.8006659746170044
vt 0.10727600008249283 0.7736960053443909
vt 0.4106900095939636 0.9885590076446533
vt 0.4585669934749603 0.9645230174064636
vt 0.48907700181007385 0.9671400189399719
vt 0.4106900095939636 0.9885590076446533
vt 0.43643298745155334 0.9424239993095398
vt 0.4585669934749603 0.9645230174064636
vt 0.16673600673675537 0.7737070322036743
vt 0.13533000648021698 0.7737089991569519
vt 0.16856899857521057 0.8007630109786987
vt 0.13544799387454987 0.8006659746170044
vt 0.16856899857521057 0.8007630109786987
vt 0.13533000648021698 0.7737089991569519
vt 0.1197500005364418 0.9837650060653687
vt 0.10383400321006775 0.9697530269622803
vt 0.1786320060491562 0.9030399918556213
vn 0.9999999996510002 -0.000023000000506335798 0.000012999999848942595
vn 0.9999999996510002 -0.000023000000506335798 0.000012999999848942595
vn 0.9999999996510002 -0.000023000000506335798 0.000012999999848942595
vn 0.9999999994215001 0.00003400000057605725 -0.0000010000003377869745
vn 0.9999999994215001 0.00003400000057605725 -0.0000010000003377869745
vn 0.9999999994215001 0.00003400000057605725 -0.0000010000003377869745
vn 0.999999997835 0.00001899999913053671 0.00006299999849492835
vn 0.999999997835 0.00001899999913053671 0.00006299999849492835
vn 0.999999997835 0.00001899999913053671 0.00006299999849492835
vn 0.9999999999155001 -1.1102518903296552e-16 0.000012999999852381098
vn 0.9999999999155001 -1.1102518903296552e-16 0.000012999999852381098
vn 0.9999999999155001 -1.1102518903296552e-16 0.000012999999852381098
vn 0.9999999992000002 -1.110311841578684e-16 0.000039999999881038
vn 0.9999999992000002 -1.110311841578684e-16 0.000039999999881038
vn 0.9999999992000002 -1.110311841578684e-16 0.000039999999881038
vn 0.9999999989030001 -0.0000450000006405448 0.00001299999983921859
vn 0.9999999989030001 -0.0000450000006405448 0.00001299999983921859
vn 0.9999999989030001 -0.0000450000006405448 0.00001299999983921859
vn -0.000012999999848998106 -0.00002300000050644681 0.999999999651
vn -0.000012999999848998106 -0.00002300000050644681 0.999999999651
vn -0.000012999999848998106 -0.00002300000050644681 0.999999999651
vn 0.0000010000003377314672 0.000034000000575946225 0.9999999994215001
vn 0.0000010000003377314672 0.000034000000575946225 0.9999999994215001
vn 0.0000010000003377314672 0.000034000000575946225 0.9999999994215001
vn -0.8930346492249159 0.449836902422936 -0.01165660766558044
vn -0.8930346492249159 0.449836902422936 -0.01165660766558044
vn -0.8930346492249159 0.449836902422936 -0.01165660766558044
vn -0.8876597632114259 0.4604998689305417 0.00012446039242367234
vn -0.8876597632114259 0.4604998689305417 0.00012446039242367234
vn -0.8876597632114259 0.4604998689305417 0.00012446039242367234
vn 0.000011538947533762893 0.4605931780677368 -0.887611358751292
vn 0.000011538947533762893 0.4605931780677368 -0.887611358751292
vn 0.000011538947533762893 0.4605931780677368 -0.887611358751292
vn -0.011557392885853534 0.4501220468899563 -0.8928922496994124
vn -0.011557392885853534 0.4501220468899563 -0.8928922496994124
vn -0.011557392885853534 0.4501220468899563 -0.8928922496994124
vn -1.443289915629876e-21 1 1.1102230245313427e-16
vn -1.443289915629876e-21 1 1.1102230245313427e-16
vn -1.443289915629876e-21 1 1.1102230245313427e-16
vn -1.443289915629876e-21 1 1.1102230245313427e-16
vn -1.443289915629876e-21 1 1.1102230245313427e-16
vn -1.443289915629876e-21 1 1.1102230245313427e-16
vn -1.443289915629876e-21 1 1.1102230245313427e-16
vn -1.443289915629876e-21 1 1.1102230245313427e-16
vn -1.443289915629876e-21 1 1.1102230245313427e-16
vn -1.443289915629876e-21 1 1.1102230245313427e-16
vn -1.443289915629876e-21 1 1.1102230245313427e-16
vn -1.443289915629876e-21 1 1.1102230245313427e-16
vn 0.8876115672746558 0.46059277624509015 0.000010538950702474205
vn 0.8854439426158093 0.46474496989189557 0.0010665107372260906
vn 0.8673780404544706 0.48698621913506507 0.10246832344630623
vn 0.8620084297221742 0.49477292895183245 0.11018718557226397
vn 0.8673780404544706 0.48698621913506507 0.10246832344630623
vn 0.8854439426158093 0.46474496989189557 0.0010665107372260906
vn 0.10947578865916792 0.494720008398794 0.8621294363303866
vn 0.0010454887106131577 0.46465903690292665 0.8854890662101936
vn 0.10183675869559779 0.4869591878539554 0.8674675924453841
vn -0.000010539577126182568 0.460499873189012 0.8876597696650564
vn 0.10183675869559779 0.4869591878539554 0.8674675924453841
vn 0.0010454887106131577 0.46465903690292665 0.8854890662101936
vn -1.443289915629876e-21 1 1.1102230245313427e-16
vn -1.443289915629876e-21 1 1.1102230245313427e-16
vn -1.443289915629876e-21 1 1.1102230245313427e-16
vn -1.443289915629876e-21 1 1.1102230245313427e-16
vn -1.443289915629876e-21 1 1.1102230245313427e-16
vn -1.443289915629876e-21 1 1.1102230245313427e-16
vn -1.443289915629876e-21 1 1.1102230245313427e-16
vn -1.443289915629876e-21 1 1.1102230245313427e-16
vn -1.443289915629876e-21 1 1.1102230245313427e-16
vn 0.8673780404544706 0.48698621913506507 0.10246832344630623
vn 0.8620084297221742 0.49477292895183245 0.11018718557226397
vn 0.735843566236092 0.529418014617559 0.4221975980833523
vn 0.7339955112304224 0.5349499959883415 0.4184245347558676
vn 0.735843566236092 0.529418014617559 0.4221975980833523
vn 0.8620084297221742 0.49477292895183245 0.11018718557226397
vn -1.443289915629876e-21 1 1.1102230245313427e-16
vn -1.443289915629876e-21 1 1.1102230245313427e-16
vn -1.443289915629876e-21 1 1.1102230245313427e-16
vn -1.443289915629876e-21 1 1.1102230245313427e-16
vn -1.443289915629876e-21 1 1.1102230245313427e-16
vn -1.443289915629876e-21 1 1.1102230245313427e-16
vn -1.443289915629876e-21 1 1.1102230245313427e-16
vn -1.443289915629876e-21 1 1.1102230245313427e-16
vn -1.443289915629876e-21 1 1.1102230245313427e-16
vn -1.443289915629876e-21 1 1.1102230245313427e-16
vn -1.443289915629876e-21 1 1.1102230245313427e-16
vn -1.443289915629876e-21 1 1.1102230245313427e-16
vn -1.443289915629876e-21 1 1.1102230245313427e-16
vn -1.443289915629876e-21 1 1.1102230245313427e-16
vn -1.443289915629876e-21 1 1.1102230245313427e-16
vn -0.9999999999155001 1.1102518903296552e-16 -0.000012999999852381098
vn -0.9999999999155001 1.1102518903296552e-16 -0.000012999999852381098
vn -0.9999999999155001 1.1102518903296552e-16 -0.000012999999852381098
vn -0.9999999999155001 1.1102518903296552e-16 -0.000012999999852381098
vn -0.9999999999155001 1.1102518903296552e-16 -0.000012999999852381098
vn -0.9999999999155001 1.1102518903296552e-16 -0.000012999999852381098
vn 0.000012999999852436609 2.2204316161635295e-16 -0.9999999999155001
vn 0.000012999999852436609 2.2204316161635295e-16 -0.9999999999155001
vn 0.000012999999852436609 2.2204316161635295e-16 -0.9999999999155001
vn 0.000012999999852436609 2.2204316161635295e-16 -0.9999999999155001
vn 0.000012999999852436609 2.2204316161635295e-16 -0.9999999999155001
vn 0.000012999999852436609 2.2204316161635295e-16 -0.9999999999155001
vn -0.000012999999839274107 -0.000045000000640655825 0.9999999989030001
vn -0.000012999999839274107 -0.000045000000640655825 0.9999999989030001
vn -0.000012999999839274107 -0.000045000000640655825 0.9999999989030001
vn -0.00003999999988109351 -2.2204016385531037e-16 0.9999999992000002
vn -0.00003999999988109351 -2.2204016385531037e-16 0.9999999992000002
vn -0.00003999999988109351 -2.2204016385531037e-16 0.9999999992000002
vn -0.00003999999988109351 -2.2204016385531037e-16 0.9999999992000002
vn -0.00003999999988109351 -2.2204016385531037e-16 0.9999999992000002
vn -0.00003999999988109351 -2.2204016385531037e-16 0.9999999992000002
vn -0.000012999999839274107 0.000045000000640211736 0.9999999989030001
vn -0.000012999999839274107 0.000045000000640211736 0.9999999989030001
vn -0.000012999999839274107 0.000045000000640211736 0.9999999989030001
vn -1.443289915629876e-21 1 1.1102230245313427e-16
vn -1.443289915629876e-21 1 1.1102230245313427e-16
vn -1.443289915629876e-21 1 1.1102230245313427e-16
vn 0.4173203887023786 0.5347899238355027 0.7347403830859663
vn 0.10947578865916792 0.494720008398794 0.8621294363303866
vn 0.4210735922468544 0.5292921703535826 0.7365777815782418
vn 0.10183675869559779 0.4869591878539554 0.8674675924453841
vn 0.4210735922468544 0.5292921703535826 0.7365777815782418
vn 0.10947578865916792 0.494720008398794 0.8621294363303866
vn -1.443289915629876e-21 1 1.1102230245313427e-16
vn -1.443289915629876e-21 1 1.1102230245313427e-16
vn -1.443289915629876e-21 1 1.1102230245313427e-16
vn -1.443289915629876e-21 1 1.1102230245313427e-16
vn -1.443289915629876e-21 1 1.1102230245313427e-16
vn -1.443289915629876e-21 1 1.1102230245313427e-16
vn 0.7339955112304224 0.5349499959883415 0.4184245347558676
vn 0.4173203887023786 0.5347899238355027 0.7347403830859663
vn 0.735843566236092 0.529418014617559 0.4221975980833523
vn 0.4210735922468544 0.5292921703535826 0.7365777815782418
vn 0.735843566236092 0.529418014617559 0.4221975980833523
vn 0.4173203887023786 0.5347899238355027 0.7347403830859663
vn -1.443289915629876e-21 1 1.1102230245313427e-16
vn -1.443289915629876e-21 1 1.1102230245313427e-16
vn -1.443289915629876e-21 1 1.1102230245313427e-16
f 1/1/1 2/2/2 3/3/3
f 4/4/4 5/5/5 6/6/6
f 7/7/7 8/8/8 9/9/9
f 10/10/10 11/11/11 12/12/12
f 13/13/13 14/14/14 15/15/15
f 16/16/16 17/17/17 18/18/18
f 19/19/19 20/20/20 21/21/21
f 22/22/22 23/23/23 24/24/24
f 25/25/25 26/26/26 27/27/27
f 28/28/28 29/29/29 30/30/30
f 31/31/31 32/32/32 33/33/33
f 34/34/34 35/35/35 36/36/36
f 37/37/37 38/38/38 39/39/39
f 40/40/40 41/41/41 42/42/42
f 43/43/43 44/44/44 45/45/45
f 46/46/46 47/47/47 48/48/48
f 49/49/49 50/50/50 51/51/51
f 52/52/52 53/53/53 54/54/54
f 55/55/55 56/56/56 57/57/57
f 58/58/58 59/59/59 60/60/60
f 61/61/61 62/62/62 63/63/63
f 64/64/64 65/65/65 66/66/66
f 67/67/67 68/68/68 69/69/69
f 70/70/70 71/71/71 72/72/72
f 73/73/73 74/74/74 75/75/75
f 76/76/76 77/77/77 78/78/78
f 79/79/79 80/80/80 81/81/81
f 82/82/82 83/83/83 84/84/84
f 85/85/85 86/86/86 87/87/87
f 88/88/88 89/89/89 90/90/90
f 91/91/91 92/92/92 93/93/93
f 94/94/94 95/95/95 96/96/96
f 97/97/97 98/98/98 99/99/99
f 100/100/100 101/101/101 102/102/102
f 103/103/103 104/104/104 105/105/105
f 106/106/106 107/107/107 108/108/108
f 109/109/109 110/110/110 111/111/111
f 112/112/112 113/113/113 114/114/114
f 115/115/115 116/116/116 117/117/117
f 118/118/118 119/119/119 120/120/120
f 121/121/121 122/122/122 123/123/123
f 124/124/124 125/125/125 126/126/126
f 127/127/127 128/128/128 129/129/129
f 130/130/130 131/131/131 132/132/132
f 133/133/133 134/134/134 135/135/135
f 136/136/136 137/137/137 138/138/138
