# File produced by Open Asset Import Library (http://www.assimp.sf.net)
# (assimp v4.1.0)

mtllib a14ws7o8m88m.mtl

# 16 vertex positions
v  0.5 -0.2000000029802322 -0.5
v  -0.5 -0.2000000029802322 -0.5
v  0.5 0.1000000014901161 -0.5000079870223999
v  -0.5 0.1000000014901161 -0.5000079870223999
v  0.5 0.1000000014901161 0.5
v  -0.5 0.1000000014901161 0.5
v  0.5 -0.2000000029802322 0.5
v  -0.5 -0.2000000029802322 0.5
v  -0.5 0 0.3339329957962036
v  0.5 0 0.3339329957962036
v  -0.5 0 -0.3339329957962036
v  0.5 0 -0.3339329957962036
v  -0.5 0.1000000014901161 -0.3858250081539154
v  0.5 0.1000000014901161 -0.3858250081539154
v  0.5 0.1000000014901161 0.3858180046081543
v  -0.5 0.1000000014901161 0.3858180046081543

# 28 UV coordinates
vt 0.1243330016732216 0.8157860040664673 0
vt 0.01869899965822697 0.8157860040664673 0
vt 0.1243330016732216 0.839959979057312 0
vt 0.01869899965822697 0.839959979057312 0
vt 0.009719000197947025 0.9874039888381958 0
vt 0.009719000197947025 0.8647010326385498 0
vt 0.08844000101089478 0.9874039888381958 0
vt 0.08844000101089478 0.8647010326385498 0
vt 0.1092830002307892 0.83160001039505 0
vt 0.1258040070533752 0.8158000111579895 0
vt 0.1258040070533752 0.8395010232925415 0
vt 0.01401000004261732 0.8158000111579895 0
vt 0.0305320005863905 0.83160001039505 0
vt 0.01401000004261732 0.8395010232925415 0
vt 0.1130400002002716 0.8395010232925415 0
vt 0.05108200013637543 0.7264549732208252 0
vt 0.05108200013637543 0.7536330223083496 0
vt 0.1758500039577484 0.7264549732208252 0
vt 0.1758500039577484 0.7536330223083496 0
vt 0.02677500061690807 0.8395010232925415 0
vt 0.05108100175857544 0.7264859676361084 0
vt 0.05108100175857544 0.7536070346832275 0
vt 0.1758860051631927 0.7264859676361084 0
vt 0.1758860051631927 0.7536070346832275 0
vt 0.3802100121974945 0.8674860000610352 0
vt 0.3801349997520447 0.9815359711647034 0
vt 0.3567549884319305 0.8674860000610352 0
vt 0.3567399978637695 0.9815359711647034 0

# 10 vertex normals
vn 0 -2.499999936844688e-05 -1
vn -0 0 1
vn 0 1 0
vn 1 -0 0
vn -1 0 0
vn -1 9.999999974752427e-07 0
vn 0 0.4605990052223206 0.8876079916954041
vn 0 0.4605990052223206 0.8876090049743652
vn 1 -9.999999974752427e-07 0
vn 0 0.460547000169754 -0.8876360058784485

# Mesh 'tile_straight_static' with 26 faces
g tile_straight_static
usemtl PDX01_-_Default
f  1/1/1 2/2/1 3/3/1
f  4/4/1 3/3/1 2/2/1
f  5/3/2 6/4/2 7/1/2
f  8/2/2 7/1/2 6/4/2
f  9/5/3 10/6/3 11/7/3
f  12/8/3 11/7/3 10/6/3
f  12/9/4 1/10/4 3/11/4
f  7/12/4 1/10/4 10/13/4
f  12/9/4 10/13/4 1/10/4
f  5/14/4 7/12/4 10/13/4
f  4/11/5 2/10/5 11/9/5
f  9/13/5 8/12/5 6/14/5
f  2/10/5 8/12/5 11/9/5
f  9/13/5 11/9/5 8/12/5
f  11/9/6 13/15/6 4/11/6
f  12/16/7 14/17/7 11/18/7
f  13/19/8 11/18/8 14/17/8
f  3/11/9 14/15/9 12/9/9
f  10/13/4 15/20/4 5/14/4
f  9/21/10 16/22/10 10/23/10
f  15/24/10 10/23/10 16/22/10
f  6/14/5 16/20/5 9/13/5
f  15/25/3 16/26/3 5/27/3
f  16/26/3 6/28/3 5/27/3
f  13/26/3 14/25/3 3/27/3
f  4/28/3 13/26/3 3/27/3

