mtllib ss_tile_sw_corner.mtl
o tile_corner
usemtl PDX01_-_Default
v -0.5000070000000959 -0.20000000298023224 0.4999929999999039
v 0.4999929999999039 -0.20000000298023224 0.500007000000096
v -0.3339329923206335 -1.3877787807814457e-17 0.5000003318262052
v 0.3339329994119637 -1.3877787807814457e-17 0.4999996683698936
v -0.3339329923206335 -1.3877787807814457e-17 0.5000003318262052
v 0.4999929999999039 -0.20000000298023224 0.500007000000096
v -0.3339329923206335 -1.3877787807814457e-17 0.5000003318262052
v -0.3858250046082502 0.10000000149011609 0.4999945985478613
v -0.5000070000000959 -0.20000000298023224 0.4999929999999039
v -0.5000070000000959 0.10000000149011609 0.4999929999999039
v -0.5000070000000959 -0.20000000298023224 0.4999929999999039
v -0.3858250046082502 0.10000000149011609 0.4999945985478613
v 0.4999929999999039 -0.20000000298023224 0.500007000000096
v 0.4999929999999039 0.10000000149011609 0.500007000000096
v 0.3339329994119637 -1.3877787807814457e-17 0.4999996683698936
v 0.3858110046080582 0.10000000149011609 0.5000054014521385
v 0.3339329994119637 -1.3877787807814457e-17 0.4999996683698936
v 0.4999929999999039 0.10000000149011609 0.500007000000096
v -0.4999929999999039 -0.20000000298023224 -0.500007000000096
v -0.5000070000000959 -0.20000000298023224 0.4999929999999039
v -0.5000003318259968 -1.3877787807814457e-17 -0.33393300722179475
v -0.49999966837031096 -1.3877787807814457e-17 0.333933029214286
v -0.5000003318259968 -1.3877787807814457e-17 -0.33393300722179475
v -0.5000070000000959 -0.20000000298023224 0.4999929999999039
v -0.3360547088447262 -1.3877787807814457e-17 0.33607227016865704
v -0.49999966837031096 -1.3877787807814457e-17 0.333933029214286
v -0.38582340580828434 0.10000000149011609 0.38579460255329345
v -0.5000054014521385 0.10000000149011609 0.3858110046080582
v -0.38582340580828434 0.10000000149011609 0.38579460255329345
v -0.49999966837031096 -1.3877787807814457e-17 0.333933029214286
v -0.3858250046082502 0.10000000149011609 0.4999945985478613
v -0.3339329923206335 -1.3877787807814457e-17 0.5000003318262052
v -0.38582340580828434 0.10000000149011609 0.38579460255329345
v -0.3360547088447262 -1.3877787807814457e-17 0.33607227016865704
v -0.38582340580828434 0.10000000149011609 0.38579460255329345
v -0.3339329923206335 -1.3877787807814457e-17 0.5000003318262052
v -0.3858250046082502 0.10000000149011609 0.4999945985478613
v -0.38582340580828434 0.10000000149011609 0.38579460255329345
v -0.5000070000000959 0.10000000149011609 0.4999929999999039
v -0.5000054014521385 0.10000000149011609 0.3858110046080582
v -0.5000070000000959 0.10000000149011609 0.4999929999999039
v -0.38582340580828434 0.10000000149011609 0.38579460255329345
v -0.3360547088447262 -1.3877787807814457e-17 0.33607227016865704
v -0.0031403837319277346 -1.3877787807814457e-17 -0.3297310464799894
v -0.49999966837031096 -1.3877787807814457e-17 0.333933029214286
v -0.5000003318259968 -1.3877787807814457e-17 -0.33393300722179475
v -0.49999966837031096 -1.3877787807814457e-17 0.333933029214286
v -0.0031403837319277346 -1.3877787807814457e-17 -0.3297310464799894
v -0.4999945985479656 0.10000000149011609 -0.3858249971576697
v -0.5000003318259968 -1.3877787807814457e-17 -0.33393300722179475
v 0.000017401452458743793 0.10000000149011609 -0.38581799698957364
v -0.0031403837319277346 -1.3877787807814457e-17 -0.3297310464799894
v 0.000017401452458743793 0.10000000149011609 -0.38581799698957364
v -0.5000003318259968 -1.3877787807814457e-17 -0.33393300722179475
v 0.32973696353232795 -1.3877787807814457e-17 0.0031535893062984988
v 0.3339329994119637 -1.3877787807814457e-17 0.4999996683698936
v 0.38581699153906096 0.10000000149011609 -0.00000958913020832064
v 0.3858110046080582 0.10000000149011609 0.5000054014521385
v 0.38581699153906096 0.10000000149011609 -0.00000958913020832064
v 0.3339329994119637 -1.3877787807814457e-17 0.4999996683698936
v -0.3339329923206335 -1.3877787807814457e-17 0.5000003318262052
v 0.3339329994119637 -1.3877787807814457e-17 0.4999996683698936
v -0.3360547088447262 -1.3877787807814457e-17 0.33607227016865704
v 0.32973696353232795 -1.3877787807814457e-17 0.0031535893062984988
v -0.3360547088447262 -1.3877787807814457e-17 0.33607227016865704
v 0.3339329994119637 -1.3877787807814457e-17 0.4999996683698936
v -0.0031403837319277346 -1.3877787807814457e-17 -0.3297310464799894
v -0.3360547088447262 -1.3877787807814457e-17 0.33607227016865704
v 0.16333699772664426 -1.3877787807814457e-17 -0.28563871301278315
v 0.000017401452458743793 0.10000000149011609 -0.38581799698957364
v -0.0031403837319277346 -1.3877787807814457e-17 -0.3297310464799894
v 0.19728874649775574 0.10000000149011609 -0.3391662336428084
v 0.16333699772664426 -1.3877787807814457e-17 -0.28563871301278315
v 0.19728874649775574 0.10000000149011609 -0.3391662336428084
v -0.0031403837319277346 -1.3877787807814457e-17 -0.3297310464799894
v -0.4999929999999039 0.10000000149011609 -0.500007000000096
v 0.000017401452458743793 0.10000000149011609 -0.38581799698957364
v 0.5000070000000959 0.10000000149011609 -0.49999299999990393
v -0.4999945985479656 0.10000000149011609 -0.3858249971576697
v 0.000017401452458743793 0.10000000149011609 -0.38581799698957364
v -0.4999929999999039 0.10000000149011609 -0.500007000000096
v 0.38581699153906096 0.10000000149011609 -0.00000958913020832064
v 0.4999929999999039 0.10000000149011609 0.500007000000096
v 0.5000070000000959 0.10000000149011609 -0.49999299999990393
v 0.3858110046080582 0.10000000149011609 0.5000054014521385
v 0.4999929999999039 0.10000000149011609 0.500007000000096
v 0.38581699153906096 0.10000000149011609 -0.00000958913020832064
v 0.000017401452458743793 0.10000000149011609 -0.38581799698957364
v 0.19728874649775574 0.10000000149011609 -0.3391662336428084
v 0.5000070000000959 0.10000000149011609 -0.49999299999990393
v 0.5000070000000959 -0.20000000298023224 -0.499992999999904
v -0.4999929999999039 -0.20000000298023224 -0.500007000000096
v 0.5000070000000959 0.10000000149011609 -0.49999299999990393
v -0.4999929999999039 0.10000000149011609 -0.500007000000096
v 0.5000070000000959 0.10000000149011609 -0.49999299999990393
v -0.4999929999999039 -0.20000000298023224 -0.500007000000096
v 0.4999929999999039 -0.20000000298023224 0.500007000000096
v 0.5000070000000959 -0.20000000298023224 -0.499992999999904
v 0.4999929999999039 0.10000000149011609 0.500007000000096
v 0.5000070000000959 0.10000000149011609 -0.49999299999990393
v 0.4999929999999039 0.10000000149011609 0.500007000000096
v 0.5000070000000959 -0.20000000298023224 -0.499992999999904
v -0.5000054014521385 0.10000000149011609 0.3858110046080582
v -0.49999966837031096 -1.3877787807814457e-17 0.333933029214286
v -0.5000070000000959 0.10000000149011609 0.4999929999999039
v -0.5000070000000959 -0.20000000298023224 0.4999929999999039
v -0.5000070000000959 0.10000000149011609 0.4999929999999039
v -0.49999966837031096 -1.3877787807814457e-17 0.333933029214286
v -0.4999929999999039 -0.20000000298023224 -0.500007000000096
v -0.5000003318259968 -1.3877787807814457e-17 -0.33393300722179475
v -0.4999929999999039 0.10000000149011609 -0.500007000000096
v -0.4999945985479656 0.10000000149011609 -0.3858249971576697
v -0.4999929999999039 0.10000000149011609 -0.500007000000096
v -0.5000003318259968 -1.3877787807814457e-17 -0.33393300722179475
v 0.2861052881315662 -1.3877787807814457e-17 -0.16270698903984304
v -0.3360547088447262 -1.3877787807814457e-17 0.33607227016865704
v 0.32973696353232795 -1.3877787807814457e-17 0.0031535893062984988
v 0.2861052881315662 -1.3877787807814457e-17 -0.16270698903984304
v 0.32973696353232795 -1.3877787807814457e-17 0.0031535893062984988
v 0.3396527571240444 0.10000000149011609 -0.19656823412525093
v 0.38581699153906096 0.10000000149011609 -0.00000958913020832064
v 0.3396527571240444 0.10000000149011609 -0.19656823412525093
v 0.32973696353232795 -1.3877787807814457e-17 0.0031535893062984988
v 0.5000070000000959 0.10000000149011609 -0.49999299999990393
v 0.3396527571240444 0.10000000149011609 -0.19656823412525093
v 0.38581699153906096 0.10000000149011609 -0.00000958913020832064
v 0.5000070000000959 0.10000000149011609 -0.49999299999990393
v 0.19728874649775574 0.10000000149011609 -0.3391662336428084
v 0.3396527571240444 0.10000000149011609 -0.19656823412525093
v 0.16333699772664426 -1.3877787807814457e-17 -0.28563871301278315
v 0.2861052881315662 -1.3877787807814457e-17 -0.16270698903984304
v 0.19728874649775574 0.10000000149011609 -0.3391662336428084
v 0.3396527571240444 0.10000000149011609 -0.19656823412525093
v 0.19728874649775574 0.10000000149011609 -0.3391662336428084
v 0.2861052881315662 -1.3877787807814457e-17 -0.16270698903984304
v 0.2861052881315662 -1.3877787807814457e-17 -0.16270698903984304
v 0.16333699772664426 -1.3877787807814457e-17 -0.28563871301278315
v -0.3360547088447262 -1.3877787807814457e-17 0.33607227016865704
vt 0.11892499774694443 0.8173419833183289
vt 0.02181600034236908 0.8173419833183289
vt 0.10457400232553482 0.8328449726104736
vt 0.036166999489068985 0.8328449726104736
vt 0.10457400232553482 0.8328449726104736
vt 0.02181600034236908 0.8173419833183289
vt 0.10457400232553482 0.8328449726104736
vt 0.1078369989991188 0.8405960202217102
vt 0.11892499774694443 0.8173419833183289
vt 0.11892499774694443 0.8405960202217102
vt 0.11892499774694443 0.8173419833183289
vt 0.1078369989991188 0.8405960202217102
vt 0.02181600034236908 0.8173419833183289
vt 0.02181600034236908 0.8405960202217102
vt 0.036166999489068985 0.8328449726104736
vt 0.0329039990901947 0.8405960202217102
vt 0.036166999489068985 0.8328449726104736
vt 0.02181600034236908 0.8405960202217102
vt 0.02064099907875061 0.8191109895706177
vt 0.12207800149917603 0.8191109895706177
vt 0.035631999373435974 0.8310319781303406
vt 0.10708799958229065 0.8310319781303406
vt 0.035631999373435974 0.8310319781303406
vt 0.12207800149917603 0.8191109895706177
vt 0.06979899853467941 0.7735179662704468
vt 0.05086600035429001 0.7735059857368469
vt 0.06902699917554855 0.8007659912109375
vt 0.05086600035429001 0.8008059859275818
vt 0.06902699917554855 0.8007659912109375
vt 0.05086600035429001 0.7735059857368469
vt 0.0907140001654625 0.8008800148963928
vt 0.0919400006532669 0.7735099792480469
vt 0.06902699917554855 0.8007659912109375
vt 0.06979899853467941 0.7735179662704468
vt 0.06902699917554855 0.8007659912109375
vt 0.0919400006532669 0.7735099792480469
vt 0.4360960125923157 0.9723520278930664
vt 0.4507400095462799 0.9577080011367798
vt 0.45148900151252747 0.9877449870109558
vt 0.46612998843193054 0.9731029868125916
vt 0.45148900151252747 0.9877449870109558
vt 0.4507400095462799 0.9577080011367798
vt 0.1786320060491562 0.9030399918556213
vt 0.10009299963712692 0.9438509941101074
vt 0.17862899601459503 0.8844109773635864
vt 0.10009299963712692 0.8844109773635864
vt 0.17862899601459503 0.8844109773635864
vt 0.10009299963712692 0.9438509941101074
vt 0.26094499230384827 0.8009979724884033
vt 0.2591269910335541 0.77367103099823
vt 0.19126200675964355 0.800790011882782
vt 0.19132399559020996 0.7738000154495239
vt 0.19126200675964355 0.800790011882782
vt 0.2591269910335541 0.77367103099823
vt 0.10727600008249283 0.7736960053443909
vt 0.047614000737667084 0.7736340165138245
vt 0.10904800146818161 0.8007509708404541
vt 0.04763700067996979 0.8007040023803711
vt 0.10904800146818161 0.8007509708404541
vt 0.047614000737667084 0.7736340165138245
vt 0.19694000482559204 0.9030399918556213
vt 0.19694000482559204 0.9864330291748047
vt 0.1786320060491562 0.9030399918556213
vt 0.14129899442195892 0.9864330291748047
vt 0.1786320060491562 0.9030399918556213
vt 0.19694000482559204 0.9864330291748047
vt 0.10009299963712692 0.9438509941101074
vt 0.1786320060491562 0.9030399918556213
vt 0.10383400321006775 0.9697530269622803
vt 0.19126200675964355 0.800790011882782
vt 0.19132399559020996 0.7738000154495239
vt 0.16856899857521057 0.8007630109786987
vt 0.16673600673675537 0.7737070322036743
vt 0.16856899857521057 0.8007630109786987
vt 0.19132399559020996 0.7738000154495239
vt 0.4106900095939636 0.8352980017662048
vt 0.43070799112319946 0.9118019938468933
vt 0.4106900095939636 0.9885590076446533
vt 0.43070799112319946 0.8352980017662048
vt 0.43070799112319946 0.9118019938468933
vt 0.4106900095939636 0.8352980017662048
vt 0.48907700181007385 0.9671400189399719
vt 0.5665929913520813 0.9885590076446533
vt 0.4106900095939636 0.9885590076446533
vt 0.5665929913520813 0.9671400189399719
vt 0.5665929913520813 0.9885590076446533
vt 0.48907700181007385 0.9671400189399719
vt 0.43070799112319946 0.9118019938468933
vt 0.43643298745155334 0.9424239993095398
vt 0.4106900095939636 0.9885590076446533
vt 0.028091000393033028 0.8159549832344055
vt 0.11961600184440613 0.8159549832344055
vt 0.028091000393033028 0.8378720283508301
vt 0.11961600184440613 0.8378720283508301
vt 0.028091000393033028 0.8378720283508301
vt 0.11961600184440613 0.8159549832344055
vt 0.11757200211286545 0.8169090151786804
vt 0.02418000064790249 0.8169090151786804
vt 0.11757200211286545 0.8368819952011108
vt 0.02418000064790249 0.8368819952011108
vt 0.11757200211286545 0.8368819952011108
vt 0.02418000064790249 0.8169090151786804
vt 0.11049599945545197 0.8369929790496826
vt 0.10708799958229065 0.8310319781303406
vt 0.12207800149917603 0.8369929790496826
vt 0.12207800149917603 0.8191109895706177
vt 0.12207800149917603 0.8369929790496826
vt 0.10708799958229065 0.8310319781303406
vt 0.02064099907875061 0.8191109895706177
vt 0.035631999373435974 0.8310319781303406
vt 0.02064099907875061 0.8369929790496826
vt 0.03222399950027466 0.8369929790496826
vt 0.02064099907875061 0.8369929790496826
vt 0.035631999373435974 0.8310319781303406
vt 0.1197500005364418 0.9837650060653687
vt 0.1786320060491562 0.9030399918556213
vt 0.14129899442195892 0.9864330291748047
vt 0.13533000648021698 0.7737089991569519
vt 0.10727600008249283 0.7736960053443909
vt 0.13544799387454987 0.8006659746170044
vt 0.10904800146818161 0.8007509708404541
vt 0.13544799387454987 0.8006659746170044
vt 0.10727600008249283 0.7736960053443909
vt 0.4106900095939636 0.9885590076446533
vt 0.4585669934749603 0.9645230174064636
vt 0.48907700181007385 0.9671400189399719
vt 0.4106900095939636 0.9885590076446533
vt 0.43643298745155334 0.9424239993095398
vt 0.4585669934749603 0.9645230174064636
vt 0.16673600673675537 0.7737070322036743
vt 0.13533000648021698 0.7737089991569519
vt 0.16856899857521057 0.8007630109786987
vt 0.13544799387454987 0.8006659746170044
vt 0.16856899857521057 0.8007630109786987
vt 0.13533000648021698 0.7737089991569519
vt 0.1197500005364418 0.9837650060653687
vt 0.10383400321006775 0.9697530269622803
vt 0.1786320060491562 0.9030399918556213
vn -0.000014000000186952077 -0.00002300000050675732 0.9999999996375001
vn -0.000014000000186952077 -0.00002300000050675732 0.9999999996375001
vn -0.000014000000186952077 -0.00002300000050675732 0.9999999996375001
vn -1.6940082952880463e-21 0.000034000000576405236 0.9999999994220001
vn -1.6940082952880463e-21 0.000034000000576405236 0.9999999994220001
vn -1.6940082952880463e-21 0.000034000000576405236 0.9999999994220001
vn -0.00006399999883109685 0.000018999999130682206 0.9999999977715002
vn -0.00006399999883109685 0.000018999999130682206 0.9999999977715002
vn -0.00006399999883109685 0.000018999999130682206 0.9999999977715002
vn -0.000014000000190655076 -2.220446049269879e-16 0.9999999999020001
vn -0.000014000000190655076 -2.220446049269879e-16 0.9999999999020001
vn -0.000014000000190655076 -2.220446049269879e-16 0.9999999999020001
vn -0.00004100000021858297 -2.2204460480785955e-16 0.9999999991595001
vn -0.00004100000021858297 -2.2204460480785955e-16 0.9999999991595001
vn -0.00004100000021858297 -2.2204460480785955e-16 0.9999999991595001
vn -0.000014000000176480075 -0.00004500000064126333 0.9999999988895
vn -0.000014000000176480075 -0.00004500000064126333 0.9999999988895
vn -0.000014000000176480075 -0.00004500000064126333 0.9999999988895
vn -0.9999999996375 -0.000023000000506535267 -0.000014000000186952074
vn -0.9999999996375 -0.000023000000506535267 -0.000014000000186952074
vn -0.9999999996375 -0.000023000000506535267 -0.000014000000186952074
vn -0.9999999994220001 0.000034000000576627274 -3.3881317862524857e-21
vn -0.9999999994220001 0.000034000000576627274 -3.3881317862524857e-21
vn -0.9999999994220001 0.000034000000576627274 -3.3881317862524857e-21
vn 0.011657500700494214 0.4498369024277801 -0.8930346375654182
vn 0.011657500700494214 0.4498369024277801 -0.8930346375654182
vn 0.011657500700494214 0.4498369024277801 -0.8930346375654182
vn -0.00012357273235964083 0.4604998689354402 -0.8876597633329012
vn -0.00012357273235964083 0.4604998689354402 -0.8876597633329012
vn -0.00012357273235964083 0.4604998689354402 -0.8876597633329012
vn 0.8876113587367672 0.4605931780726355 0.000012426559192760155
vn 0.8876113587367672 0.4605931780726355 0.000012426559192760155
vn 0.8876113587367672 0.4605931780726355 0.000012426559192760155
vn 0.8928922612539206 0.45012204689480156 -0.011556499993264373
vn 0.8928922612539206 0.45012204689480156 -0.011556499993264373
vn 0.8928922612539206 0.45012204689480156 -0.011556499993264373
vn 1.6940658943425825e-21 1 2.3716922846102675e-26
vn 1.6940658943425825e-21 1 2.3716922846102675e-26
vn 1.6940658943425825e-21 1 2.3716922846102675e-26
vn 1.6940658943425825e-21 1 2.3716922846102675e-26
vn 1.6940658943425825e-21 1 2.3716922846102675e-26
vn 1.6940658943425825e-21 1 2.3716922846102675e-26
vn 1.6940658943425825e-21 1 2.3716922846102675e-26
vn 1.6940658943425825e-21 1 2.3716922846102675e-26
vn 1.6940658943425825e-21 1 2.3716922846102675e-26
vn 1.6940658943425825e-21 1 2.3716922846102675e-26
vn 1.6940658943425825e-21 1 2.3716922846102675e-26
vn 1.6940658943425825e-21 1 2.3716922846102675e-26
vn -0.000011426562569996401 0.460592776249989 0.887611567261131
vn -0.0010673961814646126 0.4647449698968145 0.8854439415462736
vn -0.10246919082426084 0.48698621914008033 0.867377937982902
vn -0.11018804758056608 0.4947729289568768 0.8620083195316716
vn -0.10246919082426084 0.48698621914008033 0.867377937982902
vn -0.0010673961814646126 0.4647449698968145 0.8854439415462736
vn -0.8621295458029327 0.4947200084038383 0.10947492652902345
vn -0.8854890672526589 0.4646590369078453 0.0010446032212438107
vn -0.8674676942789663 0.4869591878589707 0.10183589122733493
vn -0.8876597696515318 0.46049987319391067 -0.000011427237196113344
vn -0.8674676942789663 0.4869591878589707 0.10183589122733493
vn -0.8854890672526589 0.4646590369078453 0.0010446032212438107
vn 1.6940658943425825e-21 1 2.3716922846102675e-26
vn 1.6940658943425825e-21 1 2.3716922846102675e-26
vn 1.6940658943425825e-21 1 2.3716922846102675e-26
vn 1.6940658943425825e-21 1 2.3716922846102675e-26
vn 1.6940658943425825e-21 1 2.3716922846102675e-26
vn 1.6940658943425825e-21 1 2.3716922846102675e-26
vn 1.6940658943425825e-21 1 2.3716922846102675e-26
vn 1.6940658943425825e-21 1 2.3716922846102675e-26
vn 1.6940658943425825e-21 1 2.3716922846102675e-26
vn -0.10246919082426084 0.48698621914008033 0.867377937982902
vn -0.11018804758056608 0.4947729289568768 0.8620083195316716
vn -0.42219833392535877 0.529418014622703 0.7358431440351988
vn -0.4184252687498014 0.5349499959934967 0.7339950928025434
vn -0.42219833392535877 0.529418014622703 0.7358431440351988
vn -0.11018804758056608 0.4947729289568768 0.8620083195316716
vn 1.6940658943425825e-21 1 2.3716922846102675e-26
vn 1.6940658943425825e-21 1 2.3716922846102675e-26
vn 1.6940658943425825e-21 1 2.3716922846102675e-26
vn 1.6940658943425825e-21 1 2.3716922846102675e-26
vn 1.6940658943425825e-21 1 2.3716922846102675e-26
vn 1.6940658943425825e-21 1 2.3716922846102675e-26
vn 1.6940658943425825e-21 1 2.3716922846102675e-26
vn 1.6940658943425825e-21 1 2.3716922846102675e-26
vn 1.6940658943425825e-21 1 2.3716922846102675e-26
vn 1.6940658943425825e-21 1 2.3716922846102675e-26
vn 1.6940658943425825e-21 1 2.3716922846102675e-26
vn 1.6940658943425825e-21 1 2.3716922846102675e-26
vn 1.6940658943425825e-21 1 2.3716922846102675e-26
vn 1.6940658943425825e-21 1 2.3716922846102675e-26
vn 1.6940658943425825e-21 1 2.3716922846102675e-26
vn 0.000014000000190655076 2.220446049269879e-16 -0.9999999999020001
vn 0.000014000000190655076 2.220446049269879e-16 -0.9999999999020001
vn 0.000014000000190655076 2.220446049269879e-16 -0.9999999999020001
vn 0.000014000000190655076 2.220446049269879e-16 -0.9999999999020001
vn 0.000014000000190655076 2.220446049269879e-16 -0.9999999999020001
vn 0.000014000000190655076 2.220446049269879e-16 -0.9999999999020001
vn 0.9999999999020002 -1.4145586169417873e-21 0.000014000000190655076
vn 0.9999999999020002 -1.4145586169417873e-21 0.000014000000190655076
vn 0.9999999999020002 -1.4145586169417873e-21 0.000014000000190655076
vn 0.9999999999020002 -1.4145586169417873e-21 0.000014000000190655076
vn 0.9999999999020002 -1.4145586169417873e-21 0.000014000000190655076
vn 0.9999999999020002 -1.4145586169417873e-21 0.000014000000190655076
vn -0.9999999988894999 -0.00004500000064104127 -0.000014000000176480073
vn -0.9999999988894999 -0.00004500000064104127 -0.000014000000176480073
vn -0.9999999988894999 -0.00004500000064104127 -0.000014000000176480073
vn -0.9999999991595 7.409762957376714e-21 -0.00004100000021858296
vn -0.9999999991595 7.409762957376714e-21 -0.00004100000021858296
vn -0.9999999991595 7.409762957376714e-21 -0.00004100000021858296
vn -0.9999999991595 7.409762957376714e-21 -0.00004100000021858296
vn -0.9999999991595 7.409762957376714e-21 -0.00004100000021858296
vn -0.9999999991595 7.409762957376714e-21 -0.00004100000021858296
vn -0.9999999988894999 0.00004500000064104127 -0.000014000000176480073
vn -0.9999999988894999 0.00004500000064104127 -0.000014000000176480073
vn -0.9999999988894999 0.00004500000064104127 -0.000014000000176480073
vn 1.6940658943425825e-21 1 2.3716922846102675e-26
vn 1.6940658943425825e-21 1 2.3716922846102675e-26
vn 1.6940658943425825e-21 1 2.3716922846102675e-26
vn -0.734740800403292 0.5347899238406578 0.41731965395992704
vn -0.8621295458029327 0.4947200084038383 0.10947492652902345
vn -0.7365782026488222 0.5292921703587262 0.42107285566702046
vn -0.8674676942789663 0.4869591878589707 0.10183589122733493
vn -0.7365782026488222 0.5292921703587262 0.42107285566702046
vn -0.8621295458029327 0.4947200084038383 0.10947492652902345
vn 1.6940658943425825e-21 1 2.3716922846102675e-26
vn 1.6940658943425825e-21 1 2.3716922846102675e-26
vn 1.6940658943425825e-21 1 2.3716922846102675e-26
vn 1.6940658943425825e-21 1 2.3716922846102675e-26
vn 1.6940658943425825e-21 1 2.3716922846102675e-26
vn 1.6940658943425825e-21 1 2.3716922846102675e-26
vn -0.4184252687498014 0.5349499959934967 0.7339950928025434
vn -0.734740800403292 0.5347899238406578 0.41731965395992704
vn -0.42219833392535877 0.529418014622703 0.7358431440351988
vn -0.7365782026488222 0.5292921703587262 0.42107285566702046
vn -0.42219833392535877 0.529418014622703 0.7358431440351988
vn -0.734740800403292 0.5347899238406578 0.41731965395992704
vn 1.6940658943425825e-21 1 2.3716922846102675e-26
vn 1.6940658943425825e-21 1 2.3716922846102675e-26
vn 1.6940658943425825e-21 1 2.3716922846102675e-26
f 1/1/1 2/2/2 3/3/3
f 4/4/4 5/5/5 6/6/6
f 7/7/7 8/8/8 9/9/9
f 10/10/10 11/11/11 12/12/12
f 13/13/13 14/14/14 15/15/15
f 16/16/16 17/17/17 18/18/18
f 19/19/19 20/20/20 21/21/21
f 22/22/22 23/23/23 24/24/24
f 25/25/25 26/26/26 27/27/27
f 28/28/28 29/29/29 30/30/30
f 31/31/31 32/32/32 33/33/33
f 34/34/34 35/35/35 36/36/36
f 37/37/37 38/38/38 39/39/39
f 40/40/40 41/41/41 42/42/42
f 43/43/43 44/44/44 45/45/45
f 46/46/46 47/47/47 48/48/48
f 49/49/49 50/50/50 51/51/51
f 52/52/52 53/53/53 54/54/54
f 55/55/55 56/56/56 57/57/57
f 58/58/58 59/59/59 60/60/60
f 61/61/61 62/62/62 63/63/63
f 64/64/64 65/65/65 66/66/66
f 67/67/67 68/68/68 69/69/69
f 70/70/70 71/71/71 72/72/72
f 73/73/73 74/74/74 75/75/75
f 76/76/76 77/77/77 78/78/78
f 79/79/79 80/80/80 81/81/81
f 82/82/82 83/83/83 84/84/84
f 85/85/85 86/86/86 87/87/87
f 88/88/88 89/89/89 90/90/90
f 91/91/91 92/92/92 93/93/93
f 94/94/94 95/95/95 96/96/96
f 97/97/97 98/98/98 99/99/99
f 100/100/100 101/101/101 102/102/102
f 103/103/103 104/104/104 105/105/105
f 106/106/106 107/107/107 108/108/108
f 109/109/109 110/110/110 111/111/111
f 112/112/112 113/113/113 114/114/114
f 115/115/115 116/116/116 117/117/117
f 118/118/118 119/119/119 120/120/120
f 121/121/121 122/122/122 123/123/123
f 124/124/124 125/125/125 126/126/126
f 127/127/127 128/128/128 129/129/129
f 130/130/130 131/131/131 132/132/132
f 133/133/133 134/134/134 135/135/135
f 136/136/136 137/137/137 138/138/138
