# File produced by Open Asset Import Library (http://www.assimp.sf.net)
# (assimp v4.1.0)

mtllib ov7lna1djnv4.mtl

# 8 vertex positions
v  -0.4999969899654388 0.1000000014901161 0.4999899864196777
v  0.4999970197677612 0.1000000014901161 0.5000030398368835
v  -0.4999969899654388 0.1000000014901161 -0.4999780058860779
v  0.5 0.1000000014901161 -0.4999940097332001
v  0.4999970197677612 -0.2000000029802322 0.5000030398368835
v  0.5 -0.2000000029802322 -0.4999940097332001
v  -0.4999969899654388 -0.2000000029802322 -0.4999780058860779
v  -0.4999969899654388 -0.2000000029802322 0.4999899864196777

# 20 UV coordinates
vt 0.1283410042524338 0.5581569671630859 0
vt 0.01219000015407801 0.5581580400466919 0
vt 0.1283410042524338 0.4429550170898438 0
vt 0.01219000015407801 0.4429519772529602 0
vt 0.1293729990720749 0.84163498878479 0
vt 0.1293729990720749 0.8174589872360229 0
vt 0.01226400025188923 0.8416340351104736 0
vt 0.01226400025188923 0.8174580335617065 0
vt 0.01228499971330166 0.8416340351104736 0
vt 0.01228499971330166 0.8174589872360229 0
vt 0.1293659955263138 0.84163498878479 0
vt 0.1293669939041138 0.8174600005149841 0
vt 0.1287389993667603 0.8394619822502136 0
vt 0.1287389993667603 0.8162679672241211 0
vt 0.01324599981307983 0.8394619822502136 0
vt 0.01324599981307983 0.8162679672241211 0
vt 0.01325100008398294 0.8394629955291748 0
vt 0.01325100008398294 0.8162689805030823 0
vt 0.1287419945001602 0.8394629955291748 0
vt 0.1287419945001602 0.8162689805030823 0

# 5 vertex normals
vn 0 1 0
vn 1 0 3.000000106112566e-06
vn -1 0 0
vn -1.599999995960388e-05 -0 -1
vn -1.300000076298602e-05 0 1

# Mesh 'tile_hazzard' with 10 faces
g tile_hazzard
usemtl PDX01_-_Default
f  1/1/1 2/2/1 3/3/1
f  2/2/1 4/4/1 3/3/1
f  2/5/2 5/6/2 4/7/2
f  5/6/2 6/8/2 4/7/2
f  3/9/3 7/10/3 1/11/3
f  7/10/3 8/12/3 1/11/3
f  4/13/4 6/14/4 3/15/4
f  6/14/4 7/16/4 3/15/4
f  1/17/5 8/18/5 2/19/5
f  8/18/5 5/20/5 2/19/5

