mtllib ss_tile_slide.mtl
o tile_straight
usemtl PDX01_-_Default
v -0.5 -0.20000000298023224 -0.5
v -0.5 -0.20000000298023246 0.5
v -0.5000079870223999 -0.002741001546382904 -0.5
v -0.5000079870223999 -0.002741001546383126 0.5
v -0.5000079870223999 -0.002741001546382904 -0.5
v -0.5 -0.20000000298023246 0.5
v 0.5 -0.002741001546382904 -0.5
v 0.5 -0.002741001546383126 0.5
v 0.5 -0.20000000298023224 -0.5
v 0.5 -0.20000000298023246 0.5
v 0.5 -0.20000000298023224 -0.5
v 0.5 -0.002741001546383126 0.5
v 0.5 -0.002741001546383126 0.5
v 0.5 -0.002741001546382904 -0.5
v -0.5000079870223999 -0.002741001546383126 0.5
v -0.5000079870223999 -0.002741001546382904 -0.5
v -0.5000079870223999 -0.002741001546383126 0.5
v 0.5 -0.002741001546382904 -0.5
v 0.5 -0.20000000298023224 -0.5
v -0.5 -0.20000000298023224 -0.5
v 0.5 -0.002741001546382904 -0.5
v -0.5000079870223999 -0.002741001546382904 -0.5
v 0.5 -0.002741001546382904 -0.5
v -0.5 -0.20000000298023224 -0.5
v -0.5 -0.20000000298023246 0.5
v 0.5 -0.20000000298023246 0.5
v -0.5000079870223999 -0.002741001546383126 0.5
v 0.5 -0.002741001546383126 0.5
v -0.5000079870223999 -0.002741001546383126 0.5
v 0.5 -0.20000000298023246 0.5
vt 0.12618699669837952 0.8174139857292175
vt 0.013031999580562115 0.8174139857292175
vt 0.12618699669837952 0.8368449807167053
vt 0.013031999580562115 0.8368449807167053
vt 0.12618699669837952 0.8368449807167053
vt 0.013031999580562115 0.8174139857292175
vt 0.12618699669837952 0.8368449807167053
vt 0.013031999580562115 0.8368449807167053
vt 0.12618699669837952 0.8174139857292175
vt 0.013031999580562115 0.8174139857292175
vt 0.12618699669837952 0.8174139857292175
vt 0.013031999580562115 0.8368449807167053
vt 0.40591898560523987 0.6931689977645874
vt 0.40591898560523987 0.575268030166626
vt 0.5245630145072937 0.6931689977645874
vt 0.5245630145072937 0.575268030166626
vt 0.5245630145072937 0.6931689977645874
vt 0.40591898560523987 0.575268030166626
vt 0.01041099987924099 0.8172280192375183
vt 0.12807099521160126 0.8172280192375183
vt 0.010460999794304371 0.8362979888916016
vt 0.1280210018157959 0.8362979888916016
vt 0.010460999794304371 0.8362979888916016
vt 0.12807099521160126 0.8172280192375183
vt 0.12807099521160126 0.8172280192375183
vt 0.01041099987924099 0.8172280192375183
vt 0.1280210018157959 0.8362979888916016
vt 0.010460999794304371 0.8362979888916016
vt 0.1280210018157959 0.8362979888916016
vt 0.01041099987924099 0.8172280192375183
vn -0.9999999992780002 -0.0000379999982850075 -8.437694606346358e-21
vn -0.9999999992780002 -0.0000379999982850075 -8.437694606346358e-21
vn -0.9999999992780002 -0.0000379999982850075 -8.437694606346358e-21
vn -0.9999999992780002 -0.0000379999982850075 -8.437694606346358e-21
vn -0.9999999992780002 -0.0000379999982850075 -8.437694606346358e-21
vn -0.9999999992780002 -0.0000379999982850075 -8.437694606346358e-21
vn 1 0 0
vn 1 0 0
vn 1 0 0
vn 1 0 0
vn 1 0 0
vn 1 0 0
vn 0 1 2.220446049250313e-16
vn 0 1 2.220446049250313e-16
vn 0 1 2.220446049250313e-16
vn 0 1 2.220446049250313e-16
vn 0 1 2.220446049250313e-16
vn 0 1 2.220446049250313e-16
vn 0 2.220446049250313e-16 -1
vn 0 2.220446049250313e-16 -1
vn 0 2.220446049250313e-16 -1
vn 0 2.220446049250313e-16 -1
vn 0 2.220446049250313e-16 -1
vn 0 2.220446049250313e-16 -1
vn 0 -2.220446049250313e-16 1
vn 0 -2.220446049250313e-16 1
vn 0 -2.220446049250313e-16 1
vn 0 -2.220446049250313e-16 1
vn 0 -2.220446049250313e-16 1
vn 0 -2.220446049250313e-16 1
f 1/1/1 2/2/2 3/3/3
f 4/4/4 5/5/5 6/6/6
f 7/7/7 8/8/8 9/9/9
f 10/10/10 11/11/11 12/12/12
f 13/13/13 14/14/14 15/15/15
f 16/16/16 17/17/17 18/18/18
f 19/19/19 20/20/20 21/21/21
f 22/22/22 23/23/23 24/24/24
f 25/25/25 26/26/26 27/27/27
f 28/28/28 29/29/29 30/30/30
