mtllib ss_tile_ne_corner_static.mtl
o tile_corner_static
usemtl PDX01_-_Default
v 0.5000074999998105 -0.20000000298023224 -0.49999250000018947
v -0.49999250000018947 -0.20000000298023224 -0.5000074999998105
v 0.3339334923253549 0 -0.49999999790040395
v -0.33393249941725606 0 -0.5000000023097024
v 0.3339334923253549 0 -0.49999999790040395
v -0.49999250000018947 -0.20000000298023224 -0.5000074999998105
v 0.3339334923253549 0 -0.49999999790040395
v 0.38582550460796483 0.10000000149011612 -0.49999421273007705
v 0.5000074999998105 -0.20000000298023224 -0.49999250000018947
v 0.5000074999998105 0.10000000149011612 -0.49999250000018947
v 0.5000074999998105 -0.20000000298023224 -0.49999250000018947
v 0.38582550460796483 0.10000000149011612 -0.49999421273007705
v -0.49999250000018947 -0.20000000298023224 -0.5000074999998105
v -0.49999250000018947 0.10000000149011612 -0.5000074999998105
v -0.33393249941725606 0 -0.5000000023097024
v -0.38581050460834376 0.10000000149011612 -0.5000057872699228
v -0.33393249941725606 0 -0.5000000023097024
v -0.49999250000018947 0.10000000149011612 -0.5000074999998105
v 0.49999250000018947 -0.20000000298023224 0.5000074999998105
v 0.5000074999998105 -0.20000000298023224 -0.49999250000018947
v 0.49999999790018035 0 0.33393350722651605
v 0.5000000023101495 0 -0.3339325292195784
v 0.49999999790018035 0 0.33393350722651605
v 0.5000074999998105 -0.20000000298023224 -0.49999250000018947
v 0.3360550449215092 0 -0.3360719341188453
v 0.5000000023101495 0 -0.3339325292195784
v 0.3858237916080682 0.10000000149011612 -0.3857942167355092
v 0.500005787269923 0.10000000149011612 -0.38581050460834376
v 0.3858237916080682 0.10000000149011612 -0.3857942167355092
v 0.5000000023101495 0 -0.3339325292195784
v 0.38582550460796483 0.10000000149011612 -0.49999421273007705
v 0.3339334923253549 0 -0.49999999790040395
v 0.3858237916080682 0.10000000149011612 -0.3857942167355092
v 0.3360550449215092 0 -0.3360719341188453
v 0.3858237916080682 0.10000000149011612 -0.3857942167355092
v 0.3339334923253549 0 -0.49999999790040395
v 0.38582550460796483 0.10000000149011612 -0.49999421273007705
v 0.3858237916080682 0.10000000149011612 -0.3857942167355092
v 0.5000074999998105 0.10000000149011612 -0.49999250000018947
v 0.500005787269923 0.10000000149011612 -0.38581050460834376
v 0.5000074999998105 0.10000000149011612 -0.49999250000018947
v 0.3858237916080682 0.10000000149011612 -0.3857942167355092
v 0.3360550449215092 0 -0.3360719341188453
v 0.0031400540011135483 0 0.3297310496249876
v 0.5000000023101495 0 -0.3339325292195784
v 0.49999999790018035 0 0.33393350722651605
v 0.5000000023101495 0 -0.3339325292195784
v 0.0031400540011135483 0 0.3297310496249876
v 0.49999421273018885 0.10000000149011612 0.38582549715738423
v 0.49999999790018035 0 0.33393350722651605
v -0.000017787270235615133 0.10000000149011612 0.3858179969775737
v 0.0031400540011135483 0 0.3297310496249876
v -0.000017787270235615133 0.10000000149011612 0.3858179969775737
v 0.49999999790018035 0 0.33393350722651605
v -0.3297369603833568 0 -0.003153919043118014
v -0.33393249941725606 0 -0.5000000023097024
v -0.38581699155405164 0.10000000149011612 0.000009203313437289307
v -0.38581050460834376 0.10000000149011612 -0.5000057872699228
v -0.38581699155405164 0.10000000149011612 0.000009203313437289307
v -0.33393249941725606 0 -0.5000000023097024
v 0.3339334923253549 0 -0.49999999790040395
v -0.33393249941725606 0 -0.5000000023097024
v 0.3360550449215092 0 -0.3360719341188453
v -0.3297369603833568 0 -0.003153919043118014
v 0.3360550449215092 0 -0.3360719341188453
v -0.33393249941725606 0 -0.5000000023097024
v 0.0031400540011135483 0 0.3297310496249876
v 0.3360550449215092 0 -0.3360719341188453
v -0.16333728336748088 0 0.2856385496798777
v -0.000017787270235615133 0.10000000149011612 0.3858179969775737
v 0.0031400540011135483 0 0.3297310496249876
v -0.19728908566655778 0.10000000149011612 0.33916603635892295
v -0.16333728336748088 0 0.2856385496798777
v -0.19728908566655778 0.10000000149011612 0.33916603635892295
v 0.0031400540011135483 0 0.3297310496249876
v 0.49999250000018947 0.10000000149011612 0.5000074999998105
v -0.000017787270235615133 0.10000000149011612 0.3858179969775737
v -0.5000074999998105 0.10000000149011612 0.49999250000018947
v 0.49999421273018885 0.10000000149011612 0.38582549715738423
v -0.000017787270235615133 0.10000000149011612 0.3858179969775737
v 0.49999250000018947 0.10000000149011612 0.5000074999998105
v -0.38581699155405164 0.10000000149011612 0.000009203313437289307
v -0.49999250000018947 0.10000000149011612 -0.5000074999998105
v -0.5000074999998105 0.10000000149011612 0.49999250000018947
v -0.38581050460834376 0.10000000149011612 -0.5000057872699228
v -0.49999250000018947 0.10000000149011612 -0.5000074999998105
v -0.38581699155405164 0.10000000149011612 0.000009203313437289307
v -0.000017787270235615133 0.10000000149011612 0.3858179969775737
v -0.19728908566655778 0.10000000149011612 0.33916603635892295
v -0.5000074999998105 0.10000000149011612 0.49999250000018947
v -0.5000074999998105 -0.20000000298023224 0.49999250000018947
v 0.49999250000018947 -0.20000000298023224 0.5000074999998105
v -0.5000074999998105 0.10000000149011612 0.49999250000018947
v 0.49999250000018947 0.10000000149011612 0.5000074999998105
v -0.5000074999998105 0.10000000149011612 0.49999250000018947
v 0.49999250000018947 -0.20000000298023224 0.5000074999998105
v -0.49999250000018947 -0.20000000298023224 -0.5000074999998105
v -0.5000074999998105 -0.20000000298023224 0.49999250000018947
v -0.49999250000018947 0.10000000149011612 -0.5000074999998105
v -0.5000074999998105 0.10000000149011612 0.49999250000018947
v -0.49999250000018947 0.10000000149011612 -0.5000074999998105
v -0.5000074999998105 -0.20000000298023224 0.49999250000018947
v 0.500005787269923 0.10000000149011612 -0.38581050460834376
v 0.5000000023101495 0 -0.3339325292195784
v 0.5000074999998105 0.10000000149011612 -0.49999250000018947
v 0.5000074999998105 -0.20000000298023224 -0.49999250000018947
v 0.5000074999998105 0.10000000149011612 -0.49999250000018947
v 0.5000000023101495 0 -0.3339325292195784
v 0.49999250000018947 -0.20000000298023224 0.5000074999998105
v 0.49999999790018035 0 0.33393350722651605
v 0.49999250000018947 0.10000000149011612 0.5000074999998105
v 0.49999421273018885 0.10000000149011612 0.38582549715738423
v 0.49999250000018947 0.10000000149011612 0.5000074999998105
v 0.49999999790018035 0 0.33393350722651605
v -0.28610545084246786 0 0.16270670293699613
v 0.3360550449215092 0 -0.3360719341188453
v -0.3297369603833568 0 -0.003153919043118014
v -0.28610545084246786 0 0.16270670293699613
v -0.3297369603833568 0 -0.003153919043118014
v -0.3396529536969215 0.10000000149011612 0.19656789447543976
v -0.38581699155405164 0.10000000149011612 0.000009203313437289307
v -0.3396529536969215 0.10000000149011612 0.19656789447543976
v -0.3297369603833568 0 -0.003153919043118014
v -0.5000074999998105 0.10000000149011612 0.49999250000018947
v -0.3396529536969215 0.10000000149011612 0.19656789447543976
v -0.38581699155405164 0.10000000149011612 0.000009203313437289307
v -0.5000074999998105 0.10000000149011612 0.49999250000018947
v -0.19728908566655778 0.10000000149011612 0.33916603635892295
v -0.3396529536969215 0.10000000149011612 0.19656789447543976
v -0.16333728336748088 0 0.2856385496798777
v -0.28610545084246786 0 0.16270670293699613
v -0.19728908566655778 0.10000000149011612 0.33916603635892295
v -0.3396529536969215 0.10000000149011612 0.19656789447543976
v -0.19728908566655778 0.10000000149011612 0.33916603635892295
v -0.28610545084246786 0 0.16270670293699613
v -0.28610545084246786 0 0.16270670293699613
v -0.16333728336748088 0 0.2856385496798777
v 0.3360550449215092 0 -0.3360719341188453
vt 0.11892499774694443 0.8173419833183289
vt 0.02181600034236908 0.8173419833183289
vt 0.10457400232553482 0.8328449726104736
vt 0.036166999489068985 0.8328449726104736
vt 0.10457400232553482 0.8328449726104736
vt 0.02181600034236908 0.8173419833183289
vt 0.10457400232553482 0.8328449726104736
vt 0.1078369989991188 0.8405960202217102
vt 0.11892499774694443 0.8173419833183289
vt 0.11892499774694443 0.8405960202217102
vt 0.11892499774694443 0.8173419833183289
vt 0.1078369989991188 0.8405960202217102
vt 0.02181600034236908 0.8173419833183289
vt 0.02181600034236908 0.8405960202217102
vt 0.036166999489068985 0.8328449726104736
vt 0.0329039990901947 0.8405960202217102
vt 0.036166999489068985 0.8328449726104736
vt 0.02181600034236908 0.8405960202217102
vt 0.02064099907875061 0.8191109895706177
vt 0.12207800149917603 0.8191109895706177
vt 0.035631999373435974 0.8310319781303406
vt 0.10708799958229065 0.8310319781303406
vt 0.035631999373435974 0.8310319781303406
vt 0.12207800149917603 0.8191109895706177
vt 0.06979899853467941 0.7268109917640686
vt 0.05086600035429001 0.7267979979515076
vt 0.06902699917554855 0.7540590167045593
vt 0.05086600035429001 0.7540990114212036
vt 0.06902699917554855 0.7540590167045593
vt 0.05086600035429001 0.7267979979515076
vt 0.0907140001654625 0.7541729807853699
vt 0.0919400006532669 0.7268030047416687
vt 0.06902699917554855 0.7540590167045593
vt 0.06979899853467941 0.7268109917640686
vt 0.06902699917554855 0.7540590167045593
vt 0.0919400006532669 0.7268030047416687
vt 0.4360960125923157 0.9723520278930664
vt 0.4507400095462799 0.9577080011367798
vt 0.45148900151252747 0.9877449870109558
vt 0.46612998843193054 0.9731029868125916
vt 0.45148900151252747 0.9877449870109558
vt 0.4507400095462799 0.9577080011367798
vt 0.1786320060491562 0.9030399918556213
vt 0.10009299963712692 0.9438509941101074
vt 0.17862899601459503 0.8844109773635864
vt 0.10009299963712692 0.8844109773635864
vt 0.17862899601459503 0.8844109773635864
vt 0.10009299963712692 0.9438509941101074
vt 0.26094499230384827 0.7542909979820251
vt 0.2591269910335541 0.726963996887207
vt 0.19126200675964355 0.7540819644927979
vt 0.19132399559020996 0.727092981338501
vt 0.19126200675964355 0.7540819644927979
vt 0.2591269910335541 0.726963996887207
vt 0.10727600008249283 0.7269890308380127
vt 0.047614000737667084 0.7269270420074463
vt 0.10904800146818161 0.7540439963340759
vt 0.04763700067996979 0.7539969682693481
vt 0.10904800146818161 0.7540439963340759
vt 0.047614000737667084 0.7269270420074463
vt 0.19694000482559204 0.9030399918556213
vt 0.19694000482559204 0.9864330291748047
vt 0.1786320060491562 0.9030399918556213
vt 0.14129899442195892 0.9864330291748047
vt 0.1786320060491562 0.9030399918556213
vt 0.19694000482559204 0.9864330291748047
vt 0.10009299963712692 0.9438509941101074
vt 0.1786320060491562 0.9030399918556213
vt 0.10383400321006775 0.9697530269622803
vt 0.19126200675964355 0.7540819644927979
vt 0.19132399559020996 0.727092981338501
vt 0.16856899857521057 0.7540559768676758
vt 0.16673600673675537 0.7269999980926514
vt 0.16856899857521057 0.7540559768676758
vt 0.19132399559020996 0.727092981338501
vt 0.4106900095939636 0.8352980017662048
vt 0.43070799112319946 0.9118019938468933
vt 0.4106900095939636 0.9885590076446533
vt 0.43070799112319946 0.8352980017662048
vt 0.43070799112319946 0.9118019938468933
vt 0.4106900095939636 0.8352980017662048
vt 0.48907700181007385 0.9671400189399719
vt 0.5665929913520813 0.9885590076446533
vt 0.4106900095939636 0.9885590076446533
vt 0.5665929913520813 0.9671400189399719
vt 0.5665929913520813 0.9885590076446533
vt 0.48907700181007385 0.9671400189399719
vt 0.43070799112319946 0.9118019938468933
vt 0.43643298745155334 0.9424239993095398
vt 0.4106900095939636 0.9885590076446533
vt 0.028091000393033028 0.8159549832344055
vt 0.11961600184440613 0.8159549832344055
vt 0.028091000393033028 0.8378720283508301
vt 0.11961600184440613 0.8378720283508301
vt 0.028091000393033028 0.8378720283508301
vt 0.11961600184440613 0.8159549832344055
vt 0.11757200211286545 0.8169090151786804
vt 0.02418000064790249 0.8169090151786804
vt 0.11757200211286545 0.8368819952011108
vt 0.02418000064790249 0.8368819952011108
vt 0.11757200211286545 0.8368819952011108
vt 0.02418000064790249 0.8169090151786804
vt 0.11049599945545197 0.8369929790496826
vt 0.10708799958229065 0.8310319781303406
vt 0.12207800149917603 0.8369929790496826
vt 0.12207800149917603 0.8191109895706177
vt 0.12207800149917603 0.8369929790496826
vt 0.10708799958229065 0.8310319781303406
vt 0.02064099907875061 0.8191109895706177
vt 0.035631999373435974 0.8310319781303406
vt 0.02064099907875061 0.8369929790496826
vt 0.03222399950027466 0.8369929790496826
vt 0.02064099907875061 0.8369929790496826
vt 0.035631999373435974 0.8310319781303406
vt 0.1197500005364418 0.9837650060653687
vt 0.1786320060491562 0.9030399918556213
vt 0.14129899442195892 0.9864330291748047
vt 0.13533000648021698 0.7270010113716125
vt 0.10727600008249283 0.7269890308380127
vt 0.13544799387454987 0.7539590001106262
vt 0.10904800146818161 0.7540439963340759
vt 0.13544799387454987 0.7539590001106262
vt 0.10727600008249283 0.7269890308380127
vt 0.4106900095939636 0.9885590076446533
vt 0.4585669934749603 0.9645230174064636
vt 0.48907700181007385 0.9671400189399719
vt 0.4106900095939636 0.9885590076446533
vt 0.43643298745155334 0.9424239993095398
vt 0.4585669934749603 0.9645230174064636
vt 0.16673600673675537 0.7269999980926514
vt 0.13533000648021698 0.7270010113716125
vt 0.16856899857521057 0.7540559768676758
vt 0.13544799387454987 0.7539590001106262
vt 0.16856899857521057 0.7540559768676758
vt 0.13533000648021698 0.7270010113716125
vt 0.1197500005364418 0.9837650060653687
vt 0.10383400321006775 0.9697530269622803
vt 0.1786320060491562 0.9030399918556213
vn 0.000014999999615413129 -0.00002300000050686877 -0.999999999623
vn 0.000014999999615413129 -0.00002300000050686877 -0.999999999623
vn 0.000014999999615413129 -0.00002300000050686877 -0.999999999623
vn 9.999994282525554e-7 0.00003400000057712028 -0.9999999994215001
vn 9.999994282525554e-7 0.00003400000057712028 -0.9999999994215001
vn 9.999994282525554e-7 0.00003400000057712028 -0.9999999994215001
vn 0.0000649999982576669 0.00001899999913117975 -0.9999999977070001
vn 0.0000649999982576669 0.00001899999913117975 -0.9999999977070001
vn 0.0000649999982576669 0.00001899999913117975 -0.9999999977070001
vn 0.000014999999619380628 0 -0.9999999998875
vn 0.000014999999619380628 0 -0.9999999998875
vn 0.000014999999619380628 0 -0.9999999998875
vn 0.000041999999646552515 0 -0.999999999118
vn 0.000041999999646552515 0 -0.999999999118
vn 0.000041999999646552515 0 -0.999999999118
vn 0.00001499999960419313 -0.00004500000064169379 -0.9999999988750001
vn 0.00001499999960419313 -0.00004500000064169379 -0.9999999988750001
vn 0.00001499999960419313 -0.00004500000064169379 -0.9999999988750001
vn 0.999999999623 -0.00002300000050686877 0.000014999999615413129
vn 0.999999999623 -0.00002300000050686877 0.000014999999615413129
vn 0.999999999623 -0.00002300000050686877 0.000014999999615413129
vn 0.9999999994215001 0.00003400000057712028 9.999994282525554e-7
vn 0.9999999994215001 0.00003400000057712028 9.999994282525554e-7
vn 0.9999999994215001 0.00003400000057712028 9.999994282525554e-7
vn -0.011658393734581668 0.44983690243298274 0.8930346259048575
vn -0.011658393734581668 0.44983690243298274 0.8930346259048575
vn -0.011658393734581668 0.44983690243298274 0.8930346259048575
vn 0.00012268507310287302 0.46049986894070133 0.8876597634533007
vn 0.00012268507310287302 0.46049986894070133 0.8876597634533007
vn 0.00012268507310287302 0.46049986894070133 0.8876597634533007
vn -0.8876113587211665 0.4605931780778973 -0.000013314170044473263
vn -0.8876113587211665 0.4605931780778973 -0.000013314170044473263
vn -0.8876113587211665 0.4605931780778973 -0.000013314170044473263
vn -0.8928922728073444 0.450122046900006 0.011555607101473388
vn -0.8928922728073444 0.450122046900006 0.011555607101473388
vn -0.8928922728073444 0.450122046900006 0.011555607101473388
vn 0 1 0
vn 0 1 0
vn 0 1 0
vn 0 1 0
vn 0 1 0
vn 0 1 0
vn 0 1 0
vn 0 1 0
vn 0 1 0
vn 0 1 0
vn 0 1 0
vn 0 1 0
vn 0.00001231417363023733 0.460592776255251 -0.8876115672465302
vn 0.0010682816248965407 0.46474496990209796 -0.8854439404756621
vn 0.10247005820129977 0.48698621914546714 -0.8673778355103533
vn 0.11018890958794698 0.4947729289622948 -0.862008209340196
vn 0.10247005820129977 0.48698621914546714 -0.8673778355103533
vn 0.0010682816248965407 0.46474496990209796 -0.8854439404756621
vn 0.8621296552743061 0.49472000840925623 -0.10947406439952685
vn 0.8854890682940465 0.46465903691312826 -0.0010437177326785326
vn 0.867467796111383 0.4869591878643573 -0.10183502375973506
vn 0.887659769636931 0.4604998731991719 0.000012314896458717156
vn 0.867467796111383 0.4869591878643573 -0.10183502375973506
vn 0.8854890682940465 0.46465903691312826 -0.0010437177326785326
vn 0 1 0
vn 0 1 0
vn 0 1 0
vn 0 1 0
vn 0 1 0
vn 0 1 0
vn 0 1 0
vn 0 1 0
vn 0 1 0
vn 0.10247005820129977 0.48698621914546714 -0.8673778355103533
vn 0.11018890958794698 0.4947729289622948 -0.862008209340196
vn 0.42219906976615557 0.5294180146282281 -0.7358427218337475
vn 0.41842600274252956 0.5349499959990339 -0.7339946743741009
vn 0.42219906976615557 0.5294180146282281 -0.7358427218337475
vn 0.11018890958794698 0.4947729289622948 -0.862008209340196
vn 0 1 0
vn 0 1 0
vn 0 1 0
vn 0 1 0
vn 0 1 0
vn 0 1 0
vn 0 1 0
vn 0 1 0
vn 0 1 0
vn 0 1 0
vn 0 1 0
vn 0 1 0
vn 0 1 0
vn 0 1 0
vn 0 1 0
vn -0.000014999999619380628 0 0.9999999998875
vn -0.000014999999619380628 0 0.9999999998875
vn -0.000014999999619380628 0 0.9999999998875
vn -0.000014999999619380628 0 0.9999999998875
vn -0.000014999999619380628 0 0.9999999998875
vn -0.000014999999619380628 0 0.9999999998875
vn -0.9999999998875 0 -0.000014999999619380628
vn -0.9999999998875 0 -0.000014999999619380628
vn -0.9999999998875 0 -0.000014999999619380628
vn -0.9999999998875 0 -0.000014999999619380628
vn -0.9999999998875 0 -0.000014999999619380628
vn -0.9999999998875 0 -0.000014999999619380628
vn 0.9999999988749999 -0.00004500000064169378 0.000014999999604193127
vn 0.9999999988749999 -0.00004500000064169378 0.000014999999604193127
vn 0.9999999988749999 -0.00004500000064169378 0.000014999999604193127
vn 0.999999999118 0 0.000041999999646552515
vn 0.999999999118 0 0.000041999999646552515
vn 0.999999999118 0 0.000041999999646552515
vn 0.999999999118 0 0.000041999999646552515
vn 0.999999999118 0 0.000041999999646552515
vn 0.999999999118 0 0.000041999999646552515
vn 0.9999999988749999 0.00004500000064169378 0.000014999999604193127
vn 0.9999999988749999 0.00004500000064169378 0.000014999999604193127
vn 0.9999999988749999 0.00004500000064169378 0.000014999999604193127
vn 0 1 0
vn 0 1 0
vn 0 1 0
vn 0.7347412177192932 0.5347899238461946 -0.41731891921760705
vn 0.8621296552743061 0.49472000840925623 -0.10947406439952685
vn 0.736578623718077 0.529292170364251 -0.42107211908731756
vn 0.867467796111383 0.4869591878643573 -0.10183502375973506
vn 0.736578623718077 0.529292170364251 -0.42107211908731756
vn 0.8621296552743061 0.49472000840925623 -0.10947406439952685
vn 0 1 0
vn 0 1 0
vn 0 1 0
vn 0 1 0
vn 0 1 0
vn 0 1 0
vn 0.41842600274252956 0.5349499959990339 -0.7339946743741009
vn 0.7347412177192932 0.5347899238461946 -0.41731891921760705
vn 0.42219906976615557 0.5294180146282281 -0.7358427218337475
vn 0.736578623718077 0.529292170364251 -0.42107211908731756
vn 0.42219906976615557 0.5294180146282281 -0.7358427218337475
vn 0.7347412177192932 0.5347899238461946 -0.41731891921760705
vn 0 1 0
vn 0 1 0
vn 0 1 0
f 1/1/1 2/2/2 3/3/3
f 4/4/4 5/5/5 6/6/6
f 7/7/7 8/8/8 9/9/9
f 10/10/10 11/11/11 12/12/12
f 13/13/13 14/14/14 15/15/15
f 16/16/16 17/17/17 18/18/18
f 19/19/19 20/20/20 21/21/21
f 22/22/22 23/23/23 24/24/24
f 25/25/25 26/26/26 27/27/27
f 28/28/28 29/29/29 30/30/30
f 31/31/31 32/32/32 33/33/33
f 34/34/34 35/35/35 36/36/36
f 37/37/37 38/38/38 39/39/39
f 40/40/40 41/41/41 42/42/42
f 43/43/43 44/44/44 45/45/45
f 46/46/46 47/47/47 48/48/48
f 49/49/49 50/50/50 51/51/51
f 52/52/52 53/53/53 54/54/54
f 55/55/55 56/56/56 57/57/57
f 58/58/58 59/59/59 60/60/60
f 61/61/61 62/62/62 63/63/63
f 64/64/64 65/65/65 66/66/66
f 67/67/67 68/68/68 69/69/69
f 70/70/70 71/71/71 72/72/72
f 73/73/73 74/74/74 75/75/75
f 76/76/76 77/77/77 78/78/78
f 79/79/79 80/80/80 81/81/81
f 82/82/82 83/83/83 84/84/84
f 85/85/85 86/86/86 87/87/87
f 88/88/88 89/89/89 90/90/90
f 91/91/91 92/92/92 93/93/93
f 94/94/94 95/95/95 96/96/96
f 97/97/97 98/98/98 99/99/99
f 100/100/100 101/101/101 102/102/102
f 103/103/103 104/104/104 105/105/105
f 106/106/106 107/107/107 108/108/108
f 109/109/109 110/110/110 111/111/111
f 112/112/112 113/113/113 114/114/114
f 115/115/115 116/116/116 117/117/117
f 118/118/118 119/119/119 120/120/120
f 121/121/121 122/122/122 123/123/123
f 124/124/124 125/125/125 126/126/126
f 127/127/127 128/128/128 129/129/129
f 130/130/130 131/131/131 132/132/132
f 133/133/133 134/134/134 135/135/135
f 136/136/136 137/137/137 138/138/138
