# File produced by Open Asset Import Library (http://www.assimp.sf.net)
# (assimp v4.1.0)

mtllib nly81tw2fm2c.mtl

# 10 vertex positions
v  -0.4999979734420776 -0.2000000029802322 0.4999990165233612
v  0.5000019669532776 -0.2000000029802322 0.5000010132789612
v  -0.4999979734420776 0.1000039950013161 0.4999990165233612
v  0.5000019669532776 0.1000039950013161 0.5000010132789612
v  0.5000039935112 0.1000039950013161 -0.5000069737434387
v  0.5000039935112 -0.2000000029802322 -0.4999989867210388
v  1.40070915222168e-05 0.1000039950013161 -0.5000079870223999
v  5.990266799926758e-06 -0.2000000029802322 -0.5
v  -0.4999970197677612 0.1000039950013161 1.500000053056283e-05
v  -0.4999970197677612 -0.2000000029802322 1.500000053056283e-05

# 25 UV coordinates
vt 0.6967589855194092 0.3265789747238159 0
vt 0.8606060147285461 0.3265789747238159 0
vt 0.6967589855194092 0.3664230108261108 0
vt 0.8606060147285461 0.3664230108261108 0
vt 0.8603799939155579 0.3661519885063171 0
vt 0.6965370178222656 0.3661519885063171 0
vt 0.8603640198707581 0.3265920281410217 0
vt 0.6965540051460266 0.3265920281410217 0
vt 0.7777400016784668 0.3664230108261108 0
vt 0.7777400016784668 0.3265789747238159 0
vt 0.6951119899749756 0.3664230108261108 0
vt 0.6951109766960144 0.3265789747238159 0
vt 0.6718959808349609 0.553846001625061 0
vt 0.6718959808349609 0.4432740211486816 0
vt 0.7413110136985779 0.553846001625061 0
vt 0.7875189781188965 0.4432740211486816 0
vt 0.7875189781188965 0.5096560120582581 0
vt 0.7779579758644104 0.3661519885063171 0
vt 0.8598080277442932 0.3661519885063171 0
vt 0.777974009513855 0.3265920281410217 0
vt 0.8598049879074097 0.3265920281410217 0
vt 0.8595280051231384 0.3660140037536621 0
vt 0.8595259785652161 0.3277660012245178 0
vt 0.7777289748191833 0.3660140037536621 0
vt 0.7777289748191833 0.3277660012245178 0

# 6 vertex normals
vn -1.999999994950485e-06 0 1
vn 1 -0 1.999999994950485e-06
vn 1.999999994950485e-06 -2.499999936844688e-05 -1
vn 0 1 0
vn -1 0 -1.999999994950485e-06
vn -0.707114577293396 0 -0.7070984244346619

# Mesh 'tile_boundary_edged_corner' with 13 faces
g tile_boundary_edged_corner
usemtl PDX01_-_Default
f  1/1/1 2/2/1 3/3/1
f  4/4/1 3/3/1 2/2/1
f  5/5/2 4/6/2 6/7/2
f  2/8/2 6/7/2 4/6/2
f  5/9/3 6/10/3 7/11/3
f  8/12/3 7/11/3 6/10/3
f  3/13/4 4/14/4 9/15/4
f  5/16/4 7/17/4 4/14/4
f  4/14/4 7/17/4 9/15/4
f  3/18/5 9/19/5 1/20/5
f  10/21/5 1/20/5 9/19/5
f  7/22/6 8/23/6 9/24/6
f  8/23/6 10/25/6 9/24/6

