mtllib ss_wall_corner_nw.mtl
o wall_
usemtl PDX01_-_Default
v 0.2812299990680127 1.45692291110754 -0.4999940628779634
v -0.5000009271292033 1.45692291110754 0.28121897937020024
v 0.4999819958376126 1.45692291110754 -0.49999200034996427
v -0.5000009271292033 1.45692291110754 0.28121897937020024
v -0.5000050033429628 1.45692291110754 0.5000000333759422
v 0.4999819958376126 1.45692291110754 -0.49999200034996427
v -0.5000070000000959 0.10000000149011609 0.4999929999999039
v -0.5000070000000959 -0.20000000298023224 0.4999929999999039
v 0.49998999000706595 0.10000000149011609 0.5000040197257167
v -0.5000070000000959 -0.20000000298023224 0.4999929999999039
v 0.49998999000706595 -0.20000000298023224 0.5000040197257167
v 0.49998999000706595 0.10000000149011609 0.5000040197257167
v 0.4999819958516126 0.10000000149011609 -0.499993000349962
v 0.4999819958516126 -0.20000000298023224 -0.4999930003499621
v -0.4999859965381428 0.10000000149011609 -0.5000009999018341
v 0.4999819958516126 -0.20000000298023224 -0.4999930003499621
v -0.4999859965381428 -0.20000000298023224 -0.5000009999018342
v -0.4999859965381428 0.10000000149011609 -0.5000009999018341
v 0.49998999000706595 0.10000000149011609 0.5000040197257167
v 0.49998999000706595 -0.20000000298023224 0.5000040197257167
v 0.4999819958516126 0.10000000149011609 -0.499993000349962
v 0.49998999000706595 -0.20000000298023224 0.5000040197257167
v 0.4999819958516126 -0.20000000298023224 -0.4999930003499621
v 0.4999819958516126 0.10000000149011609 -0.499993000349962
v -0.4999859965381428 0.10000000149011609 -0.5000009999018341
v -0.4999859965381428 -0.20000000298023224 -0.5000009999018342
v -0.5000070000000959 0.10000000149011609 0.4999929999999039
v -0.4999859965381428 -0.20000000298023224 -0.5000009999018342
v -0.5000070000000959 -0.20000000298023224 0.4999929999999039
v -0.5000070000000959 0.10000000149011609 0.4999929999999039
v -0.4999859965381428 0.10000000149011609 -0.5000009999018341
v -0.03558599936520536 0.20000001043081278 -0.4999964983020072
v 0.4999819958516126 0.10000000149011609 -0.499993000349962
v -0.03558599936520536 0.20000001043081278 -0.4999964983020072
v -0.4999859965381428 0.10000000149011609 -0.5000009999018341
v -0.4999984884748986 0.20000099390745157 -0.03559600950930181
v -0.03558599936520536 0.20000001043081278 -0.4999964983020072
v 0.18960399568342257 0.5710079893469809 -0.4999953456420285
v 0.4999819958516126 0.10000000149011609 -0.499993000349962
v -0.4999984884748986 0.20000099390745157 -0.03559600950930181
v -0.49999964436534694 0.5710079893469809 0.18959299088677106
v -0.03558599936520536 0.20000001043081278 -0.4999964983020072
v 0.18960399568342257 0.5710079893469809 -0.4999953456420285
v -0.03558599936520536 0.20000001043081278 -0.4999964983020072
v -0.49999964436534694 0.5710079893469809 0.18959299088677106
v 0.18960399568342257 0.5710079893469809 -0.4999953456420285
v 0.18960399568342257 1.2710080370306966 -0.49999534564202835
v 0.4999819958516126 0.10000000149011609 -0.499993000349962
v 0.4999819958376126 1.45692291110754 -0.49999200034996427
v 0.4999819958516126 0.10000000149011609 -0.499993000349962
v 0.18960399568342257 1.2710080370306966 -0.49999534564202835
v -0.4999919335460516 0.7729590162634848 -0.07592901223114784
v -0.4999929468250128 1.0690570101141927 -0.0759290122453336
v -0.0759179999978249 0.7729590162634848 -0.500002062950012
v -0.0759179999978249 1.0690570101141927 -0.5000020629500119
v -0.0759179999978249 0.7729590162634848 -0.500002062950012
v -0.4999929468250128 1.0690570101141927 -0.0759290122453336
v 0.4999819958516126 0.10000000149011609 -0.499993000349962
v 0.4999819958376126 1.45692291110754 -0.49999200034996427
v 0.49998999000706595 0.10000000149011609 0.5000040197257167
v 0.18960399568342257 1.2710080370306966 -0.49999534564202835
v 0.2812299990680127 1.45692291110754 -0.4999940628779634
v 0.4999819958376126 1.45692291110754 -0.49999200034996427
v -0.49999964436534694 1.2710080370306966 0.18959299088677128
v -0.5000009271292033 1.45692291110754 0.28121897937020024
v 0.18960399568342257 1.2710080370306966 -0.49999534564202835
v 0.2812299990680127 1.45692291110754 -0.4999940628779634
v 0.18960399568342257 1.2710080370306966 -0.49999534564202835
v -0.5000009271292033 1.45692291110754 0.28121897937020024
v -0.49999964436534694 0.5710079893469809 0.18959299088677106
v -0.4999919335460516 0.7729590162634848 -0.07592901223114784
v 0.18960399568342257 0.5710079893469809 -0.4999953456420285
v -0.0759179999978249 0.7729590162634848 -0.500002062950012
v 0.18960399568342257 0.5710079893469809 -0.4999953456420285
v -0.4999919335460516 0.7729590162634848 -0.07592901223114784
v 0.18960399568342257 0.5710079893469809 -0.4999953456420285
v -0.0759179999978249 0.7729590162634848 -0.500002062950012
v 0.18960399568342257 1.2710080370306966 -0.49999534564202835
v -0.0759179999978249 1.0690570101141927 -0.5000020629500119
v 0.18960399568342257 1.2710080370306966 -0.49999534564202835
v -0.0759179999978249 0.7729590162634848 -0.500002062950012
v 0.18960399568342257 1.2710080370306966 -0.49999534564202835
v -0.0759179999978249 1.0690570101141927 -0.5000020629500119
v -0.49999964436534694 1.2710080370306966 0.18959299088677128
v -0.4999929468250128 1.0690570101141927 -0.0759290122453336
v -0.49999964436534694 1.2710080370306966 0.18959299088677128
v -0.0759179999978249 1.0690570101141927 -0.5000020629500119
v -0.4999984884748986 0.20000099390745157 -0.03559600950930181
v -0.49999401341886507 0.10000000149011609 -0.4999970000145345
v -0.5000050033429628 0.10000099986791608 0.5000000333759418
v -0.49999964436534694 0.5710079893469809 0.18959299088677106
v -0.4999984884748986 0.20000099390745157 -0.03559600950930181
v -0.5000050033429628 0.10000099986791608 0.5000000333759418
v -0.5000050033429628 0.10000099986791608 0.5000000333759418
v -0.5000050033429628 1.45692291110754 0.5000000333759422
v -0.49999964436534694 0.5710079893469809 0.18959299088677106
v -0.49999964436534694 1.2710080370306966 0.18959299088677128
v -0.49999964436534694 0.5710079893469809 0.18959299088677106
v -0.5000050033429628 1.45692291110754 0.5000000333759422
v -0.5000009271292033 1.45692291110754 0.28121897937020024
v -0.49999964436534694 1.2710080370306966 0.18959299088677128
v -0.5000050033429628 1.45692291110754 0.5000000333759422
v -0.49999964436534694 1.2710080370306966 0.18959299088677128
v -0.4999929468250128 1.0690570101141927 -0.0759290122453336
v -0.49999964436534694 0.5710079893469809 0.18959299088677106
v -0.4999919335460516 0.7729590162634848 -0.07592901223114784
v -0.49999964436534694 0.5710079893469809 0.18959299088677106
v -0.4999929468250128 1.0690570101141927 -0.0759290122453336
v 0.49998999000706595 1.4564659819006918 0.5000040197257172
v 0.49998999000706595 0.10000000149011609 0.5000040197257167
v 0.4999819958376126 1.45692291110754 -0.49999200034996427
v -0.5000050033429628 1.45692291110754 0.5000000333759422
v -0.5000050033429628 0.10000099986791608 0.5000000333759418
v 0.49998999000706595 1.4564659819006918 0.5000040197257172
v -0.5000050033429628 0.10000099986791608 0.5000000333759418
v 0.49998999000706595 0.10000000149011609 0.5000040197257167
v 0.49998999000706595 1.4564659819006918 0.5000040197257172
v -0.5000050033429628 1.45692291110754 0.5000000333759422
v 0.49998999000706595 1.4564659819006918 0.5000040197257172
v 0.4999819958376126 1.45692291110754 -0.49999200034996427
vt 0.9779859781265259 0.3451859951019287
vt 0.892799973487854 0.3451870083808899
vt 0.9890729784965515 0.35797297954559326
vt 0.892799973487854 0.3451870083808899
vt 0.8816660046577454 0.3579750061035156
vt 0.9890729784965515 0.35797297954559326
vt 0.1293729990720749 0.84163498878479
vt 0.1293729990720749 0.817458987236023
vt 0.012264000251889229 0.8416340351104736
vt 0.1293729990720749 0.817458987236023
vt 0.012264000251889229 0.8174580335617065
vt 0.012264000251889229 0.8416340351104736
vt 0.012284999713301659 0.8416340351104736
vt 0.012284999713301659 0.817458987236023
vt 0.12936599552631378 0.84163498878479
vt 0.012284999713301659 0.817458987236023
vt 0.12936699390411377 0.8174600005149841
vt 0.12936599552631378 0.84163498878479
vt 0.12873899936676025 0.8394619822502136
vt 0.12873899936676025 0.8162679672241211
vt 0.013245999813079834 0.8394619822502136
vt 0.12873899936676025 0.8162679672241211
vt 0.013245999813079834 0.8162679672241211
vt 0.013245999813079834 0.8394619822502136
vt 0.013251000083982944 0.8394629955291748
vt 0.013251000083982944 0.8162689805030823
vt 0.12874199450016022 0.8394629955291748
vt 0.013251000083982944 0.8162689805030823
vt 0.12874199450016022 0.8162689805030823
vt 0.12874199450016022 0.8394629955291748
vt 0.746059000492096 0.02390998601913452
vt 0.7884920239448547 0.04143202304840088
vt 0.8669329881668091 0.02390998601913452
vt 0.9865220189094543 0.08107602596282959
vt 0.986473023891449 0.00814199447631836
vt 0.8769389986991882 0.081076979637146
vt 0.7884920239448547 0.04143202304840088
vt 0.8183850049972534 0.10643798112869263
vt 0.8669329881668091 0.02390998601913452
vt 0.893543004989624 0.081076979637146
vt 0.8760719895362854 0.12920701503753662
vt 0.967585027217865 0.08107602596282959
vt 0.9847270250320435 0.12919700145721436
vt 0.967585027217865 0.08107602596282959
vt 0.8760719895362854 0.12920701503753662
vt 0.8183850049972534 0.10643798112869263
vt 0.8183850049972534 0.22908997535705566
vt 0.8669329881668091 0.02390998601913452
vt 0.8669329881668091 0.2616649866104126
vt 0.8669329881668091 0.02390998601913452
vt 0.8183850049972534 0.22908997535705566
vt 0.8784160017967224 0.17495197057724
vt 0.8784160017967224 0.20684999227523804
vt 0.9837939739227295 0.17495101690292358
vt 0.9837660193443298 0.20684897899627686
vt 0.9837939739227295 0.17495101690292358
vt 0.8784160017967224 0.20684999227523804
vt 0.8629230260848999 0.26131099462509155
vt 0.8629230260848999 0.019005000591278076
vt 0.7547069787979126 0.26131099462509155
vt 0.8183850049972534 0.22908997535705566
vt 0.8327170014381409 0.2616649866104126
vt 0.8669329881668091 0.2616649866104126
vt 0.8971959948539734 0.32521599531173706
vt 0.892799973487854 0.3451870083808899
vt 0.9735289812088013 0.3253920078277588
vt 0.9779859781265259 0.3451859951019287
vt 0.9735289812088013 0.3253920078277588
vt 0.892799973487854 0.3451870083808899
vt 0.8990280032157898 0.12920701503753662
vt 0.9108790159225464 0.1561579704284668
vt 0.9640910029411316 0.12919700145721436
vt 0.9521849751472473 0.1561570167541504
vt 0.9640910029411316 0.12919700145721436
vt 0.9108790159225464 0.1561579704284668
vt 0.8183850049972534 0.10643798112869263
vt 0.776852011680603 0.14182400703430176
vt 0.8183850049972534 0.22908997535705566
vt 0.776852011680603 0.1937050223350525
vt 0.8183850049972534 0.22908997535705566
vt 0.776852011680603 0.14182400703430176
vt 0.9897050261497498 0.32007598876953125
vt 0.9719719886779785 0.2826420068740845
vt 0.8861240148544312 0.3202890157699585
vt 0.9036229848861694 0.2826420068740845
vt 0.8861240148544312 0.3202890157699585
vt 0.9719719886779785 0.2826420068740845
vt 0.7884899973869324 0.04143202304840088
vt 0.7460569739341736 0.02390998601913452
vt 0.866936981678009 0.02390998601913452
vt 0.8183839917182922 0.10643798112869263
vt 0.7884899973869324 0.04143202304840088
vt 0.866936981678009 0.02390998601913452
vt 0.866936981678009 0.02390998601913452
vt 0.866936981678009 0.2616649866104126
vt 0.8183839917182922 0.10643798112869263
vt 0.8183839917182922 0.22908997535705566
vt 0.8183839917182922 0.10643798112869263
vt 0.866936981678009 0.2616649866104126
vt 0.8327159881591797 0.2616649866104126
vt 0.8183839917182922 0.22908997535705566
vt 0.866936981678009 0.2616649866104126
vt 0.8183839917182922 0.22908997535705566
vt 0.7768509984016418 0.1937050223350525
vt 0.8183839917182922 0.10643798112869263
vt 0.7768509984016418 0.14182400703430176
vt 0.8183839917182922 0.10643798112869263
vt 0.7768509984016418 0.1937050223350525
vt 0.7547069787979126 0.019044995307922363
vt 0.7547069787979126 0.26131099462509155
vt 0.8629230260848999 0.019005000591278076
vt 0.8634600043296814 0.019005000591278076
vt 0.8634600043296814 0.26131099462509155
vt 0.7547069787979126 0.019044995307922363
vt 0.8634600043296814 0.26131099462509155
vt 0.7547069787979126 0.26131099462509155
vt 0.7547069787979126 0.019044995307922363
vt 0.7632700204849243 0.14895600080490112
vt 0.8190690279006958 0.20157700777053833
vt 0.8710219860076904 0.14895302057266235
vn 1.6940658943425825e-21 1 2.3716922846102675e-26
vn 1.6940658943425825e-21 1 2.3716922846102675e-26
vn 1.6940658943425825e-21 1 2.3716922846102675e-26
vn 1.6940658943425825e-21 1 2.3716922846102675e-26
vn 1.6940658943425825e-21 1 2.3716922846102675e-26
vn 1.6940658943425825e-21 1 2.3716922846102675e-26
vn -0.000011000000084787012 -2.2204460493023237e-16 0.9999999999395001
vn -0.000011000000084787012 -2.2204460493023237e-16 0.9999999999395001
vn -0.000011000000084787012 -2.2204460493023237e-16 0.9999999999395001
vn -0.000011000000084787012 -2.2204460493023237e-16 0.9999999999395001
vn -0.000011000000084787012 -2.2204460493023237e-16 0.9999999999395001
vn -0.000011000000084787012 -2.2204460493023237e-16 0.9999999999395001
vn 0.000007999999978873944 2.220446049314784e-16 -0.999999999968
vn 0.000007999999978873944 2.220446049314784e-16 -0.999999999968
vn 0.000007999999978873944 2.220446049314784e-16 -0.999999999968
vn 0.000007999999978873944 2.220446049314784e-16 -0.999999999968
vn 0.000007999999978873944 2.220446049314784e-16 -0.999999999968
vn 0.000007999999978873944 2.220446049314784e-16 -0.999999999968
vn 0.999999999968 3.470422728765809e-21 -0.000007999999977081938
vn 0.999999999968 3.470422728765809e-21 -0.000007999999977081938
vn 0.999999999968 3.470422728765809e-21 -0.000007999999977081938
vn 0.999999999968 3.470422728765809e-21 -0.000007999999977081938
vn 0.999999999968 3.470422728765809e-21 -0.000007999999977081938
vn 0.999999999968 3.470422728765809e-21 -0.000007999999977081938
vn -0.9999999997795002 2.968870872677253e-21 -0.000021000000285468113
vn -0.9999999997795002 2.968870872677253e-21 -0.000021000000285468113
vn -0.9999999997795002 2.968870872677253e-21 -0.000021000000285468113
vn -0.9999999997795002 2.968870872677253e-21 -0.000021000000285468113
vn -0.9999999997795002 2.968870872677253e-21 -0.000021000000285468113
vn -0.9999999997795002 2.968870872677253e-21 -0.000021000000285468113
vn 0.000007999999978729945 0.000006000000212819176 -0.99999999995
vn 0.000007999999978729945 0.000006000000212819176 -0.99999999995
vn 0.000007999999978729945 0.000006000000212819176 -0.99999999995
vn -0.20599007267759162 0.9566258312427446 -0.20599783726391058
vn -0.20599007267759162 0.9566258312427446 -0.20599783726391058
vn -0.20599007267759162 0.9566258312427446 -0.20599783726391058
vn 0.000007999999978729945 0.000006000000212819176 -0.99999999995
vn 0.0000070000000951525395 -9.999999973261982e-7 -0.9999999999750001
vn 0.000007999999978729945 0.000006000000212819176 -0.99999999995
vn -0.6497776450435616 0.3944038279804008 -0.6497958390725888
vn -0.6497776450435616 0.3944038279804008 -0.6497958390725888
vn -0.6497776450435616 0.3944038279804008 -0.6497958390725888
vn -0.6497810757089352 0.39439910318269006 -0.6497952762672476
vn -0.6497776450435616 0.3944038279804008 -0.6497958390725888
vn -0.6497776450435616 0.3944038279804008 -0.6497958390725888
vn 0.0000070000000951525395 -9.999999973261982e-7 -0.9999999999750001
vn 0.000009000000317343201 2.220446049312851e-16 -0.9999999999595001
vn 0.000007999999978729945 0.000006000000212819176 -0.99999999995
vn 0.000009000000317343201 2.220446049312851e-16 -0.9999999999595001
vn 0.000007999999978729945 0.000006000000212819176 -0.99999999995
vn 0.000009000000317343201 2.220446049312851e-16 -0.9999999999595001
vn -0.7071063886311686 1.5700813514831635e-16 -0.7071071737417085
vn -0.7071063886311686 1.5700813514831635e-16 -0.7071071737417085
vn -0.7071063886311686 1.5700813514831635e-16 -0.7071071737417085
vn -0.7071063886311686 1.5700813514831635e-16 -0.7071071737417085
vn -0.7071063886311686 1.5700813514831635e-16 -0.7071071737417085
vn -0.7071063886311686 1.5700813514831635e-16 -0.7071071737417085
vn 0.999999999968 3.470422728765809e-21 -0.000007999999977081938
vn 0.999999999968 3.470422728765809e-21 -0.000007999999977081938
vn 0.999999999968 3.470422728765809e-21 -0.000007999999977081938
vn 0.000009000000317343201 2.220446049312851e-16 -0.9999999999595001
vn 0.0000090000003173387 9.999999977822873e-7 -0.999999999959
vn 0.000009000000317343201 2.220446049312851e-16 -0.9999999999595001
vn -0.6677153453041689 0.32907883585143083 -0.6677299884234656
vn -0.6677153453041689 0.32907883585143083 -0.6677299884234656
vn -0.6677153453041689 0.32907883585143083 -0.6677299884234656
vn -0.6677153453041689 0.32907883585143083 -0.6677299884234656
vn -0.6677153453041689 0.32907883585143083 -0.6677299884234656
vn -0.6677153453041689 0.32907883585143083 -0.6677299884234656
vn -0.517871422328846 -0.6808865159766686 -0.5178829426581375
vn -0.517871422328846 -0.6808865159766686 -0.5178829426581375
vn -0.517871422328846 -0.6808865159766686 -0.5178829426581375
vn -0.517866661064997 -0.6809029162883016 -0.5178661409548591
vn -0.517866661064997 -0.6809029162883016 -0.5178661409548591
vn -0.517866661064997 -0.6809029162883016 -0.5178661409548591
vn 0.000027000000040590895 2.2204460488983586e-16 -0.9999999996355001
vn 0.000027000000040590895 2.2204460488983586e-16 -0.9999999996355001
vn 0.000027000000040590895 2.2204460488983586e-16 -0.9999999996355001
vn 0.000026000000612057346 2.2204460489402597e-16 -0.999999999662
vn 0.000027000000040590895 2.2204460488983586e-16 -0.9999999996355001
vn 0.000027000000040590895 2.2204460488983586e-16 -0.9999999996355001
vn -0.5178634899800176 0.6808986278511641 -0.5178749504814053
vn -0.5178634899800176 0.6808986278511641 -0.5178749504814053
vn -0.5178634899800176 0.6808986278511641 -0.5178749504814053
vn -0.517879476314086 0.6808826512951763 -0.5178799698558534
vn -0.517879476314086 0.6808826512951763 -0.5178799698558534
vn -0.517879476314086 0.6808826512951763 -0.5178799698558534
vn -0.9999999998990001 0.000009000000318814697 -0.000011000000084341511
vn -0.9999999998990001 0.000009000000318814697 -0.000011000000084341511
vn -0.9999999998990001 0.000009000000318814697 -0.000011000000084341511
vn -0.99999999992 0.000003999999990252971 -0.000012000000195780589
vn -0.9999999998990001 0.000009000000318814697 -0.000011000000084341511
vn -0.9999999998990001 0.000009000000318814697 -0.000011000000084341511
vn -0.9999999998380001 2.302737034388882e-21 -0.000018000000180020048
vn -0.9999999998380001 2.302737034388882e-21 -0.000018000000180020048
vn -0.99999999992 0.000003999999990252971 -0.000012000000195780589
vn -0.9999999998195002 2.5247816134985743e-21 -0.000019000000063616953
vn -0.99999999992 0.000003999999990252971 -0.000012000000195780589
vn -0.9999999998380001 2.302737034388882e-21 -0.000018000000180020048
vn -0.99999999974 0.000006000000212513134 -0.000022000000168573014
vn -0.9999999998195002 2.5247816134985743e-21 -0.000019000000063616953
vn -0.9999999998380001 2.302737034388882e-21 -0.000018000000180020048
vn -0.9999999998195002 2.5247816134985743e-21 -0.000019000000063616953
vn -0.9999999996620001 4.079093970018838e-21 -0.000026000000612057343
vn -0.9999999996620001 4.079093970018838e-21 -0.000026000000612057343
vn -0.9999999996350002 -9.999999974882385e-7 -0.000027000000040577394
vn -0.9999999996620001 4.079093970018838e-21 -0.000026000000612057343
vn -0.9999999996620001 4.079093970018838e-21 -0.000026000000612057343
vn 0.999999999968 3.470422728765809e-21 -0.000007999999977081938
vn 0.999999999968 3.470422728765809e-21 -0.000007999999977081938
vn 0.999999999968 3.470422728765809e-21 -0.000007999999977081938
vn -0.000004000000444056324 -2.220446049300312e-16 0.9999999999920001
vn -0.000004000000444056324 -2.220446049300312e-16 0.9999999999920001
vn -0.000004000000444056324 -2.220446049300312e-16 0.9999999999920001
vn -0.000004000000444056324 -2.220446049300312e-16 0.9999999999920001
vn -0.000004000000444056324 -2.220446049300312e-16 0.9999999999920001
vn -0.000004000000444056324 -2.220446049300312e-16 0.9999999999920001
vn 0.000456993486373788 0.9999997911510838 0.00045700628237072585
vn 0.000456993486373788 0.9999997911510838 0.00045700628237072585
vn 0.000456993486373788 0.9999997911510838 0.00045700628237072585
f 1/1/1 2/2/2 3/3/3
f 4/4/4 5/5/5 6/6/6
f 7/7/7 8/8/8 9/9/9
f 10/10/10 11/11/11 12/12/12
f 13/13/13 14/14/14 15/15/15
f 16/16/16 17/17/17 18/18/18
f 19/19/19 20/20/20 21/21/21
f 22/22/22 23/23/23 24/24/24
f 25/25/25 26/26/26 27/27/27
f 28/28/28 29/29/29 30/30/30
f 31/31/31 32/32/32 33/33/33
f 34/34/34 35/35/35 36/36/36
f 37/37/37 38/38/38 39/39/39
f 40/40/40 41/41/41 42/42/42
f 43/43/43 44/44/44 45/45/45
f 46/46/46 47/47/47 48/48/48
f 49/49/49 50/50/50 51/51/51
f 52/52/52 53/53/53 54/54/54
f 55/55/55 56/56/56 57/57/57
f 58/58/58 59/59/59 60/60/60
f 61/61/61 62/62/62 63/63/63
f 64/64/64 65/65/65 66/66/66
f 67/67/67 68/68/68 69/69/69
f 70/70/70 71/71/71 72/72/72
f 73/73/73 74/74/74 75/75/75
f 76/76/76 77/77/77 78/78/78
f 79/79/79 80/80/80 81/81/81
f 82/82/82 83/83/83 84/84/84
f 85/85/85 86/86/86 87/87/87
f 88/88/88 89/89/89 90/90/90
f 91/91/91 92/92/92 93/93/93
f 94/94/94 95/95/95 96/96/96
f 97/97/97 98/98/98 99/99/99
f 100/100/100 101/101/101 102/102/102
f 103/103/103 104/104/104 105/105/105
f 106/106/106 107/107/107 108/108/108
f 109/109/109 110/110/110 111/111/111
f 112/112/112 113/113/113 114/114/114
f 115/115/115 116/116/116 117/117/117
f 118/118/118 119/119/119 120/120/120
