mtllib ss_wall_s.mtl
o wall_fh
usemtl PDX01_-_Default
v -0.49999490654699086 1.4569229111075401 -0.2812284990739597
v 0.4999990998647753 1.4569229111075401 -0.28121049559404127
v -0.4999935002750052 1.4569229111075401 -0.4999804958405597
v 0.4999990998647753 1.4569229111075401 -0.28121049559404127
v 0.5000025197346938 1.4569229111075401 -0.4999914899981784
v -0.4999935002750052 1.4569229111075401 -0.4999804958405597
v 0.49999449999995704 0.10000000149011612 0.500005500000043
v 0.49999449999995704 -0.20000000298023224 0.500005500000043
v 0.5000025197346938 0.10000000149011612 -0.4999914899981784
v 0.49999449999995704 -0.20000000298023224 0.500005500000043
v 0.5000025197346938 -0.20000000298023224 -0.4999914899981784
v 0.5000025197346938 0.10000000149011612 -0.4999914899981784
v -0.4999945002750027 0.10000000149011612 -0.4999804958515597
v -0.4999945002750027 -0.20000000298023224 -0.4999804958515597
v -0.49999949992279175 0.10000000149011612 0.4999874965201959
v -0.4999945002750027 -0.20000000298023224 -0.4999804958515597
v -0.49999949992279175 -0.20000000298023224 0.4999874965201959
v -0.49999949992279175 0.10000000149011612 0.4999874965201959
v 0.5000025197346938 0.10000000149011612 -0.4999914899981784
v 0.5000025197346938 -0.20000000298023224 -0.4999914899981784
v -0.4999945002750027 0.10000000149011612 -0.4999804958515597
v 0.5000025197346938 -0.20000000298023224 -0.4999914899981784
v -0.4999945002750027 -0.20000000298023224 -0.4999804958515597
v -0.4999945002750027 0.10000000149011612 -0.4999804958515597
v -0.49999949992279175 0.10000000149011612 0.4999874965201959
v -0.49999949992279175 -0.20000000298023224 0.4999874965201959
v 0.49999449999995704 0.10000000149011612 0.500005500000043
v -0.49999949992279175 -0.20000000298023224 0.4999874965201959
v 0.49999449999995704 -0.20000000298023224 0.500005500000043
v 0.49999449999995704 0.10000000149011612 0.500005500000043
v -0.49999949992279175 0.10000000149011612 0.4999874965201959
v -0.49999639152300557 0.20000001043081284 0.03558749935325842
v -0.4999945002750027 0.10000000149011612 -0.4999804958515597
v 0.49999449999995704 0.10000000149011612 0.500005500000043
v 0.4999975818420842 0.20000001043081284 0.03560549910752306
v -0.49999949992279175 0.10000000149011612 0.4999874965201959
v -0.49999639152300557 0.20000001043081284 0.03558749935325842
v -0.49999949992279175 0.10000000149011612 0.4999874965201959
v 0.4999975818420842 0.20000001043081284 0.03560549910752306
v 0.4999975818420842 0.20000001043081284 0.03560549910752306
v 0.49999449999995704 0.10000000149011612 0.500005500000043
v 0.5000025197346938 0.10000000149011612 -0.4999914899981784
v -0.49999639152300557 0.20000001043081284 0.03558749935325842
v -0.4999959144330359 0.571007989346981 -0.18960249568936954
v -0.4999945002750027 0.10000000149011612 -0.4999804958515597
v 0.4999975818420842 0.20000001043081284 0.03560549910752306
v 0.4999980919788941 0.571007989346981 -0.18958450711061228
v -0.49999639152300557 0.20000001043081284 0.03558749935325842
v -0.4999959144330359 0.571007989346981 -0.18960249568936954
v -0.49999639152300557 0.20000001043081284 0.03558749935325842
v 0.4999980919788941 0.571007989346981 -0.18958450711061228
v 0.4999980919788941 0.571007989346981 -0.18958450711061228
v 0.4999975818420842 0.20000001043081284 0.03560549910752306
v 0.5000025197346938 0.10000000149011612 -0.4999914899981784
v -0.4999959144330359 0.571007989346981 -0.18960249568936954
v -0.4999959144330359 1.2710080370306969 -0.18960249568936954
v -0.4999945002750027 0.10000000149011612 -0.4999804958515597
v -0.4999935002750052 1.4569229111075401 -0.4999804958405597
v -0.4999945002750027 0.10000000149011612 -0.4999804958515597
v -0.4999959144330359 1.2710080370306969 -0.18960249568936954
v 0.49999219100451564 0.772959016263485 0.07593750348101387
v 0.49999219100451564 1.069057010114193 0.07593750348101387
v -0.5000018351750042 0.772959016263485 0.07591950000087797
v -0.5000018351750042 1.069057010114193 0.07591950000087797
v -0.5000018351750042 0.772959016263485 0.07591950000087797
v 0.49999219100451564 1.069057010114193 0.07593750348101387
v 0.5000025197346938 0.10000000149011612 -0.4999914899981784
v 0.5000025197346938 1.4569229111075401 -0.4999914899981784
v 0.4999980919788941 0.571007989346981 -0.18958450711061228
v 0.4999980919788941 1.2710080370306969 -0.18958450711061228
v 0.4999980919788941 0.571007989346981 -0.18958450711061228
v 0.5000025197346938 1.4569229111075401 -0.4999914899981784
v -0.4999945002750027 0.10000000149011612 -0.4999804958515597
v -0.4999935002750052 1.4569229111075401 -0.4999804958405597
v 0.5000025197346938 0.10000000149011612 -0.4999914899981784
v 0.5000025197346938 1.4569229111075401 -0.4999914899981784
v 0.5000025197346938 0.10000000149011612 -0.4999914899981784
v -0.4999935002750052 1.4569229111075401 -0.4999804958405597
v -0.4999959144330359 1.2710080370306969 -0.18960249568936954
v -0.49999490654699086 1.4569229111075401 -0.2812284990739597
v -0.4999935002750052 1.4569229111075401 -0.4999804958405597
v 0.4999980919788941 1.2710080370306969 -0.18958450711061228
v 0.4999990998647753 1.4569229111075401 -0.28121049559404127
v -0.4999959144330359 1.2710080370306969 -0.18960249568936954
v -0.49999490654699086 1.4569229111075401 -0.2812284990739597
v -0.4999959144330359 1.2710080370306969 -0.18960249568936954
v 0.4999990998647753 1.4569229111075401 -0.28121049559404127
v 0.4999990998647753 1.4569229111075401 -0.28121049559404127
v 0.4999980919788941 1.2710080370306969 -0.18958450711061228
v 0.5000025197346938 1.4569229111075401 -0.4999914899981784
v 0.4999980919788941 0.571007989346981 -0.18958450711061228
v 0.49999219100451564 0.772959016263485 0.07593750348101387
v -0.4999959144330359 0.571007989346981 -0.18960249568936954
v -0.5000018351750042 0.772959016263485 0.07591950000087797
v -0.4999959144330359 0.571007989346981 -0.18960249568936954
v 0.49999219100451564 0.772959016263485 0.07593750348101387
v -0.4999959144330359 0.571007989346981 -0.18960249568936954
v -0.5000018351750042 0.772959016263485 0.07591950000087797
v -0.4999959144330359 1.2710080370306969 -0.18960249568936954
v -0.5000018351750042 1.069057010114193 0.07591950000087797
v -0.4999959144330359 1.2710080370306969 -0.18960249568936954
v -0.5000018351750042 0.772959016263485 0.07591950000087797
v 0.4999980919788941 1.2710080370306969 -0.18958450711061228
v 0.49999219100451564 1.069057010114193 0.07593750348101387
v 0.4999980919788941 0.571007989346981 -0.18958450711061228
v 0.49999219100451564 0.772959016263485 0.07593750348101387
v 0.4999980919788941 0.571007989346981 -0.18958450711061228
v 0.49999219100451564 1.069057010114193 0.07593750348101387
v -0.4999959144330359 1.2710080370306969 -0.18960249568936954
v -0.5000018351750042 1.069057010114193 0.07591950000087797
v 0.4999980919788941 1.2710080370306969 -0.18958450711061228
v 0.49999219100451564 1.069057010114193 0.07593750348101387
v 0.4999980919788941 1.2710080370306969 -0.18958450711061228
v -0.5000018351750042 1.069057010114193 0.07591950000087797
vt 0.9886090159416199 0.26304298639297485
vt 0.8765869736671448 0.26304399967193604
vt 0.9885450005531311 0.27845799922943115
vt 0.8765869736671448 0.26304399967193604
vt 0.8765929937362671 0.2784600257873535
vt 0.9885450005531311 0.27845799922943115
vt 0.1293729990720749 0.84163498878479
vt 0.1293729990720749 0.817458987236023
vt 0.012264000251889229 0.8416340351104736
vt 0.1293729990720749 0.817458987236023
vt 0.012264000251889229 0.8174580335617065
vt 0.012264000251889229 0.8416340351104736
vt 0.012284999713301659 0.8416340351104736
vt 0.012284999713301659 0.817458987236023
vt 0.12936599552631378 0.84163498878479
vt 0.012284999713301659 0.817458987236023
vt 0.12936699390411377 0.8174600005149841
vt 0.12936599552631378 0.84163498878479
vt 0.12873899936676025 0.8394619822502136
vt 0.12873899936676025 0.8162679672241211
vt 0.013245999813079834 0.8394619822502136
vt 0.12873899936676025 0.8162679672241211
vt 0.013245999813079834 0.8162679672241211
vt 0.013245999813079834 0.8394619822502136
vt 0.013251000083982944 0.8394629955291748
vt 0.013251000083982944 0.8162689805030823
vt 0.12874199450016022 0.8394629955291748
vt 0.013251000083982944 0.8162689805030823
vt 0.12874199450016022 0.8162689805030823
vt 0.12874199450016022 0.8394629955291748
vt 0.746059000492096 0.02390998601913452
vt 0.7884920239448547 0.04143202304840088
vt 0.8669329881668091 0.02390998601913452
vt 0.8772429823875427 0.008143007755279541
vt 0.8769389986991882 0.081076979637146
vt 0.986473023891449 0.00814199447631836
vt 0.9865220189094543 0.08107602596282959
vt 0.986473023891449 0.00814199447631836
vt 0.8769389986991882 0.081076979637146
vt 0.7884899973869324 0.04143202304840088
vt 0.7460569739341736 0.02390998601913452
vt 0.866936981678009 0.02390998601913452
vt 0.7884920239448547 0.04143202304840088
vt 0.8183850049972534 0.10643798112869263
vt 0.8669329881668091 0.02390998601913452
vt 0.8769389986991882 0.081076979637146
vt 0.8772379755973816 0.12920701503753662
vt 0.9865220189094543 0.08107602596282959
vt 0.9858930110931396 0.12919700145721436
vt 0.9865220189094543 0.08107602596282959
vt 0.8772379755973816 0.12920701503753662
vt 0.8183839917182922 0.10643798112869263
vt 0.7884899973869324 0.04143202304840088
vt 0.866936981678009 0.02390998601913452
vt 0.8183850049972534 0.10643798112869263
vt 0.8183850049972534 0.22908997535705566
vt 0.8669329881668091 0.02390998601913452
vt 0.8669329881668091 0.2616649866104126
vt 0.8669329881668091 0.02390998601913452
vt 0.8183850049972534 0.22908997535705566
vt 0.8766739964485168 0.17455798387527466
vt 0.8766739964485168 0.20895302295684814
vt 0.9886320233345032 0.17455697059631348
vt 0.9885600209236145 0.20895200967788696
vt 0.9886320233345032 0.17455697059631348
vt 0.8766739964485168 0.20895302295684814
vt 0.866936981678009 0.02390998601913452
vt 0.866936981678009 0.2616649866104126
vt 0.8183839917182922 0.10643798112869263
vt 0.8183839917182922 0.22908997535705566
vt 0.8183839917182922 0.10643798112869263
vt 0.866936981678009 0.2616649866104126
vt 0.8630660176277161 0.021178007125854492
vt 0.8611890077590942 0.2689260244369507
vt 0.748104989528656 0.024935007095336914
vt 0.7499819993972778 0.26892900466918945
vt 0.748104989528656 0.024935007095336914
vt 0.8611890077590942 0.2689260244369507
vt 0.8183850049972534 0.22908997535705566
vt 0.8327170014381409 0.2616649866104126
vt 0.8669329881668091 0.2616649866104126
vt 0.8765599727630615 0.24635398387908936
vt 0.8765869736671448 0.26304399967193604
vt 0.9885550141334534 0.24652999639511108
vt 0.9886090159416199 0.26304298639297485
vt 0.9885550141334534 0.24652999639511108
vt 0.8765869736671448 0.26304399967193604
vt 0.8327159881591797 0.2616649866104126
vt 0.8183839917182922 0.22908997535705566
vt 0.866936981678009 0.2616649866104126
vt 0.8764600157737732 0.12920701503753662
vt 0.8766739964485168 0.1561579704284668
vt 0.9889259934425354 0.12919700145721436
vt 0.9886320233345032 0.1561570167541504
vt 0.9889259934425354 0.12919700145721436
vt 0.8766739964485168 0.1561579704284668
vt 0.8183850049972534 0.10643798112869263
vt 0.776852011680603 0.14182400703430176
vt 0.8183850049972534 0.22908997535705566
vt 0.776852011680603 0.1937050223350525
vt 0.8183850049972534 0.22908997535705566
vt 0.776852011680603 0.14182400703430176
vt 0.8183839917182922 0.22908997535705566
vt 0.7768509984016418 0.1937050223350525
vt 0.8183839917182922 0.10643798112869263
vt 0.7768509984016418 0.14182400703430176
vt 0.8183839917182922 0.10643798112869263
vt 0.7768509984016418 0.1937050223350525
vt 0.9885550141334534 0.24652999639511108
vt 0.9885600209236145 0.21092301607131958
vt 0.8765599727630615 0.24635398387908936
vt 0.8766739964485168 0.21092402935028076
vt 0.8765599727630615 0.24635398387908936
vt 0.9885600209236145 0.21092301607131958
vn 0 1 0
vn 0 1 0
vn 0 1 0
vn 0 1 0
vn 0 1 0
vn 0 1 0
vn 0.999999999968 0 0.00000799999997928131
vn 0.999999999968 0 0.00000799999997928131
vn 0.999999999968 0 0.00000799999997928131
vn 0.999999999968 0 0.00000799999997928131
vn 0.999999999968 0 0.00000799999997928131
vn 0.999999999968 0 0.00000799999997928131
vn -0.9999999999875001 0 -0.000004999999873296243
vn -0.9999999999875001 0 -0.000004999999873296243
vn -0.9999999999875001 0 -0.000004999999873296243
vn -0.9999999999875001 0 -0.000004999999873296243
vn -0.9999999999875001 0 -0.000004999999873296243
vn -0.9999999999875001 0 -0.000004999999873296243
vn -0.00001100000008253213 0 -0.9999999999395
vn -0.00001100000008253213 0 -0.9999999999395
vn -0.00001100000008253213 0 -0.9999999999395
vn -0.00001100000008253213 0 -0.9999999999395
vn -0.00001100000008253213 0 -0.9999999999395
vn -0.00001100000008253213 0 -0.9999999999395
vn -0.00001800000018045292 0 0.999999999838
vn -0.00001800000018045292 0 0.999999999838
vn -0.00001800000018045292 0 0.999999999838
vn -0.00001800000018045292 0 0.999999999838
vn -0.00001800000018045292 0 0.999999999838
vn -0.00001800000018045292 0 0.999999999838
vn -0.9999999999695001 0.0000060000002123721326 -0.0000049999998732062435
vn -0.9999999999695001 0.0000060000002123721326 -0.0000049999998732062435
vn -0.9999999999695001 0.0000060000002123721326 -0.0000049999998732062435
vn -0.000003315578183336787 0.9775923335896979 0.21050707659282086
vn -0.000003315578183336787 0.9775923335896979 0.21050707659282086
vn -0.000003315578183336787 0.9775923335896979 0.21050707659282086
vn -0.000003315578183336787 0.9775923335896979 0.21050707659282086
vn -0.000003315578183336787 0.9775923335896979 0.21050707659282086
vn -0.000003315578183336787 0.9775923335896979 0.21050707659282086
vn 0.9999999999360001 0.000007999999979993942 0.000007999999979025309
vn 0.9999999999360001 0.000007999999979993942 0.000007999999979025309
vn 0.9999999999360001 0.000007999999979993942 0.000007999999979025309
vn -0.9999999999695001 0.0000060000002123721326 -0.0000049999998732062435
vn -0.9999999999915001 -9.99999997510743e-7 -0.000003999999989558338
vn -0.9999999999695001 0.0000060000002123721326 -0.0000049999998732062435
vn -0.000015403391189402914 0.5188688983178732 0.8548538273419217
vn -0.000015403391189402914 0.5188688983178732 0.8548538273419217
vn -0.000015403391189402914 0.5188688983178732 0.8548538273419217
vn -0.000015403391189402914 0.5188688983178732 0.8548538273419217
vn -0.000015403391189402914 0.5188688983178732 0.8548538273419217
vn -0.000015403391189402914 0.5188688983178732 0.8548538273419217
vn 0.9999999999515001 0.000003999999990102972 0.000009000000090328891
vn 0.9999999999360001 0.000007999999979993942 0.000007999999979025309
vn 0.9999999999360001 0.000007999999979993942 0.000007999999979025309
vn -0.9999999999915001 -9.99999997510743e-7 -0.000003999999989558338
vn -0.9999999999820002 0 -0.000006000000211786499
vn -0.9999999999695001 0.0000060000002123721326 -0.0000049999998732062435
vn -0.9999999999820002 0 -0.000006000000211786499
vn -0.9999999999695001 0.0000060000002123721326 -0.0000049999998732062435
vn -0.9999999999820002 0 -0.000006000000211786499
vn -0.00001800000018045292 0 0.999999999838
vn -0.00001800000018045292 0 0.999999999838
vn -0.00001800000018045292 0 0.999999999838
vn -0.00001800000018045292 0 0.999999999838
vn -0.00001800000018045292 0 0.999999999838
vn -0.00001800000018045292 0 0.999999999838
vn 0.9999999998875001 0 0.000015000000074787346
vn 0.9999999998875001 0 0.000015000000074787346
vn 0.9999999999515001 0.000003999999990102972 0.000009000000090328891
vn 0.9999999998720002 0 0.000015999999958435252
vn 0.9999999999515001 0.000003999999990102972 0.000009000000090328891
vn 0.9999999998875001 0 0.000015000000074787346
vn -0.00001100000008253213 0 -0.9999999999395
vn -0.00001100000008253213 0 -0.9999999999395
vn -0.00001100000008253213 0 -0.9999999999395
vn -0.00001100000008253213 0 -0.9999999999395
vn -0.00001100000008253213 0 -0.9999999999395
vn -0.00001100000008253213 0 -0.9999999999395
vn -0.9999999999820002 0 -0.000006000000211786499
vn -0.9999999999815001 9.999999975227428e-7 -0.000006000000211783499
vn -0.9999999999820002 0 -0.000006000000211786499
vn -0.000015866802730639444 0.4420670052927574 0.8969820302434925
vn -0.000015866802730639444 0.4420670052927574 0.8969820302434925
vn -0.000015866802730639444 0.4420670052927574 0.8969820302434925
vn -0.000015866802730639444 0.4420670052927574 0.8969820302434925
vn -0.000015866802730639444 0.4420670052927574 0.8969820302434925
vn -0.000015866802730639444 0.4420670052927574 0.8969820302434925
vn 0.9999999998070002 0.000004999999873769377 0.000019000000063720823
vn 0.9999999998720002 0 0.000015999999958435252
vn 0.9999999998875001 0 0.000015000000074787346
vn -0.000010659128412245199 -0.7959402406765279 0.6053752003164434
vn -0.000010659128412245199 -0.7959402406765279 0.6053752003164434
vn -0.000010659128412245199 -0.7959402406765279 0.6053752003164434
vn -0.000010659128412245199 -0.7959402406765279 0.6053752003164434
vn -0.000010659128412245199 -0.7959402406765279 0.6053752003164434
vn -0.000010659128412245199 -0.7959402406765279 0.6053752003164434
vn -0.999999999712 0 -0.00002399999993592519
vn -0.999999999712 0 -0.00002399999993592519
vn -0.999999999712 0 -0.00002399999993592519
vn -0.9999999997355 0 -0.000023000000507316638
vn -0.999999999712 0 -0.00002399999993592519
vn -0.999999999712 0 -0.00002399999993592519
vn 0.9999999998720002 0 0.000015999999958435252
vn 0.9999999997355 0 0.000023000000507316638
vn 0.9999999997355 0 0.000023000000507316638
vn 0.999999999712 0 0.00002399999993592519
vn 0.9999999997355 0 0.000023000000507316638
vn 0.9999999997355 0 0.000023000000507316638
vn -0.000010659128412245199 0.7959402406765279 0.6053752003164434
vn -0.000010659128412245199 0.7959402406765279 0.6053752003164434
vn -0.000010659128412245199 0.7959402406765279 0.6053752003164434
vn -0.000010659128412245199 0.7959402406765279 0.6053752003164434
vn -0.000010659128412245199 0.7959402406765279 0.6053752003164434
vn -0.000010659128412245199 0.7959402406765279 0.6053752003164434
f 1/1/1 2/2/2 3/3/3
f 4/4/4 5/5/5 6/6/6
f 7/7/7 8/8/8 9/9/9
f 10/10/10 11/11/11 12/12/12
f 13/13/13 14/14/14 15/15/15
f 16/16/16 17/17/17 18/18/18
f 19/19/19 20/20/20 21/21/21
f 22/22/22 23/23/23 24/24/24
f 25/25/25 26/26/26 27/27/27
f 28/28/28 29/29/29 30/30/30
f 31/31/31 32/32/32 33/33/33
f 34/34/34 35/35/35 36/36/36
f 37/37/37 38/38/38 39/39/39
f 40/40/40 41/41/41 42/42/42
f 43/43/43 44/44/44 45/45/45
f 46/46/46 47/47/47 48/48/48
f 49/49/49 50/50/50 51/51/51
f 52/52/52 53/53/53 54/54/54
f 55/55/55 56/56/56 57/57/57
f 58/58/58 59/59/59 60/60/60
f 61/61/61 62/62/62 63/63/63
f 64/64/64 65/65/65 66/66/66
f 67/67/67 68/68/68 69/69/69
f 70/70/70 71/71/71 72/72/72
f 73/73/73 74/74/74 75/75/75
f 76/76/76 77/77/77 78/78/78
f 79/79/79 80/80/80 81/81/81
f 82/82/82 83/83/83 84/84/84
f 85/85/85 86/86/86 87/87/87
f 88/88/88 89/89/89 90/90/90
f 91/91/91 92/92/92 93/93/93
f 94/94/94 95/95/95 96/96/96
f 97/97/97 98/98/98 99/99/99
f 100/100/100 101/101/101 102/102/102
f 103/103/103 104/104/104 105/105/105
f 106/106/106 107/107/107 108/108/108
f 109/109/109 110/110/110 111/111/111
f 112/112/112 113/113/113 114/114/114
