mtllib static_ew.mtl
o tile_ew82
usemtl material
v 0.5 0.10034999996423721 -0.3499999940395355
v 0.5 0.10034999996423721 -0.5
v -0.5000010132789612 0.10034999996423721 -0.3499999940395355
v -0.5000010132789612 0.10034999996423721 -0.3499999940395355
v 0.5 0.10034999996423721 -0.5
v -0.5 0.10034999996423721 -0.5
v -0.5000010132789612 -0.1999479979276657 0.5
v 0.4999989867210388 -0.1999479979276657 0.5
v -0.5000010132789612 0.10034999996423721 0.5
v -0.5000010132789612 0.10034999996423721 0.5
v 0.4999989867210388 -0.1999479979276657 0.5
v 0.4999989867210388 0.10034999996423721 0.5
v 0.5 0.10034999996423721 -0.5
v 0.5 0.10034999996423721 -0.3499999940395355
v 0.5 -0.1999479979276657 -0.5
v 0.5 -0.1999479979276657 -0.5
v 0.5 0.10034999996423721 -0.3499999940395355
v 0.5 0.00005199999941396527 -0.30000001192092896
v -0.5 0.10034999996423721 -0.5
v 0.5 0.10034999996423721 -0.5
v -0.5000010132789612 -0.1999479979276657 -0.5
v -0.5000010132789612 -0.1999479979276657 -0.5
v 0.5 0.10034999996423721 -0.5
v 0.5 -0.1999479979276657 -0.5
v -0.5000010132789612 -0.1999479979276657 -0.5
v -0.5 0.00005199999941396527 -0.30000001192092896
v -0.5 0.10034999996423721 -0.5
v -0.5 0.10034999996423721 -0.5
v -0.5 0.00005199999941396527 -0.30000001192092896
v -0.5000010132789612 0.10034999996423721 -0.3499999940395355
v 0.4999989867210388 0.10034999996423721 0.3499999940395355
v 0.4999989867210388 0.00005199999941396527 0.30000001192092896
v -0.5000010132789612 0.10034999996423721 0.3499999940395355
v -0.5000010132789612 0.10034999996423721 0.3499999940395355
v 0.4999989867210388 0.00005199999941396527 0.30000001192092896
v -0.5000010132789612 0.00005199999941396527 0.30000001192092896
v 0.4999989867210388 0.10034999996423721 0.5
v 0.4999989867210388 0.10034999996423721 0.3499999940395355
v -0.5000010132789612 0.10034999996423721 0.5
v -0.5000010132789612 0.10034999996423721 0.5
v 0.4999989867210388 0.10034999996423721 0.3499999940395355
v -0.5000010132789612 0.10034999996423721 0.3499999940395355
v 0.4999989867210388 0.00005199999941396527 0.30000001192092896
v 0.4999989867210388 0.10034999996423721 0.3499999940395355
v 0.4999989867210388 -0.1999479979276657 0.5
v 0.4999989867210388 -0.1999479979276657 0.5
v 0.4999989867210388 0.10034999996423721 0.3499999940395355
v 0.4999989867210388 0.10034999996423721 0.5
v -0.5000010132789612 0.10034999996423721 0.3499999940395355
v -0.5000010132789612 0.00005199999941396527 0.30000001192092896
v -0.5000010132789612 0.10034999996423721 0.5
v -0.5000010132789612 0.10034999996423721 0.5
v -0.5000010132789612 0.00005199999941396527 0.30000001192092896
v -0.5000010132789612 -0.1999479979276657 0.5
v 0.4999989867210388 0.00005199999941396527 0.30000001192092896
v 0.5 0.00005199999941396527 -0.30000001192092896
v -0.5000010132789612 0.00005199999941396527 0.30000001192092896
v -0.5000010132789612 0.00005199999941396527 0.30000001192092896
v 0.5 0.00005199999941396527 -0.30000001192092896
v -0.5 0.00005199999941396527 -0.30000001192092896
v -0.5000010132789612 -0.1999479979276657 0.5
v -0.5000010132789612 0.00005199999941396527 0.30000001192092896
v -0.5000010132789612 -0.1999479979276657 -0.5
v -0.5000010132789612 -0.1999479979276657 -0.5
v -0.5000010132789612 0.00005199999941396527 0.30000001192092896
v -0.5 0.00005199999941396527 -0.30000001192092896
v 0.4999989867210388 0.00005199999941396527 0.30000001192092896
v 0.4999989867210388 -0.1999479979276657 0.5
v 0.5 0.00005199999941396527 -0.30000001192092896
v 0.5 0.00005199999941396527 -0.30000001192092896
v 0.4999989867210388 -0.1999479979276657 0.5
v 0.5 -0.1999479979276657 -0.5
v 0.5 0.00005199999941396527 -0.30000001192092896
v 0.5 0.10034999996423721 -0.3499999940395355
v -0.5 0.00005199999941396527 -0.30000001192092896
v -0.5 0.00005199999941396527 -0.30000001192092896
v 0.5 0.10034999996423721 -0.3499999940395355
v -0.5000010132789612 0.10034999996423721 -0.3499999940395355
vt 0.8585330247879028 1.350888967514038
vt 0.8585609793663025 1.364766001701355
vt 0.7647839784622192 1.3510819673538208
vt 0.7647839784622192 1.3510819673538208
vt 0.8585609793663025 1.364766001701355
vt 0.7648149728775024 1.3649519681930542
vt 0.7648559808731079 1.2521309852600098
vt 0.8586230278015137 1.2522640228271484
vt 0.7648149728775024 1.2604129314422607
vt 0.7648149728775024 1.2604129314422607
vt 0.8586230278015137 1.2522640228271484
vt 0.8585609793663025 1.2605990171432495
vt 0.8629599809646606 1.3555229902267456
vt 0.8585330247879028 1.350888967514038
vt 0.873212993144989 1.3410919904708862
vt 0.873212993144989 1.3410919904708862
vt 0.8585330247879028 1.350888967514038
vt 0.8605930209159851 1.3415560722351074
vt 0.7648149728775024 1.3649519681930542
vt 0.8585609793663025 1.364766001701355
vt 0.7648559808731079 1.3732329607009888
vt 0.7648559808731079 1.3732329607009888
vt 0.8585609793663025 1.364766001701355
vt 0.8586230278015137 1.3731000423431396
vt 0.7503610253334045 1.341488003730774
vt 0.7630370259284973 1.3415560722351074
vt 0.7614730000495911 1.3545520305633545
vt 0.7614730000495911 1.3545520305633545
vt 0.7630370259284973 1.3415560722351074
vt 0.7647839784622192 1.3510819673538208
vt 0.8585330247879028 1.2744760513305664
vt 0.8605930209159851 1.283810019493103
vt 0.7647839784622192 1.2742819786071777
vt 0.7647839784622192 1.2742819786071777
vt 0.8605930209159851 1.283810019493103
vt 0.7630370259284973 1.283810019493103
vt 0.8585609793663025 1.2605990171432495
vt 0.8585330247879028 1.2744760513305664
vt 0.7648149728775024 1.2604129314422607
vt 0.7648149728775024 1.2604129314422607
vt 0.8585330247879028 1.2744760513305664
vt 0.7647839784622192 1.2742819786071777
vt 0.8605930209159851 1.283810019493103
vt 0.8585330247879028 1.2744760513305664
vt 0.873212993144989 1.2839970588684082
vt 0.873212993144989 1.2839970588684082
vt 0.8585330247879028 1.2744760513305664
vt 0.8629599809646606 1.2698420286178589
vt 0.7647839784622192 1.2742819786071777
vt 0.7630370259284973 1.283810019493103
vt 0.7614730000495911 1.2708120346069336
vt 0.7614730000495911 1.2708120346069336
vt 0.7630370259284973 1.283810019493103
vt 0.7503610253334045 1.2836010456085205
vt 0.8605930209159851 1.283810019493103
vt 0.8605930209159851 1.3415560722351074
vt 0.7630370259284973 1.283810019493103
vt 0.7630370259284973 1.283810019493103
vt 0.8605930209159851 1.3415560722351074
vt 0.7630370259284973 1.3415560722351074
vt 0.7503610253334045 1.2836010456085205
vt 0.7630370259284973 1.283810019493103
vt 0.7503610253334045 1.341488003730774
vt 0.7503610253334045 1.341488003730774
vt 0.7630370259284973 1.283810019493103
vt 0.7630370259284973 1.3415560722351074
vt 0.8605930209159851 1.283810019493103
vt 0.873212993144989 1.2839970588684082
vt 0.8605930209159851 1.3415560722351074
vt 0.8605930209159851 1.3415560722351074
vt 0.873212993144989 1.2839970588684082
vt 0.873212993144989 1.3410919904708862
vt 0.8605930209159851 1.3415560722351074
vt 0.8585330247879028 1.350888967514038
vt 0.7630370259284973 1.3415560722351074
vt 0.7630370259284973 1.3415560722351074
vt 0.8585330247879028 1.350888967514038
vt 0.7647839784622192 1.3510819673538208
vn 0 1 0
vn 0 1 0
vn 0 1 0
vn 0 1 0
vn 0 1 0
vn 0 1 0
vn 0 9.999999974747427e-7 0.9999999999995
vn 0 9.999999974747427e-7 0.9999999999995
vn 0 9.999999974747427e-7 0.9999999999995
vn 0 9.999999974747427e-7 0.9999999999995
vn 0 9.999999974747427e-7 0.9999999999995
vn 0 9.999999974747427e-7 0.9999999999995
vn 1 0 0
vn 1 0 0
vn 1 0 0
vn 1 0 0
vn 1 0 0
vn 1 0 0
vn 0 0 -1
vn 0 0 -1
vn 0 0 -1
vn 0 0 -1
vn 0 0 -1
vn 0 9.999999974747427e-7 -0.9999999999995
vn -0.9999999999975 0.0000019999999949454854 9.999999974727427e-7
vn -0.9999999999975 0.0000019999999949454854 9.999999974727427e-7
vn -0.9999999999975 0.0000019999999949454854 9.999999974727427e-7
vn -0.9999999999135001 -0.000012999999852366819 -0.0000019999999947774857
vn -0.9999999999135001 -0.000012999999852366819 -0.0000019999999947774857
vn -0.9999999999135001 -0.000012999999852366819 -0.0000019999999947774857
vn 0 0.4461520797342003 -0.8949571619629889
vn 0 0.4461520797342003 -0.8949571619629889
vn 0 0.4461520797342003 -0.8949571619629889
vn 0 0.4461520797342003 -0.8949571619629889
vn 0 0.4461520797342003 -0.8949571619629889
vn 0 0.4461520797342003 -0.8949571619629889
vn 0 1 0
vn 0 1 0
vn 0 1 0
vn 0 1 0
vn 0 1 0
vn 0 1 0
vn 1 0 0
vn 1 0 0
vn 1 0 0
vn 1 0 0
vn 1 0 0
vn 1 0 0
vn -1 0 0
vn -1 0 0
vn -1 0 0
vn -1 0 0
vn -1 0 0
vn -1 0 0
vn 0 1 0
vn 0 1 0
vn 0 1 0
vn 0 1 0
vn 0 1 0
vn 0 1 0
vn -1 0 0
vn -1 0 0
vn -0.9999999999975 0.0000019999999949454854 9.999999974727427e-7
vn -0.9999999999975 0.0000019999999949454854 9.999999974727427e-7
vn -1 0 0
vn -0.9999999999975 0.0000019999999949454854 9.999999974727427e-7
vn 1 0 0
vn 1 0 0
vn 1 0 0
vn 1 0 0
vn 1 0 0
vn 1 0 0
vn 0 0.4461448751183948 0.8949607535560383
vn 0 0.4461448751183948 0.8949607535560383
vn 0 0.4461448751183948 0.8949607535560383
vn 0 0.4461448751183948 0.8949607535560383
vn 0 0.4461448751183948 0.8949607535560383
vn 0 0.4461440879679434 0.8949611459562097
f 1/1/1 2/2/2 3/3/3
f 4/4/4 5/5/5 6/6/6
f 7/7/7 8/8/8 9/9/9
f 10/10/10 11/11/11 12/12/12
f 13/13/13 14/14/14 15/15/15
f 16/16/16 17/17/17 18/18/18
f 19/19/19 20/20/20 21/21/21
f 22/22/22 23/23/23 24/24/24
f 25/25/25 26/26/26 27/27/27
f 28/28/28 29/29/29 30/30/30
f 31/31/31 32/32/32 33/33/33
f 34/34/34 35/35/35 36/36/36
f 37/37/37 38/38/38 39/39/39
f 40/40/40 41/41/41 42/42/42
f 43/43/43 44/44/44 45/45/45
f 46/46/46 47/47/47 48/48/48
f 49/49/49 50/50/50 51/51/51
f 52/52/52 53/53/53 54/54/54
f 55/55/55 56/56/56 57/57/57
f 58/58/58 59/59/59 60/60/60
f 61/61/61 62/62/62 63/63/63
f 64/64/64 65/65/65 66/66/66
f 67/67/67 68/68/68 69/69/69
f 70/70/70 71/71/71 72/72/72
f 73/73/73 74/74/74 75/75/75
f 76/76/76 77/77/77 78/78/78
