mtllib tile_boundary.mtl
o Unmerged_tile_boundary
usemtl material
v -0.5 -0.20000000298023224 0.5
v 0.5 -0.20000000298023224 0.5
v -0.5 0.10001599788665771 0.5
v -0.5 0.10001599788665771 0.5
v 0.5 -0.20000000298023224 0.5
v 0.5 0.10001599788665771 0.5
v -0.5 0.10001599788665771 0.5
v 0.5 0.10001599788665771 0.5
v -0.5 0.10001599788665771 -0.5
v -0.5 0.10001599788665771 -0.5
v 0.5 0.10001599788665771 0.5
v 0.5 0.10001599788665771 -0.5
v -0.5 0.10001599788665771 -0.5
v 0.5 0.10001599788665771 -0.5
v -0.5 -0.20000000298023224 -0.5
v -0.5 -0.20000000298023224 -0.5
v 0.5 0.10001599788665771 -0.5
v 0.5 -0.20000000298023224 -0.5
v 0.5 -0.20000000298023224 0.5
v 0.5 -0.20000000298023224 -0.5
v 0.5 0.10001599788665771 0.5
v 0.5 0.10001599788665771 0.5
v 0.5 -0.20000000298023224 -0.5
v 0.5 0.10001599788665771 -0.5
v -0.5 -0.20000000298023224 -0.5
v -0.5 -0.20000000298023224 0.5
v -0.5 0.10001599788665771 -0.5
v -0.5 0.10001599788665771 -0.5
v -0.5 -0.20000000298023224 0.5
v -0.5 0.10001599788665771 0.5
vt 0.13776500523090363 1.8752599954605103
vt 0.23736099898815155 1.8752599954605103
vt 0.13785700500011444 1.8874120712280273
vt 0.13785700500011444 1.8874120712280273
vt 0.23736099898815155 1.8752599954605103
vt 0.23726899921894073 1.8874120712280273
vt 0.13785700500011444 1.8874120712280273
vt 0.23726899921894073 1.8874120712280273
vt 0.13785700500011444 1.9855049848556519
vt 0.13785700500011444 1.9855049848556519
vt 0.23726899921894073 1.8874120712280273
vt 0.23726899921894073 1.9855049848556519
vt 0.13785700500011444 1.9855049848556519
vt 0.23726899921894073 1.9855049848556519
vt 0.13776500523090363 1.997657060623169
vt 0.13776500523090363 1.997657060623169
vt 0.23726899921894073 1.9855049848556519
vt 0.23736099898815155 1.997657060623169
vt 0.24958500266075134 1.8876090049743652
vt 0.24958500266075134 1.985306978225708
vt 0.23726899921894073 1.8874120712280273
vt 0.23726899921894073 1.8874120712280273
vt 0.24958500266075134 1.985306978225708
vt 0.23726899921894073 1.9855049848556519
vt 0.12554000318050385 1.985306978225708
vt 0.12554000318050385 1.8876090049743652
vt 0.13785700500011444 1.9855049848556519
vt 0.13785700500011444 1.9855049848556519
vt 0.12554000318050385 1.8876090049743652
vt 0.13785700500011444 1.8874120712280273
vn 0 0 1
vn 0 0 1
vn 0 0 1
vn 0 0 1
vn 0 0 1
vn 0 0 1
vn 0 1 0
vn 0 1 0
vn 0 1 0
vn 0 1 0
vn 0 1 0
vn 0 1 0
vn 0 0 -1
vn 0 0 -1
vn 0 0 -1
vn 0 0 -1
vn 0 0 -1
vn 0 0 -1
vn 1 0 0
vn 1 0 0
vn 1 0 0
vn 1 0 0
vn 1 0 0
vn 1 0 0
vn -1 0 0
vn -1 0 0
vn -1 0 0
vn -1 0 0
vn -1 0 0
vn -1 0 0
f 1/1/1 2/2/2 3/3/3
f 4/4/4 5/5/5 6/6/6
f 7/7/7 8/8/8 9/9/9
f 10/10/10 11/11/11 12/12/12
f 13/13/13 14/14/14 15/15/15
f 16/16/16 17/17/17 18/18/18
f 19/19/19 20/20/20 21/21/21
f 22/22/22 23/23/23 24/24/24
f 25/25/25 26/26/26 27/27/27
f 28/28/28 29/29/29 30/30/30
