# Modified by OBJRotate180 (Mesh rotated 180 degrees around Y-axis)
# Original file: console_e.obj
mtllib console_e.mtl
v -0.500000 -0.167873 -0.500000
v -0.500000 -0.167873 0.500000
v -0.500000 0.100000 -0.500000
v -0.500000 0.100000 -0.500000
v -0.500000 -0.167873 0.500000
v -0.500000 0.100000 0.500000
v -0.430411 0.632591 -0.177092
v -0.430411 0.632591 0.177092
v -0.163571 0.796021 -0.177092
v -0.163571 0.796021 -0.177092
v -0.430411 0.632591 0.177092
v -0.163571 0.796021 0.177092
v 0.500000 0.100000 -0.500000
v 0.500000 0.100000 0.500000
v 0.500000 -0.167873 -0.500000
v 0.500000 -0.167873 -0.500000
v 0.500000 0.100000 0.500000
v 0.500000 -0.167873 0.500000
v -0.500000 -0.167873 0.500000
v 0.500000 -0.167873 0.500000
v -0.500000 0.100000 0.500000
v -0.500000 0.100000 0.500000
v 0.500000 -0.167873 0.500000
v 0.500000 0.100000 0.500000
v 0.500000 -0.167873 -0.500000
v -0.500000 -0.167873 -0.500000
v 0.500000 0.100000 -0.500000
v 0.500000 0.100000 -0.500000
v -0.500000 -0.167873 -0.500000
v -0.500000 0.100000 -0.500000
v -0.500000 0.100000 -0.500000
v -0.500000 0.100000 0.500000
v -0.315113 0.100000 -0.168403
v -0.315113 0.100000 -0.168403
v -0.500000 0.100000 0.500000
v -0.315113 0.100000 0.168403
v -0.315113 0.100000 0.168403
v -0.500000 0.100000 0.500000
v -0.217845 0.100000 0.168403
v -0.500000 0.100000 0.500000
v 0.500000 0.100000 0.500000
v -0.217845 0.100000 0.168403
v 0.500000 0.100000 0.500000
v 0.500000 0.100000 -0.500000
v -0.217845 0.100000 0.168403
v -0.217845 0.100000 0.168403
v 0.500000 0.100000 -0.500000
v -0.217845 0.100000 -0.168403
v -0.315113 0.100000 -0.168403
v -0.217845 0.100000 -0.168403
v -0.500000 0.100000 -0.500000
v 0.500000 0.100000 -0.500000
v -0.500000 0.100000 -0.500000
v -0.217845 0.100000 -0.168403
v -0.315113 0.100000 -0.168403
v -0.315113 0.100000 0.168403
v -0.313303 0.632802 -0.123021
v -0.313303 0.632802 -0.123021
v -0.315113 0.100000 0.168403
v -0.313303 0.632802 0.123021
v -0.315113 0.100000 0.168403
v -0.217845 0.100000 0.168403
v -0.313303 0.632802 0.123021
v -0.313303 0.632802 0.123021
v -0.217845 0.100000 0.168403
v -0.241195 0.674909 0.123021
v -0.217845 0.100000 0.168403
v -0.217845 0.100000 -0.168403
v -0.241195 0.674909 0.123021
v -0.241195 0.674909 0.123021
v -0.217845 0.100000 -0.168403
v -0.241195 0.674909 -0.123021
v -0.315113 0.100000 -0.168403
v -0.313303 0.632802 -0.123021
v -0.217845 0.100000 -0.168403
v -0.217845 0.100000 -0.168403
v -0.313303 0.632802 -0.123021
v -0.241195 0.674909 -0.123021
v -0.313303 0.632802 -0.123021
v -0.313303 0.632802 0.123021
v -0.398560 0.580585 -0.177092
v -0.398560 0.580585 -0.177092
v -0.313303 0.632802 0.123021
v -0.398560 0.580585 0.177092
v -0.313303 0.632802 0.123021
v -0.241195 0.674909 0.123021
v -0.398560 0.580585 0.177092
v -0.398560 0.580585 0.177092
v -0.241195 0.674909 0.123021
v -0.131719 0.744015 0.177092
v -0.241195 0.674909 0.123021
v -0.241195 0.674909 -0.123021
v -0.131719 0.744015 0.177092
v -0.131719 0.744015 0.177092
v -0.241195 0.674909 -0.123021
v -0.131719 0.744015 -0.177092
v -0.313303 0.632802 -0.123021
v -0.398560 0.580585 -0.177092
v -0.241195 0.674909 -0.123021
v -0.241195 0.674909 -0.123021
v -0.398560 0.580585 -0.177092
v -0.131719 0.744015 -0.177092
v -0.398560 0.580585 -0.177092
v -0.398560 0.580585 0.177092
v -0.430411 0.632591 -0.177092
v -0.430411 0.632591 -0.177092
v -0.398560 0.580585 0.177092
v -0.430411 0.632591 0.177092
v -0.448104 0.550242 0.365732
v -0.311181 0.634102 0.365732
v -0.479955 0.602248 0.365732
v -0.479955 0.602248 0.365732
v -0.311181 0.634102 0.365732
v -0.343032 0.686108 0.365732
v -0.131719 0.744015 0.177092
v -0.131719 0.744015 -0.177092
v -0.163571 0.796021 0.177092
v -0.163571 0.796021 0.177092
v -0.131719 0.744015 -0.177092
v -0.163571 0.796021 -0.177092
v -0.311181 0.634102 -0.365732
v -0.448103 0.550242 -0.365732
v -0.343032 0.686108 -0.365732
v -0.343032 0.686108 -0.365732
v -0.448103 0.550242 -0.365732
v -0.479955 0.602248 -0.365732
v -0.131719 0.744015 0.177092
v -0.192200 0.706820 0.292147
v -0.398560 0.580585 0.177092
v -0.398560 0.580585 0.177092
v -0.192200 0.706820 0.292147
v -0.422532 0.565750 0.292147
v -0.131719 0.744015 0.177092
v -0.163571 0.796021 0.177092
v -0.192200 0.706820 0.292147
v -0.192200 0.706820 0.292147
v -0.163571 0.796021 0.177092
v -0.224188 0.759048 0.292147
v -0.163571 0.796021 0.177092
v -0.430411 0.632591 0.177092
v -0.224188 0.759048 0.292147
v -0.224188 0.759048 0.292147
v -0.430411 0.632591 0.177092
v -0.454520 0.617979 0.292147
v -0.430411 0.632591 0.177092
v -0.398560 0.580585 0.177092
v -0.454520 0.617979 0.292147
v -0.454520 0.617979 0.292147
v -0.398560 0.580585 0.177092
v -0.422532 0.565750 0.292147
v -0.131719 0.744015 -0.177092
v -0.398560 0.580585 -0.177092
v -0.191588 0.707195 -0.291490
v -0.191588 0.707195 -0.291490
v -0.398560 0.580585 -0.177092
v -0.422240 0.565929 -0.291490
v -0.398560 0.580585 -0.177092
v -0.430411 0.632591 -0.177092
v -0.422240 0.565929 -0.291490
v -0.422240 0.565929 -0.291490
v -0.430411 0.632591 -0.177092
v -0.454228 0.618157 -0.291490
v -0.163571 0.796021 -0.177092
v -0.223576 0.759423 -0.291490
v -0.430411 0.632591 -0.177092
v -0.430411 0.632591 -0.177092
v -0.223576 0.759423 -0.291490
v -0.454228 0.618157 -0.291490
v -0.163571 0.796021 -0.177092
v -0.131719 0.744015 -0.177092
v -0.223576 0.759423 -0.291490
v -0.223576 0.759423 -0.291490
v -0.131719 0.744015 -0.177092
v -0.191588 0.707195 -0.291490
v -0.192200 0.706820 0.292147
v -0.224188 0.759048 0.292147
v -0.311181 0.634102 0.365732
v -0.311181 0.634102 0.365732
v -0.224188 0.759048 0.292147
v -0.343032 0.686108 0.365732
v -0.192200 0.706820 0.292147
v -0.311181 0.634102 0.365732
v -0.422532 0.565750 0.292147
v -0.422532 0.565750 0.292147
v -0.311181 0.634102 0.365732
v -0.448104 0.550242 0.365732
v -0.454520 0.617979 0.292147
v -0.422532 0.565750 0.292147
v -0.479955 0.602248 0.365732
v -0.479955 0.602248 0.365732
v -0.422532 0.565750 0.292147
v -0.448104 0.550242 0.365732
v -0.224188 0.759048 0.292147
v -0.454520 0.617979 0.292147
v -0.343032 0.686108 0.365732
v -0.343032 0.686108 0.365732
v -0.454520 0.617979 0.292147
v -0.479955 0.602248 0.365732
v -0.223576 0.759423 -0.291490
v -0.343032 0.686108 -0.365732
v -0.454228 0.618157 -0.291490
v -0.454228 0.618157 -0.291490
v -0.343032 0.686108 -0.365732
v -0.479955 0.602248 -0.365732
v -0.422240 0.565929 -0.291490
v -0.454228 0.618157 -0.291490
v -0.448103 0.550242 -0.365732
v -0.448103 0.550242 -0.365732
v -0.454228 0.618157 -0.291490
v -0.479955 0.602248 -0.365732
v -0.191588 0.707195 -0.291490
v -0.422240 0.565929 -0.291490
v -0.311181 0.634102 -0.365732
v -0.311181 0.634102 -0.365732
v -0.422240 0.565929 -0.291490
v -0.448103 0.550242 -0.365732
v -0.223576 0.759423 -0.291490
v -0.191588 0.707195 -0.291490
v -0.343032 0.686108 -0.365732
v -0.343032 0.686108 -0.365732
v -0.191588 0.707195 -0.291490
v -0.311181 0.634102 -0.365732
vt 0.384474 1.376887
vt 0.490572 1.376888
vt 0.384474 1.384487
vt 0.384474 1.384487
vt 0.490572 1.376888
vt 0.490572 1.384487
vt 0.413356 1.542359
vt 0.469201 1.542460
vt 0.413486 1.582526
vt 0.413486 1.582526
vt 0.469201 1.542460
vt 0.469332 1.582627
vt 0.384474 1.490585
vt 0.490572 1.490585
vt 0.384474 1.498184
vt 0.384474 1.498184
vt 0.490572 1.490585
vt 0.490572 1.498184
vt 0.498204 1.384487
vt 0.498204 1.490584
vt 0.490572 1.384487
vt 0.490572 1.384487
vt 0.498204 1.490584
vt 0.490572 1.490585
vt 0.377323 1.490585
vt 0.377323 1.384487
vt 0.384474 1.490585
vt 0.384474 1.490585
vt 0.377323 1.384487
vt 0.384474 1.384487
vt 0.384474 1.384487
vt 0.490572 1.384487
vt 0.419656 1.399392
vt 0.419656 1.399392
vt 0.490572 1.384487
vt 0.455390 1.399392
vt 0.455390 1.399392
vt 0.490572 1.384487
vt 0.455390 1.409712
vt 0.490572 1.384487
vt 0.490572 1.490585
vt 0.455390 1.409712
vt 0.490572 1.490585
vt 0.384474 1.490585
vt 0.455390 1.409712
vt 0.455390 1.409712
vt 0.384474 1.490585
vt 0.419656 1.409712
vt 0.419656 1.399392
vt 0.419656 1.409712
vt 0.384474 1.384487
vt 0.384474 1.490585
vt 0.384474 1.384487
vt 0.419656 1.409712
vt 0.256530 1.303261
vt 0.282255 1.303314
vt 0.258918 1.372803
vt 0.258918 1.372803
vt 0.282255 1.303314
vt 0.279580 1.372856
vt 0.282255 1.303314
vt 0.285059 1.303322
vt 0.279580 1.372856
vt 0.279580 1.372856
vt 0.285059 1.303322
vt 0.289425 1.377267
vt 0.285059 1.303322
vt 0.320034 1.303335
vt 0.289425 1.377267
vt 0.289425 1.377267
vt 0.320034 1.303335
vt 0.315593 1.377280
vt 0.322838 1.303335
vt 0.322910 1.372877
vt 0.320034 1.303335
vt 0.320034 1.303335
vt 0.322910 1.372877
vt 0.315593 1.377280
vt 0.457288 1.589253
vt 0.426886 1.589450
vt 0.468470 1.584828
vt 0.468470 1.584828
vt 0.426886 1.589450
vt 0.412644 1.584344
vt 0.426886 1.589450
vt 0.426955 1.601235
vt 0.412644 1.584344
vt 0.412644 1.584344
vt 0.426955 1.601235
vt 0.412849 1.613200
vt 0.427115 1.601256
vt 0.454271 1.601428
vt 0.412788 1.613439
vt 0.412788 1.613439
vt 0.454271 1.601428
vt 0.468635 1.613795
vt 0.457373 1.589245
vt 0.468592 1.584766
vt 0.454271 1.601428
vt 0.454271 1.601428
vt 0.468592 1.584766
vt 0.468635 1.613795
vt 0.413314 1.529577
vt 0.469160 1.529678
vt 0.413356 1.542359
vt 0.413356 1.542359
vt 0.469160 1.529678
vt 0.469201 1.542460
vt 0.382988 1.575426
vt 0.383020 1.597133
vt 0.376252 1.571977
vt 0.376252 1.571977
vt 0.383020 1.597133
vt 0.376294 1.600496
vt 0.412788 1.613439
vt 0.468635 1.613795
vt 0.412802 1.622677
vt 0.412802 1.622677
vt 0.468635 1.613795
vt 0.468648 1.623032
vt 0.376942 1.561374
vt 0.376850 1.532854
vt 0.383669 1.560172
vt 0.383669 1.560172
vt 0.376850 1.532854
vt 0.383572 1.530135
vt 0.412788 1.613439
vt 0.394637 1.606717
vt 0.412745 1.584410
vt 0.412745 1.584410
vt 0.394637 1.606717
vt 0.394600 1.581660
vt 0.412788 1.613439
vt 0.412802 1.622677
vt 0.394637 1.606717
vt 0.394637 1.606717
vt 0.412802 1.622677
vt 0.394650 1.615994
vt 0.469332 1.582627
vt 0.469201 1.542460
vt 0.487444 1.573572
vt 0.487444 1.573572
vt 0.469201 1.542460
vt 0.487331 1.538901
vt 0.469201 1.542460
vt 0.469160 1.529678
vt 0.487331 1.538901
vt 0.487331 1.538901
vt 0.469160 1.529678
vt 0.487290 1.526064
vt 0.468635 1.613795
vt 0.468592 1.584766
vt 0.486663 1.607369
vt 0.486663 1.607369
vt 0.468592 1.584766
vt 0.486626 1.582277
vt 0.413314 1.529577
vt 0.413356 1.542359
vt 0.395264 1.525943
vt 0.395264 1.525943
vt 0.413356 1.542359
vt 0.395306 1.538779
vt 0.413486 1.582526
vt 0.395419 1.573498
vt 0.413356 1.542359
vt 0.413356 1.542359
vt 0.395419 1.573498
vt 0.395306 1.538779
vt 0.468648 1.623032
vt 0.468635 1.613795
vt 0.486677 1.616646
vt 0.486677 1.616646
vt 0.468635 1.613795
vt 0.486663 1.607369
vt 0.394637 1.606717
vt 0.394650 1.615994
vt 0.383020 1.597133
vt 0.383020 1.597133
vt 0.394650 1.615994
vt 0.383029 1.602964
vt 0.394637 1.606717
vt 0.383020 1.597133
vt 0.394600 1.581660
vt 0.394600 1.581660
vt 0.383020 1.597133
vt 0.382988 1.575426
vt 0.487331 1.538901
vt 0.487290 1.526064
vt 0.498921 1.535055
vt 0.498921 1.535055
vt 0.487290 1.526064
vt 0.498880 1.522274
vt 0.487444 1.573572
vt 0.487331 1.538901
vt 0.498988 1.555666
vt 0.498988 1.555666
vt 0.487331 1.538901
vt 0.498921 1.535055
vt 0.395419 1.573498
vt 0.383669 1.560172
vt 0.395306 1.538779
vt 0.395306 1.538779
vt 0.383669 1.560172
vt 0.383572 1.530135
vt 0.395264 1.525943
vt 0.395306 1.538779
vt 0.383546 1.522066
vt 0.383546 1.522066
vt 0.395306 1.538779
vt 0.383572 1.530135
vt 0.486663 1.607369
vt 0.486626 1.582277
vt 0.498350 1.594461
vt 0.498350 1.594461
vt 0.486626 1.582277
vt 0.498328 1.579565
vt 0.486677 1.616646
vt 0.486663 1.607369
vt 0.498364 1.603698
vt 0.498364 1.603698
vt 0.486663 1.607369
vt 0.498350 1.594461
vn -1.000000 0.000000 0.000000
vn -1.000000 0.000000 0.000000
vn -1.000000 0.000000 0.000000
vn -1.000000 0.000000 0.000000
vn -1.000000 0.000000 0.000000
vn -1.000000 0.000000 0.000000
vn -0.522287 0.852769 0.000572
vn -0.522287 0.852769 -0.000569
vn -0.522287 0.852769 0.000572
vn -0.522287 0.852769 0.000572
vn -0.522287 0.852769 -0.000569
vn -0.522287 0.852769 -0.000569
vn 1.000000 0.000000 0.000000
vn 1.000000 0.000000 0.000000
vn 1.000000 0.000000 0.000000
vn 1.000000 0.000000 0.000000
vn 1.000000 0.000000 0.000000
vn 1.000000 0.000000 0.000000
vn 0.000000 0.000000 1.000000
vn 0.000000 0.000000 1.000000
vn 0.000000 0.000000 1.000000
vn 0.000000 0.000000 1.000000
vn 0.000000 0.000000 1.000000
vn 0.000000 0.000000 1.000000
vn 0.000000 0.000000 -1.000000
vn 0.000000 0.000000 -1.000000
vn 0.000000 0.000000 -1.000000
vn 0.000000 0.000000 -1.000000
vn 0.000000 0.000000 -1.000000
vn 0.000000 0.000000 -1.000000
vn 0.014698 0.998866 0.045288
vn 0.014058 0.999774 -0.015948
vn 0.014698 0.998866 0.045288
vn 0.014698 0.998866 0.045288
vn 0.014058 0.999774 -0.015948
vn 0.014058 0.999774 -0.015948
vn 0.014058 0.999774 -0.015948
vn 0.014058 0.999774 -0.015948
vn -0.069449 0.997473 -0.015014
vn 0.014058 0.999774 -0.015948
vn -0.069449 0.997473 -0.015014
vn -0.069449 0.997473 -0.015014
vn -0.069449 0.997473 -0.015014
vn -0.072762 0.996112 0.049675
vn -0.069449 0.997473 -0.015014
vn -0.069449 0.997473 -0.015014
vn -0.072762 0.996112 0.049675
vn -0.072762 0.996112 0.049675
vn 0.014698 0.998866 0.045288
vn -0.072762 0.996112 0.049675
vn 0.014698 0.998866 0.045288
vn -0.072762 0.996112 0.049675
vn 0.014698 0.998866 0.045288
vn -0.072762 0.996112 0.049675
vn -0.999997 0.002585 -0.000190
vn -0.999997 0.002585 -0.000190
vn -0.999997 0.002585 -0.000190
vn -0.999997 0.002585 -0.000190
vn -0.999997 0.002585 -0.000190
vn -0.999997 0.002585 -0.000190
vn -0.016022 0.064450 0.997792
vn -0.016022 0.064450 0.997792
vn -0.016022 0.064450 0.997792
vn -0.016022 0.064450 0.997792
vn -0.016022 0.064450 0.997792
vn -0.016022 0.064450 0.997792
vn 0.999503 0.031436 -0.002313
vn 0.999503 0.031436 -0.002313
vn 0.999503 0.031436 -0.002313
vn 0.999503 0.031436 -0.002313
vn 0.999503 0.031436 -0.002313
vn 0.999503 0.031436 -0.002313
vn -0.015104 0.060758 -0.998038
vn -0.015104 0.060758 -0.998038
vn -0.015104 0.060758 -0.998038
vn -0.015104 0.060758 -0.998038
vn -0.015104 0.060758 -0.998038
vn -0.015104 0.060758 -0.998038
vn 0.520377 -0.853892 -0.008733
vn 0.520377 -0.853892 0.008733
vn 0.521018 -0.853528 -0.005447
vn 0.521018 -0.853528 -0.005447
vn 0.520377 -0.853892 0.008733
vn 0.521019 -0.853528 0.005449
vn 0.520377 -0.853892 0.008733
vn 0.526070 -0.850396 0.008805
vn 0.521019 -0.853528 0.005449
vn 0.521019 -0.853528 0.005449
vn 0.526070 -0.850396 0.008805
vn 0.524812 -0.851201 0.005479
vn 0.526070 -0.850396 0.008805
vn 0.526070 -0.850396 -0.008805
vn 0.524812 -0.851201 0.005479
vn 0.524812 -0.851201 0.005479
vn 0.526070 -0.850396 -0.008805
vn 0.524812 -0.851201 -0.005477
vn 0.520377 -0.853892 -0.008733
vn 0.521018 -0.853528 -0.005447
vn 0.526070 -0.850396 -0.008805
vn 0.526070 -0.850396 -0.008805
vn 0.521018 -0.853528 -0.005447
vn 0.524812 -0.851201 -0.005477
vn -0.846755 -0.518603 0.118562
vn -0.846682 -0.518555 -0.119293
vn -0.846755 -0.518603 0.118562
vn -0.846755 -0.518603 0.118562
vn -0.846682 -0.518555 -0.119293
vn -0.846682 -0.518555 -0.119293
vn 0.000000 0.000000 1.000000
vn 0.000000 0.000000 1.000000
vn 0.000000 0.000000 1.000000
vn 0.000000 0.000000 1.000000
vn 0.000000 0.000000 1.000000
vn 0.000000 0.000000 1.000000
vn 0.821827 0.503337 0.266932
vn 0.822037 0.503466 -0.266039
vn 0.821827 0.503337 0.266932
vn 0.821827 0.503337 0.266932
vn 0.822037 0.503466 -0.266039
vn 0.822037 0.503466 -0.266039
vn 0.000000 0.000000 -1.000000
vn 0.000000 0.000000 -1.000000
vn 0.000000 0.000000 -1.000000
vn 0.000000 0.000000 -1.000000
vn 0.000000 0.000000 -1.000000
vn 0.000000 0.000000 -1.000000
vn 0.524812 -0.851201 0.005479
vn 0.522288 -0.852768 -0.001136
vn 0.521019 -0.853528 0.005449
vn 0.521019 -0.853528 0.005449
vn 0.522288 -0.852768 -0.001136
vn 0.522288 -0.852768 -0.001136
vn 0.821827 0.503337 0.266932
vn 0.821827 0.503337 0.266932
vn 0.725707 0.444467 0.525166
vn 0.725707 0.444467 0.525166
vn 0.821827 0.503337 0.266932
vn 0.725707 0.444467 0.525166
vn -0.522287 0.852769 -0.000569
vn -0.522287 0.852769 -0.000569
vn -0.522287 0.852769 -0.001138
vn -0.522287 0.852769 -0.001138
vn -0.522287 0.852769 -0.000569
vn -0.522287 0.852769 -0.001138
vn -0.846682 -0.518555 -0.119293
vn -0.846682 -0.518555 -0.119293
vn -0.828272 -0.507278 -0.237981
vn -0.828272 -0.507278 -0.237981
vn -0.846682 -0.518555 -0.119293
vn -0.828272 -0.507278 -0.237981
vn 0.524812 -0.851201 -0.005477
vn 0.521018 -0.853528 -0.005447
vn 0.522288 -0.852768 0.001140
vn 0.522288 -0.852768 0.001140
vn 0.521018 -0.853528 -0.005447
vn 0.522288 -0.852768 0.001140
vn -0.846755 -0.518603 0.118562
vn -0.846755 -0.518603 0.118562
vn -0.828572 -0.507467 0.236529
vn -0.828572 -0.507467 0.236529
vn -0.846755 -0.518603 0.118562
vn -0.828572 -0.507467 0.236529
vn -0.522287 0.852769 0.000572
vn -0.522287 0.852769 0.001143
vn -0.522287 0.852769 0.000572
vn -0.522287 0.852769 0.000572
vn -0.522287 0.852769 0.001143
vn -0.522287 0.852769 0.001143
vn 0.822037 0.503466 -0.266039
vn 0.822037 0.503466 -0.266039
vn 0.726590 0.445009 -0.523482
vn 0.726590 0.445009 -0.523482
vn 0.822037 0.503466 -0.266039
vn 0.726590 0.445009 -0.523482
vn 0.397996 0.243757 0.884410
vn 0.397996 0.243757 0.884410
vn 0.397996 0.243757 0.884410
vn 0.397996 0.243757 0.884410
vn 0.397996 0.243757 0.884410
vn 0.397996 0.243757 0.884410
vn 0.522288 -0.852767 0.001782
vn 0.522288 -0.852767 0.001782
vn 0.522288 -0.852767 0.001782
vn 0.522288 -0.852767 0.001782
vn 0.522288 -0.852767 0.001782
vn 0.522288 -0.852767 0.001782
vn -0.790018 -0.483852 -0.376509
vn -0.790018 -0.483852 -0.376509
vn -0.790018 -0.483852 -0.376509
vn -0.790018 -0.483852 -0.376509
vn -0.790018 -0.483852 -0.376509
vn -0.790018 -0.483852 -0.376509
vn -0.522287 0.852768 0.001779
vn -0.522287 0.852768 0.001779
vn -0.522287 0.852768 0.001779
vn -0.522287 0.852768 0.001779
vn -0.522287 0.852768 0.001779
vn -0.522287 0.852768 0.001779
vn -0.522287 0.852768 -0.001761
vn -0.522287 0.852768 -0.001761
vn -0.522287 0.852768 -0.001761
vn -0.522287 0.852768 -0.001761
vn -0.522287 0.852768 -0.001761
vn -0.522287 0.852768 -0.001761
vn -0.789737 -0.483685 0.377312
vn -0.789737 -0.483685 0.377312
vn -0.789737 -0.483685 0.377312
vn -0.789737 -0.483685 0.377312
vn -0.789737 -0.483685 0.377312
vn -0.789737 -0.483685 0.377312
vn 0.522287 -0.852768 -0.001760
vn 0.522287 -0.852768 -0.001760
vn 0.522287 -0.852768 -0.001760
vn 0.522287 -0.852768 -0.001760
vn 0.522287 -0.852768 -0.001760
vn 0.522287 -0.852768 -0.001760
vn 0.399168 0.244474 -0.883684
vn 0.399168 0.244474 -0.883684
vn 0.399168 0.244474 -0.883684
vn 0.399168 0.244474 -0.883684
vn 0.399168 0.244474 -0.883684
vn 0.399168 0.244474 -0.883684
o console_w
o console_w
usemtl material
f 1/1/1 2/2/2 3/3/3
f 4/4/4 5/5/5 6/6/6
f 7/7/7 8/8/8 9/9/9
f 10/10/10 11/11/11 12/12/12
f 13/13/13 14/14/14 15/15/15
f 16/16/16 17/17/17 18/18/18
f 19/19/19 20/20/20 21/21/21
f 22/22/22 23/23/23 24/24/24
f 25/25/25 26/26/26 27/27/27
f 28/28/28 29/29/29 30/30/30
f 31/31/31 32/32/32 33/33/33
f 34/34/34 35/35/35 36/36/36
f 37/37/37 38/38/38 39/39/39
f 40/40/40 41/41/41 42/42/42
f 43/43/43 44/44/44 45/45/45
f 46/46/46 47/47/47 48/48/48
f 49/49/49 50/50/50 51/51/51
f 52/52/52 53/53/53 54/54/54
f 55/55/55 56/56/56 57/57/57
f 58/58/58 59/59/59 60/60/60
f 61/61/61 62/62/62 63/63/63
f 64/64/64 65/65/65 66/66/66
f 67/67/67 68/68/68 69/69/69
f 70/70/70 71/71/71 72/72/72
f 73/73/73 74/74/74 75/75/75
f 76/76/76 77/77/77 78/78/78
f 79/79/79 80/80/80 81/81/81
f 82/82/82 83/83/83 84/84/84
f 85/85/85 86/86/86 87/87/87
f 88/88/88 89/89/89 90/90/90
f 91/91/91 92/92/92 93/93/93
f 94/94/94 95/95/95 96/96/96
f 97/97/97 98/98/98 99/99/99
f 100/100/100 101/101/101 102/102/102
f 103/103/103 104/104/104 105/105/105
f 106/106/106 107/107/107 108/108/108
f 109/109/109 110/110/110 111/111/111
f 112/112/112 113/113/113 114/114/114
f 115/115/115 116/116/116 117/117/117
f 118/118/118 119/119/119 120/120/120
f 121/121/121 122/122/122 123/123/123
f 124/124/124 125/125/125 126/126/126
f 127/127/127 128/128/128 129/129/129
f 130/130/130 131/131/131 132/132/132
f 133/133/133 134/134/134 135/135/135
f 136/136/136 137/137/137 138/138/138
f 139/139/139 140/140/140 141/141/141
f 142/142/142 143/143/143 144/144/144
f 145/145/145 146/146/146 147/147/147
f 148/148/148 149/149/149 150/150/150
f 151/151/151 152/152/152 153/153/153
f 154/154/154 155/155/155 156/156/156
f 157/157/157 158/158/158 159/159/159
f 160/160/160 161/161/161 162/162/162
f 163/163/163 164/164/164 165/165/165
f 166/166/166 167/167/167 168/168/168
f 169/169/169 170/170/170 171/171/171
f 172/172/172 173/173/173 174/174/174
f 175/175/175 176/176/176 177/177/177
f 178/178/178 179/179/179 180/180/180
f 181/181/181 182/182/182 183/183/183
f 184/184/184 185/185/185 186/186/186
f 187/187/187 188/188/188 189/189/189
f 190/190/190 191/191/191 192/192/192
f 193/193/193 194/194/194 195/195/195
f 196/196/196 197/197/197 198/198/198
f 199/199/199 200/200/200 201/201/201
f 202/202/202 203/203/203 204/204/204
f 205/205/205 206/206/206 207/207/207
f 208/208/208 209/209/209 210/210/210
f 211/211/211 212/212/212 213/213/213
f 214/214/214 215/215/215 216/216/216
f 217/217/217 218/218/218 219/219/219
f 220/220/220 221/221/221 222/222/222
