# Modified by OBJRotate180 (Mesh rotated 180 degrees around Y-axis)
# Original file: jun_boundary_grass_earth_corner_sw.obj
mtllib jun_boundary_grass_earth_corner_sw.mtl
v 0.500000 -0.200000 -0.500001
v -0.500001 -0.200000 -0.500000
v 0.500000 0.195000 -0.500009
v -0.500001 0.195000 -0.500008
v 0.500000 0.195000 -0.500009
v -0.500001 -0.200000 -0.500000
v 0.500001 0.195000 0.500000
v -0.500000 0.195000 0.500001
v 0.500001 -0.200000 0.500000
v -0.500000 -0.200000 0.500001
v 0.500001 -0.200000 0.500000
v -0.500000 0.195000 0.500001
v -0.500000 0.195000 0.500001
v 0.500001 0.195000 0.500000
v -0.500001 0.195000 -0.500008
v 0.500000 0.195000 -0.500009
v -0.500001 0.195000 -0.500008
v 0.500001 0.195000 0.500000
v 0.500001 -0.200000 0.500000
v 0.500000 -0.200000 -0.500001
v 0.500001 0.195000 0.500000
v 0.500000 0.195000 -0.500009
v 0.500001 0.195000 0.500000
v 0.500000 -0.200000 -0.500001
v -0.500001 -0.200000 -0.500000
v -0.500000 -0.200000 0.500001
v -0.500001 0.195000 -0.500008
v -0.500000 0.195000 0.500001
v -0.500001 0.195000 -0.500008
v -0.500000 -0.200000 0.500001
vt 0.128073 0.706740
vt 0.013106 0.706740
vt 0.128073 0.737135
vt 0.013106 0.737135
vt 0.128073 0.737135
vt 0.013106 0.706740
vt 0.128073 0.737135
vt 0.013106 0.737135
vt 0.128073 0.706740
vt 0.013106 0.706740
vt 0.128073 0.706740
vt 0.013106 0.737135
vt 0.676500 0.694704
vt 0.676500 0.575877
vt 0.792239 0.694704
vt 0.792239 0.575877
vt 0.792239 0.694704
vt 0.676500 0.575877
vt 0.012967 0.706753
vt 0.128046 0.706753
vt 0.012950 0.736864
vt 0.128063 0.736864
vt 0.012950 0.736864
vt 0.128046 0.706753
vt 0.128046 0.706753
vt 0.012967 0.706753
vt 0.128063 0.736864
vt 0.012950 0.736864
vt 0.128063 0.736864
vt 0.012967 0.706753
vn -0.000001 -0.000019 -1.000000
vn -0.000001 -0.000019 -1.000000
vn -0.000001 -0.000019 -1.000000
vn -0.000001 -0.000019 -1.000000
vn -0.000001 -0.000019 -1.000000
vn -0.000001 -0.000019 -1.000000
vn 0.000001 0.000000 1.000000
vn 0.000001 0.000000 1.000000
vn 0.000001 0.000000 1.000000
vn 0.000001 0.000000 1.000000
vn 0.000001 0.000000 1.000000
vn 0.000001 0.000000 1.000000
vn 0.000000 1.000000 0.000000
vn 0.000000 1.000000 0.000000
vn 0.000000 1.000000 0.000000
vn 0.000000 1.000000 0.000000
vn 0.000000 1.000000 0.000000
vn 0.000000 1.000000 0.000000
vn 1.000000 0.000000 -0.000001
vn 1.000000 0.000000 -0.000001
vn 1.000000 0.000000 -0.000001
vn 1.000000 0.000000 -0.000001
vn 1.000000 0.000000 -0.000001
vn 1.000000 0.000000 -0.000001
vn -1.000000 0.000000 0.000001
vn -1.000000 0.000000 0.000001
vn -1.000000 0.000000 0.000001
vn -1.000000 0.000000 0.000001
vn -1.000000 0.000000 0.000001
vn -1.000000 0.000000 0.000001
o blend_corner_grass_earth
o blend_corner_grass_earth
usemtl PDX01_-_Default
f 1/1/1 2/2/2 3/3/3
f 4/4/4 5/5/5 6/6/6
f 7/7/7 8/8/8 9/9/9
f 10/10/10 11/11/11 12/12/12
f 13/13/13 14/14/14 15/15/15
f 16/16/16 17/17/17 18/18/18
f 19/19/19 20/20/20 21/21/21
f 22/22/22 23/23/23 24/24/24
f 25/25/25 26/26/26 27/27/27
f 28/28/28 29/29/29 30/30/30
