# Modified by OBJRotate180 (Mesh rotated 180 degrees around Y-axis)
# Original file: med_tile_w_boundary_edge.obj
mtllib med_tile_w_boundary_edge.mtl
v 0.499997 -0.200000 0.500000
v 0.499997 -0.200000 -0.500000
v 0.499997 0.145000 0.500000
v 0.499997 0.145000 -0.500000
v 0.499997 0.145000 0.500000
v 0.499997 -0.200000 -0.500000
v -0.000006 0.145000 -0.500000
v 0.499997 0.145000 -0.500000
v 0.000001 -0.200000 -0.500000
v 0.499997 -0.200000 -0.500000
v 0.000001 -0.200000 -0.500000
v 0.499997 0.145000 -0.500000
v 0.499997 0.145000 0.500000
v 0.499997 0.145000 -0.500000
v 0.000013 0.145000 0.500000
v 0.499997 0.145000 -0.500000
v -0.000006 0.145000 -0.500000
v 0.000013 0.145000 0.500000
v 0.499997 0.145000 0.500000
v 0.000013 0.145000 0.500000
v 0.499997 -0.200000 0.500000
v 0.000013 -0.200000 0.500000
v 0.499997 -0.200000 0.500000
v 0.000013 0.145000 0.500000
v -0.000006 0.145000 -0.500000
v 0.000001 -0.200000 -0.500000
v 0.000013 0.145000 0.500000
v 0.000001 -0.200000 -0.500000
v 0.000013 -0.200000 0.500000
v 0.000013 0.145000 0.500000
vt 0.448705 0.649013
vt 0.621615 0.649013
vt 0.448705 0.707267
vt 0.621615 0.707267
vt 0.448705 0.707267
vt 0.621615 0.649013
vt 0.621374 0.706859
vt 0.449337 0.706859
vt 0.621345 0.647325
vt 0.449365 0.647325
vt 0.621345 0.647325
vt 0.449337 0.706859
vt 0.701615 0.986801
vt 0.701615 0.866986
vt 0.761520 0.986801
vt 0.701615 0.866986
vt 0.761789 0.867092
vt 0.761520 0.986801
vt 0.672906 0.706859
vt 0.590067 0.706859
vt 0.672878 0.647325
vt 0.590072 0.647325
vt 0.672878 0.647325
vt 0.590067 0.706859
vt 0.451387 0.647066
vt 0.451387 0.706812
vt 0.622912 0.647066
vt 0.451387 0.706812
vt 0.622912 0.706811
vt 0.622912 0.647066
vn 1.000000 0.000000 0.000000
vn 1.000000 0.000000 0.000000
vn 1.000000 0.000000 0.000000
vn 1.000000 0.000000 0.000000
vn 1.000000 0.000000 0.000000
vn 1.000000 0.000000 0.000000
vn 0.000000 0.000000 -1.000000
vn 0.000000 0.000000 -1.000000
vn 0.000000 0.000000 -1.000000
vn -0.000001 0.000000 -1.000000
vn 0.000000 0.000000 -1.000000
vn 0.000000 0.000000 -1.000000
vn 0.000000 1.000000 0.000000
vn 0.000000 1.000000 0.000000
vn 0.000000 1.000000 0.000000
vn 0.000000 1.000000 0.000000
vn 0.000000 1.000000 0.000000
vn 0.000000 1.000000 0.000000
vn 0.000000 0.000000 1.000000
vn 0.000000 0.000000 1.000000
vn 0.000000 0.000000 1.000000
vn 0.000000 0.000000 1.000000
vn 0.000000 0.000000 1.000000
vn 0.000000 0.000000 1.000000
vn -1.000000 -0.000022 0.000019
vn -1.000000 -0.000022 0.000019
vn -1.000000 -0.000022 0.000019
vn -1.000000 0.000000 0.000012
vn -1.000000 0.000000 0.000012
vn -1.000000 0.000000 0.000012
o tile_boundary_edge
o tile_boundary_edge
usemtl PDX08_-_Default
f 1/1/1 2/2/2 3/3/3
f 4/4/4 5/5/5 6/6/6
f 7/7/7 8/8/8 9/9/9
f 10/10/10 11/11/11 12/12/12
f 13/13/13 14/14/14 15/15/15
f 16/16/16 17/17/17 18/18/18
f 19/19/19 20/20/20 21/21/21
f 22/22/22 23/23/23 24/24/24
f 25/25/25 26/26/26 27/27/27
f 28/28/28 29/29/29 30/30/30
