# Modified by OBJRotate180 (Mesh rotated 180 degrees around Y-axis)
# Original file: med_tile_ew.obj
mtllib med_tile_ew.mtl
v -0.499999 -0.200000 0.500000
v 0.500001 -0.200000 0.500000
v -0.499999 0.145005 0.500008
v 0.500001 0.145005 0.500008
v -0.499999 0.145005 0.500008
v 0.500001 -0.200000 0.500000
v -0.500000 0.145005 -0.499999
v 0.500000 0.145005 -0.500000
v -0.500000 -0.200000 -0.500000
v 0.500000 -0.200000 -0.500000
v -0.500000 -0.200000 -0.500000
v 0.500000 0.145005 -0.500000
v 0.500001 0.000000 -0.333933
v -0.499999 0.000000 -0.333933
v 0.500000 0.000000 0.333933
v -0.500000 0.000000 0.333933
v 0.500000 0.000000 0.333933
v -0.499999 0.000000 -0.333933
v -0.500000 0.000000 0.333933
v -0.499999 -0.200000 0.500000
v -0.499999 0.145005 0.500008
v -0.500000 -0.200000 -0.500000
v -0.499999 -0.200000 0.500000
v -0.499999 0.000000 -0.333933
v -0.500000 0.000000 0.333933
v -0.499999 0.000000 -0.333933
v -0.499999 -0.200000 0.500000
v -0.500000 0.145005 -0.499999
v -0.500000 -0.200000 -0.500000
v -0.499999 0.000000 -0.333933
v 0.500001 0.145005 0.500008
v 0.500001 -0.200000 0.500000
v 0.500000 0.000000 0.333933
v 0.500001 0.000000 -0.333933
v 0.500000 -0.200000 -0.500000
v 0.500000 0.145005 -0.500000
v 0.500001 -0.200000 0.500000
v 0.500000 -0.200000 -0.500000
v 0.500000 0.000000 0.333933
v 0.500001 0.000000 -0.333933
v 0.500000 0.000000 0.333933
v 0.500000 -0.200000 -0.500000
v 0.500000 0.000000 0.333933
v 0.500000 0.145005 0.385825
v 0.500001 0.145005 0.500008
v -0.500000 0.000000 0.333933
v -0.500000 0.145005 0.385826
v 0.500000 0.000000 0.333933
v 0.500000 0.145005 0.385825
v 0.500000 0.000000 0.333933
v -0.500000 0.145005 0.385826
v -0.499999 0.145005 0.500008
v -0.500000 0.145005 0.385826
v -0.500000 0.000000 0.333933
v -0.499999 0.000000 -0.333933
v -0.500000 0.145005 -0.385817
v -0.500000 0.145005 -0.499999
v 0.500001 0.000000 -0.333933
v 0.500000 0.145005 -0.385818
v -0.499999 0.000000 -0.333933
v -0.500000 0.145005 -0.385817
v -0.499999 0.000000 -0.333933
v 0.500000 0.145005 -0.385818
v 0.500000 0.145005 -0.500000
v 0.500000 0.145005 -0.385818
v 0.500001 0.000000 -0.333933
v -0.500000 0.145005 -0.385817
v 0.500000 0.145005 -0.385818
v -0.500000 0.145005 -0.499999
v 0.500000 0.145005 -0.385818
v 0.500000 0.145005 -0.500000
v -0.500000 0.145005 -0.499999
v 0.500000 0.145005 0.385825
v -0.500000 0.145005 0.385826
v -0.499999 0.145005 0.500008
v 0.500001 0.145005 0.500008
v 0.500000 0.145005 0.385825
v -0.499999 0.145005 0.500008
vt 0.373009 0.774684
vt 0.192266 0.774684
vt 0.373009 0.812206
vt 0.192266 0.812206
vt 0.373009 0.812206
vt 0.192266 0.774684
vt 0.373009 0.812206
vt 0.192266 0.812206
vt 0.373009 0.774684
vt 0.192266 0.774684
vt 0.373009 0.774684
vt 0.192266 0.812206
vt 0.114503 0.987404
vt 0.114503 0.864701
vt 0.189335 0.987404
vt 0.189335 0.864701
vt 0.189335 0.987404
vt 0.114503 0.864701
vt 0.526318 0.790309
vt 0.546143 0.771348
vt 0.546143 0.799790
vt 0.411990 0.771348
vt 0.546143 0.771348
vt 0.431816 0.790309
vt 0.526318 0.790309
vt 0.431816 0.790309
vt 0.546143 0.771348
vt 0.411990 0.799790
vt 0.411990 0.771348
vt 0.431816 0.790309
vt 0.546143 0.799790
vt 0.546143 0.771348
vt 0.526318 0.790309
vt 0.431816 0.790309
vt 0.411990 0.771348
vt 0.411990 0.799790
vt 0.546143 0.771348
vt 0.411990 0.771348
vt 0.526318 0.790309
vt 0.431816 0.790309
vt 0.526318 0.790309
vt 0.411990 0.771348
vt 0.526318 0.790309
vt 0.530825 0.799790
vt 0.546143 0.799790
vt 0.011962 0.773184
vt 0.011962 0.803169
vt 0.173227 0.773184
vt 0.173227 0.803169
vt 0.173227 0.773184
vt 0.011962 0.803169
vt 0.546143 0.799790
vt 0.530825 0.799790
vt 0.526318 0.790309
vt 0.431816 0.790309
vt 0.427308 0.799790
vt 0.411990 0.799790
vt 0.011961 0.773215
vt 0.011961 0.803142
vt 0.173263 0.773215
vt 0.173263 0.803142
vt 0.173263 0.773215
vt 0.011961 0.803142
vt 0.411990 0.799790
vt 0.427308 0.799790
vt 0.431816 0.790309
vt 0.380210 0.867486
vt 0.380135 0.981536
vt 0.356755 0.867486
vt 0.380135 0.981536
vt 0.356740 0.981536
vt 0.356755 0.867486
vt 0.380135 0.981536
vt 0.380210 0.867486
vt 0.356755 0.867486
vt 0.356740 0.981536
vt 0.380135 0.981536
vt 0.356755 0.867486
vn 0.000000 -0.000022 1.000000
vn 0.000000 -0.000022 1.000000
vn 0.000000 -0.000022 1.000000
vn 0.000000 -0.000022 1.000000
vn 0.000000 -0.000022 1.000000
vn 0.000000 -0.000022 1.000000
vn 0.000000 0.000000 -1.000000
vn 0.000000 0.000000 -1.000000
vn 0.000000 0.000000 -1.000000
vn 0.000000 0.000000 -1.000000
vn 0.000000 0.000000 -1.000000
vn 0.000000 0.000000 -1.000000
vn 0.000000 1.000000 0.000000
vn 0.000000 1.000000 0.000000
vn 0.000000 1.000000 0.000000
vn 0.000000 1.000000 0.000000
vn 0.000000 1.000000 0.000000
vn 0.000000 1.000000 0.000000
vn -1.000000 0.000000 0.000001
vn -1.000000 0.000000 0.000001
vn -1.000000 0.000000 0.000001
vn -1.000000 0.000000 0.000000
vn -1.000000 0.000000 0.000001
vn -1.000000 0.000000 0.000000
vn -1.000000 0.000000 0.000001
vn -1.000000 0.000000 0.000000
vn -1.000000 0.000000 0.000001
vn -1.000000 0.000000 0.000001
vn -1.000000 0.000000 0.000000
vn -1.000000 0.000000 0.000000
vn 1.000000 0.000000 -0.000001
vn 1.000000 0.000000 -0.000001
vn 1.000000 0.000000 -0.000001
vn 1.000000 0.000000 -0.000001
vn 1.000000 0.000000 -0.000001
vn 1.000000 0.000000 -0.000001
vn 1.000000 0.000000 -0.000001
vn 1.000000 0.000000 -0.000001
vn 1.000000 0.000000 -0.000001
vn 1.000000 0.000000 -0.000001
vn 1.000000 0.000000 -0.000001
vn 1.000000 0.000000 -0.000001
vn 1.000000 0.000000 -0.000001
vn 1.000000 -0.000001 0.000000
vn 1.000000 0.000000 -0.000001
vn 0.000000 0.336938 -0.941527
vn 0.000000 0.336938 -0.941527
vn 0.000000 0.336938 -0.941527
vn 0.000000 0.336938 -0.941527
vn 0.000000 0.336938 -0.941527
vn 0.000000 0.336938 -0.941527
vn -1.000000 0.000000 0.000001
vn -1.000000 0.000001 0.000000
vn -1.000000 0.000000 0.000001
vn -1.000000 0.000000 0.000000
vn -1.000000 -0.000001 0.000000
vn -1.000000 0.000000 0.000001
vn 0.000000 0.336894 0.941543
vn 0.000000 0.336894 0.941543
vn 0.000000 0.336894 0.941543
vn 0.000000 0.336894 0.941543
vn 0.000000 0.336894 0.941543
vn 0.000000 0.336894 0.941543
vn 1.000000 0.000000 -0.000001
vn 1.000000 0.000001 0.000000
vn 1.000000 0.000000 -0.000001
vn 0.000000 1.000000 0.000000
vn 0.000000 1.000000 0.000000
vn 0.000000 1.000000 0.000000
vn 0.000000 1.000000 0.000000
vn 0.000000 1.000000 0.000000
vn 0.000000 1.000000 0.000000
vn 0.000000 1.000000 0.000000
vn 0.000000 1.000000 0.000000
vn 0.000000 1.000000 0.000000
vn 0.000000 1.000000 0.000000
vn 0.000000 1.000000 0.000000
vn 0.000000 1.000000 0.000000
o straight
o straight
usemtl PDX08_-_Default
f 1/1/1 2/2/2 3/3/3
f 4/4/4 5/5/5 6/6/6
f 7/7/7 8/8/8 9/9/9
f 10/10/10 11/11/11 12/12/12
f 13/13/13 14/14/14 15/15/15
f 16/16/16 17/17/17 18/18/18
f 19/19/19 20/20/20 21/21/21
f 22/22/22 23/23/23 24/24/24
f 25/25/25 26/26/26 27/27/27
f 28/28/28 29/29/29 30/30/30
f 31/31/31 32/32/32 33/33/33
f 34/34/34 35/35/35 36/36/36
f 37/37/37 38/38/38 39/39/39
f 40/40/40 41/41/41 42/42/42
f 43/43/43 44/44/44 45/45/45
f 46/46/46 47/47/47 48/48/48
f 49/49/49 50/50/50 51/51/51
f 52/52/52 53/53/53 54/54/54
f 55/55/55 56/56/56 57/57/57
f 58/58/58 59/59/59 60/60/60
f 61/61/61 62/62/62 63/63/63
f 64/64/64 65/65/65 66/66/66
f 67/67/67 68/68/68 69/69/69
f 70/70/70 71/71/71 72/72/72
f 73/73/73 74/74/74 75/75/75
f 76/76/76 77/77/77 78/78/78
