# Modified by OBJRotate180 (Mesh rotated 180 degrees around Y-axis)
# Original file: tile_nw.obj
mtllib tile_nw.mtl
v -0.500000 0.100475 0.500000
v -0.500000 -0.200074 0.500000
v -0.297959 -0.000074 0.500000
v -0.500000 0.100475 -0.500000
v -0.500000 0.100475 0.001035
v -0.235570 0.100475 -0.233045
v -0.235570 0.100475 -0.233045
v -0.500000 0.100475 0.001035
v -0.351153 0.100475 0.001035
v 0.499999 0.100475 -0.500000
v 0.499999 -0.000074 -0.299709
v 0.499999 -0.200845 -0.500000
v -0.297959 -0.000074 0.500000
v -0.351153 0.100475 0.500000
v -0.500000 0.100475 0.500000
v 0.499999 -0.200074 -0.500000
v 0.499999 0.100475 -0.500000
v 0.499999 -0.200845 -0.500000
v 0.499999 -0.000074 -0.299709
v 0.499999 0.100475 -0.500000
v 0.499999 0.100475 -0.350856
v -0.297959 -0.000074 0.500000
v -0.500000 -0.200074 0.500000
v 0.299999 -0.000074 0.500000
v -0.500000 -0.200074 0.500000
v 0.499999 -0.200074 0.500000
v 0.299999 -0.000074 0.500000
v 0.000739 0.100475 -0.350856
v -0.235570 0.100475 -0.233045
v 0.000739 -0.000074 -0.299709
v 0.000739 -0.000074 -0.299709
v -0.235570 0.100475 -0.233045
v -0.199757 -0.000074 -0.197415
v -0.199757 -0.000074 -0.197415
v -0.235570 0.100475 -0.233045
v -0.297959 -0.000074 0.001035
v -0.297959 -0.000074 0.001035
v -0.235570 0.100475 -0.233045
v -0.351153 0.100475 0.001035
v -0.500000 0.100475 -0.500000
v -0.500000 -0.200074 -0.500000
v -0.500000 0.100475 0.001035
v 0.000739 -0.000074 -0.299709
v -0.199757 -0.000074 -0.197415
v 0.299999 -0.000074 0.300000
v 0.299999 -0.000074 0.300000
v -0.199757 -0.000074 -0.197415
v -0.297959 -0.000074 0.001035
v 0.299999 -0.000074 0.500000
v 0.499999 -0.200074 0.500000
v 0.499999 0.099525 0.500000
v -0.297959 -0.000074 0.001035
v -0.351153 0.100475 0.001035
v -0.297959 -0.000074 0.500000
v -0.297959 -0.000074 0.500000
v -0.351153 0.100475 0.001035
v -0.351153 0.100475 0.500000
v -0.500000 0.100475 0.001035
v -0.500000 0.100475 0.500000
v -0.351153 0.100475 0.001035
v -0.351153 0.100475 0.001035
v -0.500000 0.100475 0.500000
v -0.351153 0.100475 0.500000
v 0.499999 -0.200845 -0.500000
v 0.499999 -0.000074 -0.299709
v 0.499999 -0.200074 0.500000
v 0.499999 -0.000074 -0.299709
v 0.499999 -0.000074 0.300000
v 0.499999 -0.200074 0.500000
v 0.499999 -0.000074 0.300000
v 0.499999 0.099525 0.500000
v 0.499999 -0.200074 0.500000
v 0.499999 0.099525 0.350000
v 0.499999 0.099525 0.500000
v 0.499999 -0.000074 0.300000
v -0.297959 -0.000074 0.500000
v 0.299999 -0.000074 0.500000
v 0.299999 -0.000074 0.300000
v 0.000739 0.100475 -0.500000
v -0.500000 -0.200074 -0.500000
v -0.500000 0.100475 -0.500000
v 0.499999 -0.200074 -0.500000
v 0.000739 0.100475 -0.500000
v 0.499999 0.100475 -0.500000
v 0.000739 0.100475 -0.500000
v 0.000739 0.100475 -0.350856
v 0.499999 0.100475 -0.500000
v 0.499999 0.100475 -0.500000
v 0.000739 0.100475 -0.350856
v 0.499999 0.100475 -0.350856
v 0.499999 -0.000074 -0.299709
v 0.499999 0.100475 -0.350856
v 0.000739 -0.000074 -0.299709
v 0.000739 -0.000074 -0.299709
v 0.499999 0.100475 -0.350856
v 0.000739 0.100475 -0.350856
v 0.299999 -0.000074 0.300000
v 0.499999 -0.000074 -0.299709
v 0.000739 -0.000074 -0.299709
v -0.500000 0.100475 -0.500000
v -0.235570 0.100475 -0.233045
v 0.000739 0.100475 -0.500000
v 0.000739 0.100475 -0.500000
v -0.235570 0.100475 -0.233045
v 0.000739 0.100475 -0.350856
v 0.299999 -0.000074 0.300000
v 0.499999 -0.000074 0.300000
v 0.499999 -0.000074 -0.299709
v 0.299999 -0.000074 0.300000
v -0.297959 -0.000074 0.001035
v -0.297959 -0.000074 0.500000
v 0.299999 -0.000074 0.500000
v 0.499999 0.099525 0.500000
v 0.349999 0.099525 0.500000
v 0.349999 0.099525 0.500000
v 0.349999 0.099525 0.350000
v 0.299999 -0.000074 0.300000
v 0.499999 -0.000074 0.300000
v 0.349999 0.099525 0.350000
v 0.499999 0.099525 0.350000
v 0.349999 0.099525 0.350000
v 0.349999 0.099525 0.500000
v 0.499999 0.099525 0.500000
v 0.499999 0.099525 0.350000
v 0.349999 0.099525 0.350000
v 0.499999 0.099525 0.500000
v 0.349999 0.099525 0.350000
v 0.499999 -0.000074 0.300000
v 0.299999 -0.000074 0.300000
v 0.349999 0.099525 0.500000
v 0.299999 -0.000074 0.300000
v 0.299999 -0.000074 0.500000
v -0.500000 0.100475 0.500000
v -0.500000 0.100475 0.001035
v -0.500000 -0.200074 0.500000
v -0.500000 -0.200074 0.500000
v -0.500000 0.100475 0.001035
v -0.500000 -0.200074 -0.500000
v 0.499999 -0.200074 -0.500000
v -0.500000 -0.200074 -0.500000
v 0.000739 0.100475 -0.500000
vt 0.361900 1.735727
vt 0.361666 1.748625
vt 0.338232 1.738070
vt 0.361899 1.638346
vt 0.361900 1.689557
vt 0.336813 1.664060
vt 0.336813 1.664060
vt 0.361900 1.689557
vt 0.348357 1.689367
vt 0.263455 1.638346
vt 0.261410 1.662116
vt 0.250570 1.639666
vt 0.338232 1.738070
vt 0.347242 1.734632
vt 0.361900 1.735727
vt 0.263616 1.626069
vt 0.263455 1.638346
vt 0.263607 1.626069
vt 0.261410 1.662116
vt 0.263455 1.638346
vt 0.264663 1.652424
vt 0.338232 1.738070
vt 0.361666 1.748625
vt 0.280665 1.738070
vt 0.361666 1.748625
vt 0.265212 1.748571
vt 0.280665 1.738070
vt 0.310967 1.652023
vt 0.336813 1.664060
vt 0.309475 1.662116
vt 0.309475 1.662116
vt 0.336813 1.664060
vt 0.328777 1.671832
vt 0.328777 1.671832
vt 0.336813 1.664060
vt 0.338232 1.690680
vt 0.338232 1.690680
vt 0.336813 1.664060
vt 0.348357 1.689367
vt 0.361899 1.638346
vt 0.374225 1.638602
vt 0.361900 1.689557
vt 0.309475 1.662116
vt 0.328777 1.671832
vt 0.280665 1.719074
vt 0.280665 1.719074
vt 0.328777 1.671832
vt 0.338232 1.690680
vt 0.280665 1.738070
vt 0.265212 1.748571
vt 0.265514 1.734391
vt 0.338232 1.690680
vt 0.348357 1.689367
vt 0.338232 1.738070
vt 0.338232 1.738070
vt 0.348357 1.689367
vt 0.347242 1.734632
vt 0.361900 1.689557
vt 0.361900 1.735727
vt 0.348357 1.689367
vt 0.348357 1.689367
vt 0.361900 1.735727
vt 0.347242 1.734632
vt 0.250570 1.639666
vt 0.261410 1.662116
vt 0.250061 1.734402
vt 0.261410 1.662116
vt 0.261410 1.719074
vt 0.250061 1.734402
vt 0.261410 1.719074
vt 0.265514 1.734391
vt 0.250061 1.734402
vt 0.265118 1.726155
vt 0.265514 1.734391
vt 0.261410 1.719074
vt 0.338232 1.738070
vt 0.280665 1.738070
vt 0.280665 1.719074
vt 0.311065 1.638346
vt 0.362016 1.626069
vt 0.361899 1.638346
vt 0.263616 1.626069
vt 0.311065 1.638346
vt 0.263455 1.638346
vt 0.311065 1.638346
vt 0.310967 1.652023
vt 0.263455 1.638346
vt 0.263455 1.638346
vt 0.310967 1.652023
vt 0.264663 1.652424
vt 0.261410 1.662116
vt 0.264663 1.652424
vt 0.309475 1.662116
vt 0.309475 1.662116
vt 0.264663 1.652424
vt 0.310967 1.652023
vt 0.280665 1.719074
vt 0.261410 1.662116
vt 0.309475 1.662116
vt 0.361899 1.638346
vt 0.336813 1.664060
vt 0.311065 1.638346
vt 0.311065 1.638346
vt 0.336813 1.664060
vt 0.310967 1.652023
vt 0.280665 1.719074
vt 0.261410 1.719074
vt 0.261410 1.662116
vt 0.280665 1.719074
vt 0.338232 1.690680
vt 0.338232 1.738070
vt 0.280665 1.738070
vt 0.265514 1.734391
vt 0.273178 1.735218
vt 0.273178 1.735218
vt 0.273107 1.726265
vt 0.280665 1.719074
vt 0.261410 1.719074
vt 0.273107 1.726265
vt 0.265118 1.726155
vt 0.273107 1.726265
vt 0.273178 1.735218
vt 0.265514 1.734391
vt 0.265118 1.726155
vt 0.273107 1.726265
vt 0.265514 1.734391
vt 0.273107 1.726265
vt 0.261410 1.719074
vt 0.280665 1.719074
vt 0.273178 1.735218
vt 0.280665 1.719074
vt 0.280665 1.738070
vt 0.361900 1.735727
vt 0.361900 1.689557
vt 0.373443 1.735984
vt 0.373443 1.735984
vt 0.361900 1.689557
vt 0.374225 1.638602
vt 0.263616 1.626069
vt 0.362016 1.626069
vt 0.311065 1.638346
vn 0.000000 -0.000001 1.000000
vn 0.000000 -0.000001 1.000000
vn 0.000000 -0.000001 1.000000
vn 0.000000 1.000000 0.000000
vn 0.000000 1.000000 0.000000
vn 0.000000 1.000000 0.000000
vn 0.000000 1.000000 0.000000
vn 0.000000 1.000000 0.000000
vn 0.000000 1.000000 0.000000
vn 1.000000 0.000001 0.000000
vn 1.000000 0.000001 0.000000
vn 1.000000 0.000001 0.000000
vn 0.000000 -0.000001 1.000000
vn 0.000001 0.000001 1.000000
vn 0.000000 -0.000001 1.000000
vn -1.000000 0.000000 0.000000
vn -1.000000 0.000000 0.000000
vn -1.000000 0.000000 0.000000
vn 1.000000 0.000001 0.000000
vn 1.000000 0.000001 0.000000
vn 1.000000 0.000000 0.000000
vn 0.000000 -0.000001 1.000000
vn 0.000000 -0.000001 1.000000
vn -0.000001 0.000001 1.000000
vn 0.000000 -0.000001 1.000000
vn -0.000001 -0.000001 1.000000
vn -0.000001 0.000001 1.000000
vn 0.406075 0.414328 0.814516
vn 0.406075 0.414328 0.814516
vn 0.406075 0.414328 0.814516
vn 0.410111 0.430903 0.803823
vn 0.410111 0.430903 0.803823
vn 0.410111 0.430903 0.803823
vn 0.809143 0.430079 0.400398
vn 0.809143 0.430079 0.400398
vn 0.809143 0.430079 0.400398
vn 0.810126 0.428582 0.400017
vn 0.810126 0.428582 0.400017
vn 0.810126 0.428582 0.400017
vn -1.000000 0.000000 0.000000
vn -1.000000 0.000000 0.000000
vn -1.000000 0.000000 0.000000
vn 0.000000 1.000000 0.000000
vn 0.000000 1.000000 0.000000
vn 0.000000 1.000000 0.000000
vn 0.000000 1.000000 0.000000
vn 0.000000 1.000000 0.000000
vn 0.000000 1.000000 0.000000
vn -0.000001 0.000001 1.000000
vn -0.000001 -0.000001 1.000000
vn 0.000001 0.000001 1.000000
vn 0.883926 0.467626 0.000000
vn 0.883926 0.467626 0.000000
vn 0.883926 0.467626 0.000000
vn 0.883926 0.467626 0.000000
vn 0.883926 0.467626 0.000000
vn 0.883929 0.467621 0.000000
vn 0.000000 1.000000 0.000000
vn 0.000000 1.000000 0.000000
vn 0.000000 1.000000 0.000000
vn 0.000000 1.000000 0.000000
vn 0.000000 1.000000 0.000000
vn 0.000000 1.000000 0.000000
vn 1.000000 0.000001 0.000000
vn 1.000000 0.000001 0.000000
vn 1.000000 0.000000 0.000000
vn 1.000000 0.000001 0.000000
vn 1.000000 0.000000 0.000000
vn 1.000000 0.000000 0.000000
vn 1.000000 0.000000 0.000000
vn 1.000000 0.000000 0.000000
vn 1.000000 0.000000 0.000000
vn 1.000000 0.000000 0.000000
vn 1.000000 0.000000 0.000000
vn 1.000000 0.000000 0.000000
vn 0.000000 1.000000 0.000000
vn 0.000000 1.000000 0.000000
vn 0.000000 1.000000 0.000000
vn 0.000001 0.000000 -1.000000
vn 0.000001 0.000000 -1.000000
vn 0.000001 0.000000 -1.000000
vn 0.000000 0.000000 -1.000000
vn 0.000001 0.000000 -1.000000
vn 0.000000 0.000000 -1.000000
vn 0.000000 1.000000 0.000000
vn 0.000000 1.000000 0.000000
vn 0.000000 1.000000 0.000000
vn 0.000000 1.000000 0.000000
vn 0.000000 1.000000 0.000000
vn 0.000000 1.000000 0.000000
vn 0.000000 0.453393 0.891311
vn 0.000000 0.453393 0.891311
vn 0.000000 0.453393 0.891311
vn 0.000000 0.453393 0.891311
vn 0.000000 0.453393 0.891311
vn 0.000000 0.453393 0.891311
vn 0.000000 1.000000 0.000000
vn 0.000000 1.000000 0.000000
vn 0.000000 1.000000 0.000000
vn 0.000000 1.000000 0.000000
vn 0.000000 1.000000 0.000000
vn 0.000000 1.000000 0.000000
vn 0.000000 1.000000 0.000000
vn 0.000000 1.000000 0.000000
vn 0.000000 1.000000 0.000000
vn 0.000000 1.000000 0.000000
vn 0.000000 1.000000 0.000000
vn 0.000000 1.000000 0.000000
vn 0.000000 1.000000 0.000000
vn 0.000000 1.000000 0.000000
vn 0.000000 1.000000 0.000000
vn -0.000001 0.000001 1.000000
vn 0.000001 0.000001 1.000000
vn 0.000001 -0.000001 1.000000
vn -0.893710 0.448646 0.000000
vn -0.893710 0.448646 0.000000
vn -0.893710 0.448646 0.000000
vn 0.000000 0.448655 -0.893705
vn 0.000000 0.448655 -0.893705
vn 0.000000 0.448655 -0.893705
vn 0.000000 1.000000 0.000000
vn 0.000000 1.000000 0.000000
vn 0.000000 1.000000 0.000000
vn 0.000000 1.000000 0.000000
vn 0.000000 1.000000 0.000000
vn 0.000000 1.000000 0.000000
vn 0.000000 0.448655 -0.893705
vn 0.000000 0.448655 -0.893705
vn 0.000000 0.448654 -0.893706
vn -0.893705 0.448655 0.000000
vn -0.893705 0.448655 0.000000
vn -0.893705 0.448655 0.000000
vn -1.000000 0.000001 0.000000
vn -1.000000 0.000000 0.000000
vn -1.000000 0.000001 0.000000
vn -1.000000 0.000001 0.000000
vn -1.000000 0.000000 0.000000
vn -1.000000 0.000000 0.000000
vn 0.000000 0.000000 -1.000000
vn 0.000001 0.000000 -1.000000
vn 0.000001 0.000000 -1.000000
o Unmerged_tile_nw
o Unmerged_tile_nw
usemtl material
f 1/1/1 2/2/2 3/3/3
f 4/4/4 5/5/5 6/6/6
f 7/7/7 8/8/8 9/9/9
f 10/10/10 11/11/11 12/12/12
f 13/13/13 14/14/14 15/15/15
f 16/16/16 17/17/17 18/18/18
f 19/19/19 20/20/20 21/21/21
f 22/22/22 23/23/23 24/24/24
f 25/25/25 26/26/26 27/27/27
f 28/28/28 29/29/29 30/30/30
f 31/31/31 32/32/32 33/33/33
f 34/34/34 35/35/35 36/36/36
f 37/37/37 38/38/38 39/39/39
f 40/40/40 41/41/41 42/42/42
f 43/43/43 44/44/44 45/45/45
f 46/46/46 47/47/47 48/48/48
f 49/49/49 50/50/50 51/51/51
f 52/52/52 53/53/53 54/54/54
f 55/55/55 56/56/56 57/57/57
f 58/58/58 59/59/59 60/60/60
f 61/61/61 62/62/62 63/63/63
f 64/64/64 65/65/65 66/66/66
f 67/67/67 68/68/68 69/69/69
f 70/70/70 71/71/71 72/72/72
f 73/73/73 74/74/74 75/75/75
f 76/76/76 77/77/77 78/78/78
f 79/79/79 80/80/80 81/81/81
f 82/82/82 83/83/83 84/84/84
f 85/85/85 86/86/86 87/87/87
f 88/88/88 89/89/89 90/90/90
f 91/91/91 92/92/92 93/93/93
f 94/94/94 95/95/95 96/96/96
f 97/97/97 98/98/98 99/99/99
f 100/100/100 101/101/101 102/102/102
f 103/103/103 104/104/104 105/105/105
f 106/106/106 107/107/107 108/108/108
f 109/109/109 110/110/110 111/111/111
f 112/112/112 113/113/113 114/114/114
f 115/115/115 116/116/116 117/117/117
f 118/118/118 119/119/119 120/120/120
f 121/121/121 122/122/122 123/123/123
f 124/124/124 125/125/125 126/126/126
f 127/127/127 128/128/128 129/129/129
f 130/130/130 131/131/131 132/132/132
f 133/133/133 134/134/134 135/135/135
f 136/136/136 137/137/137 138/138/138
f 139/139/139 140/140/140 141/141/141
