# Converted from .wwm to .obj by WWMToOBJConverter
v -0.500000 -0.049632 -0.500000
v 0.500000 -0.049632 -0.500000
v -0.500000 -0.049632 0.500000
v 0.500000 -0.049632 0.500000
v -0.450000 0.000330 -0.450000
v 0.450000 0.000330 -0.450000
v -0.450000 0.000330 0.450000
v 0.450000 0.000330 0.450000
vt 0.000000 1.000000
vt 1.000000 1.000000
vt 0.000000 0.000000
vt 1.000000 0.000000
vt 0.000000 1.000000
vt 1.000000 1.000000
vt 0.000000 0.000000
vt 1.000000 0.000000
vn 0.000000 1.000000 0.000000
vn 0.000000 1.000000 0.000000
vn 0.000000 1.000000 0.000000
vn 0.000000 1.000000 0.000000
vn 0.000000 1.000000 0.000000
vn 0.000000 1.000000 0.000000
vn 0.000000 1.000000 0.000000
vn 0.000000 1.000000 0.000000
g Material_0
f 5/5/5 7/7/7 6/6/6
f 6/6/6 7/7/7 8/8/8
f 7/7/7 3/3/3 8/8/8
f 3/3/3 4/4/4 8/8/8
f 8/8/8 4/4/4 6/6/6
f 4/4/4 2/2/2 6/6/6
f 6/6/6 2/2/2 5/5/5
f 2/2/2 1/1/1 5/5/5
f 1/1/1 3/3/3 5/5/5
f 5/5/5 3/3/3 7/7/7
