mtllib egy_tile_nw_corner.mtl
o tile_corner
usemtl PDX01_-_Default
v -0.4999960000000101 -0.20000000298023224 -0.5000039999999899
v -0.5000039999999899 -0.20000000298023224 0.49999600000001004
v -0.5000023353822298 0 -0.33392999229048675
v -0.4999976647298269 0 0.3339359993820291
v -0.5000023353822298 0 -0.33392999229048675
v -0.5000039999999899 -0.20000000298023224 0.49999600000001004
v -0.5000023353822298 0 -0.33392999229048675
v -0.499997248658428 0.14500000327825546 -0.46313098722647617
v -0.4999960000000101 -0.20000000298023224 -0.5000039999999899
v -0.4999960000000101 0.14500000327825546 -0.5000039999999899
v -0.4999960000000101 -0.20000000298023224 -0.5000039999999899
v -0.499997248658428 0.14500000327825546 -0.46313098722647617
v -0.5000039999999899 -0.20000000298023224 0.49999600000001004
v -0.5000039999999899 0.14500000327825546 0.49999600000001004
v -0.4999976647298269 0 0.3339359993820291
v -0.5000026925530341 0.14500000327825546 0.4632250005765062
v -0.4999976647298269 0 0.3339359993820291
v -0.5000039999999899 0.14500000327825546 0.49999600000001004
v 0.5000039999999899 -0.20000000298023224 -0.4999960000000101
v -0.4999960000000101 -0.20000000298023224 -0.5000039999999899
v 0.33393000719164795 0 -0.5000023353821107
v -0.3339360291843515 0 -0.49999766473006535
v 0.33393000719164795 0 -0.5000023353821107
v -0.4999960000000101 -0.20000000298023224 -0.5000039999999899
v -0.33607428646875104 0 -0.3360526923828057
v -0.3339360291843515 0 -0.49999766473006535
v -0.4638472700286005 0.14500000327825546 -0.46312971455000895
v -0.4638670022053819 0.14500000327825546 -0.500002697689047
v -0.4638472700286005 0.14500000327825546 -0.46312971455000895
v -0.3339360291843515 0 -0.49999766473006535
v -0.499997248658428 0.14500000327825546 -0.46313098722647617
v -0.5000023353822298 0 -0.33392999229048675
v -0.4638472700286005 0.14500000327825546 -0.46312971455000895
v -0.33607428646875104 0 -0.3360526923828057
v -0.4638472700286005 0.14500000327825546 -0.46312971455000895
v -0.5000023353822298 0 -0.33392999229048675
v -0.499997248658428 0.14500000327825546 -0.46313098722647617
v -0.4638472700286005 0.14500000327825546 -0.46312971455000895
v -0.4999960000000101 0.14500000327825546 -0.5000039999999899
v -0.4638670022053819 0.14500000327825546 -0.500002697689047
v -0.4999960000000101 0.14500000327825546 -0.5000039999999899
v -0.4638472700286005 0.14500000327825546 -0.46312971455000895
v -0.33607428646875104 0 -0.3360526923828057
v 0.32973102760998896 0 -0.003142362118012418
v -0.3339360291843515 0 -0.49999766473006535
v 0.33393000719164795 0 -0.5000023353821107
v -0.3339360291843515 0 -0.49999766473006535
v 0.32973102760998896 0 -0.003142362118012418
v 0.4638740001022715 0.14500000327825546 -0.49999730231896977
v 0.33393000719164795 0 -0.5000023353821107
v 0.46386900162837535 0.14500000327825546 0.00001471095209027503
v 0.32973102760998896 0 -0.003142362118012418
v 0.46386900162837535 0.14500000327825546 0.00001471095209027503
v 0.33393000719164795 0 -0.5000023353821107
v -0.0031516108841829205 0 0.32973698242616656
v -0.4999976647298269 0 0.3339359993820291
v 0.000013260771760781331 0.14500000327825546 0.4658190013337135
v -0.5000026925530341 0.14500000327825546 0.4632250005765062
v 0.000013260771760781331 0.14500000327825546 0.4658190013337135
v -0.4999976647298269 0 0.3339359993820291
v -0.5000023353822298 0 -0.33392999229048675
v -0.4999976647298269 0 0.3339359993820291
v -0.33607428646875104 0 -0.3360526923828057
v -0.0031516108841829205 0 0.32973698242616656
v -0.33607428646875104 0 -0.3360526923828057
v -0.4999976647298269 0 0.3339359993820291
v 0.32973102760998896 0 -0.003142362118012418
v -0.33607428646875104 0 -0.3360526923828057
v 0.2856396930108103 0 0.1633352838805856
v 0.46386900162837535 0.14500000327825546 0.00001471095209027503
v 0.32973102760998896 0 -0.003142362118012418
v 0.3922022622019096 0.14500000327825546 0.2174211377340476
v 0.2856396930108103 0 0.1633352838805856
v 0.3922022622019096 0.14500000327825546 0.2174211377340476
v 0.32973102760998896 0 -0.003142362118012418
v 0.5000039999999899 0.14500000327825546 -0.4999960000000101
v 0.46386900162837535 0.14500000327825546 0.00001471095209027503
v 0.4999960000000101 0.14500000327825546 0.5000039999999899
v 0.4638740001022715 0.14500000327825546 -0.49999730231896977
v 0.46386900162837535 0.14500000327825546 0.00001471095209027503
v 0.5000039999999899 0.14500000327825546 -0.4999960000000101
v 0.000013260771760781331 0.14500000327825546 0.4658190013337135
v -0.5000039999999899 0.14500000327825546 0.49999600000001004
v 0.4999960000000101 0.14500000327825546 0.5000039999999899
v -0.5000026925530341 0.14500000327825546 0.4632250005765062
v -0.5000039999999899 0.14500000327825546 0.49999600000001004
v 0.000013260771760781331 0.14500000327825546 0.4658190013337135
v 0.46386900162837535 0.14500000327825546 0.00001471095209027503
v 0.3922022622019096 0.14500000327825546 0.2174211377340476
v 0.4999960000000101 0.14500000327825546 0.5000039999999899
v 0.4999960000000101 -0.20000000298023224 0.5000039999999899
v 0.5000039999999899 -0.20000000298023224 -0.4999960000000101
v 0.4999960000000101 0.14500000327825546 0.5000039999999899
v 0.5000039999999899 0.14500000327825546 -0.4999960000000101
v 0.4999960000000101 0.14500000327825546 0.5000039999999899
v 0.5000039999999899 -0.20000000298023224 -0.4999960000000101
v -0.5000039999999899 -0.20000000298023224 0.49999600000001004
v 0.4999960000000101 -0.20000000298023224 0.5000039999999899
v -0.5000039999999899 0.14500000327825546 0.49999600000001004
v 0.4999960000000101 0.14500000327825546 0.5000039999999899
v -0.5000039999999899 0.14500000327825546 0.49999600000001004
v 0.4999960000000101 -0.20000000298023224 0.5000039999999899
v -0.4638670022053819 0.14500000327825546 -0.500002697689047
v -0.3339360291843515 0 -0.49999766473006535
v -0.4999960000000101 0.14500000327825546 -0.5000039999999899
v -0.4999960000000101 -0.20000000298023224 -0.5000039999999899
v -0.4999960000000101 0.14500000327825546 -0.5000039999999899
v -0.3339360291843515 0 -0.49999766473006535
v 0.5000039999999899 -0.20000000298023224 -0.4999960000000101
v 0.33393000719164795 0 -0.5000023353821107
v 0.5000039999999899 0.14500000327825546 -0.4999960000000101
v 0.4638740001022715 0.14500000327825546 -0.49999730231896977
v 0.5000039999999899 0.14500000327825546 -0.4999960000000101
v 0.33393000719164795 0 -0.5000023353821107
v 0.16270870565796475 0 0.28610431186556484
v -0.33607428646875104 0 -0.3360526923828057
v -0.0031516108841829205 0 0.32973698242616656
v 0.16270870565796475 0 0.28610431186556484
v -0.0031516108841829205 0 0.32973698242616656
v 0.21993690828491036 0.14500000327825546 0.387307764282699
v 0.000013260771760781331 0.14500000327825546 0.4658190013337135
v 0.21993690828491036 0.14500000327825546 0.387307764282699
v -0.0031516108841829205 0 0.32973698242616656
v 0.4999960000000101 0.14500000327825546 0.5000039999999899
v 0.21993690828491036 0.14500000327825546 0.387307764282699
v 0.000013260771760781331 0.14500000327825546 0.4658190013337135
v 0.4999960000000101 0.14500000327825546 0.5000039999999899
v 0.3922022622019096 0.14500000327825546 0.2174211377340476
v 0.21993690828491036 0.14500000327825546 0.387307764282699
v 0.2856396930108103 0 0.1633352838805856
v 0.16270870565796475 0 0.28610431186556484
v 0.3922022622019096 0.14500000327825546 0.2174211377340476
v 0.21993690828491036 0.14500000327825546 0.387307764282699
v 0.3922022622019096 0.14500000327825546 0.2174211377340476
v 0.16270870565796475 0 0.28610431186556484
v 0.16270870565796475 0 0.28610431186556484
v 0.2856396930108103 0 0.1633352838805856
v -0.33607428646875104 0 -0.3360526923828057
vt 0.11892499774694443 0.8173419833183289
vt 0.02181600034236908 0.8173419833183289
vt 0.10457400232553482 0.8328449726104736
vt 0.036166999489068985 0.8328449726104736
vt 0.10457400232553482 0.8328449726104736
vt 0.02181600034236908 0.8173419833183289
vt 0.10457400232553482 0.8328449726104736
vt 0.1078369989991188 0.8405960202217102
vt 0.11892499774694443 0.8173419833183289
vt 0.11892499774694443 0.8405960202217102
vt 0.11892499774694443 0.8173419833183289
vt 0.1078369989991188 0.8405960202217102
vt 0.02181600034236908 0.8173419833183289
vt 0.02181600034236908 0.8405960202217102
vt 0.036166999489068985 0.8328449726104736
vt 0.0329039990901947 0.8405960202217102
vt 0.036166999489068985 0.8328449726104736
vt 0.02181600034236908 0.8405960202217102
vt 0.02064099907875061 0.8191109895706177
vt 0.12207800149917603 0.8191109895706177
vt 0.035631999373435974 0.8310319781303406
vt 0.10708799958229065 0.8310319781303406
vt 0.035631999373435974 0.8310319781303406
vt 0.12207800149917603 0.8191109895706177
vt 0.06979899853467941 0.7746390104293823
vt 0.05086600035429001 0.7746260166168213
vt 0.06902699917554855 0.8097720146179199
vt 0.05086600035429001 0.8098120093345642
vt 0.06902699917554855 0.8097720146179199
vt 0.05086600035429001 0.7746260166168213
vt 0.0907140001654625 0.8098859786987305
vt 0.0919400006532669 0.7746310234069824
vt 0.06902699917554855 0.8097720146179199
vt 0.06979899853467941 0.7746390104293823
vt 0.06902699917554855 0.8097720146179199
vt 0.0919400006532669 0.7746310234069824
vt 0.4360960125923157 0.9723520278930664
vt 0.4507400095462799 0.9577080011367798
vt 0.45148900151252747 0.9877449870109558
vt 0.46612998843193054 0.9731029868125916
vt 0.45148900151252747 0.9877449870109558
vt 0.4507400095462799 0.9577080011367798
vt 0.1786320060491562 0.9030399918556213
vt 0.10009299963712692 0.9438509941101074
vt 0.17862899601459503 0.8844109773635864
vt 0.10009299963712692 0.8844109773635864
vt 0.17862899601459503 0.8844109773635864
vt 0.10009299963712692 0.9438509941101074
vt 0.31471699476242065 0.8081809878349304
vt 0.3121350109577179 0.7736250162124634
vt 0.20788100361824036 0.8079720139503479
vt 0.20796899497509003 0.7737540006637573
vt 0.20788100361824036 0.8079720139503479
vt 0.3121350109577179 0.7736250162124634
vt 0.08861999958753586 0.7736499905586243
vt 0.0038999998942017555 0.7735880017280579
vt 0.09113699942827225 0.8079339861869812
vt 0.00393400015309453 0.8078870177268982
vt 0.09113699942827225 0.8079339861869812
vt 0.0038999998942017555 0.7735880017280579
vt 0.19694000482559204 0.9030399918556213
vt 0.19694000482559204 0.9864330291748047
vt 0.1786320060491562 0.9030399918556213
vt 0.14129899442195892 0.9864330291748047
vt 0.1786320060491562 0.9030399918556213
vt 0.19694000482559204 0.9864330291748047
vt 0.10009299963712692 0.9438509941101074
vt 0.1786320060491562 0.9030399918556213
vt 0.10383400321006775 0.9697530269622803
vt 0.20788100361824036 0.8079720139503479
vt 0.20796899497509003 0.7737540006637573
vt 0.1756560057401657 0.807945966720581
vt 0.17305399477481842 0.7736610174179077
vt 0.1756560057401657 0.807945966720581
vt 0.20796899497509003 0.7737540006637573
vt 0.4131160080432892 0.8352980017662048
vt 0.4221140146255493 0.9118019938468933
vt 0.4131160080432892 0.9865880012512207
vt 0.4221149981021881 0.8352980017662048
vt 0.4221140146255493 0.9118019938468933
vt 0.4131160080432892 0.8352980017662048
vt 0.48907700181007385 0.977653980255127
vt 0.5676040053367615 0.9865880012512207
vt 0.4131160080432892 0.9865880012512207
vt 0.5676040053367615 0.977653980255127
vt 0.5676040053367615 0.9865880012512207
vt 0.48907700181007385 0.977653980255127
vt 0.4221140146255493 0.9118019938468933
vt 0.43643298745155334 0.9424239993095398
vt 0.4131160080432892 0.9865880012512207
vt 0.028091000393033028 0.8159549832344055
vt 0.11961600184440613 0.8159549832344055
vt 0.028091000393033028 0.8378720283508301
vt 0.11961600184440613 0.8378720283508301
vt 0.028091000393033028 0.8378720283508301
vt 0.11961600184440613 0.8159549832344055
vt 0.11757200211286545 0.8169090151786804
vt 0.02418000064790249 0.8169090151786804
vt 0.11757200211286545 0.8368819952011108
vt 0.02418000064790249 0.8368819952011108
vt 0.11757200211286545 0.8368819952011108
vt 0.02418000064790249 0.8169090151786804
vt 0.11049599945545197 0.8369929790496826
vt 0.10708799958229065 0.8310319781303406
vt 0.12207800149917603 0.8369929790496826
vt 0.12207800149917603 0.8191109895706177
vt 0.12207800149917603 0.8369929790496826
vt 0.10708799958229065 0.8310319781303406
vt 0.02064099907875061 0.8191109895706177
vt 0.035631999373435974 0.8310319781303406
vt 0.02064099907875061 0.8369929790496826
vt 0.03222399950027466 0.8369929790496826
vt 0.02064099907875061 0.8369929790496826
vt 0.035631999373435974 0.8310319781303406
vt 0.1197500005364418 0.9837650060653687
vt 0.1786320060491562 0.9030399918556213
vt 0.14129899442195892 0.9864330291748047
vt 0.1284569948911667 0.7736629843711853
vt 0.08861999958753586 0.7736499905586243
vt 0.12862500548362732 0.8078489899635315
vt 0.09113699942827225 0.8079339861869812
vt 0.12862500548362732 0.8078489899635315
vt 0.08861999958753586 0.7736499905586243
vt 0.4131160080432892 0.9865880012512207
vt 0.4585669934749603 0.9678090214729309
vt 0.48907700181007385 0.977653980255127
vt 0.4131160080432892 0.9865880012512207
vt 0.43643298745155334 0.9424239993095398
vt 0.4585669934749603 0.9678090214729309
vt 0.17305399477481842 0.7736610174179077
vt 0.1284569948911667 0.7736629843711853
vt 0.1756560057401657 0.807945966720581
vt 0.12862500548362732 0.8078489899635315
vt 0.1756560057401657 0.807945966720581
vt 0.1284569948911667 0.7736629843711853
vt 0.1197500005364418 0.9837650060653687
vt 0.10383400321006775 0.9697530269622803
vt 0.1786320060491562 0.9030399918556213
vn -0.9999999997035001 -0.00002300000050501727 -0.000007999999977463899
vn -0.9999999997035001 -0.00002300000050501727 -0.000007999999977463899
vn -0.9999999997035001 -0.00002300000050501727 -0.000007999999977463899
vn -0.9999999994040001 0.00003400000057438328 0.000006000000207943177
vn -0.9999999994040001 0.00003400000057438328 0.000006000000207943177
vn -0.9999999994040001 0.00003400000057438328 0.000006000000207943177
vn -0.9999999993515 9.999999971147427e-7 -0.000036000000348608045
vn -0.9999999993515 9.999999971147427e-7 -0.000036000000348608045
vn -0.9999999993515 9.999999971147427e-7 -0.000036000000348608045
vn -0.999999999387 9.999999971422427e-7 -0.00003500000001145929
vn -0.9999999993515 9.999999971147427e-7 -0.000036000000348608045
vn -0.9999999993515 9.999999971147427e-7 -0.000036000000348608045
vn -0.999999999387 9.999999971422427e-7 -0.00003500000001145929
vn -0.999999999387 9.999999971422427e-7 -0.00003500000001145929
vn -0.999999999387 9.999999971422427e-7 -0.00003500000001145929
vn -0.999999999486 -0.0000019999999944344852 -0.000032000000818432424
vn -0.999999999387 9.999999971422427e-7 -0.00003500000001145929
vn -0.999999999387 9.999999971422427e-7 -0.00003500000001145929
vn 0.000007999999977463899 -0.00002300000050501727 -0.9999999997035001
vn 0.000007999999977463899 -0.00002300000050501727 -0.9999999997035001
vn 0.000007999999977463899 -0.00002300000050501727 -0.9999999997035001
vn -0.000006000000207943177 0.00003400000057438328 -0.9999999994040001
vn -0.000006000000207943177 0.00003400000057438328 -0.9999999994040001
vn -0.000006000000207943177 0.00003400000057438328 -0.9999999994040001
vn 0.7459890365616438 0.6658870975223569 0.009732968872947955
vn 0.7459890365616438 0.6658870975223569 0.009732968872947955
vn 0.7459890365616438 0.6658870975223569 0.009732968872947955
vn 0.744745962285286 0.6673479580981465 -0.0003930419797977617
vn 0.744745962285286 0.6673479580981465 -0.0003930419797977617
vn 0.744745962285286 0.6673479580981465 -0.0003930419797977617
vn -0.00003597288463035885 0.6652609227449094 0.7466109451210473
vn -0.00003597288463035885 0.6652609227449094 0.7466109451210473
vn -0.00003597288463035885 0.6652609227449094 0.7466109451210473
vn 0.009682018945393204 0.6638780862742614 0.7477781389382585
vn 0.009682018945393204 0.6638780862742614 0.7477781389382585
vn 0.009682018945393204 0.6638780862742614 0.7477781389382585
vn -7.999999959121839e-12 0.9999999999995 9.999999974107428e-7
vn -7.999999959121839e-12 0.9999999999995 9.999999974107428e-7
vn -7.999999959121839e-12 0.9999999999995 9.999999974107428e-7
vn -0.000001000015997408661 0.9999999999975 0.0000019999919948175264
vn -7.999999959121839e-12 0.9999999999995 9.999999974107428e-7
vn -7.999999959121839e-12 0.9999999999995 9.999999974107428e-7
vn 0 1 0
vn 0 1 0
vn 0 1 0
vn 0 1 0
vn 0 1 0
vn 0 1 0
vn -0.7447138761537486 0.6673838794993849 -0.0000069577108090847465
vn -0.7421671606414785 0.6702131666340242 -0.0014889377957298295
vn -0.7294947219843703 0.6745626765572827 -0.11314877813225002
vn -0.7359781639191796 0.6666111017895595 -0.11817690639487351
vn -0.7294947219843703 0.6745626765572827 -0.11314877813225002
vn -0.7421671606414785 0.6702131666340242 -0.0014889377957298295
vn -0.12391414270058045 0.6673940879439343 -0.7343231009686843
vn 0.0014589383761036173 0.6700981180596404 -0.7422710985022541
vn -0.11992125097566336 0.6784002416407242 -0.7248392964693893
vn 0.003872970849194792 0.6655099487481936 -0.7463789307141365
vn -0.11992125097566336 0.6784002416407242 -0.7248392964693893
vn 0.0014589383761036173 0.6700981180596404 -0.7422710985022541
vn 0 1 0
vn 0 1 0
vn 0 1 0
vn 0 1 0
vn 0 1 0
vn 0 1 0
vn 0 1 0
vn 0 1 0
vn 0 1 0
vn -0.7294947219843703 0.6745626765572827 -0.11314877813225002
vn -0.7359781639191796 0.6666111017895595 -0.11817690639487351
vn -0.6588251123027357 0.6432462087104536 -0.3901074036453489
vn -0.6666584929305353 0.635325664489249 -0.3897791090411105
vn -0.6588251123027357 0.6432462087104536 -0.3901074036453489
vn -0.7359781639191796 0.6666111017895595 -0.11817690639487351
vn 0 1 0
vn 0 1 0
vn 0 1 0
vn 0 1 0
vn 0 1 0
vn 0 1 0
vn 0 1 0
vn 0 1 0
vn 0 1 0
vn 0 1 0
vn 0 1 0
vn 0 1 0
vn 0 1 0
vn 0 1 0
vn 0 1 0
vn 0.9999999999675 -9.999999975067426e-7 0.000007999999979575897
vn 0.9999999999675 -9.999999975067426e-7 0.000007999999979575897
vn 0.9999999999675 -9.999999975067426e-7 0.000007999999979575897
vn 0.999999999968 0 0.000007999999979579899
vn 0.9999999999675 -9.999999975067426e-7 0.000007999999979575897
vn 0.9999999999675 -9.999999975067426e-7 0.000007999999979575897
vn -0.000007999999979579899 0 0.999999999968
vn -0.000007999999979579899 0 0.999999999968
vn -0.000007999999979579899 0 0.999999999968
vn -0.000007999999979579899 0 0.999999999968
vn -0.000007999999979579899 0 0.999999999968
vn -0.000007999999979579899 0 0.999999999968
vn 0.00003399999967422153 -9.999999971687426e-7 -0.9999999994215
vn 0.00003399999967422153 -9.999999971687426e-7 -0.9999999994215
vn 0.00003399999967422153 -9.999999971687426e-7 -0.9999999994215
vn 0.00003500000001147679 0 -0.9999999993875001
vn 0.00003399999967422153 -9.999999971687426e-7 -0.9999999994215
vn 0.00003399999967422153 -9.999999971687426e-7 -0.9999999994215
vn 0.00003500000001147679 0 -0.9999999993875001
vn 0.00003500000001147679 0 -0.9999999993875001
vn 0.00003500000001147679 0 -0.9999999993875001
vn 0.00003299999933676578 0.0000030000001052575657 -0.999999999451
vn 0.00003500000001147679 0 -0.9999999993875001
vn 0.00003500000001147679 0 -0.9999999993875001
vn 0 1 0
vn 0 1 0
vn 0 1 0
vn -0.3869484963230915 0.6266178294603829 -0.6764768709983047
vn -0.12391414270058045 0.6673940879439343 -0.7343231009686843
vn -0.39535768952098255 0.6383049607816023 -0.660499110051049
vn -0.11992125097566336 0.6784002416407242 -0.7248392964693893
vn -0.39535768952098255 0.6383049607816023 -0.660499110051049
vn -0.12391414270058045 0.6673940879439343 -0.7343231009686843
vn 0 1 0
vn 0 1 0
vn 0 1 0
vn 0 1 0
vn 0 1 0
vn 0 1 0
vn -0.6666584929305353 0.635325664489249 -0.3897791090411105
vn -0.3869484963230915 0.6266178294603829 -0.6764768709983047
vn -0.6588251123027357 0.6432462087104536 -0.3901074036453489
vn -0.39535768952098255 0.6383049607816023 -0.660499110051049
vn -0.6588251123027357 0.6432462087104536 -0.3901074036453489
vn -0.3869484963230915 0.6266178294603829 -0.6764768709983047
vn 0 1 0
vn 0 1 0
vn 0 1 0
f 1/1/1 2/2/2 3/3/3
f 4/4/4 5/5/5 6/6/6
f 7/7/7 8/8/8 9/9/9
f 10/10/10 11/11/11 12/12/12
f 13/13/13 14/14/14 15/15/15
f 16/16/16 17/17/17 18/18/18
f 19/19/19 20/20/20 21/21/21
f 22/22/22 23/23/23 24/24/24
f 25/25/25 26/26/26 27/27/27
f 28/28/28 29/29/29 30/30/30
f 31/31/31 32/32/32 33/33/33
f 34/34/34 35/35/35 36/36/36
f 37/37/37 38/38/38 39/39/39
f 40/40/40 41/41/41 42/42/42
f 43/43/43 44/44/44 45/45/45
f 46/46/46 47/47/47 48/48/48
f 49/49/49 50/50/50 51/51/51
f 52/52/52 53/53/53 54/54/54
f 55/55/55 56/56/56 57/57/57
f 58/58/58 59/59/59 60/60/60
f 61/61/61 62/62/62 63/63/63
f 64/64/64 65/65/65 66/66/66
f 67/67/67 68/68/68 69/69/69
f 70/70/70 71/71/71 72/72/72
f 73/73/73 74/74/74 75/75/75
f 76/76/76 77/77/77 78/78/78
f 79/79/79 80/80/80 81/81/81
f 82/82/82 83/83/83 84/84/84
f 85/85/85 86/86/86 87/87/87
f 88/88/88 89/89/89 90/90/90
f 91/91/91 92/92/92 93/93/93
f 94/94/94 95/95/95 96/96/96
f 97/97/97 98/98/98 99/99/99
f 100/100/100 101/101/101 102/102/102
f 103/103/103 104/104/104 105/105/105
f 106/106/106 107/107/107 108/108/108
f 109/109/109 110/110/110 111/111/111
f 112/112/112 113/113/113 114/114/114
f 115/115/115 116/116/116 117/117/117
f 118/118/118 119/119/119 120/120/120
f 121/121/121 122/122/122 123/123/123
f 124/124/124 125/125/125 126/126/126
f 127/127/127 128/128/128 129/129/129
f 130/130/130 131/131/131 132/132/132
f 133/133/133 134/134/134 135/135/135
f 136/136/136 137/137/137 138/138/138
