mtllib jun_tile_ne_boundary_corner.mtl
o tile_boundary_edged_corner01
usemtl PDX01_-_Default
v -0.49999749999994947 -0.20000000298023246 -0.49999950000000126
v -0.499996499999952 -0.20000000298023224 0.5000004999999987
v -0.49999749999994947 0.19499700516462304 -0.4999995000000014
v -0.499996499999952 0.19499700516462326 0.5000004999999986
v -0.49999749999994947 0.19499700516462304 -0.4999995000000014
v -0.499996499999952 -0.20000000298023224 0.5000004999999987
v 0.5000114870224479 0.19499599188566208 0.49999949999201415
v -0.499996499999952 0.19499700516462326 0.5000004999999986
v 0.500003500000048 -0.20000000298023224 0.49999950000000126
v -0.499996499999952 -0.20000000298023224 0.5000004999999987
v 0.500003500000048 -0.20000000298023224 0.49999950000000126
v -0.499996499999952 0.19499700516462326 0.5000004999999986
v 0.5000114870224479 0.19499599188566208 0.49999949999201415
v 0.500003500000048 -0.20000000298023224 0.49999950000000126
v 0.5000109870324627 0.19499599188566197 0.000009513572336472542
v 0.500003000002046 -0.20000000298023235 0.0000014967556012379646
v 0.5000109870324627 0.19499599188566197 0.000009513572336472542
v 0.500003500000048 -0.20000000298023224 0.49999950000000126
v -0.49999749999994947 0.19499700516462304 -0.4999995000000014
v -0.499996499999952 0.19499700516462326 0.5000004999999986
v -0.000013499999909072358 0.19499700516462304 -0.49999999998400013
v 0.5000114870224479 0.19499599188566208 0.49999949999201415
v 0.5000109870324627 0.19499599188566197 0.000009513572336472542
v -0.499996499999952 0.19499700516462326 0.5000004999999986
v -0.499996499999952 0.19499700516462326 0.5000004999999986
v 0.5000109870324627 0.19499599188566197 0.000009513572336472542
v -0.000013499999909072358 0.19499700516462304 -0.49999999998400013
v -0.49999749999994947 0.19499700516462304 -0.4999995000000014
v -0.000013499999909072358 0.19499700516462304 -0.49999999998400013
v -0.49999749999994947 -0.20000000298023246 -0.49999950000000126
v -0.000013499999909072358 -0.20000000298023246 -0.499999999984
v -0.49999749999994947 -0.20000000298023246 -0.49999950000000126
v -0.000013499999909072358 0.19499700516462304 -0.49999999998400013
v 0.5000109870324627 0.19499599188566197 0.000009513572336472542
v 0.500003000002046 -0.20000000298023235 0.0000014967556012379646
v -0.000013499999909072358 0.19499700516462304 -0.49999999998400013
v 0.500003000002046 -0.20000000298023235 0.0000014967556012379646
v -0.000013499999909072358 -0.20000000298023246 -0.499999999984
v -0.000013499999909072358 0.19499700516462304 -0.49999999998400013
vt 0.03641200065612793 0.7073880434036255
vt 0.11727999895811081 0.7073880434036255
vt 0.03641200065612793 0.738556981086731
vt 0.11727999895811081 0.738556981086731
vt 0.03641200065612793 0.738556981086731
vt 0.11727999895811081 0.7073880434036255
vt 0.1165589988231659 0.738286018371582
vt 0.015065999701619148 0.738286018371582
vt 0.11654599756002426 0.7074010372161865
vt 0.015077999792993069 0.7074010372161865
vt 0.11654599756002426 0.7074010372161865
vt 0.015065999701619148 0.738286018371582
vt 0.11727999895811081 0.738556981086731
vt 0.11727999895811081 0.7073880434036255
vt 0.06873100250959396 0.738556981086731
vt 0.06872999668121338 0.7073880434036255
vt 0.06873100250959396 0.738556981086731
vt 0.11727999895811081 0.7073880434036255
vt 0.12837499380111694 0.6886969804763794
vt 0.12837499380111694 0.5769590139389038
vt 0.058959998190402985 0.6886969804763794
vt 0.012752000242471695 0.5769590139389038
vt 0.012752000242471695 0.6441190242767334
vt 0.12837499380111694 0.5769590139389038
vt 0.12837499380111694 0.5769590139389038
vt 0.012752000242471695 0.6441190242767334
vt 0.058959998190402985 0.6886969804763794
vt 0.04630599915981293 0.738286018371582
vt 0.09831500053405762 0.738286018371582
vt 0.04631900042295456 0.7074010372161865
vt 0.09831299632787704 0.7074010372161865
vt 0.04631900042295456 0.7074010372161865
vt 0.09831500053405762 0.738286018371582
vt 0.09747300297021866 0.7381489872932434
vt 0.09747099876403809 0.7074249982833862
vt 0.04411900043487549 0.7381489872932434
vt 0.09747099876403809 0.7074249982833862
vt 0.04411900043487549 0.7074249982833862
vt 0.04411900043487549 0.7381489872932434
vn -0.9999999999995002 1.16165485957577e-22 9.99999997474743e-7
vn -0.9999999999995002 1.16165485957577e-22 9.99999997474743e-7
vn -0.9999999999995002 1.16165485957577e-22 9.99999997474743e-7
vn -0.9999999999995002 1.16165485957577e-22 9.99999997474743e-7
vn -0.9999999999995002 1.16165485957577e-22 9.99999997474743e-7
vn -0.9999999999995002 1.16165485957577e-22 9.99999997474743e-7
vn 9.99999997474743e-7 2.2204460492502618e-16 0.9999999999995002
vn 9.99999997474743e-7 2.2204460492502618e-16 0.9999999999995002
vn 9.99999997474743e-7 2.2204460492502618e-16 0.9999999999995002
vn 9.99999997474743e-7 2.2204460492502618e-16 0.9999999999995002
vn 9.99999997474743e-7 2.2204460492502618e-16 0.9999999999995002
vn 9.99999997474743e-7 2.2204460492502618e-16 0.9999999999995002
vn 0.9999999998190001 -0.00001899999915280175 -9.999999972942388e-7
vn 0.9999999998190001 -0.00001899999915280175 -9.999999972942388e-7
vn 0.9999999998190001 -0.00001899999915280175 -9.999999972942388e-7
vn 0.9999999998190001 -0.00001899999915280175 -9.999999972942388e-7
vn 0.9999999998190001 -0.00001899999915280175 -9.999999972942388e-7
vn 0.9999999998190001 -0.00001899999915280175 -9.999999972942388e-7
vn -1.1616548595757696e-22 1 -2.2204460492502613e-16
vn -1.1616548595757696e-22 1 -2.2204460492502613e-16
vn -1.1616548595757696e-22 1 -2.2204460492502613e-16
vn -1.1616548595757696e-22 1 -2.2204460492502613e-16
vn -1.1616548595757696e-22 1 -2.2204460492502613e-16
vn -1.1616548595757696e-22 1 -2.2204460492502613e-16
vn -1.1616548595757696e-22 1 -2.2204460492502613e-16
vn -1.1616548595757696e-22 1 -2.2204460492502613e-16
vn -1.1616548595757696e-22 1 -2.2204460492502613e-16
vn -9.99999997474743e-7 -2.2204460492502618e-16 -0.9999999999995002
vn -9.99999997474743e-7 -2.2204460492502618e-16 -0.9999999999995002
vn -9.99999997474743e-7 -2.2204460492502618e-16 -0.9999999999995002
vn -9.99999997474743e-7 -2.2204460492502618e-16 -0.9999999999995002
vn -9.99999997474743e-7 -2.2204460492502618e-16 -0.9999999999995002
vn -9.99999997474743e-7 -2.2204460492502618e-16 -0.9999999999995002
vn 0.7070965670661965 -1.5701143895917381e-16 -0.7071169951593581
vn 0.7070965670661965 -1.5701143895917381e-16 -0.7071169951593581
vn 0.7070965670661965 -1.5701143895917381e-16 -0.7071169951593581
vn 0.7070965670661965 -1.5701143895917381e-16 -0.7071169951593581
vn 0.7070965670661965 -1.5701143895917381e-16 -0.7071169951593581
vn 0.7070965670661965 -1.5701143895917381e-16 -0.7071169951593581
f 1/1/1 2/2/2 3/3/3
f 4/4/4 5/5/5 6/6/6
f 7/7/7 8/8/8 9/9/9
f 10/10/10 11/11/11 12/12/12
f 13/13/13 14/14/14 15/15/15
f 16/16/16 17/17/17 18/18/18
f 19/19/19 20/20/20 21/21/21
f 22/22/22 23/23/23 24/24/24
f 25/25/25 26/26/26 27/27/27
f 28/28/28 29/29/29 30/30/30
f 31/31/31 32/32/32 33/33/33
f 34/34/34 35/35/35 36/36/36
f 37/37/37 38/38/38 39/39/39
