mtllib jun_mudpool_nw.mtl
o tile_boundary_statue
usemtl PDX08_-_Default
v -0.5 0.19499998539686203 0.5000000000000001
v -0.5 0.19499998539686225 -0.4999999999999999
v -0.5 -0.20000000298023224 0.5
v -0.5 -0.20000000298023202 -0.5
v -0.5 -0.20000000298023224 0.5
v -0.5 0.19499998539686225 -0.4999999999999999
v -0.5 0.19499998539686225 -0.4999999999999999
v -0.05555199831724167 0.19499998539686225 -0.38888901472091664
v 0.5000079870223999 0.19499998539686225 -0.4999999999999999
v 0.5 -0.20000000298023202 -0.5
v -0.5 -0.20000000298023202 -0.5
v 0.5000079870223999 0.19499998539686225 -0.4999999999999999
v -0.5 0.19499998539686225 -0.4999999999999999
v 0.5000079870223999 0.19499998539686225 -0.4999999999999999
v -0.5 -0.20000000298023202 -0.5
v -0.5 0.19499998539686225 -0.4999999999999999
v -0.38888800144195557 0.19499998539686214 -0.055555999279022106
v -0.22324399650096893 0.1949999853968622 -0.2423499822616576
v 0.5000079870223999 0.0729300007224083 0.5
v 0.5 0.0729300007224084 0.05555599927902227
v 0.1666720062494278 0.07293000072240838 0.1666670143604279
v 0.1666720062494278 0.07293000072240838 0.1666670143604279
v 0.055560000240802765 0.0729300007224084 0.05555599927902227
v -0.5 0.19499998539686203 0.5000000000000001
v -0.5 0.19499998539686225 -0.4999999999999999
v -0.22324399650096893 0.1949999853968622 -0.2423499822616576
v -0.05555199831724167 0.19499998539686225 -0.38888901472091664
v -0.05555199831724167 0.19499998539686225 -0.38888901472091664
v -0.22324399650096893 0.1949999853968622 -0.2423499822616576
v 0.055560000240802765 0.0729300007224084 0.05555599927902227
v 0.5000079870223999 0.0729300007224083 0.5
v 0.1666720062494278 0.07293000072240838 0.1666670143604279
v 0.055560000240802765 0.0729300007224083 0.5000039999999899
v 0.055560000240802765 0.0729300007224083 0.5000039999999899
v 0.1666720062494278 0.07293000072240838 0.1666670143604279
v -0.5 0.19499998539686203 0.5000000000000001
v -0.5 0.19499998539686225 -0.4999999999999999
v -0.5 0.19499998539686203 0.5000000000000001
v -0.38888800144195557 0.19499998539686214 -0.055555999279022106
v -0.38888800144195557 0.19499998539686214 -0.055555999279022106
v -0.5 0.19499998539686203 0.5000000000000001
v 0.055560000240802765 0.0729300007224084 0.05555599927902227
v -0.22324399650096893 0.1949999853968622 -0.2423499822616576
v -0.38888800144195557 0.19499998539686214 -0.055555999279022106
v 0.055560000240802765 0.0729300007224084 0.05555599927902227
v 0.5 0.0729300007224084 0.05555599927902227
v 0.5000079870223999 0.19499998539686225 -0.4999999999999999
v 0.1666720062494278 0.07293000072240838 0.1666670143604279
v 0.1666720062494278 0.07293000072240838 0.1666670143604279
v 0.5000079870223999 0.19499998539686225 -0.4999999999999999
v 0.055560000240802765 0.0729300007224084 0.05555599927902227
v 0.055560000240802765 0.0729300007224084 0.05555599927902227
v 0.5000079870223999 0.19499998539686225 -0.4999999999999999
v -0.05555199831724167 0.19499998539686225 -0.38888901472091664
v 0.055560000240802765 0.0729300007224083 0.5000039999999899
v 0.5 -0.20000000298023224 0.5
v 0.5000079870223999 0.0729300007224083 0.5
v 0.055560000240802765 0.0729300007224083 0.5000039999999899
v -0.5 0.19499998539686203 0.5000000000000001
v 0.5 -0.20000000298023224 0.5
v -0.5 0.19499998539686203 0.5000000000000001
v -0.5 -0.20000000298023224 0.5
v 0.5 -0.20000000298023224 0.5
v 0.5 0.0729300007224084 0.05555599927902227
v 0.5 -0.20000000298023224 0.5
v 0.5000079870223999 0.19499998539686225 -0.4999999999999999
v 0.5 -0.20000000298023224 0.5
v 0.5 -0.20000000298023202 -0.5
v 0.5000079870223999 0.19499998539686225 -0.4999999999999999
v 0.5000079870223999 0.0729300007224083 0.5
v 0.5 -0.20000000298023224 0.5
v 0.5 0.0729300007224084 0.05555599927902227
vt 0.3088720142841339 0.9877169728279114
vt 0.019449999555945396 0.9877169728279114
vt 0.3088720142841339 0.9129149913787842
vt 0.019449999555945396 0.9129149913787842
vt 0.3088720142841339 0.9129149913787842
vt 0.019449999555945396 0.9877169728279114
vt 0.007992999628186226 0.9921550154685974
vt 0.22674399614334106 0.9374669790267944
vt 0.5001829862594604 0.9921550154685974
vt 0.30884599685668945 0.9129279851913452
vt 0.019310999661684036 0.9129279851913452
vt 0.30886200070381165 0.9874449968338013
vt 0.019293999299407005 0.9874449968338013
vt 0.30886200070381165 0.9874449968338013
vt 0.019310999661684036 0.9129279851913452
vt 0.007992999628186226 0.9921550154685974
vt 0.06268099695444107 0.7734050154685974
vt 0.14420799911022186 0.8653429746627808
vt 0.5001829862594604 0.499966025352478
vt 0.5001800060272217 0.7187169790267944
vt 0.33612000942230225 0.6640290021896362
vt 0.33612000942230225 0.6640290021896362
vt 0.28143200278282166 0.7187169790267944
vt 0.007992999628186226 0.499966025352478
vt 0.007992999628186226 0.9921550154685974
vt 0.14420799911022186 0.8653429746627808
vt 0.22674399614334106 0.9374669790267944
vt 0.22674399614334106 0.9374669790267944
vt 0.14420799911022186 0.8653429746627808
vt 0.28143200278282166 0.7187169790267944
vt 0.5001829862594604 0.499966025352478
vt 0.33612000942230225 0.6640290021896362
vt 0.28143200278282166 0.49996399879455566
vt 0.28143200278282166 0.49996399879455566
vt 0.33612000942230225 0.6640290021896362
vt 0.007992999628186226 0.499966025352478
vt 0.007992999628186226 0.9921550154685974
vt 0.007992999628186226 0.499966025352478
vt 0.06268099695444107 0.7734050154685974
vt 0.06268099695444107 0.7734050154685974
vt 0.007992999628186226 0.499966025352478
vt 0.28143200278282166 0.7187169790267944
vt 0.14420799911022186 0.8653429746627808
vt 0.06268099695444107 0.7734050154685974
vt 0.28143200278282166 0.7187169790267944
vt 0.5001800060272217 0.7187169790267944
vt 0.5001829862594604 0.9921550154685974
vt 0.33612000942230225 0.6640290021896362
vt 0.33612000942230225 0.6640290021896362
vt 0.5001829862594604 0.9921550154685974
vt 0.28143200278282166 0.7187169790267944
vt 0.28143200278282166 0.7187169790267944
vt 0.5001829862594604 0.9921550154685974
vt 0.22674399614334106 0.9374669790267944
vt 0.1216140016913414 0.990198016166687
vt 0.19866600632667542 1.045915961265564
vt 0.1986670047044754 0.990198016166687
vt 0.1216140016913414 0.990198016166687
vt 0.025296999141573906 0.9652789831161499
vt 0.19866600632667542 1.045915961265564
vt 0.025296999141573906 0.9652789831161499
vt 0.025296999141573906 1.045915961265564
vt 0.19866600632667542 1.045915961265564
vt 0.10117299854755402 0.9620090126991272
vt 0.02014799974858761 1.0273469686508179
vt 0.19939100742340088 0.936847984790802
vt 0.02014799974858761 1.0273469686508179
vt 0.1946289986371994 1.0194079875946045
vt 0.19939100742340088 0.936847984790802
vt 0.018843999132514 0.9585440158843994
vt 0.02014799974858761 1.0273469686508179
vt 0.10117299854755402 0.9620090126991272
vn -1 0 0
vn -1 0 0
vn -1 0 0
vn -1 0 0
vn -1 0 0
vn -1 0 0
vn 0 1 2.220446049250313e-16
vn 0.04605099707122282 0.9938899390730448 0.1003099929125987
vn 0.027893008553590927 0.9806963762476977 0.19353707057942063
vn 0 2.220446049250313e-16 -1
vn 0 2.220446049250313e-16 -1
vn 0 2.220446049250313e-16 -1
vn 0 2.220446049250313e-16 -1
vn 0 2.220446049250313e-16 -1
vn 0 2.220446049250313e-16 -1
vn 0 1 2.220446049250313e-16
vn 0.0999540346232185 0.9939173038869757 0.04623401341637479
vn 0.09792401838746842 0.9902721685403048 0.09885301632895725
vn 0 1 2.220446049250313e-16
vn 0.04318298445436046 0.9906326637861161 0.12954595822964976
vn 0.03646999998966924 0.998669053391316 0.03646999998966946
vn 0.03646999998966924 0.998669053391316 0.03646999998966946
vn 0.07957003139109112 0.9936503609984538 0.07954602562078972
vn 0.1935349577802458 0.9806967936179605 0.027892993823716825
vn 0 1 2.220446049250313e-16
vn 0.09792401838746842 0.9902721685403048 0.09885301632895725
vn 0.04605099707122282 0.9938899390730448 0.1003099929125987
vn 0.04605099707122282 0.9938899390730448 0.1003099929125987
vn 0.09792401838746842 0.9902721685403048 0.09885301632895725
vn 0.07957003139109112 0.9936503609984538 0.07954602562078972
vn 0 1 2.220446049250313e-16
vn 0.03646999998966924 0.998669053391316 0.03646999998966946
vn 0.12954498644033938 0.9906328776285405 0.04318099407806261
vn 0.12954498644033938 0.9906328776285405 0.04318099407806261
vn 0.03646999998966924 0.998669053391316 0.03646999998966946
vn 0.1935349577802458 0.9806967936179605 0.027892993823716825
vn 0 1 2.220446049250313e-16
vn 0.1935349577802458 0.9806967936179605 0.027892993823716825
vn 0.0999540346232185 0.9939173038869757 0.04623401341637479
vn 0.0999540346232185 0.9939173038869757 0.04623401341637479
vn 0.1935349577802458 0.9806967936179605 0.027892993823716825
vn 0.07957003139109112 0.9936503609984538 0.07954602562078972
vn 0.09792401838746842 0.9902721685403048 0.09885301632895725
vn 0.0999540346232185 0.9939173038869757 0.04623401341637479
vn 0.07957003139109112 0.9936503609984538 0.07954602562078972
vn 0.04318298445436046 0.9906326637861161 0.12954595822964976
vn 0.027893008553590927 0.9806963762476977 0.19353707057942063
vn 0.03646999998966924 0.998669053391316 0.03646999998966946
vn 0.03646999998966924 0.998669053391316 0.03646999998966946
vn 0.027893008553590927 0.9806963762476977 0.19353707057942063
vn 0.07957003139109112 0.9936503609984538 0.07954602562078972
vn 0.07957003139109112 0.9936503609984538 0.07954602562078972
vn 0.027893008553590927 0.9806963762476977 0.19353707057942063
vn 0.04605099707122282 0.9938899390730448 0.1003099929125987
vn 0.000007999999979545941 -2.220446049179259e-16 0.999999999968
vn 0.000007999999979545941 -2.220446049179259e-16 0.999999999968
vn 0.000007999999979545941 -2.220446049179259e-16 0.999999999968
vn -0.000015999999945387885 -0.0000389999986165498 0.9999999991115001
vn -0.000015999999945387885 -0.0000389999986165498 0.9999999991115001
vn -0.000015999999945387885 -0.0000389999986165498 0.9999999991115001
vn 0 -2.220446049250313e-16 1
vn 0 -2.220446049250313e-16 1
vn 0.000007999999979545941 -2.220446049179259e-16 0.999999999968
vn 0.9999999993195001 0.000030999999559576506 0.000019999999481147513
vn 0.9999999993195001 0.000030999999559576506 0.000019999999481147513
vn 0.9999999993195001 0.000030999999559576506 0.000019999999481147513
vn 0.9999999998195002 -0.00001899999915279225 -4.218847305457685e-21
vn 0.9999999998195002 -0.00001899999915279225 -4.218847305457685e-21
vn 0.9999999998195002 -0.00001899999915279225 -4.218847305457685e-21
vn 0.9999999994800002 -0.00002800000036949415 -0.000015999999951283892
vn 0.9999999994800002 -0.00002800000036949415 -0.000015999999951283892
vn 0.9999999994800002 -0.00002800000036949415 -0.000015999999951283892
f 1/1/1 2/2/2 3/3/3
f 4/4/4 5/5/5 6/6/6
f 7/7/7 8/8/8 9/9/9
f 10/10/10 11/11/11 12/12/12
f 13/13/13 14/14/14 15/15/15
f 16/16/16 17/17/17 18/18/18
f 19/19/19 20/20/20 21/21/21
f 22/22/22 23/23/23 24/24/24
f 25/25/25 26/26/26 27/27/27
f 28/28/28 29/29/29 30/30/30
f 31/31/31 32/32/32 33/33/33
f 34/34/34 35/35/35 36/36/36
f 37/37/37 38/38/38 39/39/39
f 40/40/40 41/41/41 42/42/42
f 43/43/43 44/44/44 45/45/45
f 46/46/46 47/47/47 48/48/48
f 49/49/49 50/50/50 51/51/51
f 52/52/52 53/53/53 54/54/54
f 55/55/55 56/56/56 57/57/57
f 58/58/58 59/59/59 60/60/60
f 61/61/61 62/62/62 63/63/63
f 64/64/64 65/65/65 66/66/66
f 67/67/67 68/68/68 69/69/69
f 70/70/70 71/71/71 72/72/72
