mtllib jun_tile_w_boundary_edge.mtl
o tile_boundary_edged_half
usemtl PDX01_-_Default
v -0.004041486299513508 -0.20000000298023224 -0.49999999595600364
v -0.4999974899654376 -0.20000000298023224 -0.49999950000000126
v -0.004041486299513508 0.19499700516462326 -0.49999999595600364
v -0.4999974899654376 0.19499700516462326 -0.49999950000000126
v -0.004041486299513508 0.19499700516462326 -0.49999999595600364
v -0.4999974899654376 -0.20000000298023224 -0.49999950000000126
v -0.4999964899574531 0.19499599188566208 0.5000084870223986
v -0.4999974899654376 0.19499700516462326 -0.49999950000000126
v -0.4999964899654401 -0.20000000298023224 0.5000004999999987
v -0.4999974899654376 -0.20000000298023224 -0.49999950000000126
v -0.4999964899654401 -0.20000000298023224 0.5000004999999987
v -0.4999974899654376 0.19499700516462326 -0.49999950000000126
v -0.4999964899574531 0.19499599188566208 0.5000084870223986
v -0.4999964899654401 -0.20000000298023224 0.5000004999999987
v -0.000006503537775370827 0.19499599188566208 0.5000079870324134
v 0.000001513278959919262 -0.20000000298023224 0.5000000000019967
v -0.000006503537775370827 0.19499599188566208 0.5000079870324134
v -0.4999964899654401 -0.20000000298023224 0.5000004999999987
v -0.4999964899574531 0.19499599188566208 0.5000084870223986
v -0.000006503537775370827 0.19499599188566208 0.5000079870324134
v -0.4999974899654376 0.19499700516462326 -0.49999950000000126
v -0.4999974899654376 0.19499700516462326 -0.49999950000000126
v -0.000006503537775370827 0.19499599188566208 0.5000079870324134
v -0.004041486299513508 0.19499700516462326 -0.49999999595600364
v -0.000006503537775370827 0.19499599188566208 0.5000079870324134
v 0.000001513278959919262 -0.20000000298023224 0.5000000000019967
v -0.004041486299513508 0.19499700516462326 -0.49999999595600364
v 0.000001513278959919262 -0.20000000298023224 0.5000000000019967
v -0.004041486299513508 -0.20000000298023224 -0.49999999595600364
v -0.004041486299513508 0.19499700516462326 -0.49999999595600364
vt 0.04869699850678444 0.7078930139541626
vt 0.09387499839067459 0.7078930139541626
vt 0.04869699850678444 0.7380520105361938
vt 0.09387499839067459 0.7380520105361938
vt 0.04869699850678444 0.7380520105361938
vt 0.09387499839067459 0.7078930139541626
vt 0.1165589988231659 0.738286018371582
vt 0.015065999701619148 0.738286018371582
vt 0.11654599756002426 0.7074010372161865
vt 0.015077999792993069 0.7074010372161865
vt 0.11654599756002426 0.7074010372161865
vt 0.015065999701619148 0.738286018371582
vt 0.11727999895811081 0.7380520105361938
vt 0.11727999895811081 0.7078930139541626
vt 0.07934600114822388 0.7380520105361938
vt 0.07934500277042389 0.7078930139541626
vt 0.07934600114822388 0.7380520105361938
vt 0.11727999895811081 0.7078930139541626
vt 0.012752000242471695 0.5769590139389038
vt 0.012752000242471695 0.6441190242767334
vt 0.12837499380111694 0.5769590139389038
vt 0.12837499380111694 0.5769590139389038
vt 0.012752000242471695 0.6441190242767334
vt 0.12825900316238403 0.6442559957504272
vt 0.12173700332641602 0.7376430034637451
vt 0.12173499912023544 0.7084360122680664
vt 0.021371999755501747 0.7376430034637451
vt 0.12173499912023544 0.7084360122680664
vt 0.02137099951505661 0.7084360122680664
vt 0.021371999755501747 0.7376430034637451
vn -9.999999974752427e-7 0 -0.9999999999995002
vn -9.999999974752427e-7 0 -0.9999999999995002
vn -9.999999974752427e-7 0 -0.9999999999995002
vn -9.999999974752427e-7 0 -0.9999999999995002
vn -9.999999974752427e-7 0 -0.9999999999995002
vn -9.999999974752427e-7 0 -0.9999999999995002
vn -0.9999999999995002 0 9.999999974752427e-7
vn -0.9999999999995002 0 9.999999974752427e-7
vn -0.9999999999995002 0 9.999999974752427e-7
vn -0.9999999999995002 0 9.999999974752427e-7
vn -0.9999999999995002 0 9.999999974752427e-7
vn -0.9999999999995002 0 9.999999974752427e-7
vn 9.999999972947427e-7 -0.00001899999915280175 0.9999999998190001
vn 9.999999972947427e-7 -0.00001899999915280175 0.9999999998190001
vn 9.999999972947427e-7 -0.00001899999915280175 0.9999999998190001
vn 9.999999972947427e-7 -0.00001899999915280175 0.9999999998190001
vn 9.999999972947427e-7 -0.00001899999915280175 0.9999999998190001
vn 9.999999972947427e-7 -0.00001899999915280175 0.9999999998190001
vn 0 1 0
vn 0 1 0
vn 0 1 0
vn 0 1 0
vn 0 1 0
vn 0 1 0
vn 0.9999918591763405 0.00001899999675664528 -0.004034999386148853
vn 0.9999918591763405 0.00001899999675664528 -0.004034999386148853
vn 0.9999918591763405 0.00001899999675664528 -0.004034999386148853
vn 0.999991831088301 0 -0.004041999092901298
vn 0.999991831088301 0 -0.004041999092901298
vn 0.999991831088301 0 -0.004041999092901298
f 1/1/1 2/2/2 3/3/3
f 4/4/4 5/5/5 6/6/6
f 7/7/7 8/8/8 9/9/9
f 10/10/10 11/11/11 12/12/12
f 13/13/13 14/14/14 15/15/15
f 16/16/16 17/17/17 18/18/18
f 19/19/19 20/20/20 21/21/21
f 22/22/22 23/23/23 24/24/24
f 25/25/25 26/26/26 27/27/27
f 28/28/28 29/29/29 30/30/30
