mtllib med_tile_s_boundary_edge.mtl
o tile_boundary_edge
usemtl PDX08_-_Default
v -0.4999965197677625 -0.20000000298023224 0.5000004999999987
v 0.5000034802322375 -0.20000000298023224 0.49999950000000126
v -0.4999965197677625 0.14500000327825546 0.5000004999999987
v 0.5000034802322375 0.14500000327825546 0.49999950000000126
v -0.4999965197677625 0.14500000327825546 0.5000004999999987
v 0.5000034802322375 -0.20000000298023224 0.49999950000000126
v 0.5000029802292387 0.14500000327825546 -0.000003500000104850187
v 0.5000034802322375 0.14500000327825546 0.49999950000000126
v 0.5000029802362388 -0.20000000298023224 0.0000034999999911633495
v 0.5000034802322375 -0.20000000298023224 0.49999950000000126
v 0.5000029802362388 -0.20000000298023224 0.0000034999999911633495
v 0.5000034802322375 0.14500000327825546 0.49999950000000126
v -0.4999965197677625 0.14500000327825546 0.5000004999999987
v 0.5000034802322375 0.14500000327825546 0.49999950000000126
v -0.49999701975176125 0.14500000327825546 0.000016499999958342006
v 0.5000034802322375 0.14500000327825546 0.49999950000000126
v 0.5000029802292387 0.14500000327825546 -0.000003500000104850187
v -0.49999701975176125 0.14500000327825546 0.000016499999958342006
v -0.4999965197677625 0.14500000327825546 0.5000004999999987
v -0.49999701975176125 0.14500000327825546 0.000016499999958342006
v -0.4999965197677625 -0.20000000298023224 0.5000004999999987
v -0.49999701975176125 -0.20000000298023224 0.000016499999958342006
v -0.4999965197677625 -0.20000000298023224 0.5000004999999987
v -0.49999701975176125 0.14500000327825546 0.000016499999958342006
v 0.5000029802292387 0.14500000327825546 -0.000003500000104850187
v 0.5000029802362388 -0.20000000298023224 0.0000034999999911633495
v -0.49999701975176125 0.14500000327825546 0.000016499999958342006
v 0.5000029802362388 -0.20000000298023224 0.0000034999999911633495
v -0.49999701975176125 -0.20000000298023224 0.000016499999958342006
v -0.49999701975176125 0.14500000327825546 0.000016499999958342006
vt 0.4487049877643585 0.6490130424499512
vt 0.6216149926185608 0.6490130424499512
vt 0.4487049877643585 0.7072669863700867
vt 0.6216149926185608 0.7072669863700867
vt 0.4487049877643585 0.7072669863700867
vt 0.6216149926185608 0.6490130424499512
vt 0.6213740110397339 0.7068589925765991
vt 0.4493370056152344 0.7068589925765991
vt 0.6213449835777283 0.6473250389099121
vt 0.4493649899959564 0.6473250389099121
vt 0.6213449835777283 0.6473250389099121
vt 0.4493370056152344 0.7068589925765991
vt 0.7016149759292603 0.986801028251648
vt 0.7016149759292603 0.8669860363006592
vt 0.7615200281143188 0.986801028251648
vt 0.7016149759292603 0.8669860363006592
vt 0.7617890238761902 0.8670920133590698
vt 0.7615200281143188 0.986801028251648
vt 0.6729059815406799 0.7068589925765991
vt 0.5900670289993286 0.7068589925765991
vt 0.6728780269622803 0.6473250389099121
vt 0.590071976184845 0.6473250389099121
vt 0.6728780269622803 0.6473250389099121
vt 0.5900670289993286 0.7068589925765991
vt 0.4513869881629944 0.6470659971237183
vt 0.4513869881629944 0.7068120241165161
vt 0.6229119896888733 0.6470659971237183
vt 0.4513869881629944 0.7068120241165161
vt 0.6229119896888733 0.7068110108375549
vt 0.6229119896888733 0.6470659971237183
vn 9.999999974752427e-7 0 0.9999999999995002
vn 9.999999974752427e-7 0 0.9999999999995002
vn 9.999999974752427e-7 0 0.9999999999995002
vn 9.999999974752427e-7 0 0.9999999999995002
vn 9.999999974752427e-7 0 0.9999999999995002
vn 9.999999974752427e-7 0 0.9999999999995002
vn 0.9999999999995002 0 -9.999999974752427e-7
vn 0.9999999999995002 0 -9.999999974752427e-7
vn 0.9999999999995002 0 -9.999999974752427e-7
vn 0.9999999999980002 0 -0.0000019999999949489857
vn 0.9999999999995002 0 -9.999999974752427e-7
vn 0.9999999999995002 0 -9.999999974752427e-7
vn 0 1 0
vn 0 1 0
vn 0 1 0
vn 0 1 0
vn 0 1 0
vn 0 1 0
vn -0.9999999999995002 0 9.999999974752427e-7
vn -0.9999999999995002 0 9.999999974752427e-7
vn -0.9999999999995002 0 9.999999974752427e-7
vn -0.9999999999995002 0 9.999999974752427e-7
vn -0.9999999999995002 0 9.999999974752427e-7
vn -0.9999999999995002 0 9.999999974752427e-7
vn -0.000019999999145237492 -0.00002200000016254502 -0.9999999995580001
vn -0.000019999999145237492 -0.00002200000016254502 -0.9999999995580001
vn -0.000019999999145237492 -0.00002200000016254502 -0.9999999995580001
vn -0.000013000000420983507 0 -0.9999999999155
vn -0.000013000000420983507 0 -0.9999999999155
vn -0.000013000000420983507 0 -0.9999999999155
f 1/1/1 2/2/2 3/3/3
f 4/4/4 5/5/5 6/6/6
f 7/7/7 8/8/8 9/9/9
f 10/10/10 11/11/11 12/12/12
f 13/13/13 14/14/14 15/15/15
f 16/16/16 17/17/17 18/18/18
f 19/19/19 20/20/20 21/21/21
f 22/22/22 23/23/23 24/24/24
f 25/25/25 26/26/26 27/27/27
f 28/28/28 29/29/29 30/30/30
