mtllib med_tile_boundary.mtl
o tile_boundary02
usemtl PDX08_-_Default
v 0.5 -0.20000000298023224 0.5
v 0.5 -0.20000000298023202 -0.5
v 0.5000079870223999 0.14500000327825546 0.5
v 0.5000079870223999 0.14500000327825568 -0.5
v 0.5000079870223999 0.14500000327825546 0.5
v 0.5 -0.20000000298023202 -0.5
v -0.5 0.14500000327825546 0.5
v -0.5 0.14500000327825568 -0.5
v -0.5 -0.20000000298023224 0.5
v -0.5 -0.20000000298023202 -0.5
v -0.5 -0.20000000298023224 0.5
v -0.5 0.14500000327825568 -0.5
v -0.5 0.14500000327825568 -0.5
v -0.5 0.14500000327825546 0.5
v 0.5000079870223999 0.14500000327825568 -0.5
v 0.5000079870223999 0.14500000327825546 0.5
v 0.5000079870223999 0.14500000327825568 -0.5
v -0.5 0.14500000327825546 0.5
v -0.5 -0.20000000298023224 0.5
v 0.5 -0.20000000298023224 0.5
v -0.5 0.14500000327825546 0.5
v 0.5000079870223999 0.14500000327825546 0.5
v -0.5 0.14500000327825546 0.5
v 0.5 -0.20000000298023224 0.5
v 0.5 -0.20000000298023202 -0.5
v -0.5 -0.20000000298023202 -0.5
v 0.5000079870223999 0.14500000327825568 -0.5
v -0.5 0.14500000327825568 -0.5
v 0.5000079870223999 0.14500000327825568 -0.5
v -0.5 -0.20000000298023202 -0.5
vt 0.3610610067844391 0.77435702085495
vt 0.20366500318050385 0.77435702085495
vt 0.3610610067844391 0.8081539869308472
vt 0.20366500318050385 0.8081539869308472
vt 0.3610610067844391 0.8081539869308472
vt 0.20366500318050385 0.77435702085495
vt 0.3610610067844391 0.8081539869308472
vt 0.20366500318050385 0.8081539869308472
vt 0.3610610067844391 0.77435702085495
vt 0.20366500318050385 0.77435702085495
vt 0.3610610067844391 0.77435702085495
vt 0.20366500318050385 0.8081539869308472
vt 0.705132007598877 0.9857149720191956
vt 0.705132007598877 0.8751440048217773
vt 0.8207539916038513 0.9857149720191956
vt 0.8207539916038513 0.8751440048217773
vt 0.8207539916038513 0.9857149720191956
vt 0.705132007598877 0.8751440048217773
vt 0.2034579962491989 0.7743769884109497
vt 0.36325201392173767 0.7743769884109497
vt 0.20343300700187683 0.8077499866485596
vt 0.36327698826789856 0.8077499866485596
vt 0.20343300700187683 0.8077499866485596
vt 0.36325201392173767 0.7743769884109497
vt 0.36325201392173767 0.7743769884109497
vt 0.2034579962491989 0.7743769884109497
vt 0.36327698826789856 0.8077499866485596
vt 0.20343300700187683 0.8077499866485596
vt 0.36327698826789856 0.8077499866485596
vt 0.2034579962491989 0.7743769884109497
vn 0.999999999758 -0.000022000000166505017 -4.8849813453222294e-21
vn 0.999999999758 -0.000022000000166505017 -4.8849813453222294e-21
vn 0.999999999758 -0.000022000000166505017 -4.8849813453222294e-21
vn 0.999999999758 -0.000022000000166505017 -4.8849813453222294e-21
vn 0.999999999758 -0.000022000000166505017 -4.8849813453222294e-21
vn 0.999999999758 -0.000022000000166505017 -4.8849813453222294e-21
vn -1 0 0
vn -1 0 0
vn -1 0 0
vn -1 0 0
vn -1 0 0
vn -1 0 0
vn 0 1 2.220446049250313e-16
vn 0 1 2.220446049250313e-16
vn 0 1 2.220446049250313e-16
vn 0 1 2.220446049250313e-16
vn 0 1 2.220446049250313e-16
vn 0 1 2.220446049250313e-16
vn 0 -2.220446049250313e-16 1
vn 0 -2.220446049250313e-16 1
vn 0 -2.220446049250313e-16 1
vn 0 -2.220446049250313e-16 1
vn 0 -2.220446049250313e-16 1
vn 0 -2.220446049250313e-16 1
vn 0 2.220446049250313e-16 -1
vn 0 2.220446049250313e-16 -1
vn 0 2.220446049250313e-16 -1
vn 0 2.220446049250313e-16 -1
vn 0 2.220446049250313e-16 -1
vn 0 2.220446049250313e-16 -1
f 1/1/1 2/2/2 3/3/3
f 4/4/4 5/5/5 6/6/6
f 7/7/7 8/8/8 9/9/9
f 10/10/10 11/11/11 12/12/12
f 13/13/13 14/14/14 15/15/15
f 16/16/16 17/17/17 18/18/18
f 19/19/19 20/20/20 21/21/21
f 22/22/22 23/23/23 24/24/24
f 25/25/25 26/26/26 27/27/27
f 28/28/28 29/29/29 30/30/30
