mtllib med_tile_slide.mtl
o tile_slide
usemtl PDX08_-_Default
v -0.5 -0.01912800222635247 -0.5
v -0.5 -0.01912800222635269 0.5
v 0.5000079870223999 -0.01912800222635247 -0.5
v 0.5000079870223999 -0.01912800222635269 0.5
v 0.5000079870223999 -0.01912800222635247 -0.5
v -0.5 -0.01912800222635269 0.5
vt 0.8347370028495789 0.9955539703369141
vt 0.8347370028495789 0.860073983669281
vt 0.9724680185317993 0.9955539703369141
vt 0.9724680185317993 0.860073983669281
vt 0.9724680185317993 0.9955539703369141
vt 0.8347370028495789 0.860073983669281
vn 0 1 2.220446049250313e-16
vn 0 1 2.220446049250313e-16
vn 0 1 2.220446049250313e-16
vn 0 1 2.220446049250313e-16
vn 0 1 2.220446049250313e-16
vn 0 1 2.220446049250313e-16
f 1/1/1 2/2/2 3/3/3
f 4/4/4 5/5/5 6/6/6
