mtllib med_tile_ne_boundary_sml_corner.mtl
o boundary_edge_sml
usemtl PDX08_-_Default
v -0.0025909999612849788 0.14500000327825568 -0.5
v 0.4974119860917199 0.14500000327825557 0.0000010132789612371518
v 0.4974119860917199 0.14500000327825568 -0.5
v 0.4974119860917199 0.14500000327825568 -0.5
v 0.4974119860917199 0.14500000327825557 0.0000010132789612371518
v 0.49740399906932 -0.20000000298023202 -0.5
v 0.49740399906932 -0.20000000298023213 -0.000006973743438720703
v 0.49740399906932 -0.20000000298023202 -0.5
v 0.4974119860917199 0.14500000327825557 0.0000010132789612371518
v 0.4974119860917199 0.14500000327825568 -0.5
v 0.49740399906932 -0.20000000298023202 -0.5
v -0.0025909999612849788 0.14500000327825568 -0.5
v -0.002591999968899472 -0.20000000298023202 -0.5
v -0.0025909999612849788 0.14500000327825568 -0.5
v 0.49740399906932 -0.20000000298023202 -0.5
v -0.002591999968899472 -0.20000000298023202 -0.5
v 0.49740399906932 -0.20000000298023213 -0.000006973743438720703
v -0.0025909999612849788 0.14500000327825568 -0.5
v 0.4974119860917199 0.14500000327825557 0.0000010132789612371518
v -0.0025909999612849788 0.14500000327825568 -0.5
v 0.49740399906932 -0.20000000298023213 -0.000006973743438720703
vt 0.7617040276527405 0.9864180088043213
vt 0.8213750123977661 0.9274920225143433
vt 0.8213750123977661 0.9864180088043213
vt 0.4486500024795532 0.7066680192947388
vt 0.5349950194358826 0.7066680192947388
vt 0.4486500024795532 0.6497380137443542
vt 0.5349940061569214 0.6497380137443542
vt 0.4486500024795532 0.6497380137443542
vt 0.5349950194358826 0.7066680192947388
vt 0.5354819893836975 0.707893967628479
vt 0.5354650020599365 0.6505919694900513
vt 0.4484289884567261 0.707893967628479
vt 0.4484260082244873 0.6505919694900513
vt 0.4484289884567261 0.707893967628479
vt 0.5354650020599365 0.6505919694900513
vt 0.5349829792976379 0.6499350070953369
vt 0.4488160014152527 0.6499210000038147
vt 0.535306990146637 0.7075549960136414
vt 0.44883599877357483 0.7077230215072632
vt 0.535306990146637 0.7075549960136414
vt 0.4488160014152527 0.6499210000038147
vn 0 1 2.220446049250313e-16
vn 0 1 2.220446049250313e-16
vn 0 1 2.220446049250313e-16
vn 0.999999999758 -0.000022000000166505017 -4.8849813453222294e-21
vn 0.999999999758 -0.000022000000166505017 -4.8849813453222294e-21
vn 0.999999999758 -0.000022000000166505017 -4.8849813453222294e-21
vn 0.999999999758 -0.000022000000166505017 -4.8849813453222294e-21
vn 0.999999999758 -0.000022000000166505017 -4.8849813453222294e-21
vn 0.999999999758 -0.000022000000166505017 -4.8849813453222294e-21
vn 0 2.220446049250313e-16 -1
vn 0 2.220446049250313e-16 -1
vn 0 2.220446049250313e-16 -1
vn 0 2.220446049250313e-16 -1
vn 0 2.220446049250313e-16 -1
vn 0 2.220446049250313e-16 -1
vn -0.7071047844281783 -1.5700968923654872e-16 0.7071087779392782
vn -0.7071047844281783 -1.5700968923654872e-16 0.7071087779392782
vn -0.7071047844281783 -1.5700968923654872e-16 0.7071087779392782
vn -0.7071047844281783 -1.5700968923654872e-16 0.7071087779392782
vn -0.7071047844281783 -1.5700968923654872e-16 0.7071087779392782
vn -0.7071047844281783 -1.5700968923654872e-16 0.7071087779392782
f 1/1/1 2/2/2 3/3/3
f 4/4/4 5/5/5 6/6/6
f 7/7/7 8/8/8 9/9/9
f 10/10/10 11/11/11 12/12/12
f 13/13/13 14/14/14 15/15/15
f 16/16/16 17/17/17 18/18/18
f 19/19/19 20/20/20 21/21/21
