mtllib med_console_n.mtl
o tile_console
usemtl PDX08_-_Default
v 0.5 -0.20000000298023224 -0.5
v -0.5 -0.20000000298023224 -0.5
v 0.5 0.14500000327825546 -0.5000079870223999
v -0.5 0.14500000327825546 -0.5000079870223999
v 0.5 0.14500000327825546 -0.5000079870223999
v -0.5 -0.20000000298023224 -0.5
v 0.5 0.14500000327825546 0.5
v -0.5 0.14500000327825546 0.5
v 0.5 -0.20000000298023224 0.5
v -0.5 -0.20000000298023224 0.5
v 0.5 -0.20000000298023224 0.5
v -0.5 0.14500000327825546 0.5
v 0.5 -0.20000000298023224 0.5
v 0.5 -0.20000000298023224 -0.5
v 0.5 0.14500000327825546 0.5
v 0.5 0.14500000327825546 -0.5000079870223999
v 0.5 0.14500000327825546 0.5
v 0.5 -0.20000000298023224 -0.5
v -0.5 -0.20000000298023224 -0.5
v -0.5 -0.20000000298023224 0.5
v -0.5 0.14500000327825546 -0.5000079870223999
v -0.5 0.14500000327825546 0.5
v -0.5 0.14500000327825546 -0.5000079870223999
v -0.5 -0.20000000298023224 0.5
v -0.2231069803237915 0.7029580101370811 -0.1859229952096939
v 0.22311198711395264 0.7029580101370811 -0.1859070062637329
v -0.2231069803237915 0.6599779948592186 -0.3780609965324402
v 0.22311198711395264 0.7029580101370811 -0.1859070062637329
v 0.22311300039291382 0.6599779948592186 -0.3780739903450012
v -0.2231069803237915 0.6599779948592186 -0.3780609965324402
v -0.22310799360275269 0.5418880209326744 -0.1859229952096939
v -0.2231069803237915 0.7029580101370811 -0.1859229952096939
v -0.2231069803237915 0.5418880209326744 -0.3780609965324402
v -0.2231069803237915 0.6599779948592186 -0.3780609965324402
v -0.2231069803237915 0.5418880209326744 -0.3780609965324402
v -0.2231069803237915 0.7029580101370811 -0.1859229952096939
v -0.2231069803237915 0.7029580101370811 -0.1859229952096939
v -0.22310799360275269 0.5418880209326744 -0.1859229952096939
v 0.22311198711395264 0.7029580101370811 -0.1859070062637329
v 0.22311300039291382 0.5418880209326744 -0.3780739903450012
v 0.22311300039291382 0.6599779948592186 -0.3780739903450012
v 0.22311100363731384 0.5418880209326744 -0.1859070062637329
v 0.22311198711395264 0.7029580101370811 -0.1859070062637329
v 0.22311100363731384 0.5418880209326744 -0.1859070062637329
v 0.22311300039291382 0.6599779948592186 -0.3780739903450012
v -0.2231069803237915 0.5418880209326744 -0.3780609965324402
v -0.2231069803237915 0.6599779948592186 -0.3780609965324402
v 0.22311300039291382 0.5418880209326744 -0.3780739903450012
v 0.22311300039291382 0.6599779948592186 -0.3780739903450012
v 0.22311300039291382 0.5418880209326744 -0.3780739903450012
v -0.2231069803237915 0.6599779948592186 -0.3780609965324402
v -0.22310799360275269 0.5418880209326744 -0.1859229952096939
v 0.22311100363731384 0.5418880209326744 -0.1859070062637329
v 0.22311198711395264 0.7029580101370811 -0.1859070062637329
v -0.2231069803237915 0.5418880209326744 -0.3780609965324402
v -0.31083399057388306 0.14368899911642075 -0.3780609965324402
v -0.22310799360275269 0.5418880209326744 -0.1859229952096939
v -0.31083500385284424 0.14368899911642075 -0.1859229952096939
v -0.22310799360275269 0.5418880209326744 -0.1859229952096939
v -0.31083399057388306 0.14368899911642075 -0.3780609965324402
v 0.22311100363731384 0.5418880209326744 -0.1859070062637329
v 0.3108379989862442 0.14368800073862076 -0.1859070062637329
v 0.22311300039291382 0.5418880209326744 -0.3780739903450012
v 0.3108399957418442 0.14368800073862076 -0.3780739903450012
v 0.22311300039291382 0.5418880209326744 -0.3780739903450012
v 0.3108379989862442 0.14368800073862076 -0.1859070062637329
v 0.22311300039291382 0.5418880209326744 -0.3780739903450012
v 0.3108399957418442 0.14368800073862076 -0.3780739903450012
v -0.2231069803237915 0.5418880209326744 -0.3780609965324402
v -0.31083399057388306 0.14368899911642075 -0.3780609965324402
v -0.2231069803237915 0.5418880209326744 -0.3780609965324402
v 0.3108399957418442 0.14368800073862076 -0.3780739903450012
v -0.22310799360275269 0.5418880209326744 -0.1859229952096939
v -0.31083500385284424 0.14368899911642075 -0.1859229952096939
v 0.22311100363731384 0.5418880209326744 -0.1859070062637329
v 0.3108379989862442 0.14368800073862076 -0.1859070062637329
v 0.22311100363731384 0.5418880209326744 -0.1859070062637329
v -0.31083500385284424 0.14368899911642075 -0.1859229952096939
v -0.31083399057388306 0.14368899911642075 -0.3780609965324402
v 0.3108399957418442 0.14368800073862076 -0.3780739903450012
v -0.5 0.14500000327825546 -0.5000079870223999
v 0.3108399957418442 0.14368800073862076 -0.3780739903450012
v 0.5 0.14500000327825546 -0.5000079870223999
v -0.5 0.14500000327825546 -0.5000079870223999
v 0.3108379989862442 0.14368800073862076 -0.1859070062637329
v 0.5 0.14500000327825546 0.5
v 0.3108399957418442 0.14368800073862076 -0.3780739903450012
v 0.5 0.14500000327825546 0.5
v 0.5 0.14500000327825546 -0.5000079870223999
v 0.3108399957418442 0.14368800073862076 -0.3780739903450012
v -0.31083500385284424 0.14368899911642075 -0.1859229952096939
v -0.31083399057388306 0.14368899911642075 -0.3780609965324402
v -0.5 0.14500000327825546 0.5
v -0.31083399057388306 0.14368899911642075 -0.3780609965324402
v -0.5 0.14500000327825546 -0.5000079870223999
v -0.5 0.14500000327825546 0.5
v 0.3108379989862442 0.14368800073862076 -0.1859070062637329
v -0.31083500385284424 0.14368899911642075 -0.1859229952096939
v 0.5 0.14500000327825546 0.5
v -0.31083500385284424 0.14368899911642075 -0.1859229952096939
v -0.5 0.14500000327825546 0.5
v 0.5 0.14500000327825546 0.5
vt 0.3610610067844391 0.77435702085495
vt 0.20366500318050385 0.77435702085495
vt 0.3610610067844391 0.8081539869308472
vt 0.20366500318050385 0.8081539869308472
vt 0.3610610067844391 0.8081539869308472
vt 0.20366500318050385 0.77435702085495
vt 0.3610610067844391 0.8081539869308472
vt 0.20366500318050385 0.8081539869308472
vt 0.3610610067844391 0.77435702085495
vt 0.20366500318050385 0.77435702085495
vt 0.3610610067844391 0.77435702085495
vt 0.20366500318050385 0.8081539869308472
vt 0.2034579962491989 0.7743769884109497
vt 0.36325201392173767 0.7743769884109497
vt 0.20343300700187683 0.8077499866485596
vt 0.36327698826789856 0.8077499866485596
vt 0.20343300700187683 0.8077499866485596
vt 0.36325201392173767 0.7743769884109497
vt 0.36325201392173767 0.7743769884109497
vt 0.2034579962491989 0.7743769884109497
vt 0.36327698826789856 0.8077499866485596
vt 0.20343300700187683 0.8077499866485596
vt 0.36327698826789856 0.8077499866485596
vt 0.2034579962491989 0.7743769884109497
vt 0.9907050132751465 0.35225701332092285
vt 0.9907079935073853 0.494903028011322
vt 0.9416149854660034 0.35225600004196167
vt 0.9907079935073853 0.494903028011322
vt 0.9416069984436035 0.49490201473236084
vt 0.9416149854660034 0.35225600004196167
vt 0.4504930078983307 0.6546410322189331
vt 0.4823490083217621 0.6546410322189331
vt 0.4504930078983307 0.7009010314941406
vt 0.47467100620269775 0.7009010314941406
vt 0.4504930078983307 0.7009010314941406
vt 0.4849590063095093 0.6574339866638184
vt 0.9128810167312622 0.6192629933357239
vt 0.9128810167312622 0.592985987663269
vt 0.9764699935913086 0.6192629933357239
vt 0.4504930078983307 0.7009029984474182
vt 0.47467100620269775 0.7009029984474182
vt 0.4504930078983307 0.6546390056610107
vt 0.4823490083217621 0.6546390056610107
vt 0.4504930078983307 0.6546390056610107
vt 0.47467100620269775 0.7009029984474182
vt 0.9128819704055786 0.592985987663269
vt 0.9128819704055786 0.6111960411071777
vt 0.9764699935913086 0.592985987663269
vt 0.9764699935913086 0.6111960411071777
vt 0.9764699935913086 0.592985987663269
vt 0.9128819704055786 0.6111960411071777
vt 0.9128810167312622 0.592985987663269
vt 0.9764699935913086 0.592985987663269
vt 0.9764699935913086 0.6192629933357239
vt 0.5910210013389587 0.7031919956207275
vt 0.47955599427223206 0.7031919956207275
vt 0.5910210013389587 0.6505759954452515
vt 0.47955599427223206 0.6505759954452515
vt 0.5910210013389587 0.6505759954452515
vt 0.47955599427223206 0.7031919956207275
vt 0.5910210013389587 0.6505750417709351
vt 0.47955599427223206 0.6505750417709351
vt 0.5910210013389587 0.7031930088996887
vt 0.47955599427223206 0.7031930088996887
vt 0.5910210013389587 0.7031930088996887
vt 0.47955599427223206 0.6505750417709351
vt 0.9764699935913086 0.592985987663269
vt 0.988972008228302 0.5182459950447083
vt 0.9128819704055786 0.592985987663269
vt 0.90038001537323 0.5182459950447083
vt 0.9128819704055786 0.592985987663269
vt 0.988972008228302 0.5182459950447083
vt 0.9128810167312622 0.592985987663269
vt 0.90038001537323 0.5182459950447083
vt 0.9764699935913086 0.592985987663269
vt 0.988972008228302 0.5182459950447083
vt 0.9764699935913086 0.592985987663269
vt 0.90038001537323 0.5182459950447083
vt 0.8648660182952881 0.6128810048103333
vt 0.8648669719696045 0.5377739667892456
vt 0.8795980215072632 0.635733962059021
vt 0.8648669719696045 0.5377739667892456
vt 0.8795980215072632 0.5149210095405579
vt 0.8795980215072632 0.635733962059021
vt 0.8416510224342346 0.5377739667892456
vt 0.7587850093841553 0.5149210095405579
vt 0.8648669719696045 0.5377739667892456
vt 0.7587850093841553 0.5149210095405579
vt 0.8795980215072632 0.5149210095405579
vt 0.8648669719696045 0.5377739667892456
vt 0.8416529893875122 0.6128810048103333
vt 0.8648660182952881 0.6128810048103333
vt 0.7587850093841553 0.635733962059021
vt 0.8648660182952881 0.6128810048103333
vt 0.8795980215072632 0.635733962059021
vt 0.7587850093841553 0.635733962059021
vt 0.8416510224342346 0.5377739667892456
vt 0.8416529893875122 0.6128810048103333
vt 0.7587850093841553 0.5149210095405579
vt 0.8416529893875122 0.6128810048103333
vt 0.7587850093841553 0.635733962059021
vt 0.7587850093841553 0.5149210095405579
vn 0 -0.000022000000166505017 -0.999999999758
vn 0 -0.000022000000166505017 -0.999999999758
vn 0 -0.000022000000166505017 -0.999999999758
vn 0 -0.000022000000166505017 -0.999999999758
vn 0 -0.000022000000166505017 -0.999999999758
vn 0 -0.000022000000166505017 -0.999999999758
vn 0 0 1
vn 0 0 1
vn 0 0 1
vn 0 0 1
vn 0 0 1
vn 0 0 1
vn 1 0 0
vn 1 0 0
vn 1 0 0
vn 1 0 0
vn 1 0 0
vn 1 0 0
vn -1 0 0
vn -1 0 0
vn -1 0 0
vn -1 0 0
vn -1 0 0
vn -1 0 0
vn 0.000007999999500337729 0.9758819352830377 -0.2182989883719871
vn 0.000007999999500337729 0.9758819352830377 -0.2182989883719871
vn 0.000007999999500337729 0.9758819352830377 -0.2182989883719871
vn -0.000004999998001032426 0.9758886590161002 -0.21826892856922536
vn -0.000004999998001032426 0.9758886590161002 -0.21826892856922536
vn -0.000004999998001032426 0.9758886590161002 -0.21826892856922536
vn -0.999999999992 0 -0.000003999999989868971
vn -0.999999999992 0 -0.000003999999989868971
vn -0.999999999992 0 -0.000003999999989868971
vn -0.9999999999855 0.0000019999999949214855 -0.000004999999873616876
vn -0.999999999992 0 -0.000003999999989868971
vn -0.9999999999855 0.0000019999999949214855 -0.000004999999873616876
vn -0.00003500000091337753 0 0.9999999993875
vn -0.00003500000091337753 0 0.9999999993875
vn -0.00003500000091337753 0 0.9999999993875
vn 0.9999999999675 -9.999999974427427e-7 0.000007999999979541942
vn 0.9999999999675 -9.999999974427427e-7 0.000007999999979541942
vn 0.9999999999675 -9.999999974427427e-7 0.000007999999979541942
vn 0.9999999999675 -9.999999974427427e-7 0.000007999999979541942
vn 0.9999999999675 -9.999999974427427e-7 0.000007999999979541942
vn 0.9999999999675 -9.999999974427427e-7 0.000007999999979541942
vn -0.000029999999228621258 9.99999997024743e-7 -0.9999999995495001
vn -0.000029999999228621258 9.99999997024743e-7 -0.9999999995495001
vn -0.000029999999228621258 9.99999997024743e-7 -0.9999999995495001
vn -0.000029999999228621258 9.99999997024743e-7 -0.9999999995495001
vn -0.000029999999228621258 9.99999997024743e-7 -0.9999999995495001
vn -0.000029999999228621258 9.99999997024743e-7 -0.9999999995495001
vn -0.00003500000091337753 0 0.9999999993875
vn -0.00003500000091337753 0 0.9999999993875
vn -0.00003500000091337753 0 0.9999999993875
vn -0.9765810121305192 0.21515000984692226 -0.0000030000003012235174
vn -0.9765810121305192 0.21515000984692226 -0.0000030000003012235174
vn -0.9765810121305192 0.21515000984692226 -0.0000030000003012235174
vn -0.9765810121227065 0.21515000984520105 -0.000004999999895669447
vn -0.9765810121305192 0.21515000984692226 -0.0000030000003012235174
vn -0.9765810121305192 0.21515000984692226 -0.0000030000003012235174
vn 0.9765812235246346 0.21514905021897648 0.0000070000020249716955
vn 0.9765812235246346 0.21514905021897648 0.0000070000020249716955
vn 0.9765812235246346 0.21514905021897648 0.0000070000020249716955
vn 0.9765810120860848 0.21515000983713295 0.000009999999790963894
vn 0.9765812235246346 0.21514905021897648 0.0000070000020249716955
vn 0.9765812235246346 0.21514905021897648 0.0000070000020249716955
vn -0.000029999999228621258 9.99999997024743e-7 -0.9999999995495001
vn -0.000029999999227901256 -0.000007000000092692037 -0.9999999995255
vn -0.000029999999228621258 9.99999997024743e-7 -0.9999999995495001
vn -0.00002099999982840026 0.000004999999872524377 -0.9999999997670002
vn -0.000029999999228621258 9.99999997024743e-7 -0.9999999995495001
vn -0.00002099999982840026 0.000004999999872524377 -0.9999999997670002
vn -0.00003500000091337753 0 0.9999999993875
vn -0.00003500000091225753 0.000007999999974645942 0.9999999993555
vn -0.00003500000091337753 0 0.9999999993875
vn -0.000024999999360184384 -0.000006000000210242133 0.9999999996695002
vn -0.000024999999360184384 -0.000006000000210242133 0.9999999996695002
vn -0.000024999999360184384 -0.000006000000210242133 0.9999999996695002
vn 0.0000010000002095494006 0.9999422278005822 0.010749002754146515
vn 0.0000010000002095494006 0.9999422278005822 0.010749002754146515
vn 0.0000010000002095494006 0.9999422278005822 0.010749002754146515
vn 0.0000010000002095494006 0.9999422278005822 0.010749002754146515
vn 0 0.9999421525398517 0.010756001764958851
vn 0.0000010000002095494006 0.9999422278005822 0.010749002754146515
vn -0.006932999849563007 0.9999759664677377 0
vn -0.006932999849563007 0.9999759664677377 0
vn -0.006932999849563007 0.9999759664677377 0
vn -0.006932999849563007 0.9999759664677377 0
vn -0.006932999849563007 0.9999759664677377 0
vn -0.006932999849563007 0.9999759664677377 0
vn 0.006934000041903365 0.9999759595322374 9.99999977678849e-7
vn 0.006934000041903365 0.9999759595322374 9.99999977678849e-7
vn 0.006934000041903365 0.9999759595322374 9.99999977678849e-7
vn 0.006934000041903365 0.9999759595322374 9.99999977678849e-7
vn 0.006930000203684551 0.9999759872602827 0
vn 0.006934000041903365 0.9999759595322374 9.99999977678849e-7
vn 0.0000010000001851132524 0.999998172125071 -0.001912000396682788
vn 0.0000010000001851132524 0.999998172125071 -0.001912000396682788
vn 0.0000010000001851132524 0.999998172125071 -0.001912000396682788
vn 0.0000010000001851132524 0.999998172125071 -0.001912000396682788
vn 0 0.9999981721255711 -0.001912000396683744
vn 0.0000010000001851132524 0.999998172125071 -0.001912000396682788
f 1/1/1 2/2/2 3/3/3
f 4/4/4 5/5/5 6/6/6
f 7/7/7 8/8/8 9/9/9
f 10/10/10 11/11/11 12/12/12
f 13/13/13 14/14/14 15/15/15
f 16/16/16 17/17/17 18/18/18
f 19/19/19 20/20/20 21/21/21
f 22/22/22 23/23/23 24/24/24
f 25/25/25 26/26/26 27/27/27
f 28/28/28 29/29/29 30/30/30
f 31/31/31 32/32/32 33/33/33
f 34/34/34 35/35/35 36/36/36
f 37/37/37 38/38/38 39/39/39
f 40/40/40 41/41/41 42/42/42
f 43/43/43 44/44/44 45/45/45
f 46/46/46 47/47/47 48/48/48
f 49/49/49 50/50/50 51/51/51
f 52/52/52 53/53/53 54/54/54
f 55/55/55 56/56/56 57/57/57
f 58/58/58 59/59/59 60/60/60
f 61/61/61 62/62/62 63/63/63
f 64/64/64 65/65/65 66/66/66
f 67/67/67 68/68/68 69/69/69
f 70/70/70 71/71/71 72/72/72
f 73/73/73 74/74/74 75/75/75
f 76/76/76 77/77/77 78/78/78
f 79/79/79 80/80/80 81/81/81
f 82/82/82 83/83/83 84/84/84
f 85/85/85 86/86/86 87/87/87
f 88/88/88 89/89/89 90/90/90
f 91/91/91 92/92/92 93/93/93
f 94/94/94 95/95/95 96/96/96
f 97/97/97 98/98/98 99/99/99
f 100/100/100 101/101/101 102/102/102
