# Modified by OBJRotate180 (Mesh rotated 180 degrees around Y-axis)
# Original file: ss_console_s.obj
mtllib ss_console_s.mtl
v -0.499999 0.100000 0.499988
v 0.499995 0.100000 0.500005
v -0.499995 0.100000 -0.499980
v 0.499995 0.100000 0.500005
v 0.500002 0.100000 -0.499992
v -0.499995 0.100000 -0.499980
v 0.499995 0.100000 0.500005
v 0.499995 -0.200000 0.500005
v 0.500002 0.100000 -0.499992
v 0.499995 -0.200000 0.500005
v 0.500002 -0.200000 -0.499992
v 0.500002 0.100000 -0.499992
v -0.499995 0.100000 -0.499980
v -0.499995 -0.200000 -0.499980
v -0.499999 0.100000 0.499988
v -0.499995 -0.200000 -0.499980
v -0.499999 -0.200000 0.499988
v -0.499999 0.100000 0.499988
v 0.500002 0.100000 -0.499992
v 0.500002 -0.200000 -0.499992
v -0.499995 0.100000 -0.499980
v 0.500002 -0.200000 -0.499992
v -0.499995 -0.200000 -0.499980
v -0.499995 0.100000 -0.499980
v -0.499999 0.100000 0.499988
v -0.499999 -0.200000 0.499988
v 0.499995 0.100000 0.500005
v -0.499999 -0.200000 0.499988
v 0.499995 -0.200000 0.500005
v 0.499995 0.100000 0.500005
v -0.223108 0.692358 -0.252349
v 0.223112 0.692366 -0.252339
v -0.223107 0.638906 -0.381056
v 0.223112 0.692366 -0.252339
v 0.223113 0.638905 -0.381071
v -0.223107 0.638906 -0.381056
v 0.079843 0.541888 -0.237502
v 0.123111 0.100494 -0.237503
v 0.079845 0.541888 -0.381071
v 0.123111 0.100494 -0.237503
v 0.123113 0.100494 -0.381072
v 0.079845 0.541888 -0.381071
v -0.079839 0.541888 -0.381056
v -0.123107 0.100494 -0.381056
v -0.079840 0.541888 -0.237516
v -0.123107 0.100494 -0.381056
v -0.123108 0.100494 -0.237516
v -0.079840 0.541888 -0.237516
v 0.079845 0.541888 -0.381071
v 0.123113 0.100494 -0.381072
v -0.079839 0.541888 -0.381056
v 0.123113 0.100494 -0.381072
v -0.123107 0.100494 -0.381056
v -0.079839 0.541888 -0.381056
v -0.079840 0.541888 -0.237516
v -0.123108 0.100494 -0.237516
v 0.079843 0.541888 -0.237502
v -0.123108 0.100494 -0.237516
v 0.123111 0.100494 -0.237503
v 0.079843 0.541888 -0.237502
v -0.223108 0.541888 -0.237517
v -0.223108 0.681886 -0.237517
v -0.223107 0.541888 -0.381056
v -0.223107 0.638906 -0.381056
v -0.223107 0.541888 -0.381056
v -0.223108 0.692358 -0.252349
v 0.079843 0.541888 -0.237502
v 0.223111 0.681886 -0.237502
v -0.079840 0.541888 -0.237516
v -0.223108 0.681886 -0.237517
v -0.079840 0.541888 -0.237516
v 0.223111 0.681886 -0.237502
v 0.223113 0.541888 -0.381071
v 0.223113 0.638905 -0.381071
v 0.223111 0.541888 -0.237502
v 0.223111 0.681886 -0.237502
v 0.223111 0.541888 -0.237502
v 0.223113 0.638905 -0.381071
v -0.223111 0.590693 -0.444815
v -0.223111 0.629083 -0.444815
v 0.223110 0.590693 -0.444829
v 0.223110 0.629082 -0.444829
v 0.223110 0.590693 -0.444829
v -0.223111 0.629083 -0.444815
v -0.079840 0.541888 -0.237516
v -0.223108 0.541888 -0.237517
v -0.079839 0.541888 -0.381056
v -0.223107 0.541888 -0.381056
v -0.079839 0.541888 -0.381056
v -0.223108 0.541888 -0.237517
v -0.223108 0.541888 -0.237517
v -0.079840 0.541888 -0.237516
v -0.223108 0.681886 -0.237517
v 0.079845 0.541888 -0.381071
v 0.223113 0.541888 -0.381071
v 0.079843 0.541888 -0.237502
v 0.223111 0.541888 -0.237502
v 0.079843 0.541888 -0.237502
v 0.223113 0.541888 -0.381071
v 0.079843 0.541888 -0.237502
v 0.223111 0.541888 -0.237502
v 0.223111 0.681886 -0.237502
v 0.223113 0.638905 -0.381071
v 0.223110 0.629082 -0.444829
v -0.223107 0.638906 -0.381056
v -0.223111 0.629083 -0.444815
v -0.223107 0.638906 -0.381056
v 0.223110 0.629082 -0.444829
v -0.079839 0.541888 -0.381056
v -0.223111 0.590693 -0.444815
v 0.079845 0.541888 -0.381071
v 0.223110 0.590693 -0.444829
v 0.079845 0.541888 -0.381071
v -0.223111 0.590693 -0.444815
v -0.223107 0.638906 -0.381056
v -0.223111 0.629083 -0.444815
v -0.223107 0.541888 -0.381056
v -0.223111 0.590693 -0.444815
v -0.223107 0.541888 -0.381056
v -0.223111 0.629083 -0.444815
v 0.223113 0.541888 -0.381071
v 0.223110 0.590693 -0.444829
v 0.223113 0.638905 -0.381071
v 0.223110 0.629082 -0.444829
v 0.223113 0.638905 -0.381071
v 0.223110 0.590693 -0.444829
v -0.223107 0.541888 -0.381056
v -0.223111 0.590693 -0.444815
v -0.079839 0.541888 -0.381056
v 0.079845 0.541888 -0.381071
v 0.223110 0.590693 -0.444829
v 0.223113 0.541888 -0.381071
v 0.223112 0.692366 -0.252339
v 0.223111 0.681886 -0.237502
v 0.223113 0.638905 -0.381071
v -0.223108 0.681886 -0.237517
v 0.223112 0.692366 -0.252339
v -0.223108 0.692358 -0.252349
v 0.223112 0.692366 -0.252339
v -0.223108 0.681886 -0.237517
v 0.223111 0.681886 -0.237502
v -0.223108 0.681886 -0.237517
v -0.223108 0.692358 -0.252349
v -0.223107 0.541888 -0.381056
vt 0.127918 0.443460
vt 0.127919 0.557663
vt 0.013197 0.443459
vt 0.127919 0.557663
vt 0.013194 0.557663
vt 0.013197 0.443459
vt 0.126771 0.841928
vt 0.126771 0.817860
vt 0.015084 0.841927
vt 0.126771 0.817860
vt 0.015084 0.817860
vt 0.015084 0.841927
vt 0.015104 0.841927
vt 0.015104 0.817860
vt 0.126765 0.841928
vt 0.015104 0.817860
vt 0.126765 0.817860
vt 0.126765 0.841928
vt 0.126166 0.816725
vt 0.126166 0.839856
vt 0.016020 0.816725
vt 0.126166 0.839856
vt 0.016020 0.839856
vt 0.016020 0.816725
vt 0.016025 0.816724
vt 0.016025 0.839855
vt 0.126169 0.816724
vt 0.016025 0.839855
vt 0.126169 0.839856
vt 0.126169 0.816724
vt 0.244640 0.858551
vt 0.176401 0.858553
vt 0.244640 0.834760
vt 0.176401 0.858553
vt 0.176401 0.834756
vt 0.244640 0.834760
vt 0.764336 0.979956
vt 0.764336 0.872933
vt 0.743564 0.979956
vt 0.764336 0.872933
vt 0.743564 0.872933
vt 0.743564 0.979956
vt 0.743583 0.979956
vt 0.743583 0.872933
vt 0.764323 0.979956
vt 0.743583 0.872933
vt 0.764323 0.872933
vt 0.764323 0.979956
vt 0.774016 0.980159
vt 0.788190 0.872885
vt 0.721707 0.980159
vt 0.788190 0.872885
vt 0.707533 0.872885
vt 0.721707 0.980159
vt 0.721707 0.980159
vt 0.707533 0.872885
vt 0.774016 0.980159
vt 0.707533 0.872885
vt 0.788190 0.872885
vt 0.774016 0.980159
vt 0.070288 0.336053
vt 0.070288 0.315423
vt 0.040505 0.336053
vt 0.040505 0.321756
vt 0.040505 0.336053
vt 0.067210 0.313880
vt 0.067017 0.335684
vt 0.095180 0.315356
vt 0.035627 0.335684
vt 0.007465 0.315356
vt 0.035627 0.335684
vt 0.095180 0.315356
vt 0.040501 0.336053
vt 0.040501 0.321756
vt 0.070290 0.336053
vt 0.070290 0.315423
vt 0.070290 0.336053
vt 0.040501 0.321756
vt 0.006291 0.333141
vt 0.006291 0.322662
vt 0.098035 0.333141
vt 0.098035 0.322663
vt 0.098035 0.333141
vt 0.006291 0.322662
vt 0.039851 0.314588
vt 0.022822 0.314588
vt 0.039851 0.328603
vt 0.022822 0.328603
vt 0.039851 0.328603
vt 0.022822 0.314588
vt 0.007465 0.335684
vt 0.035627 0.335684
vt 0.007465 0.315356
vt 0.058831 0.328605
vt 0.075861 0.328605
vt 0.058831 0.314587
vt 0.075861 0.314587
vt 0.058831 0.314587
vt 0.075861 0.328605
vt 0.067017 0.335684
vt 0.095180 0.335684
vt 0.095180 0.315356
vt 0.176401 0.834756
vt 0.176402 0.822267
vt 0.244640 0.834760
vt 0.244640 0.822272
vt 0.244640 0.834760
vt 0.176402 0.822267
vt 0.039851 0.328603
vt 0.022821 0.334829
vt 0.058831 0.328605
vt 0.075860 0.334830
vt 0.058831 0.328605
vt 0.022821 0.334829
vt 0.040505 0.321756
vt 0.027276 0.323204
vt 0.040505 0.336053
vt 0.027276 0.328861
vt 0.040505 0.336053
vt 0.027276 0.323204
vt 0.040501 0.336053
vt 0.027272 0.328861
vt 0.040501 0.321756
vt 0.027272 0.323204
vt 0.040501 0.321756
vt 0.027272 0.328861
vt 0.022822 0.328603
vt 0.022821 0.334829
vt 0.039851 0.328603
vt 0.058831 0.328605
vt 0.075860 0.334830
vt 0.075861 0.328605
vt 0.067212 0.313879
vt 0.070290 0.315423
vt 0.040501 0.321756
vt 0.007465 0.315356
vt 0.095180 0.313835
vt 0.007465 0.313836
vt 0.095180 0.313835
vt 0.007465 0.315356
vt 0.095180 0.315356
vt 0.070288 0.315423
vt 0.067210 0.313880
vt 0.040505 0.336053
vn 0.000000 1.000000 0.000000
vn 0.000000 1.000000 0.000000
vn 0.000000 1.000000 0.000000
vn 0.000000 1.000000 0.000000
vn 0.000000 1.000000 0.000000
vn 0.000000 1.000000 0.000000
vn 1.000000 0.000000 0.000007
vn 1.000000 0.000000 0.000007
vn 1.000000 0.000000 0.000007
vn 1.000000 0.000000 0.000007
vn 1.000000 0.000000 0.000007
vn 1.000000 0.000000 0.000007
vn -1.000000 0.000000 -0.000004
vn -1.000000 0.000000 -0.000004
vn -1.000000 0.000000 -0.000004
vn -1.000000 0.000000 -0.000004
vn -1.000000 0.000000 -0.000004
vn -1.000000 0.000000 -0.000004
vn -0.000012 0.000000 -1.000000
vn -0.000012 0.000000 -1.000000
vn -0.000012 0.000000 -1.000000
vn -0.000012 0.000000 -1.000000
vn -0.000012 0.000000 -1.000000
vn -0.000012 0.000000 -1.000000
vn -0.000017 0.000000 1.000000
vn -0.000017 0.000000 1.000000
vn -0.000017 0.000000 1.000000
vn -0.000017 0.000000 1.000000
vn -0.000017 0.000000 1.000000
vn -0.000017 0.000000 1.000000
vn -0.000005 0.923523 -0.383544
vn -0.000005 0.923523 -0.383544
vn -0.000005 0.923523 -0.383544
vn -0.000011 0.923529 -0.383528
vn -0.000011 0.923529 -0.383528
vn -0.000011 0.923529 -0.383528
vn 0.995230 0.097558 0.000008
vn 0.995230 0.097558 0.000008
vn 0.995230 0.097558 0.000008
vn 0.995230 0.097558 0.000008
vn 0.995230 0.097558 0.000009
vn 0.995230 0.097558 0.000008
vn -0.995230 0.097558 -0.000004
vn -0.995230 0.097558 -0.000004
vn -0.995230 0.097558 -0.000004
vn -0.995230 0.097558 -0.000004
vn -0.995230 0.097558 -0.000004
vn -0.995230 0.097558 -0.000004
vn -0.000097 -0.000010 -1.000000
vn -0.000097 -0.000010 -1.000000
vn -0.000097 -0.000010 -1.000000
vn -0.000061 0.000007 -1.000000
vn -0.000061 0.000007 -1.000000
vn -0.000061 0.000007 -1.000000
vn -0.000085 0.000008 1.000000
vn -0.000085 0.000008 1.000000
vn -0.000085 0.000008 1.000000
vn -0.000056 -0.000005 1.000000
vn -0.000056 -0.000005 1.000000
vn -0.000056 -0.000005 1.000000
vn -1.000000 0.000000 -0.000004
vn -1.000000 0.000000 -0.000004
vn -1.000000 0.000000 -0.000004
vn -1.000000 0.000001 -0.000004
vn -1.000000 0.000000 -0.000004
vn -1.000000 0.000001 -0.000004
vn -0.000085 0.000079 1.000000
vn -0.000085 0.000079 1.000000
vn -0.000085 0.000079 1.000000
vn -0.000034 -0.000031 1.000000
vn -0.000034 -0.000031 1.000000
vn -0.000034 -0.000031 1.000000
vn 1.000000 -0.000001 0.000009
vn 1.000000 -0.000001 0.000009
vn 1.000000 -0.000001 0.000009
vn 1.000000 0.000000 0.000010
vn 1.000000 -0.000001 0.000009
vn 1.000000 -0.000001 0.000009
vn -0.000031 0.000002 -1.000000
vn -0.000031 0.000002 -1.000000
vn -0.000031 0.000002 -1.000000
vn -0.000031 0.000003 -1.000000
vn -0.000031 0.000002 -1.000000
vn -0.000031 0.000002 -1.000000
vn -0.000001 -1.000000 -0.000001
vn -0.000001 -1.000000 -0.000001
vn -0.000001 -1.000000 -0.000001
vn -0.000001 -1.000000 -0.000001
vn -0.000001 -1.000000 -0.000001
vn -0.000001 -1.000000 -0.000001
vn -0.000004 0.000000 1.000000
vn -0.000004 0.000000 1.000000
vn -0.000004 0.000000 1.000000
vn -0.000001 -1.000000 0.000000
vn -0.000001 -1.000000 0.000000
vn -0.000001 -1.000000 0.000000
vn -0.000001 -1.000000 0.000000
vn -0.000001 -1.000000 0.000000
vn -0.000001 -1.000000 0.000000
vn -0.000008 0.000000 1.000000
vn -0.000008 0.000000 1.000000
vn -0.000008 0.000000 1.000000
vn -0.000003 0.988339 -0.152267
vn -0.000003 0.988339 -0.152267
vn -0.000003 0.988339 -0.152267
vn -0.000004 0.988339 -0.152270
vn -0.000003 0.988339 -0.152267
vn -0.000003 0.988339 -0.152267
vn -0.000060 -0.794135 -0.607741
vn -0.000060 -0.794135 -0.607741
vn -0.000060 -0.794135 -0.607741
vn -0.000019 -0.794042 -0.607863
vn -0.000019 -0.794042 -0.607863
vn -0.000019 -0.794042 -0.607863
vn -1.000000 0.000001 0.000052
vn -1.000000 0.000001 0.000052
vn -1.000000 0.000001 0.000052
vn -1.000000 0.000002 0.000052
vn -1.000000 0.000001 0.000052
vn -1.000000 0.000001 0.000052
vn 1.000000 -0.000001 -0.000052
vn 1.000000 -0.000001 -0.000052
vn 1.000000 -0.000001 -0.000052
vn 1.000000 -0.000003 -0.000050
vn 1.000000 -0.000001 -0.000052
vn 1.000000 -0.000001 -0.000052
vn 0.000002 -0.794069 -0.607828
vn 0.000002 -0.794069 -0.607828
vn 0.000002 -0.794069 -0.607828
vn 0.000004 -0.794067 -0.607830
vn 0.000004 -0.794067 -0.607830
vn 0.000004 -0.794067 -0.607830
vn 1.000000 -0.000028 0.000018
vn 1.000000 -0.000028 0.000018
vn 1.000000 -0.000028 0.000018
vn -0.000028 0.816907 0.576770
vn -0.000028 0.816907 0.576770
vn -0.000028 0.816907 0.576770
vn -0.000020 0.816791 0.576934
vn -0.000020 0.816791 0.576934
vn -0.000020 0.816791 0.576934
vn -1.000000 0.000000 -0.000004
vn -1.000000 0.000001 -0.000004
vn -1.000000 0.000000 -0.000004
o console
o console
usemtl PDX01_-_Default
f 1/1/1 2/2/2 3/3/3
f 4/4/4 5/5/5 6/6/6
f 7/7/7 8/8/8 9/9/9
f 10/10/10 11/11/11 12/12/12
f 13/13/13 14/14/14 15/15/15
f 16/16/16 17/17/17 18/18/18
f 19/19/19 20/20/20 21/21/21
f 22/22/22 23/23/23 24/24/24
f 25/25/25 26/26/26 27/27/27
f 28/28/28 29/29/29 30/30/30
f 31/31/31 32/32/32 33/33/33
f 34/34/34 35/35/35 36/36/36
f 37/37/37 38/38/38 39/39/39
f 40/40/40 41/41/41 42/42/42
f 43/43/43 44/44/44 45/45/45
f 46/46/46 47/47/47 48/48/48
f 49/49/49 50/50/50 51/51/51
f 52/52/52 53/53/53 54/54/54
f 55/55/55 56/56/56 57/57/57
f 58/58/58 59/59/59 60/60/60
f 61/61/61 62/62/62 63/63/63
f 64/64/64 65/65/65 66/66/66
f 67/67/67 68/68/68 69/69/69
f 70/70/70 71/71/71 72/72/72
f 73/73/73 74/74/74 75/75/75
f 76/76/76 77/77/77 78/78/78
f 79/79/79 80/80/80 81/81/81
f 82/82/82 83/83/83 84/84/84
f 85/85/85 86/86/86 87/87/87
f 88/88/88 89/89/89 90/90/90
f 91/91/91 92/92/92 93/93/93
f 94/94/94 95/95/95 96/96/96
f 97/97/97 98/98/98 99/99/99
f 100/100/100 101/101/101 102/102/102
f 103/103/103 104/104/104 105/105/105
f 106/106/106 107/107/107 108/108/108
f 109/109/109 110/110/110 111/111/111
f 112/112/112 113/113/113 114/114/114
f 115/115/115 116/116/116 117/117/117
f 118/118/118 119/119/119 120/120/120
f 121/121/121 122/122/122 123/123/123
f 124/124/124 125/125/125 126/126/126
f 127/127/127 128/128/128 129/129/129
f 130/130/130 131/131/131 132/132/132
f 133/133/133 134/134/134 135/135/135
f 136/136/136 137/137/137 138/138/138
f 139/139/139 140/140/140 141/141/141
f 142/142/142 143/143/143 144/144/144
