mtllib ss_tile_nw_boundary_sml_corner.mtl
o boundary_small_corner
usemtl PDX01_-_Default
v -0.49999701977176114 0.1000019982457161 -0.0000034999999911628497
v 0.0000034935032142136002 0.1000019982457161 -0.5000079870234132
v -0.4999975197757469 0.1000019982457161 -0.5000074870224012
v -0.4999975197757469 0.1000019982457161 -0.5000074870224012
v 0.0000034935032142136002 0.1000019982457161 -0.5000079870234132
v -0.49999751976775997 -0.20000000298023224 -0.49999950000000126
v -0.000004493511198688793 -0.20000000298023224 -0.49999999999302625
v -0.49999751976775997 -0.20000000298023224 -0.49999950000000126
v 0.0000034935032142136002 0.1000019982457161 -0.5000079870234132
v -0.4999975197757469 0.1000019982457161 -0.5000074870224012
v -0.49999751976775997 -0.20000000298023224 -0.49999950000000126
v -0.49999701977176114 0.1000019982457161 -0.0000034999999911628497
v -0.49999701977176114 -0.20000000298023224 -0.0000034999999911628497
v -0.49999701977176114 0.1000019982457161 -0.0000034999999911628497
v -0.49999751976775997 -0.20000000298023224 -0.49999950000000126
v -0.49999701977176114 -0.20000000298023224 -0.0000034999999911628497
v -0.000004493511198688793 -0.20000000298023224 -0.49999999999302625
v -0.49999701977176114 0.1000019982457161 -0.0000034999999911628497
v 0.0000034935032142136002 0.1000019982457161 -0.5000079870234132
v -0.49999701977176114 0.1000019982457161 -0.0000034999999911628497
v -0.000004493511198688793 -0.20000000298023224 -0.49999999999302625
vt 0.7390739917755127 0.553846001625061
vt 0.7852810025215149 0.5096560120582581
vt 0.7852810025215149 0.553846001625061
vt 0.6949859857559204 0.3663480281829834
vt 0.7780449986457825 0.3663480281829834
vt 0.6949859857559204 0.3265039920806885
vt 0.7780439853668213 0.3265039920806885
vt 0.6949859857559204 0.3265039920806885
vt 0.7780449986457825 0.3663480281829834
vt 0.860846996307373 0.3660770058631897
vt 0.8608300089836121 0.3265169858932495
vt 0.777737021446228 0.3660770058631897
vt 0.7777339816093445 0.3265169858932495
vt 0.777737021446228 0.3660770058631897
vt 0.8608300089836121 0.3265169858932495
vt 0.7773650288581848 0.3284689784049988
vt 0.6950200200080872 0.32845598459243774
vt 0.777184009552002 0.36663299798965454
vt 0.6950399875640869 0.36680102348327637
vt 0.777184009552002 0.36663299798965454
vt 0.6950200200080872 0.32845598459243774
vn 0 1 0
vn 0 1 0
vn 0 1 0
vn -9.999999971627428e-7 -0.000024999999360646885 -0.9999999996870002
vn -9.999999971627428e-7 -0.000024999999360646885 -0.9999999996870002
vn -9.999999971627428e-7 -0.000024999999360646885 -0.9999999996870002
vn -9.999999971627428e-7 -0.000024999999360646885 -0.9999999996870002
vn -9.999999971627428e-7 -0.000024999999360646885 -0.9999999996870002
vn -9.999999971627428e-7 -0.000024999999360646885 -0.9999999996870002
vn -0.9999999999995002 0 9.999999974752427e-7
vn -0.9999999999995002 0 9.999999974752427e-7
vn -0.9999999999995002 0 9.999999974752427e-7
vn -0.9999999999995002 0 9.999999974752427e-7
vn -0.9999999999995002 0 9.999999974752427e-7
vn -0.9999999999995002 0 9.999999974752427e-7
vn 0.7071090082080955 0 0.7071045541579855
vn 0.7071090082080955 0 0.7071045541579855
vn 0.7071090082080955 0 0.7071045541579855
vn 0.7071094850433538 9.999997450650093e-7 0.7071040773186951
vn 0.7071090082080955 0 0.7071045541579855
vn 0.7071090082080955 0 0.7071045541579855
f 1/1/1 2/2/2 3/3/3
f 4/4/4 5/5/5 6/6/6
f 7/7/7 8/8/8 9/9/9
f 10/10/10 11/11/11 12/12/12
f 13/13/13 14/14/14 15/15/15
f 16/16/16 17/17/17 18/18/18
f 19/19/19 20/20/20 21/21/21
