mtllib ss_tile_boundary_vent.mtl
o tile_hazzard
usemtl PDX01_-_Default
v -0.49999699995787267 0.10000000149011612 0.49998999649013276
v 0.4999969999998939 0.10000000149011612 0.5000030000001062
v -0.4999970001499187 0.10000000149011612 -0.49997799585162284
v 0.4999969999998939 0.10000000149011612 0.5000030000001062
v 0.5000000197498071 0.10000000149011612 -0.499993989983214
v -0.4999970001499187 0.10000000149011612 -0.49997799585162284
v 0.4999969999998939 0.10000000149011612 0.5000030000001062
v 0.4999969999998939 -0.20000000298023224 0.5000030000001062
v 0.5000000197498071 0.10000000149011612 -0.499993989983214
v 0.4999969999998939 -0.20000000298023224 0.5000030000001062
v 0.5000000197498071 -0.20000000298023224 -0.499993989983214
v 0.5000000197498071 0.10000000149011612 -0.499993989983214
v -0.4999970001499187 0.10000000149011612 -0.49997799585162284
v -0.4999970001499187 -0.20000000298023224 -0.49997799585162284
v -0.49999699995787267 0.10000000149011612 0.49998999649013276
v -0.4999970001499187 -0.20000000298023224 -0.49997799585162284
v -0.49999699995787267 -0.20000000298023224 0.49998999649013276
v -0.49999699995787267 0.10000000149011612 0.49998999649013276
v 0.5000000197498071 0.10000000149011612 -0.499993989983214
v 0.5000000197498071 -0.20000000298023224 -0.499993989983214
v -0.4999970001499187 0.10000000149011612 -0.49997799585162284
v 0.5000000197498071 -0.20000000298023224 -0.499993989983214
v -0.4999970001499187 -0.20000000298023224 -0.49997799585162284
v -0.4999970001499187 0.10000000149011612 -0.49997799585162284
v -0.49999699995787267 0.10000000149011612 0.49998999649013276
v -0.49999699995787267 -0.20000000298023224 0.49998999649013276
v 0.4999969999998939 0.10000000149011612 0.5000030000001062
v -0.49999699995787267 -0.20000000298023224 0.49998999649013276
v 0.4999969999998939 -0.20000000298023224 0.5000030000001062
v 0.4999969999998939 0.10000000149011612 0.5000030000001062
vt 0.9160109758377075 0.6930049657821655
vt 0.7986990213394165 0.6930060386657715
vt 0.9160119891166687 0.5761399865150452
vt 0.7986990213394165 0.6930060386657715
vt 0.7986990213394165 0.5761370062828064
vt 0.9160119891166687 0.5761399865150452
vt 0.1293729990720749 0.84163498878479
vt 0.1293729990720749 0.817458987236023
vt 0.012264000251889229 0.8416340351104736
vt 0.1293729990720749 0.817458987236023
vt 0.012264000251889229 0.8174580335617065
vt 0.012264000251889229 0.8416340351104736
vt 0.012284999713301659 0.8416340351104736
vt 0.012284999713301659 0.817458987236023
vt 0.12936599552631378 0.84163498878479
vt 0.012284999713301659 0.817458987236023
vt 0.12936699390411377 0.8174600005149841
vt 0.12936599552631378 0.84163498878479
vt 0.12873899936676025 0.8394619822502136
vt 0.12873899936676025 0.8162679672241211
vt 0.013245999813079834 0.8394619822502136
vt 0.12873899936676025 0.8162679672241211
vt 0.013245999813079834 0.8162679672241211
vt 0.013245999813079834 0.8394619822502136
vt 0.013251000083982944 0.8394629955291748
vt 0.013251000083982944 0.8162689805030823
vt 0.12874199450016022 0.8394629955291748
vt 0.013251000083982944 0.8162689805030823
vt 0.12874199450016022 0.8162689805030823
vt 0.12874199450016022 0.8394629955291748
vn 0 1 0
vn 0 1 0
vn 0 1 0
vn 0 1 0
vn 0 1 0
vn 0 1 0
vn 0.9999999999955 0 0.0000030000001061530663
vn 0.9999999999955 0 0.0000030000001061530663
vn 0.9999999999955 0 0.0000030000001061530663
vn 0.9999999999955 0 0.0000030000001061530663
vn 0.9999999999955 0 0.0000030000001061530663
vn 0.9999999999955 0 0.0000030000001061530663
vn -1 0 -1.0800008890671234e-16
vn -1 0 -1.0800008890671234e-16
vn -1 0 -1.0800008890671234e-16
vn -1 0 -1.0800008890671234e-16
vn -1 0 -1.0800008890671234e-16
vn -1 0 -1.0800008890671234e-16
vn -0.000015999999955280373 0 -0.9999999998720002
vn -0.000015999999955280373 0 -0.9999999998720002
vn -0.000015999999955280373 0 -0.9999999998720002
vn -0.000015999999955280373 0 -0.9999999998720002
vn -0.000015999999955280373 0 -0.9999999998720002
vn -0.000015999999955280373 0 -0.9999999998720002
vn -0.00001300000030784968 0 0.9999999999155
vn -0.00001300000030784968 0 0.9999999999155
vn -0.00001300000030784968 0 0.9999999999155
vn -0.00001300000030784968 0 0.9999999999155
vn -0.00001300000030784968 0 0.9999999999155
vn -0.00001300000030784968 0 0.9999999999155
f 1/1/1 2/2/2 3/3/3
f 4/4/4 5/5/5 6/6/6
f 7/7/7 8/8/8 9/9/9
f 10/10/10 11/11/11 12/12/12
f 13/13/13 14/14/14 15/15/15
f 16/16/16 17/17/17 18/18/18
f 19/19/19 20/20/20 21/21/21
f 22/22/22 23/23/23 24/24/24
f 25/25/25 26/26/26 27/27/27
f 28/28/28 29/29/29 30/30/30
