mtllib ss_tile_nw_corner_static.mtl
o tile_corner_static
usemtl PDX01_-_Default
v -0.49999149999985104 -0.20000000298023252 -0.500008500000149
v -0.5000085000001491 -0.2000000029802324 0.49999149999985104
v -0.4999993300481934 -2.636779683484747e-16 -0.33393449233570693
v -0.5000006701899271 -1.8041124150158794e-16 0.3339314994269312
v -0.4999993300481934 -2.636779683484747e-16 -0.33393449233570693
v -0.5000085000001491 -0.2000000029802324 0.49999149999985104
v -0.4999993300481934 -2.636779683484747e-16 -0.33393449233570693
v -0.4999934410938067 0.10000000149011584 -0.3858265046083033
v -0.49999149999985104 -0.20000000298023252 -0.500008500000149
v -0.49999149999985104 0.10000000149011584 -0.500008500000149
v -0.49999149999985104 -0.20000000298023252 -0.500008500000149
v -0.4999934410938067 0.10000000149011584 -0.3858265046083033
v -0.5000085000001491 -0.2000000029802324 0.49999149999985104
v -0.5000085000001491 0.10000000149011595 0.499991499999851
v -0.5000006701899271 -1.8041124150158794e-16 0.3339314994269312
v -0.5000065589061933 0.10000000149011595 0.3858095046080053
v -0.5000006701899271 -1.8041124150158794e-16 0.3339314994269312
v -0.5000085000001491 0.10000000149011595 0.499991499999851
v 0.500008500000149 -0.2000000029802323 -0.49999149999985093
v -0.49999149999985104 -0.20000000298023252 -0.500008500000149
v 0.3339345072368681 -9.71445146547012e-17 -0.49999933004793995
v -0.3339315292292536 -2.3592239273284576e-16 -0.5000006701904338
v 0.3339345072368681 -9.71445146547012e-17 -0.49999933004793995
v -0.49999149999985104 -0.20000000298023252 -0.500008500000149
v -0.33607126201861026 -2.220446049250313e-16 -0.33605571707568643
v -0.3339315292292536 -2.3592239273284576e-16 -0.5000006701904338
v -0.38579344509923885 0.10000000149011587 -0.38582456320833736
v -0.38580950460800534 0.10000000149011587 -0.5000065589061933
v -0.38579344509923885 0.10000000149011587 -0.38582456320833736
v -0.3339315292292536 -2.3592239273284576e-16 -0.5000006701904338
v -0.4999934410938067 0.10000000149011584 -0.3858265046083033
v -0.4999993300481934 -2.636779683484747e-16 -0.33393449233570693
v -0.38579344509923885 0.10000000149011587 -0.38582456320833736
v -0.33607126201861026 -2.220446049250313e-16 -0.33605571707568643
v -0.38579344509923885 0.10000000149011587 -0.38582456320833736
v -0.4999993300481934 -2.636779683484747e-16 -0.33393449233570693
v -0.4999934410938067 0.10000000149011584 -0.3858265046083033
v -0.38579344509923885 0.10000000149011587 -0.38582456320833736
v -0.49999149999985104 0.10000000149011584 -0.500008500000149
v -0.38580950460800534 0.10000000149011587 -0.5000065589061933
v -0.49999149999985104 0.10000000149011584 -0.500008500000149
v -0.38579344509923885 0.10000000149011587 -0.38582456320833736
v -0.33607126201861026 -2.220446049250313e-16 -0.33605571707568643
v 0.3297310559149897 -4.163336342344337e-17 -0.0031393945388854022
v -0.3339315292292536 -2.3592239273284576e-16 -0.5000006701904338
v 0.3339345072368681 -9.71445146547012e-17 -0.49999933004793995
v -0.3339315292292536 -2.3592239273284576e-16 -0.5000006701904338
v 0.3297310559149897 -4.163336342344337e-17 -0.0031393945388854022
v 0.38582649715772266 0.10000000149011604 -0.4999934410939333
v 0.3339345072368681 -9.71445146547012e-17 -0.49999933004793995
v 0.38581799695357366 0.10000000149011609 0.000018558906491123322
v 0.3297310559149897 -4.163336342344337e-17 -0.0031393945388854022
v 0.38581799695357366 0.10000000149011609 0.000018558906491123322
v 0.3339345072368681 -9.71445146547012e-17 -0.49999933004793995
v -0.0031545785173564544 -6.938893903907228e-17 0.32973695408540876
v -0.5000006701899271 -1.8041124150158794e-16 0.3339314994269312
v 0.000008431679193454666 0.10000000149011606 0.38581699158403276
v -0.5000065589061933 0.10000000149011595 0.3858095046080053
v 0.000008431679193454666 0.10000000149011606 0.38581699158403276
v -0.5000006701899271 -1.8041124150158794e-16 0.3339314994269312
v -0.4999993300481934 -2.636779683484747e-16 -0.33393449233570693
v -0.5000006701899271 -1.8041124150158794e-16 0.3339314994269312
v -0.33607126201861026 -2.220446049250313e-16 -0.33605571707568643
v -0.0031545785173564544 -6.938893903907228e-17 0.32973695408540876
v -0.33607126201861026 -2.220446049250313e-16 -0.33605571707568643
v -0.5000006701899271 -1.8041124150158794e-16 0.3339314994269312
v 0.3297310559149897 -4.163336342344337e-17 -0.0031393945388854022
v -0.33607126201861026 -2.220446049250313e-16 -0.33605571707568643
v 0.2856382230137696 -2.7755575615628914e-17 0.16333785464967362
v 0.38581799695357366 0.10000000149011609 0.000018558906491123322
v 0.3297310559149897 -4.163336342344337e-17 -0.0031393945388854022
v 0.3391656417907931 0.10000000149011612 0.1972897640047786
v 0.2856382230137696 -2.7755575615628914e-17 0.16333785464967362
v 0.3391656417907931 0.10000000149011612 0.1972897640047786
v 0.3297310559149897 -4.163336342344337e-17 -0.0031393945388854022
v 0.500008500000149 0.10000000149011606 -0.49999149999985093
v 0.38581799695357366 0.10000000149011609 0.000018558906491123322
v 0.499991499999851 0.10000000149011617 0.5000085000001491
v 0.38582649715772266 0.10000000149011604 -0.4999934410939333
v 0.38581799695357366 0.10000000149011609 0.000018558906491123322
v 0.500008500000149 0.10000000149011606 -0.49999149999985093
v 0.000008431679193454666 0.10000000149011606 0.38581699158403276
v -0.5000085000001491 0.10000000149011595 0.499991499999851
v 0.499991499999851 0.10000000149011617 0.5000085000001491
v -0.5000065589061933 0.10000000149011595 0.3858095046080053
v -0.5000085000001491 0.10000000149011595 0.499991499999851
v 0.000008431679193454666 0.10000000149011606 0.38581699158403276
v 0.38581799695357366 0.10000000149011609 0.000018558906491123322
v 0.3391656417907931 0.10000000149011612 0.1972897640047786
v 0.499991499999851 0.10000000149011617 0.5000085000001491
v 0.49999149999985104 -0.20000000298023218 0.5000085000001491
v 0.500008500000149 -0.2000000029802323 -0.49999149999985093
v 0.499991499999851 0.10000000149011617 0.5000085000001491
v 0.500008500000149 0.10000000149011606 -0.49999149999985093
v 0.499991499999851 0.10000000149011617 0.5000085000001491
v 0.500008500000149 -0.2000000029802323 -0.49999149999985093
v -0.5000085000001491 -0.2000000029802324 0.49999149999985104
v 0.49999149999985104 -0.20000000298023218 0.5000085000001491
v -0.5000085000001491 0.10000000149011595 0.499991499999851
v 0.499991499999851 0.10000000149011617 0.5000085000001491
v -0.5000085000001491 0.10000000149011595 0.499991499999851
v 0.49999149999985104 -0.20000000298023218 0.5000085000001491
v -0.38580950460800534 0.10000000149011587 -0.5000065589061933
v -0.3339315292292536 -2.3592239273284576e-16 -0.5000006701904338
v -0.49999149999985104 0.10000000149011584 -0.500008500000149
v -0.49999149999985104 -0.20000000298023252 -0.500008500000149
v -0.49999149999985104 0.10000000149011584 -0.500008500000149
v -0.3339315292292536 -2.3592239273284576e-16 -0.5000006701904338
v 0.500008500000149 -0.2000000029802323 -0.49999149999985093
v 0.3339345072368681 -9.71445146547012e-17 -0.49999933004793995
v 0.500008500000149 0.10000000149011606 -0.49999149999985093
v 0.38582649715772266 0.10000000149011604 -0.4999934410939333
v 0.500008500000149 0.10000000149011606 -0.49999149999985093
v 0.3339345072368681 -9.71445146547012e-17 -0.49999933004793995
v 0.16270613073078216 -4.163336342344337e-17 0.28610577626456707
v -0.33607126201861026 -2.220446049250313e-16 -0.33605571707568643
v -0.0031545785173564544 -6.938893903907228e-17 0.32973695408540876
v 0.16270613073078216 -4.163336342344337e-17 0.28610577626456707
v -0.0031545785173564544 -6.938893903907228e-17 0.32973695408540876
v 0.19656721517519965 0.10000000149011609 0.339653346843033
v 0.000008431679193454666 0.10000000149011606 0.38581699158403276
v 0.19656721517519965 0.10000000149011609 0.339653346843033
v -0.0031545785173564544 -6.938893903907228e-17 0.32973695408540876
v 0.499991499999851 0.10000000149011617 0.5000085000001491
v 0.19656721517519965 0.10000000149011609 0.339653346843033
v 0.000008431679193454666 0.10000000149011606 0.38581699158403276
v 0.499991499999851 0.10000000149011617 0.5000085000001491
v 0.3391656417907931 0.10000000149011612 0.1972897640047786
v 0.19656721517519965 0.10000000149011609 0.339653346843033
v 0.2856382230137696 -2.7755575615628914e-17 0.16333785464967362
v 0.16270613073078216 -4.163336342344337e-17 0.28610577626456707
v 0.3391656417907931 0.10000000149011612 0.1972897640047786
v 0.19656721517519965 0.10000000149011609 0.339653346843033
v 0.3391656417907931 0.10000000149011612 0.1972897640047786
v 0.16270613073078216 -4.163336342344337e-17 0.28610577626456707
v 0.16270613073078216 -4.163336342344337e-17 0.28610577626456707
v 0.2856382230137696 -2.7755575615628914e-17 0.16333785464967362
v -0.33607126201861026 -2.220446049250313e-16 -0.33605571707568643
vt 0.11892499774694443 0.8173419833183289
vt 0.02181600034236908 0.8173419833183289
vt 0.10457400232553482 0.8328449726104736
vt 0.036166999489068985 0.8328449726104736
vt 0.10457400232553482 0.8328449726104736
vt 0.02181600034236908 0.8173419833183289
vt 0.10457400232553482 0.8328449726104736
vt 0.1078369989991188 0.8405960202217102
vt 0.11892499774694443 0.8173419833183289
vt 0.11892499774694443 0.8405960202217102
vt 0.11892499774694443 0.8173419833183289
vt 0.1078369989991188 0.8405960202217102
vt 0.02181600034236908 0.8173419833183289
vt 0.02181600034236908 0.8405960202217102
vt 0.036166999489068985 0.8328449726104736
vt 0.0329039990901947 0.8405960202217102
vt 0.036166999489068985 0.8328449726104736
vt 0.02181600034236908 0.8405960202217102
vt 0.02064099907875061 0.8191109895706177
vt 0.12207800149917603 0.8191109895706177
vt 0.035631999373435974 0.8310319781303406
vt 0.10708799958229065 0.8310319781303406
vt 0.035631999373435974 0.8310319781303406
vt 0.12207800149917603 0.8191109895706177
vt 0.06979899853467941 0.7268109917640686
vt 0.05086600035429001 0.7267979979515076
vt 0.06902699917554855 0.7540590167045593
vt 0.05086600035429001 0.7540990114212036
vt 0.06902699917554855 0.7540590167045593
vt 0.05086600035429001 0.7267979979515076
vt 0.0907140001654625 0.7541729807853699
vt 0.0919400006532669 0.7268030047416687
vt 0.06902699917554855 0.7540590167045593
vt 0.06979899853467941 0.7268109917640686
vt 0.06902699917554855 0.7540590167045593
vt 0.0919400006532669 0.7268030047416687
vt 0.4360960125923157 0.9723520278930664
vt 0.4507400095462799 0.9577080011367798
vt 0.45148900151252747 0.9877449870109558
vt 0.46612998843193054 0.9731029868125916
vt 0.45148900151252747 0.9877449870109558
vt 0.4507400095462799 0.9577080011367798
vt 0.1786320060491562 0.9030399918556213
vt 0.10009299963712692 0.9438509941101074
vt 0.17862899601459503 0.8844109773635864
vt 0.10009299963712692 0.8844109773635864
vt 0.17862899601459503 0.8844109773635864
vt 0.10009299963712692 0.9438509941101074
vt 0.26094499230384827 0.7542909979820251
vt 0.2591269910335541 0.726963996887207
vt 0.19126200675964355 0.7540819644927979
vt 0.19132399559020996 0.727092981338501
vt 0.19126200675964355 0.7540819644927979
vt 0.2591269910335541 0.726963996887207
vt 0.10727600008249283 0.7269890308380127
vt 0.047614000737667084 0.7269270420074463
vt 0.10904800146818161 0.7540439963340759
vt 0.04763700067996979 0.7539969682693481
vt 0.10904800146818161 0.7540439963340759
vt 0.047614000737667084 0.7269270420074463
vt 0.19694000482559204 0.9030399918556213
vt 0.19694000482559204 0.9864330291748047
vt 0.1786320060491562 0.9030399918556213
vt 0.14129899442195892 0.9864330291748047
vt 0.1786320060491562 0.9030399918556213
vt 0.19694000482559204 0.9864330291748047
vt 0.10009299963712692 0.9438509941101074
vt 0.1786320060491562 0.9030399918556213
vt 0.10383400321006775 0.9697530269622803
vt 0.19126200675964355 0.7540819644927979
vt 0.19132399559020996 0.727092981338501
vt 0.16856899857521057 0.7540559768676758
vt 0.16673600673675537 0.7269999980926514
vt 0.16856899857521057 0.7540559768676758
vt 0.19132399559020996 0.727092981338501
vt 0.4106900095939636 0.8352980017662048
vt 0.43070799112319946 0.9118019938468933
vt 0.4106900095939636 0.9885590076446533
vt 0.43070799112319946 0.8352980017662048
vt 0.43070799112319946 0.9118019938468933
vt 0.4106900095939636 0.8352980017662048
vt 0.48907700181007385 0.9671400189399719
vt 0.5665929913520813 0.9885590076446533
vt 0.4106900095939636 0.9885590076446533
vt 0.5665929913520813 0.9671400189399719
vt 0.5665929913520813 0.9885590076446533
vt 0.48907700181007385 0.9671400189399719
vt 0.43070799112319946 0.9118019938468933
vt 0.43643298745155334 0.9424239993095398
vt 0.4106900095939636 0.9885590076446533
vt 0.028091000393033028 0.8159549832344055
vt 0.11961600184440613 0.8159549832344055
vt 0.028091000393033028 0.8378720283508301
vt 0.11961600184440613 0.8378720283508301
vt 0.028091000393033028 0.8378720283508301
vt 0.11961600184440613 0.8159549832344055
vt 0.11757200211286545 0.8169090151786804
vt 0.02418000064790249 0.8169090151786804
vt 0.11757200211286545 0.8368819952011108
vt 0.02418000064790249 0.8368819952011108
vt 0.11757200211286545 0.8368819952011108
vt 0.02418000064790249 0.8169090151786804
vt 0.11049599945545197 0.8369929790496826
vt 0.10708799958229065 0.8310319781303406
vt 0.12207800149917603 0.8369929790496826
vt 0.12207800149917603 0.8191109895706177
vt 0.12207800149917603 0.8369929790496826
vt 0.10708799958229065 0.8310319781303406
vt 0.02064099907875061 0.8191109895706177
vt 0.035631999373435974 0.8310319781303406
vt 0.02064099907875061 0.8369929790496826
vt 0.03222399950027466 0.8369929790496826
vt 0.02064099907875061 0.8369929790496826
vt 0.035631999373435974 0.8310319781303406
vt 0.1197500005364418 0.9837650060653687
vt 0.1786320060491562 0.9030399918556213
vt 0.14129899442195892 0.9864330291748047
vt 0.13533000648021698 0.7270010113716125
vt 0.10727600008249283 0.7269890308380127
vt 0.13544799387454987 0.7539590001106262
vt 0.10904800146818161 0.7540439963340759
vt 0.13544799387454987 0.7539590001106262
vt 0.10727600008249283 0.7269890308380127
vt 0.4106900095939636 0.9885590076446533
vt 0.4585669934749603 0.9645230174064636
vt 0.48907700181007385 0.9671400189399719
vt 0.4106900095939636 0.9885590076446533
vt 0.43643298745155334 0.9424239993095398
vt 0.4585669934749603 0.9645230174064636
vt 0.16673600673675537 0.7269999980926514
vt 0.13533000648021698 0.7270010113716125
vt 0.16856899857521057 0.7540559768676758
vt 0.13544799387454987 0.7539590001106262
vt 0.16856899857521057 0.7540559768676758
vt 0.13533000648021698 0.7270010113716125
vt 0.1197500005364418 0.9837650060653687
vt 0.10383400321006775 0.9697530269622803
vt 0.1786320060491562 0.9030399918556213
vn -0.999999999591 -0.000023000000507715797 -0.000017000000290978602
vn -0.999999999591 -0.000023000000507715797 -0.000017000000290978602
vn -0.999999999591 -0.000023000000507715797 -0.000017000000290978602
vn -0.9999999994175001 0.000034000000578097255 -0.000003000000103443036
vn -0.9999999994175001 0.000034000000578097255 -0.000003000000103443036
vn -0.9999999994175001 0.000034000000578097255 -0.000003000000103443036
vn -0.9999999975750001 0.000018999999131676715 -0.00006699999892930038
vn -0.9999999975750001 0.000018999999131676715 -0.00006699999892930038
vn -0.9999999975750001 0.000018999999131676715 -0.00006699999892930038
vn -0.9999999998555 -1.1102607720482227e-16 -0.000017000000295475107
vn -0.9999999998555 -1.1102607720482227e-16 -0.000017000000295475107
vn -0.9999999998555 -1.1102607720482227e-16 -0.000017000000295475107
vn -0.999999999032 -1.1103207231773406e-16 -0.000044000000321054
vn -0.999999999032 -1.1103207231773406e-16 -0.000044000000321054
vn -0.999999999032 -1.1103207231773406e-16 -0.000044000000321054
vn -0.999999998843 -0.00004500000064324481 -0.0000170000002782626
vn -0.999999998843 -0.00004500000064324481 -0.0000170000002782626
vn -0.999999998843 -0.00004500000064324481 -0.0000170000002782626
vn 0.000017000000291089635 -0.000023000000507826813 -0.999999999591
vn 0.000017000000291089635 -0.000023000000507826813 -0.999999999591
vn 0.000017000000291089635 -0.000023000000507826813 -0.999999999591
vn 0.000003000000103554047 0.00003400000057798623 -0.9999999994175001
vn 0.000003000000103554047 0.00003400000057798623 -0.9999999994175001
vn 0.000003000000103554047 0.00003400000057798623 -0.9999999994175001
vn 0.8930346025804933 0.4498369024444648 0.011660179804338613
vn 0.8930346025804933 0.4498369024444648 0.011660179804338613
vn 0.8930346025804933 0.4498369024444648 0.011660179804338613
vn 0.8876597636908721 0.46049986895231254 -0.00012090975297458351
vn 0.8876597636908721 0.46049986895231254 -0.00012090975297458351
vn 0.8876597636908721 0.46049986895231254 -0.00012090975297458351
vn -0.000015089393362322825 0.4605931780895096 0.8876113586867371
vn -0.000015089393362322825 0.4605931780895096 0.8876113586867371
vn -0.000015089393362322825 0.4605931780895096 0.8876113586867371
vn 0.011553821316225642 0.45012204691149166 0.8928922959109914
vn 0.011553821316225642 0.45012204691149166 0.8928922959109914
vn 0.011553821316225642 0.45012204691149166 0.8928922959109914
vn -2.2204271751377118e-16 1 -1.1102607720482227e-16
vn -2.2204271751377118e-16 1 -1.1102607720482227e-16
vn -2.2204271751377118e-16 1 -1.1102607720482227e-16
vn -2.2204271751377118e-16 1 -1.1102607720482227e-16
vn -2.2204271751377118e-16 1 -1.1102607720482227e-16
vn -2.2204271751377118e-16 1 -1.1102607720482227e-16
vn -2.2204271751377118e-16 1 -1.1102607720482227e-16
vn -2.2204271751377118e-16 1 -1.1102607720482227e-16
vn -2.2204271751377118e-16 1 -1.1102607720482227e-16
vn -2.2204271751377118e-16 1 -1.1102607720482227e-16
vn -2.2204271751377118e-16 1 -1.1102607720482227e-16
vn -2.2204271751377118e-16 1 -1.1102607720482227e-16
vn -0.887611567214101 0.460592776266863 -0.000014089397364996871
vn -0.8854439383312075 0.4647449699137575 -0.0010700525133668806
vn -0.8673776305618502 0.4869862191573548 -0.10247179295657491
vn -0.8620079889538257 0.49477292897425157 -0.11019063360386518
vn -0.8673776305618502 0.4869862191573548 -0.10247179295657491
vn -0.8854439383312075 0.4647449699137575 -0.0010700525133668806
vn -0.10947234013855689 0.4947200084212124 -0.8621298742140326
vn -0.0010419467539337635 0.46465903692478683 -0.885489070373594
vn -0.10183328882257975 0.48695918787624465 -0.8674679997731821
vn 0.000014090216598235298 0.46049987321078284 -0.8876597696045027
vn -0.10183328882257975 0.48695918787624465 -0.8674679997731821
vn -0.0010419467539337635 0.46465903692478683 -0.885489070373594
vn -2.2204271751377118e-16 1 -1.1102607720482227e-16
vn -2.2204271751377118e-16 1 -1.1102607720482227e-16
vn -2.2204271751377118e-16 1 -1.1102607720482227e-16
vn -2.2204271751377118e-16 1 -1.1102607720482227e-16
vn -2.2204271751377118e-16 1 -1.1102607720482227e-16
vn -2.2204271751377118e-16 1 -1.1102607720482227e-16
vn -2.2204271751377118e-16 1 -1.1102607720482227e-16
vn -2.2204271751377118e-16 1 -1.1102607720482227e-16
vn -2.2204271751377118e-16 1 -1.1102607720482227e-16
vn -0.8673776305618502 0.4869862191573548 -0.10247179295657491
vn -0.8620079889538257 0.49477292897425157 -0.11019063360386518
vn -0.7358418774272512 0.5294180146404209 -0.4222005414474659
vn -0.733993837513623 0.5349499960112531 -0.41842747072770614
vn -0.7358418774272512 0.5294180146404209 -0.4222005414474659
vn -0.8620079889538257 0.49477292897425157 -0.11019063360386518
vn -2.2204271751377118e-16 1 -1.1102607720482227e-16
vn -2.2204271751377118e-16 1 -1.1102607720482227e-16
vn -2.2204271751377118e-16 1 -1.1102607720482227e-16
vn -2.2204271751377118e-16 1 -1.1102607720482227e-16
vn -2.2204271751377118e-16 1 -1.1102607720482227e-16
vn -2.2204271751377118e-16 1 -1.1102607720482227e-16
vn -2.2204271751377118e-16 1 -1.1102607720482227e-16
vn -2.2204271751377118e-16 1 -1.1102607720482227e-16
vn -2.2204271751377118e-16 1 -1.1102607720482227e-16
vn -2.2204271751377118e-16 1 -1.1102607720482227e-16
vn -2.2204271751377118e-16 1 -1.1102607720482227e-16
vn -2.2204271751377118e-16 1 -1.1102607720482227e-16
vn -2.2204271751377118e-16 1 -1.1102607720482227e-16
vn -2.2204271751377118e-16 1 -1.1102607720482227e-16
vn -2.2204271751377118e-16 1 -1.1102607720482227e-16
vn 0.9999999998555 1.1102607720482227e-16 0.000017000000295475107
vn 0.9999999998555 1.1102607720482227e-16 0.000017000000295475107
vn 0.9999999998555 1.1102607720482227e-16 0.000017000000295475107
vn 0.9999999998555 1.1102607720482227e-16 0.000017000000295475107
vn 0.9999999998555 1.1102607720482227e-16 0.000017000000295475107
vn 0.9999999998555 1.1102607720482227e-16 0.000017000000295475107
vn -0.00001700000029558613 2.2204271751377118e-16 0.9999999998555
vn -0.00001700000029558613 2.2204271751377118e-16 0.9999999998555
vn -0.00001700000029558613 2.2204271751377118e-16 0.9999999998555
vn -0.00001700000029558613 2.2204271751377118e-16 0.9999999998555
vn -0.00001700000029558613 2.2204271751377118e-16 0.9999999998555
vn -0.00001700000029558613 2.2204271751377118e-16 0.9999999998555
vn 0.000017000000278373637 -0.00004500000064335583 -0.999999998843
vn 0.000017000000278373637 -0.00004500000064335583 -0.999999998843
vn 0.000017000000278373637 -0.00004500000064335583 -0.999999998843
vn 0.00004400000032116502 -2.2203971972874814e-16 -0.999999999032
vn 0.00004400000032116502 -2.2203971972874814e-16 -0.999999999032
vn 0.00004400000032116502 -2.2203971972874814e-16 -0.999999999032
vn 0.00004400000032116502 -2.2203971972874814e-16 -0.999999999032
vn 0.00004400000032116502 -2.2203971972874814e-16 -0.999999999032
vn 0.00004400000032116502 -2.2203971972874814e-16 -0.999999999032
vn 0.000017000000278373617 0.00004500000064291174 -0.999999998843
vn 0.000017000000278373617 0.00004500000064291174 -0.999999998843
vn 0.000017000000278373617 0.00004500000064291174 -0.999999998843
vn -2.2204271751377118e-16 1 -1.1102607720482227e-16
vn -2.2204271751377118e-16 1 -1.1102607720482227e-16
vn -2.2204271751377118e-16 1 -1.1102607720482227e-16
vn -0.4173174497300208 0.5347899238584133 -0.7347420523492202
vn -0.10947234013855689 0.4947200084212124 -0.8621298742140326
vn -0.4210706459249551 0.5292921703764432 -0.7365794658545238
vn -0.10183328882257975 0.48695918787624465 -0.8674679997731821
vn -0.4210706459249551 0.5292921703764432 -0.7365794658545238
vn -0.10947234013855689 0.4947200084212124 -0.8621298742140326
vn -2.2204271751377118e-16 1 -1.1102607720482227e-16
vn -2.2204271751377118e-16 1 -1.1102607720482227e-16
vn -2.2204271751377118e-16 1 -1.1102607720482227e-16
vn -2.2204271751377118e-16 1 -1.1102607720482227e-16
vn -2.2204271751377118e-16 1 -1.1102607720482227e-16
vn -2.2204271751377118e-16 1 -1.1102607720482227e-16
vn -0.733993837513623 0.5349499960112531 -0.41842747072770614
vn -0.4173174497300208 0.5347899238584133 -0.7347420523492202
vn -0.7358418774272512 0.5294180146404209 -0.4222005414474659
vn -0.4210706459249551 0.5292921703764432 -0.7365794658545238
vn -0.7358418774272512 0.5294180146404209 -0.4222005414474659
vn -0.4173174497300208 0.5347899238584133 -0.7347420523492202
vn -2.2204271751377118e-16 1 -1.1102607720482227e-16
vn -2.2204271751377118e-16 1 -1.1102607720482227e-16
vn -2.2204271751377118e-16 1 -1.1102607720482227e-16
f 1/1/1 2/2/2 3/3/3
f 4/4/4 5/5/5 6/6/6
f 7/7/7 8/8/8 9/9/9
f 10/10/10 11/11/11 12/12/12
f 13/13/13 14/14/14 15/15/15
f 16/16/16 17/17/17 18/18/18
f 19/19/19 20/20/20 21/21/21
f 22/22/22 23/23/23 24/24/24
f 25/25/25 26/26/26 27/27/27
f 28/28/28 29/29/29 30/30/30
f 31/31/31 32/32/32 33/33/33
f 34/34/34 35/35/35 36/36/36
f 37/37/37 38/38/38 39/39/39
f 40/40/40 41/41/41 42/42/42
f 43/43/43 44/44/44 45/45/45
f 46/46/46 47/47/47 48/48/48
f 49/49/49 50/50/50 51/51/51
f 52/52/52 53/53/53 54/54/54
f 55/55/55 56/56/56 57/57/57
f 58/58/58 59/59/59 60/60/60
f 61/61/61 62/62/62 63/63/63
f 64/64/64 65/65/65 66/66/66
f 67/67/67 68/68/68 69/69/69
f 70/70/70 71/71/71 72/72/72
f 73/73/73 74/74/74 75/75/75
f 76/76/76 77/77/77 78/78/78
f 79/79/79 80/80/80 81/81/81
f 82/82/82 83/83/83 84/84/84
f 85/85/85 86/86/86 87/87/87
f 88/88/88 89/89/89 90/90/90
f 91/91/91 92/92/92 93/93/93
f 94/94/94 95/95/95 96/96/96
f 97/97/97 98/98/98 99/99/99
f 100/100/100 101/101/101 102/102/102
f 103/103/103 104/104/104 105/105/105
f 106/106/106 107/107/107 108/108/108
f 109/109/109 110/110/110 111/111/111
f 112/112/112 113/113/113 114/114/114
f 115/115/115 116/116/116 117/117/117
f 118/118/118 119/119/119 120/120/120
f 121/121/121 122/122/122 123/123/123
f 124/124/124 125/125/125 126/126/126
f 127/127/127 128/128/128 129/129/129
f 130/130/130 131/131/131 132/132/132
f 133/133/133 134/134/134 135/135/135
f 136/136/136 137/137/137 138/138/138
