mtllib ss_wall_e.mtl
o wall_fh
usemtl PDX01_-_Default
v -0.28122799907579044 1.4569229111075401 0.4999951877700848
v -0.28121099559021706 1.45692291110754 -0.4999988186486849
v -0.4999799958413904 1.4569229111075401 0.49999400025017
v -0.28121099559021706 1.45692291110754 -0.4999988186486849
v -0.4999919899953675 1.45692291110754 -0.500002019737535
v -0.4999799958413904 1.4569229111075401 0.49999400025017
v 0.5000049999998737 0.1000000014901159 -0.4999950000001263
v 0.5000049999998737 -0.20000000298023246 -0.4999950000001263
v -0.4999919899953675 0.1000000014901159 -0.5000020197375346
v 0.5000049999998737 -0.20000000298023246 -0.4999950000001263
v -0.4999919899953675 -0.20000000298023246 -0.5000020197375346
v -0.4999919899953675 0.1000000014901159 -0.5000020197375346
v -0.4999799958513904 0.10000000149011612 0.49999500025016774
v -0.4999799958513904 -0.20000000298023224 0.4999950002501678
v 0.4999879965143652 0.10000000149011612 0.499998999929626
v -0.4999799958513904 -0.20000000298023224 0.4999950002501678
v 0.4999879965143652 -0.20000000298023224 0.49999899992962604
v 0.4999879965143652 0.10000000149011612 0.499998999929626
v -0.4999919899953675 0.1000000014901159 -0.5000020197375346
v -0.4999919899953675 -0.20000000298023246 -0.5000020197375346
v -0.4999799958513904 0.10000000149011612 0.49999500025016774
v -0.4999919899953675 -0.20000000298023246 -0.5000020197375346
v -0.4999799958513904 -0.20000000298023224 0.4999950002501678
v -0.4999799958513904 0.10000000149011612 0.49999500025016774
v 0.4999879965143652 0.10000000149011612 0.499998999929626
v 0.4999879965143652 -0.20000000298023224 0.49999899992962604
v 0.5000049999998737 0.1000000014901159 -0.4999950000001263
v 0.4999879965143652 -0.20000000298023224 0.49999899992962604
v 0.5000049999998737 -0.20000000298023246 -0.4999950000001263
v 0.5000049999998737 0.1000000014901159 -0.4999950000001263
v 0.4999879965143652 0.10000000149011612 0.499998999929626
v 0.03558799934942768 0.20000001043081284 0.49999635592999414
v -0.4999799958513904 0.10000000149011612 0.49999500025016774
v 0.5000049999998737 0.1000000014901159 -0.4999950000001263
v 0.035604999109380295 0.2000000104308126 -0.4999976174420955
v 0.4999879965143652 0.10000000149011612 0.499998999929626
v 0.03558799934942768 0.20000001043081284 0.49999635592999414
v 0.4999879965143652 0.10000000149011612 0.499998999929626
v 0.035604999109380295 0.2000000104308126 -0.4999976174420955
v 0.035604999109380295 0.2000000104308126 -0.4999976174420955
v 0.5000049999998737 0.1000000014901159 -0.4999950000001263
v -0.4999919899953675 0.1000000014901159 -0.5000020197375346
v 0.03558799934942768 0.20000001043081284 0.49999635592999414
v -0.1896019956912003 0.571007989346981 0.4999961040300957
v -0.4999799958513904 0.10000000149011612 0.49999500025016774
v 0.035604999109380295 0.2000000104308126 -0.4999976174420955
v -0.1895850071067881 0.5710079893469808 -0.4999979023888229
v 0.03558799934942768 0.20000001043081284 0.49999635592999414
v -0.1896019956912003 0.571007989346981 0.4999961040300957
v 0.03558799934942768 0.20000001043081284 0.49999635592999414
v -0.1895850071067881 0.5710079893469808 -0.4999979023888229
v -0.1895850071067881 0.5710079893469808 -0.4999979023888229
v 0.035604999109380295 0.2000000104308126 -0.4999976174420955
v -0.4999919899953675 0.1000000014901159 -0.5000020197375346
v -0.1896019956912003 0.571007989346981 0.4999961040300957
v -0.1896019956912003 1.2710080370306969 0.49999610403009553
v -0.4999799958513904 0.10000000149011612 0.49999500025016774
v -0.4999799958413904 1.4569229111075401 0.49999400025017
v -0.4999799958513904 0.10000000149011612 0.49999500025016774
v -0.1896019956912003 1.2710080370306969 0.49999610403009553
v 0.07593700348781829 0.7729590162634847 -0.4999922669365451
v 0.07593700348781829 1.0690570101141927 -0.4999922669365451
v 0.07592000000204724 0.772959016263485 0.5000017592499783
v 0.07592000000204724 1.069057010114193 0.5000017592499781
v 0.07592000000204724 0.772959016263485 0.5000017592499783
v 0.07593700348781829 1.0690570101141927 -0.4999922669365451
v -0.4999919899953675 0.1000000014901159 -0.5000020197375346
v -0.4999919899953675 1.45692291110754 -0.500002019737535
v -0.1895850071067881 0.5710079893469808 -0.4999979023888229
v -0.1895850071067881 1.2710080370306966 -0.49999790238882313
v -0.1895850071067881 0.5710079893469808 -0.4999979023888229
v -0.4999919899953675 1.45692291110754 -0.500002019737535
v -0.4999799958513904 0.10000000149011612 0.49999500025016774
v -0.4999799958413904 1.4569229111075401 0.49999400025017
v -0.4999919899953675 0.1000000014901159 -0.5000020197375346
v -0.4999919899953675 1.45692291110754 -0.500002019737535
v -0.4999919899953675 0.1000000014901159 -0.5000020197375346
v -0.4999799958413904 1.4569229111075401 0.49999400025017
v -0.1896019956912003 1.2710080370306969 0.49999610403009553
v -0.28122799907579044 1.4569229111075401 0.4999951877700848
v -0.4999799958413904 1.4569229111075401 0.49999400025017
v -0.1895850071067881 1.2710080370306966 -0.49999790238882313
v -0.28121099559021706 1.45692291110754 -0.4999988186486849
v -0.1896019956912003 1.2710080370306969 0.49999610403009553
v -0.28122799907579044 1.4569229111075401 0.4999951877700848
v -0.1896019956912003 1.2710080370306969 0.49999610403009553
v -0.28121099559021706 1.45692291110754 -0.4999988186486849
v -0.28121099559021706 1.45692291110754 -0.4999988186486849
v -0.1895850071067881 1.2710080370306966 -0.49999790238882313
v -0.4999919899953675 1.45692291110754 -0.500002019737535
v -0.1895850071067881 0.5710079893469808 -0.4999979023888229
v 0.07593700348781829 0.7729590162634847 -0.4999922669365451
v -0.1896019956912003 0.571007989346981 0.4999961040300957
v 0.07592000000204724 0.772959016263485 0.5000017592499783
v -0.1896019956912003 0.571007989346981 0.4999961040300957
v 0.07593700348781829 0.7729590162634847 -0.4999922669365451
v -0.1896019956912003 0.571007989346981 0.4999961040300957
v 0.07592000000204724 0.772959016263485 0.5000017592499783
v -0.1896019956912003 1.2710080370306969 0.49999610403009553
v 0.07592000000204724 1.069057010114193 0.5000017592499781
v -0.1896019956912003 1.2710080370306969 0.49999610403009553
v 0.07592000000204724 0.772959016263485 0.5000017592499783
v -0.1895850071067881 1.2710080370306966 -0.49999790238882313
v 0.07593700348781829 1.0690570101141927 -0.4999922669365451
v -0.1895850071067881 0.5710079893469808 -0.4999979023888229
v 0.07593700348781829 0.7729590162634847 -0.4999922669365451
v -0.1895850071067881 0.5710079893469808 -0.4999979023888229
v 0.07593700348781829 1.0690570101141927 -0.4999922669365451
v -0.1896019956912003 1.2710080370306969 0.49999610403009553
v 0.07592000000204724 1.069057010114193 0.5000017592499781
v -0.1895850071067881 1.2710080370306966 -0.49999790238882313
v 0.07593700348781829 1.0690570101141927 -0.4999922669365451
v -0.1895850071067881 1.2710080370306966 -0.49999790238882313
v 0.07592000000204724 1.069057010114193 0.5000017592499781
vt 0.9886090159416199 0.26304298639297485
vt 0.8765869736671448 0.26304399967193604
vt 0.9885450005531311 0.27845799922943115
vt 0.8765869736671448 0.26304399967193604
vt 0.8765929937362671 0.2784600257873535
vt 0.9885450005531311 0.27845799922943115
vt 0.1293729990720749 0.84163498878479
vt 0.1293729990720749 0.817458987236023
vt 0.012264000251889229 0.8416340351104736
vt 0.1293729990720749 0.817458987236023
vt 0.012264000251889229 0.8174580335617065
vt 0.012264000251889229 0.8416340351104736
vt 0.012284999713301659 0.8416340351104736
vt 0.012284999713301659 0.817458987236023
vt 0.12936599552631378 0.84163498878479
vt 0.012284999713301659 0.817458987236023
vt 0.12936699390411377 0.8174600005149841
vt 0.12936599552631378 0.84163498878479
vt 0.12873899936676025 0.8394619822502136
vt 0.12873899936676025 0.8162679672241211
vt 0.013245999813079834 0.8394619822502136
vt 0.12873899936676025 0.8162679672241211
vt 0.013245999813079834 0.8162679672241211
vt 0.013245999813079834 0.8394619822502136
vt 0.013251000083982944 0.8394629955291748
vt 0.013251000083982944 0.8162689805030823
vt 0.12874199450016022 0.8394629955291748
vt 0.013251000083982944 0.8162689805030823
vt 0.12874199450016022 0.8162689805030823
vt 0.12874199450016022 0.8394629955291748
vt 0.746059000492096 0.02390998601913452
vt 0.7884920239448547 0.04143202304840088
vt 0.8669329881668091 0.02390998601913452
vt 0.8772429823875427 0.008143007755279541
vt 0.8769389986991882 0.081076979637146
vt 0.986473023891449 0.00814199447631836
vt 0.9865220189094543 0.08107602596282959
vt 0.986473023891449 0.00814199447631836
vt 0.8769389986991882 0.081076979637146
vt 0.7884899973869324 0.04143202304840088
vt 0.7460569739341736 0.02390998601913452
vt 0.866936981678009 0.02390998601913452
vt 0.7884920239448547 0.04143202304840088
vt 0.8183850049972534 0.10643798112869263
vt 0.8669329881668091 0.02390998601913452
vt 0.8769389986991882 0.081076979637146
vt 0.8772379755973816 0.12920701503753662
vt 0.9865220189094543 0.08107602596282959
vt 0.9858930110931396 0.12919700145721436
vt 0.9865220189094543 0.08107602596282959
vt 0.8772379755973816 0.12920701503753662
vt 0.8183839917182922 0.10643798112869263
vt 0.7884899973869324 0.04143202304840088
vt 0.866936981678009 0.02390998601913452
vt 0.8183850049972534 0.10643798112869263
vt 0.8183850049972534 0.22908997535705566
vt 0.8669329881668091 0.02390998601913452
vt 0.8669329881668091 0.2616649866104126
vt 0.8669329881668091 0.02390998601913452
vt 0.8183850049972534 0.22908997535705566
vt 0.8766739964485168 0.17455798387527466
vt 0.8766739964485168 0.20895302295684814
vt 0.9886320233345032 0.17455697059631348
vt 0.9885600209236145 0.20895200967788696
vt 0.9886320233345032 0.17455697059631348
vt 0.8766739964485168 0.20895302295684814
vt 0.866936981678009 0.02390998601913452
vt 0.866936981678009 0.2616649866104126
vt 0.8183839917182922 0.10643798112869263
vt 0.8183839917182922 0.22908997535705566
vt 0.8183839917182922 0.10643798112869263
vt 0.866936981678009 0.2616649866104126
vt 0.8630660176277161 0.021178007125854492
vt 0.8611890077590942 0.2689260244369507
vt 0.748104989528656 0.024935007095336914
vt 0.7499819993972778 0.26892900466918945
vt 0.748104989528656 0.024935007095336914
vt 0.8611890077590942 0.2689260244369507
vt 0.8183850049972534 0.22908997535705566
vt 0.8327170014381409 0.2616649866104126
vt 0.8669329881668091 0.2616649866104126
vt 0.8765599727630615 0.24635398387908936
vt 0.8765869736671448 0.26304399967193604
vt 0.9885550141334534 0.24652999639511108
vt 0.9886090159416199 0.26304298639297485
vt 0.9885550141334534 0.24652999639511108
vt 0.8765869736671448 0.26304399967193604
vt 0.8327159881591797 0.2616649866104126
vt 0.8183839917182922 0.22908997535705566
vt 0.866936981678009 0.2616649866104126
vt 0.8764600157737732 0.12920701503753662
vt 0.8766739964485168 0.1561579704284668
vt 0.9889259934425354 0.12919700145721436
vt 0.9886320233345032 0.1561570167541504
vt 0.9889259934425354 0.12919700145721436
vt 0.8766739964485168 0.1561579704284668
vt 0.8183850049972534 0.10643798112869263
vt 0.776852011680603 0.14182400703430176
vt 0.8183850049972534 0.22908997535705566
vt 0.776852011680603 0.1937050223350525
vt 0.8183850049972534 0.22908997535705566
vt 0.776852011680603 0.14182400703430176
vt 0.8183839917182922 0.22908997535705566
vt 0.7768509984016418 0.1937050223350525
vt 0.8183839917182922 0.10643798112869263
vt 0.7768509984016418 0.14182400703430176
vt 0.8183839917182922 0.10643798112869263
vt 0.7768509984016418 0.1937050223350525
vt 0.9885550141334534 0.24652999639511108
vt 0.9885600209236145 0.21092301607131958
vt 0.8765599727630615 0.24635398387908936
vt 0.8766739964485168 0.21092402935028076
vt 0.8765599727630615 0.24635398387908936
vt 0.9885600209236145 0.21092301607131958
vn 1.3734130458341568e-21 1 -2.2204460492239942e-16
vn 1.3734130458341568e-21 1 -2.2204460492239942e-16
vn 1.3734130458341568e-21 1 -2.2204460492239942e-16
vn 1.3734130458341568e-21 1 -2.2204460492239942e-16
vn 1.3734130458341568e-21 1 -2.2204460492239942e-16
vn 1.3734130458341568e-21 1 -2.2204460492239942e-16
vn 0.000006999999640884686 -2.2204460492552045e-16 -0.9999999999755
vn 0.000006999999640884686 -2.2204460492552045e-16 -0.9999999999755
vn 0.000006999999640884686 -2.2204460492552045e-16 -0.9999999999755
vn 0.000006999999640884686 -2.2204460492552045e-16 -0.9999999999755
vn 0.000006999999640884686 -2.2204460492552045e-16 -0.9999999999755
vn 0.000006999999640884686 -2.2204460492552045e-16 -0.9999999999755
vn -0.000003999999534881621 2.2204460492664315e-16 0.9999999999920002
vn -0.000003999999534881621 2.2204460492664315e-16 0.9999999999920002
vn -0.000003999999534881621 2.2204460492664315e-16 0.9999999999920002
vn -0.000003999999534881621 2.2204460492664315e-16 0.9999999999920002
vn -0.000003999999534881621 2.2204460492664315e-16 0.9999999999920002
vn -0.000003999999534881621 2.2204460492664315e-16 0.9999999999920002
vn -0.999999999928 3.511568299762537e-21 0.000012000000420946266
vn -0.999999999928 3.511568299762537e-21 0.000012000000420946266
vn -0.999999999928 3.511568299762537e-21 0.000012000000420946266
vn -0.999999999928 3.511568299762537e-21 0.000012000000420946266
vn -0.999999999928 3.511568299762537e-21 0.000012000000420946266
vn -0.999999999928 3.511568299762537e-21 0.000012000000420946266
vn 0.9999999998555 2.9277253015385114e-21 0.000016999999842125788
vn 0.9999999998555 2.9277253015385114e-21 0.000016999999842125788
vn 0.9999999998555 2.9277253015385114e-21 0.000016999999842125788
vn 0.9999999998555 2.9277253015385114e-21 0.000016999999842125788
vn 0.9999999998555 2.9277253015385114e-21 0.000016999999842125788
vn 0.9999999998555 2.9277253015385114e-21 0.000016999999842125788
vn -0.00000399999953480962 0.000006000000212531177 0.9999999999740001
vn -0.00000399999953480962 0.000006000000212531177 0.9999999999740001
vn -0.00000399999953480962 0.000006000000212531177 0.9999999999740001
vn 0.2105070765981436 0.977592333589243 0.000003105071035303935
vn 0.2105070765981436 0.977592333589243 0.000003105071035303935
vn 0.2105070765981436 0.977592333589243 0.000003105071035303935
vn 0.2105070765981436 0.977592333589243 0.000003105071035303935
vn 0.2105070765981436 0.977592333589243 0.000003105071035303935
vn 0.2105070765981436 0.977592333589243 0.000003105071035303935
vn 0.000006999999640660687 0.000007999999979687897 -0.9999999999435001
vn 0.000006999999640660687 0.000007999999979687897 -0.9999999999435001
vn 0.000006999999640660687 0.000007999999979687897 -0.9999999999435001
vn -0.00000399999953480962 0.000006000000212531177 0.9999999999740001
vn -0.0000029999996511402146 -9.99999997278198e-7 0.999999999995
vn -0.00000399999953480962 0.000006000000212531177 0.9999999999740001
vn 0.8548538273593143 0.5188688983138918 0.000014548537072628168
vn 0.8548538273593143 0.5188688983138918 0.000014548537072628168
vn 0.8548538273593143 0.5188688983138918 0.000014548537072628168
vn 0.8548538273593143 0.5188688983138918 0.000014548537072628168
vn 0.8548538273593143 0.5188688983138918 0.000014548537072628168
vn 0.8548538273593143 0.5188688983138918 0.000014548537072628168
vn 0.000007999999751948266 0.0000039999999898389265 -0.99999999996
vn 0.000006999999640660687 0.000007999999979687897 -0.9999999999435001
vn 0.000006999999640660687 0.000007999999979687897 -0.9999999999435001
vn -0.0000029999996511402146 -9.99999997278198e-7 0.999999999995
vn -0.000004999999873376876 2.220446049264909e-16 0.9999999999875
vn -0.00000399999953480962 0.000006000000212531177 0.9999999999740001
vn -0.000004999999873376876 2.220446049264909e-16 0.9999999999875
vn -0.00000399999953480962 0.000006000000212531177 0.9999999999740001
vn -0.000004999999873376876 2.220446049264909e-16 0.9999999999875
vn 0.9999999998555 2.9277253015385114e-21 0.000016999999842125788
vn 0.9999999998555 2.9277253015385114e-21 0.000016999999842125788
vn 0.9999999998555 2.9277253015385114e-21 0.000016999999842125788
vn 0.9999999998555 2.9277253015385114e-21 0.000016999999842125788
vn 0.9999999998555 2.9277253015385114e-21 0.000016999999842125788
vn 0.9999999998555 2.9277253015385114e-21 0.000016999999842125788
vn 0.000013999999736467724 -2.2204460491512945e-16 -0.9999999999020002
vn 0.000013999999736467724 -2.2204460491512945e-16 -0.9999999999020002
vn 0.000007999999751948266 0.0000039999999898389265 -0.99999999996
vn 0.000014999999620130626 -2.220446049127568e-16 -0.9999999998875
vn 0.000007999999751948266 0.0000039999999898389265 -0.99999999996
vn 0.000013999999736467724 -2.2204460491512945e-16 -0.9999999999020002
vn -0.999999999928 3.511568299762537e-21 0.000012000000420946266
vn -0.999999999928 3.511568299762537e-21 0.000012000000420946266
vn -0.999999999928 3.511568299762537e-21 0.000012000000420946266
vn -0.999999999928 3.511568299762537e-21 0.000012000000420946266
vn -0.999999999928 3.511568299762537e-21 0.000012000000420946266
vn -0.999999999928 3.511568299762537e-21 0.000012000000420946266
vn -0.000004999999873376876 2.220446049264909e-16 0.9999999999875
vn -0.000004999999873374377 9.999999977342874e-7 0.9999999999870002
vn -0.000004999999873376876 2.220446049264909e-16 0.9999999999875
vn 0.8969820302607514 0.4420670052890227 0.000014969820396709981
vn 0.8969820302607514 0.4420670052890227 0.000014969820396709981
vn 0.8969820302607514 0.4420670052890227 0.000014969820396709981
vn 0.8969820302607514 0.4420670052890227 0.000014969820396709981
vn 0.8969820302607514 0.4420670052890227 0.000014969820396709981
vn 0.8969820302607514 0.4420670052890227 0.000014969820396709981
vn 0.000017999999725479695 0.000004999999873494832 -0.9999999998255
vn 0.000014999999620130626 -2.220446049127568e-16 -0.9999999998875
vn 0.000013999999736467724 -2.2204460491512945e-16 -0.9999999999020002
vn 0.6053752003308267 -0.7959402406734649 0.000010053753007259553
vn 0.6053752003308267 -0.7959402406734649 0.000010053753007259553
vn 0.6053752003308267 -0.7959402406734649 0.000010053753007259553
vn 0.6053752003308267 -0.7959402406734649 0.000010053753007259553
vn 0.6053752003308267 -0.7959402406734649 0.000010053753007259553
vn 0.6053752003308267 -0.7959402406734649 0.000010053753007259553
vn -0.00002299999959777657 2.220446048857823e-16 0.9999999997355
vn -0.00002299999959777657 2.220446048857823e-16 0.9999999997355
vn -0.00002299999959777657 2.220446048857823e-16 0.9999999997355
vn -0.000022000000169145015 2.2204460488993126e-16 0.999999999758
vn -0.00002299999959777657 2.220446048857823e-16 0.9999999997355
vn -0.00002299999959777657 2.220446048857823e-16 0.9999999997355
vn 0.000014999999620130626 -2.220446049127568e-16 -0.9999999998875
vn 0.000022000000169145015 -2.2204460488993126e-16 -0.999999999758
vn 0.000022000000169145015 -2.2204460488993126e-16 -0.999999999758
vn 0.00002299999959777657 -2.220446048857823e-16 -0.9999999997355
vn 0.000022000000169145015 -2.2204460488993126e-16 -0.999999999758
vn 0.000022000000169145015 -2.2204460488993126e-16 -0.999999999758
vn 0.6053752003308267 0.7959402406734649 0.000010053753006906087
vn 0.6053752003308267 0.7959402406734649 0.000010053753006906087
vn 0.6053752003308267 0.7959402406734649 0.000010053753006906087
vn 0.6053752003308267 0.7959402406734649 0.000010053753006906087
vn 0.6053752003308267 0.7959402406734649 0.000010053753006906087
vn 0.6053752003308267 0.7959402406734649 0.000010053753006906087
f 1/1/1 2/2/2 3/3/3
f 4/4/4 5/5/5 6/6/6
f 7/7/7 8/8/8 9/9/9
f 10/10/10 11/11/11 12/12/12
f 13/13/13 14/14/14 15/15/15
f 16/16/16 17/17/17 18/18/18
f 19/19/19 20/20/20 21/21/21
f 22/22/22 23/23/23 24/24/24
f 25/25/25 26/26/26 27/27/27
f 28/28/28 29/29/29 30/30/30
f 31/31/31 32/32/32 33/33/33
f 34/34/34 35/35/35 36/36/36
f 37/37/37 38/38/38 39/39/39
f 40/40/40 41/41/41 42/42/42
f 43/43/43 44/44/44 45/45/45
f 46/46/46 47/47/47 48/48/48
f 49/49/49 50/50/50 51/51/51
f 52/52/52 53/53/53 54/54/54
f 55/55/55 56/56/56 57/57/57
f 58/58/58 59/59/59 60/60/60
f 61/61/61 62/62/62 63/63/63
f 64/64/64 65/65/65 66/66/66
f 67/67/67 68/68/68 69/69/69
f 70/70/70 71/71/71 72/72/72
f 73/73/73 74/74/74 75/75/75
f 76/76/76 77/77/77 78/78/78
f 79/79/79 80/80/80 81/81/81
f 82/82/82 83/83/83 84/84/84
f 85/85/85 86/86/86 87/87/87
f 88/88/88 89/89/89 90/90/90
f 91/91/91 92/92/92 93/93/93
f 94/94/94 95/95/95 96/96/96
f 97/97/97 98/98/98 99/99/99
f 100/100/100 101/101/101 102/102/102
f 103/103/103 104/104/104 105/105/105
f 106/106/106 107/107/107 108/108/108
f 109/109/109 110/110/110 111/111/111
f 112/112/112 113/113/113 114/114/114
