mtllib tile_nw.mtl
o Unmerged_tile_nw
usemtl material
v 0.5 0.1004749983549118 -0.5
v 0.5 -0.2000740021467209 -0.5
v 0.29795899987220764 -0.00007400000322377309 -0.5
v 0.5 0.1004749983549118 0.5
v 0.5 0.1004749983549118 -0.0010349999647587538
v 0.2355699986219406 0.1004749983549118 0.23304499685764313
v 0.2355699986219406 0.1004749983549118 0.23304499685764313
v 0.5 0.1004749983549118 -0.0010349999647587538
v 0.3511529862880707 0.1004749983549118 -0.0010349999647587538
v -0.4999989867210388 0.1004749983549118 0.5
v -0.4999989867210388 -0.00007400000322377309 0.2997089922428131
v -0.4999989867210388 -0.20084500312805176 0.5
v 0.29795899987220764 -0.00007400000322377309 -0.5
v 0.3511529862880707 0.1004749983549118 -0.5
v 0.5 0.1004749983549118 -0.5
v -0.4999989867210388 -0.2000740021467209 0.5
v -0.4999989867210388 0.1004749983549118 0.5
v -0.4999989867210388 -0.20084500312805176 0.5
v -0.4999989867210388 -0.00007400000322377309 0.2997089922428131
v -0.4999989867210388 0.1004749983549118 0.5
v -0.4999989867210388 0.1004749983549118 0.3508560061454773
v 0.29795899987220764 -0.00007400000322377309 -0.5
v 0.5 -0.2000740021467209 -0.5
v -0.2999989986419678 -0.00007400000322377309 -0.5
v 0.5 -0.2000740021467209 -0.5
v -0.4999989867210388 -0.2000740021467209 -0.5
v -0.2999989986419678 -0.00007400000322377309 -0.5
v -0.0007389999809674919 0.1004749983549118 0.3508560061454773
v 0.2355699986219406 0.1004749983549118 0.23304499685764313
v -0.0007389999809674919 -0.00007400000322377309 0.2997089922428131
v -0.0007389999809674919 -0.00007400000322377309 0.2997089922428131
v 0.2355699986219406 0.1004749983549118 0.23304499685764313
v 0.19975699484348297 -0.00007400000322377309 0.19741499423980713
v 0.19975699484348297 -0.00007400000322377309 0.19741499423980713
v 0.2355699986219406 0.1004749983549118 0.23304499685764313
v 0.29795899987220764 -0.00007400000322377309 -0.0010349999647587538
v 0.29795899987220764 -0.00007400000322377309 -0.0010349999647587538
v 0.2355699986219406 0.1004749983549118 0.23304499685764313
v 0.3511529862880707 0.1004749983549118 -0.0010349999647587538
v 0.5 0.1004749983549118 0.5
v 0.5 -0.2000740021467209 0.5
v 0.5 0.1004749983549118 -0.0010349999647587538
v -0.0007389999809674919 -0.00007400000322377309 0.2997089922428131
v 0.19975699484348297 -0.00007400000322377309 0.19741499423980713
v -0.2999989986419678 -0.00007400000322377309 -0.30000001192092896
v -0.2999989986419678 -0.00007400000322377309 -0.30000001192092896
v 0.19975699484348297 -0.00007400000322377309 0.19741499423980713
v 0.29795899987220764 -0.00007400000322377309 -0.0010349999647587538
v -0.2999989986419678 -0.00007400000322377309 -0.5
v -0.4999989867210388 -0.2000740021467209 -0.5
v -0.4999989867210388 0.09952499717473984 -0.5
v 0.29795899987220764 -0.00007400000322377309 -0.0010349999647587538
v 0.3511529862880707 0.1004749983549118 -0.0010349999647587538
v 0.29795899987220764 -0.00007400000322377309 -0.5
v 0.29795899987220764 -0.00007400000322377309 -0.5
v 0.3511529862880707 0.1004749983549118 -0.0010349999647587538
v 0.3511529862880707 0.1004749983549118 -0.5
v 0.5 0.1004749983549118 -0.0010349999647587538
v 0.5 0.1004749983549118 -0.5
v 0.3511529862880707 0.1004749983549118 -0.0010349999647587538
v 0.3511529862880707 0.1004749983549118 -0.0010349999647587538
v 0.5 0.1004749983549118 -0.5
v 0.3511529862880707 0.1004749983549118 -0.5
v -0.4999989867210388 -0.20084500312805176 0.5
v -0.4999989867210388 -0.00007400000322377309 0.2997089922428131
v -0.4999989867210388 -0.2000740021467209 -0.5
v -0.4999989867210388 -0.00007400000322377309 0.2997089922428131
v -0.4999989867210388 -0.00007400000322377309 -0.30000001192092896
v -0.4999989867210388 -0.2000740021467209 -0.5
v -0.4999989867210388 -0.00007400000322377309 -0.30000001192092896
v -0.4999989867210388 0.09952499717473984 -0.5
v -0.4999989867210388 -0.2000740021467209 -0.5
v -0.4999989867210388 0.09952499717473984 -0.3499999940395355
v -0.4999989867210388 0.09952499717473984 -0.5
v -0.4999989867210388 -0.00007400000322377309 -0.30000001192092896
v 0.29795899987220764 -0.00007400000322377309 -0.5
v -0.2999989986419678 -0.00007400000322377309 -0.5
v -0.2999989986419678 -0.00007400000322377309 -0.30000001192092896
v -0.0007389999809674919 0.1004749983549118 0.5
v 0.5 -0.2000740021467209 0.5
v 0.5 0.1004749983549118 0.5
v -0.4999989867210388 -0.2000740021467209 0.5
v -0.0007389999809674919 0.1004749983549118 0.5
v -0.4999989867210388 0.1004749983549118 0.5
v -0.0007389999809674919 0.1004749983549118 0.5
v -0.0007389999809674919 0.1004749983549118 0.3508560061454773
v -0.4999989867210388 0.1004749983549118 0.5
v -0.4999989867210388 0.1004749983549118 0.5
v -0.0007389999809674919 0.1004749983549118 0.3508560061454773
v -0.4999989867210388 0.1004749983549118 0.3508560061454773
v -0.4999989867210388 -0.00007400000322377309 0.2997089922428131
v -0.4999989867210388 0.1004749983549118 0.3508560061454773
v -0.0007389999809674919 -0.00007400000322377309 0.2997089922428131
v -0.0007389999809674919 -0.00007400000322377309 0.2997089922428131
v -0.4999989867210388 0.1004749983549118 0.3508560061454773
v -0.0007389999809674919 0.1004749983549118 0.3508560061454773
v -0.2999989986419678 -0.00007400000322377309 -0.30000001192092896
v -0.4999989867210388 -0.00007400000322377309 0.2997089922428131
v -0.0007389999809674919 -0.00007400000322377309 0.2997089922428131
v 0.5 0.1004749983549118 0.5
v 0.2355699986219406 0.1004749983549118 0.23304499685764313
v -0.0007389999809674919 0.1004749983549118 0.5
v -0.0007389999809674919 0.1004749983549118 0.5
v 0.2355699986219406 0.1004749983549118 0.23304499685764313
v -0.0007389999809674919 0.1004749983549118 0.3508560061454773
v -0.2999989986419678 -0.00007400000322377309 -0.30000001192092896
v -0.4999989867210388 -0.00007400000322377309 -0.30000001192092896
v -0.4999989867210388 -0.00007400000322377309 0.2997089922428131
v -0.2999989986419678 -0.00007400000322377309 -0.30000001192092896
v 0.29795899987220764 -0.00007400000322377309 -0.0010349999647587538
v 0.29795899987220764 -0.00007400000322377309 -0.5
v -0.2999989986419678 -0.00007400000322377309 -0.5
v -0.4999989867210388 0.09952499717473984 -0.5
v -0.34999901056289673 0.09952499717473984 -0.5
v -0.34999901056289673 0.09952499717473984 -0.5
v -0.34999901056289673 0.09952499717473984 -0.3499999940395355
v -0.2999989986419678 -0.00007400000322377309 -0.30000001192092896
v -0.4999989867210388 -0.00007400000322377309 -0.30000001192092896
v -0.34999901056289673 0.09952499717473984 -0.3499999940395355
v -0.4999989867210388 0.09952499717473984 -0.3499999940395355
v -0.34999901056289673 0.09952499717473984 -0.3499999940395355
v -0.34999901056289673 0.09952499717473984 -0.5
v -0.4999989867210388 0.09952499717473984 -0.5
v -0.4999989867210388 0.09952499717473984 -0.3499999940395355
v -0.34999901056289673 0.09952499717473984 -0.3499999940395355
v -0.4999989867210388 0.09952499717473984 -0.5
v -0.34999901056289673 0.09952499717473984 -0.3499999940395355
v -0.4999989867210388 -0.00007400000322377309 -0.30000001192092896
v -0.2999989986419678 -0.00007400000322377309 -0.30000001192092896
v -0.34999901056289673 0.09952499717473984 -0.5
v -0.2999989986419678 -0.00007400000322377309 -0.30000001192092896
v -0.2999989986419678 -0.00007400000322377309 -0.5
v 0.5 0.1004749983549118 -0.5
v 0.5 0.1004749983549118 -0.0010349999647587538
v 0.5 -0.2000740021467209 -0.5
v 0.5 -0.2000740021467209 -0.5
v 0.5 0.1004749983549118 -0.0010349999647587538
v 0.5 -0.2000740021467209 0.5
v -0.4999989867210388 -0.2000740021467209 0.5
v 0.5 -0.2000740021467209 0.5
v -0.0007389999809674919 0.1004749983549118 0.5
vt 0.3619000017642975 1.735727071762085
vt 0.3616659939289093 1.7486250400543213
vt 0.33823201060295105 1.738070011138916
vt 0.3618989884853363 1.6383459568023682
vt 0.3619000017642975 1.6895570755004883
vt 0.3368130028247833 1.6640599966049194
vt 0.3368130028247833 1.6640599966049194
vt 0.3619000017642975 1.6895570755004883
vt 0.3483569920063019 1.6893670558929443
vt 0.26345500349998474 1.6383459568023682
vt 0.2614099979400635 1.6621160507202148
vt 0.25056999921798706 1.6396660804748535
vt 0.33823201060295105 1.738070011138916
vt 0.34724199771881104 1.7346320152282715
vt 0.3619000017642975 1.735727071762085
vt 0.26361599564552307 1.6260690689086914
vt 0.26345500349998474 1.6383459568023682
vt 0.263606995344162 1.6260690689086914
vt 0.2614099979400635 1.6621160507202148
vt 0.26345500349998474 1.6383459568023682
vt 0.2646630108356476 1.6524239778518677
vt 0.33823201060295105 1.738070011138916
vt 0.3616659939289093 1.7486250400543213
vt 0.28066501021385193 1.738070011138916
vt 0.3616659939289093 1.7486250400543213
vt 0.2652119994163513 1.7485709190368652
vt 0.28066501021385193 1.738070011138916
vt 0.31096699833869934 1.6520230770111084
vt 0.3368130028247833 1.6640599966049194
vt 0.30947500467300415 1.6621160507202148
vt 0.30947500467300415 1.6621160507202148
vt 0.3368130028247833 1.6640599966049194
vt 0.3287769854068756 1.6718320846557617
vt 0.3287769854068756 1.6718320846557617
vt 0.3368130028247833 1.6640599966049194
vt 0.33823201060295105 1.6906800270080566
vt 0.33823201060295105 1.6906800270080566
vt 0.3368130028247833 1.6640599966049194
vt 0.3483569920063019 1.6893670558929443
vt 0.3618989884853363 1.6383459568023682
vt 0.374224990606308 1.6386020183563232
vt 0.3619000017642975 1.6895570755004883
vt 0.30947500467300415 1.6621160507202148
vt 0.3287769854068756 1.6718320846557617
vt 0.28066501021385193 1.719074010848999
vt 0.28066501021385193 1.719074010848999
vt 0.3287769854068756 1.6718320846557617
vt 0.33823201060295105 1.6906800270080566
vt 0.28066501021385193 1.738070011138916
vt 0.2652119994163513 1.7485709190368652
vt 0.26551398634910583 1.7343909740447998
vt 0.33823201060295105 1.6906800270080566
vt 0.3483569920063019 1.6893670558929443
vt 0.33823201060295105 1.738070011138916
vt 0.33823201060295105 1.738070011138916
vt 0.3483569920063019 1.6893670558929443
vt 0.34724199771881104 1.7346320152282715
vt 0.3619000017642975 1.6895570755004883
vt 0.3619000017642975 1.735727071762085
vt 0.3483569920063019 1.6893670558929443
vt 0.3483569920063019 1.6893670558929443
vt 0.3619000017642975 1.735727071762085
vt 0.34724199771881104 1.7346320152282715
vt 0.25056999921798706 1.6396660804748535
vt 0.2614099979400635 1.6621160507202148
vt 0.2500610053539276 1.7344019412994385
vt 0.2614099979400635 1.6621160507202148
vt 0.2614099979400635 1.719074010848999
vt 0.2500610053539276 1.7344019412994385
vt 0.2614099979400635 1.719074010848999
vt 0.26551398634910583 1.7343909740447998
vt 0.2500610053539276 1.7344019412994385
vt 0.2651180028915405 1.7261550426483154
vt 0.26551398634910583 1.7343909740447998
vt 0.2614099979400635 1.719074010848999
vt 0.33823201060295105 1.738070011138916
vt 0.28066501021385193 1.738070011138916
vt 0.28066501021385193 1.719074010848999
vt 0.3110649883747101 1.6383459568023682
vt 0.3620159924030304 1.6260690689086914
vt 0.3618989884853363 1.6383459568023682
vt 0.26361599564552307 1.6260690689086914
vt 0.3110649883747101 1.6383459568023682
vt 0.26345500349998474 1.6383459568023682
vt 0.3110649883747101 1.6383459568023682
vt 0.31096699833869934 1.6520230770111084
vt 0.26345500349998474 1.6383459568023682
vt 0.26345500349998474 1.6383459568023682
vt 0.31096699833869934 1.6520230770111084
vt 0.2646630108356476 1.6524239778518677
vt 0.2614099979400635 1.6621160507202148
vt 0.2646630108356476 1.6524239778518677
vt 0.30947500467300415 1.6621160507202148
vt 0.30947500467300415 1.6621160507202148
vt 0.2646630108356476 1.6524239778518677
vt 0.31096699833869934 1.6520230770111084
vt 0.28066501021385193 1.719074010848999
vt 0.2614099979400635 1.6621160507202148
vt 0.30947500467300415 1.6621160507202148
vt 0.3618989884853363 1.6383459568023682
vt 0.3368130028247833 1.6640599966049194
vt 0.3110649883747101 1.6383459568023682
vt 0.3110649883747101 1.6383459568023682
vt 0.3368130028247833 1.6640599966049194
vt 0.31096699833869934 1.6520230770111084
vt 0.28066501021385193 1.719074010848999
vt 0.2614099979400635 1.719074010848999
vt 0.2614099979400635 1.6621160507202148
vt 0.28066501021385193 1.719074010848999
vt 0.33823201060295105 1.6906800270080566
vt 0.33823201060295105 1.738070011138916
vt 0.28066501021385193 1.738070011138916
vt 0.26551398634910583 1.7343909740447998
vt 0.27317801117897034 1.7352180480957031
vt 0.27317801117897034 1.7352180480957031
vt 0.27310699224472046 1.7262649536132812
vt 0.28066501021385193 1.719074010848999
vt 0.2614099979400635 1.719074010848999
vt 0.27310699224472046 1.7262649536132812
vt 0.2651180028915405 1.7261550426483154
vt 0.27310699224472046 1.7262649536132812
vt 0.27317801117897034 1.7352180480957031
vt 0.26551398634910583 1.7343909740447998
vt 0.2651180028915405 1.7261550426483154
vt 0.27310699224472046 1.7262649536132812
vt 0.26551398634910583 1.7343909740447998
vt 0.27310699224472046 1.7262649536132812
vt 0.2614099979400635 1.719074010848999
vt 0.28066501021385193 1.719074010848999
vt 0.27317801117897034 1.7352180480957031
vt 0.28066501021385193 1.719074010848999
vt 0.28066501021385193 1.738070011138916
vt 0.3619000017642975 1.735727071762085
vt 0.3619000017642975 1.6895570755004883
vt 0.37344300746917725 1.7359840869903564
vt 0.37344300746917725 1.7359840869903564
vt 0.3619000017642975 1.6895570755004883
vt 0.374224990606308 1.6386020183563232
vt 0.26361599564552307 1.6260690689086914
vt 0.3620159924030304 1.6260690689086914
vt 0.3110649883747101 1.6383459568023682
vn 0 -9.999999974747427e-7 -0.9999999999995
vn 0 -9.999999974747427e-7 -0.9999999999995
vn 0 -9.999999974747427e-7 -0.9999999999995
vn 0 1 0
vn 0 1 0
vn 0 1 0
vn 0 1 0
vn 0 1 0
vn 0 1 0
vn -0.9999999999995 9.999999974747427e-7 0
vn -0.9999999999995 9.999999974747427e-7 0
vn -0.9999999999995 9.999999974747427e-7 0
vn 0 -9.999999974747427e-7 -0.9999999999995
vn -9.999999974742428e-7 9.999999974742428e-7 -0.9999999999990001
vn 0 -9.999999974747427e-7 -0.9999999999995
vn 1 0 0
vn 1 0 0
vn 1 0 0
vn -0.9999999999995 9.999999974747427e-7 0
vn -0.9999999999995 9.999999974747427e-7 0
vn -1 0 0
vn 0 -9.999999974747427e-7 -0.9999999999995
vn 0 -9.999999974747427e-7 -0.9999999999995
vn 9.999999974742428e-7 9.999999974742428e-7 -0.9999999999990001
vn 0 -9.999999974747427e-7 -0.9999999999995
vn 9.999999974742428e-7 -9.999999974742428e-7 -0.9999999999990001
vn 9.999999974742428e-7 9.999999974742428e-7 -0.9999999999990001
vn -0.4060748352395274 0.4143278138345313 -0.8145156173262048
vn -0.4060748352395274 0.4143278138345313 -0.8145156173262048
vn -0.4060748352395274 0.4143278138345313 -0.8145156173262048
vn -0.4101110443818393 0.43090302074326703 -0.8038230638581881
vn -0.4101110443818393 0.43090302074326703 -0.8038230638581881
vn -0.4101110443818393 0.43090302074326703 -0.8038230638581881
vn -0.8091434417246934 0.4300792590517693 -0.4003982038513643
vn -0.8091434417246934 0.4300792590517693 -0.4003982038513643
vn -0.8091434417246934 0.4300792590517693 -0.4003982038513643
vn -0.8101258909847151 0.42858195494833246 -0.4000169354525968
vn -0.8101258909847151 0.42858195494833246 -0.4000169354525968
vn -0.8101258909847151 0.42858195494833246 -0.4000169354525968
vn 1 0 0
vn 1 0 0
vn 1 0 0
vn 0 1 0
vn 0 1 0
vn 0 1 0
vn 0 1 0
vn 0 1 0
vn 0 1 0
vn 9.999999974742428e-7 9.999999974742428e-7 -0.9999999999990001
vn 9.999999974742428e-7 -9.999999974742428e-7 -0.9999999999990001
vn -9.999999974742428e-7 9.999999974742428e-7 -0.9999999999990001
vn -0.883926328924398 0.4676261808691176 0
vn -0.883926328924398 0.4676261808691176 0
vn -0.883926328924398 0.4676261808691176 0
vn -0.883926328924398 0.4676261808691176 0
vn -0.883926328924398 0.4676261808691176 0
vn -0.8839290596088083 0.4676210191801562 0
vn 0 1 0
vn 0 1 0
vn 0 1 0
vn 0 1 0
vn 0 1 0
vn 0 1 0
vn -0.9999999999995 9.999999974747427e-7 0
vn -0.9999999999995 9.999999974747427e-7 0
vn -1 0 0
vn -0.9999999999995 9.999999974747427e-7 0
vn -1 0 0
vn -1 0 0
vn -1 0 0
vn -1 0 0
vn -1 0 0
vn -1 0 0
vn -1 0 0
vn -1 0 0
vn 0 1 0
vn 0 1 0
vn 0 1 0
vn -9.999999974747427e-7 0 0.9999999999995
vn -9.999999974747427e-7 0 0.9999999999995
vn -9.999999974747427e-7 0 0.9999999999995
vn 0 0 1
vn -9.999999974747427e-7 0 0.9999999999995
vn 0 0 1
vn 0 1 0
vn 0 1 0
vn 0 1 0
vn 0 1 0
vn 0 1 0
vn 0 1 0
vn 0 0.4533928996227105 -0.8913107643082241
vn 0 0.4533928996227105 -0.8913107643082241
vn 0 0.4533928996227105 -0.8913107643082241
vn 0 0.4533928996227105 -0.8913107643082241
vn 0 0.4533928996227105 -0.8913107643082241
vn 0 0.4533928996227105 -0.8913107643082241
vn 0 1 0
vn 0 1 0
vn 0 1 0
vn 0 1 0
vn 0 1 0
vn 0 1 0
vn 0 1 0
vn 0 1 0
vn 0 1 0
vn 0 1 0
vn 0 1 0
vn 0 1 0
vn 0 1 0
vn 0 1 0
vn 0 1 0
vn 9.999999974742428e-7 9.999999974742428e-7 -0.9999999999990001
vn -9.999999974742428e-7 9.999999974742428e-7 -0.9999999999990001
vn -9.999999974742428e-7 -9.999999974742428e-7 -0.9999999999990001
vn 0.893709643298406 0.44864582186334456 0
vn 0.893709643298406 0.44864582186334456 0
vn 0.893709643298406 0.44864582186334456 0
vn 0 0.4486550173818091 0.8937050270520631
vn 0 0.4486550173818091 0.8937050270520631
vn 0 0.4486550173818091 0.8937050270520631
vn 0 1 0
vn 0 1 0
vn 0 1 0
vn 0 1 0
vn 0 1 0
vn 0 1 0
vn 0 0.4486550173818091 0.8937050270520631
vn 0 0.4486550173818091 0.8937050270520631
vn 0 0.4486538024492945 0.8937056369676704
vn 0.8937050270520631 0.4486550173818091 0
vn 0.8937050270520631 0.4486550173818091 0
vn 0.8937050270520631 0.4486550173818091 0
vn 0.9999999999995 9.999999974747427e-7 0
vn 1 0 0
vn 0.9999999999995 9.999999974747427e-7 0
vn 0.9999999999995 9.999999974747427e-7 0
vn 1 0 0
vn 1 0 0
vn 0 0 1
vn -9.999999974747427e-7 0 0.9999999999995
vn -9.999999974747427e-7 0 0.9999999999995
f 1/1/1 2/2/2 3/3/3
f 4/4/4 5/5/5 6/6/6
f 7/7/7 8/8/8 9/9/9
f 10/10/10 11/11/11 12/12/12
f 13/13/13 14/14/14 15/15/15
f 16/16/16 17/17/17 18/18/18
f 19/19/19 20/20/20 21/21/21
f 22/22/22 23/23/23 24/24/24
f 25/25/25 26/26/26 27/27/27
f 28/28/28 29/29/29 30/30/30
f 31/31/31 32/32/32 33/33/33
f 34/34/34 35/35/35 36/36/36
f 37/37/37 38/38/38 39/39/39
f 40/40/40 41/41/41 42/42/42
f 43/43/43 44/44/44 45/45/45
f 46/46/46 47/47/47 48/48/48
f 49/49/49 50/50/50 51/51/51
f 52/52/52 53/53/53 54/54/54
f 55/55/55 56/56/56 57/57/57
f 58/58/58 59/59/59 60/60/60
f 61/61/61 62/62/62 63/63/63
f 64/64/64 65/65/65 66/66/66
f 67/67/67 68/68/68 69/69/69
f 70/70/70 71/71/71 72/72/72
f 73/73/73 74/74/74 75/75/75
f 76/76/76 77/77/77 78/78/78
f 79/79/79 80/80/80 81/81/81
f 82/82/82 83/83/83 84/84/84
f 85/85/85 86/86/86 87/87/87
f 88/88/88 89/89/89 90/90/90
f 91/91/91 92/92/92 93/93/93
f 94/94/94 95/95/95 96/96/96
f 97/97/97 98/98/98 99/99/99
f 100/100/100 101/101/101 102/102/102
f 103/103/103 104/104/104 105/105/105
f 106/106/106 107/107/107 108/108/108
f 109/109/109 110/110/110 111/111/111
f 112/112/112 113/113/113 114/114/114
f 115/115/115 116/116/116 117/117/117
f 118/118/118 119/119/119 120/120/120
f 121/121/121 122/122/122 123/123/123
f 124/124/124 125/125/125 126/126/126
f 127/127/127 128/128/128 129/129/129
f 130/130/130 131/131/131 132/132/132
f 133/133/133 134/134/134 135/135/135
f 136/136/136 137/137/137 138/138/138
f 139/139/139 140/140/140 141/141/141
