mtllib tile_sw.mtl
o Unmerged_tile_sw
usemtl material
v -0.5 0.1004749983549118 -0.5
v -0.5 -0.2000740021467209 -0.5
v -0.5 -0.00007400000322377309 -0.29795899987220764
v 0.5 0.1004749983549118 -0.5
v -0.0010349999647587538 0.1004749983549118 -0.5
v 0.23304499685764313 0.1004749983549118 -0.2355699986219406
v 0.23304499685764313 0.1004749983549118 -0.2355699986219406
v -0.0010349999647587538 0.1004749983549118 -0.5
v -0.0010349999647587538 0.1004749983549118 -0.3511529862880707
v 0.5 0.1004749983549118 0.4999989867210388
v 0.2997080087661743 -0.00007400000322377309 0.4999989867210388
v 0.5 -0.20084500312805176 0.4999989867210388
v -0.5 -0.00007400000322377309 -0.29795899987220764
v -0.5 0.1004749983549118 -0.3511529862880707
v -0.5 0.1004749983549118 -0.5
v 0.5 -0.2000740021467209 0.4999989867210388
v 0.5 0.1004749983549118 0.4999989867210388
v 0.5 -0.20084500312805176 0.4999989867210388
v 0.2997080087661743 -0.00007400000322377309 0.4999989867210388
v 0.5 0.1004749983549118 0.4999989867210388
v 0.3508549928665161 0.1004749983549118 0.4999989867210388
v -0.5 -0.00007400000322377309 -0.29795899987220764
v -0.5 -0.2000740021467209 -0.5
v -0.5000010132789612 -0.00007400000322377309 0.2999989986419678
v -0.5 -0.2000740021467209 -0.5
v -0.5 -0.2000740021467209 0.4999989867210388
v -0.5000010132789612 -0.00007400000322377309 0.2999989986419678
v 0.3508549928665161 0.1004749983549118 0.0007389999809674919
v 0.23304499685764313 0.1004749983549118 -0.2355699986219406
v 0.2997080087661743 -0.00007400000322377309 0.0007389999809674919
v 0.2997080087661743 -0.00007400000322377309 0.0007389999809674919
v 0.23304499685764313 0.1004749983549118 -0.2355699986219406
v 0.19741599261760712 -0.00007400000322377309 -0.19975699484348297
v 0.19741599261760712 -0.00007400000322377309 -0.19975699484348297
v 0.23304499685764313 0.1004749983549118 -0.2355699986219406
v -0.0010349999647587538 -0.00007400000322377309 -0.29795899987220764
v -0.0010349999647587538 -0.00007400000322377309 -0.29795899987220764
v 0.23304499685764313 0.1004749983549118 -0.2355699986219406
v -0.0010349999647587538 0.1004749983549118 -0.3511529862880707
v 0.5 0.1004749983549118 -0.5
v 0.5 -0.2000740021467209 -0.5
v -0.0010349999647587538 0.1004749983549118 -0.5
v 0.2997080087661743 -0.00007400000322377309 0.0007389999809674919
v 0.19741599261760712 -0.00007400000322377309 -0.19975699484348297
v -0.30000099539756775 -0.00007400000322377309 0.2999989986419678
v -0.30000099539756775 -0.00007400000322377309 0.2999989986419678
v 0.19741599261760712 -0.00007400000322377309 -0.19975699484348297
v -0.0010349999647587538 -0.00007400000322377309 -0.29795899987220764
v -0.5000010132789612 -0.00007400000322377309 0.2999989986419678
v -0.5 -0.2000740021467209 0.4999989867210388
v -0.5 0.09952499717473984 0.4999989867210388
v -0.0010349999647587538 -0.00007400000322377309 -0.29795899987220764
v -0.0010349999647587538 0.1004749983549118 -0.3511529862880707
v -0.5 -0.00007400000322377309 -0.29795899987220764
v -0.5 -0.00007400000322377309 -0.29795899987220764
v -0.0010349999647587538 0.1004749983549118 -0.3511529862880707
v -0.5 0.1004749983549118 -0.3511529862880707
v -0.0010349999647587538 0.1004749983549118 -0.5
v -0.5 0.1004749983549118 -0.5
v -0.0010349999647587538 0.1004749983549118 -0.3511529862880707
v -0.0010349999647587538 0.1004749983549118 -0.3511529862880707
v -0.5 0.1004749983549118 -0.5
v -0.5 0.1004749983549118 -0.3511529862880707
v 0.5 -0.20084500312805176 0.4999989867210388
v 0.2997080087661743 -0.00007400000322377309 0.4999989867210388
v -0.5 -0.2000740021467209 0.4999989867210388
v 0.2997080087661743 -0.00007400000322377309 0.4999989867210388
v -0.30000001192092896 -0.00007400000322377309 0.4999989867210388
v -0.5 -0.2000740021467209 0.4999989867210388
v -0.30000001192092896 -0.00007400000322377309 0.4999989867210388
v -0.5 0.09952499717473984 0.4999989867210388
v -0.5 -0.2000740021467209 0.4999989867210388
v -0.3499999940395355 0.09952499717473984 0.4999989867210388
v -0.5 0.09952499717473984 0.4999989867210388
v -0.30000001192092896 -0.00007400000322377309 0.4999989867210388
v -0.5 -0.00007400000322377309 -0.29795899987220764
v -0.5000010132789612 -0.00007400000322377309 0.2999989986419678
v -0.30000099539756775 -0.00007400000322377309 0.2999989986419678
v 0.5 0.1004749983549118 0.0007389999809674919
v 0.5 -0.2000740021467209 -0.5
v 0.5 0.1004749983549118 -0.5
v 0.5 -0.2000740021467209 0.4999989867210388
v 0.5 0.1004749983549118 0.0007389999809674919
v 0.5 0.1004749983549118 0.4999989867210388
v 0.5 0.1004749983549118 0.0007389999809674919
v 0.3508549928665161 0.1004749983549118 0.0007389999809674919
v 0.5 0.1004749983549118 0.4999989867210388
v 0.5 0.1004749983549118 0.4999989867210388
v 0.3508549928665161 0.1004749983549118 0.0007389999809674919
v 0.3508549928665161 0.1004749983549118 0.4999989867210388
v 0.2997080087661743 -0.00007400000322377309 0.4999989867210388
v 0.3508549928665161 0.1004749983549118 0.4999989867210388
v 0.2997080087661743 -0.00007400000322377309 0.0007389999809674919
v 0.2997080087661743 -0.00007400000322377309 0.0007389999809674919
v 0.3508549928665161 0.1004749983549118 0.4999989867210388
v 0.3508549928665161 0.1004749983549118 0.0007389999809674919
v -0.30000099539756775 -0.00007400000322377309 0.2999989986419678
v 0.2997080087661743 -0.00007400000322377309 0.4999989867210388
v 0.2997080087661743 -0.00007400000322377309 0.0007389999809674919
v 0.5 0.1004749983549118 -0.5
v 0.23304499685764313 0.1004749983549118 -0.2355699986219406
v 0.5 0.1004749983549118 0.0007389999809674919
v 0.5 0.1004749983549118 0.0007389999809674919
v 0.23304499685764313 0.1004749983549118 -0.2355699986219406
v 0.3508549928665161 0.1004749983549118 0.0007389999809674919
v -0.30000099539756775 -0.00007400000322377309 0.2999989986419678
v -0.30000001192092896 -0.00007400000322377309 0.4999989867210388
v 0.2997080087661743 -0.00007400000322377309 0.4999989867210388
v -0.30000099539756775 -0.00007400000322377309 0.2999989986419678
v -0.0010349999647587538 -0.00007400000322377309 -0.29795899987220764
v -0.5 -0.00007400000322377309 -0.29795899987220764
v -0.5000010132789612 -0.00007400000322377309 0.2999989986419678
v -0.5 0.09952499717473984 0.4999989867210388
v -0.5 0.09952499717473984 0.34999901056289673
v -0.5 0.09952499717473984 0.34999901056289673
v -0.3499999940395355 0.09952499717473984 0.34999901056289673
v -0.30000099539756775 -0.00007400000322377309 0.2999989986419678
v -0.30000001192092896 -0.00007400000322377309 0.4999989867210388
v -0.3499999940395355 0.09952499717473984 0.34999901056289673
v -0.3499999940395355 0.09952499717473984 0.4999989867210388
v -0.3499999940395355 0.09952499717473984 0.34999901056289673
v -0.5 0.09952499717473984 0.34999901056289673
v -0.5 0.09952499717473984 0.4999989867210388
v -0.3499999940395355 0.09952499717473984 0.4999989867210388
v -0.3499999940395355 0.09952499717473984 0.34999901056289673
v -0.5 0.09952499717473984 0.4999989867210388
v -0.3499999940395355 0.09952499717473984 0.34999901056289673
v -0.30000001192092896 -0.00007400000322377309 0.4999989867210388
v -0.30000099539756775 -0.00007400000322377309 0.2999989986419678
v -0.5 0.09952499717473984 0.34999901056289673
v -0.30000099539756775 -0.00007400000322377309 0.2999989986419678
v -0.5000010132789612 -0.00007400000322377309 0.2999989986419678
v -0.5 0.1004749983549118 -0.5
v -0.0010349999647587538 0.1004749983549118 -0.5
v -0.5 -0.2000740021467209 -0.5
v -0.5 -0.2000740021467209 -0.5
v -0.0010349999647587538 0.1004749983549118 -0.5
v 0.5 -0.2000740021467209 -0.5
v 0.5 -0.2000740021467209 0.4999989867210388
v 0.5 -0.2000740021467209 -0.5
v 0.5 0.1004749983549118 0.0007389999809674919
vt 0.26350900530815125 1.986886978149414
vt 0.2504349946975708 1.9866570234298706
vt 0.26113399863243103 1.9635339975357056
vt 0.3622179925441742 1.986886978149414
vt 0.3103089928627014 1.986886978149414
vt 0.3361540138721466 1.9621340036392212
vt 0.3361540138721466 1.9621340036392212
vt 0.3103089928627014 1.986886978149414
vt 0.31050100922584534 1.973525047302246
vt 0.3622179925441742 1.8897500038146973
vt 0.33812299370765686 1.8877320289611816
vt 0.3608799874782562 1.8770359754562378
vt 0.26113399863243103 1.9635339975357056
vt 0.26461800932884216 1.9724249839782715
vt 0.26350900530815125 1.986886978149414
vt 0.37466201186180115 1.889909029006958
vt 0.3622179925441742 1.8897500038146973
vt 0.37466201186180115 1.8898999691009521
vt 0.33812299370765686 1.8877320289611816
vt 0.3622179925441742 1.8897500038146973
vt 0.34794801473617554 1.8909419775009155
vt 0.26113399863243103 1.9635339975357056
vt 0.2504349946975708 1.9866570234298706
vt 0.26113399863243103 1.9067310094833374
vt 0.2504349946975708 1.9866570234298706
vt 0.2504889965057373 1.891484022140503
vt 0.26113399863243103 1.9067310094833374
vt 0.3483540117740631 1.9366319179534912
vt 0.3361540138721466 1.9621340036392212
vt 0.33812299370765686 1.9351589679718018
vt 0.33812299370765686 1.9351589679718018
vt 0.3361540138721466 1.9621340036392212
vt 0.32827499508857727 1.95420503616333
vt 0.32827499508857727 1.95420503616333
vt 0.3361540138721466 1.9621340036392212
vt 0.3091700077056885 1.9635339975357056
vt 0.3091700077056885 1.9635339975357056
vt 0.3361540138721466 1.9621340036392212
vt 0.31050100922584534 1.973525047302246
vt 0.3622179925441742 1.986886978149414
vt 0.36195799708366394 1.9990500211715698
vt 0.3103089928627014 1.986886978149414
vt 0.33812299370765686 1.9351589679718018
vt 0.32827499508857727 1.95420503616333
vt 0.2803879976272583 1.9067310094833374
vt 0.2803879976272583 1.9067310094833374
vt 0.32827499508857727 1.95420503616333
vt 0.3091700077056885 1.9635339975357056
vt 0.26113399863243103 1.9067310094833374
vt 0.2504889965057373 1.891484022140503
vt 0.2648630142211914 1.8917820453643799
vt 0.3091700077056885 1.9635339975357056
vt 0.31050100922584534 1.973525047302246
vt 0.26113399863243103 1.9635339975357056
vt 0.26113399863243103 1.9635339975357056
vt 0.31050100922584534 1.973525047302246
vt 0.26461800932884216 1.9724249839782715
vt 0.3103089928627014 1.986886978149414
vt 0.26350900530815125 1.986886978149414
vt 0.31050100922584534 1.973525047302246
vt 0.31050100922584534 1.973525047302246
vt 0.26350900530815125 1.986886978149414
vt 0.26461800932884216 1.9724249839782715
vt 0.3608799874782562 1.8770359754562378
vt 0.33812299370765686 1.8877320289611816
vt 0.26485100388526917 1.8765339851379395
vt 0.33812299370765686 1.8877320289611816
vt 0.2803879976272583 1.8877320289611816
vt 0.26485100388526917 1.8765339851379395
vt 0.2803879976272583 1.8877320289611816
vt 0.2648630142211914 1.8917820453643799
vt 0.26485100388526917 1.8765339851379395
vt 0.2732110023498535 1.8913910388946533
vt 0.2648630142211914 1.8917820453643799
vt 0.2803879976272583 1.8877320289611816
vt 0.26113399863243103 1.9635339975357056
vt 0.26113399863243103 1.9067310094833374
vt 0.2803879976272583 1.9067310094833374
vt 0.3622179925441742 1.9367280006408691
vt 0.37466201186180115 1.9870020151138306
vt 0.3622179925441742 1.986886978149414
vt 0.37466201186180115 1.889909029006958
vt 0.3622179925441742 1.9367280006408691
vt 0.3622179925441742 1.8897500038146973
vt 0.3622179925441742 1.9367280006408691
vt 0.3483540117740631 1.9366319179534912
vt 0.3622179925441742 1.8897500038146973
vt 0.3622179925441742 1.8897500038146973
vt 0.3483540117740631 1.9366319179534912
vt 0.34794801473617554 1.8909419775009155
vt 0.33812299370765686 1.8877320289611816
vt 0.34794801473617554 1.8909419775009155
vt 0.33812299370765686 1.9351589679718018
vt 0.33812299370765686 1.9351589679718018
vt 0.34794801473617554 1.8909419775009155
vt 0.3483540117740631 1.9366319179534912
vt 0.2803879976272583 1.9067310094833374
vt 0.33812299370765686 1.8877320289611816
vt 0.33812299370765686 1.9351589679718018
vt 0.3622179925441742 1.986886978149414
vt 0.3361540138721466 1.9621340036392212
vt 0.3622179925441742 1.9367280006408691
vt 0.3622179925441742 1.9367280006408691
vt 0.3361540138721466 1.9621340036392212
vt 0.3483540117740631 1.9366319179534912
vt 0.2803879976272583 1.9067310094833374
vt 0.2803879976272583 1.8877320289611816
vt 0.33812299370765686 1.8877320289611816
vt 0.2803879976272583 1.9067310094833374
vt 0.3091700077056885 1.9635339975357056
vt 0.26113399863243103 1.9635339975357056
vt 0.26113399863243103 1.9067310094833374
vt 0.2648630142211914 1.8917820453643799
vt 0.2640250027179718 1.8993439674377441
vt 0.2640250027179718 1.8993439674377441
vt 0.27309998869895935 1.8992739915847778
vt 0.2803879976272583 1.9067310094833374
vt 0.2803879976272583 1.8877320289611816
vt 0.27309998869895935 1.8992739915847778
vt 0.2732110023498535 1.8913910388946533
vt 0.27309998869895935 1.8992739915847778
vt 0.2640250027179718 1.8993439674377441
vt 0.2648630142211914 1.8917820453643799
vt 0.2732110023498535 1.8913910388946533
vt 0.27309998869895935 1.8992739915847778
vt 0.2648630142211914 1.8917820453643799
vt 0.27309998869895935 1.8992739915847778
vt 0.2803879976272583 1.8877320289611816
vt 0.2803879976272583 1.9067310094833374
vt 0.2640250027179718 1.8993439674377441
vt 0.2803879976272583 1.9067310094833374
vt 0.26113399863243103 1.9067310094833374
vt 0.26350900530815125 1.986886978149414
vt 0.3103089928627014 1.986886978149414
vt 0.2632479965686798 1.998278021812439
vt 0.2632479965686798 1.998278021812439
vt 0.3103089928627014 1.986886978149414
vt 0.36195799708366394 1.9990500211715698
vt 0.37466201186180115 1.889909029006958
vt 0.37466201186180115 1.9870020151138306
vt 0.3622179925441742 1.9367280006408691
vn -1 0 0
vn -1 0 0
vn -1 0 0
vn 0 1 0
vn 0 1 0
vn 0 1 0
vn 0 1 0
vn 0 1 0
vn 0 1 0
vn 0 0 1
vn 0 0 1
vn 0 0 1
vn -1 0 0
vn -1 0 0
vn -1 0 0
vn 1 0 0
vn 1 0 0
vn 1 0 0
vn 0 0 1
vn 0 0 1
vn 0 0 1
vn -1 0 0
vn -1 0 0
vn -0.999999999998 0 -0.0000019999999949464853
vn -1 0 0
vn -0.9999999999975 -0.0000019999999949454854 -9.999999974727427e-7
vn -0.999999999998 0 -0.0000019999999949464853
vn -0.8145149350269189 0.4143319720865635 0.4060719610179374
vn -0.8145149350269189 0.4143319720865635 0.4060719610179374
vn -0.8145149350269189 0.4143319720865635 0.4060719610179374
vn -0.8038268318138835 0.43089992819744205 0.41010690842205305
vn -0.8038268318138835 0.43089992819744205 0.41010690842205305
vn -0.8038268318138835 0.43089992819744205 0.41010690842205305
vn -0.4003989506404173 0.4300739583067413 0.8091458896345108
vn -0.4003989506404173 0.4300739583067413 0.8091458896345108
vn -0.4003989506404173 0.4300739583067413 0.8091458896345108
vn -0.4000189613486757 0.42857995535575644 0.8101259484973831
vn -0.4000189613486757 0.42857995535575644 0.8101259484973831
vn -0.4000189613486757 0.42857995535575644 0.8101259484973831
vn 0 0 -1
vn 0 0 -1
vn 0 0 -1
vn 0 1 0
vn 0 1 0
vn 0 1 0
vn 0 1 0
vn 0 1 0
vn 0 1 0
vn -0.999999999998 0 -0.0000019999999949464853
vn -0.9999999999975 -0.0000019999999949454854 -9.999999974727427e-7
vn -0.9999999999960001 -0.0000019999999949424856 0.0000019999999949424856
vn 0 0.467623000841294 0.8839280112566765
vn 0 0.467623000841294 0.8839280112566765
vn 0 0.467623000841294 0.8839280112566765
vn 0 0.467623000841294 0.8839280112566765
vn 0 0.467623000841294 0.8839280112566765
vn 0 0.46762380200819564 0.8839275874161864
vn 0 1 0
vn 0 1 0
vn 0 1 0
vn 0 1 0
vn 0 1 0
vn 0 1 0
vn 0 0 1
vn 0 0 1
vn 0 0 1
vn 0 0 1
vn 0 0 1
vn 0 0 1
vn 0 0 1
vn 0 0 1
vn 0 0 1
vn 0 0 1
vn 0 0 1
vn 0 0 1
vn 0 1 0
vn 0 1 0
vn 0 1 0
vn 0.9999999999995 0 9.999999974747427e-7
vn 0.9999999999995 0 9.999999974747427e-7
vn 0.9999999999995 0 9.999999974747427e-7
vn 1 0 0
vn 0.9999999999995 0 9.999999974747427e-7
vn 1 0 0
vn 0 1 0
vn 0 1 0
vn 0 1 0
vn 0 1 0
vn 0 1 0
vn 0 1 0
vn -0.891310160248816 0.4533940871220419 0
vn -0.891310160248816 0.4533940871220419 0
vn -0.891310160248816 0.4533940871220419 0
vn -0.891310160248816 0.4533940871220419 0
vn -0.891310160248816 0.4533940871220419 0
vn -0.891310160248816 0.4533940871220419 0
vn 0 1 0
vn 0 1 0
vn 0 1 0
vn 0 1 0
vn 0 1 0
vn 0 1 0
vn 0 1 0
vn 0 1 0
vn 0 1 0
vn 0 1 0
vn 0 1 0
vn 0 1 0
vn 0 1 0
vn 0 1 0
vn 0 1 0
vn -0.99999999995 0.000009999999746878751 0
vn -0.99999999995 0.000009999999746878751 0
vn -0.99999999995 0.000009999999746878751 0
vn 0 0.4486530164570353 -0.8937060315472884
vn 0 0.4486530164570353 -0.8937060315472884
vn 0 0.4486530164570353 -0.8937060315472884
vn 0.8937050270520631 0.4486550173818091 0
vn 0.8937050270520631 0.4486550173818091 0
vn 0.8937050270520631 0.4486550173818091 0
vn 0 1 0
vn 0 1 0
vn 0 1 0
vn 0 1 0
vn 0 1 0
vn 0 1 0
vn 0.8937050270520631 0.4486550173818091 0
vn 0.8937050270520631 0.4486550173818091 0
vn 0.8937076341426756 0.4486498241101868 -9.999995909789689e-7
vn 0 0.4486530164570353 -0.8937060315472884
vn 0 0.4486530164570353 -0.8937060315472884
vn 0 0.4486530164570353 -0.8937060315472884
vn 0 0 -1
vn 0 0 -1
vn 0 0 -1
vn 0 0 -1
vn 0 0 -1
vn 0 0 -1
vn 1 0 0
vn 0.9999999999995 0 9.999999974747427e-7
vn 0.9999999999995 0 9.999999974747427e-7
f 1/1/1 2/2/2 3/3/3
f 4/4/4 5/5/5 6/6/6
f 7/7/7 8/8/8 9/9/9
f 10/10/10 11/11/11 12/12/12
f 13/13/13 14/14/14 15/15/15
f 16/16/16 17/17/17 18/18/18
f 19/19/19 20/20/20 21/21/21
f 22/22/22 23/23/23 24/24/24
f 25/25/25 26/26/26 27/27/27
f 28/28/28 29/29/29 30/30/30
f 31/31/31 32/32/32 33/33/33
f 34/34/34 35/35/35 36/36/36
f 37/37/37 38/38/38 39/39/39
f 40/40/40 41/41/41 42/42/42
f 43/43/43 44/44/44 45/45/45
f 46/46/46 47/47/47 48/48/48
f 49/49/49 50/50/50 51/51/51
f 52/52/52 53/53/53 54/54/54
f 55/55/55 56/56/56 57/57/57
f 58/58/58 59/59/59 60/60/60
f 61/61/61 62/62/62 63/63/63
f 64/64/64 65/65/65 66/66/66
f 67/67/67 68/68/68 69/69/69
f 70/70/70 71/71/71 72/72/72
f 73/73/73 74/74/74 75/75/75
f 76/76/76 77/77/77 78/78/78
f 79/79/79 80/80/80 81/81/81
f 82/82/82 83/83/83 84/84/84
f 85/85/85 86/86/86 87/87/87
f 88/88/88 89/89/89 90/90/90
f 91/91/91 92/92/92 93/93/93
f 94/94/94 95/95/95 96/96/96
f 97/97/97 98/98/98 99/99/99
f 100/100/100 101/101/101 102/102/102
f 103/103/103 104/104/104 105/105/105
f 106/106/106 107/107/107 108/108/108
f 109/109/109 110/110/110 111/111/111
f 112/112/112 113/113/113 114/114/114
f 115/115/115 116/116/116 117/117/117
f 118/118/118 119/119/119 120/120/120
f 121/121/121 122/122/122 123/123/123
f 124/124/124 125/125/125 126/126/126
f 127/127/127 128/128/128 129/129/129
f 130/130/130 131/131/131 132/132/132
f 133/133/133 134/134/134 135/135/135
f 136/136/136 137/137/137 138/138/138
f 139/139/139 140/140/140 141/141/141
