mtllib tile_rounded.mtl
o tile_default
usemtl material
v -0.4750019907951355 -0.125 -0.4750019907951355
v 0.4750019907951355 -0.125 -0.4750019907951355
v -0.4750019907951355 -0.125 0.4750019907951355
v -0.4750019907951355 -0.125 0.4750019907951355
v 0.4750019907951355 -0.125 -0.4750019907951355
v 0.4750019907951355 -0.125 0.4750019907951355
v 0.4750019907951355 -0.1000019982457161 0.5
v 0.4750019907951355 0.1000019982457161 0.5
v -0.4750019907951355 -0.1000019982457161 0.5
v -0.4750019907951355 -0.1000019982457161 0.5
v 0.4750019907951355 0.1000019982457161 0.5
v -0.4750019907951355 0.1000019982457161 0.5
v -0.5 0.1000019982457161 0.4750019907951355
v -0.5 0.1000019982457161 -0.4750019907951355
v -0.5 -0.1000019982457161 0.4750019907951355
v -0.5 -0.1000019982457161 0.4750019907951355
v -0.5 0.1000019982457161 -0.4750019907951355
v -0.5 -0.1000019982457161 -0.4750019907951355
v 0.5 -0.1000019982457161 -0.4750019907951355
v 0.5 0.1000019982457161 -0.4750019907951355
v 0.5 -0.1000019982457161 0.4750019907951355
v 0.5 -0.1000019982457161 0.4750019907951355
v 0.5 0.1000019982457161 -0.4750019907951355
v 0.5 0.1000019982457161 0.4750019907951355
v 0.4750019907951355 0.125 0.4750019907951355
v 0.4750019907951355 0.125 -0.4750019907951355
v -0.4750019907951355 0.125 0.4750019907951355
v -0.4750019907951355 0.125 0.4750019907951355
v 0.4750019907951355 0.125 -0.4750019907951355
v -0.4750019907951355 0.125 -0.4750019907951355
v 0.4750019907951355 0.1000019982457161 -0.5
v 0.4750019907951355 -0.1000019982457161 -0.5
v -0.4750019907951355 0.1000019982457161 -0.5
v -0.4750019907951355 0.1000019982457161 -0.5
v 0.4750019907951355 -0.1000019982457161 -0.5
v -0.4750019907951355 -0.1000019982457161 -0.5
v -0.4750019907951355 -0.125 0.4750019907951355
v -0.5 -0.1000019982457161 0.4750019907951355
v -0.4750019907951355 -0.125 -0.4750019907951355
v -0.4750019907951355 -0.125 -0.4750019907951355
v -0.5 -0.1000019982457161 0.4750019907951355
v -0.5 -0.1000019982457161 -0.4750019907951355
v -0.4750019907951355 -0.1000019982457161 0.5
v -0.4750019907951355 -0.125 0.4750019907951355
v 0.4750019907951355 -0.1000019982457161 0.5
v 0.4750019907951355 -0.1000019982457161 0.5
v -0.4750019907951355 -0.125 0.4750019907951355
v 0.4750019907951355 -0.125 0.4750019907951355
v -0.5 -0.1000019982457161 0.4750019907951355
v -0.4750019907951355 -0.1000019982457161 0.5
v -0.5 0.1000019982457161 0.4750019907951355
v -0.5 0.1000019982457161 0.4750019907951355
v -0.4750019907951355 -0.1000019982457161 0.5
v -0.4750019907951355 0.1000019982457161 0.5
v 0.5 -0.1000019982457161 0.4750019907951355
v 0.4750019907951355 -0.125 0.4750019907951355
v 0.5 -0.1000019982457161 -0.4750019907951355
v 0.5 -0.1000019982457161 -0.4750019907951355
v 0.4750019907951355 -0.125 0.4750019907951355
v 0.4750019907951355 -0.125 -0.4750019907951355
v 0.4750019907951355 -0.1000019982457161 0.5
v 0.5 -0.1000019982457161 0.4750019907951355
v 0.4750019907951355 0.1000019982457161 0.5
v 0.4750019907951355 0.1000019982457161 0.5
v 0.5 -0.1000019982457161 0.4750019907951355
v 0.5 0.1000019982457161 0.4750019907951355
v -0.5 0.1000019982457161 0.4750019907951355
v -0.4750019907951355 0.125 0.4750019907951355
v -0.5 0.1000019982457161 -0.4750019907951355
v -0.5 0.1000019982457161 -0.4750019907951355
v -0.4750019907951355 0.125 0.4750019907951355
v -0.4750019907951355 0.125 -0.4750019907951355
v -0.4750019907951355 0.125 0.4750019907951355
v -0.4750019907951355 0.1000019982457161 0.5
v 0.4750019907951355 0.125 0.4750019907951355
v 0.4750019907951355 0.125 0.4750019907951355
v -0.4750019907951355 0.1000019982457161 0.5
v 0.4750019907951355 0.1000019982457161 0.5
v 0.4750019907951355 0.125 0.4750019907951355
v 0.5 0.1000019982457161 0.4750019907951355
v 0.4750019907951355 0.125 -0.4750019907951355
v 0.4750019907951355 0.125 -0.4750019907951355
v 0.5 0.1000019982457161 0.4750019907951355
v 0.5 0.1000019982457161 -0.4750019907951355
v -0.5 0.1000019982457161 -0.4750019907951355
v -0.4750019907951355 0.1000019982457161 -0.5
v -0.5 -0.1000019982457161 -0.4750019907951355
v -0.5 -0.1000019982457161 -0.4750019907951355
v -0.4750019907951355 0.1000019982457161 -0.5
v -0.4750019907951355 -0.1000019982457161 -0.5
v -0.4750019907951355 0.1000019982457161 -0.5
v -0.4750019907951355 0.125 -0.4750019907951355
v 0.4750019907951355 0.1000019982457161 -0.5
v 0.4750019907951355 0.1000019982457161 -0.5
v -0.4750019907951355 0.125 -0.4750019907951355
v 0.4750019907951355 0.125 -0.4750019907951355
v 0.4750019907951355 0.1000019982457161 -0.5
v 0.5 0.1000019982457161 -0.4750019907951355
v 0.4750019907951355 -0.1000019982457161 -0.5
v 0.4750019907951355 -0.1000019982457161 -0.5
v 0.5 0.1000019982457161 -0.4750019907951355
v 0.5 -0.1000019982457161 -0.4750019907951355
v -0.4750019907951355 -0.125 -0.4750019907951355
v -0.4750019907951355 -0.1000019982457161 -0.5
v 0.4750019907951355 -0.125 -0.4750019907951355
v 0.4750019907951355 -0.125 -0.4750019907951355
v -0.4750019907951355 -0.1000019982457161 -0.5
v 0.4750019907951355 -0.1000019982457161 -0.5
v -0.5 -0.1000019982457161 0.4750019907951355
v -0.4750019907951355 -0.125 0.4750019907951355
v -0.4750019907951355 -0.1000019982457161 0.5
v 0.4750019907951355 -0.125 0.4750019907951355
v 0.5 -0.1000019982457161 0.4750019907951355
v 0.4750019907951355 -0.1000019982457161 0.5
v -0.4750019907951355 0.125 0.4750019907951355
v -0.5 0.1000019982457161 0.4750019907951355
v -0.4750019907951355 0.1000019982457161 0.5
v 0.5 0.1000019982457161 0.4750019907951355
v 0.4750019907951355 0.125 0.4750019907951355
v 0.4750019907951355 0.1000019982457161 0.5
v -0.4750019907951355 0.1000019982457161 -0.5
v -0.5 0.1000019982457161 -0.4750019907951355
v -0.4750019907951355 0.125 -0.4750019907951355
v 0.5 0.1000019982457161 -0.4750019907951355
v 0.4750019907951355 0.1000019982457161 -0.5
v 0.4750019907951355 0.125 -0.4750019907951355
v -0.4750019907951355 -0.125 -0.4750019907951355
v -0.5 -0.1000019982457161 -0.4750019907951355
v -0.4750019907951355 -0.1000019982457161 -0.5
v 0.5 -0.1000019982457161 -0.4750019907951355
v 0.4750019907951355 -0.125 -0.4750019907951355
v 0.4750019907951355 -0.1000019982457161 -0.5
vt 0.014387000352144241 1.0145519971847534
vt 0.49172401428222656 1.0145519971847534
vt 0.014387000352144241 1.4918899536132812
vt 0.014387000352144241 1.4918899536132812
vt 0.49172401428222656 1.0145519971847534
vt 0.49172401428222656 1.4918899536132812
vt 0.511256992816925 1.0145519971847534
vt 0.6117510199546814 1.0145519971847534
vt 0.511256992816925 1.4918899536132812
vt 0.511256992816925 1.4918899536132812
vt 0.6117510199546814 1.0145519971847534
vt 0.6117510199546814 1.4918899536132812
vt 0.731469988822937 1.0019919872283936
vt 0.731469988822937 1.479330062866211
vt 0.6309750080108643 1.0019919872283936
vt 0.6309750080108643 1.0019919872283936
vt 0.731469988822937 1.479330062866211
vt 0.6309750080108643 1.479330062866211
vt 0.7506939768791199 1.0145519971847534
vt 0.8511880040168762 1.0145519971847534
vt 0.7506939768791199 1.4918899536132812
vt 0.7506939768791199 1.4918899536132812
vt 0.8511880040168762 1.0145519971847534
vt 0.8511880040168762 1.4918899536132812
vt 0.9149990081787109 1.5081100463867188
vt 0.9149990081787109 1.9854480028152466
vt 0.43766099214553833 1.5081100463867188
vt 0.43766099214553833 1.5081100463867188
vt 0.9149990081787109 1.9854480028152466
vt 0.43766099214553833 1.9854480028152466
vt 0.3315410017967224 1.5081100463867188
vt 0.43203601241111755 1.5081100463867188
vt 0.3315410017967224 1.9854480028152466
vt 0.3315410017967224 1.9854480028152466
vt 0.43203601241111755 1.5081100463867188
vt 0.43203601241111755 1.9854480028152466
vt 0.014387000352144241 1.4918899536132812
vt 0.0018260000506415963 1.4918899536132812
vt 0.014387000352144241 1.0145519971847534
vt 0.014387000352144241 1.0145519971847534
vt 0.0018260000506415963 1.4918899536132812
vt 0.0018260000506415963 1.0145519971847534
vt 0.014387000352144241 1.5044500827789307
vt 0.014387000352144241 1.4918899536132812
vt 0.49172401428222656 1.5044500827789307
vt 0.49172401428222656 1.5044500827789307
vt 0.014387000352144241 1.4918899536132812
vt 0.49172401428222656 1.4918899536132812
vt 0.511256992816925 1.5044500827789307
vt 0.511256992816925 1.4918899536132812
vt 0.6117510199546814 1.5044500827789307
vt 0.6117510199546814 1.5044500827789307
vt 0.511256992816925 1.4918899536132812
vt 0.6117510199546814 1.4918899536132812
vt 0.5042849779129028 1.4918899536132812
vt 0.49172401428222656 1.4918899536132812
vt 0.5042849779129028 1.0145519971847534
vt 0.5042849779129028 1.0145519971847534
vt 0.49172401428222656 1.4918899536132812
vt 0.49172401428222656 1.0145519971847534
vt 0.511256992816925 1.0145519971847534
vt 0.511256992816925 1.0019919872283936
vt 0.6117510199546814 1.0145519971847534
vt 0.6117510199546814 1.0145519971847534
vt 0.511256992816925 1.0019919872283936
vt 0.6117510199546814 1.0019919872283936
vt 0.731469988822937 1.0019919872283936
vt 0.7440299987792969 1.0019919872283936
vt 0.731469988822937 1.479330062866211
vt 0.731469988822937 1.479330062866211
vt 0.7440299987792969 1.0019919872283936
vt 0.7440299987792969 1.479330062866211
vt 0.6243109703063965 1.4918899536132812
vt 0.6117510199546814 1.4918899536132812
vt 0.6243109703063965 1.0145519971847534
vt 0.6243109703063965 1.0145519971847534
vt 0.6117510199546814 1.4918899536132812
vt 0.6117510199546814 1.0145519971847534
vt 0.8637490272521973 1.4918899536132812
vt 0.8511880040168762 1.4918899536132812
vt 0.8637490272521973 1.0145519971847534
vt 0.8637490272521973 1.0145519971847534
vt 0.8511880040168762 1.4918899536132812
vt 0.8511880040168762 1.0145519971847534
vt 0.731469988822937 1.479330062866211
vt 0.731469988822937 1.4918899536132812
vt 0.6309750080108643 1.479330062866211
vt 0.6309750080108643 1.479330062866211
vt 0.731469988822937 1.4918899536132812
vt 0.6309750080108643 1.4918899536132812
vt 0.43766099214553833 1.9980080127716064
vt 0.43766099214553833 1.9854480028152466
vt 0.9149990081787109 1.9980080127716064
vt 0.9149990081787109 1.9980080127716064
vt 0.43766099214553833 1.9854480028152466
vt 0.9149990081787109 1.9854480028152466
vt 0.8511880040168762 1.0019919872283936
vt 0.8511880040168762 1.0145519971847534
vt 0.7506939768791199 1.0019919872283936
vt 0.7506939768791199 1.0019919872283936
vt 0.8511880040168762 1.0145519971847534
vt 0.7506939768791199 1.0145519971847534
vt 0.014387000352144241 1.0145519971847534
vt 0.014387000352144241 1.0019919872283936
vt 0.49172401428222656 1.0145519971847534
vt 0.49172401428222656 1.0145519971847534
vt 0.014387000352144241 1.0019919872283936
vt 0.49172401428222656 1.0019919872283936
vt 0.0018260000506415963 1.4918899536132812
vt 0.014387000352144241 1.4918899536132812
vt 0.014387000352144241 1.5044500827789307
vt 0.49172401428222656 1.4918899536132812
vt 0.5042849779129028 1.4918899536132812
vt 0.49172401428222656 1.5044500827789307
vt 0.6243109703063965 1.4918899536132812
vt 0.6117510199546814 1.5044500827789307
vt 0.6117510199546814 1.4918899536132812
vt 0.6117510199546814 1.0019919872283936
vt 0.6243109703063965 1.0145519971847534
vt 0.6117510199546814 1.0145519971847534
vt 0.731469988822937 1.4918899536132812
vt 0.731469988822937 1.479330062866211
vt 0.7440299987792969 1.479330062866211
vt 0.8511880040168762 1.0145519971847534
vt 0.8511880040168762 1.0019919872283936
vt 0.8637490272521973 1.0145519971847534
vt 0.014387000352144241 1.0145519971847534
vt 0.0018260000506415963 1.0145519971847534
vt 0.014387000352144241 1.0019919872283936
vt 0.5042849779129028 1.0145519971847534
vt 0.49172401428222656 1.0145519971847534
vt 0.49172401428222656 1.0019919872283936
vn 0 -1 0
vn 0 -1 0
vn 0 -1 0
vn 0 -1 0
vn 0 -1 0
vn 0 -1 0
vn 0 0 1
vn 0 0 1
vn 0 0 1
vn 0 0 1
vn 0 0 1
vn 0 0 1
vn -1 0 0
vn -1 0 0
vn -1 0 0
vn -1 0 0
vn -1 0 0
vn -1 0 0
vn 1 0 0
vn 1 0 0
vn 1 0 0
vn 1 0 0
vn 1 0 0
vn 1 0 0
vn 0 1 0
vn 0 1 0
vn 0 1 0
vn 0 1 0
vn 0 1 0
vn 0 1 0
vn 0 0 -1
vn 0 0 -1
vn 0 0 -1
vn 0 0 -1
vn 0 0 -1
vn 0 0 -1
vn 0 -1 0
vn -1 0 0
vn 0 -1 0
vn 0 -1 0
vn -1 0 0
vn -1 0 0
vn 0 0 1
vn 0 -1 0
vn 0 0 1
vn 0 0 1
vn 0 -1 0
vn 0 -1 0
vn -1 0 0
vn 0 0 1
vn -1 0 0
vn -1 0 0
vn 0 0 1
vn 0 0 1
vn 1 0 0
vn 0 -1 0
vn 1 0 0
vn 1 0 0
vn 0 -1 0
vn 0 -1 0
vn 0 0 1
vn 1 0 0
vn 0 0 1
vn 0 0 1
vn 1 0 0
vn 1 0 0
vn -1 0 0
vn 0 1 0
vn -1 0 0
vn -1 0 0
vn 0 1 0
vn 0 1 0
vn 0 1 0
vn 0 0 1
vn 0 1 0
vn 0 1 0
vn 0 0 1
vn 0 0 1
vn 0 1 0
vn 1 0 0
vn 0 1 0
vn 0 1 0
vn 1 0 0
vn 1 0 0
vn -1 0 0
vn 0 0 -1
vn -1 0 0
vn -1 0 0
vn 0 0 -1
vn 0 0 -1
vn 0 0 -1
vn 0 1 0
vn 0 0 -1
vn 0 0 -1
vn 0 1 0
vn 0 1 0
vn 0 0 -1
vn 1 0 0
vn 0 0 -1
vn 0 0 -1
vn 1 0 0
vn 1 0 0
vn 0 -1 0
vn 0 0 -1
vn 0 -1 0
vn 0 -1 0
vn 0 0 -1
vn 0 0 -1
vn -1 0 0
vn 0 -1 0
vn 0 0 1
vn 0 -1 0
vn 1 0 0
vn 0 0 1
vn 0 1 0
vn -1 0 0
vn 0 0 1
vn 1 0 0
vn 0 1 0
vn 0 0 1
vn 0 0 -1
vn -1 0 0
vn 0 1 0
vn 1 0 0
vn 0 0 -1
vn 0 1 0
vn 0 -1 0
vn -1 0 0
vn 0 0 -1
vn 1 0 0
vn 0 -1 0
vn 0 0 -1
f 1/1/1 2/2/2 3/3/3
f 4/4/4 5/5/5 6/6/6
f 7/7/7 8/8/8 9/9/9
f 10/10/10 11/11/11 12/12/12
f 13/13/13 14/14/14 15/15/15
f 16/16/16 17/17/17 18/18/18
f 19/19/19 20/20/20 21/21/21
f 22/22/22 23/23/23 24/24/24
f 25/25/25 26/26/26 27/27/27
f 28/28/28 29/29/29 30/30/30
f 31/31/31 32/32/32 33/33/33
f 34/34/34 35/35/35 36/36/36
f 37/37/37 38/38/38 39/39/39
f 40/40/40 41/41/41 42/42/42
f 43/43/43 44/44/44 45/45/45
f 46/46/46 47/47/47 48/48/48
f 49/49/49 50/50/50 51/51/51
f 52/52/52 53/53/53 54/54/54
f 55/55/55 56/56/56 57/57/57
f 58/58/58 59/59/59 60/60/60
f 61/61/61 62/62/62 63/63/63
f 64/64/64 65/65/65 66/66/66
f 67/67/67 68/68/68 69/69/69
f 70/70/70 71/71/71 72/72/72
f 73/73/73 74/74/74 75/75/75
f 76/76/76 77/77/77 78/78/78
f 79/79/79 80/80/80 81/81/81
f 82/82/82 83/83/83 84/84/84
f 85/85/85 86/86/86 87/87/87
f 88/88/88 89/89/89 90/90/90
f 91/91/91 92/92/92 93/93/93
f 94/94/94 95/95/95 96/96/96
f 97/97/97 98/98/98 99/99/99
f 100/100/100 101/101/101 102/102/102
f 103/103/103 104/104/104 105/105/105
f 106/106/106 107/107/107 108/108/108
f 109/109/109 110/110/110 111/111/111
f 112/112/112 113/113/113 114/114/114
f 115/115/115 116/116/116 117/117/117
f 118/118/118 119/119/119 120/120/120
f 121/121/121 122/122/122 123/123/123
f 124/124/124 125/125/125 126/126/126
f 127/127/127 128/128/128 129/129/129
f 130/130/130 131/131/131 132/132/132
