# Blender 4.4.1
# www.blender.org
mtllib Untitled.mtl
o arrow
v -0.100178 -0.000000 -0.020156
v 0.232152 -0.000000 0.008919
v -0.254453 -0.000000 -0.478250
v 0.034453 -0.000000 -0.645050
v -0.100178 0.178988 -0.020156
v 0.232152 0.178988 0.008919
v -0.254453 0.178988 -0.478250
v 0.034453 0.178988 -0.645050
v -0.243758 -0.000000 0.004888
v 0.369202 -0.000000 0.058515
v 0.369202 0.178988 0.058515
v -0.243758 0.178988 0.004888
v -0.013253 -0.000000 0.718671
v 0.018253 -0.000000 0.721427
v 0.018253 0.178988 0.721427
v -0.013253 0.178988 0.718671
v -0.192424 -0.000000 -0.385190
v 0.109920 -0.000000 -0.526176
v 0.109920 0.178988 -0.526176
v -0.192424 0.178988 -0.385190
v -0.124491 -0.000000 -0.230454
v 0.197742 0.178988 -0.316796
v 0.197742 -0.000000 -0.316796
v -0.124491 0.178988 -0.230454
v -0.099884 -0.000000 -0.100952
v 0.232446 0.178988 -0.130027
v 0.232446 -0.000000 -0.130027
v -0.099884 0.178988 -0.100952
v 0.158046 -0.000000 -0.423044
v -0.155435 0.178988 -0.308946
v -0.155435 -0.000000 -0.308946
v 0.158046 0.178988 -0.423044
v 0.218990 -0.000000 -0.220898
v -0.109542 0.178988 -0.162969
v -0.109542 -0.000000 -0.162969
v 0.218990 0.178988 -0.220898
vn -0.0000 -1.0000 -0.0000
vn -0.0000 1.0000 -0.0000
vn -0.0872 -0.0000 0.9962
vn 0.9974 -0.0000 -0.0724
vn 1.0000 -0.0000 0.0021
vn -0.5000 -0.0000 -0.8660
vn -0.8679 -0.0000 0.4967
vn -0.8321 -0.0000 0.5546
vn 0.3403 -0.0000 -0.9403
vn -0.1718 -0.0000 -0.9851
vn 0.8838 -0.0000 0.4679
vn -0.9516 -0.0000 0.3073
vn 0.8442 -0.0000 -0.5360
vn 0.8770 -0.0000 -0.4804
vn -0.9157 -0.0000 0.4019
vn 0.9222 -0.0000 -0.3867
vn 0.9589 -0.0000 -0.2838
vn -0.9827 -0.0000 0.1852
vn -0.9563 -0.0000 0.2924
vn 0.9834 -0.0000 -0.1815
vn -1.0000 -0.0000 -0.0036
vn -0.9972 -0.0000 0.0754
vt 1.000000 0.186531
vt 0.000000 0.186531
vt 0.000000 0.000000
vt 1.000000 0.000000
vt 1.000000 1.000000
vt 0.000000 1.000000
vt 0.186531 0.000000
vt 0.186531 1.000000
vt 0.226645 0.000000
vt 0.226645 1.000000
vt 0.000000 0.773355
vt 1.000000 0.773355
vt 0.773355 1.000000
vt 0.773355 0.000000
vt 0.365198 0.000000
vt 0.365198 1.000000
vt 1.000000 0.634802
vt 0.000000 0.634802
vt 0.000000 0.458305
vt 1.000000 0.458305
vt 1.000000 0.634802
vt 0.634802 0.000000
vt 0.634802 1.000000
vt 0.458305 1.000000
vt 0.458305 0.000000
vt 0.686766 0.000000
vt 0.686766 1.000000
vt 0.541695 1.000000
vt 0.541695 0.000000
vt 1.000000 0.313234
vt 0.000000 0.313234
vt 0.313234 0.000000
vt 0.313234 1.000000
vt 0.813469 1.000000
vt 0.813469 0.000000
s 1
usemtl arrow
f 25/1/1 27/2/1 2/3/1 1/4/1
f 6/4/2 26/1/2 28/2/2 5/3/2
f 13/3/3 14/4/3 15/5/3 16/6/3
f 27/7/4 26/8/4 6/6/5 2/3/5
f 4/3/6 3/4/6 7/5/6 8/6/6
f 17/9/7 20/10/7 7/6/8 3/3/8
s 0
f 1/3/1 2/4/1 10/4/1 9/3/1
f 2/4/9 6/5/9 11/5/9 10/4/9
f 6/5/2 5/6/2 12/6/2 11/5/2
f 5/6/10 1/3/10 9/3/10 12/6/10
f 9/3/1 10/4/1 14/4/1 13/3/1
f 10/4/11 11/5/11 15/5/11 14/4/11
f 11/5/2 12/6/2 16/6/2 15/5/2
f 12/6/12 9/3/12 13/3/12 16/6/12
s 1
f 3/5/1 4/6/1 18/11/1 17/12/1
f 8/5/2 7/6/2 20/11/2 19/12/2
f 4/4/13 8/5/13 19/13/14 18/14/14
f 31/15/15 30/16/15 20/10/7 17/9/7
f 31/17/1 29/18/1 23/19/1 21/20/1
f 32/21/2 30/18/2 24/19/2 22/20/2
f 29/22/16 32/23/16 22/24/17 23/25/17
f 35/26/18 34/27/18 24/28/19 21/29/19
f 35/30/1 33/31/1 27/2/1 25/1/1
f 36/30/2 34/31/2 28/2/2 26/1/2
f 33/32/20 36/33/20 26/8/4 27/7/4
f 1/4/21 5/5/21 28/34/22 25/35/22
f 21/29/19 24/28/19 30/16/15 31/15/15
f 17/12/1 18/11/1 29/18/1 31/17/1
f 19/12/2 20/11/2 30/18/2 32/21/2
f 18/14/14 19/13/14 32/23/16 29/22/16
f 25/35/22 28/34/22 34/27/18 35/26/18
f 21/20/1 23/19/1 33/31/1 35/30/1
f 22/20/2 24/19/2 34/31/2 36/30/2
f 23/25/17 22/24/17 36/33/20 33/32/20
