# Modified by OBJRotate180 (Mesh rotated 180 degrees around Y-axis)
# Original file: tile_editor.obj
mtllib Materials/tile_editor.mtl
v 0.475000 0.000000 -0.475000
v 0.500000 0.000000 -0.500000
v -0.500000 0.000000 -0.500000
v -0.475000 0.000000 -0.475000
v 0.475000 0.000000 -0.475000
v -0.500000 0.000000 -0.500000
v 0.500000 0.000000 0.500000
v 0.475000 0.000000 0.475000
v -0.475000 0.000000 0.475000
v -0.500000 0.000000 0.500000
v 0.500000 0.000000 0.500000
v -0.475000 0.000000 0.475000
v 0.500000 0.000000 0.500000
v 0.500000 0.000000 -0.500000
v 0.475000 0.000000 -0.475000
v 0.475000 0.000000 0.475000
v 0.500000 0.000000 0.500000
v 0.475000 0.000000 -0.475000
v -0.475000 0.000000 0.475000
v -0.475000 0.000000 -0.475000
v -0.500000 0.000000 -0.500000
v -0.500000 0.000000 0.500000
v -0.475000 0.000000 0.475000
v -0.500000 0.000000 -0.500000
vt 0.990000 0.010000
vt 0.990000 0.010000
vt 0.995000 0.010000
vt 0.995000 0.010000
vt 0.990000 0.010000
vt 0.995000 0.010000
vt 0.990000 0.005000
vt 0.990000 0.005000
vt 0.995000 0.005000
vt 0.995000 0.005000
vt 0.990000 0.005000
vt 0.995000 0.005000
vt 0.990000 0.005000
vt 0.990000 0.010000
vt 0.990000 0.010000
vt 0.990000 0.005000
vt 0.990000 0.005000
vt 0.990000 0.010000
vt 0.995000 0.005000
vt 0.995000 0.010000
vt 0.995000 0.010000
vt 0.995000 0.005000
vt 0.995000 0.005000
vt 0.995000 0.010000
vn 0.000000 1.000000 0.000000
vn 0.000000 1.000000 0.000000
vn 0.000000 1.000000 0.000000
vn 0.000000 1.000000 0.000000
vn 0.000000 1.000000 0.000000
vn 0.000000 1.000000 0.000000
vn 0.000000 1.000000 0.000000
vn 0.000000 1.000000 0.000000
vn 0.000000 1.000000 0.000000
vn 0.000000 1.000000 0.000000
vn 0.000000 1.000000 0.000000
vn 0.000000 1.000000 0.000000
vn 0.000000 1.000000 0.000000
vn 0.000000 1.000000 0.000000
vn 0.000000 1.000000 0.000000
vn 0.000000 1.000000 0.000000
vn 0.000000 1.000000 0.000000
vn 0.000000 1.000000 0.000000
vn 0.000000 1.000000 0.000000
vn 0.000000 1.000000 0.000000
vn 0.000000 1.000000 0.000000
vn 0.000000 1.000000 0.000000
vn 0.000000 1.000000 0.000000
vn 0.000000 1.000000 0.000000
o blocks_tile_default
o blocks_tile_default
usemtl material
f 1/1/1 2/2/2 3/3/3
f 4/4/4 5/5/5 6/6/6
f 7/7/7 8/8/8 9/9/9
f 10/10/10 11/11/11 12/12/12
f 13/13/13 14/14/14 15/15/15
f 16/16/16 17/17/17 18/18/18
f 19/19/19 20/20/20 21/21/21
f 22/22/22 23/23/23 24/24/24
